<?xml version="1.0" encoding="utf-8"?>
<!-- Generator: Adobe Illustrator 18.1.1, SVG Export Plug-In . SVG Version: 6.00 Build 0)  -->
<!DOCTYPE svg PUBLIC "-//W3C//DTD SVG 1.1//EN" "http://www.w3.org/Graphics/SVG/1.1/DTD/svg11.dtd">
<svg version="1.1" id="Layer_1" xmlns="http://www.w3.org/2000/svg" xmlns:xlink="http://www.w3.org/1999/xlink" x="0px" y="0px"
	 viewBox="0 0 46 62" enable-background="new 0 0 46 62" xml:space="preserve">
<g>
	<g>
		<path fill="#26616F" d="M24.8,61.8c-4.1,0-16.3-9.3-17.7-14.5c-0.8-3-1.5-6.5-2-9.4c-0.3-1.4-0.1-3.2-0.3-4L5.6,35
			c0.2,0.8,1.1,1.1,1.4,2.5c0.5,2.8,1.2,6.2,2,9.2c1.2,4.2,12.5,13,15.8,13c3.3,0,13.9-8.7,14.9-13c1-4.4,1.7-8.3,1.8-12l0.3-0.9
			l0.8-1l0.4,0.8c-0.2,3.8-0.4,9.1-1.4,13.6C40.4,52.4,28.8,61.8,24.8,61.8z"/>
	</g>
	<g>
		<g>
			<path fill="#F2F2F2" d="M9.5,9.5l2.1,6.8c0-2.8,0.9-4.1,2.3-4.5c7.6,1.3,18.4,9.6,18.6,11.2c-0.9,0.7-2,0.7-2.3,0.6l-0.5-0.7
				c-0.4,0.3-0.5,0.7-0.4,0.9c0,0.2,0.2,0.5,0.7,0.7c0.2,0.1,0.5,0.1,0.8,0.1c0.8,0,1.7-0.3,2.4-0.9c0.1-0.1,0.4-0.4,0.3-1
				c-0.3-1.2-2.8-3.4-6-5.6c4.5,2.3,9,4.1,12.1,2.4c2.7-1.5,4.2-6.2,4.2-6.2C25.1-9,9.5,2.5,9.5,9.5z"/>
			<path fill="#F2F2F2" d="M41.1,30.3c0.8-3.1-0.9-9.1-0.9-9.1s3.2-6.7,4.3-6.2c3.8,5.6-1.5,14.3-1.9,17.6c0,0.2-0.2,0.2-0.3,0.1
				L41.1,30.3z"/>
			<path fill="#F2F2F2" d="M8.2,9.9C1.1,10.1-3.9,21.6,4.4,33.6L5.6,35c-0.5-10.8,1.1-18.6,4.5-18.6C10.1,16.4,10.6,10.1,8.2,9.9z"
				/>
		</g>
	</g>
</g>
</svg>
