<?xml version="1.0" encoding="utf-8"?>
<!-- Generator: Adobe Illustrator 18.1.1, SVG Export Plug-In . SVG Version: 6.00 Build 0)  -->
<!DOCTYPE svg PUBLIC "-//W3C//DTD SVG 1.1//EN" "http://www.w3.org/Graphics/SVG/1.1/DTD/svg11.dtd">
<svg version="1.1" id="Layer_1" xmlns="http://www.w3.org/2000/svg" xmlns:xlink="http://www.w3.org/1999/xlink" x="0px" y="0px"
	 viewBox="0 0 50.4 72" enable-background="new 0 0 50.4 72" xml:space="preserve">
<g>
	<path fill="#F2F2F2" d="M37.5,41.2c1.8-0.7,3.7,1.4,1.9,2.6c-3.3,1.4-8.3-7.2-13.4-2.6c-5.1-4.6-10.1,4-13.4,2.6
		c-1.8-1.3,0.1-3.3,1.9-2.6c-1.1-1.8-5.1-0.3-3.9,3.4c1,2.9,6.9,5.7,15.4,0.3c8.5,5.4,14.4,2.6,15.4-0.3
		C42.5,40.9,38.6,39.5,37.5,41.2z"/>
	<g>
		<path fill="#26616F" d="M12.7,17.5c0.3-14.9,21.4,8.6,30.5,3.6c3-1.6,4.6-6.8,4.6-6.8C27.5-10.1,10.4,2.5,10.4,10.1L12.7,17.5z"/>
		<path fill="#26616F" d="M45.1,32.9c0.8-3.4-1-10-1-10s3.5-7.4,4.8-6.8c4.1,6.1-1.7,15.7-2.1,19.3c0,0.2-0.3,0.2-0.3,0.1L45.1,32.9
			z"/>
		<path fill="#26616F" d="M9,10.6C1.2,10.8-4.2,23.3,4.9,36.5L6.1,38c-0.6-11.9,1.2-20.3,5-20.3C11.1,17.7,11.6,10.8,9,10.6z"/>
	</g>
	<g>
		<path fill="#F2F2F2" d="M44.1,48.6c-0.7,0.8-11.6,7.9-12.2,8.2c-3.3,1.3-3.8,0.7-5.2,1c-1.4-0.3-1.7,0.3-5-1
			C21,56.5,8.7,49.4,8.1,48.6C6,45.8,8,41.1,4,35.5v16.8C6,63.2,22.4,69.1,25.7,72C29,69.1,47,63.2,47,52.3V35.5
			C44,41.1,46.1,45.8,44.1,48.6z"/>
	</g>
</g>
</svg>
