<?xml version="1.0" encoding="utf-8"?>
<!-- Generator: Adobe Illustrator 18.1.1, SVG Export Plug-In . SVG Version: 6.00 Build 0)  -->
<!DOCTYPE svg PUBLIC "-//W3C//DTD SVG 1.1//EN" "http://www.w3.org/Graphics/SVG/1.1/DTD/svg11.dtd">
<svg version="1.1" id="Layer_1" xmlns="http://www.w3.org/2000/svg" xmlns:xlink="http://www.w3.org/1999/xlink" x="0px" y="0px"
	 viewBox="0 0 1080 482.4" enable-background="new 0 0 1080 482.4" xml:space="preserve">
<g>
	<path fill="none" stroke="#F2F2F2" stroke-miterlimit="10" d="M419,99.2"/>
	<path fill="none" stroke="#F2F2F2" stroke-width="6.2389" stroke-miterlimit="10" d="M42.9,99.2c0,0.4,0,0.9,0,1.3
		c0,21.6-16.2,39.2-36.2,39.2c-0.3,0-0.7,0-1,0v299c0.3,0,0.7,0,1,0c20,0,36.2,17.5,36.2,39h993.2c0.1-21.6,16.3-39,36.2-39
		c0.7,0,1.4,0,2.1,0.1V139.7c-0.7,0-1.4,0.1-2.1,0.1c-20,0-36.2-17.5-36.2-39.2c0-0.4,0-0.9,0-1.3H42.9z"/>
	<g>
		<path fill="#F2F2F2" d="M525.4,4.7c-56,0-101.4,38.8-102.1,94.6h204.3C626.8,43.5,581.4,4.7,525.4,4.7z"/>
		<g>
			<path fill="#333335" d="M488.1,75.4c-0.7,0-1.4-0.3-2-0.9c0.6-1.7,0.8-3.2,0.8-4.5c0-1.6-0.6-3.4-1.9-5.4
				c0.3-0.8,0.5-1.5,0.5-2.2c0-0.8-0.3-1.8-0.8-2.9c-0.3-0.6-1-1.9-2.2-3.9V67c0.1,3.5,0.6,6,1.7,7.5c-0.7,0.6-1.5,0.9-2.3,0.9
				c-0.8,0-1.5-0.3-2.2-0.9c-0.6,0.6-1.2,0.9-1.9,0.9c-0.7,0-1.5-0.3-2.1-0.9c1-2.1,1.5-4.5,1.5-7.3c0-2.8-0.5-4.9-1.5-6.3
				c1-1.4,1.5-3.5,1.5-6.4c0-2-0.3-3.9-1-5.6l-0.6-1.4c1.1-0.6,2.2-0.9,3.2-0.9c0.9,0,1.9,0.3,3,0.8c0.9-0.6,1.9-0.8,3.2-0.8
				c0.8,0,1.5,0.1,2.3,0.3c0.6,0.2,1,0.3,1.2,0.5c-0.6,1-0.9,2.3-0.9,3.9c0,2,0.3,3.5,0.8,4.6L490,61l1.7-5.1
				c0.5-1.1,0.7-2.6,0.7-4.6c0-1.6-0.3-2.9-0.9-3.9c0.1-0.2,0.5-0.3,1.2-0.5c0.7-0.2,1.5-0.3,2.3-0.3c1.2,0,2.3,0.3,3.2,0.8
				c1.1-0.6,2.1-0.8,3-0.8c1,0,2.1,0.3,3.2,0.9l-0.6,1.4c-0.6,1.7-1,3.6-1,5.6c0,2.9,0.5,5,1.5,6.4c-1,1.3-1.5,3.4-1.5,6.3
				c0,2.7,0.5,5.1,1.5,7.3c-0.7,0.6-1.4,0.9-2.1,0.9c-0.7,0-1.3-0.3-1.8-0.9c-0.7,0.6-1.4,0.9-2.2,0.9c-0.8,0-1.6-0.3-2.3-0.9
				c0.7-1,1.2-2.5,1.5-4.6c0.1-0.9,0.2-1.8,0.2-2.8V55.6c-1.2,2-1.9,3.3-2.2,3.9c-0.5,1.1-0.8,2.1-0.8,2.9c0,0.7,0.2,1.4,0.5,2.2
				c-1.3,2-1.9,3.8-1.9,5.4c0,1.2,0.3,2.7,0.9,4.5c-0.6,0.6-1.3,0.9-2.1,0.9c-0.7,0-1.3-0.3-1.9-0.9
				C489.5,75.1,488.8,75.4,488.1,75.4z"/>
			<path fill="#333335" d="M514.6,65.9c-0.4,0-0.6,0.7-0.6,2.2c0,1,0.2,1.7,0.6,2.2c0.4,0.5,1.1,0.7,2.1,0.8c2.9,0.1,4.8-1,5.8-3.3
				c0.8,0.7,1.1,1.7,1,3.1c0.7,0.5,1.1,1.4,1.1,2.6c0,0.2,0,0.5,0,0.6c-0.6-0.3-1.1-0.5-1.6-0.5c-0.5,0-1.5,0.3-2.9,0.9
				c-1.4,0.6-2.8,0.9-4,0.9c-2.2,0-4.1-0.5-5.5-1.6c-1.4-1.1-2.2-2.5-2.2-4.1v-1.5c-0.1-1.5-0.6-2.5-1.5-3c0.6-0.3,1.1-0.9,1.3-1.8
				c0.1-0.4,0.2-0.8,0.2-1.2v-1.5c0-1.4,0.8-2.8,2.5-4c1.7-1.2,3.6-1.8,5.9-1.8c2.4,0,4.4,0.6,6,1.8c1.6,1.2,2.5,2.7,2.5,4.4
				c0,1.4-0.2,2.5-0.6,3.2c0.3,0.5,0.5,1,0.5,1.4c0,0.6-0.3,1-0.8,1.3c-0.2-0.3-0.4-0.5-0.6-0.8c-0.4-0.2-1.1-0.4-2.1-0.4H514.6z
				 M518.7,59.8c-0.5-0.4-1.2-0.6-1.9-0.6c-0.7,0-1.3,0.2-1.9,0.6c-0.5,0.4-0.8,0.9-0.8,1.5c0,0.6,0.3,1.1,0.8,1.5
				c0.5,0.4,1.2,0.6,1.9,0.6c0.7,0,1.4-0.2,1.9-0.6c0.5-0.4,0.8-0.9,0.8-1.5C519.5,60.7,519.2,60.2,518.7,59.8z"/>
			<path fill="#333335" d="M532.2,74.7c-0.6,0.5-1.2,0.7-1.9,0.7c-0.9,0-1.7-0.3-2.6-0.8c0.5-0.8,0.9-1.9,1.2-3.3
				c0.2-1.1,0.4-2.1,0.4-3c0-0.4,0-0.8-0.1-1.2c-0.2-0.9-0.7-1.5-1.3-1.8c0.9-0.5,1.4-1.5,1.4-3c0-0.8-0.1-1.8-0.4-3
				c-0.3-1.3-0.7-2.4-1.2-3.3c0.7-0.6,1.5-1,2.4-1c0.8,0,1.5,0.3,2.2,0.9C534,55.3,536,55,538,55c2.4,0,4.4,0.6,5.9,1.7
				c1.8,1.3,2.6,3.2,2.6,5.7c0,0.4,0.1,0.8,0.2,1.2c0.2,0.9,0.6,1.5,1.2,1.8c-0.9,0.4-1.4,1.4-1.4,3c0,0.8,0.1,1.8,0.4,3
				c0.3,1.3,0.7,2.4,1.2,3.3c-0.9,0.6-1.8,0.8-2.6,0.8c-0.7,0-1.4-0.2-1.9-0.7c-0.6,0.5-1.2,0.7-1.9,0.7c-0.9,0-1.7-0.3-2.6-0.8
				c0.5-0.8,0.9-1.9,1.2-3.3c0.2-1.1,0.3-2.1,0.3-3c0-0.4,0-0.8-0.1-1.2c-0.2-0.9-0.6-1.5-1.2-1.8c0.9-1.3,1.3-2.5,1.3-3.5
				c0-0.8-0.3-1.5-0.8-1.9c-0.5-0.5-1.1-0.7-1.8-0.7c-0.7,0-1.3,0.2-1.8,0.7c-0.5,0.5-0.8,1.1-0.8,1.9c0,1,0.4,2.2,1.3,3.6
				c-0.9,0.4-1.4,1.4-1.4,3c0,0.8,0.1,1.8,0.4,3c0.3,1.3,0.7,2.4,1.2,3.3c-0.9,0.6-1.8,0.8-2.6,0.8
				C533.4,75.4,532.8,75.1,532.2,74.7z"/>
			<path fill="#333335" d="M568.9,67.8c0,2.4-0.9,4.3-2.6,5.7c-1.6,1.2-3.5,1.9-5.8,1.9c-2.3,0-4.3-0.6-5.9-1.9
				c-1.8-1.4-2.7-3.3-2.7-5.6c0-0.5-0.1-0.9-0.2-1.2c-0.2-0.9-0.6-1.4-1.2-1.7c0.9-0.5,1.3-1.4,1.4-3c0-0.8-0.1-1.8-0.4-2.9
				c-0.3-1.3-0.7-2.4-1.2-3.2c0.9-0.6,1.7-0.8,2.6-0.8c0.7,0,1.4,0.2,1.9,0.7c0.6-0.5,1.2-0.7,1.9-0.7c0.8,0,1.7,0.3,2.6,0.8
				c-0.5,0.8-0.9,1.9-1.2,3.2c-0.3,1.1-0.4,2.1-0.4,2.9c0,0.5,0.1,0.9,0.2,1.2c0.2,0.8,0.6,1.4,1.2,1.7c-0.9,1.3-1.3,2.4-1.3,3.5
				c0,0.8,0.3,1.4,0.8,1.9c0.5,0.5,1.1,0.7,1.8,0.7c0.7,0,1.3-0.2,1.7-0.7c0.5-0.4,0.7-1.1,0.7-1.9c0-1-0.4-2.2-1.3-3.5
				c0.9-0.5,1.3-1.4,1.4-3c0-0.8-0.1-1.8-0.4-2.9c-0.3-1.3-0.7-2.4-1.2-3.2c0.9-0.6,1.7-0.8,2.6-0.8c0.7,0,1.4,0.2,1.9,0.7
				c0.6-0.5,1.2-0.7,1.9-0.7c0.8,0,1.7,0.3,2.6,0.8c-0.5,0.8-0.9,1.9-1.2,3.2c-0.3,1.1-0.4,2.1-0.4,2.9c0,0.5,0.1,0.9,0.2,1.2
				c0.2,0.8,0.6,1.4,1.2,1.7C569.5,65.3,569,66.3,568.9,67.8z"/>
		</g>
		<path fill="#F2F2F2" d="M635.7,74c1-1.8,1.7-5.2,2-8c-0.3,0.2-0.7,0.4-1,0.4c-3.2,0.6-6.8-4.3-8.2-11.1
			c-1.4-6.7,0.1-12.7,3.3-13.3c3.2-0.6,6.8,4.3,8.2,11.1c0.1,0.6,0.2,1.2,0.3,1.8c0.9,5.3,0.6,10.9-0.5,15.9
			c-1.1,5.1-4.7,9.4-8.7,13c11.2-2.6,23-2.4,34.6-1.8c11.7,0.6,23.5,1.9,35.3,3.3c11.8,1.4,23.6,3,35.5,4.4c5.5,0.7,11,1.3,16.4,1.9
			c4.9,0.5,9.7,0.4,14.5-0.5c2.8-0.5,5.7-1.3,8.3-2.6c1.2-0.6,2.4-1.4,3.4-2.5c0.4-0.4,0.8-0.9,0.8-1.6c0-0.3,0-1.1-0.4-1.2
			c-0.1,0-0.5,0.3-0.7,0.3c-0.2,0-0.4,0-0.6,0c-0.6-0.1-1.2-0.6-1.7-1.1c-0.8-0.9-1.4-2.5-0.8-3.6c1.3-2.3,4.2,1.1,5,2.8
			c1.7,3.6-1.2,5.9-3.2,7c-2.6,1.5-5.5,2.2-8.4,2.8c-2.7,0.5-5.5,0.8-8.3,0.9c3.7,0.3,7.4,0.6,11.1,0.8c5.8,0.3,11.6,0.5,17.4,0.3
			c5.8-0.2,11.6-0.7,17.2-2.3c2.6-0.7,5.2-1.8,7.5-3.4c2.2-1.6,3.7-3.8,4.7-6.8c1-3,1.1-6.4,0.3-9.8c-0.8-3.3-2.5-6.3-4.3-9
			c-3.8-5.4-8.6-9.5-13.5-12.8c-5.2-3.6-10.5-6.4-16-8.7c-5.6-2.4-11.3-4.1-17-5.3c-5.6-1.2-11.4-1.9-16.9-1.4
			c-2.6,0.2-5.4,0.7-7.6,2.3c-0.8,0.6-1.6,1.4-1.9,2.6c-0.3,1.5,0.2,3.3,0.8,4.7c0.3,0.8,0.7,1.6,1.1,2.3c0.3,0.7,0.7,1.6,1.2,2.1
			c0.9,0.9,2.1,1.4,3.2,1.8c2,0.6,4,0.4,6,0.3c1.8-0.1,3.8,0,5.6,1.2c2,1.4,4.1,3.9,5.1,6.6c0.9,2.3,0.9,4.9,0,6.9
			c-0.9,2.1-2.6,4-4.5,4.5c-1.9,0.5-3.9-0.6-5.7-1.9c-1.3-0.9-2.5-1.9-3.7-2.9c-1.2-0.9-2.4-2-3.5-3.1c-4.4-4.3-8.8-10-10.8-16.6
			c-1-3.3-1.3-6.8-0.3-9.8c1-3,3.1-4.9,5.5-6c4.8-2.3,10.4-1.9,15.7-1c11.3,1.9,22.7,6.7,33.4,12.7c5.3,3,10.5,6.4,15.5,10.5
			c4.6,3.8,9.1,8.4,12.2,14.3c1.6,3.1,2.7,6.6,2.8,10.2c0.1,3.4-0.6,6.6-1.9,9.3c-2.6,5.7-8,7.9-12.9,9.4c-5.5,1.6-11.3,2.2-17,2.5
			c-5.7,0.3-11.5,0.3-17.3,0.1c-11.7-0.4-23.4-1.4-35.2-2.5c-11.8-1.1-23.6-2.4-35.4-3.6c-11.8-1.2-23.6-2.3-35.4-2.9
			c-11.7-0.6-23.5-1.1-34.9,0.6c-1.4,0.2-2.8,0.5-4.1,0.8c-0.7,0.2-1.4,0.3-2,0.5c-0.3,0.1-1.2,0.5-1.4,0.3
			c-0.1-0.1-0.2-0.6-0.3-0.8c-0.1-0.4-0.3-0.8-0.4-1.3c-0.2-0.5-0.4-1-0.5-1.5C626.7,84.1,633.4,77.9,635.7,74z"/>
		<path fill="#F2F2F2" d="M415.7,74c-1-1.8-1.7-5.2-2-8c0.3,0.2,0.7,0.4,1,0.4c3.2,0.6,6.8-4.3,8.2-11.1c1.4-6.7-0.1-12.7-3.3-13.3
			c-3.2-0.6-6.8,4.3-8.2,11.1c-0.1,0.6-0.2,1.2-0.3,1.8c-0.9,5.3-0.6,10.9,0.5,15.9c1.1,5.1,4.7,9.4,8.7,13
			c-11.2-2.6-23-2.4-34.6-1.8c-11.7,0.6-23.5,1.9-35.3,3.3c-11.8,1.4-23.6,3-35.5,4.4c-5.5,0.7-11,1.3-16.4,1.9
			c-4.9,0.5-9.7,0.4-14.5-0.5c-2.8-0.5-5.7-1.3-8.3-2.6c-1.2-0.6-2.4-1.4-3.4-2.5c-0.4-0.4-0.8-0.9-0.8-1.6c0-0.3,0-1.1,0.4-1.2
			c0.1,0,0.5,0.3,0.7,0.3c0.2,0,0.4,0,0.6,0c0.6-0.1,1.2-0.6,1.7-1.1c0.8-0.9,1.4-2.5,0.8-3.6c-1.3-2.3-4.2,1.1-5,2.8
			c-1.7,3.6,1.2,5.9,3.2,7c2.6,1.5,5.5,2.2,8.4,2.8c2.7,0.5,5.5,0.8,8.3,0.9c-3.7,0.3-7.4,0.6-11.1,0.8c-5.8,0.3-11.6,0.5-17.4,0.3
			c-5.8-0.2-11.6-0.7-17.2-2.3c-2.6-0.7-5.2-1.8-7.5-3.4c-2.2-1.6-3.7-3.8-4.7-6.8c-1-3-1.1-6.4-0.3-9.8c0.8-3.3,2.5-6.3,4.3-9
			c3.8-5.4,8.6-9.5,13.5-12.8c5.2-3.6,10.5-6.4,16-8.7c5.6-2.4,11.3-4.1,17-5.3c5.6-1.2,11.4-1.9,16.9-1.4c2.6,0.2,5.4,0.7,7.6,2.3
			c0.8,0.6,1.6,1.4,1.9,2.6c0.3,1.5-0.2,3.3-0.8,4.7c-0.3,0.8-0.7,1.6-1.1,2.3c-0.3,0.7-0.7,1.6-1.2,2.1c-0.9,0.9-2.1,1.4-3.2,1.8
			c-2,0.6-4,0.4-6,0.3c-1.8-0.1-3.8,0-5.6,1.2c-2,1.4-4.1,3.9-5.1,6.6c-0.9,2.3-0.9,4.9,0,6.9c0.9,2.1,2.6,4,4.5,4.5
			c1.9,0.5,3.9-0.6,5.7-1.9c1.3-0.9,2.5-1.9,3.7-2.9c1.2-0.9,2.4-2,3.5-3.1c4.4-4.3,8.8-10,10.8-16.6c1-3.3,1.3-6.8,0.3-9.8
			c-1-3-3.1-4.9-5.5-6c-4.8-2.3-10.4-1.9-15.7-1c-11.3,1.9-22.7,6.7-33.4,12.7c-5.3,3-10.5,6.4-15.5,10.5
			c-4.6,3.8-9.1,8.4-12.2,14.3c-1.6,3.1-2.7,6.6-2.8,10.2c-0.1,3.4,0.6,6.6,1.9,9.3c2.6,5.7,8,7.9,12.9,9.4c5.5,1.6,11.3,2.2,17,2.5
			c5.7,0.3,11.5,0.3,17.3,0.1c11.7-0.4,23.4-1.4,35.2-2.5c11.8-1.1,23.6-2.4,35.4-3.6c11.8-1.2,23.6-2.3,35.4-2.9
			c11.7-0.6,23.5-1.1,34.9,0.6c1.4,0.2,2.8,0.5,4.1,0.8c0.7,0.2,1.4,0.3,2,0.5c0.3,0.1,1.2,0.5,1.4,0.3c0.1-0.1,0.2-0.6,0.3-0.8
			c0.1-0.4,0.3-0.8,0.4-1.3c0.2-0.5,0.4-1,0.5-1.5C424.6,84.1,417.9,77.9,415.7,74z"/>
		<rect x="471.7" y="80.6" fill="#333335" width="99.4" height="3.6"/>
		<rect x="508.2" y="46.6" fill="#333335" width="62.9" height="4.6"/>
	</g>
	<path fill="none" stroke="#F2F2F2" stroke-width="6" stroke-miterlimit="10" d="M423.3,100.2"/>
</g>
</svg>
