<?xml version="1.0" encoding="utf-8"?>
<!-- Generator: Adobe Illustrator 18.1.1, SVG Export Plug-In . SVG Version: 6.00 Build 0)  -->
<!DOCTYPE svg PUBLIC "-//W3C//DTD SVG 1.1//EN" "http://www.w3.org/Graphics/SVG/1.1/DTD/svg11.dtd">
<svg version="1.1" id="Layer_1" xmlns="http://www.w3.org/2000/svg" xmlns:xlink="http://www.w3.org/1999/xlink" x="0px" y="0px"
	 viewBox="0 0 221 410" enable-background="new 0 0 221 410" xml:space="preserve">
<g>
	<path d="M93.5,24.9c32.1,5,86.7,11.8,99,5.8s35.3,49.2,6.4,146c-23.2,77.7,9.7,141.6,21.6,161.2c1.5,2.5-0.4,5.6-3.3,5.4
		c-51.6-4.1-150.8,15.9-164.7,18.7c-1.2,0.2-2.4-0.1-3.3-1c-16.4-16.3-25.3-106.8,0.2-190.2C75.7,84.7,31.8,29.2,31.8,29.2"/>
	<path d="M194.5,30.3c-82.2-12.2-209-73.6-193.1,24c8.6,38.1,53.1,31.7,37,98.8C24.3,212.4,0.2,278.8,8.8,331
		c6.7,41,14.3,67,17.2,76.3c0.7,2.1,2.9,3.3,5,2.6c46-14.5,94-29,140.5-25.4c3.2,0.2,5.3-3.3,3.6-6.1c-7.2-11.3-19.9-32.8-13.7-33.4
		"/>
</g>
</svg>
