<?xml version="1.0" encoding="utf-8"?>
<!-- Generator: Adobe Illustrator 18.1.1, SVG Export Plug-In . SVG Version: 6.00 Build 0)  -->
<!DOCTYPE svg PUBLIC "-//W3C//DTD SVG 1.1//EN" "http://www.w3.org/Graphics/SVG/1.1/DTD/svg11.dtd">
<svg version="1.1" id="Layer_1" xmlns="http://www.w3.org/2000/svg" xmlns:xlink="http://www.w3.org/1999/xlink" x="0px" y="0px"
	 viewBox="0 0 146 400" enable-background="new 0 0 146 400" xml:space="preserve">
<g>
	<path d="M103.3,19l-13-1.2v-0.6c0-0.4-0.2-0.8-0.5-1l-5.9-4.3c-0.1-0.1-0.2-0.1-0.3-0.1h-5.7c-0.3,0-0.5-0.2-0.5-0.5l0-3.6
		c0-0.8,0.5-1.6,1.3-1.7c0.6-0.1,1-0.6,1-1.2V2.7c0-1.5-1.2-2.7-2.7-2.7h-6.8l0,0l0,0C69,0,68,1.1,68,2.4v2c0,0.8,0.5,1.6,1.3,1.7
		c0.6,0.1,1,0.6,1,1.2v4.1c0,0.3-0.2,0.5-0.5,0.5h-6c-0.1,0-0.2,0-0.3,0.1l-5.8,4.3c-0.3,0.2-0.4,0.6-0.4,1v0.6l-13,1.2
		c-5.9,0-4.7,11.6,0,11.6h1.9c0.3,0,0.5,0.2,0.5,0.5V33h1.2v3.5h-1.2c-2.4,0-1.2,38.1,0,38.1h1.2v5.4c0,0.3,0.2,0.5,0.5,0.5h29l0,0
		h21.9c0.3,0,0.5-0.2,0.5-0.5v-5.4h1.2c1.2,0,2.4-38.1,0-38.1h-1.2V33h1.2v-1.9c0-0.3,0.2-0.5,0.5-0.5h1.9
		C108,30.6,109.2,19,103.3,19z"/>
	<path d="M138.8,95.1l-34.4-14.6c-1.4-0.6-3-0.9-4.6-0.9H73.3H46.1c-1.6,0-3.1,0.3-4.6,0.9L7.2,95.1c-4.5,1.9-7.3,6.4-7.1,11.3
		c1,20.2,3.3,75.8,3.7,140.5c0.4,64,0.2,119.9,0,141c0,5.3,3.5,9.9,8.5,11.3l1.7,0.5c1,0.3,2.1,0.4,3.1,0.4h56.1h55.6
		c1.1,0,2.1-0.1,3.1-0.4l1.7-0.5c5.1-1.4,8.6-6,8.5-11.3c-0.1-21.1-0.3-77,0-141c0.4-64.7,2.7-120.3,3.7-140.5
		C146.2,101.5,143.3,97,138.8,95.1z"/>
</g>
</svg>
