<?xml version="1.0" encoding="utf-8"?>
<!-- Generator: Adobe Illustrator 18.1.1, SVG Export Plug-In . SVG Version: 6.00 Build 0)  -->
<!DOCTYPE svg PUBLIC "-//W3C//DTD SVG 1.1//EN" "http://www.w3.org/Graphics/SVG/1.1/DTD/svg11.dtd">
<svg version="1.1" id="Layer_1" xmlns="http://www.w3.org/2000/svg" xmlns:xlink="http://www.w3.org/1999/xlink" x="0px" y="0px"
	 viewBox="0 0 372 280" enable-background="new 0 0 372 280" xml:space="preserve">
<path fill-rule="evenodd" clip-rule="evenodd" d="M251.6,99.9C272,71.3,321.7,5.9,319.9,0c-10.3,5.6-74.4,77-97.5,103.4
	c-33.4,5.7-121.1,14.1-126.8,9.3c-4.5-3.7-5.7-10.3-9-13.2c-8.8-7.8-21.9-7-30.1-1.8c-7.2,4.6-8.7,15.5-16,20
	c-14.5,8.8-25.6-3.3-38.6-8.3c-0.8-0.9-1.3,0-1.7,1c11,20.1,33.9,9.4,45.6,18.1c5.2,3.9,7.4,9.8,12.1,12.5
	c7.6,4.4,20.2,4.1,29.2-3.5c4.4-3.7,4.4-12.1,11.4-16c3.3-1.9,36.7-1.5,43.3-1.4c19.5,0.1,44-2.4,57.6,10.9c0.5,6.7,1,13.4,1.5,20
	c-7.3,12.1-31.7,63.9-39.2,68.6c-3.7,2.3-8,2.3-11,3c-20,4.7-36.2,24.4-25,43.9c5.5,9.6,18.6,16.3,30.4,12.1
	c15.9-5.7,22.6-21.4,20.8-33.3c-0.9-5.6-7.1-10.9-8.2-19.5c-0.7-5.8,48.3-77.6,66.7-102.4c33.8-6.8,126.5-29.2,136.5-36
	C368,83.5,286.2,96.2,251.6,99.9z M50.3,124.6c-2.2-6.2-0.4-14.3,7.4-20.7c9.9-8.1,22.3-7.1,29.4,4.5
	C102.9,134.2,60.2,152.5,50.3,124.6z M130,264.1c-7.1-12.2-1.4-23.1,9.3-31.1c11-8.3,21-6.3,26.3-0.6C188.7,257,146.7,293,130,264.1
	z M232.9,121.1c-3.9,2.3-8.9,1-11.2-2.9c-2.3-3.9-1-8.9,2.9-11.2c3.9-2.3,8.9-1,11.2,2.9C238.1,113.7,236.8,118.8,232.9,121.1z"/>
</svg>
