<?xml version="1.0" encoding="utf-8"?>
<!-- Generator: Adobe Illustrator 18.1.1, SVG Export Plug-In . SVG Version: 6.00 Build 0)  -->
<!DOCTYPE svg PUBLIC "-//W3C//DTD SVG 1.1//EN" "http://www.w3.org/Graphics/SVG/1.1/DTD/svg11.dtd">
<svg version="1.1" id="Layer_1" xmlns="http://www.w3.org/2000/svg" xmlns:xlink="http://www.w3.org/1999/xlink" x="0px" y="0px"
	 viewBox="0 0 404 375" enable-background="new 0 0 404 375" xml:space="preserve">
<g>
	<path fill="#0F0404" d="M379.8,134.5c-6.8,7.9-116.7,81.2-122.9,83.8c-33.5,13.6-37.5,7.5-52,10.6c-14.5-3.1-17.1,3-50.7-10.6
		c-6.2-2.5-119.1-75.8-125.9-83.8C7.3,106.1,21,57.6,0,0v172.2C11,284.5,170.5,345.3,204.4,375C238.3,345.3,399,284.5,404,172.2V0
		C384,57.6,400.7,106.1,379.8,134.5z"/>
	<path d="M365,71.6c0-0.1,0-0.2,0-0.2c-0.1-0.7-0.1-1.4-0.2-2.1c-1.4-8.4-8.4-18.5-16.6-23c-0.1,0-0.1-0.1-0.2-0.1
		c-1.7-0.9-3.4-1.6-5.2-1.9c-12.1-2.4-19.9,3.8-22,10.9c5.5-5.7,12.7-5.7,18.1-2.1c0.1,0,0.1,0.1,0.2,0.1c5.8,3.9,9.5,11.9,6.5,21.2
		c-9.2,11.6-23.4,6.7-35.1,0.3c-0.1,0-0.1-0.1-0.2-0.1c-1.5-0.8-2.9-1.7-4.3-2.5c-7.5-4.6-14.8-9.9-22.5-14.9l0,0c0,0-0.1,0-0.1,0
		c0,0-0.1,0.1-0.2,0.1l-0.1,0.2c0,0,0,0,0,0c-9.3-6.3-19.3-11.7-30.9-14.3c-0.3-0.1-0.5-0.2-0.7-0.2c-5.6-1.2-11.5-1.9-17.9-1.6
		c-14.3,0.6-22,6.5-33.8,12.3c-1.9-1.4-3.9-2.8-6-4.1c-0.2-0.1-0.4-0.2-0.5-0.3c-8.8-5.3-19.7-9.2-32.2-8.2
		c-2.9,0.2-5.8,0.8-8.7,1.5c-0.2,0.1-0.4,0.1-0.6,0.1l-0.1,0.1c-13.3,3.8-26.4,12.2-38.6,19.2c-6.4,3.7-13.9,8.1-22.8,12.4
		c-8,3.9-19.1,10.1-27.2,6.5c-2.1-0.9-3.6-2.8-4.5-5.2c-0.1-0.2-0.2-0.4-0.2-0.6c-2.8-8,0.5-21,8.6-23.6c4.8-1.5,7.4-0.5,13.9,1.5
		c-1.8-5.9-10.5-7.4-16.1-7.4C49.5,45.5,39.5,61,39,73.9c-0.2,5.2,0.5,10,1.8,14.2c0.1,0.2,0.1,0.4,0.2,0.6
		c3.4,10.1,10.6,17.5,19.4,22.6l-0.3,0.2c0.1,0,0.2,0.1,0.2,0.1c4.2,2.4,8.7,4.3,13.3,5.7c7.4,2.3,15.3,3.7,23.2,4.2
		c0.3,0,0.6,0,0.9,0.1c20.4,1.3,41.8-2.4,59.9-8.3c0.6-0.2,1.1-0.4,1.7-0.6c8-2.7,15.2-5.7,21.4-8.9c7.7-4,14.1-8.7,20.6-13.1
		c5.9,4.7,12.5,9.1,19.8,13c0.1,0,0.2,0.1,0.2,0.1l0,0c9.8,5.3,20.8,9.8,32.8,13c0.1,0,0.2,0,0.3,0.1c13.1,3.5,27.5,5.5,42.9,5.4
		c0.1,0,0.2,0,0.4,0c3.9,0,7.9-0.2,11.9-0.5c15.5-1.1,33.1-7.3,42.6-16C359.8,98.9,366.1,84.8,365,71.6z"/>
</g>
</svg>
