<?xml version="1.0" encoding="utf-8"?>
<!-- Generator: Adobe Illustrator 18.1.1, SVG Export Plug-In . SVG Version: 6.00 Build 0)  -->
<!DOCTYPE svg PUBLIC "-//W3C//DTD SVG 1.1//EN" "http://www.w3.org/Graphics/SVG/1.1/DTD/svg11.dtd">
<svg version="1.1" id="Layer_1" xmlns="http://www.w3.org/2000/svg" xmlns:xlink="http://www.w3.org/1999/xlink" x="0px" y="0px"
	 viewBox="0 0 612.3 612" enable-background="new 0 0 612.3 612" xml:space="preserve">
<g>
	<path fill="#FFFFFF" d="M612.3,305.7c0,168.3-136.4,304.7-304.7,304.7C139.3,610.4,2.9,474,2.9,305.7C2.9,137.4,139.3,1,307.6,1
		C475.9,1,612.3,137.4,612.3,305.7z"/>
	<path d="M595.6,305.7c0,159.1-128.9,288-288,288c-159.1,0-288-128.9-288-288c0-159.1,128.9-288,288-288
		C466.7,17.7,595.6,146.6,595.6,305.7z"/>
	<path fill="#FFFFFF" d="M514.6,305.7c0,114.3-92.7,207-207,207c-114.3,0-207-92.7-207-207c0-114.3,92.7-207,207-207
		C421.9,98.7,514.6,191.4,514.6,305.7z"/>
	<path d="M499.6,305.7c0,106-86,192-192,192c-106,0-192-86-192-192c0-106,86-192,192-192C413.6,113.7,499.6,199.6,499.6,305.7z"/>
	<g>
		<path fill="#FFFFFF" d="M110.7,177c-0.1,1.2,0.5,2.3,1.7,3.5c0.5,0.5,1.1,0.9,1.8,1.4l0.8,0.4c2.4,1.9,3.7,4.6,3.8,8
			c0.1,3.4-0.8,6.9-2.7,10.3c-1.8,3.2-4.2,5.9-7.1,8c0.4,2,0.2,3.6-0.6,5c-0.8,1.4-2,2.4-3.5,2.9c-2.5-3.4-5.9-6.3-10.1-8.6
			c-4.5-2.5-8.2-3.6-11.1-3.2c-1.3-2.7-4.1-5.3-8.6-7.8c-4.3-2.4-8.5-3.7-12.7-4c-0.4-1.6-0.2-3.2,0.6-4.6c0.8-1.4,2.1-2.4,3.9-3.2
			c0.2-3.4,1.2-6.7,3-9.9c2.1-3.7,4.6-6.5,7.8-8.3c3.1-1.9,5.9-2.1,8.4-0.8c2.5,1.3,4.5,1.5,5.9,0.5c0,1.2,0.6,2.4,1.7,3.5
			c0.5,0.5,1.1,0.9,1.7,1.3c2.1,1.4,3,3.8,2.7,7c1.7-1.3,3.4-2,4.9-2.1c0.6,0,1.2,0.1,1.7,0.3C107.2,177.9,109.2,178,110.7,177z
			 M83.4,177.4c-0.9-0.5-1.9-0.5-2.9-0.1c-1,0.5-1.8,1.2-2.4,2.2c-0.7,1.3-0.8,2.6-0.4,4c0.5,1.6,1.8,3,3.8,4.1
			c2.1,1.2,3.9,1.5,5.6,1.1c1.4-0.4,2.5-1.2,3.2-2.5c0.6-1,0.8-2.1,0.6-3.2c-0.2-1.1-0.7-1.9-1.6-2.4c-1-0.5-2.2-0.6-3.7-0.2
			C85.1,178.9,84.4,177.9,83.4,177.4z M105.4,198.9c1.6-0.3,2.7-1.1,3.5-2.4c0.6-1.1,0.8-2.2,0.5-3.4c-0.3-1.2-0.9-2.1-2-2.7
			c-1.1-0.6-2.5-0.8-4.2-0.4c-0.6-1.6-1.5-2.7-2.5-3.3c-1.1-0.6-2.2-0.7-3.3-0.3c-1.1,0.4-2,1.2-2.6,2.2c-0.7,1.3-0.8,2.8-0.2,4.2
			c0.7,1.7,2.2,3.3,4.6,4.6C101.5,198.7,103.6,199.2,105.4,198.9z"/>
		<path fill="#FFFFFF" d="M148.5,155.8c-0.9,1.1-1.9,1.5-2.8,1.2c-1.1-2.4-2.4-4.3-4.2-5.9c-2.1-1.9-4.4-2.8-6.9-2.9
			c-2.4,0-4.4,0.9-6,2.7c-1.6,1.9-2.3,4-1.9,6.4c0.4,2.4,1.6,4.5,3.8,6.4c1.7,1.5,3.8,2.6,6.3,3.4c0.4,0.9,0.1,1.9-0.8,3
			c-1,1.1-2.5,2.2-4.6,3.2c0.1,1.3-0.4,2.5-1.4,3.5c-1.2,1.3-2.8,2.4-4.9,3.1c-0.6-9-3.8-16-9.6-21.1c-1.1-0.9-2-1.6-2.9-2.1
			c-1.4-8.3-4.5-14.6-9.4-18.8c-1.7-1.5-3.3-2.4-4.7-2.5c0-1.7,0.4-3.1,1.4-4.2c1-1.1,2.4-1.7,4.2-1.9c-0.1-1.8,0.3-3.2,1.3-4.3
			c1-1.1,2.3-1.8,4-1.9c0.4,1.4,1.4,2.8,3.1,4.3c4.9,4.3,11.5,6.5,19.9,6.8c0.6,0.8,1.5,1.7,2.5,2.6c5.8,5.1,13.2,7.3,22.1,6.8
			c-0.5,2.2-1.3,4-2.4,5.3c-1,1.1-2.1,1.7-3.3,1.8C150.4,152.9,149.5,154.6,148.5,155.8z M116.4,140.2c1.1,3.3,2.8,6,5.2,8
			c0.3-1.1,0.7-1.9,1.2-2.5c0.5-0.5,1.2-1,2.3-1.5C122.7,142.2,119.8,140.9,116.4,140.2z"/>
		<path fill="#FFFFFF" d="M193.7,118.9c-3.1,2.1-6.8,2.9-11,2.5c0.1-2.3-0.3-4.1-1.3-5.5c-1.1-1.6-3.3-2.9-6.5-4
			c0-1.1-0.2-2.1-0.8-2.9c-0.8-1.1-1.9-1.8-3.4-2c-1.5-0.2-2.9,0.1-4,0.9c-1.2,0.8-1.8,2-1.9,3.5c-0.1,1.7,0.6,3.7,2.2,6
			c3.8,5.6,7.6,8.7,11.3,9.4c-0.4,1.6-1.2,2.9-2.5,3.8c-1.3,0.9-3,1.3-4.9,1.1c-0.5,1.9-1.5,3.3-2.8,4.3c-1.3,0.9-2.8,1.2-4.4,1
			c-0.7-4.2-2.5-8.2-5.2-12.3c-2.9-4.2-5.7-6.8-8.5-7.7c0.1-3-1.3-6.6-4.2-10.8c-2.8-4-6-7.1-9.5-9.2c0.4-1.6,1.2-2.9,2.5-3.8
			c1.3-0.9,3-1.3,5-1.1c1.6-2.9,4-5.4,7-7.5c3.5-2.4,7-3.7,10.5-4c3.7-0.2,6.3,0.8,8,3c1.6,2.3,3.4,3.3,5.2,3
			c-0.6,1.1-0.6,2.4-0.1,3.9c0.2,0.6,0.5,1.3,1,2c1.2,2.2,1,4.7-0.6,7.5c2-0.4,3.7-0.2,5.1,0.5c0.6,0.3,1.1,0.8,1.5,1.3
			c1.1,1.8,2.6,2.4,4.4,1.9c0.1,0,0.8,0.7,2,2.1c1.6,1.8,3.1,3.3,4.5,4.3c2.3,1.6,4.6,2.7,6.9,3.2
			C197.4,115.6,195.7,117.5,193.7,118.9z M161.8,92.4c-0.6-0.8-1.4-1.3-2.5-1.4c-1.1-0.1-2.2,0.2-3.2,0.9c-1.2,0.8-1.9,2-2.1,3.4
			c-0.2,1.7,0.3,3.5,1.7,5.4c1.3,1.9,2.8,3.1,4.4,3.4c1.4,0.3,2.7,0.1,3.9-0.8c1-0.7,1.6-1.5,2-2.6c0.3-1.1,0.2-2-0.4-2.9
			c-0.6-0.9-1.7-1.5-3.2-1.8C162.6,94.6,162.4,93.3,161.8,92.4z"/>
		<path fill="#FFFFFF" d="M236.9,81.2c-0.8,0.9-1.1,2.1-0.9,3.8c0.1,0.7,0.3,1.4,0.5,2.2l0.3,0.8c0.7,3,0,5.9-2.1,8.6
			c-2.1,2.7-4.9,4.8-8.6,6.3c-3.4,1.4-7,1.9-10.6,1.6c-1,1.8-2.2,2.9-3.6,3.5c-1.5,0.6-3,0.6-4.6,0.1c0.2-4.2-0.6-8.6-2.4-13.1
			c-1.9-4.8-4.1-8-6.6-9.5c0.7-2.9,0.2-6.7-1.7-11.5c-1.8-4.5-4.2-8.3-7.3-11.2c0.7-1.5,1.8-2.6,3.4-3.2c1.5-0.6,3.2-0.6,5.1,0
			c2.3-2.5,5.1-4.4,8.6-5.8c3.9-1.6,7.7-2.1,11.3-1.5c3.6,0.5,5.9,2.1,7,4.7c1.1,2.6,2.5,4,4.3,4.1c-0.8,0.9-1.1,2.2-0.9,3.8
			c0.1,0.7,0.2,1.4,0.5,2.1c0.7,2.4-0.1,4.8-2.3,7.2c2.2,0.1,3.9,0.6,5.1,1.4c0.5,0.4,0.9,0.8,1.2,1.3
			C233.7,79.7,235.2,81.1,236.9,81.2z M215.6,64.3c-0.4-1-1.1-1.6-2.2-1.9c-1.1-0.3-2.2-0.2-3.3,0.2c-1.3,0.5-2.3,1.5-2.9,2.8
			c-0.6,1.6-0.5,3.4,0.4,5.6c0.9,2.2,2.1,3.7,3.6,4.4c1.3,0.6,2.7,0.6,4,0.1c1.1-0.4,1.9-1.1,2.5-2.1c0.6-1,0.7-1.9,0.3-2.9
			c-0.4-1-1.3-1.9-2.7-2.5C215.9,66.6,216,65.3,215.6,64.3z M219,94.9c1.4,0.8,2.8,0.9,4.2,0.3c1.1-0.5,2-1.2,2.6-2.3
			c0.6-1.1,0.6-2.2,0.2-3.3c-0.5-1.2-1.5-2.2-3-3c0.5-1.6,0.6-3,0.1-4.2c-0.5-1.1-1.3-1.9-2.4-2.3c-1.2-0.4-2.3-0.4-3.4,0.1
			c-1.4,0.6-2.4,1.6-2.9,3.1c-0.6,1.8-0.4,3.9,0.6,6.4C216,92.3,217.4,94,219,94.9z"/>
		<path fill="#FFFFFF" d="M267.1,66.8c-1.6,0.3-2.8,1-3.7,2.1c-0.9,1.2-1.2,2.7-0.9,4.5l0.7,3.7c0.6,3.4,2.6,4.8,6.1,4.1
			c1.8-0.3,3.4-1.1,5-2.3c1.5-1.2,2.4-2.5,2.6-3.9c2.1,1,3.3,2.7,3.7,5c0.2,1.2,0.2,2.3-0.1,3.4c0.9,0.2,1.5,1.5,1.7,3.9
			c-1.2-0.4-2.7-0.5-4.5-0.1c-1.2,0.2-2.3,0.5-3.4,1c-1.1,0.5-2.2,1-3.2,1.5c-1.3,0.6-2.5,1-3.6,1.2c-2.2,0.4-4.6,0.1-7.3-0.9
			c-1.3,1.5-2.7,2.4-4.3,2.7c-1.6,0.3-3.1,0-4.5-0.9c1.1-4.1,1.2-8.5,0.4-13.4c-0.9-5.1-2.4-8.6-4.6-10.7c1.4-2.7,1.6-6.6,0.7-11.6
			c-0.9-4.8-2.5-9-5-12.5c1.1-1.3,2.4-2.2,3.9-2.4c1.6-0.3,3.3,0.1,5,1.1c2.1-1.8,4.3-2.9,6.5-3.3c1.1-0.2,2.3-0.2,3.8-0.1
			c1.2,0.1,2.4,0.3,3.5,0.3c1.2,0.1,2.3,0,3.5-0.2c1.8-0.3,3.2-0.9,4.2-1.7c0.6,2.3,0.5,3.7-0.3,4.2c0.6,1,1,2,1.2,3.2
			c0.4,2.3-0.2,4.3-1.8,5.9c-0.7-1.2-1.9-2.1-3.8-2.7c-1.9-0.6-3.7-0.8-5.5-0.5c-3.5,0.6-4.9,2.6-4.3,6l0.7,3.7
			c0.3,1.8,1.1,3.1,2.3,3.8c1.2,0.8,2.7,1,4.3,0.8c2.6-0.5,4.8-1.9,6.5-4.4c0.4,0.6,0.6,1.2,0.7,1.9c0.3,1.4-0.1,2.8-1,4.1
			c1.3,0.9,2,2.1,2.3,3.5c0.1,0.7,0.1,1.4,0,2.1C272.3,67,269.7,66.4,267.1,66.8z"/>
		<path fill="#FFFFFF" d="M327.6,87.8c-3.8-0.1-7.2-1.7-10.3-4.6c1.4-1.8,2.2-3.5,2.2-5.1c0.1-1.9-0.9-4.3-2.8-7.1
			c0.7-0.9,1.1-1.8,1.1-2.8c0.1-1.4-0.5-2.6-1.6-3.6c-1.1-1.1-2.4-1.6-3.8-1.7c-1.5-0.1-2.6,0.5-3.6,1.7c-1.1,1.3-1.7,3.4-1.8,6.1
			c-0.2,6.8,0.9,11.5,3.4,14.3c-1.3,1.1-2.7,1.6-4.3,1.5c-1.6-0.1-3.2-0.8-4.6-2.1c-1.6,1.2-3.2,1.8-4.8,1.7c-1.6-0.1-3-0.7-4.2-1.8
			c1.9-3.8,2.9-8.1,3.1-13c0.2-5.1-0.6-8.9-2.2-11.3c1.8-2.4,2.9-6.1,3-11.2c0.2-4.9-0.5-9.2-2.2-13.1c1.3-1.1,2.7-1.6,4.3-1.6
			c1.6,0.1,3.2,0.8,4.7,2.1c3-1.3,6.4-1.9,10.1-1.8c4.2,0.2,7.8,1.2,10.8,3c3.1,2,4.6,4.4,4.6,7.2c0,2.8,0.7,4.6,2.3,5.5
			c-1.1,0.5-1.9,1.5-2.4,3.1c-0.2,0.7-0.3,1.4-0.4,2.2c-0.3,2.5-2,4.4-5,5.6c1.8,0.9,3.1,2,3.8,3.4c0.3,0.6,0.4,1.3,0.5,1.9
			c-0.2,2.1,0.6,3.5,2.4,4.2c0.1,0,0.2,1,0.4,2.9c0.2,2.4,0.5,4.4,1,6.2c0.8,2.7,2,4.9,3.7,6.7C332.6,87.4,330.1,87.9,327.6,87.8z
			 M317.8,47.6c0-1-0.4-1.9-1.2-2.6c-0.9-0.7-1.9-1.1-3.1-1.2c-1.5-0.1-2.7,0.4-3.7,1.4c-1.2,1.2-1.8,3-1.9,5.3
			c-0.1,2.3,0.4,4.1,1.5,5.4c0.9,1.1,2.1,1.7,3.6,1.7c1.2,0,2.2-0.3,3.1-0.9c0.9-0.6,1.4-1.5,1.4-2.6c0-1.1-0.4-2.2-1.5-3.4
			C317.2,49.8,317.8,48.7,317.8,47.6z"/>
		<path fill="#FFFFFF" d="M423.8,77.1c-0.2-5.3-1.9-8.7-5.1-10.2c-1.5-0.7-3-0.8-4.5-0.3c-1.5,0.5-2.6,1.5-3.2,2.9
			c-0.6,1.3-0.7,2.8-0.3,4.5c0.8,1.7,2,3,3.6,3.7c0.9,0.4,1.8,0.6,2.8,0.6c-0.3,1.4,0.1,3.2,1.2,5.3c0.5,0.9,1,1.8,1.7,2.9
			c3.4,4.6,3.9,9.4,1.5,14.5c-1.7,3.7-4.6,6.2-8.5,7.6c-4.3,1.5-9,1-13.9-1.3c-2.5-1.2-4.9-2.8-7.3-4.8c-0.5-0.4-1.2-1.2-2.1-2.5
			c-0.7-0.9-1.4-1.5-2.1-1.9c-1.1-0.5-2.5-0.6-4.3-0.3c0.1-0.5,0.3-0.9,0.5-1.4c1.1-2.4,2.7-3.6,4.9-3.8c-0.2-0.9,0-1.9,0.5-3.1
			c0.7-1.4,1.8-2.8,3.4-4.1c0.2,3.3,1.3,6.3,3.2,8.9c1.6,2.3,3.6,4,6,5.1c2,0.9,3.8,1.3,5.5,1c1.7-0.2,2.9-1,3.5-2.4
			c0.7-1.4,0.7-3.3,0-5.6c-0.8-1.8-2.2-3.2-4.3-4.1c-1-0.5-2.1-0.8-3.1-0.9c1.1-2.9,0.8-5.3-1-7c-3.1-4.5-3.6-9-1.5-13.6
			c1.7-3.6,4.5-6.2,8.4-7.7c4.1-1.6,8.1-1.5,12,0.3c2.3,1.1,4.3,2.7,6,4.9c0.4,0.6,0.7,1.1,1.1,1.6c0.3,0.5,0.9,0.9,1.5,1.2
			c0.6,0.3,1.6,0.7,2.9,1.1c-0.1,0.4-0.2,0.8-0.4,1.1c-0.7,1.5-2,2.6-3.8,3.4C427.6,74.7,426,76.2,423.8,77.1z"/>
		<path fill="#FFFFFF" d="M468.1,99.3c2.1-3.4,3.1-6,2.8-8c1.7-0.2,3.1,0.2,4.3,1.2c1.2,0.9,2,2.3,2.3,4.2c1.9-0.2,3.4,0.2,4.6,1.1
			c1.2,0.9,2,2.2,2.3,3.9c-3.8,2-7.2,4.9-10.2,8.9c-3.2,4.1-4.8,7.7-4.8,10.7c-2.9,0.8-5.9,3.3-9.1,7.4c-3,3.9-5,8-5.9,12.2
			c-1.7,0.1-3.2-0.3-4.4-1.2c-1.2-0.9-2-2.3-2.3-4.2c-1.9,0.2-3.4-0.2-4.6-1.1c-1.2-0.9-2-2.2-2.3-3.9c2-0.3,4.3-1.9,7-4.8
			c0.7-0.8,2.4-2.9,5.1-6.5c1.6-2.1,1.8-3.9,0.8-5.6c-0.5-0.6-0.9-1-1.4-1.4c-0.4-0.3-1-0.6-1.7-1c-1.9-0.5-3.6,0.2-5.2,2.3
			c-2.7,3.5-4.3,5.7-4.9,6.6c-2.1,3.4-3.1,6-2.8,8c-1.7,0.1-3.2-0.3-4.3-1.2c-1.2-0.9-2-2.3-2.4-4.2c-1.9,0.2-3.4-0.2-4.6-1.1
			c-1.2-0.9-1.9-2.2-2.3-3.9c3.8-2,7.2-4.9,10.2-8.9c3.2-4.1,4.7-7.7,4.8-10.7c2.9-0.8,5.9-3.3,9.1-7.4c3-3.9,5-8,5.9-12.2
			c1.7-0.1,3.2,0.3,4.3,1.2c1.2,0.9,2,2.3,2.3,4.2c1.9-0.2,3.4,0.2,4.7,1.2c1.2,0.9,1.9,2.2,2.3,3.9c-2,0.3-4.3,1.9-7,4.8
			c-0.7,0.8-2.4,2.9-5.1,6.5c-1.6,2.1-1.9,3.9-0.9,5.6c0.5,0.6,0.9,1.1,1.4,1.4c0.5,0.3,1,0.7,1.7,1c1.9,0.6,3.6-0.2,5.2-2.2
			C465.9,102.4,467.6,100.2,468.1,99.3z"/>
		<path fill="#FFFFFF" d="M480.1,168.3c-2.3-1-4.5-2.6-6.7-4.8c-1.9-2.5-3.2-4.9-3.8-7.3c-1.5-5.7,0.1-10.6,5.1-14.8l4.6-3.9
			c2-1.9,2.8-3.7,2.3-5.5c1.1,0.5,2.4,0.4,4-0.2c0.6-0.3,1.2-0.7,1.9-1.2l4.4-3.7c4.7-4,9.8-4.8,15.3-2.4c2.3,1,4.5,2.7,6.7,4.9
			c1.8,2.6,3,5,3.7,7.4c1.5,5.8-0.2,10.7-4.9,14.7l-4.4,3.7c-2,1.9-2.8,3.7-2.3,5.5c-1.1-0.5-2.4-0.4-4,0.2
			c-0.6,0.3-1.2,0.7-1.9,1.2l-4.6,3.9C490.6,169.9,485.5,170.7,480.1,168.3z M493.2,154c2-1.9,2.8-3.7,2.3-5.5
			c1.1,0.5,2.5,0.5,4-0.2c0.6-0.3,1.2-0.7,1.9-1.2l4.1-3.5c1.5-1.2,2.3-2.6,2.5-4.1c0.2-1.5-0.2-2.8-1.2-3.9
			c-0.9-1.1-2.1-1.7-3.6-1.8c-1.5-0.1-3,0.5-4.5,1.7l-4.1,3.5c-2,1.9-2.8,3.7-2.3,5.5c-1.1-0.5-2.5-0.5-3.9,0.2
			c-0.6,0.3-1.2,0.7-1.9,1.2l-4.1,3.5c-1.5,1.3-2.3,2.7-2.5,4.2c-0.1,1.5,0.2,2.8,1.1,3.9c0.9,1.1,2.2,1.7,3.7,1.8
			c1.5,0.1,3-0.5,4.5-1.7L493.2,154z"/>
		<path fill="#FFFFFF" d="M493.4,189.7c-0.7-1.4-0.9-2.9-0.5-4.5c4.2-0.2,8.5-1.5,12.9-3.8c4.5-2.4,7.5-5,8.7-7.7
			c3,0.5,6.7-0.5,11.3-3c4.3-2.3,7.8-5.2,10.4-8.6c1.6,0.6,2.8,1.6,3.5,3c0.8,1.4,0.9,3.1,0.5,5.1c2.7,2,4.9,4.6,6.7,7.9
			c2,3.8,2.9,7.5,2.8,11.1c-0.1,3.7-1.4,6.2-3.9,7.6c-2.5,1.4-3.7,3-3.6,4.8c-1-0.7-2.3-0.9-3.9-0.5c-0.7,0.2-1.4,0.4-2.1,0.8
			c-4.3,2-7.6,2-9.9-0.2c-2.2-1.1-4.2-3.5-6.1-7c-1.7-3.1-3.5-4.7-5.5-4.8c-0.8,0-2.3,0.5-4.5,1.7c-4.6,2.5-7.6,5.5-9,9
			c-1.6-0.5-2.7-1.5-3.5-2.9c-0.7-1.4-0.9-3-0.5-4.9C495.4,192.1,494.1,191.1,493.4,189.7z M537.7,188.5c1-0.5,1.5-1.3,1.7-2.4
			c0.2-1.1,0-2.2-0.6-3.2c-0.7-1.3-1.8-2.2-3.1-2.5c-1.7-0.4-3.6-0.1-5.7,1c-2.1,1.1-3.4,2.5-3.9,4.1c-0.5,1.3-0.4,2.7,0.3,4
			c0.6,1.1,1.4,1.8,2.4,2.3c1,0.5,2,0.5,2.9,0c1-0.5,1.7-1.5,2.2-3C535.5,189.1,536.7,189,537.7,188.5z"/>
	</g>
	<g>
		<path fill="#FFFFFF" d="M110,495.1c-0.9-1-1.2-2-0.9-2.9c2.5-0.8,4.6-1.9,6.3-3.5c2.1-1.9,3.3-4.1,3.6-6.5c0.3-2.4-0.4-4.5-2-6.3
			c-1.7-1.8-3.7-2.7-6.1-2.6c-2.4,0.1-4.7,1.1-6.8,3c-1.7,1.5-3.1,3.5-4.1,5.9c-0.9,0.3-1.9-0.1-2.8-1.2c-1-1.1-1.9-2.8-2.7-4.9
			c-1.3-0.1-2.4-0.7-3.4-1.8c-1.2-1.3-2-3-2.5-5.2c9,0.4,16.3-2,22-7.1c1-0.9,1.9-1.8,2.5-2.7c8.4-0.4,15-2.8,19.8-7.1
			c1.7-1.5,2.7-3,3.1-4.4c1.7,0.1,3,0.8,4,1.8c1,1.1,1.5,2.6,1.4,4.4c1.8,0.1,3.2,0.7,4.2,1.8c1,1.1,1.5,2.5,1.5,4.2
			c-1.4,0.2-3,1.1-4.7,2.6c-4.8,4.3-7.8,10.7-9.1,19c-0.9,0.5-1.9,1.2-2.9,2.2c-5.7,5.2-8.8,12.2-9.3,21.2c-2.1-0.7-3.8-1.7-4.9-3
			c-1-1.1-1.4-2.2-1.4-3.5C112.6,497.4,111,496.3,110,495.1z M129.1,465c-3.4,0.7-6.3,2.1-8.6,4.2c1.1,0.5,1.8,0.9,2.3,1.5
			c0.5,0.5,0.9,1.3,1.2,2.4C126.4,471,128.1,468.3,129.1,465z"/>
		<path fill="#FFFFFF" d="M176.2,509c1.9-1.1,3.8-3.1,5.8-6.1c3-4.6,4.3-8.2,3.7-10.9c1.6-0.3,3,0,4.2,0.8c1.2,0.8,2,2.1,2.4,3.9
			c1.8-0.4,3.3-0.1,4.5,0.7c1.2,0.8,1.9,2,2.3,3.6l-2.3,1.7c-2.8,1.9-5.2,4.5-7.3,7.6c-2.9,4.3-4.2,8.1-4.1,11.3
			c-2.8,1-5.7,3.7-8.6,8c-2.8,4.1-4.4,8.3-5.1,12.5c-1.5,0.3-2.9,0.1-4-0.6c-1.2-0.8-1.9-2-2.2-3.8c-1.7,0.4-3.2,0.2-4.3-0.6
			c-1.1-0.8-1.9-1.9-2.2-3.5c2.5-0.7,4.6-2.3,6.1-4.6c1.7-2.5,2.4-5.4,2.1-8.7l-1-13c-3,1.8-5.8,4.6-8.4,8.4
			c-2.7,4.1-4.5,8.6-5.4,13.6c-1.6,0.3-3,0.1-4.2-0.7c-1.2-0.8-2-2.1-2.3-3.9c-1.8,0.3-3.3,0.1-4.5-0.7c-1.2-0.8-1.9-2-2.3-3.6
			c3.6-2.2,6.8-5.4,9.6-9.5c2.9-4.3,4.2-8,4.1-11c3-1.1,6-3.8,8.8-8.2c2.1-3.1,3.5-6.4,4.2-9.6l0.6-2.8c1.6-0.3,3-0.1,4.2,0.7
			c1.2,0.8,2,2.1,2.4,3.9c1.8-0.4,3.3-0.1,4.5,0.7c1.2,0.8,1.9,2,2.3,3.6c-1.4,0.8-2.4,1.9-3.2,3c-1,1.5-1.4,3.1-1.3,4.9L176.2,509z
			"/>
		<path fill="#FFFFFF" d="M235.7,542.8c-1.2,0.1-2.2,0.8-3.2,2.2c-0.4,0.5-0.8,1.2-1.1,2l-3.9,10.4c-1.5,2.7-4,4.3-7.3,4.9
			c-3.4,0.6-6.9,0.2-10.6-1.2c-3.5-1.3-6.4-3.3-8.9-5.9c-1.9,0.6-3.6,0.7-5.1,0.1c-1.5-0.6-2.7-1.6-3.4-3.1c3-3,5.4-6.7,7.1-11.3
			c1.8-4.8,2.3-8.6,1.5-11.5c2.5-1.6,4.7-4.8,6.5-9.6c1.7-4.6,2.4-8.9,2.2-13.2c1.6-0.6,3.1-0.7,4.6-0.1c1.5,0.6,2.7,1.7,3.7,3.4
			c3.4-0.3,6.8,0.2,10.2,1.5c3.9,1.5,7.1,3.6,9.4,6.5c2.3,2.8,2.9,5.5,1.9,8.2l-4,10.5C234.3,539.5,234.5,541.5,235.7,542.8z
			 M227.5,527.4c0.7-1.8,0.7-3.3,0-4.7c-0.6-1.2-1.6-2-2.9-2.5c-1.3-0.5-2.5-0.6-3.7-0.2c-1.3,0.4-2.2,1.3-2.6,2.5l-2.5,6.7
			c-0.9,2.7-0.7,4.7,0.6,6c-1.2,0.1-2.3,0.8-3.3,2.1c-0.4,0.6-0.8,1.2-1.1,2l-3.1,8.3c-0.5,1.3-0.4,2.5,0.3,3.6
			c0.7,1.1,1.7,1.9,2.9,2.4c1.4,0.5,2.7,0.5,4,0c1.3-0.5,2.3-1.7,3-3.5l2.7-7.1c0.9-2.7,0.7-4.7-0.5-6c1.2-0.1,2.3-0.8,3.3-2.1
			c0.4-0.6,0.8-1.3,1-2L227.5,527.4z"/>
		<path fill="#FFFFFF" d="M321.1,541.3c-2.5-4.6-5.5-6.9-9.1-6.9c-1.7,0-3.1,0.6-4.2,1.7c-1.1,1.1-1.7,2.5-1.6,4
			c0,1.5,0.6,2.8,1.7,4.1c1.5,1.2,3.1,1.8,4.9,1.7c1,0,1.9-0.2,2.8-0.7c0.4,1.4,1.5,2.8,3.5,4.2c0.8,0.6,1.7,1.2,2.8,1.8
			c5.1,2.6,7.7,6.7,7.8,12.3c0.1,4.1-1.3,7.6-4.2,10.6c-3.2,3.2-7.6,4.9-13,5c-2.7,0.1-5.6-0.3-8.7-1.1c-0.6-0.2-1.6-0.6-3-1.3
			c-1.1-0.5-2-0.7-2.7-0.7c-1.2,0-2.5,0.6-4,1.7c-0.1-0.5-0.2-1-0.2-1.5c-0.1-2.6,0.8-4.5,2.7-5.6c-0.6-0.7-0.9-1.7-0.9-3
			c0-1.6,0.4-3.3,1.2-5.2c1.7,2.9,4,5,6.8,6.5c2.4,1.3,5,1.9,7.6,1.9c2.2,0,3.9-0.5,5.3-1.5c1.4-1,2.1-2.2,2.1-3.7
			c0-1.6-0.9-3.3-2.5-5c-1.5-1.2-3.4-1.8-5.6-1.8c-1.1,0-2.2,0.2-3.2,0.5c-0.3-3.1-1.6-5.1-4-5.8c-4.8-2.6-7.3-6.5-7.4-11.5
			c-0.1-4,1.3-7.5,4.1-10.6c3-3.3,6.6-5,10.8-5.1c2.5-0.1,5,0.5,7.6,1.7c0.6,0.3,1.1,0.7,1.7,1c0.5,0.3,1.2,0.4,1.9,0.4
			c0.7,0,1.7-0.1,3.1-0.3c0.1,0.4,0.2,0.8,0.2,1.2c0,1.6-0.6,3.2-1.9,4.7C323.4,537.5,322.6,539.5,321.1,541.3z"/>
		<path fill="#FFFFFF" d="M363.8,529.4c-1.3-3.8-2.7-6.2-4.4-7.2c0.9-1.4,2.1-2.3,3.6-2.6c1.5-0.4,3.1-0.1,4.7,0.8
			c1.1-1.6,2.3-2.5,3.8-2.9c1.5-0.4,3-0.1,4.5,0.7c-0.9,4.2-0.7,8.7,0.5,13.5c1.2,5,3,8.5,5.3,10.5c-1.2,2.8-1.2,6.7,0,11.7
			c1.2,4.8,3.1,8.9,5.7,12.3c-1,1.4-2.2,2.3-3.7,2.7c-1.4,0.3-3,0.1-4.7-0.8c-1,1.6-2.3,2.5-3.8,2.9c-1.5,0.4-3,0.1-4.4-0.7
			c1-1.7,1.3-4.5,0.7-8.4c-0.2-1-0.8-3.7-1.8-8.1c-0.6-2.5-1.9-3.9-3.8-4.2c-0.7,0-1.4,0.1-1.9,0.2c-0.5,0.1-1.1,0.4-1.8,0.7
			c-1.6,1.1-2.1,2.9-1.5,5.4c1,4.3,1.7,7,2,8c1.3,3.8,2.7,6.2,4.4,7.2c-1,1.4-2.2,2.3-3.6,2.6c-1.5,0.4-3.1,0.1-4.7-0.8
			c-1,1.6-2.3,2.5-3.8,2.9c-1.5,0.3-2.9,0.1-4.4-0.7c0.8-4.2,0.7-8.7-0.5-13.5c-1.2-5-3-8.5-5.3-10.5c1.2-2.8,1.2-6.7,0-11.7
			c-1.2-4.8-3.1-8.9-5.7-12.3c1-1.4,2.2-2.3,3.6-2.6c1.5-0.4,3.1-0.1,4.7,0.8c1.1-1.6,2.4-2.5,3.9-2.9c1.5-0.3,2.9-0.1,4.4,0.7
			c-1,1.7-1.3,4.5-0.7,8.4c0.2,1,0.8,3.7,1.8,8.1c0.6,2.5,1.9,3.9,3.8,4.2c0.8,0,1.4-0.1,1.9-0.2c0.6-0.1,1.2-0.4,1.8-0.7
			c1.6-1.1,2.1-2.9,1.5-5.5C364.8,533.1,364.1,530.4,363.8,529.4z"/>
		<path fill="#FFFFFF" d="M441.7,544.4c-1.2,0.7-2.3,0.7-3.1,0.1c-0.1-2.6-0.7-4.9-1.8-7c-1.3-2.5-3.1-4.2-5.4-5.1
			c-2.3-0.9-4.5-0.8-6.6,0.3c-2.2,1.1-3.5,2.9-4.1,5.3c-0.5,2.4-0.1,4.8,1.2,7.3c1.1,2,2.6,3.8,4.7,5.5c0.1,1-0.6,1.8-1.8,2.5
			c-1.3,0.7-3.1,1.2-5.5,1.4c-0.4,1.2-1.3,2.1-2.5,2.8c-1.6,0.8-3.5,1.2-5.7,1.1c2.6-8.6,2.2-16.3-1.4-23.1c-0.7-1.2-1.3-2.3-2-3.1
			c1.7-8.2,1-15.2-2-20.9c-1.1-2-2.2-3.4-3.5-4.1c0.6-1.6,1.5-2.7,2.8-3.4c1.3-0.7,2.8-0.8,4.6-0.2c0.5-1.7,1.4-2.9,2.7-3.6
			c1.3-0.7,2.8-0.8,4.4-0.4c-0.1,1.4,0.3,3.1,1.4,5.2c3,5.7,8.4,10.2,16.1,13.5c0.3,1,0.7,2.1,1.4,3.4c3.6,6.8,9.7,11.6,18.2,14.3
			c-1.2,1.9-2.6,3.2-4.1,4c-1.3,0.7-2.5,0.8-3.8,0.5C444.5,542.4,443.1,543.7,441.7,544.4z M417.3,518.3c-0.1,3.5,0.5,6.6,1.9,9.3
			c0.7-0.9,1.4-1.5,2-1.9c0.6-0.3,1.5-0.5,2.7-0.6C422.5,522.5,420.3,520.2,417.3,518.3z"/>
		<path fill="#FFFFFF" d="M475.6,521.8c-1.1,0.9-2.5,1.5-4.2,1.7c-0.2-1.8-1-3.7-2.5-5.5c-2.4-2.9-5.8-5.4-10.3-7.5
			c-4.2-1.9-7.2-2.6-9.1-2c-0.9-1.5-1.8-2.8-2.8-3.9c-2.1-2.6-4.7-4.7-7.6-6.2c-2.6-1.3-6.1-2.5-10.4-3.5c0.3-2.1,1.2-3.7,2.5-4.8
			c1.3-1,2.9-1.4,4.9-1.2c0.2-2,1-3.6,2.3-4.7c1.2-1,2.4-1.4,3.6-1.3c0.5,2.2,1.5,4.3,3,6.2c2.9,3.6,6.4,5.5,10.4,6
			c0.3,1.2,1,2.5,2.1,3.9c1.2,1.5,2.7,2.9,4.5,4c1.8,1.2,3.3,1.8,4.8,1.9c0.1-1.4-0.2-3.1-1-5c-0.8-1.9-1.8-3.7-3-5.2
			c-1.1-1.4-2.2-2.3-3.3-2.9c0.4-4.1-0.8-7.9-3.7-11.5c-1.5-1.9-3.4-3.3-5.5-4.2c0.2-1.2,0.8-2.3,2-3.2c1.4-1.1,3.1-1.6,5.1-1.3
			c0.2-2,0.9-3.5,2.2-4.6c1.4-1.1,3.1-1.6,5.3-1.5c0.1,4.5,0.5,8.2,1.3,10.9c0.9,3.2,2.3,6.1,4.5,8.8c0.9,1.2,2.1,2.3,3.3,3.5
			c-1,1.7-0.9,4.9,0.1,9.4c1.1,4.8,2.9,8.7,5.3,11.6c1.5,1.8,3.1,3,4.9,3.6c-0.6,1.6-1.5,2.9-2.6,3.8c-1.2,0.9-2.5,1.3-4,1.2
			C477.4,519.6,476.8,520.8,475.6,521.8z"/>
		<path fill="#FFFFFF" d="M505.3,458.5c-1,1.3-1.5,2.6-1.4,4c0.2,1.5,0.9,2.8,2.3,4l3,2.3c2.7,2.1,5.1,1.8,7.3-1
			c1.1-1.4,1.8-3.1,2.2-5.1c0.3-2,0.1-3.5-0.6-4.6c2.2-0.6,4.2-0.2,6.1,1.3c0.9,0.7,1.7,1.6,2.2,2.6c0.9-0.4,2.1,0.1,3.8,1.7
			c-1.2,0.5-2.3,1.5-3.5,2.9c-0.7,0.9-1.4,1.9-1.9,3c-0.5,1.1-1,2.2-1.4,3.3c-0.6,1.3-1.2,2.4-1.9,3.3c-1.4,1.8-3.4,3.2-6,4.2
			c0.1,2-0.4,3.6-1.4,4.9c-1,1.2-2.3,2-4,2.3c-1.9-3.8-4.8-7.2-8.6-10.3c-4-3.2-7.6-4.8-10.6-4.9c-0.8-2.9-3.2-6-7.2-9.1
			c-3.9-3-7.9-5-12-6c-0.1-1.7,0.3-3.2,1.3-4.4c1-1.3,2.5-2.1,4.4-2.5c0.4-2.8,1.3-5,2.7-6.8c0.7-0.9,1.6-1.7,2.7-2.6
			c1-0.7,1.9-1.4,2.8-2.1c0.9-0.7,1.7-1.6,2.5-2.5c1.1-1.4,1.8-2.8,2-4c2,1.3,2.8,2.4,2.6,3.3c1.1,0.3,2.1,0.8,3,1.6
			c1.8,1.4,2.7,3.3,2.6,5.6c-1.3-0.4-2.8-0.3-4.6,0.5c-1.8,0.8-3.3,1.9-4.4,3.3c-2.2,2.8-1.9,5.2,0.8,7.3l3,2.3
			c1.4,1.1,2.8,1.6,4.3,1.3c1.4-0.2,2.7-1,3.7-2.3c1.6-2.1,2.3-4.6,1.9-7.6c0.6,0.2,1.3,0.5,1.9,1c1.1,0.9,1.8,2.1,2,3.7
			c1.5-0.2,2.9,0.2,4,1.1c0.6,0.5,1,1,1.4,1.6C509.3,455.2,507,456.4,505.3,458.5z"/>
	</g>
	<g>
		<path fill="#FFFFFF" d="M170.1,346.1c-2,0-3.8-0.8-5.6-2.5c1.5-4.8,2.3-8.9,2.3-12.3c0-4.3-1.8-9.3-5.4-14.9
			c0.9-2.1,1.3-4.1,1.3-5.9c0-2.3-0.7-5-2.2-8c-0.8-1.6-2.8-5.2-6.1-10.8v31.5c0.2,9.7,1.8,16.5,4.7,20.5c-2,1.7-4.1,2.5-6.5,2.5
			c-2.1,0-4.1-0.8-6-2.5c-1.6,1.7-3.3,2.5-5.2,2.5c-2.1,0-4-0.9-5.9-2.6c2.7-5.8,4.1-12.5,4.1-20c0-7.8-1.4-13.5-4.1-17.2
			c2.8-3.9,4.3-9.7,4.3-17.6c0-5.6-0.9-10.8-2.7-15.5l-1.6-4c3.1-1.6,6.1-2.4,8.8-2.4c2.4,0,5.2,0.8,8.2,2.3
			c2.4-1.5,5.4-2.3,8.7-2.3c2.1,0,4.2,0.3,6.3,0.9c1.7,0.5,2.8,0.9,3.3,1.4c-1.7,2.7-2.5,6.3-2.5,10.8c0,5.5,0.7,9.7,2.1,12.7
			l4.7,14l4.7-14c1.3-3,2-7.2,2-12.7c0-4.5-0.8-8.1-2.4-10.8c0.4-0.5,1.5-0.9,3.2-1.4c2.1-0.6,4.1-0.9,6.2-0.9
			c3.4,0,6.3,0.8,8.7,2.3c3-1.5,5.8-2.3,8.2-2.3c2.8,0,5.7,0.8,8.8,2.4l-1.6,4c-1.8,4.7-2.7,9.9-2.7,15.5c0,7.9,1.4,13.8,4.3,17.6
			c-2.7,3.7-4.1,9.5-4.1,17.2c0,7.5,1.4,14.2,4.1,20c-1.9,1.7-3.8,2.6-5.9,2.6c-1.9,0-3.5-0.8-5.1-2.5c-1.9,1.7-3.9,2.5-6.1,2.5
			c-2.3,0-4.5-0.8-6.5-2.5c2-2.7,3.3-6.9,4.1-12.7c0.3-2.4,0.5-5,0.6-7.8v-31.5c-3.2,5.6-5.3,9.2-6.1,10.8c-1.5,3-2.2,5.7-2.2,8
			c0,1.9,0.4,3.8,1.3,5.9c-3.6,5.6-5.4,10.6-5.4,14.9c0,3.4,0.8,7.5,2.4,12.3c-1.8,1.7-3.7,2.5-5.7,2.5c-1.9,0-3.6-0.8-5.2-2.5
			C173.8,345.3,172,346.1,170.1,346.1z"/>
		<path fill="#FFFFFF" d="M255.7,343.6c-2.8,1.3-6.2,2.2-10.1,2.5c-3.9-0.2-7.3-1-10.2-2.3c-6.8-3.2-10.2-8.8-10.2-16.9v-7.6
			c-0.2-3.5-1.3-5.7-3.4-6.7c1.4-0.7,2.4-2,3-4c0.2-0.8,0.4-1.7,0.4-2.7v-7.2c0-7.8,3.4-13.4,10.2-16.6c2.8-1.3,6.2-2.2,10.2-2.5
			c3.9,0.3,7.3,1.2,10.2,2.5c6.8,3.3,10.2,8.8,10.2,16.6v7.2c0.2,3.5,1.3,5.7,3.4,6.7c-1.4,0.7-2.4,2-3,4c-0.2,0.8-0.4,1.8-0.4,2.7
			v7.6C265.8,334.8,262.4,340.3,255.7,343.6z M252.6,319.4c-0.2-3.5-1.3-5.7-3.4-6.7c1.4-0.7,2.4-2,3-4c0.2-0.8,0.4-1.7,0.4-2.7
			v-6.8c0-2.4-0.7-4.4-2-5.7c-1.3-1.4-2.9-2.1-4.7-2.1c-1.8,0-3.3,0.7-4.7,2.1c-1.3,1.4-2,3.3-2,5.7v6.8c0.2,3.5,1.3,5.7,3.4,6.7
			c-1.4,0.7-2.4,2-3,4c-0.2,0.8-0.4,1.8-0.4,2.7v6.8c0,2.5,0.7,4.4,2,5.8c1.3,1.4,2.9,2,4.7,2c1.8,0,3.4-0.7,4.7-2
			c1.3-1.4,2-3.3,2-5.8V319.4z"/>
		<path fill="#FFFFFF" d="M308.3,343.6c-2.8,1.3-6.2,2.2-10.1,2.5c-3.9-0.2-7.3-1-10.2-2.3c-6.8-3.2-10.2-8.8-10.2-16.9v-7.6
			c-0.2-3.5-1.3-5.7-3.4-6.7c1.4-0.7,2.4-2,3-4c0.2-0.8,0.4-1.7,0.4-2.7v-7.2c0-7.8,3.4-13.4,10.2-16.6c2.8-1.3,6.2-2.2,10.2-2.5
			c3.9,0.3,7.3,1.2,10.2,2.5c6.8,3.3,10.2,8.8,10.2,16.6v7.2c0.2,3.5,1.3,5.7,3.4,6.7c-1.4,0.7-2.4,2-3,4c-0.2,0.8-0.4,1.8-0.4,2.7
			v7.6C318.4,334.8,315,340.3,308.3,343.6z M305.2,319.4c-0.2-3.5-1.3-5.7-3.4-6.7c1.4-0.7,2.4-2,3-4c0.2-0.8,0.4-1.7,0.4-2.7v-6.8
			c0-2.4-0.7-4.4-2-5.7c-1.3-1.4-2.9-2.1-4.7-2.1c-1.8,0-3.3,0.7-4.7,2.1c-1.3,1.4-2,3.3-2,5.7v6.8c0.2,3.5,1.3,5.7,3.4,6.7
			c-1.4,0.7-2.4,2-3,4c-0.2,0.8-0.4,1.8-0.4,2.7v6.8c0,2.5,0.7,4.4,2,5.8c1.3,1.4,2.9,2,4.7,2c1.8,0,3.4-0.7,4.7-2
			c1.3-1.4,2-3.3,2-5.8V319.4z"/>
		<path fill="#FFFFFF" d="M358.1,298.4c-3.1-5.9-6.8-8.9-11.2-8.9c-2.1,0-3.9,0.7-5.3,2.1c-1.4,1.4-2.2,3-2.2,5
			c0,1.8,0.7,3.6,2.1,5.2c1.8,1.6,3.9,2.3,6.1,2.3c1.3,0,2.4-0.3,3.5-0.8c0.4,1.7,1.9,3.5,4.2,5.4c1,0.8,2.2,1.6,3.5,2.3
			c6.3,3.4,9.5,8.7,9.5,15.7c0,5.2-1.9,9.6-5.6,13.2c-4.2,4-9.7,6-16.6,6c-3.4,0-7.1-0.5-10.9-1.6c-0.8-0.2-2-0.8-3.7-1.7
			c-1.3-0.7-2.5-1-3.4-1c-1.5,0-3.2,0.7-5.1,2c-0.1-0.6-0.2-1.2-0.2-1.8c0-3.3,1.2-5.6,3.5-7c-0.7-0.9-1.1-2.2-1.1-3.7
			c0-2,0.5-4.2,1.7-6.5c2.1,3.7,4.9,6.5,8.4,8.4c3,1.7,6.2,2.6,9.6,2.6c2.7,0,5-0.6,6.8-1.8c1.8-1.2,2.7-2.7,2.7-4.7
			c0-2-1-4.1-3-6.4c-1.9-1.6-4.2-2.4-7.1-2.4c-1.4,0-2.8,0.2-4,0.6c-0.3-3.9-1.9-6.4-4.9-7.5c-6-3.4-9-8.3-9-14.7
			c0-5,1.8-9.4,5.4-13.3c3.8-4,8.4-6.1,13.8-6.1c3.2,0,6.3,0.8,9.5,2.3c0.7,0.4,1.4,0.9,2.1,1.2c0.7,0.4,1.5,0.6,2.4,0.6
			c0.9,0,2.2-0.1,3.9-0.3c0.1,0.5,0.2,1,0.2,1.5c0,2.1-0.9,4-2.6,5.9C361.1,293.6,360.1,296.2,358.1,298.4z"/>
		<path fill="#FFFFFF" d="M397.7,316.1c-2.1,0-3.7,0.6-5.1,1.7c-1.4,1.3-2.1,3.1-2.1,5.4v4.7c0,4.3,2.2,6.5,6.7,6.5
			c2.3,0,4.5-0.6,6.7-1.8c2.2-1.2,3.6-2.6,4.1-4.2c2.3,1.7,3.5,4,3.5,7c0,1.5-0.3,2.9-0.8,4.2c1.1,0.5,1.5,2.2,1.2,5.2
			c-1.4-0.8-3.3-1.2-5.6-1.2c-1.5,0-3,0.2-4.4,0.5c-1.4,0.3-2.9,0.7-4.3,1.2c-1.8,0.4-3.4,0.7-4.7,0.7c-2.8,0-5.8-0.9-8.8-2.7
			c-1.9,1.6-3.9,2.4-6,2.4c-2,0-3.8-0.7-5.4-2.2c2.3-4.8,3.4-10.3,3.4-16.6c0-6.5-1.1-11.3-3.4-14.3c2.3-3.1,3.4-7.8,3.4-14.3
			c0-6.2-1.1-11.7-3.4-16.6c1.6-1.4,3.4-2.2,5.4-2.2c2.1,0,4.1,0.8,6,2.4c3-1.8,6-2.7,8.8-2.7c1.4,0,3,0.2,4.7,0.7
			c1.4,0.4,2.9,0.8,4.3,1.2c1.4,0.3,2.9,0.5,4.4,0.5c2.3,0,4.1-0.4,5.6-1.2c0.3,2.9-0.1,4.7-1.2,5.2c0.6,1.3,0.8,2.8,0.8,4.2
			c0,2.9-1.2,5.3-3.5,7c-0.6-1.6-1.9-3-4.1-4.2c-2.2-1.2-4.4-1.8-6.7-1.8c-4.4,0-6.7,2.2-6.7,6.5v4.7c0,2.3,0.7,4,2,5.3
			c1.4,1.2,3.1,1.9,5.1,1.9c3.3,0,6.4-1.4,9.1-4.1c0.3,0.8,0.5,1.6,0.5,2.6c0,1.8-0.7,3.4-2.1,4.8c1.4,1.4,2.1,3,2.1,4.8
			c0,1-0.2,1.8-0.5,2.6C404.1,317.5,401.1,316.1,397.7,316.1z"/>
		<path fill="#FFFFFF" d="M470.5,298.4c-3.1-5.9-6.8-8.9-11.2-8.9c-2.1,0-3.9,0.7-5.3,2.1c-1.4,1.4-2.2,3-2.2,5
			c0,1.8,0.7,3.6,2.1,5.2c1.8,1.6,3.9,2.3,6.1,2.3c1.3,0,2.4-0.3,3.5-0.8c0.4,1.7,1.9,3.5,4.2,5.4c1,0.8,2.2,1.6,3.5,2.3
			c6.3,3.4,9.5,8.7,9.5,15.7c0,5.2-1.9,9.6-5.6,13.2c-4.2,4-9.7,6-16.6,6c-3.4,0-7.1-0.5-10.9-1.6c-0.8-0.2-2-0.8-3.7-1.7
			c-1.3-0.7-2.5-1-3.4-1c-1.5,0-3.2,0.7-5.1,2c-0.1-0.6-0.2-1.2-0.2-1.8c0-3.3,1.2-5.6,3.5-7c-0.7-0.9-1.1-2.2-1.1-3.7
			c0-2,0.6-4.2,1.7-6.5c2.1,3.7,4.9,6.5,8.4,8.4c3.1,1.7,6.2,2.6,9.6,2.6c2.7,0,5-0.6,6.8-1.8c1.8-1.2,2.7-2.7,2.7-4.7
			c0-2-1-4.1-3-6.4c-1.9-1.6-4.2-2.4-7.1-2.4c-1.4,0-2.8,0.2-4,0.6c-0.3-3.9-1.9-6.4-4.9-7.5c-6-3.4-9-8.3-9-14.7
			c0-5,1.8-9.4,5.4-13.3c3.8-4,8.4-6.1,13.8-6.1c3.2,0,6.3,0.8,9.5,2.3c0.7,0.4,1.4,0.9,2.1,1.2c0.7,0.4,1.5,0.6,2.4,0.6
			c0.9,0,2.2-0.1,3.9-0.3c0.1,0.5,0.2,1,0.2,1.5c0,2.1-0.9,4-2.6,5.9C473.5,293.6,472.5,296.2,470.5,298.4z"/>
	</g>
	<g>
		<path fill-rule="evenodd" clip-rule="evenodd" fill="#FFFFFF" d="M256,125.8c0.2,0,0.5,0,0.7,0c2.6,1-0.9,6.2,2.5,6.5
			c1.9,0.3,3.4,0.1,4.3,0c2.9,0,2.5-3.3,4-4.7c1.7-0.3,0.6,2.3,1.8,2.5c2.2,0,0.8-3.5,2.9-3.6c1.2,0.9,0.4,4,1.8,4.7
			c3.4,0.4,3-3,5.4-3.6c0.4,0.5,0.5,1.5,1.1,1.8c2,0.4,2.4-0.7,4-0.7c0.1,1.5-0.5,1.4,0,2.5c1.7,0.4,2-1.5,3.3-0.4
			c-0.8,3.7-2.1,6.1-5.1,8c-3.8,2.4-9.6,3-10.1,6.2c-0.4,2.8,3.9,5.1,3.3,9.4c2.4,1.6,8.3,1.6,9.4-1.1c-1.4-4.5-5.3-6.6-5.4-12.3
			c4.1,1.4,3.3,7.6,9,7.2c3.3-3-2.3-9.7,2.3-11.3c1.5,0.4,0.5,1.4,0.2,2.2c0.4,4.7,3.2,11.1,7.6,10.1c3-0.6,2-4.2,3.6-6.9
			c3.3,0.4,1,4.1,1.1,6.5c6.5-1.5,5.1-10.8,7.2-16.6c3,0,1.1,4.9,2.2,6.9c6.4,0.7,3.3-8.1,8.7-8.3c1.1,1.3-1.3,3,0,4.3
			c3.5,0.5,2.4-3.6,5.1-4c0.6,0.2,0,1,0.5,1.8c0.9,1.2,1.1-1.3,2.8,0.3c0.4-0.8,0.9-1.7,1.8-1.4c0,4-1.9,7.9-4,10.5
			c-5,6.3-17.9,12.5-28.2,13.8c-1.4,0.2-2.6,1.6-4,2.2c-2.9,1.2-6.2,0.7-9,1.4c0.5,1.4,2.3,3.5,4.3,4.7c3.7,2.1,10.1,1.6,15.2,3.6
			c3.3,1.3,6.4,3.2,9.4,3.6c7.4,1.1,15.5-2,22.4-1.1c8.5,1.2,13.4,9.3,15.6,17c0.4,1.5-1.5,0.6-1.8,1.4c-0.5,5.5-2.8,8.6-1.4,13.8
			c1,3.7,4.6,6.6,4.7,10.1c0,1.7-1.2,3.7-1.5,5.8c-0.9,7,0.5,13.9,0,22.4c-1.7,1.3-2.6,3.4-3.3,5.8c-2.6,0.5-5.2,0.8-7.6,0
			c0.6-1.7,1.7-2.9,2.9-4c5.4-11.3,3.9-32.1-4.7-38.7c-1,5.9,3.4,5-0.4,15.6c-2.7,9.6-8.4,16.2-10.9,26.1c-1.7,0.4-1.4,2.7-2.5,3.6
			c-2.1,0.5-4.6,1.1-6.9,0.4c-0.2-2.1,1.9-3.6,3.3-5.4c3-4.1,5.2-8.8,7.2-14.5c2.3-6.6,5.1-18.8-0.7-25c-5.7-6.1-12,6.9-25,0
			c-3.7,9.7-1.4,25.5,0.4,35.5c-1,1.9-3.2,2.5-3.3,5.4c-1.7,0.6-5,1.4-6.5,0c0.3-2.1,2.5-3.1,3.3-5.1c2.6-6.6-0.1-16.6-1.4-23.2
			c-3.3,6.2-2.4,16.4-2.9,25.3c-1.7,1.5-3.6,2.7-4.3,5.1c-2.3-0.1-5.7,1.2-7.2-0.4c1.1-2.4,3.1-2.7,4.3-4.7
			c5.2-8.1,1.9-19.8,1.1-29.7c-0.2-2.7,0.4-5.5,0-8c-1.2-6.6-8.8-11.6-10.5-18.1c-1.7,1.1-2,2.6-4.1,3.4c-7.3-2.3-3.1-14.4-7.1-20
			c-2.4,0.1-0.4,0.5-2.1,0.2c-5.5-0.8-7-10.4-2.2-13.4c3,0.4,4.1,2.1,7.2,1.2c-1.3-2.7-5.5-2.5-9.4-2.5c-4.3-6.3-14.3-8.8-14.5-18.1
			c2.8,0.7,2.2,4.8,5.1,5.4c1.4-3.9-3.8-8.7-0.4-12.3c1.8,1.5,1.3,5.2,2.5,7.2C256.2,136.4,254.9,129.8,256,125.8z"/>
	</g>
	<g>
		<path fill-rule="evenodd" clip-rule="evenodd" fill="#FFFFFF" d="M92.2,299.7c-0.3,1.2-15.2,7.2-21.5,10c6.2,2.9,21.3,8.9,21.5,10
			c-2.4,0.1-20.2-5.4-26.6-7.6c-5.6,2.3-21.1,9.5-21.5,10.6c-0.7,1.6-0.2,3.1-0.6,4.1c-0.9,2.2-3.6,4.2-6.9,3.5
			c-2.4-0.5-3.9-2.9-3.9-5.1c0.1-4.4,4.8-6.1,8.6-4.9c0.6,0.2,1.3,0.6,2.2,0.6c1.7,0,11.1-6.3,13.5-7.6c0.6-1.2,1.2-2.4,1.8-3.5
			c-1-3.6-5.3-5.7-8.6-7.6c-1.1-0.7-6.7-4.1-7.4-4.1c-1.6,0-2.4,1.4-3.5,1.6c-2.3,0.4-4.5-0.8-5.3-2.3c-0.5-0.9-0.3-2.1-0.8-3.3
			c-1.1-2.6-6-3.1-5.9-7.6c0.2-0.1,0.4-0.2,0.4,0c1.7,2.2,2.4,5.3,5.7,5.3c1.7,0,3-1.7,4.7-1.8c1.9-0.1,4.2,1.1,4.9,3.3
			c0.3,0.8-0.2,2,0.2,3.1c0.5,1.4,16.1,8.8,22.3,11.2C71.9,305.2,89.9,299.6,92.2,299.7z M34.2,293.7c-1.1,5.7,7.9,6.9,7.8,1
			c0-2.7-2-4.1-4.5-3.7C35.6,291.2,34.5,292.4,34.2,293.7z M64.2,309.1c-0.1-0.7,1.8-0.4,1.4-0.8C64.7,308,63.7,309.3,64.2,309.1z
			 M65,310.9c-0.7-0.4,1-1.6,1.6-2c-0.1,0-0.2,0-0.2-0.2c-0.2,0-0.2-0.2-0.4-0.2c-0.3,1-1.2,1.5-2,2C64.1,310.7,65.3,311.4,65,310.9
			z M66.7,309.9c0.1-0.3-0.1-0.8-0.2-0.4C66.5,309.8,66.7,310.3,66.7,309.9z M65.9,311.1c0.1-0.2,0.9-1,0.4-0.6
			C66.2,310.7,65.1,311.1,65.9,311.1z M33.7,325.2c-0.1,6.6,10.6,4.7,9.2-1.8c-0.3-1.5-1.8-2.8-4.5-2.5
			C35.7,321.1,33.7,322.4,33.7,325.2z"/>
	</g>
	<g>
		<path fill-rule="evenodd" clip-rule="evenodd" fill="#FFFFFF" d="M525.8,299.7c0.3,1.2,14.4,7.2,20.4,10
			c-5.9,2.9-20.1,8.9-20.4,10c2.2,0.1,19.1-5.4,25.2-7.6c5.3,2.3,19.9,9.5,20.4,10.6c0.7,1.6,0.2,3.1,0.6,4.1
			c0.8,2.2,3.4,4.2,6.5,3.5c2.3-0.5,3.7-2.9,3.7-5.1c-0.1-4.4-4.5-6.1-8.1-4.9c-0.5,0.2-1.2,0.6-2,0.6c-1.7,0-10.5-6.3-12.8-7.6
			c-0.6-1.2-1.1-2.4-1.7-3.5c0.9-3.6,5.1-5.7,8.1-7.6c1.1-0.7,6.3-4.1,7-4.1c1.5,0,2.3,1.4,3.3,1.6c2.2,0.4,4.2-0.8,5-2.3
			c0.5-0.9,0.3-2.1,0.7-3.3c1-2.6,5.7-3.1,5.6-7.6c-0.2-0.1-0.3-0.2-0.4,0c-1.6,2.2-2.2,5.3-5.4,5.3c-1.6,0-2.9-1.7-4.4-1.8
			c-1.8-0.1-4,1.1-4.6,3.3c-0.2,0.8,0.2,2-0.2,3.1c-0.5,1.4-15.2,8.8-21.1,11.2C544.9,305.2,527.9,299.6,525.8,299.7z M580.6,293.7
			c1.1,5.7-7.5,6.9-7.4,1c0-2.7,1.9-4.1,4.3-3.7C579.3,291.2,580.3,292.4,580.6,293.7z M552.2,309.1c0.1-0.7-1.7-0.4-1.3-0.8
			C551.8,308,552.7,309.3,552.2,309.1z M551.5,310.9c0.7-0.4-0.9-1.6-1.5-2c0.1,0,0.2,0,0.2-0.2c0.2,0,0.2-0.2,0.4-0.2
			c0.3,1,1.1,1.5,1.9,2C552.3,310.7,551.2,311.4,551.5,310.9z M549.8,309.9c-0.1-0.3,0.1-0.8,0.2-0.4
			C550.1,309.8,549.9,310.3,549.8,309.9z M550.6,311.1c-0.1-0.2-0.8-1-0.4-0.6C550.3,310.7,551.4,311.1,550.6,311.1z M581.1,325.2
			c0.1,6.6-10,4.7-8.7-1.8c0.3-1.5,1.7-2.8,4.3-2.5C579.1,321.1,581.1,322.4,581.1,325.2z"/>
	</g>
	<rect x="115.1" y="243.4" fill-rule="evenodd" clip-rule="evenodd" fill="#FFFFFF" width="383.9" height="15.2"/>
	<polygon fill-rule="evenodd" clip-rule="evenodd" points="448.3,267.5 411.5,267.5 402.6,240.2 457.2,240.2 	"/>
	<rect x="115.1" y="353.7" fill-rule="evenodd" clip-rule="evenodd" fill="#FFFFFF" width="383.9" height="15.2"/>
	<g>
		<path d="M266.8,384.1l-77.3,58.7c0.1,0,0.1,0.1,0.2,0.1l77.6-58.9C267.2,384,267,384.1,266.8,384.1z"/>
		<path d="M377.9,395.9l-52.4,39.8c0.1,0,0.1,0.1,0.2,0.1l52.4-39.8C378.1,396,378,396,377.9,395.9z"/>
		<path fill="#FFFFFF" d="M234.2,400.5c-5.4,3.1-11.8,6.9-19.2,10.5c-6.7,3.3-16.1,8.6-22.9,5.6c-1.8-0.8-3.1-2.4-3.9-4.4
			l-14.9,11.3c2.9,8.6,9.1,14.8,16.6,19.2l77.3-58.7C255.9,387.2,244.6,394.5,234.2,400.5z"/>
		<path fill="#FFFFFF" d="M193.3,386.9c-12.9,0.1-21.3,13.3-21.7,24.2c-0.2,4.4,0.4,8.4,1.6,12c0.1,0.2,0.1,0.3,0.2,0.5l14.9-11.3
			c-0.1-0.2-0.1-0.3-0.2-0.5c-2.4-6.8,0.3-17.8,7.1-19.9c4-1.3,6.2-0.4,11.8,1.2C205.4,388.1,198.1,386.9,193.3,386.9z"/>
		<path fill="#FFFFFF" d="M336,382.7c-12.1,0.6-18.6,5.6-28.5,10.5c-1.6-1.2-3.3-2.4-5.1-3.5l-81.1,61.5c17.2,1,35.3-2.2,50.6-7.2
			l79.2-60.1C346.4,382.9,341.4,382.4,336,382.7z"/>
		<path fill="#FFFFFF" d="M301.9,389.5c-7.5-4.4-16.7-7.7-27.3-6.8c-2.4,0.2-4.9,0.7-7.3,1.3l-77.6,58.9c3.5,2,7.3,3.6,11.2,4.8
			c6.3,1.9,12.9,3.1,19.7,3.5c0.2,0,0.5,0,0.7,0.1l81.1-61.5C302.2,389.7,302.1,389.6,301.9,389.5z"/>
		<path fill="#FFFFFF" d="M351.7,384.1c-0.2,0-0.4-0.1-0.6-0.1l-79.2,60.1c0.5-0.2,1-0.3,1.4-0.5c6.7-2.3,12.9-4.9,18.1-7.6
			c6.5-3.4,11.9-7.4,17.4-11.2c5,3.9,10.6,7.6,16.7,10.9l52.4-39.8C370,390.9,361.5,386.3,351.7,384.1z"/>
		<path fill="#FFFFFF" d="M400.9,410.7c-1.3-0.7-2.5-1.4-3.7-2.1c-6.4-3.9-12.7-8.4-19.2-12.6l-52.4,39.8c8.4,4.5,17.7,8.3,28,10.9
			L400.9,410.7z"/>
		<path fill="#FFFFFF" d="M428.2,385c-10.2-2-16.8,3.3-18.6,9.3c4.6-4.9,10.7-4.8,15.3-1.9l7.7-5.8
			C431.1,385.9,429.7,385.3,428.2,385z"/>
		<path fill="#FFFFFF" d="M400.3,450.7c13.1-1,27.9-6.3,35.9-13.6c6.5-6,11.8-17.9,10.8-29l-56.8,43.1
			C393.5,451.1,396.9,451,400.3,450.7z"/>
		<path fill="#FFFFFF" d="M447,407.8c-0.1-0.6-0.1-1.2-0.2-1.7c-1.2-7.1-7.2-15.6-14-19.4c-0.1,0-0.1-0.1-0.2-0.1l-7.7,5.8
			c0.1,0,0.1,0.1,0.2,0.1c4.9,3.3,8.1,10,5.6,17.9c-7.7,9.8-19.8,5.8-29.6,0.4c-0.1,0-0.1-0.1-0.2-0.1l-47.4,36c0.1,0,0.1,0,0.2,0.1
			c11.1,2.9,23.2,4.5,36.2,4.4c0.1,0,0.2,0,0.3,0L447,408C447,408,447,407.9,447,407.8z"/>
	</g>
	<g id="lmXyGe_1_">
		<g>
			<path fill-rule="evenodd" clip-rule="evenodd" fill="#FFFFFF" d="M438,238.3c-0.3,1.1,0.1,2.7-0.7,3.5c-1.9,0.8-2.4-0.4-3.9-0.1
				c-1.6,4-6,6.3-8.1,10c1.3-0.6-0.3,1.9-0.4,0.6c0.3-0.1,0.4-0.5-0.1-0.5c-1.4,1.4,0.4,2.3-1.7,1.3c-0.1,1.3,0.1,2.4-0.7,1.1
				c-1.5,0.8,0.2,1-0.5,2c-2.8,2-5.2,6.3-7.8,7c2.3-2.4,6.5-5.7,7.1-7.9c-2.2,3.3-7.6,6.8-9.7,9.4c-0.8,1.1,0.7,1.5-1.1,1.7
				c0,0.2,0.1,0.3,0.1,0.5c1.1,1,1.4,3.2,3.2,3.2c5.4-5.1,10.7-10.2,15.1-15.9c0.1-1.4-0.9-1-1-2.2c1.8-1.1,2.7-2.8,5.1-3.6
				c3.9,11.9-2.2,22.1-0.1,32.3c0.3,1.4,0.4,3.5,2,4.4c0.2,0,0.3-0.1,0.5-0.1c7.3-6.9,4.6-28.5,1.7-40.9c1.6-1.1,2.3-2.8,2.9-4.5
				c-0.2-0.7-0.2-1.8-0.9-1.7C438.7,238.1,438.4,238.2,438,238.3z M414,264.4C411.7,266.9,412.4,263.9,414,264.4L414,264.4z
				 M413,268.9c4.2-5.4,8.4-10.8,14.3-15.2C423.8,259.3,417.6,265.4,413,268.9z"/>
		</g>
	</g>
</g>
</svg>
