<?xml version="1.0" encoding="utf-8"?>
<!-- Generator: Adobe Illustrator 18.1.1, SVG Export Plug-In . SVG Version: 6.00 Build 0)  -->
<!DOCTYPE svg PUBLIC "-//W3C//DTD SVG 1.1//EN" "http://www.w3.org/Graphics/SVG/1.1/DTD/svg11.dtd">
<svg version="1.1" xmlns="http://www.w3.org/2000/svg" xmlns:xlink="http://www.w3.org/1999/xlink" x="0px" y="0px"
	 viewBox="0 0 500.8 936.1" enable-background="new 0 0 500.8 936.1" xml:space="preserve">
<g id="Layer_4" display="none">
	<g id="frame" display="inline">
		<rect x="-22.3" y="117.3" fill="#FFFFFF" width="466.9" height="525.9"/>
		<path fill="#0A4569" d="M442.1,119.8v520.9H-19.8V119.8H442.1 M447.1,114.8H-24.8v530.9h471.9V114.8L447.1,114.8z"/>
		<path fill="#AC3435" d="M447.1,114.8v530.9H-24.8V114.8H447.1 M447.1,96.8H-24.8l-18,18v530.9l18,18h471.9l18-18V114.8L447.1,96.8
			L447.1,96.8z"/>
		<path fill="#FFF6E5" d="M447.1,114.8v530.9H-24.8V114.8H447.1 M447.1,104.8H-24.8l-10,10v530.9l10,10h471.9l10-10V114.8
			L447.1,104.8L447.1,104.8z"/>
	</g>
</g>
<g id="Layer_5">
	<g id="Icons">
		<g id="shmp">
			<path d="M74.3,341.4l-3.6-0.3v-0.2c0-0.1-0.1-0.2-0.1-0.3l-1.6-1.2c0,0-0.1,0-0.1,0h-1.6c-0.1,0-0.1-0.1-0.1-0.1v-1
				c0-0.2,0.1-0.4,0.4-0.5c0.2,0,0.3-0.2,0.3-0.3v-0.6c0-0.4-0.3-0.7-0.7-0.7h-1.9l0,0l0,0c-0.4,0-0.6,0.3-0.6,0.6v0.6
				c0,0.2,0.1,0.4,0.4,0.5c0.2,0,0.3,0.2,0.3,0.3v1.1c0,0.1-0.1,0.1-0.1,0.1h-1.6c0,0-0.1,0-0.1,0l-1.6,1.2
				c-0.1,0.1-0.1,0.2-0.1,0.3v0.2l-3.6,0.3c-1.6,0-1.3,3.2,0,3.2h0.5c0.1,0,0.1,0.1,0.1,0.1v0.5h0.3v1h-0.3c-0.6,0-0.3,10.5,0,10.5
				h0.3v1.5c0,0.1,0.1,0.1,0.1,0.1h8l0,0h6c0.1,0,0.1-0.1,0.1-0.1v-1.5h0.3c0.3,0,0.6-10.5,0-10.5h-0.3v-1h0.3v-0.5
				c0-0.1,0.1-0.1,0.1-0.1h0.5C75.6,344.6,75.9,341.4,74.3,341.4z"/>
			<path d="M84.1,362.3l-9.4-4c-0.4-0.2-0.8-0.3-1.3-0.3H66h-7.5c-0.4,0-0.9,0.1-1.3,0.3l-9.4,4c-1.2,0.5-2,1.8-1.9,3.1
				c0.3,5.5,0.9,20.8,1,38.6c0.1,17.6,0,33,0,38.7c0,1.4,1,2.7,2.3,3.1l0.5,0.1c0.3,0.1,0.6,0.1,0.9,0.1H66h15.3
				c0.3,0,0.6,0,0.9-0.1l0.5-0.1c1.4-0.4,2.4-1.7,2.3-3.1c0-5.8-0.1-21.2,0-38.7c0.1-17.8,0.7-33,1-38.6
				C86.1,364.1,85.3,362.8,84.1,362.3z"/>
		</g>
		<path id="cut" fill-rule="evenodd" clip-rule="evenodd" d="M89,210.9c5.8-11.2,20.2-37,19.3-39c-3.4,2.5-22.6,31.1-29.5,41.7
			c-11.6,3.7-42.4,11.1-44.6,9.7c-1.8-1.1-2.5-3.4-3.9-4.2c-3.5-2.3-8.2-1.4-10.8,0.9c-2.3,2-2.3,6-4.7,7.9c-4.7,3.8-9.3,0.1-14.2-1
			c-0.3-0.3-0.5,0.1-0.6,0.4c4.9,6.6,12.5,1.6,17.1,4.1c2.1,1.1,3.1,3.1,4.9,3.9c2.9,1.2,7.4,0.5,10.2-2.7c1.4-1.5,1-4.5,3.2-6.3
			c1.1-0.8,13-2.4,15.3-2.7c6.9-0.9,15.5-3.1,21.1,1c0.5,2.3,1,4.7,1.5,7.1c-2,4.7-8.1,24.3-10.5,26.4c-1.2,1-2.7,1.2-3.8,1.6
			c-6.9,2.7-11.6,10.5-6.7,16.9c2.5,3.1,7.5,4.9,11.4,2.8c5.4-2.8,7-8.7,5.7-12.9c-0.6-2-3.1-3.5-3.9-6.5c-0.5-2,13.3-30,18.6-39.8
			c11.7-4.1,43.5-16.7,46.8-19.7C129.6,199.2,101.1,207.8,89,210.9z M18.6,229.8c-1.1-2.1-0.9-5,1.6-7.7c3.1-3.4,7.6-3.6,10.7,0.1
			C37.8,230.6,23.5,239.2,18.6,229.8z M53.9,275.4c-3.1-4-1.7-8.1,1.8-11.5c3.5-3.5,7.2-3.3,9.3-1.5C74.5,270,61.4,284.9,53.9,275.4
			z M83.4,219.4c-1.3,1-3.1,0.8-4.1-0.5c-1-1.3-0.8-3.1,0.5-4.1c1.3-1,3.1-0.8,4.1,0.5C84.8,216.5,84.6,218.3,83.4,219.4z"/>
		<path id="rzr" fill-rule="evenodd" clip-rule="evenodd" d="M67,516.6c2.5-4.1,2.6-8.5,2.4-13c-1.1-1.5-2.1-4-3.6-3.1
			c-0.6,0.4-1.3,0.9-1.9,1.4c0.3,2.8,2.7,6,1.8,8.7c-3.5,3.7-5.9,1.4-9.1,3.5c0.2,10.7-8.9,30.5-8.9,30.5l-14,32.1
			c-1.5,1.8-3.9,8-4.8,11c-0.5,1.7,0.4,2.3,0.7,2.9l0.1,0.5l0,0c-0.1,0.4-0.5,0.8-1.7,1.5c0.2,0.3,0.5,0.6,0.7,1
			c3.5,1.1,6.2,5.9,10.2,4.2c7.5-16.7,14.6-33.4,19.4-50.6c-1.1-3.3-3.1-1.5-4.3-4.1c3.1-4.3,3.4-9,8.3-12.9
			c20.1,23.6,16,52.5,30.3,73.9c2,3,4.2,7.5,8.6,8.2c0.3-0.2,0.6-0.5,1-0.7C112.1,588.8,85.5,542.1,67,516.6z M55.5,548
			c0,1-0.8,1.8-1.8,1.8s-1.8-0.8-1.8-1.8s0.8-1.8,1.8-1.8S55.5,547,55.5,548z"/>
		<g id="hr">
			<path d="M110.7,107.4C110.7,107.4,110.7,107.4,110.7,107.4c0-0.2,0-0.4-0.1-0.6c-0.3-2.1-2.1-4.7-4.2-5.9c0,0,0,0-0.1,0
				c-0.4-0.2-0.9-0.4-1.3-0.5c-3.1-0.6-5.1,1-5.6,2.8c1.4-1.5,3.2-1.4,4.6-0.5c0,0,0,0,0,0c1.5,1,2.4,3,1.7,5.4
				c-2.3,3-6,1.7-8.9,0.1c0,0,0,0-0.1,0c-0.4-0.2-0.7,0.2-1.1,0c-1.9-1.2-3.8-2.1-5.7-3.1h0c0,0,0-0.7,0-0.7c0,0,0,0.3,0,0.3l0,0.3
				h0c-2.4-2-4.9-3.6-7.9-4.3c-0.1,0-0.1-0.4-0.2-0.4c-1.4-0.3-2.9-0.6-4.5-0.6c-3.6,0.2-5.6,1.6-8.6,3.1c-0.5-0.4-1-0.8-1.5-1.1
				c0,0-0.1-0.1-0.1-0.1c-2.2-1.3-5-2.3-8.2-2.1c-0.7,0.1-1.5,0.2-2.2,0.4c-0.1,0-0.1,0-0.1,0l0,0c-3.4,1-6.7,3.1-9.8,4.9
				c-1.6,0.9-3.6,2.1-5.8,3.2c-2,1-4.9,2.6-6.9,1.7c-0.5-0.2-0.9-0.7-1.2-1.3c0,0,0-0.1-0.1-0.1c-0.7-2,0.1-5.4,2.2-6
				c1.2-0.4,1.9-0.1,3.5,0.4c-0.5-1.5-2.7-1.9-4.1-1.9c-3.9,0-6.4,4-6.6,7.3c-0.1,1.3,0.1,2.5,0.5,3.6c0,0,0,0.1,0,0.1
				c0.9,2.6,2.7,4.5,4.9,5.8l-0.1,0.1c0,0,0,0,0.1,0c1.1,0.6,2.2,1.1,3.4,1.5c1.9,0.6,3.9,0.9,5.9,1.1c0.1,0,0.1,0,0.2,0
				c5.2,0.3,10.6-0.6,15.2-2.1c0.1,0,0.3-0.1,0.4-0.1c2-0.7,3.9-1.5,5.5-2.3c2-1,3.6-2.2,5.2-3.3c1.5,1.2,3.2,2.3,5,3.3
				c0,0,0,0,0.1,0l0,0c2.5,1.4,5.3,2.5,8.4,3.3c0,0,0,0.9,0.1,0.9c3.3,0.9,7,2.2,10.9,2.2c0,0,0.1,0,0.1,0c1,0,2-0.9,3-1
				c3.9-0.3,8.4-2.3,10.8-4.5C109.4,114.8,111,110.8,110.7,107.4z"/>
			<g>
				<path d="M35.7,43.8c0.7-37.3,53.5,21.4,76.3,8.9c7.5-4.1,11.6-16.9,11.6-16.9C72.5-25.3,29.8,6.3,29.8,25.2L35.7,43.8z"/>
				<path d="M114.9,82.3c2.1-8.6-2.6-25-2.6-25S121,39,124.2,40.4c10.4,15.3-4.1,39.2-5.3,48.2c-0.1,0.5-0.7,0.6-0.9,0.2L114.9,82.3
					z"/>
				<path d="M26.3,26.5C6.7,26.9-6.8,58.4,15.9,91.4l3.2,3.8c-1.4-29.7,3.1-50.9,12.4-50.9C31.5,44.3,32.9,27,26.3,26.5z"/>
			</g>
		</g>
		<g id="brd">
			<path fill="#0F0404" d="M111.4,873.1c-1.7,2-29.7,20.5-31.3,21.2c-8.6,3.4-9.5,1.9-13.2,2.6c-3.7-0.8-4.3,0.7-12.9-2.8
				c-1.6-0.7-30.3-19.5-32.1-21.5c-5.3-7.3-2.3-19.6-7.1-34.3l-0.2,43.8c3.1,28.6,43.1,44.3,51.7,51.9c8.7-7.5,50.1-22.8,51.1-51.4
				l0.2-43.8C112.6,853.6,116.7,865.9,111.4,873.1z"/>
			<path d="M107.8,857.1C107.8,857.1,107.8,857.1,107.8,857.1c0-0.2,0-0.4-0.1-0.6c-0.3-2.1-2.1-4.7-4.2-5.9c0,0,0,0-0.1,0
				c-0.4-0.2-0.9-0.4-1.3-0.5c-3.1-0.6-5.1,0.9-5.6,2.7c1.4-1.5,3.2-1.4,4.6-0.5c0,0,0,0,0,0c1.5,1,2.4,3.1,1.6,5.4
				c-2.4,2.9-6,1.7-8.9,0c0,0,0,0-0.1,0c-0.4-0.2-0.7-1.1-1.1-1.3c-1.9-1.2-3.8-3.5-5.7-4.5h0c0,0,0,0.6,0,0.6c0,0,0-0.3,0-0.3
				l0-0.3h0c-2.4-2-4.9-2.3-7.8-3.1c-0.1,0-0.1,0.3-0.2,0.3c-1.4-0.3-2.9-0.3-4.5-0.3c-3.6,0.1-5.6,1.7-8.6,3.2
				c-0.5-0.4-1-0.7-1.5-1c0,0-0.1,0-0.1-0.1c-2.2-1.4-5-2.4-8.2-2.1c-0.7,0.1-1.5,0.2-2.2,0.4c-0.1,0-0.1,0-0.1,0l0,0
				c-3.4,0.9-6.7,3.1-9.9,4.8c-1.6,0.9-3.6,2-5.8,3.1c-2,1-4.9,2.5-6.9,1.6c-0.5-0.2-0.9-0.7-1.1-1.3c0,0,0-0.1-0.1-0.1
				c-0.7-2,0.2-5.4,2.2-6c1.2-0.4,1.9-0.1,3.5,0.4c-0.4-1.5-2.7-1.9-4.1-1.9c-3.9,0-6.5,3.9-6.6,7.2c-0.1,1.3,0.1,2.5,0.4,3.6
				c0,0,0,0.1,0,0.1c0.8,2.6,2.7,4.5,4.9,5.8l-0.1,0.1c0,0,0,0,0.1,0c1.1,0.6,2.2,1.1,3.4,1.5c1.9,0.6,3.9,1,5.9,1.1
				c0.1,0,0.1,0,0.2,0c5.2,0.4,10.6-0.6,15.3-2c0.1,0,0.3-0.1,0.4-0.1c2-0.7,3.9-1.4,5.5-2.2c2-1,3.6-2.2,5.3-3.3
				c1.5,1.2,3.2,2.3,5,3.3c0,0,0,0,0.1,0l0,0c2.5,1.4,5.3,2.5,8.3,3.3c0,0,0,0.6,0.1,0.6c3.3,0.9,7,2,10.9,2c0,0,0.1,0,0.1,0
				c1,0,2-0.6,3-0.7c3.9-0.3,8.4-2.1,10.9-4.3C106.5,864.3,108.1,860.5,107.8,857.1z"/>
		</g>
		<path id="twl" d="M98.3,760.2c-3.5-5.7-13.2-24.5-6.3-47.3c8-26.9,2.4-42.9-1.3-43c-24.1-3.6-61.4-21.6-56.7,7
			c2.5,11.2,15.6,9.3,10.9,29c-4.2,17.4-11.2,36.9-8.7,52.2c2,12,4.2,19.7,5.1,22.4c0.2,0.6,0.8,1,1.5,0.8
			c13.5-4.3,27.6-8.5,41.3-7.5c0.9,0.1,1.6-1,1.1-1.8c-2.1-3.3-5.8-9.6-4-9.8c6-0.6,11.8-0.9,16.4-0.5
			C98.2,761.9,98.8,761,98.3,760.2z"/>
	</g>
	<g id="wod" display="none">
		<text transform="matrix(1 0 0 1 83.2448 120.1688)" display="inline" font-family="'Georgia-BoldItalic'" font-size="36">Basic haircut</text>
		<text transform="matrix(1 0 0 1 88.533 281.4399)" display="inline" font-family="'Georgia-BoldItalic'" font-size="36">Custom cut</text>
		<text transform="matrix(1 0 0 1 88.533 442.7112)" display="inline" font-family="'Georgia-BoldItalic'" font-size="36">Shampoo</text>
		<text transform="matrix(1 0 0 1 83.0457 603.9825)" display="inline" font-family="'Georgia-BoldItalic'" font-size="36">Straight razor shave</text>
		<text transform="matrix(1 0 0 1 83.2449 765.2535)" display="inline" font-family="'Georgia-BoldItalic'" font-size="36">Hot towel treatment</text>
		<text transform="matrix(1 0 0 1 88.533 926.5246)" display="inline" font-family="'Georgia-BoldItalic'" font-size="36">Beard trim</text>
	</g>
	<text transform="matrix(1 0 0 1 138.2448 120.1688)" font-family="'ChunkFive-Roman'" font-size="36">Basic haircut</text>
	<text transform="matrix(1 0 0 1 143.533 281.4399)" font-family="'ChunkFive-Roman'" font-size="36">Custom cut</text>
	<text transform="matrix(1 0 0 1 143.533 442.7112)" font-family="'ChunkFive-Roman'" font-size="36">Shampoo</text>
	<text transform="matrix(1 0 0 1 138.0457 603.9825)" font-family="'ChunkFive-Roman'" font-size="36">Straight razor shave</text>
	<text transform="matrix(1 0 0 1 138.2449 765.2535)" font-family="'ChunkFive-Roman'" font-size="36">Hot towel treatment</text>
	<text transform="matrix(1 0 0 1 143.5329 926.5246)" font-family="'ChunkFive-Roman'" font-size="36">Beard trim</text>
	<g id="wod2">
	</g>
</g>
<g id="circle_effect">
</g>
<g id="tierra">
	<text transform="matrix(1 0 0 1 1195.5002 442.7112)" display="none" font-family="'ChunkFive-Roman'" font-size="78">tierra del rey</text>
</g>
</svg>
