<?xml version="1.0" encoding="utf-8"?>
<!-- Generator: Adobe Illustrator 18.1.1, SVG Export Plug-In . SVG Version: 6.00 Build 0)  -->
<!DOCTYPE svg PUBLIC "-//W3C//DTD SVG 1.1//EN" "http://www.w3.org/Graphics/SVG/1.1/DTD/svg11.dtd">
<svg version="1.1" id="Layer_1" xmlns="http://www.w3.org/2000/svg" xmlns:xlink="http://www.w3.org/1999/xlink" x="0px" y="0px"
	 viewBox="0 0 800 100" enable-background="new 0 0 800 100" xml:space="preserve">
<g>
	<circle fill="#FFFFFF" cx="48" cy="50" r="4.3"/>
	<circle fill="#FFFFFF" cx="22" cy="50" r="3.3"/>
	<circle fill="#FFFFFF" cx="1.7" cy="50" r="1.7"/>
</g>
<g>
	<circle fill="#FFFFFF" cx="752" cy="50" r="4.3"/>
	<circle fill="#FFFFFF" cx="778" cy="50" r="3.3"/>
	<circle fill="#FFFFFF" cx="798.3" cy="50" r="1.7"/>
</g>
<rect x="62.5" y="48" fill="#FFFFFF" width="243" height="4"/>
<rect x="494.6" y="48" fill="#FFFFFF" width="243" height="4"/>
<g>
	<path fill="#FFFFFF" d="M382.6,36.2c0.1,1.9,0.9,1.9,0.9,1.9s7.5,43.3,8.2,44.7c0.7,1.4,1,3.1,0.2,3.9c-0.9,0.8-6.2,5.2-7.6,6.6
		c-1.4,1.4,0.2,3.6,0.2,3.6c6.3,4.2,22.1,4.2,28.9,0c0,0,1-2.2-0.4-3.6c-1.4-1.3-5.8-5.2-6.4-6.2c-0.8-1.2-0.6-2.9,0.1-4.3
		C407.6,81.2,415,38,415,38s0.9-0.2,1.2-3.3c0,0,1.9-0.5,2.2-1.8c0.3-1.2,0.8-3.1,2-3.1s0.8-2.8-0.6-2.7c0,0-0.9-4.7-4.6-5.6
		c0-0.8-0.8-3.1-2.7-2.4c0,0-0.4-2.2-1.9-2c0.3-1.3,8.1-13.5,8.5-14.2c0.8-1.5-1.3-4.1-2.3-2.8c-1.5,2.2-8,13.5-8.2,14.3
		c-8-7.8-22-4.2-23.3,6.5c0,0-1.5-0.5-2,1c-2.8,0.5-4.8,3.7-4,6.2c0,0-0.9,1.3-0.1,2.1c0.8,0.9-0.3,1.1,0.4,1.8
		c0.7,0.7,0,2.4,0.8,2.9S381,37.1,382.6,36.2z"/>
	<path fill="#FFFFFF" d="M419.8,27.2c0,0-0.9-4.7-4.6-5.6c0-0.8-0.8-3.1-2.7-2.4c0,0-0.4-2.2-1.9-2c0.3-1.3,8.1-13.5,8.5-14.2
		c0.8-1.5-1.3-4.1-2.3-2.8c-1.5,2.2-8,13.5-8.2,14.3c-8-7.8-21.9-4.3-23.3,6.5c0,0-1.5-0.5-2,1c-2.8,0.5-4.8,3.7-4,6.2
		c0,0-0.9,1.3-0.1,2.1c0.8,0.9-0.3,1.1,0.4,1.8c0.7,0.7,0,2.4,0.8,2.9c0.8,0.5,0.6,2,2.2,1.1c0.1,1.9,0.9,1.9,0.9,1.9
		c1.1-0.4,2.9-0.8,5-1.1c-0.2,0.3-0.2,0.4,0.5,0.4c1.3,0,0.9,1.1,1.5,1.3c0.7,0.1-0.2,1.3,0.5,1.9c0.7,0.7,0.1,1.2,0.7,2.2
		c0.6,1-0.3,1.6,1,2c1.3,0.4,0.8,2.1,1.9,2.3s1.4,0,1.9-0.7c0.5-0.6-0.1-1,0.4-1.8c0.6-0.7,0.2-1.5,0.7-2.5c0.5-1-0.1-1.8,0.6-2.4
		c0.7-0.6,0-1.1,1.2-2c1.2-0.9,0.5-1.3,1.3-1.5c0.1,0,0.1,0,0.2-0.1c5.7,0,11.2,0.5,14.1,1.8c0,0,0.1,0,0.1,0.1
		c0.2-0.1,0.9-0.6,1.2-3.2c0,0,1.9-0.5,2.2-1.8c0.4-1.2,0.8-3.1,2-3.1C421.6,29.9,421.3,27.1,419.8,27.2z"/>
</g>
</svg>
