<?xml version="1.0" encoding="utf-8"?>
<!-- Generator: Adobe Illustrator 18.1.1, SVG Export Plug-In . SVG Version: 6.00 Build 0)  -->
<!DOCTYPE svg PUBLIC "-//W3C//DTD SVG 1.1//EN" "http://www.w3.org/Graphics/SVG/1.1/DTD/svg11.dtd">
<svg version="1.1" id="Layer_1" xmlns="http://www.w3.org/2000/svg" xmlns:xlink="http://www.w3.org/1999/xlink" x="0px" y="0px"
	 viewBox="0 0 800 45" enable-background="new 0 0 800 45" xml:space="preserve">
<path opacity="0.3" d="M463.8,7.1c10.2-3.9,20.5,7.7,10.7,14.7c-18.6,8-46.2-40-74.5-14.4c-28.3-25.7-55.9,22.3-74.5,14.4
	c-9.8-7,0.5-18.6,10.7-14.7c-6.3-9.8-28.2-1.8-21.6,19c5.3,16.2,38.2,31.8,85.4,1.5c47.2,30.3,80.1,14.7,85.4-1.5
	C492,5.4,470.1-2.7,463.8,7.1z"/>
<g opacity="0.3">
	<circle cx="48" cy="22.5" r="4.3"/>
	<circle cx="22" cy="22.5" r="3.3"/>
	<circle cx="1.7" cy="22.5" r="1.7"/>
</g>
<g opacity="0.3">
	<circle cx="752" cy="22.5" r="4.3"/>
	<circle cx="778" cy="22.5" r="3.3"/>
	<circle cx="798.3" cy="22.5" r="1.7"/>
</g>
<rect x="62.5" y="20.5" opacity="0.3" width="243" height="4"/>
<rect x="494.6" y="20.5" opacity="0.3" width="243" height="4"/>
</svg>
