<?xml version="1.0" encoding="utf-8"?>
<!-- Generator: Adobe Illustrator 18.1.1, SVG Export Plug-In . SVG Version: 6.00 Build 0)  -->
<!DOCTYPE svg PUBLIC "-//W3C//DTD SVG 1.1//EN" "http://www.w3.org/Graphics/SVG/1.1/DTD/svg11.dtd">
<svg version="1.1" id="Layer_1" xmlns="http://www.w3.org/2000/svg" xmlns:xlink="http://www.w3.org/1999/xlink" x="0px" y="0px"
	 viewBox="0 0 828 499.7" enable-background="new 0 0 828 499.7" xml:space="preserve">
<g>
	<path fill-rule="evenodd" clip-rule="evenodd" fill="#0D0D0D" d="M663.3,258.1c0.1-0.6,0.3-1.1,0.5-1.7c-3-5.8-10.3-6.5-15.4-7.8
		c-36.4-9.1-74.1,10.8-116.4-5.2c3-8.6,9.3-11.4,13.7-17.7c4.1,0.4,2.7,4,7.7,3.9c21.2-14.9,40.6-33,59.9-51.5
		c0.3-6.2-7.6-7.7-10.8-11.9c-0.5-0.1-1.1-0.3-1.6-0.4c-0.3,2-0.7,2.8-1.2,3.1l0,0l-0.8,0.1c-0.9-0.2-2.3-1-4.3,0.5
		c-3.8,2.7-11,9.1-12.7,12l-37.1,35.1c0,0-22.6,22.3-37.4,27.3c-1.4,5.5,2.9,7.6-0.4,14.2c-3.2,2.6-8.8,0.8-12.8,1.8
		c-0.3,1.1-0.6,2.2-0.9,3.3c-0.4,2.6,3.5,2.6,6.1,3.5c6.3-1.9,12.4-4.2,16.7-9.7C560,269.7,637.3,283.3,663.3,258.1z M550,224
		c-0.5-1.3,0.2-2.8,1.5-3.3c1.3-0.5,2.8,0.2,3.3,1.5c0.5,1.3-0.2,2.8-1.5,3.3C552,226,550.5,225.3,550,224z"/>
	<path fill-rule="evenodd" clip-rule="evenodd" fill="#0D0D0D" d="M309.1,255.8c4.6,5.9,11.2,8.4,18,10.5c2.8-0.9,7-1,6.5-3.7
		c-0.3-1.2-0.6-2.4-1-3.6c-4.3-1.1-10.3,0.8-13.8-2c-3.6-7.1,1.1-9.4-0.4-15.3c-15.9-5.4-40.2-29.4-40.2-29.4l-39.9-37.7
		c-1.9-3.1-9.6-10-13.7-12.9c-2.2-1.6-3.6-0.7-4.7-0.5l-0.9-0.1l0,0c-0.5-0.3-0.9-1.2-1.2-3.3c-0.6,0.2-1.2,0.3-1.8,0.5
		c-3.5,4.5-12,6.1-11.6,12.8c20.7,19.9,41.6,39.4,64.4,55.4c5.4,0.1,3.9-3.8,8.3-4.2c4.7,6.8,11.4,9.8,14.7,19
		c-45.4,17.1-86-4.3-125.2,5.5c-5.5,1.4-13.3,2.1-16.6,8.4c0.2,0.6,0.4,1.2,0.5,1.8C178.6,284.1,261.7,269.5,309.1,255.8z
		 M268.9,222c-1.4-0.5-2.2-2.1-1.7-3.5c0.5-1.4,2.1-2.2,3.5-1.7c1.4,0.5,2.2,2.1,1.7,3.5S270.3,222.5,268.9,222z"/>
</g>
<g>
	<g>
		<path fill="#FFFFFF" d="M414.1,0.3c-76.2,0-138.2,62-138.2,138.2s62,138.2,138.2,138.2s138.2-62,138.2-138.2S490.3,0.3,414.1,0.3z
			 M414.1,272c-73.7,0-133.5-59.8-133.5-133.5S340.4,5,414.1,5s133.5,59.8,133.5,133.5S487.8,272,414.1,272z"/>
	</g>
	<path d="M414.1,243.7c-58,0-105.2-47.2-105.2-105.2c0-58,47.2-105.2,105.2-105.2s105.2,47.2,105.2,105.2
		C519.3,196.5,472.1,243.7,414.1,243.7z"/>
</g>
<path d="M414.1,5c-73.7,0-133.5,59.8-133.5,133.5S340.4,272,414.1,272s133.5-59.8,133.5-133.5S487.8,5,414.1,5z M414.1,257.8
	c-65.8,0-119.3-53.5-119.3-119.3c0-65.8,53.5-119.3,119.3-119.3s119.3,53.5,119.3,119.3C533.4,204.3,479.9,257.8,414.1,257.8z"/>
<g id="logo_1_">
	<circle fill="#FFFFFF" cx="414.1" cy="137.8" r="111"/>
	<circle cx="414.1" cy="137.8" r="105"/>
	<circle fill="#FFFFFF" cx="414.1" cy="137.8" r="75.4"/>
	<circle cx="414.1" cy="137.8" r="70"/>
	<g>
		<path fill="#FFFFFF" d="M342.3,90.9c0,0.4,0.2,0.9,0.6,1.3c0.2,0.2,0.4,0.3,0.7,0.5l0.3,0.2c0.9,0.7,1.3,1.7,1.4,2.9
			c0.1,1.2-0.3,2.5-1,3.8c-0.7,1.2-1.5,2.1-2.6,2.9c0.1,0.7,0.1,1.3-0.2,1.8c-0.3,0.5-0.7,0.9-1.3,1.1c-0.9-1.2-2.1-2.3-3.7-3.2
			c-1.6-0.9-3-1.3-4.1-1.2c-0.5-1-1.5-1.9-3.1-2.8c-1.6-0.9-3.1-1.4-4.6-1.5c-0.1-0.6-0.1-1.2,0.2-1.7c0.3-0.5,0.8-0.9,1.4-1.2
			c0.1-1.2,0.4-2.4,1.1-3.6c0.7-1.3,1.7-2.4,2.8-3c1.1-0.7,2.2-0.8,3.1-0.3c0.9,0.5,1.6,0.5,2.2,0.2c0,0.4,0.2,0.9,0.6,1.3
			c0.2,0.2,0.4,0.3,0.6,0.5c0.8,0.5,1.1,1.4,1,2.6c0.6-0.5,1.2-0.7,1.8-0.8c0.2,0,0.4,0,0.6,0.1C341.1,91.2,341.8,91.3,342.3,90.9z
			 M332.4,91c-0.3-0.2-0.7-0.2-1.1,0c-0.4,0.2-0.7,0.4-0.9,0.8c-0.3,0.5-0.3,0.9-0.1,1.5c0.2,0.6,0.7,1.1,1.4,1.5
			c0.8,0.4,1.4,0.6,2,0.4c0.5-0.1,0.9-0.4,1.2-0.9c0.2-0.4,0.3-0.8,0.2-1.2c-0.1-0.4-0.3-0.7-0.6-0.9c-0.4-0.2-0.8-0.2-1.4-0.1
			C333,91.6,332.8,91.2,332.4,91z M340.4,98.9c0.6-0.1,1-0.4,1.3-0.9c0.2-0.4,0.3-0.8,0.2-1.2c-0.1-0.4-0.3-0.8-0.7-1
			c-0.4-0.2-0.9-0.3-1.5-0.2c-0.2-0.6-0.5-1-0.9-1.2c-0.4-0.2-0.8-0.3-1.2-0.1c-0.4,0.2-0.7,0.4-1,0.8c-0.3,0.5-0.3,1-0.1,1.5
			c0.3,0.6,0.8,1.2,1.7,1.7C339,98.8,339.8,99,340.4,98.9z"/>
		<path fill="#FFFFFF" d="M356.1,83.2c-0.3,0.4-0.7,0.5-1,0.4c-0.4-0.9-0.9-1.6-1.5-2.1c-0.8-0.7-1.6-1-2.5-1c-0.9,0-1.6,0.3-2.2,1
			c-0.6,0.7-0.8,1.4-0.7,2.3c0.1,0.9,0.6,1.7,1.4,2.3c0.6,0.5,1.4,1,2.3,1.2c0.1,0.3,0,0.7-0.3,1.1c-0.4,0.4-0.9,0.8-1.7,1.2
			c0,0.5-0.1,0.9-0.5,1.3c-0.4,0.5-1,0.9-1.8,1.1c-0.2-3.3-1.4-5.8-3.5-7.7c-0.4-0.3-0.7-0.6-1.1-0.8c-0.5-3-1.6-5.3-3.4-6.9
			c-0.6-0.6-1.2-0.9-1.7-0.9c0-0.6,0.1-1.1,0.5-1.5c0.4-0.4,0.9-0.6,1.5-0.7c0-0.7,0.1-1.2,0.5-1.6c0.4-0.4,0.8-0.6,1.5-0.7
			c0.1,0.5,0.5,1,1.1,1.6c1.8,1.6,4.2,2.4,7.3,2.5c0.2,0.3,0.5,0.6,0.9,1c2.1,1.8,4.8,2.7,8.1,2.5c-0.2,0.8-0.5,1.4-0.9,1.9
			c-0.3,0.4-0.8,0.6-1.2,0.7C356.8,82.1,356.5,82.7,356.1,83.2z M344.4,77.5c0.4,1.2,1,2.2,1.9,2.9c0.1-0.4,0.3-0.7,0.4-0.9
			c0.2-0.2,0.4-0.4,0.8-0.5C346.7,78.2,345.7,77.7,344.4,77.5z"/>
		<path fill="#FFFFFF" d="M372.6,69.7c-1.1,0.8-2.5,1.1-4,0.9c0-0.8-0.1-1.5-0.5-2c-0.4-0.6-1.2-1.1-2.4-1.5c0-0.4-0.1-0.8-0.3-1.1
			c-0.3-0.4-0.7-0.6-1.3-0.7c-0.6-0.1-1,0-1.5,0.3c-0.4,0.3-0.7,0.7-0.7,1.3c0,0.6,0.2,1.4,0.8,2.2c1.4,2,2.8,3.2,4.1,3.4
			c-0.1,0.6-0.5,1-0.9,1.4c-0.5,0.3-1.1,0.5-1.8,0.4c-0.2,0.7-0.5,1.2-1,1.6c-0.5,0.3-1,0.5-1.6,0.4c-0.3-1.5-0.9-3-1.9-4.5
			c-1.1-1.5-2.1-2.5-3.1-2.8c0-1.1-0.5-2.4-1.5-3.9c-1-1.5-2.2-2.6-3.5-3.4c0.1-0.6,0.4-1.1,0.9-1.4c0.5-0.3,1.1-0.5,1.8-0.4
			c0.6-1.1,1.5-2,2.6-2.7c1.3-0.9,2.5-1.4,3.8-1.5c1.3-0.1,2.3,0.3,2.9,1.1c0.6,0.8,1.2,1.2,1.9,1.1c-0.2,0.4-0.2,0.9,0,1.4
			c0.1,0.2,0.2,0.5,0.4,0.7c0.5,0.8,0.4,1.7-0.2,2.7c0.7-0.1,1.3-0.1,1.9,0.2c0.2,0.1,0.4,0.3,0.6,0.5c0.4,0.6,0.9,0.9,1.6,0.7
			c0,0,0.3,0.2,0.7,0.8c0.6,0.7,1.1,1.2,1.6,1.6c0.8,0.6,1.7,1,2.5,1.2C374,68.5,373.3,69.2,372.6,69.7z M361,60.1
			c-0.2-0.3-0.5-0.5-0.9-0.5c-0.4,0-0.8,0.1-1.1,0.3c-0.4,0.3-0.7,0.7-0.8,1.2c-0.1,0.6,0.1,1.3,0.6,2c0.5,0.7,1,1.1,1.6,1.2
			c0.5,0.1,1,0,1.4-0.3c0.4-0.2,0.6-0.6,0.7-0.9c0.1-0.4,0.1-0.7-0.1-1.1c-0.2-0.3-0.6-0.6-1.2-0.7C361.3,60.9,361.2,60.4,361,60.1z
			"/>
		<path fill="#FFFFFF" d="M388.4,56c-0.3,0.3-0.4,0.8-0.3,1.4c0,0.2,0.1,0.5,0.2,0.8l0.1,0.3c0.2,1.1,0,2.1-0.8,3.1
			c-0.8,1-1.8,1.8-3.1,2.3c-1.3,0.5-2.5,0.7-3.9,0.6c-0.3,0.6-0.8,1.1-1.3,1.3c-0.6,0.2-1.1,0.2-1.7,0c0.1-1.5-0.2-3.1-0.9-4.8
			c-0.7-1.7-1.5-2.9-2.4-3.5c0.3-1.1,0.1-2.4-0.6-4.2c-0.7-1.7-1.5-3-2.7-4.1c0.3-0.6,0.7-0.9,1.2-1.2c0.5-0.2,1.2-0.2,1.8,0
			c0.8-0.9,1.9-1.6,3.1-2.1c1.4-0.6,2.8-0.8,4.1-0.6c1.3,0.2,2.2,0.8,2.6,1.7c0.4,0.9,0.9,1.4,1.6,1.5c-0.3,0.3-0.4,0.8-0.3,1.4
			c0,0.2,0.1,0.5,0.2,0.8c0.3,0.9,0,1.8-0.9,2.6c0.8,0,1.4,0.2,1.9,0.5c0.2,0.1,0.3,0.3,0.4,0.5C387.2,55.5,387.7,55.9,388.4,56z
			 M380.6,49.8c-0.1-0.4-0.4-0.6-0.8-0.7c-0.4-0.1-0.8-0.1-1.2,0.1c-0.5,0.2-0.8,0.5-1,1c-0.2,0.6-0.2,1.3,0.1,2
			c0.3,0.8,0.8,1.3,1.3,1.6c0.5,0.2,1,0.2,1.5,0c0.4-0.2,0.7-0.4,0.9-0.8c0.2-0.4,0.2-0.7,0.1-1.1c-0.1-0.4-0.5-0.7-1-0.9
			C380.7,50.6,380.7,50.2,380.6,49.8z M381.8,61c0.5,0.3,1,0.3,1.5,0.1c0.4-0.2,0.7-0.4,0.9-0.8c0.2-0.4,0.2-0.8,0.1-1.2
			c-0.2-0.4-0.5-0.8-1.1-1.1c0.2-0.6,0.2-1.1,0-1.5c-0.2-0.4-0.5-0.7-0.9-0.8c-0.4-0.1-0.8-0.1-1.3,0c-0.5,0.2-0.9,0.6-1,1.1
			c-0.2,0.7-0.1,1.4,0.2,2.3C380.7,60,381.2,60.6,381.8,61z"/>
		<path fill="#FFFFFF" d="M399.4,50.8c-0.6,0.1-1,0.4-1.4,0.8c-0.3,0.4-0.4,1-0.3,1.6l0.2,1.3c0.2,1.2,1,1.7,2.2,1.5
			c0.6-0.1,1.3-0.4,1.8-0.8c0.6-0.5,0.9-0.9,1-1.4c0.8,0.4,1.2,1,1.3,1.8c0.1,0.4,0.1,0.8,0,1.3c0.3,0.1,0.5,0.6,0.6,1.4
			c-0.5-0.1-1-0.2-1.6,0c-0.4,0.1-0.8,0.2-1.2,0.4c-0.4,0.2-0.8,0.4-1.2,0.5c-0.5,0.2-0.9,0.4-1.3,0.4c-0.8,0.1-1.7,0-2.6-0.3
			c-0.5,0.6-1,0.9-1.6,1c-0.6,0.1-1.1,0-1.6-0.3c0.4-1.5,0.4-3.1,0.1-4.9c-0.3-1.8-0.9-3.1-1.7-3.9c0.5-1,0.6-2.4,0.2-4.2
			c-0.3-1.8-0.9-3.3-1.8-4.5c0.4-0.5,0.9-0.8,1.4-0.9c0.6-0.1,1.2,0,1.8,0.4c0.8-0.7,1.6-1.1,2.4-1.2c0.4-0.1,0.9-0.1,1.4-0.1
			c0.4,0.1,0.9,0.1,1.3,0.1c0.4,0,0.9,0,1.3-0.1c0.6-0.1,1.2-0.3,1.5-0.6c0.2,0.8,0.2,1.3-0.1,1.5c0.2,0.4,0.4,0.7,0.5,1.2
			c0.1,0.8-0.1,1.6-0.6,2.2c-0.2-0.4-0.7-0.8-1.4-1c-0.7-0.2-1.3-0.3-2-0.2c-1.3,0.2-1.8,1-1.6,2.2l0.2,1.4c0.1,0.6,0.4,1.1,0.8,1.4
			c0.4,0.3,1,0.4,1.6,0.3c0.9-0.2,1.7-0.7,2.4-1.6c0.1,0.2,0.2,0.4,0.3,0.7c0.1,0.5,0,1-0.3,1.5c0.5,0.3,0.7,0.7,0.8,1.3
			c0,0.3,0,0.5,0,0.8C401.2,50.8,400.3,50.6,399.4,50.8z"/>
		<path fill="#FFFFFF" d="M421.4,58.4c-1.4-0.1-2.6-0.6-3.8-1.7c0.5-0.7,0.8-1.3,0.8-1.9c0-0.7-0.3-1.6-1-2.6c0.3-0.3,0.4-0.7,0.4-1
			c0-0.5-0.2-0.9-0.6-1.3c-0.4-0.4-0.9-0.6-1.4-0.6c-0.5,0-1,0.2-1.3,0.6c-0.4,0.5-0.6,1.2-0.7,2.2c-0.1,2.5,0.3,4.2,1.3,5.2
			c-0.5,0.4-1,0.6-1.6,0.5c-0.6,0-1.2-0.3-1.7-0.8c-0.6,0.4-1.2,0.7-1.8,0.6c-0.6,0-1.1-0.2-1.5-0.7c0.7-1.4,1.1-2.9,1.1-4.7
			c0.1-1.9-0.2-3.2-0.8-4.1c0.7-0.9,1-2.2,1.1-4.1c0.1-1.8-0.2-3.4-0.8-4.8c0.5-0.4,1-0.6,1.6-0.6c0.6,0,1.2,0.3,1.7,0.8
			c1.1-0.5,2.3-0.7,3.7-0.7c1.5,0.1,2.9,0.4,4,1.1c1.1,0.7,1.7,1.6,1.7,2.6c0,1,0.3,1.7,0.9,2c-0.4,0.2-0.7,0.6-0.9,1.1
			c-0.1,0.2-0.1,0.5-0.1,0.8c-0.1,0.9-0.7,1.6-1.8,2.1c0.7,0.3,1.1,0.7,1.4,1.3c0.1,0.2,0.2,0.5,0.2,0.7c-0.1,0.8,0.2,1.3,0.9,1.5
			c0,0,0.1,0.4,0.1,1c0.1,0.9,0.2,1.6,0.4,2.3c0.3,1,0.7,1.8,1.3,2.4C423.2,58.3,422.3,58.4,421.4,58.4z M417.8,43.7
			c0-0.4-0.1-0.7-0.4-1c-0.3-0.3-0.7-0.4-1.1-0.4c-0.5,0-1,0.2-1.4,0.5c-0.4,0.4-0.7,1.1-0.7,1.9c0,0.8,0.2,1.5,0.6,2
			c0.3,0.4,0.8,0.6,1.3,0.6c0.4,0,0.8-0.1,1.1-0.3c0.3-0.2,0.5-0.5,0.5-0.9c0-0.4-0.2-0.8-0.5-1.2C417.6,44.5,417.8,44.1,417.8,43.7
			z"/>
		<path fill="#FFFFFF" d="M456.5,54.5c-0.1-1.9-0.7-3.2-1.8-3.7c-0.6-0.3-1.1-0.3-1.6-0.1c-0.5,0.2-0.9,0.5-1.2,1
			c-0.2,0.5-0.3,1-0.1,1.6c0.3,0.6,0.7,1.1,1.3,1.4c0.3,0.2,0.7,0.2,1,0.2c-0.1,0.5,0.1,1.1,0.4,1.9c0.2,0.3,0.4,0.7,0.6,1
			c1.2,1.7,1.4,3.4,0.6,5.3c-0.6,1.3-1.7,2.3-3.1,2.8c-1.6,0.5-3.3,0.4-5.1-0.5c-0.9-0.4-1.8-1-2.7-1.8c-0.2-0.2-0.4-0.5-0.8-0.9
			c-0.3-0.3-0.5-0.6-0.8-0.7c-0.4-0.2-0.9-0.2-1.6-0.1c0-0.2,0.1-0.3,0.2-0.5c0.4-0.9,1-1.3,1.8-1.4c-0.1-0.3,0-0.7,0.2-1.1
			c0.2-0.5,0.7-1,1.2-1.5c0.1,1.2,0.5,2.3,1.2,3.2c0.6,0.8,1.3,1.4,2.2,1.8c0.7,0.3,1.4,0.5,2,0.4c0.6-0.1,1-0.4,1.3-0.9
			c0.2-0.5,0.2-1.2,0-2c-0.3-0.7-0.8-1.2-1.6-1.5c-0.4-0.2-0.7-0.3-1.1-0.3c0.4-1.1,0.3-1.9-0.4-2.6c-1.1-1.6-1.3-3.3-0.5-5
			c0.6-1.3,1.6-2.2,3-2.8c1.5-0.6,3-0.6,4.4,0.1c0.8,0.4,1.6,1,2.2,1.8c0.1,0.2,0.3,0.4,0.4,0.6c0.1,0.2,0.3,0.3,0.6,0.4
			c0.2,0.1,0.6,0.2,1.1,0.4c0,0.1-0.1,0.3-0.1,0.4c-0.3,0.5-0.7,0.9-1.4,1.2C457.9,53.6,457.3,54.2,456.5,54.5z"/>
		<path fill="#FFFFFF" d="M472.6,62.6c0.8-1.2,1.1-2.2,1-2.9c0.6-0.1,1.1,0.1,1.6,0.4c0.4,0.3,0.7,0.8,0.8,1.5
			c0.7-0.1,1.3,0.1,1.7,0.4c0.4,0.3,0.7,0.8,0.8,1.4c-1.4,0.7-2.6,1.8-3.7,3.2c-1.1,1.5-1.7,2.8-1.7,3.9c-1.1,0.3-2.2,1.2-3.3,2.7
			c-1.1,1.4-1.8,2.9-2.2,4.4c-0.6,0-1.2-0.1-1.6-0.4c-0.4-0.3-0.7-0.8-0.8-1.5c-0.7,0.1-1.2-0.1-1.7-0.4c-0.4-0.3-0.7-0.8-0.8-1.4
			c0.7-0.1,1.6-0.7,2.5-1.7c0.3-0.3,0.9-1.1,1.9-2.4c0.6-0.8,0.7-1.4,0.3-2c-0.2-0.2-0.3-0.4-0.5-0.5c-0.2-0.1-0.4-0.2-0.6-0.3
			c-0.7-0.2-1.3,0.1-1.9,0.8c-1,1.3-1.6,2.1-1.8,2.4c-0.8,1.2-1.1,2.2-1,2.9c-0.6,0-1.2-0.1-1.6-0.4c-0.4-0.3-0.7-0.9-0.9-1.5
			c-0.7,0.1-1.2-0.1-1.7-0.4c-0.4-0.3-0.7-0.8-0.8-1.4c1.4-0.7,2.6-1.8,3.7-3.2c1.1-1.5,1.7-2.8,1.7-3.9c1.1-0.3,2.2-1.2,3.3-2.7
			c1.1-1.4,1.8-2.9,2.2-4.4c0.6,0,1.2,0.1,1.6,0.4c0.4,0.3,0.7,0.8,0.8,1.5c0.7-0.1,1.3,0.1,1.7,0.4c0.4,0.3,0.7,0.8,0.8,1.4
			c-0.7,0.1-1.6,0.7-2.5,1.7c-0.3,0.3-0.9,1.1-1.9,2.4c-0.6,0.8-0.7,1.4-0.3,2c0.2,0.2,0.3,0.4,0.5,0.5c0.2,0.1,0.4,0.2,0.6,0.3
			c0.7,0.2,1.3-0.1,1.9-0.8C471.8,63.7,472.4,62.9,472.6,62.6z"/>
		<path fill="#FFFFFF" d="M477,87.7c-0.8-0.4-1.6-1-2.4-1.8c-0.7-0.9-1.1-1.8-1.4-2.7c-0.6-2.1,0.1-3.9,1.8-5.4l1.7-1.4
			c0.7-0.7,1-1.4,0.9-2c0.4,0.2,0.9,0.2,1.4-0.1c0.2-0.1,0.5-0.2,0.7-0.4l1.6-1.3c1.7-1.5,3.6-1.7,5.6-0.9c0.8,0.4,1.6,1,2.4,1.8
			c0.7,0.9,1.1,1.8,1.3,2.7c0.5,2.1-0.1,3.9-1.8,5.3l-1.6,1.3c-0.7,0.7-1,1.4-0.9,2c-0.4-0.2-0.9-0.2-1.4,0.1
			c-0.2,0.1-0.5,0.2-0.7,0.4l-1.7,1.4C480.8,88.3,479,88.6,477,87.7z M481.8,82.5c0.7-0.7,1-1.4,0.9-2c0.4,0.2,0.9,0.2,1.4-0.1
			c0.2-0.1,0.5-0.2,0.7-0.4l1.5-1.3c0.5-0.5,0.8-1,0.9-1.5c0.1-0.6-0.1-1-0.4-1.4c-0.3-0.4-0.8-0.6-1.3-0.6c-0.6,0-1.1,0.2-1.6,0.6
			l-1.5,1.3c-0.7,0.7-1,1.4-0.9,2c-0.4-0.2-0.9-0.2-1.4,0.1c-0.2,0.1-0.5,0.2-0.7,0.4l-1.5,1.3c-0.6,0.5-0.9,1-0.9,1.5
			c-0.1,0.5,0.1,1,0.4,1.4c0.3,0.4,0.8,0.6,1.3,0.7c0.5,0,1.1-0.2,1.6-0.6L481.8,82.5z"/>
		<path fill="#FFFFFF" d="M481.8,95.5c-0.3-0.5-0.3-1-0.2-1.7c1.5-0.1,3.1-0.5,4.7-1.4c1.7-0.9,2.7-1.8,3.2-2.8
			c1.1,0.2,2.5-0.2,4.1-1.1c1.6-0.8,2.8-1.9,3.8-3.1c0.6,0.2,1,0.6,1.3,1.1c0.3,0.5,0.3,1.1,0.2,1.9c1,0.7,1.8,1.7,2.4,2.9
			c0.7,1.4,1.1,2.7,1,4.1c-0.1,1.3-0.5,2.3-1.4,2.8c-0.9,0.5-1.3,1.1-1.3,1.7c-0.4-0.3-0.9-0.3-1.4-0.2c-0.2,0.1-0.5,0.1-0.8,0.3
			c-1.6,0.7-2.8,0.7-3.6-0.1c-0.8-0.4-1.5-1.3-2.2-2.6c-0.6-1.1-1.3-1.7-2-1.7c-0.3,0-0.8,0.2-1.6,0.6c-1.7,0.9-2.8,2-3.3,3.3
			c-0.6-0.2-1-0.5-1.3-1c-0.3-0.5-0.3-1.1-0.2-1.8C482.6,96.4,482.1,96,481.8,95.5z M498,95.1c0.4-0.2,0.6-0.5,0.6-0.9
			c0.1-0.4,0-0.8-0.2-1.2c-0.3-0.5-0.6-0.8-1.1-0.9c-0.6-0.2-1.3,0-2.1,0.4c-0.7,0.4-1.2,0.9-1.4,1.5c-0.2,0.5-0.1,1,0.1,1.5
			c0.2,0.4,0.5,0.7,0.9,0.8c0.4,0.2,0.7,0.2,1.1,0c0.4-0.2,0.6-0.6,0.8-1.1C497.2,95.3,497.6,95.3,498,95.1z"/>
	</g>
	<g>
		<path fill="#FFFFFF" d="M342.1,206.8c-0.3-0.4-0.5-0.7-0.3-1.1c0.9-0.3,1.7-0.7,2.3-1.3c0.8-0.7,1.2-1.5,1.3-2.4
			c0.1-0.9-0.1-1.6-0.7-2.3c-0.6-0.7-1.3-1-2.2-1c-0.9,0-1.7,0.4-2.5,1.1c-0.6,0.6-1.1,1.3-1.5,2.1c-0.3,0.1-0.7,0-1-0.4
			c-0.4-0.4-0.7-1-1-1.8c-0.5,0-0.9-0.2-1.2-0.6c-0.4-0.5-0.7-1.1-0.9-1.9c3.3,0.2,5.9-0.7,8-2.6c0.4-0.3,0.7-0.7,0.9-1
			c3.1-0.2,5.5-1,7.2-2.6c0.6-0.6,1-1.1,1.1-1.6c0.6,0.1,1.1,0.3,1.4,0.7c0.4,0.4,0.5,0.9,0.5,1.6c0.7,0,1.2,0.2,1.5,0.6
			c0.4,0.4,0.5,0.9,0.5,1.5c-0.5,0.1-1.1,0.4-1.7,1c-1.7,1.6-2.8,3.9-3.3,6.9c-0.3,0.2-0.7,0.5-1.1,0.8c-2.1,1.9-3.2,4.5-3.4,7.7
			c-0.8-0.3-1.4-0.6-1.8-1.1c-0.4-0.4-0.5-0.8-0.5-1.3C343,207.7,342.5,207.3,342.1,206.8z M349.1,195.9c-1.3,0.3-2.3,0.8-3.1,1.5
			c0.4,0.2,0.7,0.3,0.8,0.5c0.2,0.2,0.3,0.5,0.4,0.9C348.1,198.1,348.7,197.1,349.1,195.9z"/>
		<path fill="#FFFFFF" d="M366.2,211.9c0.7-0.4,1.4-1.1,2.1-2.2c1.1-1.7,1.6-3,1.3-4c0.6-0.1,1.1,0,1.5,0.3c0.4,0.3,0.7,0.8,0.9,1.4
			c0.6-0.1,1.2-0.1,1.6,0.2c0.4,0.3,0.7,0.7,0.8,1.3l-0.8,0.6c-1,0.7-1.9,1.6-2.6,2.8c-1,1.6-1.5,2.9-1.5,4.1
			c-1,0.4-2.1,1.3-3.1,2.9c-1,1.5-1.6,3-1.9,4.6c-0.6,0.1-1.1,0.1-1.5-0.2c-0.4-0.3-0.7-0.7-0.8-1.4c-0.6,0.1-1.2,0.1-1.6-0.2
			c-0.4-0.3-0.7-0.7-0.8-1.3c0.9-0.3,1.7-0.8,2.2-1.7c0.6-0.9,0.9-2,0.8-3.2l-0.4-4.7c-1.1,0.6-2.1,1.7-3,3.1c-1,1.5-1.7,3.1-2,4.9
			c-0.6,0.1-1.1,0-1.5-0.3c-0.4-0.3-0.7-0.8-0.9-1.4c-0.7,0.1-1.2,0-1.6-0.3c-0.4-0.3-0.7-0.7-0.8-1.3c1.3-0.8,2.5-2,3.5-3.5
			c1-1.6,1.5-2.9,1.5-4c1.1-0.4,2.2-1.4,3.2-3c0.8-1.1,1.3-2.3,1.5-3.5l0.2-1c0.6-0.1,1.1,0,1.5,0.3c0.4,0.3,0.7,0.8,0.9,1.4
			c0.6-0.1,1.2,0,1.6,0.2c0.4,0.3,0.7,0.7,0.8,1.3c-0.5,0.3-0.9,0.7-1.2,1.1c-0.4,0.5-0.5,1.1-0.5,1.8L366.2,211.9z"/>
		<path fill="#FFFFFF" d="M387.9,224.2c-0.4,0-0.8,0.3-1.2,0.8c-0.1,0.2-0.3,0.4-0.4,0.7l-1.4,3.8c-0.6,1-1.4,1.6-2.7,1.8
			c-1.2,0.2-2.5,0.1-3.9-0.4c-1.3-0.5-2.3-1.2-3.2-2.2c-0.7,0.2-1.3,0.3-1.8,0c-0.6-0.2-1-0.6-1.2-1.1c1.1-1.1,2-2.4,2.6-4.1
			c0.7-1.8,0.8-3.1,0.6-4.2c0.9-0.6,1.7-1.8,2.4-3.5c0.6-1.7,0.9-3.3,0.8-4.8c0.6-0.2,1.1-0.2,1.7,0c0.5,0.2,1,0.6,1.4,1.3
			c1.2-0.1,2.5,0.1,3.7,0.6c1.4,0.5,2.6,1.3,3.4,2.4c0.8,1,1.1,2,0.7,3l-1.4,3.8C387.4,223,387.5,223.7,387.9,224.2z M384.9,218.6
			c0.2-0.6,0.2-1.2,0-1.7c-0.2-0.4-0.6-0.7-1.1-0.9c-0.5-0.2-0.9-0.2-1.4-0.1c-0.5,0.2-0.8,0.5-1,0.9l-0.9,2.4
			c-0.3,1-0.3,1.7,0.2,2.2c-0.4,0-0.8,0.3-1.2,0.8c-0.1,0.2-0.3,0.4-0.4,0.7l-1.1,3c-0.2,0.5-0.1,0.9,0.1,1.3
			c0.2,0.4,0.6,0.7,1.1,0.9c0.5,0.2,1,0.2,1.5,0c0.5-0.2,0.8-0.6,1.1-1.3l1-2.6c0.3-1,0.3-1.7-0.2-2.2c0.4,0,0.8-0.3,1.2-0.8
			c0.2-0.2,0.3-0.5,0.4-0.7L384.9,218.6z"/>
		<path fill="#FFFFFF" d="M419,223.7c-0.9-1.7-2-2.5-3.3-2.5c-0.6,0-1.1,0.2-1.5,0.6c-0.4,0.4-0.6,0.9-0.6,1.5c0,0.5,0.2,1,0.6,1.5
			c0.5,0.4,1.1,0.6,1.8,0.6c0.4,0,0.7-0.1,1-0.2c0.1,0.5,0.6,1,1.3,1.5c0.3,0.2,0.6,0.4,1,0.7c1.8,1,2.8,2.4,2.8,4.5
			c0,1.5-0.5,2.8-1.5,3.9c-1.2,1.2-2.8,1.8-4.7,1.8c-1,0-2-0.1-3.2-0.4c-0.2-0.1-0.6-0.2-1.1-0.5c-0.4-0.2-0.7-0.3-1-0.3
			c-0.4,0-0.9,0.2-1.5,0.6c0-0.2-0.1-0.4-0.1-0.5c0-0.9,0.3-1.6,1-2c-0.2-0.3-0.3-0.6-0.3-1.1c0-0.6,0.1-1.2,0.4-1.9
			c0.6,1,1.4,1.8,2.5,2.4c0.9,0.5,1.8,0.7,2.8,0.7c0.8,0,1.4-0.2,1.9-0.5c0.5-0.3,0.8-0.8,0.8-1.4c0-0.6-0.3-1.2-0.9-1.8
			c-0.6-0.5-1.2-0.7-2.1-0.7c-0.4,0-0.8,0.1-1.2,0.2c-0.1-1.1-0.6-1.8-1.5-2.1c-1.8-1-2.6-2.4-2.7-4.2c0-1.4,0.5-2.7,1.5-3.9
			c1.1-1.2,2.4-1.8,4-1.8c0.9,0,1.8,0.2,2.8,0.6c0.2,0.1,0.4,0.2,0.6,0.3c0.2,0.1,0.4,0.2,0.7,0.2c0.3,0,0.6,0,1.1-0.1
			c0,0.1,0.1,0.3,0.1,0.4c0,0.6-0.2,1.2-0.7,1.7C419.9,222.3,419.6,223,419,223.7z"/>
		<path fill="#FFFFFF" d="M434.6,219.4c-0.5-1.4-1-2.2-1.6-2.6c0.3-0.5,0.8-0.8,1.3-1c0.5-0.1,1.1,0,1.7,0.3c0.4-0.6,0.9-0.9,1.4-1
			c0.5-0.1,1.1,0,1.6,0.3c-0.3,1.5-0.3,3.2,0.2,4.9c0.4,1.8,1.1,3.1,1.9,3.8c-0.4,1-0.4,2.4,0,4.3c0.4,1.8,1.1,3.3,2.1,4.5
			c-0.4,0.5-0.8,0.8-1.4,1c-0.5,0.1-1.1,0-1.7-0.3c-0.4,0.6-0.8,0.9-1.4,1c-0.5,0.1-1.1,0-1.6-0.3c0.4-0.6,0.5-1.6,0.3-3.1
			c-0.1-0.4-0.3-1.4-0.7-2.9c-0.2-0.9-0.7-1.4-1.4-1.5c-0.3,0-0.5,0-0.7,0.1c-0.2,0-0.4,0.1-0.7,0.3c-0.6,0.4-0.8,1.1-0.5,2
			c0.4,1.6,0.6,2.5,0.7,2.9c0.5,1.4,1,2.2,1.6,2.6c-0.4,0.5-0.8,0.8-1.3,1c-0.5,0.1-1.1,0-1.7-0.3c-0.4,0.6-0.8,0.9-1.4,1
			c-0.5,0.1-1.1,0-1.6-0.3c0.3-1.5,0.3-3.2-0.2-4.9c-0.4-1.8-1.1-3.1-1.9-3.8c0.4-1,0.4-2.4,0-4.3c-0.4-1.8-1.1-3.2-2.1-4.5
			c0.4-0.5,0.8-0.8,1.3-1c0.5-0.1,1.1,0,1.7,0.3c0.4-0.6,0.9-0.9,1.4-1.1c0.5-0.1,1.1,0,1.6,0.3c-0.4,0.6-0.5,1.6-0.3,3.1
			c0.1,0.4,0.3,1.4,0.7,2.9c0.2,0.9,0.7,1.4,1.4,1.5c0.3,0,0.5,0,0.7-0.1c0.2,0,0.4-0.1,0.7-0.3c0.6-0.4,0.8-1.1,0.6-2
			C435,220.7,434.7,219.7,434.6,219.4z"/>
		<path fill="#FFFFFF" d="M463,224.8c-0.5,0.2-0.8,0.3-1.1,0c0-1-0.3-1.8-0.7-2.5c-0.5-0.9-1.1-1.5-2-1.9c-0.8-0.3-1.6-0.3-2.4,0.1
			c-0.8,0.4-1.3,1.1-1.5,1.9c-0.2,0.9,0,1.8,0.4,2.7c0.4,0.7,1,1.4,1.7,2c0,0.3-0.2,0.6-0.7,0.9c-0.5,0.3-1.1,0.4-2,0.5
			c-0.1,0.4-0.5,0.8-0.9,1c-0.6,0.3-1.3,0.4-2.1,0.4c1-3.1,0.8-5.9-0.5-8.4c-0.2-0.5-0.5-0.8-0.7-1.1c0.6-3,0.4-5.5-0.7-7.6
			c-0.4-0.7-0.8-1.2-1.3-1.5c0.2-0.6,0.5-1,1-1.2c0.5-0.3,1-0.3,1.7-0.1c0.2-0.6,0.5-1.1,1-1.3c0.5-0.3,1-0.3,1.6-0.1
			c-0.1,0.5,0.1,1.1,0.5,1.9c1.1,2.1,3.1,3.7,5.9,4.9c0.1,0.4,0.3,0.8,0.5,1.2c1.3,2.5,3.5,4.2,6.6,5.2c-0.5,0.7-1,1.2-1.5,1.5
			c-0.5,0.2-0.9,0.3-1.4,0.2C464,224.1,463.5,224.5,463,224.8z M454.1,215.3c-0.1,1.3,0.2,2.4,0.7,3.4c0.3-0.3,0.5-0.6,0.7-0.7
			c0.2-0.1,0.6-0.2,1-0.2C456,216.8,455.2,216,454.1,215.3z"/>
		<path fill="#FFFFFF" d="M475.3,216.6c-0.4,0.3-0.9,0.5-1.5,0.6c-0.1-0.7-0.4-1.3-0.9-2c-0.9-1.1-2.1-2-3.8-2.7
			c-1.5-0.7-2.6-1-3.3-0.7c-0.3-0.5-0.7-1-1-1.4c-0.8-1-1.7-1.7-2.8-2.3c-0.9-0.5-2.2-0.9-3.8-1.3c0.1-0.8,0.4-1.4,0.9-1.8
			c0.5-0.4,1.1-0.5,1.8-0.4c0.1-0.7,0.3-1.3,0.8-1.7c0.4-0.4,0.9-0.5,1.3-0.5c0.2,0.8,0.5,1.6,1.1,2.3c1,1.3,2.3,2,3.8,2.2
			c0.1,0.4,0.4,0.9,0.8,1.4c0.5,0.6,1,1.1,1.6,1.5c0.6,0.4,1.2,0.7,1.7,0.7c0.1-0.5-0.1-1.1-0.3-1.8c-0.3-0.7-0.7-1.3-1.1-1.9
			c-0.4-0.5-0.8-0.9-1.2-1.1c0.2-1.5-0.3-2.9-1.3-4.2c-0.6-0.7-1.2-1.2-2-1.5c0.1-0.4,0.3-0.8,0.7-1.2c0.5-0.4,1.1-0.6,1.9-0.5
			c0.1-0.7,0.3-1.3,0.8-1.7c0.5-0.4,1.1-0.6,1.9-0.5c0,1.6,0.2,3,0.5,4c0.3,1.2,0.9,2.2,1.6,3.2c0.3,0.4,0.7,0.8,1.2,1.3
			c-0.4,0.6-0.3,1.8,0,3.4c0.4,1.8,1,3.2,1.9,4.2c0.5,0.7,1.1,1.1,1.8,1.3c-0.2,0.6-0.5,1.1-0.9,1.4c-0.4,0.3-0.9,0.5-1.4,0.4
			C476,215.8,475.8,216.2,475.3,216.6z"/>
		<path fill="#FFFFFF" d="M486.2,193.5c-0.4,0.5-0.5,1-0.5,1.5c0.1,0.6,0.3,1,0.9,1.4l1.1,0.8c1,0.8,1.9,0.7,2.7-0.3
			c0.4-0.5,0.7-1.1,0.8-1.8c0.1-0.7,0-1.3-0.2-1.7c0.8-0.2,1.5-0.1,2.2,0.5c0.3,0.3,0.6,0.6,0.8,0.9c0.3-0.2,0.8,0,1.4,0.6
			c-0.4,0.2-0.9,0.5-1.3,1.1c-0.3,0.3-0.5,0.7-0.7,1.1c-0.2,0.4-0.4,0.8-0.5,1.2c-0.2,0.5-0.5,0.9-0.7,1.2c-0.5,0.6-1.2,1.2-2.2,1.5
			c0,0.7-0.2,1.3-0.5,1.8c-0.4,0.5-0.8,0.7-1.5,0.8c-0.7-1.4-1.7-2.6-3.1-3.7c-1.5-1.2-2.8-1.8-3.9-1.8c-0.3-1.1-1.2-2.2-2.6-3.3
			c-1.4-1.1-2.9-1.8-4.4-2.2c0-0.6,0.1-1.2,0.5-1.6c0.4-0.5,0.9-0.8,1.6-0.9c0.1-1,0.5-1.8,1-2.5c0.2-0.3,0.6-0.6,1-1
			c0.4-0.2,0.7-0.5,1-0.8c0.3-0.3,0.6-0.6,0.9-0.9c0.4-0.5,0.7-1,0.7-1.5c0.7,0.5,1,0.9,0.9,1.2c0.4,0.1,0.8,0.3,1.1,0.6
			c0.7,0.5,1,1.2,1,2c-0.5-0.2-1-0.1-1.7,0.2c-0.7,0.3-1.2,0.7-1.6,1.2c-0.8,1-0.7,1.9,0.3,2.7l1.1,0.8c0.5,0.4,1,0.6,1.6,0.5
			c0.5-0.1,1-0.4,1.3-0.8c0.6-0.8,0.8-1.7,0.7-2.8c0.2,0.1,0.5,0.2,0.7,0.3c0.4,0.3,0.7,0.8,0.7,1.3c0.6-0.1,1.1,0.1,1.5,0.4
			c0.2,0.2,0.4,0.4,0.5,0.6C487.6,192.3,486.8,192.7,486.2,193.5z"/>
	</g>
	<g>
		<path fill="#FFFFFF" d="M364,152.5c-0.7,0-1.4-0.3-2-0.9c0.6-1.7,0.8-3.2,0.8-4.5c0-1.6-0.7-3.4-2-5.4c0.3-0.8,0.5-1.5,0.5-2.2
			c0-0.8-0.3-1.8-0.8-2.9c-0.3-0.6-1-1.9-2.2-3.9v11.5c0.1,3.5,0.6,6,1.7,7.5c-0.7,0.6-1.5,0.9-2.4,0.9c-0.8,0-1.5-0.3-2.2-0.9
			c-0.6,0.6-1.2,0.9-1.9,0.9c-0.7,0-1.5-0.3-2.1-0.9c1-2.1,1.5-4.6,1.5-7.3c0-2.8-0.5-4.9-1.5-6.3c1-1.4,1.6-3.5,1.6-6.4
			c0-2.1-0.3-3.9-1-5.7l-0.6-1.5c1.1-0.6,2.2-0.9,3.2-0.9c0.9,0,1.9,0.3,3,0.8c0.9-0.6,2-0.8,3.2-0.8c0.8,0,1.5,0.1,2.3,0.3
			c0.6,0.2,1,0.3,1.2,0.5c-0.6,1-0.9,2.3-0.9,3.9c0,2,0.3,3.5,0.8,4.6l1.7,5.1l1.7-5.1c0.5-1.1,0.7-2.6,0.7-4.6c0-1.6-0.3-3-0.9-3.9
			c0.1-0.2,0.5-0.3,1.2-0.5c0.7-0.2,1.5-0.3,2.3-0.3c1.2,0,2.3,0.3,3.2,0.8c1.1-0.6,2.1-0.8,3-0.8c1,0,2.1,0.3,3.2,0.9l-0.6,1.5
			c-0.7,1.7-1,3.6-1,5.7c0,2.9,0.5,5,1.6,6.4c-1,1.4-1.5,3.4-1.5,6.3c0,2.7,0.5,5.2,1.5,7.3c-0.7,0.6-1.4,0.9-2.1,0.9
			c-0.7,0-1.3-0.3-1.8-0.9c-0.7,0.6-1.4,0.9-2.2,0.9c-0.8,0-1.6-0.3-2.4-0.9c0.7-1,1.2-2.5,1.5-4.6c0.1-0.9,0.2-1.8,0.2-2.9v-11.5
			c-1.2,2-1.9,3.4-2.2,3.9c-0.5,1.1-0.8,2.1-0.8,2.9c0,0.7,0.2,1.4,0.5,2.2c-1.3,2.1-2,3.9-2,5.4c0,1.3,0.3,2.8,0.9,4.5
			c-0.7,0.6-1.3,0.9-2.1,0.9c-0.7,0-1.3-0.3-1.9-0.9C365.3,152.2,364.7,152.5,364,152.5z"/>
		<path fill="#FFFFFF" d="M395.2,151.6c-1,0.5-2.3,0.8-3.7,0.9c-1.4-0.1-2.7-0.4-3.7-0.8c-2.5-1.2-3.7-3.2-3.7-6.2v-2.8
			c-0.1-1.3-0.5-2.1-1.2-2.5c0.5-0.2,0.9-0.7,1.1-1.5c0.1-0.3,0.1-0.6,0.2-1v-2.6c0-2.9,1.2-4.9,3.7-6.1c1-0.5,2.3-0.8,3.7-0.9
			c1.4,0.1,2.7,0.4,3.7,0.9c2.5,1.2,3.7,3.2,3.7,6.1v2.6c0.1,1.3,0.5,2.1,1.2,2.5c-0.5,0.2-0.9,0.7-1.1,1.5c-0.1,0.3-0.1,0.6-0.2,1
			v2.8C398.9,148.4,397.6,150.4,395.2,151.6z M394.1,142.8c-0.1-1.3-0.5-2.1-1.2-2.5c0.5-0.2,0.9-0.7,1.1-1.5c0.1-0.3,0.1-0.6,0.2-1
			v-2.5c0-0.9-0.2-1.6-0.7-2.1c-0.5-0.5-1.1-0.8-1.7-0.8c-0.6,0-1.2,0.3-1.7,0.8c-0.5,0.5-0.7,1.2-0.7,2.1v2.5
			c0.1,1.3,0.5,2.1,1.2,2.5c-0.5,0.2-0.9,0.7-1.1,1.5c-0.1,0.3-0.1,0.6-0.2,1v2.5c0,0.9,0.2,1.6,0.7,2.1c0.5,0.5,1.1,0.7,1.7,0.7
			c0.7,0,1.2-0.2,1.7-0.7c0.5-0.5,0.7-1.2,0.7-2.1V142.8z"/>
		<path fill="#FFFFFF" d="M414.4,151.6c-1,0.5-2.3,0.8-3.7,0.9c-1.4-0.1-2.7-0.4-3.7-0.8c-2.5-1.2-3.7-3.2-3.7-6.2v-2.8
			c-0.1-1.3-0.5-2.1-1.2-2.5c0.5-0.2,0.9-0.7,1.1-1.5c0.1-0.3,0.1-0.6,0.2-1v-2.6c0-2.9,1.2-4.9,3.7-6.1c1-0.5,2.3-0.8,3.7-0.9
			c1.4,0.1,2.7,0.4,3.7,0.9c2.5,1.2,3.7,3.2,3.7,6.1v2.6c0.1,1.3,0.5,2.1,1.2,2.5c-0.5,0.2-0.9,0.7-1.1,1.5c-0.1,0.3-0.1,0.6-0.2,1
			v2.8C418,148.4,416.8,150.4,414.4,151.6z M413.2,142.8c-0.1-1.3-0.5-2.1-1.2-2.5c0.5-0.2,0.9-0.7,1.1-1.5c0.1-0.3,0.1-0.6,0.2-1
			v-2.5c0-0.9-0.2-1.6-0.7-2.1c-0.5-0.5-1.1-0.8-1.7-0.8c-0.6,0-1.2,0.3-1.7,0.8c-0.5,0.5-0.7,1.2-0.7,2.1v2.5
			c0.1,1.3,0.5,2.1,1.2,2.5c-0.5,0.2-0.9,0.7-1.1,1.5c-0.1,0.3-0.1,0.6-0.2,1v2.5c0,0.9,0.2,1.6,0.7,2.1c0.5,0.5,1.1,0.7,1.7,0.7
			c0.7,0,1.2-0.2,1.7-0.7c0.5-0.5,0.7-1.2,0.7-2.1V142.8z"/>
		<path fill="#FFFFFF" d="M432.5,135.1c-1.1-2.2-2.5-3.2-4.1-3.2c-0.8,0-1.4,0.3-1.9,0.8c-0.5,0.5-0.8,1.1-0.8,1.8
			c0,0.7,0.3,1.3,0.8,1.9c0.7,0.6,1.4,0.9,2.2,0.9c0.5,0,0.9-0.1,1.3-0.3c0.2,0.6,0.7,1.3,1.5,2c0.4,0.3,0.8,0.6,1.3,0.8
			c2.3,1.3,3.5,3.2,3.5,5.7c0,1.9-0.7,3.5-2,4.8c-1.5,1.5-3.5,2.2-6,2.2c-1.3,0-2.6-0.2-4-0.6c-0.3-0.1-0.7-0.3-1.4-0.6
			c-0.5-0.2-0.9-0.4-1.2-0.4c-0.5,0-1.2,0.2-1.9,0.7c0-0.2-0.1-0.4-0.1-0.7c0-1.2,0.4-2,1.3-2.5c-0.3-0.3-0.4-0.8-0.4-1.4
			c0-0.7,0.2-1.5,0.6-2.4c0.7,1.3,1.8,2.4,3.1,3.1c1.1,0.6,2.3,0.9,3.5,0.9c1,0,1.8-0.2,2.5-0.6c0.7-0.4,1-1,1-1.7
			c0-0.7-0.4-1.5-1.1-2.3c-0.7-0.6-1.5-0.9-2.6-0.9c-0.5,0-1,0.1-1.5,0.2c-0.1-1.4-0.7-2.3-1.8-2.7c-2.2-1.3-3.3-3-3.3-5.4
			c0-1.8,0.7-3.4,2-4.9c1.4-1.5,3.1-2.2,5-2.2c1.2,0,2.3,0.3,3.5,0.8c0.3,0.2,0.5,0.3,0.8,0.5c0.2,0.1,0.5,0.2,0.9,0.2
			c0.3,0,0.8,0,1.4-0.1c0,0.2,0.1,0.4,0.1,0.5c0,0.7-0.3,1.5-0.9,2.2C433.6,133.4,433.3,134.3,432.5,135.1z"/>
		<path fill="#FFFFFF" d="M447,141.6c-0.7,0-1.4,0.2-1.9,0.6c-0.5,0.5-0.8,1.1-0.8,2v1.7c0,1.6,0.8,2.4,2.4,2.4
			c0.8,0,1.6-0.2,2.4-0.7c0.8-0.4,1.3-0.9,1.5-1.5c0.8,0.6,1.3,1.5,1.3,2.5c0,0.5-0.1,1.1-0.3,1.5c0.4,0.2,0.6,0.8,0.5,1.9
			c-0.5-0.3-1.2-0.4-2-0.4c-0.5,0-1.1,0.1-1.6,0.2c-0.5,0.1-1.1,0.3-1.6,0.4c-0.6,0.2-1.2,0.2-1.7,0.2c-1,0-2.1-0.3-3.2-1
			c-0.7,0.6-1.4,0.9-2.2,0.9c-0.7,0-1.4-0.3-2-0.8c0.8-1.8,1.2-3.8,1.2-6c0-2.4-0.4-4.1-1.2-5.2c0.8-1.1,1.2-2.9,1.2-5.2
			c0-2.3-0.4-4.3-1.2-6c0.6-0.5,1.2-0.8,2-0.8c0.7,0,1.5,0.3,2.2,0.9c1.1-0.6,2.2-1,3.2-1c0.5,0,1.1,0.1,1.7,0.2
			c0.5,0.2,1.1,0.3,1.6,0.4c0.5,0.1,1.1,0.2,1.6,0.2c0.8,0,1.5-0.1,2-0.4c0.1,1.1-0.1,1.7-0.5,1.9c0.2,0.5,0.3,1,0.3,1.5
			c0,1.1-0.4,1.9-1.3,2.5c-0.2-0.6-0.7-1.1-1.5-1.5c-0.8-0.4-1.6-0.7-2.4-0.7c-1.6,0-2.4,0.8-2.4,2.4v1.7c0,0.8,0.2,1.5,0.7,1.9
			c0.5,0.5,1.1,0.7,1.9,0.7c1.2,0,2.3-0.5,3.3-1.5c0.1,0.3,0.2,0.6,0.2,0.9c0,0.7-0.3,1.3-0.8,1.8c0.5,0.5,0.8,1.1,0.8,1.8
			c0,0.3-0.1,0.7-0.2,0.9C449.3,142.1,448.2,141.6,447,141.6z"/>
		<path fill="#FFFFFF" d="M473.5,135.1c-1.1-2.2-2.5-3.2-4.1-3.2c-0.8,0-1.4,0.3-1.9,0.8c-0.5,0.5-0.8,1.1-0.8,1.8
			c0,0.7,0.3,1.3,0.8,1.9c0.7,0.6,1.4,0.9,2.2,0.9c0.5,0,0.9-0.1,1.3-0.3c0.2,0.6,0.7,1.3,1.5,2c0.4,0.3,0.8,0.6,1.3,0.8
			c2.3,1.3,3.5,3.2,3.5,5.7c0,1.9-0.7,3.5-2,4.8c-1.5,1.5-3.5,2.2-6,2.2c-1.3,0-2.6-0.2-4-0.6c-0.3-0.1-0.7-0.3-1.4-0.6
			c-0.5-0.2-0.9-0.4-1.2-0.4c-0.5,0-1.2,0.2-1.9,0.7c0-0.2-0.1-0.4-0.1-0.7c0-1.2,0.4-2,1.3-2.5c-0.3-0.3-0.4-0.8-0.4-1.4
			c0-0.7,0.2-1.5,0.6-2.4c0.7,1.3,1.8,2.4,3.1,3.1c1.1,0.6,2.3,0.9,3.5,0.9c1,0,1.8-0.2,2.5-0.6c0.7-0.4,1-1,1-1.7
			c0-0.7-0.4-1.5-1.1-2.3c-0.7-0.6-1.5-0.9-2.6-0.9c-0.5,0-1,0.1-1.5,0.2c-0.1-1.4-0.7-2.3-1.8-2.7c-2.2-1.3-3.3-3-3.3-5.4
			c0-1.8,0.7-3.4,2-4.9c1.4-1.5,3.1-2.2,5-2.2c1.2,0,2.3,0.3,3.5,0.8c0.3,0.2,0.5,0.3,0.8,0.5c0.2,0.1,0.5,0.2,0.9,0.2
			c0.3,0,0.8,0,1.4-0.1c0,0.2,0.1,0.4,0.1,0.5c0,0.7-0.3,1.5-0.9,2.2C474.6,133.4,474.2,134.3,473.5,135.1z"/>
	</g>
	<g>
		<path fill-rule="evenodd" clip-rule="evenodd" fill="#FFFFFF" d="M395.3,72.2c0.1,0,0.2,0,0.3,0c0.9,0.4-0.3,2.2,0.9,2.4
			c0.7,0.1,1.2,0,1.6,0c1.1,0,0.9-1.2,1.4-1.7c0.6-0.1,0.2,0.8,0.7,0.9c0.8,0,0.3-1.3,1.1-1.3c0.4,0.3,0.1,1.4,0.7,1.7
			c1.2,0.1,1.1-1.1,2-1.3c0.2,0.2,0.2,0.5,0.4,0.7c0.7,0.1,0.9-0.3,1.5-0.3c0,0.5-0.2,0.5,0,0.9c0.6,0.2,0.7-0.5,1.2-0.1
			c-0.3,1.3-0.8,2.2-1.8,2.9c-1.4,0.9-3.5,1.1-3.7,2.2c-0.2,1,1.4,1.9,1.2,3.4c0.9,0.6,3,0.6,3.4-0.4c-0.5-1.6-1.9-2.4-2-4.5
			c1.5,0.5,1.2,2.8,3.3,2.6c1.2-1.1-0.8-3.5,0.8-4.1c0.5,0.1,0.2,0.5,0.1,0.8c0.2,1.7,1.2,4,2.8,3.7c1.1-0.2,0.7-1.5,1.3-2.5
			c1.2,0.2,0.4,1.5,0.4,2.4c2.4-0.5,1.9-3.9,2.6-6.1c1.1,0,0.4,1.8,0.8,2.5c2.3,0.3,1.2-2.9,3.2-3c0.4,0.5-0.5,1.1,0,1.6
			c1.3,0.2,0.9-1.3,1.8-1.5c0.2,0.1,0,0.4,0.2,0.7c0.3,0.4,0.4-0.5,1,0.1c0.2-0.3,0.3-0.6,0.7-0.5c0,1.5-0.7,2.9-1.4,3.8
			c-1.8,2.3-6.5,4.5-10.3,5c-0.5,0.1-1,0.6-1.5,0.8c-1.1,0.4-2.3,0.2-3.3,0.5c0.2,0.5,0.8,1.3,1.6,1.7c1.3,0.8,3.7,0.6,5.5,1.3
			c1.2,0.5,2.3,1.2,3.4,1.3c2.7,0.4,5.7-0.7,8.2-0.4c3.1,0.4,4.9,3.4,5.7,6.2c0.2,0.6-0.6,0.2-0.7,0.5c-0.2,2-1,3.1-0.5,5
			c0.4,1.3,1.7,2.4,1.7,3.7c0,0.6-0.4,1.3-0.5,2.1c-0.3,2.5,0.2,5,0,8.2c-0.6,0.5-0.9,1.3-1.2,2.1c-0.9,0.2-1.9,0.3-2.8,0
			c0.2-0.6,0.6-1.1,1.1-1.4c2-4.1,1.4-11.7-1.7-14.1c-0.4,2.1,1.2,1.8-0.1,5.7c-1,3.5-3.1,5.9-4,9.5c-0.6,0.1-0.5,1-0.9,1.3
			c-0.8,0.2-1.7,0.4-2.5,0.1c-0.1-0.8,0.7-1.3,1.2-2c1.1-1.5,1.9-3.2,2.6-5.3c0.8-2.4,1.8-6.8-0.3-9.1c-2.1-2.2-4.4,2.5-9.1,0
			c-1.3,3.5-0.5,9.3,0.1,12.9c-0.4,0.7-1.2,0.9-1.2,2c-0.6,0.2-1.8,0.5-2.4,0c0.1-0.8,0.9-1.1,1.2-1.8c1-2.4,0-6-0.5-8.4
			c-1.2,2.2-0.9,6-1.1,9.2c-0.6,0.5-1.3,1-1.6,1.8c-0.8,0-2.1,0.4-2.6-0.1c0.4-0.9,1.1-1,1.6-1.7c1.9-3,0.7-7.2,0.4-10.8
			c-0.1-1,0.2-2,0-2.9c-0.4-2.4-3.2-4.2-3.8-6.6c-0.6,0.4-0.7,1-1.5,1.2c-2.7-0.8-1.1-5.2-2.6-7.3c-0.9,0-0.1,0.2-0.8,0.1
			c-2-0.3-2.5-3.8-0.8-4.9c1.1,0.2,1.5,0.8,2.6,0.4c-0.5-1-2-0.9-3.4-0.9c-1.6-2.3-5.2-3.2-5.3-6.6c1,0.3,0.8,1.7,1.8,2
			c0.5-1.4-1.4-3.2-0.1-4.5c0.6,0.5,0.5,1.9,0.9,2.6C395.4,76.1,394.9,73.7,395.3,72.2z"/>
	</g>
	<g>
		<path fill-rule="evenodd" clip-rule="evenodd" fill="#FFFFFF" d="M335.6,135.6c-0.1,0.4-5.5,2.6-7.8,3.6c2.3,1,7.8,3.3,7.8,3.6
			c-0.9,0.1-7.4-2-9.7-2.8c-2,0.9-7.7,3.5-7.8,3.9c-0.3,0.6-0.1,1.1-0.2,1.5c-0.3,0.8-1.3,1.5-2.5,1.3c-0.9-0.2-1.4-1.1-1.4-1.9
			c0-1.6,1.7-2.2,3.1-1.8c0.2,0.1,0.5,0.2,0.8,0.2c0.6,0,4-2.3,4.9-2.8c0.2-0.4,0.4-0.9,0.6-1.3c-0.3-1.3-1.9-2.1-3.1-2.8
			c-0.4-0.2-2.4-1.5-2.7-1.5c-0.6,0-0.9,0.5-1.3,0.6c-0.8,0.1-1.6-0.3-1.9-0.9c-0.2-0.3-0.1-0.8-0.3-1.2c-0.4-1-2.2-1.1-2.1-2.8
			c0.1,0,0.1-0.1,0.1,0c0.6,0.8,0.9,1.9,2.1,1.9c0.6,0,1.1-0.6,1.7-0.6c0.7,0,1.5,0.4,1.8,1.2c0.1,0.3-0.1,0.7,0.1,1.1
			c0.2,0.5,5.9,3.2,8.1,4.1C328.2,137.6,334.8,135.6,335.6,135.6z M314.5,133.4c-0.4,2.1,2.9,2.5,2.9,0.4c0-1-0.7-1.5-1.6-1.4
			C315,132.5,314.6,133,314.5,133.4z M325.4,139.1c0-0.3,0.6-0.2,0.5-0.3C325.6,138.6,325.2,139.1,325.4,139.1z M325.7,139.7
			c-0.3-0.1,0.4-0.6,0.6-0.7c0,0-0.1,0-0.1-0.1c-0.1,0-0.1-0.1-0.1-0.1c-0.1,0.3-0.4,0.5-0.7,0.7
			C325.4,139.6,325.8,139.9,325.7,139.7z M326.3,139.3c0-0.1,0-0.3-0.1-0.1C326.2,139.3,326.3,139.5,326.3,139.3z M326,139.8
			c0-0.1,0.3-0.4,0.1-0.2C326.1,139.6,325.7,139.8,326,139.8z M314.3,144.9c0,2.4,3.9,1.7,3.4-0.6c-0.1-0.5-0.7-1-1.6-0.9
			C315,143.4,314.3,143.9,314.3,144.9z"/>
	</g>
	<g>
		<path fill-rule="evenodd" clip-rule="evenodd" fill="#FFFFFF" d="M493.6,135.6c0.1,0.4,5.2,2.6,7.4,3.6c-2.1,1-7.3,3.3-7.4,3.6
			c0.8,0.1,7-2,9.2-2.8c1.9,0.9,7.3,3.5,7.4,3.9c0.2,0.6,0.1,1.1,0.2,1.5c0.3,0.8,1.2,1.5,2.4,1.3c0.8-0.2,1.4-1.1,1.3-1.9
			c0-1.6-1.6-2.2-3-1.8c-0.2,0.1-0.4,0.2-0.7,0.2c-0.6,0-3.8-2.3-4.7-2.8c-0.2-0.4-0.4-0.9-0.6-1.3c0.3-1.3,1.8-2.1,3-2.8
			c0.4-0.2,2.3-1.5,2.6-1.5c0.5,0,0.8,0.5,1.2,0.6c0.8,0.1,1.5-0.3,1.8-0.9c0.2-0.3,0.1-0.8,0.3-1.2c0.4-1,2.1-1.1,2-2.8
			c-0.1,0-0.1-0.1-0.1,0c-0.6,0.8-0.8,1.9-2,1.9c-0.6,0-1-0.6-1.6-0.6c-0.7,0-1.4,0.4-1.7,1.2c-0.1,0.3,0.1,0.7-0.1,1.1
			c-0.2,0.5-5.6,3.2-7.7,4.1C500.6,137.6,494.4,135.6,493.6,135.6z M513.6,133.4c0.4,2.1-2.7,2.5-2.7,0.4c0-1,0.7-1.5,1.6-1.4
			C513.1,132.5,513.5,133,513.6,133.4z M503.3,139.1c0-0.3-0.6-0.2-0.5-0.3C503.1,138.6,503.4,139.1,503.3,139.1z M503,139.7
			c0.3-0.1-0.3-0.6-0.5-0.7c0,0,0.1,0,0.1-0.1c0.1,0,0.1-0.1,0.1-0.1c0.1,0.3,0.4,0.5,0.7,0.7C503.3,139.6,502.9,139.9,503,139.7z
			 M502.4,139.3c0-0.1,0-0.3,0.1-0.1C502.5,139.3,502.4,139.5,502.4,139.3z M502.7,139.8c0-0.1-0.3-0.4-0.1-0.2
			C502.6,139.6,503,139.8,502.7,139.8z M513.8,144.9c0,2.4-3.7,1.7-3.2-0.6c0.1-0.5,0.6-1,1.6-0.9
			C513.1,143.4,513.8,143.9,513.8,144.9z"/>
	</g>
	<rect x="344" y="115.1" fill-rule="evenodd" clip-rule="evenodd" fill="#FFFFFF" width="139.9" height="5.6"/>
	<polygon fill-rule="evenodd" clip-rule="evenodd" points="465.4,123.9 452,123.9 448.7,113.9 468.7,113.9 	"/>
	<rect x="344" y="155.3" fill-rule="evenodd" clip-rule="evenodd" fill="#FFFFFF" width="139.9" height="5.6"/>
	<g>
		<path d="M399.3,166.4l-28.2,21.4c0,0,0,0,0.1,0l28.3-21.5C399.4,166.4,399.3,166.4,399.3,166.4z"/>
		<path d="M439.8,170.7l-19.1,14.5c0,0,0,0,0.1,0L439.8,170.7C439.8,170.7,439.8,170.7,439.8,170.7z"/>
		<path fill="#FFFFFF" d="M387.4,172.4c-2,1.1-4.3,2.5-7,3.8c-2.5,1.2-5.9,3.1-8.4,2c-0.7-0.3-1.1-0.9-1.4-1.6l-5.4,4.1
			c1.1,3.1,3.3,5.4,6.1,7l28.2-21.4C395.3,167.5,391.2,170.2,387.4,172.4z"/>
		<path fill="#9C0001" d="M372.5,167.4c-4.7,0-7.8,4.8-7.9,8.8c-0.1,1.6,0.1,3.1,0.6,4.4c0,0.1,0,0.1,0.1,0.2l5.4-4.1
			c0-0.1,0-0.1-0.1-0.2c-0.9-2.5,0.1-6.5,2.6-7.3c1.5-0.5,2.3-0.2,4.3,0.5C376.9,167.9,374.2,167.4,372.5,167.4z"/>
		<path fill="#FFFFFF" d="M424.5,165.9c-4.4,0.2-6.8,2-10.4,3.8c-0.6-0.4-1.2-0.9-1.9-1.3l-29.6,22.4c6.3,0.4,12.9-0.8,18.4-2.6
			l28.9-21.9C428.3,165.9,426.4,165.8,424.5,165.9z"/>
		<path fill="#0A4569" d="M412.1,168.3c-2.7-1.6-6.1-2.8-9.9-2.5c-0.9,0.1-1.8,0.2-2.7,0.5l-28.3,21.5c1.3,0.7,2.7,1.3,4.1,1.8
			c2.3,0.7,4.7,1.1,7.2,1.3c0.1,0,0.2,0,0.3,0l29.6-22.4C412.2,168.4,412.1,168.4,412.1,168.3z"/>
		<path fill="#9C0001" d="M430.2,166.4c-0.1,0-0.2,0-0.2,0l-28.9,21.9c0.2-0.1,0.4-0.1,0.5-0.2c2.4-0.8,4.7-1.8,6.6-2.8
			c2.4-1.2,4.3-2.7,6.3-4.1c1.8,1.4,3.9,2.8,6.1,4l19.1-14.5C436.9,168.8,433.8,167.2,430.2,166.4z"/>
		<path fill="#FFFFFF" d="M448.1,176.1c-0.5-0.3-0.9-0.5-1.3-0.8c-2.3-1.4-4.6-3.1-7-4.6l-19.1,14.5c3,1.6,6.5,3,10.2,4L448.1,176.1
			z"/>
		<path fill="#FFFFFF" d="M458.1,166.7c-3.7-0.7-6.1,1.2-6.8,3.4c1.7-1.8,3.9-1.8,5.6-0.7l2.8-2.1
			C459.1,167,458.6,166.8,458.1,166.7z"/>
		<path fill="#FFFFFF" d="M447.9,190.7c4.8-0.4,10.2-2.3,13.1-5c2.4-2.2,4.3-6.5,3.9-10.6l-20.7,15.7
			C445.4,190.8,446.7,190.8,447.9,190.7z"/>
		<path fill="#0A4569" d="M464.9,175c0-0.2,0-0.4-0.1-0.6c-0.4-2.6-2.6-5.7-5.1-7.1c0,0,0,0-0.1,0l-2.8,2.1c0,0,0,0,0.1,0
			c1.8,1.2,2.9,3.7,2,6.5c-2.8,3.6-7.2,2.1-10.8,0.1c0,0,0,0-0.1,0l-17.3,13.1c0,0,0.1,0,0.1,0c4,1.1,8.5,1.6,13.2,1.6
			c0,0,0.1,0,0.1,0L464.9,175C464.9,175.1,464.9,175.1,464.9,175z"/>
	</g>
	<g id="lmXyGe_1_">
		<g>
			<path fill-rule="evenodd" clip-rule="evenodd" fill="#FFFFFF" d="M461.7,113.2c-0.1,0.4,0,1-0.2,1.3c-0.7,0.3-0.9-0.1-1.4,0
				c-0.6,1.5-2.2,2.3-2.9,3.6c0.5-0.2-0.1,0.7-0.1,0.2c0.1,0,0.2-0.2,0-0.2c-0.5,0.5,0.1,0.8-0.6,0.5c0,0.5,0,0.9-0.3,0.4
				c-0.5,0.3,0.1,0.4-0.2,0.7c-1,0.7-1.9,2.3-2.8,2.6c0.8-0.9,2.4-2.1,2.6-2.9c-0.8,1.2-2.8,2.5-3.5,3.4c-0.3,0.4,0.3,0.5-0.4,0.6
				c0,0.1,0,0.1,0,0.2c0.4,0.3,0.5,1.2,1.2,1.1c2-1.9,3.9-3.7,5.5-5.8c0-0.5-0.3-0.4-0.4-0.8c0.7-0.4,1-1,1.9-1.3
				c1.4,4.3-0.8,8.1,0,11.8c0.1,0.5,0.1,1.3,0.7,1.6c0.1,0,0.1,0,0.2,0c2.7-2.5,1.7-10.4,0.6-14.9c0.6-0.4,0.8-1,1.1-1.6
				c-0.1-0.3-0.1-0.7-0.3-0.6C461.9,113.2,461.8,113.2,461.7,113.2z M452.9,122.7C452.1,123.7,452.3,122.6,452.9,122.7L452.9,122.7z
				 M452.5,124.4c1.5-2,3.1-3.9,5.2-5.6C456.5,120.9,454.2,123.1,452.5,124.4z"/>
		</g>
	</g>
</g>
<g id="scis">
	<path fill-rule="evenodd" clip-rule="evenodd" fill="#0D0D0D" d="M653.7,297.8c5.1-2.3,17.2-7.2,17.4-8.1
		c-1.9-0.1-16.4,4.5-21.7,6.2c-5-1.9-17.7-7.9-18.1-9c-0.3-0.9,0-1.9-0.2-2.5c-0.6-1.8-2.4-2.7-4-2.7c-1.4,0-2.4,1.4-3.8,1.4
		c-2.7,0-3.2-2.5-4.6-4.3c0-0.2-0.2-0.1-0.3,0c-0.1,3.6,3.9,4,4.8,6.2c0.4,1,0.2,1.9,0.6,2.7c0.7,1.2,2.4,2.2,4.3,1.9
		c0.9-0.1,1.6-1.3,2.9-1.3c0.6,0,5.1,2.8,6,3.3c2.7,1.6,6.2,3.2,7,6.2c-0.5,0.9-0.9,1.9-1.4,2.9c-2,1.1-9.5,6.2-10.9,6.2
		c-0.7,0-1.3-0.3-1.7-0.5c-3.1-1-6.9,0.4-7,4c0,1.8,1.2,3.7,3.2,4.1c2.6,0.5,4.8-1.1,5.5-2.9c0.3-0.8-0.1-2.1,0.5-3.3
		c0.4-0.9,12.9-6.7,17.4-8.6c5.2,1.8,19.6,6.2,21.6,6.1C670.9,305,658.7,300.1,653.7,297.8z M624.2,284.9c0.2-1,1.1-2,2.7-2.2
		c2-0.3,3.6,0.8,3.7,3C630.6,290.5,623.3,289.5,624.2,284.9z M623.8,310.4c0-2.2,1.7-3.3,3.8-3.5c2.2-0.2,3.4,0.8,3.7,2
		C632.4,314.2,623.7,315.7,623.8,310.4z M649.4,299.2c-0.7,0-1.3-0.6-1.3-1.3s0.6-1.3,1.3-1.3s1.3,0.6,1.3,1.3
		C650.7,298.6,650.1,299.2,649.4,299.2z"/>
	<path fill-rule="evenodd" clip-rule="evenodd" fill="#0D0D0D" d="M157.7,305.8c1.9,0.1,16.4-4.3,21.6-6.1c4.5,1.9,17,7.8,17.4,8.6
		c0.6,1.3,0.1,2.5,0.5,3.3c0.7,1.8,2.9,3.4,5.5,2.9c2-0.4,3.2-2.3,3.2-4.1c0-3.6-3.9-5-7-4c-0.5,0.1-1.1,0.5-1.7,0.5
		c-1.4,0-8.9-5.2-10.9-6.2c-0.5-1-0.9-1.9-1.4-2.9c0.8-2.9,4.3-4.6,7-6.2c0.9-0.5,5.4-3.3,6-3.3c1.3,0,1.9,1.1,2.9,1.3
		c1.8,0.3,3.6-0.7,4.3-1.9c0.4-0.8,0.2-1.7,0.6-2.7c0.9-2.1,4.9-2.5,4.8-6.2c-0.1-0.1-0.3-0.2-0.3,0c-1.4,1.7-1.9,4.3-4.6,4.3
		c-1.4,0-2.4-1.4-3.8-1.4c-1.5-0.1-3.4,0.9-4,2.7c-0.2,0.7,0.2,1.7-0.2,2.5c-0.4,1.1-13.1,7.1-18.1,9c-5.3-1.7-19.8-6.3-21.7-6.2
		c0.2,1,12.3,5.9,17.4,8.1C170.1,300.1,157.9,305,157.7,305.8z M198.3,285.7c0-2.2,1.6-3.3,3.7-3c1.6,0.2,2.5,1.2,2.7,2.2
		C205.6,289.5,198.3,290.5,198.3,285.7z M197.6,309c0.3-1.2,1.5-2.3,3.7-2c2.1,0.2,3.8,1.3,3.8,3.5
		C205.1,315.7,196.5,314.2,197.6,309z M178.1,297.9c0-0.7,0.6-1.3,1.3-1.3c0.7,0,1.3,0.6,1.3,1.3c0,0.7-0.6,1.3-1.3,1.3
		S178.1,298.6,178.1,297.9z"/>
</g>
<g id="blend">
	<g>
		<circle cx="141.5" cy="274" r="4.6"/>
		<circle cx="113.6" cy="274" r="3.6"/>
		<circle cx="91.9" cy="274" r="1.9"/>
	</g>
	<g>
		<circle cx="686.5" cy="274" r="4.6"/>
		<circle cx="714.4" cy="274" r="3.6"/>
		<circle cx="736.1" cy="274" r="1.9"/>
	</g>
	<g>
		<line fill="none" stroke="#000000" stroke-width="4.2961" stroke-miterlimit="10" x1="162.4" y1="274.2" x2="665.9" y2="274.2"/>
		<line fill="none" stroke="#000000" stroke-width="3.6517" stroke-miterlimit="10" x1="208.6" y1="319.1" x2="619.6" y2="319.1"/>
		<line fill="none" stroke="#000000" stroke-width="3.0073" stroke-miterlimit="10" x1="254.9" y1="363.9" x2="573.3" y2="363.9"/>
		<line fill="none" stroke="#000000" stroke-width="2.3629" stroke-miterlimit="10" x1="301.2" y1="408.8" x2="527.1" y2="408.8"/>
		<line fill="none" stroke="#000000" stroke-width="1.7185" stroke-miterlimit="10" x1="347.4" y1="453.7" x2="480.8" y2="453.7"/>
		<line fill="none" stroke="#000000" stroke-width="1.074" stroke-miterlimit="10" x1="393.7" y1="498.6" x2="434.5" y2="498.6"/>
	</g>
</g>
<g id="quote">
	<g id="must">
		<path fill="#0D0D0D" d="M456.9,420.1c6.8-2.6,13.7,5.1,7.2,9.9c-12.5,5.4-31-26.8-50-9.6c-19-17.2-37.5,15-50,9.6
			c-6.6-4.7,0.4-12.5,7.2-9.9c-4.2-6.6-18.9-1.2-14.5,12.7c3.6,10.9,25.6,21.3,57.3,1c31.6,20.3,53.7,9.9,57.3-1
			C475.8,418.9,461.2,413.6,456.9,420.1z"/>
	</g>
	<g id="ribbon_1_">
		<polygon fill="#202021" points="333.1,385.8 217.4,385.8 228.6,410.8 217.4,434.1 333.1,434.1 		"/>
		<polygon fill="#202021" points="495.1,385.8 610.9,385.8 599.6,410.8 610.9,434.1 495.1,434.1 		"/>
		<polygon fill="#0D0D0D" points="270.2,361.3 332.9,384.3 332.9,434 270.2,411.1 		"/>
		<polygon fill="#0D0D0D" points="558,361.3 495.3,384.3 495.3,434 558,411.1 		"/>
		<path fill="#333335" d="M558.1,411.1c0,0-97.2-10.6-144-10.6s-144,10.6-144,10.6v-49.9c0,0,88.6-10.6,144-10.6s144,10.6,144,10.6
			V411.1z"/>
	</g>
	<g id="trad_1_">
		<g>
			<path fill="#0D0D0D" d="M322.9,374.8c0,0.9-0.3,1.6-0.9,2.2c-2.5-1.3-4.6-1.9-6.2-1.9c-0.8,0-1.5,0.1-1.9,0.4
				c-0.1,3.6,0.4,6.2,1.7,7.9c-1.1,1.5-1.7,3.8-1.7,7c0,3.1,0.6,5.8,1.7,8.2c-0.8,0.7-1.6,1.1-2.6,1.1c-0.9,0-1.8-0.4-2.7-1.2
				c-0.9,0.8-1.8,1.2-2.7,1.2c-0.9,0-1.8-0.4-2.6-1.1c1.1-2.4,1.7-5.1,1.7-8.2c0-3.2-0.6-5.6-1.7-7c1.2-1.6,1.7-4.2,1.7-7.6
				c-0.4-0.4-1.1-0.6-2.1-0.6c-1.6,0-3.7,0.6-6.2,1.9c-0.6-0.6-0.9-1.3-0.9-2.2c0-0.9,0.3-1.9,0.9-3c-0.5-0.5-0.8-1.3-0.8-2.1
				c0-0.8,0.3-1.6,0.8-2.3c1.7,0.8,3.7,1.2,5.9,1.2c2,0,4-0.4,6-1.2c2,0.8,4,1.2,5.9,1.2c2.2,0,4.2-0.4,5.9-1.2
				c0.5,0.7,0.8,1.5,0.8,2.3c0,0.9-0.3,1.6-0.8,2.1C322.6,372.8,322.9,373.8,322.9,374.8z"/>
			<path fill="#0D0D0D" d="M348.2,399.7c-2.3,0-4.4-0.9-6.4-2.6c0.8-1.1,1.3-2.2,1.3-3.2c0-1.2-0.6-2.6-1.9-4.3
				c0.4-0.6,0.6-1.1,0.6-1.7c0-0.8-0.4-1.6-1.1-2.2c-0.7-0.6-1.5-0.9-2.3-0.9c-0.9,0-1.6,0.4-2.1,1.1c-0.6,0.8-1,2.1-1,3.8
				c0,4.2,0.8,7.1,2.4,8.7c-0.8,0.7-1.6,1-2.6,1c-1,0-2-0.4-2.9-1.2c-0.9,0.8-1.9,1.2-2.9,1.2c-1,0-1.8-0.3-2.6-1
				c1.1-2.3,1.6-5,1.6-8c0-3.1-0.5-5.4-1.6-6.9c1.1-1.5,1.6-3.8,1.6-6.9c0-3-0.5-5.7-1.6-8c0.8-0.7,1.6-1.1,2.6-1.1
				c1,0,2,0.4,2.9,1.2c1.8-0.9,3.9-1.3,6.2-1.3c2.6,0,4.8,0.5,6.7,1.6c1.9,1.2,2.9,2.6,3,4.3c0,1.7,0.6,2.8,1.6,3.3
				c-0.7,0.3-1.1,1-1.4,1.9c-0.1,0.4-0.2,0.8-0.2,1.3c-0.1,1.5-1.1,2.7-2.9,3.6c1.1,0.5,1.9,1.2,2.4,2c0.2,0.4,0.3,0.8,0.3,1.2
				c-0.1,1.3,0.5,2.1,1.5,2.5c0.1,0,0.1,0.6,0.3,1.7c0.2,1.5,0.4,2.7,0.8,3.8c0.6,1.6,1.4,3,2.4,4
				C351.2,399.3,349.6,399.7,348.2,399.7z M341.3,375.2c0-0.6-0.3-1.1-0.8-1.6c-0.5-0.4-1.2-0.6-1.9-0.6c-0.9,0-1.7,0.3-2.3,1
				c-0.7,0.8-1.1,1.9-1.1,3.3c0,1.4,0.4,2.5,1.1,3.3c0.6,0.6,1.3,1,2.3,1c0.7,0,1.4-0.2,1.9-0.6c0.5-0.4,0.8-1,0.8-1.6
				c0-0.7-0.3-1.3-1-2C340.9,376.6,341.3,375.9,341.3,375.2z"/>
			<path fill="#0D0D0D" d="M377.7,399.7c-0.9,0-1.4-0.3-1.7-0.8c0.7-1.5,1-2.9,1-4.3c0-1.8-0.5-3.2-1.5-4.3c-1-1.1-2.2-1.7-3.7-1.7
				c-1.5,0-2.7,0.6-3.7,1.7c-1,1.1-1.4,2.6-1.4,4.3c0,1.4,0.3,2.8,1,4.3c-0.2,0.5-0.8,0.8-1.7,0.8c-0.9,0-2-0.3-3.4-0.8
				c-0.6,0.5-1.3,0.8-2.2,0.8c-1.1,0-2.2-0.3-3.4-1c3.9-3.9,5.8-8.2,5.8-12.9c0-0.9-0.1-1.6-0.2-2.2c3.3-4,4.9-8,4.9-11.9
				c0-1.4-0.2-2.5-0.7-3.2c0.8-0.7,1.6-1.1,2.5-1.1c0.9,0,1.8,0.4,2.5,1.2c0.8-0.8,1.6-1.2,2.5-1.2c0.9,0,1.8,0.4,2.5,1.1
				c-0.5,0.7-0.7,1.8-0.7,3.2c0,4,1.6,7.9,4.9,11.9c-0.1,0.6-0.2,1.4-0.2,2.2c0,4.7,1.9,9,5.8,12.9c-1.2,0.7-2.3,1-3.4,1
				c-0.9,0-1.6-0.3-2.2-0.8C379.8,399.4,378.7,399.7,377.7,399.7z M371.9,378.5c-1.1,1.9-1.6,3.7-1.6,5.6c0.6-0.3,1.2-0.4,1.6-0.4
				c0.4,0,1,0.1,1.6,0.4C373.5,382.3,373,380.4,371.9,378.5z"/>
			<path fill="#0D0D0D" d="M413.8,383.4c-0.6,0.3-1.1,1-1.4,1.9c-0.1,0.4-0.2,0.9-0.2,1.4v6.8c-0.3,1.9-1.3,3.3-3.1,4.4
				c-1.8,1.1-3.9,1.6-6.3,1.6c-2.3,0-4.4-0.5-6.4-1.5c-0.9,0.8-1.9,1.2-2.9,1.2c-1,0-1.9-0.3-2.6-1c1.1-2.3,1.6-5,1.6-8
				c0-3.2-0.5-5.5-1.6-6.9c1.1-1.5,1.6-3.8,1.6-6.9c0-3-0.5-5.7-1.6-8c0.8-0.7,1.6-1.1,2.6-1.1c1,0,1.9,0.4,2.9,1.2
				c1.9-0.9,3.9-1.3,6.2-1.3c2.6,0,4.8,0.6,6.8,1.7c1.9,1.1,2.9,2.5,2.9,4.3v6.9C412.3,381.8,412.8,382.9,413.8,383.4z M405.7,376.4
				c0-1.2-0.3-2.1-1-2.7c-0.6-0.5-1.3-0.8-2.2-0.8c-0.8,0-1.6,0.2-2.2,0.7c-0.6,0.5-1,1.2-1,2v4.4c0.1,1.7,0.6,2.8,1.6,3.3
				c-0.7,0.3-1.1,1-1.4,1.9c-0.1,0.4-0.2,0.9-0.2,1.4v5.4c0,0.8,0.3,1.5,1,2c0.6,0.5,1.4,0.7,2.2,0.7c0.9,0,1.7-0.3,2.3-0.9
				c0.6-0.6,1-1.5,1-2.6v-4.7c-0.1-1.7-0.6-2.8-1.6-3.3c0.7-0.3,1.1-1,1.4-1.9c0.1-0.4,0.2-0.9,0.2-1.4V376.4z"/>
			<path fill="#0D0D0D" d="M423.6,398.5c-0.8,0.8-1.7,1.2-2.7,1.2c-0.9,0-1.8-0.4-2.5-1.1c1.1-2.4,1.7-5.1,1.7-8.1
				c0-3.2-0.6-5.5-1.7-7c1.1-1.5,1.7-3.8,1.7-7c0-3-0.6-5.8-1.7-8.1c0.8-0.7,1.6-1.1,2.5-1.1c0.9,0,1.8,0.4,2.7,1.2
				c0.9-0.8,1.8-1.2,2.7-1.2c0.9,0,1.8,0.4,2.5,1.1c-1.1,2.4-1.7,5.1-1.7,8.1c0,3.2,0.6,5.5,1.7,7c-1.1,1.5-1.7,3.8-1.7,7
				c0,3,0.6,5.8,1.7,8.1c-0.8,0.7-1.6,1.1-2.5,1.1C425.4,399.7,424.5,399.3,423.6,398.5z"/>
			<path fill="#0D0D0D" d="M459.3,374.8c0,0.9-0.3,1.6-0.8,2.2c-2.5-1.3-4.6-1.9-6.2-1.9c-0.8,0-1.5,0.1-1.9,0.4
				c-0.1,3.6,0.4,6.2,1.7,7.9c-1.1,1.5-1.7,3.8-1.7,7c0,3.1,0.6,5.8,1.7,8.2c-0.8,0.7-1.6,1.1-2.6,1.1c-0.9,0-1.8-0.4-2.7-1.2
				c-0.9,0.8-1.8,1.2-2.7,1.2c-0.9,0-1.8-0.4-2.6-1.1c1.1-2.4,1.7-5.1,1.7-8.2c0-3.2-0.6-5.6-1.7-7c1.2-1.6,1.7-4.2,1.7-7.6
				c-0.4-0.4-1.1-0.6-2.1-0.6c-1.6,0-3.7,0.6-6.2,1.9c-0.6-0.6-0.8-1.3-0.8-2.2c0-0.9,0.3-1.9,0.8-3c-0.5-0.5-0.8-1.3-0.8-2.1
				c0-0.8,0.3-1.6,0.8-2.3c1.7,0.8,3.7,1.2,5.9,1.2c2,0,4-0.4,6-1.2c2,0.8,4,1.2,5.9,1.2c2.2,0,4.2-0.4,5.9-1.2
				c0.5,0.7,0.8,1.5,0.8,2.3c0,0.9-0.3,1.6-0.8,2.1C459,372.8,459.3,373.8,459.3,374.8z"/>
			<path fill="#0D0D0D" d="M468.3,398.5c-0.8,0.8-1.7,1.2-2.7,1.2c-0.9,0-1.8-0.4-2.5-1.1c1.1-2.4,1.7-5.1,1.7-8.1
				c0-3.2-0.6-5.5-1.7-7c1.1-1.5,1.7-3.8,1.7-7c0-3-0.6-5.8-1.7-8.1c0.8-0.7,1.6-1.1,2.5-1.1c0.9,0,1.8,0.4,2.7,1.2
				c0.9-0.8,1.8-1.2,2.7-1.2c0.9,0,1.8,0.4,2.5,1.1c-1.1,2.4-1.7,5.1-1.7,8.1c0,3.2,0.6,5.5,1.7,7c-1.1,1.5-1.7,3.8-1.7,7
				c0,3,0.6,5.8,1.7,8.1c-0.8,0.7-1.6,1.1-2.5,1.1C470,399.7,469.1,399.3,468.3,398.5z"/>
			<path fill="#0D0D0D" d="M494.9,398.5c-1.4,0.6-3,1.1-4.9,1.2c-1.9-0.1-3.6-0.5-4.9-1.1c-3.3-1.5-4.9-4.3-4.9-8.2v-3.7
				c-0.1-1.7-0.6-2.8-1.7-3.3c0.7-0.3,1.2-1,1.5-1.9c0.1-0.4,0.2-0.9,0.2-1.3v-3.5c0-3.8,1.6-6.5,4.9-8.1c1.4-0.6,3-1.1,4.9-1.2
				c1.9,0.2,3.6,0.6,4.9,1.2c3.3,1.6,4.9,4.3,4.9,8.1v3.5c0.1,1.7,0.6,2.8,1.7,3.3c-0.7,0.3-1.2,1-1.5,1.9c-0.1,0.4-0.2,0.9-0.2,1.3
				v3.7C499.8,394.2,498.1,396.9,494.9,398.5z M493.4,386.7c-0.1-1.7-0.6-2.8-1.7-3.3c0.7-0.3,1.2-1,1.5-1.9
				c0.1-0.4,0.2-0.9,0.2-1.3v-3.3c0-1.2-0.3-2.1-1-2.8c-0.6-0.7-1.4-1-2.3-1c-0.9,0-1.6,0.3-2.3,1c-0.6,0.7-1,1.6-1,2.8v3.3
				c0.1,1.7,0.6,2.8,1.7,3.3c-0.7,0.3-1.2,1-1.5,1.9c-0.1,0.4-0.2,0.9-0.2,1.3v3.3c0,1.2,0.3,2.2,1,2.8c0.6,0.7,1.4,1,2.3,1
				c0.9,0,1.7-0.3,2.3-1c0.6-0.7,1-1.6,1-2.8V386.7z"/>
			<path fill="#0D0D0D" d="M521.2,380.2c0.6-1.2,0.9-2.9,0.9-5.1c0-3.4-0.6-5.7-1.8-6.8c0.7-0.7,1.5-1.1,2.4-1.1
				c0.9,0,1.7,0.4,2.5,1.2c0.8-0.8,1.6-1.2,2.5-1.2c0.9,0,1.7,0.4,2.4,1.1l-0.6,1.6c-0.8,1.9-1.1,4-1.1,6.4c0,3.2,0.6,5.6,1.7,7.2
				c-1.1,1.5-1.7,3.8-1.7,7c0,3,0.6,5.8,1.7,8.1c-0.7,0.7-1.4,1.1-2.3,1.1c-0.9,0-1.7-0.4-2.4-1.2c-0.8,0.8-1.6,1.2-2.4,1.2
				c-0.8,0-1.6-0.4-2.3-1.1c1.1-1.2,1.6-2.7,1.6-4.4c0-1.9-0.6-3.6-1.9-5.2l-4.9-6.3c-0.9,1.9-1.4,4.3-1.4,7.1c0,3,0.6,5.9,1.8,8.8
				c-0.7,0.7-1.5,1.1-2.4,1.1c-0.9,0-1.7-0.4-2.5-1.2c-0.8,0.8-1.7,1.2-2.5,1.2c-0.9,0-1.7-0.4-2.4-1.1c1.1-2.4,1.7-5.1,1.7-8.1
				c0-3.2-0.6-5.5-1.7-7c1.2-1.6,1.7-4,1.7-7.2c0-2.3-0.4-4.4-1.1-6.4l-0.6-1.6c0.7-0.7,1.5-1.1,2.4-1.1c0.9,0,1.7,0.4,2.5,1.2
				c0.8-0.8,1.6-1.2,2.5-1.2c0.9,0,1.7,0.4,2.4,1.1c-0.4,0.9-0.6,1.8-0.6,2.6c0,1.1,0.3,2.1,1,3L521.2,380.2z"/>
		</g>
		<g>
			<path fill="#FCFCFC" d="M323.9,370c0,0.9-0.3,1.6-0.9,2.2c-2.5-1.3-4.6-1.9-6.2-1.9c-0.8,0-1.5,0.1-1.9,0.4
				c-0.1,3.6,0.4,6.2,1.7,7.9c-1.1,1.5-1.7,3.8-1.7,7c0,3.1,0.6,5.8,1.7,8.2c-0.8,0.7-1.6,1.1-2.6,1.1c-0.9,0-1.8-0.4-2.7-1.2
				c-0.9,0.8-1.8,1.2-2.7,1.2c-0.9,0-1.8-0.4-2.6-1.1c1.1-2.4,1.7-5.1,1.7-8.2c0-3.2-0.6-5.6-1.7-7c1.2-1.6,1.7-4.2,1.7-7.6
				c-0.4-0.4-1.1-0.6-2.1-0.6c-1.6,0-3.7,0.6-6.2,1.9c-0.6-0.6-0.9-1.3-0.9-2.2c0-0.9,0.3-1.9,0.9-3c-0.5-0.5-0.8-1.3-0.8-2.1
				c0-0.8,0.3-1.6,0.8-2.3c1.7,0.8,3.7,1.2,5.9,1.2c2,0,4-0.4,6-1.2c2,0.8,4,1.2,5.9,1.2c2.2,0,4.2-0.4,5.9-1.2
				c0.5,0.7,0.8,1.5,0.8,2.3c0,0.9-0.3,1.6-0.8,2.1C323.6,368.1,323.9,369.1,323.9,370z"/>
			<path fill="#FCFCFC" d="M349.1,394.9c-2.3,0-4.4-0.9-6.4-2.6c0.8-1.1,1.3-2.2,1.3-3.2c0-1.2-0.6-2.6-1.9-4.3
				c0.4-0.6,0.6-1.1,0.6-1.7c0-0.8-0.4-1.6-1.1-2.2c-0.7-0.6-1.5-0.9-2.3-0.9c-0.9,0-1.6,0.4-2.1,1.1c-0.6,0.8-1,2.1-1,3.8
				c0,4.2,0.8,7.1,2.4,8.7c-0.8,0.7-1.6,1-2.6,1c-1,0-2-0.4-2.9-1.2c-0.9,0.8-1.9,1.2-2.9,1.2c-1,0-1.8-0.3-2.6-1
				c1.1-2.3,1.6-5,1.6-8c0-3.1-0.5-5.4-1.6-6.9c1.1-1.5,1.6-3.8,1.6-6.9c0-3-0.5-5.7-1.6-8c0.8-0.7,1.6-1.1,2.6-1.1
				c1,0,2,0.4,2.9,1.2c1.8-0.9,3.9-1.3,6.2-1.3c2.6,0,4.8,0.5,6.7,1.6c1.9,1.2,2.9,2.6,3,4.3c0,1.7,0.6,2.8,1.6,3.3
				c-0.7,0.3-1.1,1-1.4,1.9c-0.1,0.4-0.2,0.8-0.2,1.3c-0.1,1.5-1.1,2.7-2.9,3.6c1.1,0.5,1.9,1.2,2.4,2c0.2,0.4,0.3,0.8,0.3,1.2
				c-0.1,1.3,0.5,2.1,1.5,2.5c0.1,0,0.1,0.6,0.3,1.7c0.2,1.5,0.4,2.7,0.8,3.8c0.6,1.6,1.4,3,2.4,4
				C352.1,394.5,350.6,394.9,349.1,394.9z M342.2,370.4c0-0.6-0.3-1.1-0.8-1.6c-0.5-0.4-1.2-0.6-1.9-0.6c-0.9,0-1.7,0.3-2.3,1
				c-0.7,0.8-1.1,1.9-1.1,3.3c0,1.4,0.4,2.5,1.1,3.3c0.6,0.6,1.3,1,2.3,1c0.7,0,1.4-0.2,1.9-0.6c0.5-0.4,0.8-1,0.8-1.6
				c0-0.7-0.3-1.3-1-2C341.9,371.8,342.2,371.1,342.2,370.4z"/>
			<path fill="#FCFCFC" d="M378.7,394.9c-0.9,0-1.4-0.3-1.7-0.8c0.7-1.5,1-2.9,1-4.3c0-1.8-0.5-3.2-1.5-4.3c-1-1.1-2.2-1.7-3.7-1.7
				c-1.5,0-2.7,0.6-3.7,1.7c-1,1.1-1.4,2.6-1.4,4.3c0,1.4,0.3,2.8,1,4.3c-0.2,0.5-0.8,0.8-1.7,0.8c-0.9,0-2-0.3-3.4-0.8
				c-0.6,0.5-1.3,0.8-2.2,0.8c-1.1,0-2.2-0.3-3.4-1c3.9-3.9,5.8-8.2,5.8-12.9c0-0.9-0.1-1.6-0.2-2.2c3.3-4,4.9-8,4.9-11.9
				c0-1.4-0.2-2.5-0.7-3.2c0.8-0.7,1.6-1.1,2.5-1.1c0.9,0,1.8,0.4,2.5,1.2c0.8-0.8,1.6-1.2,2.5-1.2c0.9,0,1.8,0.4,2.5,1.1
				c-0.5,0.7-0.7,1.8-0.7,3.2c0,4,1.6,7.9,4.9,11.9c-0.1,0.6-0.2,1.4-0.2,2.2c0,4.7,1.9,9,5.8,12.9c-1.2,0.7-2.3,1-3.4,1
				c-0.9,0-1.6-0.3-2.2-0.8C380.7,394.6,379.6,394.9,378.7,394.9z M372.8,373.8c-1.1,1.9-1.6,3.7-1.6,5.6c0.6-0.3,1.2-0.4,1.6-0.4
				c0.4,0,1,0.1,1.6,0.4C374.5,377.5,373.9,375.6,372.8,373.8z"/>
			<path fill="#FCFCFC" d="M414.7,378.7c-0.6,0.3-1.1,1-1.4,1.9c-0.1,0.4-0.2,0.9-0.2,1.4v6.8c-0.3,1.9-1.3,3.3-3.1,4.4
				c-1.8,1.1-3.9,1.6-6.3,1.6c-2.3,0-4.4-0.5-6.4-1.5c-0.9,0.8-1.9,1.2-2.9,1.2c-1,0-1.9-0.3-2.6-1c1.1-2.3,1.6-5,1.6-8
				c0-3.2-0.5-5.5-1.6-6.9c1.1-1.5,1.6-3.8,1.6-6.9c0-3-0.5-5.7-1.6-8c0.8-0.7,1.6-1.1,2.6-1.1c1,0,1.9,0.4,2.9,1.2
				c1.9-0.9,3.9-1.3,6.2-1.3c2.6,0,4.8,0.6,6.8,1.7c1.9,1.1,2.9,2.5,2.9,4.3v6.9C413.2,377,413.8,378.2,414.7,378.7z M406.7,371.6
				c0-1.2-0.3-2.1-1-2.7c-0.6-0.5-1.3-0.8-2.2-0.8c-0.8,0-1.6,0.2-2.2,0.7c-0.6,0.5-1,1.2-1,2v4.4c0.1,1.7,0.6,2.8,1.6,3.3
				c-0.7,0.3-1.1,1-1.4,1.9c-0.1,0.4-0.2,0.9-0.2,1.4v5.4c0,0.8,0.3,1.5,1,2c0.6,0.5,1.4,0.7,2.2,0.7c0.9,0,1.7-0.3,2.3-0.9
				c0.6-0.6,1-1.5,1-2.6v-4.7c-0.1-1.7-0.6-2.8-1.6-3.3c0.7-0.3,1.1-1,1.4-1.9c0.1-0.4,0.2-0.9,0.2-1.4V371.6z"/>
			<path fill="#FCFCFC" d="M424.6,393.7c-0.8,0.8-1.7,1.2-2.7,1.2c-0.9,0-1.8-0.4-2.5-1.1c1.1-2.4,1.7-5.1,1.7-8.1
				c0-3.2-0.6-5.5-1.7-7c1.1-1.5,1.7-3.8,1.7-7c0-3-0.6-5.8-1.7-8.1c0.8-0.7,1.6-1.1,2.5-1.1c0.9,0,1.8,0.4,2.7,1.2
				c0.9-0.8,1.8-1.2,2.7-1.2c0.9,0,1.8,0.4,2.5,1.1c-1.1,2.4-1.7,5.1-1.7,8.1c0,3.2,0.6,5.5,1.7,7c-1.1,1.5-1.7,3.8-1.7,7
				c0,3,0.6,5.8,1.7,8.1c-0.8,0.7-1.6,1.1-2.5,1.1C426.4,394.9,425.5,394.5,424.6,393.7z"/>
			<path fill="#FCFCFC" d="M460.3,370c0,0.9-0.3,1.6-0.8,2.2c-2.5-1.3-4.6-1.9-6.2-1.9c-0.8,0-1.5,0.1-1.9,0.4
				c-0.1,3.6,0.4,6.2,1.7,7.9c-1.1,1.5-1.7,3.8-1.7,7c0,3.1,0.6,5.8,1.7,8.2c-0.8,0.7-1.6,1.1-2.6,1.1c-0.9,0-1.8-0.4-2.7-1.2
				c-0.9,0.8-1.8,1.2-2.7,1.2c-0.9,0-1.8-0.4-2.6-1.1c1.1-2.4,1.7-5.1,1.7-8.2c0-3.2-0.6-5.6-1.7-7c1.2-1.6,1.7-4.2,1.7-7.6
				c-0.4-0.4-1.1-0.6-2.1-0.6c-1.6,0-3.7,0.6-6.2,1.9c-0.6-0.6-0.8-1.3-0.8-2.2c0-0.9,0.3-1.9,0.8-3c-0.5-0.5-0.8-1.3-0.8-2.1
				c0-0.8,0.3-1.6,0.8-2.3c1.7,0.8,3.7,1.2,5.9,1.2c2,0,4-0.4,6-1.2c2,0.8,4,1.2,5.9,1.2c2.2,0,4.2-0.4,5.9-1.2
				c0.5,0.7,0.8,1.5,0.8,2.3c0,0.9-0.3,1.6-0.8,2.1C460,368.1,460.3,369.1,460.3,370z"/>
			<path fill="#FCFCFC" d="M469.2,393.7c-0.8,0.8-1.7,1.2-2.7,1.2c-0.9,0-1.8-0.4-2.5-1.1c1.1-2.4,1.7-5.1,1.7-8.1
				c0-3.2-0.6-5.5-1.7-7c1.1-1.5,1.7-3.8,1.7-7c0-3-0.6-5.8-1.7-8.1c0.8-0.7,1.6-1.1,2.5-1.1c0.9,0,1.8,0.4,2.7,1.2
				c0.9-0.8,1.8-1.2,2.7-1.2c0.9,0,1.8,0.4,2.5,1.1c-1.1,2.4-1.7,5.1-1.7,8.1c0,3.2,0.6,5.5,1.7,7c-1.1,1.5-1.7,3.8-1.7,7
				c0,3,0.6,5.8,1.7,8.1c-0.8,0.7-1.6,1.1-2.5,1.1C471,394.9,470.1,394.5,469.2,393.7z"/>
			<path fill="#FCFCFC" d="M495.8,393.7c-1.4,0.6-3,1.1-4.9,1.2c-1.9-0.1-3.6-0.5-4.9-1.1c-3.3-1.5-4.9-4.3-4.9-8.2v-3.7
				c-0.1-1.7-0.6-2.8-1.7-3.3c0.7-0.3,1.2-1,1.5-1.9c0.1-0.4,0.2-0.9,0.2-1.3v-3.5c0-3.8,1.6-6.5,4.9-8.1c1.4-0.6,3-1.1,4.9-1.2
				c1.9,0.2,3.6,0.6,4.9,1.2c3.3,1.6,4.9,4.3,4.9,8.1v3.5c0.1,1.7,0.6,2.8,1.7,3.3c-0.7,0.3-1.2,1-1.5,1.9c-0.1,0.4-0.2,0.9-0.2,1.3
				v3.7C500.7,389.4,499.1,392.1,495.8,393.7z M494.3,381.9c-0.1-1.7-0.6-2.8-1.7-3.3c0.7-0.3,1.2-1,1.5-1.9
				c0.1-0.4,0.2-0.9,0.2-1.3V372c0-1.2-0.3-2.1-1-2.8c-0.6-0.7-1.4-1-2.3-1c-0.9,0-1.6,0.3-2.3,1c-0.6,0.7-1,1.6-1,2.8v3.3
				c0.1,1.7,0.6,2.8,1.7,3.3c-0.7,0.3-1.2,1-1.5,1.9c-0.1,0.4-0.2,0.9-0.2,1.3v3.3c0,1.2,0.3,2.2,1,2.8c0.6,0.7,1.4,1,2.3,1
				c0.9,0,1.7-0.3,2.3-1c0.6-0.7,1-1.6,1-2.8V381.9z"/>
			<path fill="#FCFCFC" d="M522.2,375.5c0.6-1.2,0.9-2.9,0.9-5.1c0-3.4-0.6-5.7-1.8-6.8c0.7-0.7,1.5-1.1,2.4-1.1
				c0.9,0,1.7,0.4,2.5,1.2c0.8-0.8,1.6-1.2,2.5-1.2c0.9,0,1.7,0.4,2.4,1.1l-0.6,1.6c-0.8,1.9-1.1,4-1.1,6.4c0,3.2,0.6,5.6,1.7,7.2
				c-1.1,1.5-1.7,3.8-1.7,7c0,3,0.6,5.8,1.7,8.1c-0.7,0.7-1.4,1.1-2.3,1.1c-0.9,0-1.7-0.4-2.4-1.2c-0.8,0.8-1.6,1.2-2.4,1.2
				c-0.8,0-1.6-0.4-2.3-1.1c1.1-1.2,1.6-2.7,1.6-4.4c0-1.9-0.6-3.6-1.9-5.2l-4.9-6.3c-0.9,1.9-1.4,4.3-1.4,7.1c0,3,0.6,5.9,1.8,8.8
				c-0.7,0.7-1.5,1.1-2.4,1.1c-0.9,0-1.7-0.4-2.5-1.2c-0.8,0.8-1.7,1.2-2.5,1.2c-0.9,0-1.7-0.4-2.4-1.1c1.1-2.4,1.7-5.1,1.7-8.1
				c0-3.2-0.6-5.5-1.7-7c1.2-1.6,1.7-4,1.7-7.2c0-2.3-0.4-4.4-1.1-6.4l-0.6-1.6c0.7-0.7,1.5-1.1,2.4-1.1c0.9,0,1.7,0.4,2.5,1.2
				c0.8-0.8,1.6-1.2,2.5-1.2c0.9,0,1.7,0.4,2.4,1.1c-0.4,0.9-0.6,1.8-0.6,2.6c0,1.1,0.3,2.1,1,3L522.2,375.5z"/>
		</g>
	</g>
	<g id="its_decor">
		<path fill="#333335" d="M450.2,338.4c0.6-0.7,1.1-1.5,1.4-2.4c-0.1,0.1-0.3,0.1-0.5,0.1c-1.4,0.1-2.6-1.5-2.7-3.6
			c-0.1-2.1,0.9-3.8,2.2-3.9s2.6,1.5,2.7,3.6c0,0.2,0,0.4,0,0.6c0,1.6-0.3,3.3-1.1,4.8c-0.8,1.5-2,2.8-3.5,3.7
			c4.9-0.4,9.9,0,14.7,0.6c4.9,0.6,9.8,1.4,14.7,2.2c4.9,0.8,9.8,1.7,14.7,2.5c2.3,0.4,4.5,0.8,6.8,1.1c2,0.3,4.1,0.4,6.1,0.3
			c1.2-0.1,2.5-0.2,3.7-0.5c0.6-0.1,1.1-0.3,1.6-0.6c0.2-0.1,0.4-0.3,0.5-0.5c0-0.1,0.1-0.3-0.1-0.4c0,0-0.2,0.1-0.3,0.1
			c-0.1,0-0.2,0-0.3,0c-0.3-0.1-0.5-0.2-0.7-0.4c-0.3-0.3-0.4-0.8-0.1-1.1c0.7-0.7,1.7,0.5,1.9,1c0.5,1.1-0.9,1.7-1.8,2
			c-1.2,0.4-2.5,0.5-3.7,0.6c-1.2,0.1-2.4,0.1-3.5,0c1.5,0.2,3.1,0.4,4.6,0.6c2.4,0.3,4.9,0.5,7.3,0.7c2.5,0.1,4.9,0.2,7.4-0.1
			c1.1-0.1,2.3-0.4,3.4-0.8c1-0.4,1.8-1,2.4-1.9c0.6-0.9,0.9-1.9,0.8-3c-0.1-1-0.6-2-1.2-2.9c-1.3-1.8-3-3.2-4.9-4.3
			c-1.9-1.3-4-2.3-6.2-3.2c-2.2-0.9-4.5-1.6-6.8-2.2c-2.3-0.5-4.7-1-7-1c-1.1,0-2.3,0-3.4,0.4c-0.4,0.1-0.8,0.4-1,0.7
			c-0.2,0.5-0.1,1,0,1.5c0.1,0.3,0.2,0.5,0.3,0.7c0.1,0.2,0.2,0.5,0.4,0.7c0.3,0.3,0.8,0.5,1.2,0.6c0.8,0.3,1.7,0.3,2.5,0.3
			c0.8,0,1.6,0.1,2.3,0.6c0.8,0.5,1.5,1.3,1.7,2.2c0.2,0.7,0.1,1.5-0.4,2.1c-0.5,0.6-1.3,1.1-2.2,1.2c-0.8,0.1-1.6-0.3-2.3-0.8
			c-0.5-0.3-0.9-0.7-1.4-1c-0.5-0.3-0.9-0.7-1.3-1.1c-1.6-1.5-3-3.3-3.5-5.4c-0.2-1-0.1-2.1,0.5-3c0.6-0.9,1.6-1.4,2.7-1.7
			c2.2-0.5,4.5-0.2,6.7,0.2c4.6,1,9.1,2.8,13.3,5c2,1.1,4,2.3,5.8,3.7c1.7,1.3,3.3,2.8,4.2,4.7c0.5,1,0.7,2.1,0.5,3.2
			c-0.2,1-0.7,2-1.4,2.8c-1.5,1.6-3.9,2.1-6,2.4c-2.4,0.3-4.9,0.3-7.3,0.2c-2.4-0.1-4.9-0.3-7.3-0.6c-4.9-0.5-9.8-1.2-14.7-1.9
			c-4.9-0.7-9.8-1.5-14.7-2.3c-4.9-0.8-9.8-1.5-14.7-2.1c-4.9-0.6-9.8-1.1-14.8-1c-0.6,0-1.2,0-1.8,0.1c-0.3,0-0.6,0.1-0.9,0.1
			c-0.1,0-0.5,0.1-0.6,0.1c0,0-0.1-0.2-0.1-0.3c0-0.1-0.1-0.3-0.1-0.4c0-0.2-0.1-0.3-0.1-0.5C447.1,341.2,449,340,450.2,338.4z"/>
		<path fill="#333335" d="M378.3,338.4c-0.6-0.7-1.1-1.5-1.4-2.4c0.1,0.1,0.3,0.1,0.5,0.1c1.4,0.1,2.6-1.5,2.7-3.6
			c0.1-2.1-0.9-3.8-2.2-3.9s-2.6,1.5-2.7,3.6c0,0.2,0,0.4,0,0.6c0,1.6,0.3,3.3,1.1,4.8c0.8,1.5,2,2.8,3.5,3.7
			c-4.9-0.4-9.9,0-14.7,0.6c-4.9,0.6-9.8,1.4-14.7,2.2c-4.9,0.8-9.8,1.7-14.7,2.5c-2.3,0.4-4.5,0.8-6.8,1.1c-2,0.3-4.1,0.4-6.1,0.3
			c-1.2-0.1-2.5-0.2-3.7-0.5c-0.6-0.1-1.1-0.3-1.6-0.6c-0.2-0.1-0.4-0.3-0.5-0.5c0-0.1-0.1-0.3,0.1-0.4c0,0,0.2,0.1,0.3,0.1
			c0.1,0,0.2,0,0.3,0c0.3-0.1,0.5-0.2,0.7-0.4c0.3-0.3,0.4-0.8,0.1-1.1c-0.7-0.7-1.7,0.5-1.9,1c-0.5,1.1,0.9,1.7,1.8,2
			c1.2,0.4,2.5,0.5,3.7,0.6c1.2,0.1,2.4,0.1,3.5,0c-1.5,0.2-3.1,0.4-4.6,0.6c-2.4,0.3-4.9,0.5-7.3,0.7c-2.5,0.1-4.9,0.2-7.4-0.1
			c-1.1-0.1-2.3-0.4-3.4-0.8c-1-0.4-1.8-1-2.4-1.9c-0.6-0.9-0.9-1.9-0.8-3c0.1-1,0.6-2,1.2-2.9c1.3-1.8,3-3.2,4.9-4.3
			c1.9-1.3,4-2.3,6.2-3.2c2.2-0.9,4.5-1.6,6.8-2.2c2.3-0.5,4.7-1,7-1c1.1,0,2.3,0,3.4,0.4c0.4,0.1,0.8,0.4,1,0.7
			c0.2,0.5,0.1,1,0,1.5c-0.1,0.3-0.2,0.5-0.3,0.7c-0.1,0.2-0.2,0.5-0.4,0.7c-0.3,0.3-0.8,0.5-1.2,0.6c-0.8,0.3-1.7,0.3-2.5,0.3
			c-0.8,0-1.6,0.1-2.3,0.6c-0.8,0.5-1.5,1.3-1.7,2.2c-0.2,0.7-0.1,1.5,0.4,2.1c0.5,0.6,1.3,1.1,2.2,1.2c0.8,0.1,1.6-0.3,2.3-0.8
			c0.5-0.3,0.9-0.7,1.4-1c0.5-0.3,0.9-0.7,1.3-1.1c1.6-1.5,3-3.3,3.5-5.4c0.2-1,0.1-2.1-0.5-3c-0.6-0.9-1.6-1.4-2.7-1.7
			c-2.2-0.5-4.5-0.2-6.7,0.2c-4.6,1-9.1,2.8-13.3,5c-2,1.1-4,2.3-5.8,3.7c-1.7,1.3-3.3,2.8-4.2,4.7c-0.5,1-0.7,2.1-0.5,3.2
			c0.2,1,0.7,2,1.4,2.8c1.5,1.6,3.9,2.1,6,2.4c2.4,0.3,4.9,0.3,7.3,0.2c2.4-0.1,4.9-0.3,7.3-0.6c4.9-0.5,9.8-1.2,14.7-1.9
			c4.9-0.7,9.8-1.5,14.7-2.3c4.9-0.8,9.8-1.5,14.7-2.1c4.9-0.6,9.8-1.1,14.8-1c0.6,0,1.2,0,1.8,0.1c0.3,0,0.6,0.1,0.9,0.1
			c0.1,0,0.5,0.1,0.6,0.1c0,0,0.1-0.2,0.1-0.3c0-0.1,0.1-0.3,0.1-0.4c0-0.2,0.1-0.3,0.1-0.5C381.4,341.2,379.5,340,378.3,338.4z"/>
	</g>
	<g id="its">
		<path d="M403.4,341.2c-0.1,0.2-0.2,0.5-0.4,0.8c-0.2,0.3-0.3,0.7-0.4,1.1c-0.1,0.4-0.2,0.7-0.2,1.1c0,0.3,0,0.6,0.1,0.8
			c0.1,0.2,0.3,0.4,0.5,0.5c0.2,0.1,0.5,0.1,0.8,0c0.3-0.1,0.7-0.3,1.2-0.8c0.5-0.4,1-0.9,1.5-1.4c0.5-0.5,1-1,1.4-1.5
			c0.4-0.5,0.7-0.8,0.8-1v1.8c-0.1,0.2-0.3,0.5-0.6,0.8c-0.3,0.4-0.7,0.8-1.1,1.2c-0.4,0.4-0.8,0.8-1.2,1.2c-0.4,0.4-0.7,0.7-1,0.9
			c-0.7,0.6-1.4,1.1-2,1.3s-1.3,0.4-2,0.3c-0.4-0.1-0.8-0.2-1.1-0.5c-0.3-0.3-0.5-0.5-0.7-0.9c-0.2-0.5-0.3-1-0.3-1.5
			c0-0.5,0-1.1,0.1-1.7c0.1-0.6,0.3-1.2,0.5-1.8c0.2-0.6,0.4-1.2,0.7-1.7c0.5-1,0.9-2,1.3-2.9c0.3-0.7,0.6-1.4,0.9-2
			c0.3-0.6,0.4-0.9,0.4-0.9c0.1-0.2,0.2-0.4,0.3-0.5c0.1-0.1,0.1-0.2,0.2-0.2c0.1-0.1,0.2-0.1,0.3-0.1c0.1,0,0.3,0,0.5,0h2.4
			c0.3,0,0.5,0.1,0.5,0.2c0,0.2-0.1,0.3-0.2,0.6L403.4,341.2z M406.6,327.4c0.4-0.1,0.7-0.1,1.1,0.1c0.3,0.1,0.6,0.4,0.7,0.7
			c0.1,0.4,0.2,0.8,0.1,1.3c-0.1,0.5-0.2,1-0.5,1.4c-0.2,0.5-0.5,0.8-0.9,1.2c-0.4,0.3-0.8,0.5-1.2,0.5c-0.7,0.1-1.2-0.1-1.5-0.6
			c-0.2-0.2-0.2-0.5-0.2-0.9c0-0.4,0.1-0.9,0.3-1.3c0.2-0.5,0.5-1,0.9-1.5C405.7,327.8,406.2,327.5,406.6,327.4z"/>
		<path d="M415.7,333.9c0.2,0,0.4,0.1,0.6,0.1c0.3,0,0.4,0.1,0.6,0.1c0.4,0.1,0.7,0.2,0.8,0.4c0.1,0.2,0.2,0.4,0.2,0.6
			c0,0.2,0,0.4-0.1,0.7c-0.1,0.3-0.2,0.4-0.4,0.5c-0.4,0.1-1,0.2-1.6,0.2c-0.6,0-1.2,0-1.7,0l-1,1.9c-0.3,0.6-0.6,1.2-0.9,1.8
			c-0.3,0.6-0.5,1.3-0.8,1.8c-0.2,0.6-0.4,1.1-0.5,1.6c-0.1,0.5-0.1,0.8,0,1c0.2,0.3,0.4,0.6,0.7,0.6c0.3,0.1,0.7,0,1.1-0.1
			c0.3-0.1,0.7-0.3,1.1-0.7c0.4-0.4,0.9-0.8,1.3-1.3c0.4-0.5,0.9-0.9,1.2-1.4c0.4-0.5,0.7-0.8,0.9-1.1v1.8c-0.3,0.4-0.7,0.9-1.2,1.5
			c-0.5,0.6-1.1,1.2-1.8,1.8c-0.9,0.8-1.8,1.4-2.7,1.8c-0.9,0.4-1.7,0.6-2.5,0.5c-0.4-0.1-0.7-0.2-1.1-0.4c-0.4-0.2-0.7-0.6-0.9-1.1
			c-0.2-0.4-0.3-0.9-0.3-1.5c0-0.6,0.2-1.2,0.3-1.8s0.4-1.3,0.7-1.9c0.3-0.6,0.5-1.2,0.7-1.6l1.3-3.3c-0.3,0-0.5,0-0.8-0.1
			c-0.3,0-0.5-0.2-0.7-0.5c-0.1-0.1-0.1-0.3-0.1-0.5c0-0.2,0.1-0.4,0.2-0.7c0.1-0.2,0.2-0.4,0.4-0.6c0.2-0.2,0.3-0.3,0.5-0.3
			c0.5-0.1,0.8-0.1,1.2-0.1c0.3,0,0.7-0.1,1-0.1c0.1-0.1,0.2-0.2,0.3-0.5c0.1-0.2,0.3-0.5,0.5-0.8c0.2-0.3,0.4-0.7,0.7-1
			c0.2-0.4,0.5-0.7,0.6-1c0.2-0.3,0.4-0.5,0.5-0.8c0.1-0.2,0.3-0.4,0.4-0.7c0.1-0.2,0.3-0.5,0.5-0.7c0.2-0.2,0.4-0.5,0.6-0.9
			c0.3-0.5,0.5-0.8,0.7-1c0.2-0.2,0.4-0.3,0.6-0.4c0.2-0.1,0.4-0.1,0.7-0.1c0.3,0,0.6,0,1,0c0.4,0,0.7,0,0.9,0
			c0.2,0,0.4,0.2,0.5,0.6c0.1,0.2-0.1,0.6-0.5,1.2c-0.4,0.6-0.9,1.4-1.6,2.5c-0.3,0.5-0.6,1-0.9,1.4c-0.2,0.4-0.5,0.8-0.8,1.2
			C416.1,333.2,415.9,333.6,415.7,333.9z"/>
		<path d="M426.5,331.6c0.1,0.2,0.1,0.4,0,0.7c-0.1,0.3-0.2,0.6-0.4,0.8c-0.1,0.1-0.2,0.2-0.3,0.3c-0.1,0.1-0.2,0.2-0.4,0.4
			c-0.1,0.1-0.2,0.3-0.3,0.4c0,0.1-0.1,0.3-0.1,0.4c-0.1,0.4-0.2,0.9-0.1,1.3c0.1,0.5,0.2,1,0.3,1.6c0.1,0.5,0.2,1,0.2,1.4
			c0.1,0.4,0.1,0.9,0.1,1.5c0,1.8-0.1,3.3-0.4,4.7c0.2-0.1,0.6-0.4,1-0.7c0.4-0.4,0.8-0.8,1.2-1.2c0.4-0.4,0.8-0.9,1.2-1.3
			c0.4-0.4,0.7-0.8,0.9-1.1v1.8c-1.8,2.3-3.5,3.9-4.9,4.9c-1.4,0.9-2.9,1.2-4.3,0.8c-0.6-0.2-1.1-0.4-1.7-0.8
			c-0.5-0.4-0.9-0.8-1.2-1.5c-0.2-0.3-0.3-0.8-0.4-1.3c-0.1-0.5-0.1-1.1-0.1-1.7c0-0.6,0-1.2,0.1-1.7c0.1-0.6,0.1-1.1,0.2-1.5
			c0.2-0.1,0.3-0.1,0.5-0.3c0.2-0.1,0.3-0.2,0.4-0.3c0.5-0.5,0.9-1.1,1.4-1.6c0.4-0.5,0.8-0.9,1.2-1.4c0.4-0.5,0.8-0.9,1.2-1.3
			c0.2-0.2,0.4-0.5,0.6-0.7c0.2-0.3,0.4-0.6,0.6-0.8c0.2-0.3,0.5-0.6,0.7-0.9c0.2-0.3,0.4-0.5,0.6-0.7c0.2-0.2,0.4-0.4,0.6-0.4
			c0.2-0.1,0.5-0.1,0.7-0.1C426.2,331.2,426.4,331.3,426.5,331.6z M419.3,339.8c0.2,0.7,0.2,1.4,0,2c-0.2,0.7-0.6,1.1-1.1,1.3
			c0.1,0.3,0.2,0.6,0.3,1c0.1,0.4,0.5,0.7,1,0.9c0.4,0.2,0.8,0.2,1.2,0.1c0.4-0.1,0.8-0.3,1.1-0.6c0.5-0.5,0.9-1.1,1.1-1.9
			c0.2-0.8,0.3-1.5,0.3-2.3c0-0.8-0.1-1.6-0.2-2.4c-0.1-0.7-0.2-1.3-0.4-1.8c-0.7,0.6-1.4,1.2-1.9,1.8
			C420.3,338.6,419.8,339.2,419.3,339.8z"/>
	</g>
	<g id="its_not">
		<g id="_its_not_1_">
			<path fill="#FFFFFF" d="M222,310.7c-0.7,0.7-1.5,1-2.3,1c-0.8,0-1.5-0.3-2.2-0.9c0.9-2,1.4-4.3,1.4-6.9c0-2.7-0.5-4.7-1.4-6
				c0.9-1.3,1.4-3.2,1.4-6c0-2.6-0.5-4.9-1.4-6.9c0.7-0.6,1.4-0.9,2.2-0.9c0.8,0,1.6,0.3,2.3,1c0.7-0.7,1.5-1,2.3-1
				c0.8,0,1.5,0.3,2.2,0.9c-0.9,2-1.4,4.3-1.4,6.9c0,2.7,0.5,4.7,1.4,6c-0.9,1.3-1.4,3.2-1.4,6c0,2.6,0.5,4.9,1.4,6.9
				c-0.7,0.6-1.4,0.9-2.2,0.9C223.5,311.7,222.8,311.3,222,310.7z"/>
			<path fill="#FFFFFF" d="M248.1,290.5c0,0.8-0.2,1.4-0.7,1.9c-2.1-1.1-3.9-1.7-5.3-1.7c-0.7,0-1.2,0.1-1.7,0.4
				c-0.1,3,0.4,5.3,1.4,6.7c-0.9,1.3-1.4,3.3-1.4,6c0,2.6,0.5,4.9,1.4,7c-0.7,0.6-1.4,0.9-2.2,0.9c-0.8,0-1.5-0.3-2.3-1
				c-0.7,0.7-1.5,1-2.3,1c-0.8,0-1.5-0.3-2.2-0.9c0.9-2,1.4-4.4,1.4-7c0-2.7-0.5-4.7-1.4-6c1-1.4,1.5-3.5,1.4-6.5
				c-0.4-0.4-1-0.6-1.8-0.6c-1.4,0-3.2,0.6-5.3,1.7c-0.5-0.5-0.7-1.1-0.7-1.9c0-0.8,0.2-1.7,0.7-2.5c-0.5-0.5-0.7-1.1-0.7-1.8
				c0-0.7,0.2-1.4,0.7-2c1.5,0.7,3.1,1,5,1c1.7,0,3.4-0.3,5.1-1c1.7,0.7,3.4,1,5.1,1c1.9,0,3.6-0.3,5.1-1c0.5,0.6,0.7,1.3,0.7,2
				c0,0.8-0.2,1.4-0.7,1.8C247.8,288.9,248.1,289.7,248.1,290.5z"/>
			<path fill="#FFFFFF" d="M260.7,292c-1.3-2.5-2.8-3.7-4.6-3.7c-0.9,0-1.6,0.3-2.2,0.9c-0.6,0.6-0.9,1.3-0.9,2.1
				c0,0.8,0.3,1.5,0.9,2.2c0.8,0.6,1.6,1,2.5,1c0.5,0,1-0.1,1.4-0.3c0.2,0.7,0.8,1.5,1.8,2.2c0.4,0.3,0.9,0.6,1.4,1
				c2.6,1.4,3.9,3.6,3.9,6.5c0,2.1-0.8,4-2.3,5.5c-1.7,1.7-4,2.5-6.8,2.5c-1.4,0-2.9-0.2-4.5-0.7c-0.3-0.1-0.8-0.3-1.5-0.7
				c-0.6-0.3-1-0.4-1.4-0.4c-0.6,0-1.3,0.3-2.1,0.8c0-0.3-0.1-0.5-0.1-0.8c0-1.4,0.5-2.3,1.4-2.9c-0.3-0.4-0.4-0.9-0.4-1.5
				c0-0.8,0.2-1.7,0.7-2.7c0.8,1.5,2,2.7,3.5,3.5c1.3,0.7,2.6,1.1,4,1.1c1.1,0,2.1-0.2,2.8-0.7c0.7-0.5,1.1-1.1,1.1-1.9
				c0-0.8-0.4-1.7-1.2-2.6c-0.8-0.7-1.8-1-2.9-1c-0.6,0-1.1,0.1-1.7,0.2c-0.1-1.6-0.8-2.7-2-3.1c-2.5-1.4-3.7-3.5-3.7-6.1
				c0-2.1,0.7-3.9,2.2-5.5c1.6-1.7,3.5-2.5,5.7-2.5c1.3,0,2.6,0.3,3.9,1c0.3,0.2,0.6,0.4,0.9,0.5c0.3,0.2,0.6,0.2,1,0.2
				c0.4,0,0.9,0,1.6-0.1c0,0.2,0.1,0.4,0.1,0.6c0,0.8-0.4,1.7-1.1,2.4C261.9,290,261.5,291,260.7,292z"/>
			<path fill="#FFFFFF" d="M291.6,295.2c0.5-1,0.8-2.5,0.8-4.3c0-2.9-0.5-4.8-1.5-5.8c0.6-0.6,1.3-0.9,2.1-0.9c0.7,0,1.4,0.3,2.1,1
				c0.7-0.7,1.4-1,2.1-1c0.7,0,1.4,0.3,2,0.9l-0.5,1.4c-0.6,1.6-1,3.4-1,5.4c0,2.7,0.5,4.7,1.5,6.1c-0.9,1.3-1.4,3.2-1.4,6
				c0,2.6,0.5,4.9,1.4,6.9c-0.6,0.6-1.2,0.9-1.9,0.9c-0.7,0-1.4-0.3-2.1-1c-0.6,0.7-1.3,1-2,1c-0.7,0-1.4-0.3-2-0.9
				c0.9-1.1,1.3-2.3,1.3-3.8c0-1.6-0.5-3.1-1.6-4.4l-4.2-5.4c-0.8,1.7-1.2,3.7-1.2,6.1c0,2.6,0.5,5.1,1.5,7.5
				c-0.6,0.6-1.3,0.9-2,0.9c-0.8,0-1.5-0.3-2.1-1c-0.7,0.7-1.4,1-2.2,1c-0.7,0-1.4-0.3-2-0.9c0.9-2,1.4-4.3,1.4-6.9
				c0-2.7-0.5-4.7-1.4-6c1-1.4,1.5-3.4,1.5-6.1c0-2-0.3-3.8-0.9-5.4l-0.6-1.4c0.6-0.6,1.3-0.9,2-0.9c0.8,0,1.5,0.3,2.2,1
				c0.7-0.7,1.4-1,2.1-1c0.7,0,1.4,0.3,2,0.9c-0.3,0.8-0.5,1.5-0.5,2.2c0,0.9,0.3,1.8,0.9,2.5L291.6,295.2z"/>
			<path fill="#FFFFFF" d="M313,310.6c-1.2,0.6-2.6,0.9-4.2,1c-1.6-0.1-3-0.4-4.2-0.9c-2.8-1.3-4.2-3.6-4.2-7v-3.1
				c-0.1-1.4-0.5-2.4-1.4-2.8c0.6-0.3,1-0.8,1.2-1.7c0.1-0.3,0.1-0.7,0.2-1.1v-3c0-3.2,1.4-5.5,4.2-6.9c1.2-0.6,2.6-0.9,4.2-1
				c1.6,0.1,3,0.5,4.2,1c2.8,1.4,4.2,3.6,4.2,6.9v3c0.1,1.4,0.5,2.4,1.4,2.8c-0.6,0.3-1,0.8-1.2,1.7c-0.1,0.3-0.1,0.7-0.2,1.1v3.1
				C317.2,307,315.8,309.3,313,310.6z M311.8,300.6c-0.1-1.4-0.5-2.4-1.4-2.8c0.6-0.3,1-0.8,1.2-1.7c0.1-0.3,0.1-0.7,0.2-1.1v-2.8
				c0-1-0.3-1.8-0.8-2.4c-0.6-0.6-1.2-0.9-2-0.9c-0.7,0-1.4,0.3-1.9,0.9c-0.6,0.6-0.8,1.4-0.8,2.4v2.8c0.1,1.4,0.5,2.4,1.4,2.8
				c-0.6,0.3-1,0.8-1.2,1.7c-0.1,0.3-0.1,0.7-0.2,1.1v2.8c0,1,0.3,1.8,0.8,2.4c0.6,0.6,1.2,0.8,1.9,0.8c0.8,0,1.4-0.3,2-0.8
				c0.6-0.6,0.8-1.4,0.8-2.4V300.6z"/>
			<path fill="#FFFFFF" d="M338.6,290.5c0,0.8-0.2,1.4-0.7,1.9c-2.1-1.1-3.9-1.7-5.3-1.7c-0.7,0-1.2,0.1-1.7,0.4
				c-0.1,3,0.4,5.3,1.4,6.7c-0.9,1.3-1.4,3.3-1.4,6c0,2.6,0.5,4.9,1.4,7c-0.7,0.6-1.4,0.9-2.2,0.9c-0.8,0-1.5-0.3-2.3-1
				c-0.7,0.7-1.5,1-2.3,1c-0.8,0-1.5-0.3-2.2-0.9c0.9-2,1.4-4.4,1.4-7c0-2.7-0.5-4.7-1.4-6c1-1.4,1.5-3.5,1.4-6.5
				c-0.4-0.4-1-0.6-1.8-0.6c-1.4,0-3.2,0.6-5.3,1.7c-0.5-0.5-0.7-1.1-0.7-1.9c0-0.8,0.2-1.7,0.7-2.5c-0.5-0.5-0.7-1.1-0.7-1.8
				c0-0.7,0.2-1.4,0.7-2c1.5,0.7,3.1,1,5,1c1.7,0,3.4-0.3,5.1-1c1.7,0.7,3.4,1,5.1,1c1.9,0,3.6-0.3,5.1-1c0.5,0.6,0.7,1.3,0.7,2
				c0,0.8-0.2,1.4-0.7,1.8C338.4,288.9,338.6,289.7,338.6,290.5z"/>
			<path fill="#FFFFFF" d="M369.4,294.9c0.1,1.5,0.5,2.4,1.4,2.9c-0.6,0.3-1,0.8-1.2,1.7c-0.1,0.3-0.1,0.7-0.2,1.2v3
				c0,0.3,0,0.6,0,1c0,2.9-1.3,5-4,6.2c-1.1,0.5-2.5,0.8-4,0.9c-0.4,0-0.8,0-1.1,0c-3.1,0-5.2-1.1-6.4-3.2c-0.5-0.9-0.8-2-0.9-3.2
				c0.1-1.4-0.1-2.4-0.8-3c0.4-0.5,0.9-0.7,1.5-0.7c0.6,0,1.1,0.2,1.6,0.6c0.4-0.8,1.2-1.2,2.3-1.2c0.8,0,1.4,0.2,1.8,0.5
				c-0.7,1-1,1.9-1,2.9c0,0.8,0.2,1.4,0.7,1.8c0.5,0.5,1,0.7,1.7,0.7h0.2c1.2,0,1.9-0.3,2.4-0.9c0.3-0.5,0.5-1.3,0.5-2.4v-2.9
				c-0.1-1.5-0.5-2.4-1.4-2.8c0.6-0.3,1-0.9,1.2-1.7c0.1-0.3,0.2-0.7,0.2-1.2v-2.8c0-2-0.2-3.5-0.7-4.5c-0.2-0.5-0.9-1.3-2.1-2.4
				c1-0.6,1.9-0.9,2.6-0.9c0.7,0,1.5,0.3,2.4,0.9c0.8-0.7,1.6-1,2.5-1c0.8,0,1.6,0.3,2.2,0.9c-0.9,0.9-1.3,3.2-1.3,6.9V294.9z"/>
			<path fill="#FFFFFF" d="M384.9,310.6c-1.2,0.6-2.6,0.9-4.2,1.1c-1.7-0.1-3.1-0.4-4.2-1c-2.8-1.3-4.3-3.7-4.3-7.1v-3.1
				c-0.1-1.5-0.5-2.4-1.4-2.8c0.6-0.3,1-0.9,1.2-1.7c0.1-0.3,0.1-0.7,0.2-1.2v-3c-0.1-2.8-0.7-5.1-1.8-6.7c0.8-0.6,1.7-1,2.6-1
				c0.8,0,1.5,0.3,2.1,0.9c0.7-0.6,1.5-0.9,2.3-0.9c0.8,0,1.5,0.3,2.1,0.8c-1,1.9-1.5,4.3-1.5,7v2.8c0,1.5,0.5,2.4,1.4,2.9
				c-0.6,0.3-1,0.8-1.2,1.7c-0.1,0.3-0.2,0.7-0.2,1.2v2.9c0,1,0.3,1.8,0.9,2.5c0.5,0.5,1.2,0.8,1.9,0.8c0.8,0,1.4-0.3,1.9-0.8
				c0.6-0.6,0.9-1.4,0.9-2.5v-2.9c-0.1-1.5-0.5-2.4-1.4-2.8c0.6-0.3,1-0.9,1.2-1.7c0.1-0.3,0.1-0.7,0.2-1.2V292c0-2.7-0.5-5.1-1.5-7
				c0.6-0.6,1.4-0.8,2.1-0.8c0.8,0,1.6,0.3,2.3,0.9c0.5-0.6,1.1-0.9,1.8-0.9c0.8,0,1.6,0.3,2.4,1c-0.6,1.1-1.1,2.6-1.3,4.4
				c-0.1,0.8-0.2,1.5-0.2,2.4v3c0.1,1.5,0.6,2.4,1.4,2.9c-0.6,0.3-1,0.8-1.2,1.7c-0.1,0.3-0.2,0.7-0.2,1.2v3.1
				C389.2,306.9,387.8,309.3,384.9,310.6z"/>
			<path fill="#FFFFFF" d="M403.2,292c-1.3-2.5-2.8-3.7-4.6-3.7c-0.9,0-1.6,0.3-2.2,0.9c-0.6,0.6-0.9,1.3-0.9,2.1
				c0,0.8,0.3,1.5,0.9,2.2c0.8,0.6,1.6,1,2.5,1c0.5,0,1-0.1,1.4-0.3c0.2,0.7,0.8,1.5,1.8,2.2c0.4,0.3,0.9,0.6,1.4,1
				c2.6,1.4,3.9,3.6,3.9,6.5c0,2.1-0.8,4-2.3,5.5c-1.7,1.7-4,2.5-6.8,2.5c-1.4,0-2.9-0.2-4.5-0.7c-0.3-0.1-0.8-0.3-1.5-0.7
				c-0.6-0.3-1-0.4-1.4-0.4c-0.6,0-1.3,0.3-2.1,0.8c0-0.3-0.1-0.5-0.1-0.8c0-1.4,0.5-2.3,1.4-2.9c-0.3-0.4-0.4-0.9-0.4-1.5
				c0-0.8,0.2-1.7,0.7-2.7c0.8,1.5,2,2.7,3.5,3.5c1.3,0.7,2.6,1.1,4,1.1c1.1,0,2.1-0.2,2.8-0.7c0.7-0.5,1.1-1.1,1.1-1.9
				c0-0.8-0.4-1.7-1.2-2.6c-0.8-0.7-1.8-1-2.9-1c-0.6,0-1.1,0.1-1.7,0.2c-0.1-1.6-0.8-2.7-2-3.1c-2.5-1.4-3.7-3.5-3.7-6.1
				c0-2.1,0.7-3.9,2.2-5.5c1.6-1.7,3.5-2.5,5.7-2.5c1.3,0,2.6,0.3,3.9,1c0.3,0.2,0.6,0.4,0.9,0.5c0.3,0.2,0.6,0.2,1,0.2
				c0.4,0,0.9,0,1.6-0.1c0,0.2,0.1,0.4,0.1,0.6c0,0.8-0.4,1.7-1.1,2.4C404.4,290,404,291,403.2,292z"/>
			<path fill="#FFFFFF" d="M426.7,290.5c0,0.8-0.2,1.4-0.7,1.9c-2.1-1.1-3.9-1.7-5.3-1.7c-0.7,0-1.2,0.1-1.7,0.4
				c-0.1,3,0.4,5.3,1.4,6.7c-0.9,1.3-1.4,3.3-1.4,6c0,2.6,0.5,4.9,1.4,7c-0.7,0.6-1.4,0.9-2.2,0.9c-0.8,0-1.5-0.3-2.3-1
				c-0.7,0.7-1.5,1-2.3,1c-0.8,0-1.5-0.3-2.2-0.9c0.9-2,1.4-4.4,1.4-7c0-2.7-0.5-4.7-1.4-6c1-1.4,1.5-3.5,1.4-6.5
				c-0.4-0.4-1-0.6-1.8-0.6c-1.4,0-3.2,0.6-5.3,1.7c-0.5-0.5-0.7-1.1-0.7-1.9c0-0.8,0.2-1.7,0.7-2.5c-0.5-0.5-0.7-1.1-0.7-1.8
				c0-0.7,0.2-1.4,0.7-2c1.5,0.7,3.1,1,5,1c1.7,0,3.4-0.3,5.1-1c1.7,0.7,3.4,1,5.1,1c1.9,0,3.6-0.3,5.1-1c0.5,0.6,0.7,1.3,0.7,2
				c0,0.8-0.2,1.4-0.7,1.8C426.5,288.9,426.7,289.7,426.7,290.5z"/>
			<path fill="#FFFFFF" d="M457.8,311.7c-0.7,0-1.2-0.2-1.4-0.7c0.6-1.2,0.9-2.5,0.9-3.6c0-1.5-0.4-2.7-1.2-3.7
				c-0.8-1-1.9-1.4-3.1-1.4c-1.3,0-2.3,0.5-3.1,1.4c-0.8,1-1.2,2.2-1.2,3.7c0,1.2,0.3,2.4,0.8,3.6c-0.2,0.5-0.7,0.7-1.4,0.7
				c-0.8,0-1.7-0.2-2.9-0.7c-0.5,0.5-1.1,0.7-1.9,0.7c-0.9,0-1.9-0.3-2.9-0.9c3.3-3.3,5-7,5-11c0-0.7-0.1-1.4-0.2-1.9
				c2.8-3.4,4.2-6.8,4.2-10.2c0-1.2-0.2-2.1-0.6-2.7c0.6-0.6,1.3-0.9,2.1-0.9c0.8,0,1.5,0.3,2.2,1c0.7-0.7,1.4-1,2.1-1
				c0.8,0,1.5,0.3,2.1,0.9c-0.4,0.6-0.6,1.5-0.6,2.7c0,3.4,1.4,6.8,4.2,10.2c-0.1,0.5-0.2,1.2-0.2,1.9c0,4,1.7,7.7,5,11
				c-1,0.6-2,0.9-2.9,0.9c-0.8,0-1.4-0.2-1.9-0.7C459.6,311.4,458.6,311.7,457.8,311.7z M452.9,293.7c-0.9,1.6-1.4,3.2-1.4,4.8
				c0.6-0.3,1-0.4,1.4-0.4s0.8,0.1,1.4,0.4C454.2,296.9,453.8,295.3,452.9,293.7z"/>
			<path fill="#FFFFFF" d="M491.5,289.2c-0.2-2.1-0.6-3.5-1.4-4.2c0.6-0.6,1.4-0.9,2.2-0.9c0.8,0,1.6,0.3,2.3,1c0.7-0.7,1.5-1,2.3-1
				c0.8,0,1.5,0.3,2.2,0.9c-0.9,2-1.4,4.3-1.4,6.9c0,2.7,0.5,4.7,1.4,6c-0.9,1.3-1.4,3.2-1.4,6c0,2.6,0.5,4.9,1.4,6.9
				c-0.7,0.6-1.4,0.9-2.2,0.9c-0.8,0-1.5-0.3-2.3-1c-0.7,0.7-1.5,1-2.3,1c-0.8,0-1.5-0.3-2.2-0.9c0.7-0.7,1.2-2.1,1.4-4.2
				c0-0.6,0.1-2,0.1-4.3c0-1.4-0.5-2.2-1.4-2.6c-0.4-0.1-0.7-0.1-1-0.1c-0.3,0-0.6,0-1,0.1c-0.9,0.4-1.4,1.2-1.4,2.6
				c0,2.3,0,3.8,0.1,4.3c0.2,2.1,0.6,3.5,1.4,4.2c-0.7,0.6-1.4,0.9-2.2,0.9c-0.8,0-1.6-0.3-2.3-1c-0.7,0.7-1.5,1-2.3,1
				c-0.8,0-1.5-0.3-2.2-0.9c0.9-2,1.4-4.3,1.4-6.9c0-2.7-0.5-4.7-1.4-6c0.9-1.3,1.4-3.2,1.4-6c0-2.6-0.5-4.9-1.4-6.9
				c0.7-0.6,1.4-0.9,2.2-0.9c0.8,0,1.6,0.3,2.3,1c0.7-0.7,1.5-1,2.3-1c0.8,0,1.5,0.3,2.2,0.9c-0.7,0.7-1.2,2.1-1.4,4.2
				c0,0.6-0.1,2-0.1,4.3c0,1.4,0.5,2.2,1.4,2.6c0.4,0.1,0.7,0.1,1,0.1c0.3,0,0.6,0,1-0.1c1-0.4,1.4-1.2,1.4-2.6
				C491.6,291.2,491.6,289.8,491.5,289.2z"/>
			<path fill="#FFFFFF" d="M516.5,311.7c-0.7,0-1.2-0.2-1.4-0.7c0.6-1.2,0.9-2.5,0.9-3.6c0-1.5-0.4-2.7-1.2-3.7
				c-0.8-1-1.9-1.4-3.1-1.4c-1.3,0-2.3,0.5-3.1,1.4c-0.8,1-1.2,2.2-1.2,3.7c0,1.2,0.3,2.4,0.8,3.6c-0.2,0.5-0.7,0.7-1.4,0.7
				c-0.8,0-1.7-0.2-2.9-0.7c-0.5,0.5-1.1,0.7-1.9,0.7c-0.9,0-1.9-0.3-2.9-0.9c3.3-3.3,5-7,5-11c0-0.7-0.1-1.4-0.2-1.9
				c2.8-3.4,4.2-6.8,4.2-10.2c0-1.2-0.2-2.1-0.6-2.7c0.6-0.6,1.3-0.9,2.1-0.9c0.8,0,1.5,0.3,2.2,1c0.7-0.7,1.4-1,2.1-1
				c0.8,0,1.5,0.3,2.1,0.9c-0.4,0.6-0.6,1.5-0.6,2.7c0,3.4,1.4,6.8,4.2,10.2c-0.1,0.5-0.2,1.2-0.2,1.9c0,4,1.7,7.7,5,11
				c-1,0.6-2,0.9-2.9,0.9c-0.8,0-1.4-0.2-1.9-0.7C518.2,311.4,517.3,311.7,516.5,311.7z M511.5,293.7c-0.9,1.6-1.4,3.2-1.4,4.8
				c0.6-0.3,1-0.4,1.4-0.4s0.8,0.1,1.4,0.4C512.9,296.9,512.4,295.3,511.5,293.7z"/>
			<path fill="#FFFFFF" d="M527.8,310.7c-0.7,0.7-1.5,1-2.3,1c-0.8,0-1.5-0.3-2.2-0.9c0.9-2,1.4-4.3,1.4-6.9c0-2.7-0.5-4.7-1.4-6
				c0.9-1.3,1.4-3.2,1.4-6c0-2.6-0.5-4.9-1.4-6.9c0.7-0.6,1.4-0.9,2.2-0.9c0.8,0,1.6,0.3,2.3,1c0.7-0.7,1.5-1,2.3-1
				c0.8,0,1.5,0.3,2.2,0.9c-0.9,2-1.4,4.3-1.4,6.9c0,2.7,0.5,4.7,1.4,6c-0.9,1.3-1.4,3.2-1.4,6c0,2.6,0.5,4.9,1.4,6.9
				c-0.7,0.6-1.4,0.9-2.2,0.9C529.3,311.7,528.5,311.3,527.8,310.7z"/>
			<path fill="#FFFFFF" d="M550.3,311.7c-2,0-3.8-0.7-5.5-2.2c0.7-1,1.1-1.9,1.1-2.7c0-1-0.5-2.2-1.6-3.6c0.3-0.5,0.5-1,0.5-1.5
				c0-0.7-0.3-1.3-0.9-1.9c-0.6-0.5-1.3-0.8-2-0.8c-0.8,0-1.4,0.3-1.8,0.9c-0.6,0.7-0.8,1.8-0.8,3.2c0,3.5,0.7,6,2.1,7.4
				c-0.6,0.6-1.4,0.9-2.2,0.9c-0.8,0-1.7-0.3-2.4-1c-0.8,0.7-1.6,1-2.5,1c-0.8,0-1.6-0.3-2.2-0.9c0.9-2,1.4-4.3,1.4-6.8
				c0-2.7-0.5-4.6-1.4-5.9c0.9-1.3,1.4-3.2,1.4-5.9c0-2.5-0.5-4.8-1.4-6.8c0.6-0.6,1.4-0.9,2.2-0.9c0.8,0,1.7,0.3,2.5,1
				c1.6-0.8,3.3-1.1,5.2-1.1c2.2,0,4.1,0.5,5.7,1.4c1.7,1,2.5,2.2,2.5,3.7c0,1.5,0.5,2.4,1.3,2.8c-0.6,0.3-1,0.8-1.2,1.7
				c-0.1,0.3-0.1,0.7-0.2,1.1c-0.1,1.3-0.9,2.3-2.5,3c1,0.4,1.6,1,2,1.7c0.2,0.3,0.3,0.7,0.3,1c0,1.1,0.4,1.8,1.3,2.1
				c0,0,0.1,0.5,0.2,1.5c0.1,1.2,0.4,2.3,0.7,3.2c0.5,1.4,1.2,2.5,2,3.4C552.9,311.4,551.6,311.7,550.3,311.7z M544.5,290.9
				c0-0.5-0.2-1-0.7-1.3c-0.5-0.4-1-0.6-1.6-0.6c-0.8,0-1.4,0.3-1.9,0.8c-0.6,0.7-0.9,1.6-0.9,2.8s0.3,2.1,0.9,2.8
				c0.5,0.6,1.1,0.8,1.9,0.8c0.6,0,1.2-0.2,1.6-0.5c0.5-0.4,0.7-0.8,0.7-1.4c0-0.6-0.3-1.1-0.8-1.7
				C544.2,292.1,544.5,291.5,544.5,290.9z"/>
			<path fill="#FFFFFF" d="M564.1,301c1.1,0,1.9,0.4,2.3,1.2c0.5-0.3,1.1-0.5,1.6-0.5c0.6,0,1.1,0.2,1.5,0.7c-0.6,0.6-0.9,1.6-0.8,3
				c-0.1,1.2-0.4,2.3-0.9,3.2c-1.2,2.1-3.3,3.2-6.4,3.2c-0.3,0-0.7,0-1.1,0c-1.6-0.1-2.9-0.4-4-0.9c-2.7-1.1-4-3.2-4-6.1
				c0-0.3,0-0.6,0-1v-3c0-1.4-0.5-2.4-1.3-2.8c0.6-0.3,1-0.8,1.2-1.7c0.1-0.3,0.1-0.7,0.1-1.1v-3c0-3.3,1.3-5.6,4-7
				c1.1-0.6,2.4-0.9,4-1c0.4,0,0.8,0,1.1,0c3,0,5.2,1.1,6.4,3.2c0.5,0.9,0.8,1.9,0.9,3.2c-0.1,1.4,0.1,2.4,0.8,3
				c-0.4,0.5-0.9,0.7-1.5,0.7c-0.5,0-1.1-0.2-1.6-0.5c-0.4,0.8-1.2,1.2-2.3,1.2c-0.8,0-1.4-0.2-1.8-0.5c0.6-1,1-1.9,1-2.8
				c0-0.8-0.2-1.4-0.7-1.8c-0.4-0.5-1-0.7-1.7-0.7h-0.1c-1.1,0-1.9,0.3-2.3,0.9c-0.3,0.5-0.5,1.3-0.5,2.4v2.8c0,1.4,0.5,2.4,1.3,2.8
				c-0.6,0.3-1,0.8-1.2,1.7c-0.1,0.3-0.2,0.7-0.2,1.1v2.8c0,1.1,0.2,2,0.5,2.4c0.4,0.6,1.2,0.9,2.3,0.9h0.1c0.7,0,1.2-0.2,1.7-0.7
				c0.4-0.5,0.7-1.1,0.7-1.8c0-0.9-0.3-1.8-1-2.8C562.7,301.2,563.2,301,564.1,301z"/>
			<path fill="#FFFFFF" d="M582.3,310.6c-1.2,0.6-2.6,0.9-4.2,1.1c-1.7-0.1-3.1-0.4-4.2-1c-2.8-1.3-4.3-3.7-4.3-7.1v-3.1
				c-0.1-1.5-0.5-2.4-1.4-2.8c0.6-0.3,1-0.9,1.2-1.7c0.1-0.3,0.1-0.7,0.2-1.2v-3c-0.1-2.8-0.7-5.1-1.8-6.7c0.8-0.6,1.7-1,2.6-1
				c0.8,0,1.5,0.3,2.1,0.9c0.7-0.6,1.5-0.9,2.3-0.9c0.8,0,1.5,0.3,2.1,0.8c-1,1.9-1.5,4.3-1.5,7v2.8c0,1.5,0.5,2.4,1.4,2.9
				c-0.6,0.3-1,0.8-1.2,1.7c-0.1,0.3-0.2,0.7-0.2,1.2v2.9c0,1,0.3,1.8,0.9,2.5c0.5,0.5,1.2,0.8,1.9,0.8s1.4-0.3,1.9-0.8
				c0.6-0.6,0.9-1.4,0.9-2.5v-2.9c-0.1-1.5-0.5-2.4-1.4-2.8c0.6-0.3,1-0.9,1.2-1.7c0.1-0.3,0.1-0.7,0.2-1.2V292c0-2.7-0.5-5.1-1.5-7
				c0.6-0.6,1.4-0.8,2.1-0.8c0.8,0,1.6,0.3,2.3,0.9c0.5-0.6,1.1-0.9,1.8-0.9c0.8,0,1.6,0.3,2.4,1c-0.6,1.1-1.1,2.6-1.3,4.4
				c-0.1,0.8-0.2,1.5-0.2,2.4v3c0.1,1.5,0.6,2.4,1.4,2.9c-0.6,0.3-1,0.8-1.2,1.7c-0.1,0.3-0.2,0.7-0.2,1.2v3.1
				C586.6,306.9,585.1,309.3,582.3,310.6z"/>
			<path fill="#FFFFFF" d="M609.6,290.5c0,0.8-0.2,1.4-0.7,1.9c-2.1-1.1-3.9-1.7-5.3-1.7c-0.7,0-1.2,0.1-1.7,0.4
				c-0.1,3,0.4,5.3,1.4,6.7c-0.9,1.3-1.4,3.3-1.4,6c0,2.6,0.5,4.9,1.4,7c-0.7,0.6-1.4,0.9-2.2,0.9c-0.8,0-1.5-0.3-2.3-1
				c-0.7,0.7-1.5,1-2.3,1c-0.8,0-1.5-0.3-2.2-0.9c0.9-2,1.4-4.4,1.4-7c0-2.7-0.5-4.7-1.4-6c1-1.4,1.5-3.5,1.4-6.5
				c-0.4-0.4-1-0.6-1.8-0.6c-1.4,0-3.2,0.6-5.3,1.7c-0.5-0.5-0.7-1.1-0.7-1.9c0-0.8,0.2-1.7,0.7-2.5c-0.5-0.5-0.7-1.1-0.7-1.8
				c0-0.7,0.2-1.4,0.7-2c1.5,0.7,3.1,1,5,1c1.7,0,3.4-0.3,5.1-1c1.7,0.7,3.4,1,5.1,1c1.9,0,3.6-0.3,5.1-1c0.5,0.6,0.7,1.3,0.7,2
				c0,0.8-0.2,1.4-0.7,1.8C609.3,288.9,609.6,289.7,609.6,290.5z"/>
		</g>
		<g id="its_not_1_">
			<path d="M223.1,309.2c-0.7,0.7-1.5,1-2.3,1c-0.8,0-1.5-0.3-2.2-0.9c0.9-2,1.4-4.3,1.4-6.9c0-2.7-0.5-4.7-1.4-6
				c0.9-1.3,1.4-3.2,1.4-6c0-2.6-0.5-4.9-1.4-6.9c0.7-0.6,1.4-0.9,2.2-0.9c0.8,0,1.6,0.3,2.3,1c0.7-0.7,1.5-1,2.3-1
				c0.8,0,1.5,0.3,2.2,0.9c-0.9,2-1.4,4.3-1.4,6.9c0,2.7,0.5,4.7,1.4,6c-0.9,1.3-1.4,3.2-1.4,6c0,2.6,0.5,4.9,1.4,6.9
				c-0.7,0.6-1.4,0.9-2.2,0.9C224.6,310.2,223.8,309.9,223.1,309.2z"/>
			<path d="M249.1,289.1c0,0.8-0.2,1.4-0.7,1.9c-2.1-1.1-3.9-1.7-5.3-1.7c-0.7,0-1.2,0.1-1.7,0.4c-0.1,3,0.4,5.3,1.4,6.7
				c-0.9,1.3-1.4,3.3-1.4,6c0,2.6,0.5,4.9,1.4,7c-0.7,0.6-1.4,0.9-2.2,0.9c-0.8,0-1.5-0.3-2.3-1c-0.7,0.7-1.5,1-2.3,1
				c-0.8,0-1.5-0.3-2.2-0.9c0.9-2,1.4-4.4,1.4-7c0-2.7-0.5-4.7-1.4-6c1-1.4,1.5-3.5,1.4-6.5c-0.4-0.4-1-0.6-1.8-0.6
				c-1.4,0-3.2,0.6-5.3,1.7c-0.5-0.5-0.7-1.1-0.7-1.9c0-0.8,0.2-1.7,0.7-2.5c-0.5-0.5-0.7-1.1-0.7-1.8c0-0.7,0.2-1.4,0.7-2
				c1.5,0.7,3.1,1,5,1c1.7,0,3.4-0.3,5.1-1c1.7,0.7,3.4,1,5.1,1c1.9,0,3.6-0.3,5.1-1c0.5,0.6,0.7,1.3,0.7,2c0,0.8-0.2,1.4-0.7,1.8
				C248.9,287.4,249.1,288.3,249.1,289.1z"/>
			<path d="M261.7,290.5c-1.3-2.5-2.8-3.7-4.6-3.7c-0.9,0-1.6,0.3-2.2,0.9c-0.6,0.6-0.9,1.3-0.9,2.1c0,0.8,0.3,1.5,0.9,2.2
				c0.8,0.6,1.6,1,2.5,1c0.5,0,1-0.1,1.4-0.3c0.2,0.7,0.8,1.5,1.8,2.2c0.4,0.3,0.9,0.6,1.4,1c2.6,1.4,3.9,3.6,3.9,6.5
				c0,2.1-0.8,4-2.3,5.5c-1.7,1.7-4,2.5-6.8,2.5c-1.4,0-2.9-0.2-4.5-0.7c-0.3-0.1-0.8-0.3-1.5-0.7c-0.6-0.3-1-0.4-1.4-0.4
				c-0.6,0-1.3,0.3-2.1,0.8c0-0.3-0.1-0.5-0.1-0.8c0-1.4,0.5-2.3,1.4-2.9c-0.3-0.4-0.4-0.9-0.4-1.5c0-0.8,0.2-1.7,0.7-2.7
				c0.8,1.5,2,2.7,3.5,3.5c1.3,0.7,2.6,1.1,4,1.1c1.1,0,2.1-0.2,2.8-0.7c0.7-0.5,1.1-1.1,1.1-1.9c0-0.8-0.4-1.7-1.2-2.6
				c-0.8-0.7-1.8-1-2.9-1c-0.6,0-1.1,0.1-1.7,0.2c-0.1-1.6-0.8-2.7-2-3.1c-2.5-1.4-3.7-3.5-3.7-6.1c0-2.1,0.7-3.9,2.2-5.5
				c1.6-1.7,3.5-2.5,5.7-2.5c1.3,0,2.6,0.3,3.9,1c0.3,0.2,0.6,0.4,0.9,0.5c0.3,0.2,0.6,0.2,1,0.2c0.4,0,0.9,0,1.6-0.1
				c0,0.2,0.1,0.4,0.1,0.6c0,0.8-0.4,1.7-1.1,2.4C263,288.5,262.6,289.6,261.7,290.5z"/>
			<path d="M292.7,293.7c0.5-1,0.8-2.5,0.8-4.3c0-2.9-0.5-4.8-1.5-5.8c0.6-0.6,1.3-0.9,2.1-0.9c0.7,0,1.4,0.3,2.1,1
				c0.7-0.7,1.4-1,2.1-1c0.7,0,1.4,0.3,2,0.9l-0.5,1.4c-0.6,1.6-1,3.4-1,5.4c0,2.7,0.5,4.7,1.5,6.1c-0.9,1.3-1.4,3.2-1.4,6
				c0,2.6,0.5,4.9,1.4,6.9c-0.6,0.6-1.2,0.9-1.9,0.9c-0.7,0-1.4-0.3-2.1-1c-0.6,0.7-1.3,1-2,1c-0.7,0-1.4-0.3-2-0.9
				c0.9-1.1,1.3-2.3,1.3-3.8c0-1.6-0.5-3.1-1.6-4.4l-4.2-5.4c-0.8,1.7-1.2,3.7-1.2,6.1c0,2.6,0.5,5.1,1.5,7.5
				c-0.6,0.6-1.3,0.9-2,0.9c-0.8,0-1.5-0.3-2.1-1c-0.7,0.7-1.4,1-2.2,1c-0.7,0-1.4-0.3-2-0.9c0.9-2,1.4-4.3,1.4-6.9
				c0-2.7-0.5-4.7-1.4-6c1-1.4,1.5-3.4,1.5-6.1c0-2-0.3-3.8-0.9-5.4l-0.6-1.4c0.6-0.6,1.3-0.9,2-0.9c0.8,0,1.5,0.3,2.2,1
				c0.7-0.7,1.4-1,2.1-1c0.7,0,1.4,0.3,2,0.9c-0.3,0.8-0.5,1.5-0.5,2.2c0,0.9,0.3,1.8,0.9,2.5L292.7,293.7z"/>
			<path d="M314.1,309.2c-1.2,0.6-2.6,0.9-4.2,1c-1.6-0.1-3-0.4-4.2-0.9c-2.8-1.3-4.2-3.6-4.2-7v-3.1c-0.1-1.4-0.5-2.4-1.4-2.8
				c0.6-0.3,1-0.8,1.2-1.7c0.1-0.3,0.1-0.7,0.2-1.1v-3c0-3.2,1.4-5.5,4.2-6.9c1.2-0.6,2.6-0.9,4.2-1c1.6,0.1,3,0.5,4.2,1
				c2.8,1.4,4.2,3.6,4.2,6.9v3c0.1,1.4,0.5,2.4,1.4,2.8c-0.6,0.3-1,0.8-1.2,1.7c-0.1,0.3-0.1,0.7-0.2,1.1v3.1
				C318.3,305.5,316.9,307.8,314.1,309.2z M312.8,299.2c-0.1-1.4-0.5-2.4-1.4-2.8c0.6-0.3,1-0.8,1.2-1.7c0.1-0.3,0.1-0.7,0.2-1.1
				v-2.8c0-1-0.3-1.8-0.8-2.4c-0.6-0.6-1.2-0.9-2-0.9c-0.7,0-1.4,0.3-1.9,0.9c-0.6,0.6-0.8,1.4-0.8,2.4v2.8c0.1,1.4,0.5,2.4,1.4,2.8
				c-0.6,0.3-1,0.8-1.2,1.7c-0.1,0.3-0.1,0.7-0.2,1.1v2.8c0,1,0.3,1.8,0.8,2.4c0.6,0.6,1.2,0.8,1.9,0.8c0.8,0,1.4-0.3,2-0.8
				c0.6-0.6,0.8-1.4,0.8-2.4V299.2z"/>
			<path d="M339.7,289.1c0,0.8-0.2,1.4-0.7,1.9c-2.1-1.1-3.9-1.7-5.3-1.7c-0.7,0-1.2,0.1-1.7,0.4c-0.1,3,0.4,5.3,1.4,6.7
				c-0.9,1.3-1.4,3.3-1.4,6c0,2.6,0.5,4.9,1.4,7c-0.7,0.6-1.4,0.9-2.2,0.9c-0.8,0-1.5-0.3-2.3-1c-0.7,0.7-1.5,1-2.3,1
				c-0.8,0-1.5-0.3-2.2-0.9c0.9-2,1.4-4.4,1.4-7c0-2.7-0.5-4.7-1.4-6c1-1.4,1.5-3.5,1.4-6.5c-0.4-0.4-1-0.6-1.8-0.6
				c-1.4,0-3.2,0.6-5.3,1.7c-0.5-0.5-0.7-1.1-0.7-1.9c0-0.8,0.2-1.7,0.7-2.5c-0.5-0.5-0.7-1.1-0.7-1.8c0-0.7,0.2-1.4,0.7-2
				c1.5,0.7,3.1,1,5,1c1.7,0,3.4-0.3,5.1-1c1.7,0.7,3.4,1,5.1,1c1.9,0,3.6-0.3,5.1-1c0.5,0.6,0.7,1.3,0.7,2c0,0.8-0.2,1.4-0.7,1.8
				C339.4,287.4,339.7,288.3,339.7,289.1z"/>
			<path d="M370.4,293.5c0.1,1.5,0.5,2.4,1.4,2.9c-0.6,0.3-1,0.8-1.2,1.7c-0.1,0.3-0.1,0.7-0.2,1.2v3c0,0.3,0,0.6,0,1
				c0,2.9-1.3,5-4,6.2c-1.1,0.5-2.5,0.8-4,0.9c-0.4,0-0.8,0-1.1,0c-3.1,0-5.2-1.1-6.4-3.2c-0.5-0.9-0.8-2-0.9-3.2
				c0.1-1.4-0.1-2.4-0.8-3c0.4-0.5,0.9-0.7,1.5-0.7c0.6,0,1.1,0.2,1.6,0.6c0.4-0.8,1.2-1.2,2.3-1.2c0.8,0,1.4,0.2,1.8,0.5
				c-0.7,1-1,1.9-1,2.9c0,0.8,0.2,1.4,0.7,1.8c0.5,0.5,1,0.7,1.7,0.7h0.2c1.2,0,1.9-0.3,2.4-0.9c0.3-0.5,0.5-1.3,0.5-2.4v-2.9
				c-0.1-1.5-0.5-2.4-1.4-2.8c0.6-0.3,1-0.9,1.2-1.7c0.1-0.3,0.2-0.7,0.2-1.2v-2.8c0-2-0.2-3.5-0.7-4.5c-0.2-0.5-0.9-1.3-2.1-2.4
				c1-0.6,1.9-0.9,2.6-0.9c0.7,0,1.5,0.3,2.4,0.9c0.8-0.7,1.6-1,2.5-1c0.8,0,1.6,0.3,2.2,0.9c-0.9,0.9-1.3,3.2-1.3,6.9V293.5z"/>
			<path d="M386,309.2c-1.2,0.6-2.6,0.9-4.2,1.1c-1.7-0.1-3.1-0.4-4.2-1c-2.8-1.3-4.3-3.7-4.3-7.1v-3.1c-0.1-1.5-0.5-2.4-1.4-2.8
				c0.6-0.3,1-0.9,1.2-1.7c0.1-0.3,0.1-0.7,0.2-1.2v-3c-0.1-2.8-0.7-5.1-1.8-6.7c0.8-0.6,1.7-1,2.6-1c0.8,0,1.5,0.3,2.1,0.9
				c0.7-0.6,1.5-0.9,2.3-0.9c0.8,0,1.5,0.3,2.1,0.8c-1,1.9-1.5,4.3-1.5,7v2.8c0,1.5,0.5,2.4,1.4,2.9c-0.6,0.3-1,0.8-1.2,1.7
				c-0.1,0.3-0.2,0.7-0.2,1.2v2.9c0,1,0.3,1.8,0.9,2.5c0.5,0.5,1.2,0.8,1.9,0.8c0.8,0,1.4-0.3,1.9-0.8c0.6-0.6,0.9-1.4,0.9-2.5v-2.9
				c-0.1-1.5-0.5-2.4-1.4-2.8c0.6-0.3,1-0.9,1.2-1.7c0.1-0.3,0.1-0.7,0.2-1.2v-2.8c0-2.7-0.5-5.1-1.5-7c0.6-0.6,1.4-0.8,2.1-0.8
				c0.8,0,1.6,0.3,2.3,0.9c0.5-0.6,1.1-0.9,1.8-0.9c0.8,0,1.6,0.3,2.4,1c-0.6,1.1-1.1,2.6-1.3,4.4c-0.1,0.8-0.2,1.5-0.2,2.4v3
				c0.1,1.5,0.6,2.4,1.4,2.9c-0.6,0.3-1,0.8-1.2,1.7c-0.1,0.3-0.2,0.7-0.2,1.2v3.1C390.3,305.5,388.8,307.8,386,309.2z"/>
			<path d="M404.2,290.5c-1.3-2.5-2.8-3.7-4.6-3.7c-0.9,0-1.6,0.3-2.2,0.9c-0.6,0.6-0.9,1.3-0.9,2.1c0,0.8,0.3,1.5,0.9,2.2
				c0.8,0.6,1.6,1,2.5,1c0.5,0,1-0.1,1.4-0.3c0.2,0.7,0.8,1.5,1.8,2.2c0.4,0.3,0.9,0.6,1.4,1c2.6,1.4,3.9,3.6,3.9,6.5
				c0,2.1-0.8,4-2.3,5.5c-1.7,1.7-4,2.5-6.8,2.5c-1.4,0-2.9-0.2-4.5-0.7c-0.3-0.1-0.8-0.3-1.5-0.7c-0.6-0.3-1-0.4-1.4-0.4
				c-0.6,0-1.3,0.3-2.1,0.8c0-0.3-0.1-0.5-0.1-0.8c0-1.4,0.5-2.3,1.4-2.9c-0.3-0.4-0.4-0.9-0.4-1.5c0-0.8,0.2-1.7,0.7-2.7
				c0.8,1.5,2,2.7,3.5,3.5c1.3,0.7,2.6,1.1,4,1.1c1.1,0,2.1-0.2,2.8-0.7c0.7-0.5,1.1-1.1,1.1-1.9c0-0.8-0.4-1.7-1.2-2.6
				c-0.8-0.7-1.8-1-2.9-1c-0.6,0-1.1,0.1-1.7,0.2c-0.1-1.6-0.8-2.7-2-3.1c-2.5-1.4-3.7-3.5-3.7-6.1c0-2.1,0.7-3.9,2.2-5.5
				c1.6-1.7,3.5-2.5,5.7-2.5c1.3,0,2.6,0.3,3.9,1c0.3,0.2,0.6,0.4,0.9,0.5c0.3,0.2,0.6,0.2,1,0.2c0.4,0,0.9,0,1.6-0.1
				c0,0.2,0.1,0.4,0.1,0.6c0,0.8-0.4,1.7-1.1,2.4C405.5,288.5,405.1,289.6,404.2,290.5z"/>
			<path d="M427.8,289.1c0,0.8-0.2,1.4-0.7,1.9c-2.1-1.1-3.9-1.7-5.3-1.7c-0.7,0-1.2,0.1-1.7,0.4c-0.1,3,0.4,5.3,1.4,6.7
				c-0.9,1.3-1.4,3.3-1.4,6c0,2.6,0.5,4.9,1.4,7c-0.7,0.6-1.4,0.9-2.2,0.9c-0.8,0-1.5-0.3-2.3-1c-0.7,0.7-1.5,1-2.3,1
				c-0.8,0-1.5-0.3-2.2-0.9c0.9-2,1.4-4.4,1.4-7c0-2.7-0.5-4.7-1.4-6c1-1.4,1.5-3.5,1.4-6.5c-0.4-0.4-1-0.6-1.8-0.6
				c-1.4,0-3.2,0.6-5.3,1.7c-0.5-0.5-0.7-1.1-0.7-1.9c0-0.8,0.2-1.7,0.7-2.5c-0.5-0.5-0.7-1.1-0.7-1.8c0-0.7,0.2-1.4,0.7-2
				c1.5,0.7,3.1,1,5,1c1.7,0,3.4-0.3,5.1-1c1.7,0.7,3.4,1,5.1,1c1.9,0,3.6-0.3,5.1-1c0.5,0.6,0.7,1.3,0.7,2c0,0.8-0.2,1.4-0.7,1.8
				C427.6,287.4,427.8,288.3,427.8,289.1z"/>
			<path d="M458.9,310.2c-0.7,0-1.2-0.2-1.4-0.7c0.6-1.2,0.9-2.5,0.9-3.6c0-1.5-0.4-2.7-1.2-3.7c-0.8-1-1.9-1.4-3.1-1.4
				c-1.3,0-2.3,0.5-3.1,1.4c-0.8,1-1.2,2.2-1.2,3.7c0,1.2,0.3,2.4,0.8,3.6c-0.2,0.5-0.7,0.7-1.4,0.7c-0.8,0-1.7-0.2-2.9-0.7
				c-0.5,0.5-1.1,0.7-1.9,0.7c-0.9,0-1.9-0.3-2.9-0.9c3.3-3.3,5-7,5-11c0-0.7-0.1-1.4-0.2-1.9c2.8-3.4,4.2-6.8,4.2-10.2
				c0-1.2-0.2-2.1-0.6-2.7c0.6-0.6,1.3-0.9,2.1-0.9c0.8,0,1.5,0.3,2.2,1c0.7-0.7,1.4-1,2.1-1c0.8,0,1.5,0.3,2.1,0.9
				c-0.4,0.6-0.6,1.5-0.6,2.7c0,3.4,1.4,6.8,4.2,10.2c-0.1,0.5-0.2,1.2-0.2,1.9c0,4,1.7,7.7,5,11c-1,0.6-2,0.9-2.9,0.9
				c-0.8,0-1.4-0.2-1.9-0.7C460.7,310,459.7,310.2,458.9,310.2z M453.9,292.3c-0.9,1.6-1.4,3.2-1.4,4.8c0.6-0.3,1-0.4,1.4-0.4
				s0.8,0.1,1.4,0.4C455.3,295.4,454.9,293.8,453.9,292.3z"/>
			<path d="M492.6,287.8c-0.2-2.1-0.6-3.5-1.4-4.2c0.6-0.6,1.4-0.9,2.2-0.9c0.8,0,1.6,0.3,2.3,1c0.7-0.7,1.5-1,2.3-1
				c0.8,0,1.5,0.3,2.2,0.9c-0.9,2-1.4,4.3-1.4,6.9c0,2.7,0.5,4.7,1.4,6c-0.9,1.3-1.4,3.2-1.4,6c0,2.6,0.5,4.9,1.4,6.9
				c-0.7,0.6-1.4,0.9-2.2,0.9c-0.8,0-1.5-0.3-2.3-1c-0.7,0.7-1.5,1-2.3,1c-0.8,0-1.5-0.3-2.2-0.9c0.7-0.7,1.2-2.1,1.4-4.2
				c0-0.6,0.1-2,0.1-4.3c0-1.4-0.5-2.2-1.4-2.6c-0.4-0.1-0.7-0.1-1-0.1c-0.3,0-0.6,0-1,0.1c-0.9,0.4-1.4,1.2-1.4,2.6
				c0,2.3,0,3.8,0.1,4.3c0.2,2.1,0.6,3.5,1.4,4.2c-0.7,0.6-1.4,0.9-2.2,0.9c-0.8,0-1.6-0.3-2.3-1c-0.7,0.7-1.5,1-2.3,1
				c-0.8,0-1.5-0.3-2.2-0.9c0.9-2,1.4-4.3,1.4-6.9c0-2.7-0.5-4.7-1.4-6c0.9-1.3,1.4-3.2,1.4-6c0-2.6-0.5-4.9-1.4-6.9
				c0.7-0.6,1.4-0.9,2.2-0.9c0.8,0,1.6,0.3,2.3,1c0.7-0.7,1.5-1,2.3-1c0.8,0,1.5,0.3,2.2,0.9c-0.7,0.7-1.2,2.1-1.4,4.2
				c0,0.6-0.1,2-0.1,4.3c0,1.4,0.5,2.2,1.4,2.6c0.4,0.1,0.7,0.1,1,0.1c0.3,0,0.6,0,1-0.1c1-0.4,1.4-1.2,1.4-2.6
				C492.7,289.8,492.7,288.3,492.6,287.8z"/>
			<path d="M517.5,310.2c-0.7,0-1.2-0.2-1.4-0.7c0.6-1.2,0.9-2.5,0.9-3.6c0-1.5-0.4-2.7-1.2-3.7c-0.8-1-1.9-1.4-3.1-1.4
				c-1.3,0-2.3,0.5-3.1,1.4c-0.8,1-1.2,2.2-1.2,3.7c0,1.2,0.3,2.4,0.8,3.6c-0.2,0.5-0.7,0.7-1.4,0.7c-0.8,0-1.7-0.2-2.9-0.7
				c-0.5,0.5-1.1,0.7-1.9,0.7c-0.9,0-1.9-0.3-2.9-0.9c3.3-3.3,5-7,5-11c0-0.7-0.1-1.4-0.2-1.9c2.8-3.4,4.2-6.8,4.2-10.2
				c0-1.2-0.2-2.1-0.6-2.7c0.6-0.6,1.3-0.9,2.1-0.9c0.8,0,1.5,0.3,2.2,1c0.7-0.7,1.4-1,2.1-1c0.8,0,1.5,0.3,2.1,0.9
				c-0.4,0.6-0.6,1.5-0.6,2.7c0,3.4,1.4,6.8,4.2,10.2c-0.1,0.5-0.2,1.2-0.2,1.9c0,4,1.7,7.7,5,11c-1,0.6-2,0.9-2.9,0.9
				c-0.8,0-1.4-0.2-1.9-0.7C519.3,310,518.3,310.2,517.5,310.2z M512.6,292.3c-0.9,1.6-1.4,3.2-1.4,4.8c0.6-0.3,1-0.4,1.4-0.4
				c0.4,0,0.8,0.1,1.4,0.4C514,295.4,513.5,293.8,512.6,292.3z"/>
			<path d="M528.8,309.2c-0.7,0.7-1.5,1-2.3,1c-0.8,0-1.5-0.3-2.2-0.9c0.9-2,1.4-4.3,1.4-6.9c0-2.7-0.5-4.7-1.4-6
				c0.9-1.3,1.4-3.2,1.4-6c0-2.6-0.5-4.9-1.4-6.9c0.7-0.6,1.4-0.9,2.2-0.9c0.8,0,1.6,0.3,2.3,1c0.7-0.7,1.5-1,2.3-1
				c0.8,0,1.5,0.3,2.2,0.9c-0.9,2-1.4,4.3-1.4,6.9c0,2.7,0.5,4.7,1.4,6c-0.9,1.3-1.4,3.2-1.4,6c0,2.6,0.5,4.9,1.4,6.9
				c-0.7,0.6-1.4,0.9-2.2,0.9C530.3,310.2,529.6,309.9,528.8,309.2z"/>
			<path d="M551.4,310.2c-2,0-3.8-0.7-5.5-2.2c0.7-1,1.1-1.9,1.1-2.7c0-1-0.5-2.2-1.6-3.6c0.3-0.5,0.5-1,0.5-1.5
				c0-0.7-0.3-1.3-0.9-1.9c-0.6-0.5-1.3-0.8-2-0.8c-0.8,0-1.4,0.3-1.8,0.9c-0.6,0.7-0.8,1.8-0.8,3.2c0,3.5,0.7,6,2.1,7.4
				c-0.6,0.6-1.4,0.9-2.2,0.9c-0.8,0-1.7-0.3-2.4-1c-0.8,0.7-1.6,1-2.5,1c-0.8,0-1.6-0.3-2.2-0.9c0.9-2,1.4-4.3,1.4-6.8
				c0-2.7-0.5-4.6-1.4-5.9c0.9-1.3,1.4-3.2,1.4-5.9c0-2.5-0.5-4.8-1.4-6.8c0.6-0.6,1.4-0.9,2.2-0.9c0.8,0,1.7,0.3,2.5,1
				c1.6-0.8,3.3-1.1,5.2-1.1c2.2,0,4.1,0.5,5.7,1.4c1.7,1,2.5,2.2,2.5,3.7c0,1.5,0.5,2.4,1.3,2.8c-0.6,0.3-1,0.8-1.2,1.7
				c-0.1,0.3-0.1,0.7-0.2,1.1c-0.1,1.3-0.9,2.3-2.5,3c1,0.4,1.6,1,2,1.7c0.2,0.3,0.3,0.7,0.3,1c0,1.1,0.4,1.8,1.3,2.1
				c0,0,0.1,0.5,0.2,1.5c0.1,1.2,0.4,2.3,0.7,3.2c0.5,1.4,1.2,2.5,2,3.4C554,309.9,552.7,310.2,551.4,310.2z M545.5,289.4
				c0-0.5-0.2-1-0.7-1.3c-0.5-0.4-1-0.6-1.6-0.6c-0.8,0-1.4,0.3-1.9,0.8c-0.6,0.7-0.9,1.6-0.9,2.8s0.3,2.1,0.9,2.8
				c0.5,0.6,1.1,0.8,1.9,0.8c0.6,0,1.2-0.2,1.6-0.5c0.5-0.4,0.7-0.8,0.7-1.4c0-0.6-0.3-1.1-0.8-1.7
				C545.3,290.6,545.5,290,545.5,289.4z"/>
			<path d="M565.2,299.6c1.1,0,1.9,0.4,2.3,1.2c0.5-0.3,1.1-0.5,1.6-0.5c0.6,0,1.1,0.2,1.5,0.7c-0.6,0.6-0.9,1.6-0.8,3
				c-0.1,1.2-0.4,2.3-0.9,3.2c-1.2,2.1-3.3,3.2-6.4,3.2c-0.3,0-0.7,0-1.1,0c-1.6-0.1-2.9-0.4-4-0.9c-2.7-1.1-4-3.2-4-6.1
				c0-0.3,0-0.6,0-1v-3c0-1.4-0.5-2.4-1.3-2.8c0.6-0.3,1-0.8,1.2-1.7c0.1-0.3,0.1-0.7,0.1-1.1v-3c0-3.3,1.3-5.6,4-7
				c1.1-0.6,2.4-0.9,4-1c0.4,0,0.8,0,1.1,0c3,0,5.2,1.1,6.4,3.2c0.5,0.9,0.8,1.9,0.9,3.2c-0.1,1.4,0.1,2.4,0.8,3
				c-0.4,0.5-0.9,0.7-1.5,0.7c-0.5,0-1.1-0.2-1.6-0.5c-0.4,0.8-1.2,1.2-2.3,1.2c-0.8,0-1.4-0.2-1.8-0.5c0.6-1,1-1.9,1-2.8
				c0-0.8-0.2-1.4-0.7-1.8c-0.4-0.5-1-0.7-1.7-0.7h-0.1c-1.1,0-1.9,0.3-2.3,0.9c-0.3,0.5-0.5,1.3-0.5,2.4v2.8c0,1.4,0.5,2.4,1.3,2.8
				c-0.6,0.3-1,0.8-1.2,1.7c-0.1,0.3-0.2,0.7-0.2,1.1v2.8c0,1.1,0.2,2,0.5,2.4c0.4,0.6,1.2,0.9,2.3,0.9h0.1c0.7,0,1.2-0.2,1.7-0.7
				c0.4-0.5,0.7-1.1,0.7-1.8c0-0.9-0.3-1.8-1-2.8C563.7,299.7,564.3,299.6,565.2,299.6z"/>
			<path d="M583.4,309.2c-1.2,0.6-2.6,0.9-4.2,1.1c-1.7-0.1-3.1-0.4-4.2-1c-2.8-1.3-4.3-3.7-4.3-7.1v-3.1c-0.1-1.5-0.5-2.4-1.4-2.8
				c0.6-0.3,1-0.9,1.2-1.7c0.1-0.3,0.1-0.7,0.2-1.2v-3c-0.1-2.8-0.7-5.1-1.8-6.7c0.8-0.6,1.7-1,2.6-1c0.8,0,1.5,0.3,2.1,0.9
				c0.7-0.6,1.5-0.9,2.3-0.9c0.8,0,1.5,0.3,2.1,0.8c-1,1.9-1.5,4.3-1.5,7v2.8c0,1.5,0.5,2.4,1.4,2.9c-0.6,0.3-1,0.8-1.2,1.7
				c-0.1,0.3-0.2,0.7-0.2,1.2v2.9c0,1,0.3,1.8,0.9,2.5c0.5,0.5,1.2,0.8,1.9,0.8s1.4-0.3,1.9-0.8c0.6-0.6,0.9-1.4,0.9-2.5v-2.9
				c-0.1-1.5-0.5-2.4-1.4-2.8c0.6-0.3,1-0.9,1.2-1.7c0.1-0.3,0.1-0.7,0.2-1.2v-2.8c0-2.7-0.5-5.1-1.5-7c0.6-0.6,1.4-0.8,2.1-0.8
				c0.8,0,1.6,0.3,2.3,0.9c0.5-0.6,1.1-0.9,1.8-0.9c0.8,0,1.6,0.3,2.4,1c-0.6,1.1-1.1,2.6-1.3,4.4c-0.1,0.8-0.2,1.5-0.2,2.4v3
				c0.1,1.5,0.6,2.4,1.4,2.9c-0.6,0.3-1,0.8-1.2,1.7c-0.1,0.3-0.2,0.7-0.2,1.2v3.1C587.6,305.5,586.2,307.8,583.4,309.2z"/>
			<path d="M610.6,289.1c0,0.8-0.2,1.4-0.7,1.9c-2.1-1.1-3.9-1.7-5.3-1.7c-0.7,0-1.2,0.1-1.7,0.4c-0.1,3,0.4,5.3,1.4,6.7
				c-0.9,1.3-1.4,3.3-1.4,6c0,2.6,0.5,4.9,1.4,7c-0.7,0.6-1.4,0.9-2.2,0.9c-0.8,0-1.5-0.3-2.3-1c-0.7,0.7-1.5,1-2.3,1
				c-0.8,0-1.5-0.3-2.2-0.9c0.9-2,1.4-4.4,1.4-7c0-2.7-0.5-4.7-1.4-6c1-1.4,1.5-3.5,1.4-6.5c-0.4-0.4-1-0.6-1.8-0.6
				c-1.4,0-3.2,0.6-5.3,1.7c-0.5-0.5-0.7-1.1-0.7-1.9c0-0.8,0.2-1.7,0.7-2.5c-0.5-0.5-0.7-1.1-0.7-1.8c0-0.7,0.2-1.4,0.7-2
				c1.5,0.7,3.1,1,5,1c1.7,0,3.4-0.3,5.1-1c1.7,0.7,3.4,1,5.1,1c1.9,0,3.6-0.3,5.1-1c0.5,0.6,0.7,1.3,0.7,2c0,0.8-0.2,1.4-0.7,1.8
				C610.4,287.4,610.6,288.3,610.6,289.1z"/>
		</g>
	</g>
</g>
</svg>
