<?xml version="1.0" encoding="utf-8"?>
<!-- Generator: Adobe Illustrator 18.1.1, SVG Export Plug-In . SVG Version: 6.00 Build 0)  -->
<!DOCTYPE svg PUBLIC "-//W3C//DTD SVG 1.1//EN" "http://www.w3.org/Graphics/SVG/1.1/DTD/svg11.dtd">
<svg version="1.1" id="Layer_1" xmlns="http://www.w3.org/2000/svg" xmlns:xlink="http://www.w3.org/1999/xlink" x="0px" y="0px"
	 viewBox="0 0 648 504" enable-background="new 0 0 648 504" xml:space="preserve">
<g>
	<g id="blend">
		<g>
			<circle cx="50.9" cy="285.5" r="4.5"/>
			<circle cx="23.4" cy="285.5" r="3.5"/>
			<circle cx="1.8" cy="285.5" r="1.8"/>
		</g>
		<g>
			<circle cx="597.1" cy="285.5" r="4.5"/>
			<circle cx="624.6" cy="285.5" r="3.5"/>
			<circle cx="646.2" cy="285.5" r="1.8"/>
		</g>
		<g>
			<line fill="none" stroke="#000000" stroke-width="4.2463" stroke-miterlimit="10" x1="80.2" y1="285.6" x2="567.8" y2="285.6"/>
			<line fill="none" stroke="#000000" stroke-width="3.6094" stroke-miterlimit="10" x1="124.9" y1="328.9" x2="523.1" y2="328.9"/>
			<line fill="none" stroke="#000000" stroke-width="2.9724" stroke-miterlimit="10" x1="169.7" y1="372.2" x2="478.4" y2="372.2"/>
			<line fill="none" stroke="#000000" stroke-width="2.3355" stroke-miterlimit="10" x1="214.4" y1="415.5" x2="433.6" y2="415.5"/>
			<line fill="none" stroke="#000000" stroke-width="1.6985" stroke-miterlimit="10" x1="259.1" y1="458.8" x2="388.9" y2="458.8"/>
			<line fill="none" stroke="#000000" stroke-width="1.0616" stroke-miterlimit="10" x1="303.8" y1="502" x2="344.2" y2="502"/>
		</g>
	</g>
	<g id="quote">
		<g id="must">
			<path fill="#0D0D0D" d="M365.3,429.9c6.7-2.6,13.6,5.1,7.1,9.7c-12.3,5.3-30.6-26.5-49.4-9.5c-18.8-17-37.1,14.8-49.4,9.5
				c-6.5-4.7,0.4-12.3,7.1-9.7c-4.2-6.5-18.7-1.2-14.3,12.6c3.5,10.7,25.4,21.1,56.6,1c31.3,20.1,53.1,9.8,56.6-1
				C383.9,428.7,369.4,423.4,365.3,429.9z"/>
		</g>
		<g id="ribbon_1_">
			<polygon fill="#202021" points="243.9,395.9 129.5,395.9 140.7,420.6 129.5,443.7 243.9,443.7 			"/>
			<polygon fill="#202021" points="404.1,395.9 518.5,395.9 507.3,420.6 518.5,443.7 404.1,443.7 			"/>
			<polygon fill="#0D0D0D" points="181.7,371.7 243.7,394.5 243.7,443.6 181.7,421 			"/>
			<polygon fill="#0D0D0D" points="466.2,371.7 404.2,394.5 404.2,443.6 466.2,421 			"/>
			<path fill="#333335" d="M466.4,421c0,0-96.1-10.5-142.3-10.5S181.7,421,181.7,421v-49.3c0,0,87.6-10.5,142.3-10.5
				s142.3,10.5,142.3,10.5V421z"/>
		</g>
		<g id="trad_1_">
			<g>
				<path fill="#0D0D0D" d="M233.9,385c0,0.9-0.3,1.6-0.8,2.2c-2.5-1.3-4.5-1.9-6.2-1.9c-0.8,0-1.4,0.1-1.9,0.4
					c-0.1,3.5,0.4,6.1,1.6,7.8c-1.1,1.5-1.6,3.8-1.6,7c0,3,0.5,5.7,1.6,8.1c-0.8,0.7-1.6,1-2.6,1c-0.9,0-1.8-0.4-2.6-1.2
					c-0.9,0.8-1.7,1.2-2.7,1.2c-0.9,0-1.8-0.3-2.6-1c1.1-2.4,1.6-5.1,1.6-8.1c0-3.2-0.5-5.5-1.6-7c1.2-1.6,1.7-4.1,1.6-7.6
					c-0.4-0.4-1.1-0.6-2.1-0.6c-1.6,0-3.7,0.6-6.2,1.9c-0.6-0.6-0.8-1.3-0.8-2.2c0-0.9,0.3-1.9,0.8-3c-0.5-0.5-0.8-1.2-0.8-2.1
					c0-0.8,0.3-1.6,0.8-2.3c1.7,0.8,3.7,1.2,5.8,1.2c2,0,4-0.4,5.9-1.2c1.9,0.8,3.9,1.2,5.9,1.2c2.2,0,4.2-0.4,5.9-1.2
					c0.5,0.7,0.8,1.5,0.8,2.3c0,0.9-0.3,1.6-0.8,2.1C233.6,383.1,233.9,384.1,233.9,385z"/>
				<path fill="#0D0D0D" d="M258.8,409.6c-2.3,0-4.4-0.9-6.3-2.6c0.8-1.1,1.2-2.2,1.2-3.2c0-1.2-0.6-2.6-1.8-4.2
					c0.4-0.6,0.6-1.1,0.6-1.7c0-0.8-0.3-1.5-1-2.2c-0.7-0.6-1.5-0.9-2.3-0.9c-0.9,0-1.6,0.4-2.1,1.1c-0.6,0.8-1,2.1-1,3.7
					c0,4.1,0.8,7,2.4,8.6c-0.7,0.7-1.6,1-2.6,1c-1,0-1.9-0.4-2.8-1.2c-0.9,0.8-1.9,1.2-2.9,1.2c-1,0-1.8-0.3-2.6-1
					c1.1-2.3,1.6-5,1.6-7.9c0-3.1-0.5-5.4-1.6-6.8c1.1-1.5,1.6-3.7,1.6-6.8c0-3-0.5-5.6-1.6-7.9c0.7-0.7,1.6-1,2.6-1
					c1,0,1.9,0.4,2.9,1.2c1.8-0.9,3.8-1.3,6.1-1.3c2.6,0,4.8,0.5,6.6,1.6c1.9,1.1,2.9,2.6,2.9,4.3c0,1.7,0.6,2.8,1.5,3.3
					c-0.7,0.3-1.1,1-1.4,1.9c-0.1,0.4-0.2,0.8-0.2,1.3c-0.1,1.5-1.1,2.7-2.9,3.5c1.1,0.5,1.9,1.1,2.4,2c0.2,0.4,0.3,0.8,0.3,1.2
					c-0.1,1.3,0.5,2.1,1.5,2.5c0.1,0,0.1,0.6,0.3,1.7c0.2,1.4,0.4,2.7,0.8,3.7c0.6,1.6,1.3,2.9,2.4,4
					C261.8,409.3,260.3,409.6,258.8,409.6z M252,385.5c0-0.6-0.3-1.1-0.8-1.6c-0.5-0.4-1.2-0.6-1.9-0.6c-0.9,0-1.7,0.3-2.2,1
					c-0.7,0.8-1,1.9-1,3.3c0,1.4,0.3,2.5,1,3.2c0.6,0.6,1.3,1,2.2,1c0.7,0,1.3-0.2,1.9-0.6c0.5-0.4,0.8-0.9,0.8-1.6
					c0-0.7-0.3-1.3-1-2C251.7,386.8,252,386.1,252,385.5z"/>
				<path fill="#0D0D0D" d="M288,409.6c-0.9,0-1.4-0.3-1.7-0.8c0.7-1.4,1-2.9,1-4.2c0-1.7-0.5-3.2-1.4-4.3c-1-1.1-2.2-1.7-3.6-1.7
					c-1.5,0-2.7,0.6-3.7,1.7c-0.9,1.1-1.4,2.5-1.4,4.3c0,1.4,0.3,2.8,1,4.2c-0.2,0.5-0.8,0.8-1.7,0.8c-0.9,0-2-0.3-3.3-0.8
					c-0.6,0.5-1.3,0.8-2.2,0.8c-1.1,0-2.2-0.3-3.4-1c3.8-3.9,5.8-8.1,5.8-12.8c0-0.9-0.1-1.6-0.2-2.2c3.2-3.9,4.8-7.9,4.8-11.8
					c0-1.4-0.2-2.4-0.7-3.2c0.7-0.7,1.6-1,2.4-1c0.9,0,1.7,0.4,2.5,1.2c0.8-0.8,1.6-1.2,2.5-1.2c0.9,0,1.7,0.3,2.5,1
					c-0.5,0.7-0.7,1.8-0.7,3.2c0,3.9,1.6,7.9,4.8,11.8c-0.1,0.6-0.2,1.3-0.2,2.2c0,4.7,1.9,8.9,5.8,12.8c-1.2,0.7-2.3,1-3.4,1
					c-0.9,0-1.6-0.3-2.2-0.8C290.1,409.4,289,409.6,288,409.6z M282.3,388.8c-1.1,1.8-1.6,3.7-1.6,5.6c0.6-0.3,1.2-0.4,1.6-0.4
					c0.4,0,1,0.1,1.6,0.4C283.9,392.4,283.3,390.6,282.3,388.8z"/>
				<path fill="#0D0D0D" d="M323.7,393.6c-0.6,0.3-1.1,1-1.4,1.9c-0.1,0.4-0.2,0.9-0.2,1.4v6.8c-0.3,1.8-1.3,3.3-3.1,4.4
					c-1.8,1.1-3.9,1.6-6.3,1.6c-2.2,0-4.3-0.5-6.3-1.4c-0.9,0.8-1.9,1.2-2.8,1.2c-1,0-1.9-0.3-2.6-1c1.1-2.3,1.6-5,1.6-7.9
					c0-3.1-0.5-5.4-1.6-6.8c1.1-1.5,1.6-3.7,1.6-6.8c0-3-0.5-5.6-1.6-7.9c0.7-0.7,1.6-1,2.6-1c1,0,1.9,0.4,2.8,1.2
					c1.8-0.9,3.9-1.3,6.1-1.3c2.6,0,4.8,0.6,6.7,1.7c1.9,1.1,2.9,2.5,2.9,4.2v6.8C322.2,392,322.7,393.1,323.7,393.6z M315.7,386.6
					c0-1.1-0.3-2-1-2.7c-0.6-0.5-1.3-0.8-2.2-0.8c-0.8,0-1.5,0.2-2.2,0.7c-0.6,0.5-1,1.2-1,2v4.3c0.1,1.7,0.6,2.8,1.6,3.3
					c-0.7,0.3-1.1,1-1.4,1.9c-0.1,0.4-0.2,0.9-0.2,1.4v5.4c0,0.8,0.3,1.5,0.9,2c0.6,0.5,1.4,0.7,2.2,0.7c0.9,0,1.6-0.3,2.3-0.9
					c0.6-0.6,0.9-1.5,0.9-2.6v-4.6c-0.1-1.7-0.6-2.8-1.6-3.3c0.7-0.3,1.1-1,1.4-1.9c0.1-0.4,0.2-0.9,0.2-1.4V386.6z"/>
				<path fill="#0D0D0D" d="M333.4,408.5c-0.8,0.8-1.7,1.2-2.6,1.2c-0.9,0-1.7-0.3-2.5-1c1.1-2.3,1.6-5,1.6-8c0-3.1-0.5-5.5-1.6-6.9
					c1.1-1.5,1.6-3.8,1.6-6.9c0-3-0.5-5.7-1.6-8c0.8-0.7,1.6-1,2.5-1c0.9,0,1.8,0.4,2.6,1.2c0.9-0.8,1.7-1.2,2.7-1.2
					c0.9,0,1.7,0.3,2.5,1c-1.1,2.3-1.6,5-1.6,8c0,3.1,0.5,5.5,1.6,6.9c-1.1,1.5-1.6,3.8-1.6,6.9c0,3,0.5,5.7,1.6,8
					c-0.8,0.7-1.6,1-2.5,1C335.2,409.6,334.3,409.2,333.4,408.5z"/>
				<path fill="#0D0D0D" d="M368.7,385c0,0.9-0.3,1.6-0.8,2.2c-2.5-1.3-4.5-1.9-6.2-1.9c-0.8,0-1.4,0.1-1.9,0.4
					c-0.1,3.5,0.4,6.1,1.6,7.8c-1.1,1.5-1.6,3.8-1.6,7c0,3,0.5,5.7,1.6,8.1c-0.8,0.7-1.6,1-2.6,1c-0.9,0-1.8-0.4-2.6-1.2
					c-0.9,0.8-1.7,1.2-2.7,1.2c-0.9,0-1.8-0.3-2.6-1c1.1-2.4,1.6-5.1,1.6-8.1c0-3.2-0.5-5.5-1.6-7c1.2-1.6,1.7-4.1,1.6-7.6
					c-0.4-0.4-1.1-0.6-2.1-0.6c-1.6,0-3.7,0.6-6.2,1.9c-0.6-0.6-0.8-1.3-0.8-2.2c0-0.9,0.3-1.9,0.8-3c-0.5-0.5-0.8-1.2-0.8-2.1
					c0-0.8,0.3-1.6,0.8-2.3c1.7,0.8,3.7,1.2,5.8,1.2c2,0,4-0.4,5.9-1.2c1.9,0.8,3.9,1.2,5.9,1.2c2.2,0,4.2-0.4,5.9-1.2
					c0.5,0.7,0.8,1.5,0.8,2.3c0,0.9-0.3,1.6-0.8,2.1C368.4,383.1,368.7,384.1,368.7,385z"/>
				<path fill="#0D0D0D" d="M377.5,408.5c-0.8,0.8-1.7,1.2-2.6,1.2c-0.9,0-1.7-0.3-2.5-1c1.1-2.3,1.6-5,1.6-8c0-3.1-0.5-5.5-1.6-6.9
					c1.1-1.5,1.6-3.8,1.6-6.9c0-3-0.5-5.7-1.6-8c0.8-0.7,1.6-1,2.5-1c0.9,0,1.8,0.4,2.6,1.2c0.9-0.8,1.7-1.2,2.7-1.2
					c0.9,0,1.7,0.3,2.5,1c-1.1,2.3-1.6,5-1.6,8c0,3.1,0.5,5.5,1.6,6.9c-1.1,1.5-1.6,3.8-1.6,6.9c0,3,0.5,5.7,1.6,8
					c-0.8,0.7-1.6,1-2.5,1C379.3,409.6,378.4,409.2,377.5,408.5z"/>
				<path fill="#0D0D0D" d="M403.8,408.4c-1.4,0.6-3,1-4.8,1.2c-1.9-0.1-3.5-0.5-4.9-1.1c-3.3-1.5-4.9-4.2-4.9-8.1v-3.6
					c-0.1-1.7-0.6-2.8-1.6-3.2c0.7-0.3,1.1-1,1.4-1.9c0.1-0.4,0.2-0.8,0.2-1.3v-3.5c0-3.8,1.6-6.4,4.9-8c1.4-0.6,3-1,4.9-1.2
					c1.9,0.2,3.5,0.6,4.9,1.2c3.3,1.6,4.9,4.2,4.9,8v3.5c0.1,1.7,0.6,2.8,1.6,3.2c-0.7,0.3-1.1,1-1.4,1.9c-0.1,0.4-0.2,0.8-0.2,1.3
					v3.6C408.7,404.2,407,406.9,403.8,408.4z M402.3,396.8c-0.1-1.7-0.6-2.8-1.6-3.2c0.7-0.3,1.2-1,1.4-1.9c0.1-0.4,0.2-0.8,0.2-1.3
					V387c0-1.2-0.3-2.1-1-2.8c-0.6-0.7-1.4-1-2.3-1c-0.9,0-1.6,0.3-2.2,1c-0.6,0.7-1,1.6-1,2.8v3.3c0.1,1.7,0.6,2.8,1.6,3.2
					c-0.7,0.3-1.2,1-1.4,1.9c-0.1,0.4-0.2,0.8-0.2,1.3v3.3c0,1.2,0.3,2.1,1,2.8c0.6,0.7,1.4,1,2.2,1c0.9,0,1.6-0.3,2.3-1
					c0.6-0.7,1-1.6,1-2.8V396.8z"/>
				<path fill="#0D0D0D" d="M429.9,390.4c0.6-1.2,0.9-2.9,0.9-5c0-3.3-0.6-5.6-1.8-6.8c0.7-0.7,1.5-1,2.4-1c0.9,0,1.7,0.4,2.5,1.2
					c0.8-0.8,1.6-1.2,2.5-1.2c0.9,0,1.6,0.3,2.4,1l-0.6,1.6c-0.7,1.9-1.1,4-1.1,6.3c0,3.1,0.6,5.5,1.7,7.1c-1.1,1.5-1.6,3.8-1.6,6.9
					c0,3,0.5,5.7,1.6,8c-0.7,0.7-1.4,1-2.2,1c-0.9,0-1.7-0.4-2.4-1.2c-0.7,0.8-1.5,1.2-2.4,1.2c-0.8,0-1.6-0.3-2.3-1
					c1-1.2,1.6-2.7,1.6-4.4c0-1.8-0.6-3.5-1.9-5.1l-4.9-6.2c-0.9,1.9-1.4,4.3-1.4,7c0,3,0.6,5.9,1.8,8.7c-0.7,0.7-1.5,1-2.4,1
					c-0.9,0-1.7-0.4-2.5-1.2c-0.8,0.8-1.6,1.2-2.5,1.2c-0.9,0-1.6-0.3-2.4-1c1.1-2.3,1.6-5,1.6-8c0-3.1-0.5-5.5-1.6-6.9
					c1.1-1.6,1.7-3.9,1.7-7.1c0-2.3-0.4-4.4-1.1-6.3l-0.6-1.6c0.7-0.7,1.5-1,2.4-1c0.9,0,1.7,0.4,2.5,1.2c0.8-0.8,1.6-1.2,2.5-1.2
					c0.9,0,1.6,0.3,2.4,1c-0.4,0.9-0.6,1.7-0.6,2.6c0,1.1,0.3,2.1,1,2.9L429.9,390.4z"/>
			</g>
			<g>
				<path fill="#FCFCFC" d="M234.8,380.3c0,0.9-0.3,1.6-0.8,2.2c-2.5-1.3-4.5-1.9-6.2-1.9c-0.8,0-1.4,0.1-1.9,0.4
					c-0.1,3.5,0.4,6.1,1.6,7.8c-1.1,1.5-1.6,3.8-1.6,7c0,3,0.5,5.7,1.6,8.1c-0.8,0.7-1.6,1-2.6,1c-0.9,0-1.8-0.4-2.6-1.2
					c-0.9,0.8-1.7,1.2-2.7,1.2c-0.9,0-1.8-0.3-2.6-1c1.1-2.4,1.6-5.1,1.6-8.1c0-3.2-0.5-5.5-1.6-7c1.2-1.6,1.7-4.1,1.6-7.6
					c-0.4-0.4-1.1-0.6-2.1-0.6c-1.6,0-3.7,0.6-6.2,1.9c-0.6-0.6-0.8-1.3-0.8-2.2c0-0.9,0.3-1.9,0.8-3c-0.5-0.5-0.8-1.2-0.8-2.1
					c0-0.8,0.3-1.6,0.8-2.3c1.7,0.8,3.7,1.2,5.8,1.2c2,0,4-0.4,5.9-1.2c1.9,0.8,3.9,1.2,5.9,1.2c2.2,0,4.2-0.4,5.9-1.2
					c0.5,0.7,0.8,1.5,0.8,2.3c0,0.9-0.3,1.6-0.8,2.1C234.5,378.4,234.8,379.4,234.8,380.3z"/>
				<path fill="#FCFCFC" d="M259.8,404.9c-2.3,0-4.4-0.9-6.3-2.6c0.8-1.1,1.2-2.2,1.2-3.2c0-1.2-0.6-2.6-1.8-4.2
					c0.4-0.6,0.6-1.1,0.6-1.7c0-0.8-0.3-1.5-1-2.2c-0.7-0.6-1.5-0.9-2.3-0.9c-0.9,0-1.6,0.4-2.1,1.1c-0.6,0.8-1,2.1-1,3.7
					c0,4.1,0.8,7,2.4,8.6c-0.7,0.7-1.6,1-2.6,1c-1,0-1.9-0.4-2.8-1.2c-0.9,0.8-1.9,1.2-2.9,1.2c-1,0-1.8-0.3-2.6-1
					c1.1-2.3,1.6-5,1.6-7.9c0-3.1-0.5-5.4-1.6-6.8c1.1-1.5,1.6-3.7,1.6-6.8c0-3-0.5-5.6-1.6-7.9c0.7-0.7,1.6-1,2.6-1
					c1,0,1.9,0.4,2.9,1.2c1.8-0.9,3.8-1.3,6.1-1.3c2.6,0,4.8,0.5,6.6,1.6c1.9,1.1,2.9,2.6,2.9,4.3c0,1.7,0.6,2.8,1.5,3.3
					c-0.7,0.3-1.1,1-1.4,1.9c-0.1,0.4-0.2,0.8-0.2,1.3c-0.1,1.5-1.1,2.7-2.9,3.5c1.1,0.5,1.9,1.1,2.4,2c0.2,0.4,0.3,0.8,0.3,1.2
					c-0.1,1.3,0.5,2.1,1.5,2.5c0.1,0,0.1,0.6,0.3,1.7c0.2,1.4,0.4,2.7,0.8,3.7c0.6,1.6,1.3,2.9,2.4,4
					C262.7,404.6,261.2,404.9,259.8,404.9z M252.9,380.8c0-0.6-0.3-1.1-0.8-1.6c-0.5-0.4-1.2-0.6-1.9-0.6c-0.9,0-1.7,0.3-2.2,1
					c-0.7,0.8-1,1.9-1,3.3c0,1.4,0.3,2.5,1,3.2c0.6,0.6,1.3,1,2.2,1c0.7,0,1.3-0.2,1.9-0.6c0.5-0.4,0.8-0.9,0.8-1.6
					c0-0.7-0.3-1.3-1-2C252.6,382.1,252.9,381.4,252.9,380.8z"/>
				<path fill="#FCFCFC" d="M289,404.9c-0.9,0-1.4-0.3-1.7-0.8c0.7-1.4,1-2.9,1-4.2c0-1.7-0.5-3.2-1.4-4.3c-1-1.1-2.2-1.7-3.6-1.7
					c-1.5,0-2.7,0.6-3.7,1.7c-0.9,1.1-1.4,2.5-1.4,4.3c0,1.4,0.3,2.8,1,4.2c-0.2,0.5-0.8,0.8-1.7,0.8c-0.9,0-2-0.3-3.3-0.8
					c-0.6,0.5-1.3,0.8-2.2,0.8c-1.1,0-2.2-0.3-3.4-1c3.8-3.9,5.8-8.1,5.8-12.8c0-0.9-0.1-1.6-0.2-2.2c3.2-3.9,4.8-7.9,4.8-11.8
					c0-1.4-0.2-2.4-0.7-3.2c0.7-0.7,1.6-1,2.4-1c0.9,0,1.7,0.4,2.5,1.2c0.8-0.8,1.6-1.2,2.5-1.2c0.9,0,1.7,0.3,2.5,1
					c-0.5,0.7-0.7,1.8-0.7,3.2c0,3.9,1.6,7.9,4.8,11.8c-0.1,0.6-0.2,1.3-0.2,2.2c0,4.7,1.9,8.9,5.8,12.8c-1.2,0.7-2.3,1-3.4,1
					c-0.9,0-1.6-0.3-2.2-0.8C291,404.6,289.9,404.9,289,404.9z M283.2,384c-1.1,1.8-1.6,3.7-1.6,5.6c0.6-0.3,1.2-0.4,1.6-0.4
					c0.4,0,1,0.1,1.6,0.4C284.8,387.7,284.3,385.9,283.2,384z"/>
				<path fill="#FCFCFC" d="M324.6,388.9c-0.6,0.3-1.1,1-1.4,1.9c-0.1,0.4-0.2,0.9-0.2,1.4v6.8c-0.3,1.8-1.3,3.3-3.1,4.4
					c-1.8,1.1-3.9,1.6-6.3,1.6c-2.2,0-4.3-0.5-6.3-1.4c-0.9,0.8-1.9,1.2-2.8,1.2c-1,0-1.9-0.3-2.6-1c1.1-2.3,1.6-5,1.6-7.9
					c0-3.1-0.5-5.4-1.6-6.8c1.1-1.5,1.6-3.7,1.6-6.8c0-3-0.5-5.6-1.6-7.9c0.7-0.7,1.6-1,2.6-1c1,0,1.9,0.4,2.8,1.2
					c1.8-0.9,3.9-1.3,6.1-1.3c2.6,0,4.8,0.6,6.7,1.7c1.9,1.1,2.9,2.5,2.9,4.2v6.8C323.1,387.3,323.7,388.4,324.6,388.9z
					 M316.7,381.9c0-1.1-0.3-2-1-2.7c-0.6-0.5-1.3-0.8-2.2-0.8c-0.8,0-1.5,0.2-2.2,0.7c-0.6,0.5-1,1.2-1,2v4.3
					c0.1,1.7,0.6,2.8,1.6,3.3c-0.7,0.3-1.1,1-1.4,1.9c-0.1,0.4-0.2,0.9-0.2,1.4v5.4c0,0.8,0.3,1.5,0.9,2c0.6,0.5,1.4,0.7,2.2,0.7
					c0.9,0,1.6-0.3,2.3-0.9c0.6-0.6,0.9-1.5,0.9-2.6V392c-0.1-1.7-0.6-2.8-1.6-3.3c0.7-0.3,1.1-1,1.4-1.9c0.1-0.4,0.2-0.9,0.2-1.4
					V381.9z"/>
				<path fill="#FCFCFC" d="M334.4,403.8c-0.8,0.8-1.7,1.2-2.6,1.2c-0.9,0-1.7-0.3-2.5-1c1.1-2.3,1.6-5,1.6-8c0-3.1-0.5-5.5-1.6-6.9
					c1.1-1.5,1.6-3.8,1.6-6.9c0-3-0.5-5.7-1.6-8c0.8-0.7,1.6-1,2.5-1c0.9,0,1.8,0.4,2.6,1.2c0.9-0.8,1.7-1.2,2.7-1.2
					c0.9,0,1.7,0.3,2.5,1c-1.1,2.3-1.6,5-1.6,8c0,3.1,0.5,5.5,1.6,6.9c-1.1,1.5-1.6,3.8-1.6,6.9c0,3,0.5,5.7,1.6,8
					c-0.8,0.7-1.6,1-2.5,1C336.1,404.9,335.2,404.5,334.4,403.8z"/>
				<path fill="#FCFCFC" d="M369.6,380.3c0,0.9-0.3,1.6-0.8,2.2c-2.5-1.3-4.5-1.9-6.2-1.9c-0.8,0-1.4,0.1-1.9,0.4
					c-0.1,3.5,0.4,6.1,1.6,7.8c-1.1,1.5-1.6,3.8-1.6,7c0,3,0.5,5.7,1.6,8.1c-0.8,0.7-1.6,1-2.6,1c-0.9,0-1.8-0.4-2.6-1.2
					c-0.9,0.8-1.7,1.2-2.7,1.2c-0.9,0-1.8-0.3-2.6-1c1.1-2.4,1.6-5.1,1.6-8.1c0-3.2-0.5-5.5-1.6-7c1.2-1.6,1.7-4.1,1.6-7.6
					c-0.4-0.4-1.1-0.6-2.1-0.6c-1.6,0-3.7,0.6-6.2,1.9c-0.6-0.6-0.8-1.3-0.8-2.2c0-0.9,0.3-1.9,0.8-3c-0.5-0.5-0.8-1.2-0.8-2.1
					c0-0.8,0.3-1.6,0.8-2.3c1.7,0.8,3.7,1.2,5.8,1.2c2,0,4-0.4,5.9-1.2c1.9,0.8,3.9,1.2,5.9,1.2c2.2,0,4.2-0.4,5.9-1.2
					c0.5,0.7,0.8,1.5,0.8,2.3c0,0.9-0.3,1.6-0.8,2.1C369.3,378.4,369.6,379.4,369.6,380.3z"/>
				<path fill="#FCFCFC" d="M378.5,403.8c-0.8,0.8-1.7,1.2-2.6,1.2c-0.9,0-1.7-0.3-2.5-1c1.1-2.3,1.6-5,1.6-8c0-3.1-0.5-5.5-1.6-6.9
					c1.1-1.5,1.6-3.8,1.6-6.9c0-3-0.5-5.7-1.6-8c0.8-0.7,1.6-1,2.5-1c0.9,0,1.8,0.4,2.6,1.2c0.9-0.8,1.7-1.2,2.7-1.2
					c0.9,0,1.7,0.3,2.5,1c-1.1,2.3-1.6,5-1.6,8c0,3.1,0.5,5.5,1.6,6.9c-1.1,1.5-1.6,3.8-1.6,6.9c0,3,0.5,5.7,1.6,8
					c-0.8,0.7-1.6,1-2.5,1C380.2,404.9,379.3,404.5,378.5,403.8z"/>
				<path fill="#FCFCFC" d="M404.8,403.7c-1.4,0.6-3,1-4.8,1.2c-1.9-0.1-3.5-0.5-4.9-1.1c-3.3-1.5-4.9-4.2-4.9-8.1v-3.6
					c-0.1-1.7-0.6-2.8-1.6-3.2c0.7-0.3,1.1-1,1.4-1.9c0.1-0.4,0.2-0.8,0.2-1.3v-3.5c0-3.8,1.6-6.4,4.9-8c1.4-0.6,3-1,4.9-1.2
					c1.9,0.2,3.5,0.6,4.9,1.2c3.3,1.6,4.9,4.2,4.9,8v3.5c0.1,1.7,0.6,2.8,1.6,3.2c-0.7,0.3-1.1,1-1.4,1.9c-0.1,0.4-0.2,0.8-0.2,1.3
					v3.6C409.6,399.5,408,402.1,404.8,403.7z M403.3,392.1c-0.1-1.7-0.6-2.8-1.6-3.2c0.7-0.3,1.2-1,1.4-1.9c0.1-0.4,0.2-0.8,0.2-1.3
					v-3.3c0-1.2-0.3-2.1-1-2.8c-0.6-0.7-1.4-1-2.3-1c-0.9,0-1.6,0.3-2.2,1c-0.6,0.7-1,1.6-1,2.8v3.3c0.1,1.7,0.6,2.8,1.6,3.2
					c-0.7,0.3-1.2,1-1.4,1.9c-0.1,0.4-0.2,0.8-0.2,1.3v3.3c0,1.2,0.3,2.1,1,2.8c0.6,0.7,1.4,1,2.2,1c0.9,0,1.6-0.3,2.3-1
					c0.6-0.7,1-1.6,1-2.8V392.1z"/>
				<path fill="#FCFCFC" d="M430.8,385.7c0.6-1.2,0.9-2.9,0.9-5c0-3.3-0.6-5.6-1.8-6.8c0.7-0.7,1.5-1,2.4-1c0.9,0,1.7,0.4,2.5,1.2
					c0.8-0.8,1.6-1.2,2.5-1.2c0.9,0,1.6,0.3,2.4,1l-0.6,1.6c-0.7,1.9-1.1,4-1.1,6.3c0,3.1,0.6,5.5,1.7,7.1c-1.1,1.5-1.6,3.8-1.6,6.9
					c0,3,0.5,5.7,1.6,8c-0.7,0.7-1.4,1-2.2,1c-0.9,0-1.7-0.4-2.4-1.2c-0.7,0.8-1.5,1.2-2.4,1.2c-0.8,0-1.6-0.3-2.3-1
					c1-1.2,1.6-2.7,1.6-4.4c0-1.8-0.6-3.5-1.9-5.1l-4.9-6.2c-0.9,1.9-1.4,4.3-1.4,7c0,3,0.6,5.9,1.8,8.7c-0.7,0.7-1.5,1-2.4,1
					c-0.9,0-1.7-0.4-2.5-1.2c-0.8,0.8-1.6,1.2-2.5,1.2c-0.9,0-1.6-0.3-2.4-1c1.1-2.3,1.6-5,1.6-8c0-3.1-0.5-5.5-1.6-6.9
					c1.1-1.6,1.7-3.9,1.7-7.1c0-2.3-0.4-4.4-1.1-6.3l-0.6-1.6c0.7-0.7,1.5-1,2.4-1c0.9,0,1.7,0.4,2.5,1.2c0.8-0.8,1.6-1.2,2.5-1.2
					c0.9,0,1.6,0.3,2.4,1c-0.4,0.9-0.6,1.7-0.6,2.6c0,1.1,0.3,2.1,1,2.9L430.8,385.7z"/>
			</g>
		</g>
		<g id="its_decor">
			<path fill="#333335" d="M359.7,349.1c0.6-0.7,1-1.5,1.4-2.3c-0.1,0.1-0.3,0.1-0.5,0.1c-1.4,0.1-2.6-1.5-2.7-3.6
				c-0.1-2.1,0.9-3.8,2.2-3.9c1.4-0.1,2.6,1.5,2.7,3.6c0,0.2,0,0.4,0,0.6c0,1.6-0.3,3.2-1.1,4.7c-0.8,1.5-2,2.7-3.4,3.7
				c4.8-0.4,9.7,0,14.5,0.6c4.8,0.6,9.7,1.4,14.5,2.1c4.8,0.8,9.7,1.7,14.5,2.5c2.2,0.4,4.5,0.8,6.7,1.1c2,0.3,4,0.4,6.1,0.3
				c1.2-0.1,2.4-0.2,3.6-0.5c0.5-0.1,1.1-0.3,1.6-0.6c0.2-0.1,0.4-0.3,0.5-0.5c0-0.1,0.1-0.3-0.1-0.4c0,0-0.2,0.1-0.3,0.1
				c-0.1,0-0.2,0-0.3,0c-0.3-0.1-0.5-0.2-0.6-0.4c-0.3-0.3-0.4-0.8-0.1-1.1c0.7-0.6,1.7,0.5,1.9,1c0.5,1.1-0.9,1.7-1.8,2
				c-1.2,0.4-2.5,0.5-3.7,0.6c-1.2,0.1-2.3,0.1-3.5,0c1.5,0.2,3,0.4,4.6,0.6c2.4,0.3,4.8,0.5,7.2,0.7c2.4,0.1,4.9,0.2,7.3-0.1
				c1.1-0.1,2.3-0.4,3.3-0.8c1-0.4,1.8-1,2.4-1.9c0.6-0.9,0.9-1.9,0.8-2.9c-0.1-1-0.6-2-1.2-2.8c-1.2-1.7-3-3.1-4.8-4.3
				c-1.9-1.2-4-2.3-6.1-3.1c-2.2-0.9-4.4-1.6-6.7-2.2c-2.3-0.5-4.6-0.9-7-1c-1.1,0-2.3,0-3.3,0.4c-0.4,0.1-0.8,0.4-1,0.7
				c-0.2,0.4-0.1,1,0,1.4c0.1,0.3,0.2,0.5,0.3,0.7c0.1,0.2,0.2,0.5,0.4,0.7c0.3,0.3,0.8,0.5,1.2,0.6c0.8,0.3,1.7,0.3,2.5,0.3
				c0.8,0,1.6,0.1,2.2,0.5c0.8,0.5,1.4,1.3,1.7,2.2c0.2,0.7,0.1,1.5-0.4,2.1c-0.5,0.6-1.3,1.1-2.1,1.2c-0.8,0.1-1.6-0.3-2.2-0.8
				c-0.5-0.3-0.9-0.7-1.4-1c-0.4-0.3-0.9-0.7-1.3-1c-1.6-1.4-3-3.3-3.4-5.3c-0.2-1-0.1-2.1,0.5-3c0.6-0.9,1.6-1.4,2.7-1.6
				c2.1-0.5,4.5-0.2,6.6,0.2c4.6,0.9,9,2.8,13.1,4.9c2,1.1,4,2.3,5.8,3.6c1.7,1.3,3.3,2.8,4.2,4.7c0.5,1,0.7,2.1,0.5,3.1
				c-0.2,1-0.7,1.9-1.4,2.7c-1.4,1.6-3.8,2.1-6,2.4c-2.4,0.3-4.8,0.3-7.2,0.2c-2.4-0.1-4.8-0.3-7.2-0.5c-4.8-0.5-9.7-1.2-14.5-1.9
				c-4.8-0.7-9.7-1.5-14.5-2.2c-4.8-0.8-9.7-1.5-14.5-2c-4.8-0.6-9.7-1.1-14.6-1c-0.6,0-1.2,0-1.8,0.1c-0.3,0-0.6,0.1-0.9,0.1
				c-0.1,0-0.5,0.1-0.6,0c0,0-0.1-0.2-0.1-0.2c0-0.1-0.1-0.3-0.1-0.4c0-0.2-0.1-0.3-0.1-0.5C356.6,351.9,358.4,350.6,359.7,349.1z"
				/>
			<path fill="#333335" d="M288.6,349.1c-0.6-0.7-1-1.5-1.4-2.3c0.1,0.1,0.3,0.1,0.5,0.1c1.4,0.1,2.6-1.5,2.7-3.6s-0.9-3.8-2.2-3.9
				c-1.4-0.1-2.6,1.5-2.7,3.6c0,0.2,0,0.4,0,0.6c0,1.6,0.3,3.2,1.1,4.7c0.8,1.5,2,2.7,3.4,3.7c-4.8-0.4-9.7,0-14.5,0.6
				c-4.8,0.6-9.7,1.4-14.5,2.1c-4.8,0.8-9.7,1.7-14.5,2.5c-2.2,0.4-4.5,0.8-6.7,1.1c-2,0.3-4,0.4-6.1,0.3c-1.2-0.1-2.4-0.2-3.6-0.5
				c-0.5-0.1-1.1-0.3-1.6-0.6c-0.2-0.1-0.4-0.3-0.5-0.5c0-0.1-0.1-0.3,0.1-0.4c0,0,0.2,0.1,0.3,0.1c0.1,0,0.2,0,0.3,0
				c0.3-0.1,0.5-0.2,0.6-0.4c0.3-0.3,0.4-0.8,0.1-1.1c-0.7-0.6-1.7,0.5-1.9,1c-0.5,1.1,0.9,1.7,1.8,2c1.2,0.4,2.5,0.5,3.7,0.6
				c1.2,0.1,2.3,0.1,3.5,0c-1.5,0.2-3,0.4-4.6,0.6c-2.4,0.3-4.8,0.5-7.2,0.7c-2.4,0.1-4.9,0.2-7.3-0.1c-1.1-0.1-2.3-0.4-3.3-0.8
				c-1-0.4-1.8-1-2.4-1.9c-0.6-0.9-0.9-1.9-0.8-2.9c0.1-1,0.6-2,1.2-2.8c1.2-1.7,3-3.1,4.8-4.3c1.9-1.2,4-2.3,6.1-3.1
				c2.2-0.9,4.4-1.6,6.7-2.2c2.3-0.5,4.6-0.9,7-1c1.1,0,2.3,0,3.3,0.4c0.4,0.1,0.8,0.4,1,0.7c0.2,0.4,0.1,1,0,1.4
				c-0.1,0.3-0.2,0.5-0.3,0.7c-0.1,0.2-0.2,0.5-0.4,0.7c-0.3,0.3-0.8,0.5-1.2,0.6c-0.8,0.3-1.7,0.3-2.5,0.3c-0.8,0-1.6,0.1-2.2,0.5
				c-0.8,0.5-1.4,1.3-1.7,2.2c-0.2,0.7-0.1,1.5,0.4,2.1c0.5,0.6,1.3,1.1,2.1,1.2c0.8,0.1,1.6-0.3,2.2-0.8c0.5-0.3,0.9-0.7,1.4-1
				c0.4-0.3,0.9-0.7,1.3-1c1.6-1.4,3-3.3,3.4-5.3c0.2-1,0.1-2.1-0.5-3c-0.6-0.9-1.6-1.4-2.7-1.6c-2.1-0.5-4.5-0.2-6.6,0.2
				c-4.6,0.9-9,2.8-13.1,4.9c-2,1.1-4,2.3-5.8,3.6c-1.7,1.3-3.3,2.8-4.2,4.7c-0.5,1-0.7,2.1-0.5,3.1c0.2,1,0.7,1.9,1.4,2.7
				c1.4,1.6,3.8,2.1,6,2.4c2.4,0.3,4.8,0.3,7.2,0.2c2.4-0.1,4.8-0.3,7.2-0.5c4.8-0.5,9.7-1.2,14.5-1.9c4.8-0.7,9.7-1.5,14.5-2.2
				c4.8-0.8,9.7-1.5,14.5-2c4.8-0.6,9.7-1.1,14.6-1c0.6,0,1.2,0,1.8,0.1c0.3,0,0.6,0.1,0.9,0.1c0.1,0,0.5,0.1,0.6,0
				c0,0,0.1-0.2,0.1-0.2c0-0.1,0.1-0.3,0.1-0.4c0-0.2,0.1-0.3,0.1-0.5C291.7,351.9,289.8,350.6,288.6,349.1z"/>
		</g>
		<g id="its">
			<path d="M313.4,351.8c-0.1,0.2-0.2,0.5-0.4,0.8c-0.2,0.3-0.3,0.7-0.4,1.1c-0.1,0.4-0.2,0.7-0.2,1.1c0,0.3,0,0.6,0.1,0.8
				c0.1,0.2,0.3,0.4,0.5,0.5c0.2,0.1,0.5,0.1,0.8,0c0.3-0.1,0.7-0.3,1.2-0.8c0.5-0.4,1-0.9,1.5-1.4c0.5-0.5,1-1,1.4-1.5
				c0.4-0.5,0.7-0.8,0.8-1v1.7c-0.1,0.2-0.3,0.5-0.6,0.8c-0.3,0.4-0.7,0.7-1.1,1.2c-0.4,0.4-0.8,0.8-1.2,1.2c-0.4,0.4-0.7,0.7-1,0.9
				c-0.7,0.6-1.3,1.1-2,1.3s-1.3,0.4-2,0.3c-0.4-0.1-0.7-0.2-1.1-0.5c-0.3-0.3-0.5-0.5-0.7-0.9c-0.2-0.4-0.3-0.9-0.3-1.5
				c0-0.5,0-1.1,0.1-1.7c0.1-0.6,0.3-1.2,0.5-1.7c0.2-0.6,0.4-1.1,0.7-1.7c0.5-1,0.9-2,1.3-2.8c0.3-0.7,0.6-1.4,0.9-1.9
				c0.3-0.6,0.4-0.9,0.4-0.9c0.1-0.2,0.2-0.4,0.3-0.5c0.1-0.1,0.1-0.2,0.2-0.2c0.1-0.1,0.2-0.1,0.3-0.1c0.1,0,0.3,0,0.5,0h2.4
				c0.3,0,0.5,0.1,0.5,0.2c0,0.2-0.1,0.3-0.2,0.6L313.4,351.8z M316.5,338.2c0.4-0.1,0.7-0.1,1.1,0.1c0.3,0.1,0.6,0.4,0.7,0.7
				c0.1,0.4,0.2,0.8,0.1,1.3c-0.1,0.5-0.2,0.9-0.5,1.4c-0.2,0.4-0.5,0.8-0.9,1.2c-0.4,0.3-0.8,0.5-1.2,0.5c-0.7,0.1-1.2-0.1-1.5-0.6
				c-0.2-0.2-0.2-0.5-0.2-0.9c0-0.4,0.1-0.9,0.3-1.3c0.2-0.5,0.5-1,0.9-1.4C315.7,338.6,316.1,338.3,316.5,338.2z"/>
			<path d="M325.6,344.6c0.2,0,0.4,0.1,0.6,0.1c0.3,0,0.4,0.1,0.6,0.1c0.4,0.1,0.6,0.2,0.8,0.4s0.2,0.4,0.2,0.6c0,0.2,0,0.4-0.1,0.7
				c-0.1,0.3-0.2,0.4-0.4,0.5c-0.4,0.1-1,0.2-1.6,0.2c-0.6,0-1.2,0-1.7,0l-1,1.9c-0.3,0.6-0.6,1.2-0.9,1.8c-0.3,0.6-0.5,1.2-0.8,1.8
				c-0.2,0.6-0.4,1.1-0.5,1.6c-0.1,0.5-0.1,0.8,0,1c0.2,0.3,0.4,0.6,0.7,0.6c0.3,0.1,0.7,0,1.1-0.1c0.3-0.1,0.7-0.3,1.1-0.7
				c0.4-0.4,0.9-0.8,1.3-1.3c0.4-0.5,0.8-0.9,1.2-1.4c0.4-0.4,0.7-0.8,0.9-1.1v1.7c-0.3,0.4-0.7,0.9-1.2,1.5
				c-0.5,0.6-1.1,1.2-1.8,1.8c-0.9,0.8-1.8,1.4-2.6,1.8c-0.9,0.4-1.7,0.6-2.5,0.5c-0.4-0.1-0.7-0.2-1.1-0.4
				c-0.4-0.2-0.7-0.5-0.9-1.1c-0.2-0.4-0.3-0.9-0.3-1.5c0-0.6,0.2-1.2,0.3-1.8c0.2-0.6,0.4-1.3,0.7-1.9c0.3-0.6,0.5-1.2,0.7-1.6
				l1.3-3.3c-0.3,0-0.5,0-0.8-0.1c-0.3,0-0.5-0.2-0.7-0.5c-0.1-0.1-0.1-0.3-0.1-0.5c0-0.2,0.1-0.4,0.2-0.7c0.1-0.2,0.2-0.4,0.4-0.6
				c0.2-0.2,0.3-0.3,0.5-0.3c0.4-0.1,0.8-0.1,1.2-0.1c0.3,0,0.7-0.1,1-0.1c0.1-0.1,0.2-0.2,0.3-0.5c0.1-0.2,0.3-0.5,0.5-0.8
				c0.2-0.3,0.4-0.7,0.7-1c0.2-0.4,0.4-0.7,0.6-1c0.2-0.3,0.4-0.5,0.5-0.8c0.1-0.2,0.3-0.4,0.4-0.7c0.1-0.2,0.3-0.5,0.5-0.7
				c0.2-0.2,0.4-0.5,0.6-0.9c0.3-0.4,0.5-0.8,0.7-1c0.2-0.2,0.4-0.3,0.6-0.4c0.2-0.1,0.4-0.1,0.7-0.1c0.3,0,0.6,0,1,0
				c0.4,0,0.7,0,0.9,0c0.2,0,0.4,0.2,0.5,0.6c0.1,0.2-0.1,0.6-0.5,1.2c-0.4,0.6-0.9,1.4-1.6,2.5c-0.3,0.5-0.6,1-0.9,1.4
				c-0.2,0.4-0.5,0.8-0.8,1.2C326,343.9,325.8,344.3,325.6,344.6z"/>
			<path d="M336.2,342.4c0.1,0.2,0.1,0.4,0,0.7c-0.1,0.3-0.2,0.6-0.4,0.8c-0.1,0.1-0.2,0.2-0.3,0.3c-0.1,0.1-0.2,0.2-0.4,0.4
				c-0.1,0.1-0.2,0.3-0.3,0.4c0,0.1-0.1,0.3-0.1,0.4c-0.1,0.4-0.2,0.8-0.1,1.3c0.1,0.5,0.2,1,0.3,1.6c0.1,0.5,0.2,1,0.2,1.4
				c0.1,0.4,0.1,0.9,0.1,1.5c0,1.7-0.1,3.3-0.4,4.6c0.2-0.1,0.6-0.4,1-0.7c0.4-0.4,0.8-0.7,1.2-1.2c0.4-0.4,0.8-0.9,1.2-1.3
				c0.4-0.4,0.7-0.8,0.9-1.1v1.7c-1.8,2.3-3.5,3.9-4.9,4.8c-1.4,0.9-2.8,1.2-4.2,0.8c-0.6-0.2-1.1-0.4-1.6-0.8
				c-0.5-0.4-0.9-0.8-1.2-1.4c-0.2-0.3-0.3-0.8-0.4-1.3c-0.1-0.5-0.1-1.1-0.1-1.7c0-0.6,0-1.2,0.1-1.7c0.1-0.6,0.1-1.1,0.2-1.4
				c0.2-0.1,0.3-0.1,0.5-0.3c0.2-0.1,0.3-0.2,0.4-0.3c0.4-0.5,0.9-1,1.4-1.5c0.4-0.4,0.8-0.9,1.2-1.4c0.4-0.5,0.8-0.9,1.2-1.3
				c0.2-0.2,0.4-0.5,0.6-0.7s0.4-0.5,0.6-0.8c0.2-0.3,0.5-0.6,0.7-0.9c0.2-0.3,0.4-0.5,0.6-0.7c0.2-0.2,0.4-0.4,0.6-0.4
				c0.2-0.1,0.5-0.1,0.7-0.1C335.9,342,336.1,342.1,336.2,342.4z M329.2,350.5c0.2,0.7,0.2,1.4,0,2c-0.2,0.7-0.6,1.1-1.1,1.3
				c0.1,0.3,0.2,0.6,0.3,1c0.1,0.4,0.5,0.7,1,0.9c0.4,0.2,0.8,0.2,1.2,0.1c0.4-0.1,0.8-0.3,1.1-0.6c0.5-0.5,0.9-1.1,1.1-1.8
				c0.2-0.8,0.3-1.5,0.3-2.3c0-0.8-0.1-1.6-0.2-2.3c-0.1-0.7-0.2-1.3-0.4-1.7c-0.7,0.6-1.4,1.2-1.9,1.8
				C330.1,349.3,329.6,349.9,329.2,350.5z"/>
		</g>
		<g id="its_not">
			<g id="_its_not_1_">
				<path fill="#FFFFFF" d="M134.2,321.7c-0.7,0.7-1.5,1-2.2,1c-0.8,0-1.5-0.3-2.1-0.9c0.9-2,1.4-4.3,1.4-6.8c0-2.7-0.5-4.6-1.4-5.9
					c0.9-1.2,1.4-3.2,1.4-5.9c0-2.6-0.5-4.8-1.4-6.8c0.7-0.6,1.4-0.9,2.1-0.9c0.8,0,1.5,0.3,2.2,1c0.7-0.7,1.5-1,2.3-1
					c0.8,0,1.5,0.3,2.1,0.9c-0.9,2-1.4,4.3-1.4,6.8c0,2.7,0.5,4.6,1.4,5.9c-0.9,1.2-1.4,3.2-1.4,5.9c0,2.6,0.5,4.8,1.4,6.8
					c-0.7,0.6-1.4,0.9-2.1,0.9C135.6,322.7,134.9,322.3,134.2,321.7z"/>
				<path fill="#FFFFFF" d="M159.9,301.7c0,0.7-0.2,1.4-0.7,1.9c-2.1-1.1-3.9-1.6-5.2-1.6c-0.7,0-1.2,0.1-1.6,0.4
					c-0.1,3,0.4,5.2,1.4,6.6c-0.9,1.2-1.4,3.2-1.4,5.9c0,2.6,0.5,4.9,1.4,6.9c-0.7,0.6-1.4,0.9-2.2,0.9c-0.8,0-1.5-0.3-2.2-1
					c-0.7,0.7-1.5,1-2.3,1c-0.8,0-1.5-0.3-2.2-0.9c0.9-2,1.4-4.3,1.4-6.9c0-2.7-0.5-4.7-1.4-5.9c1-1.4,1.5-3.5,1.4-6.4
					c-0.4-0.4-1-0.5-1.8-0.5c-1.4,0-3.1,0.5-5.2,1.6c-0.5-0.5-0.7-1.1-0.7-1.9c0-0.8,0.2-1.6,0.7-2.5c-0.5-0.5-0.7-1.1-0.7-1.8
					c0-0.7,0.2-1.4,0.7-2c1.5,0.7,3.1,1,5,1c1.7,0,3.4-0.3,5-1c1.7,0.7,3.3,1,5,1c1.9,0,3.5-0.3,5-1c0.5,0.6,0.7,1.3,0.7,2
					c0,0.7-0.2,1.3-0.7,1.8C159.6,300.1,159.9,301,159.9,301.7z"/>
				<path fill="#FFFFFF" d="M172.3,303.2c-1.2-2.4-2.8-3.6-4.6-3.6c-0.9,0-1.6,0.3-2.2,0.9c-0.6,0.6-0.9,1.2-0.9,2
					c0,0.7,0.3,1.5,0.9,2.1c0.7,0.6,1.6,1,2.5,1c0.5,0,1-0.1,1.4-0.3c0.2,0.7,0.8,1.4,1.7,2.2c0.4,0.3,0.9,0.6,1.4,1
					c2.6,1.4,3.9,3.5,3.9,6.4c0,2.1-0.8,3.9-2.3,5.4c-1.7,1.6-4,2.4-6.8,2.4c-1.4,0-2.9-0.2-4.5-0.6c-0.3-0.1-0.8-0.3-1.5-0.7
					c-0.5-0.3-1-0.4-1.4-0.4c-0.6,0-1.3,0.3-2.1,0.8c0-0.2-0.1-0.5-0.1-0.7c0-1.3,0.5-2.3,1.4-2.9c-0.3-0.4-0.4-0.9-0.4-1.5
					c0-0.8,0.2-1.7,0.7-2.7c0.8,1.5,2,2.6,3.4,3.4c1.2,0.7,2.6,1.1,3.9,1.1c1.1,0,2-0.2,2.8-0.7c0.7-0.5,1.1-1.1,1.1-1.9
					c0-0.8-0.4-1.7-1.2-2.6c-0.8-0.7-1.7-1-2.9-1c-0.6,0-1.1,0.1-1.6,0.2c-0.1-1.6-0.8-2.6-2-3.1c-2.4-1.4-3.7-3.4-3.7-6
					c0-2,0.7-3.9,2.2-5.4c1.6-1.7,3.4-2.5,5.6-2.5c1.3,0,2.6,0.3,3.9,1c0.3,0.2,0.6,0.4,0.9,0.5c0.3,0.2,0.6,0.2,1,0.2
					c0.4,0,0.9,0,1.6-0.1c0,0.2,0.1,0.4,0.1,0.6c0,0.8-0.4,1.6-1.1,2.4C173.6,301.2,173.1,302.3,172.3,303.2z"/>
				<path fill="#FFFFFF" d="M202.9,306.3c0.5-1,0.7-2.4,0.7-4.3c0-2.8-0.5-4.8-1.5-5.7c0.6-0.6,1.3-0.9,2-0.9c0.7,0,1.4,0.3,2.1,1
					c0.7-0.7,1.4-1,2.1-1c0.7,0,1.4,0.3,2,0.9l-0.5,1.4c-0.6,1.6-1,3.4-1,5.3c0,2.7,0.5,4.7,1.5,6c-0.9,1.2-1.4,3.2-1.4,5.9
					c0,2.6,0.5,4.8,1.4,6.8c-0.6,0.6-1.2,0.9-1.9,0.9c-0.7,0-1.4-0.3-2-1c-0.6,0.7-1.3,1-2,1c-0.7,0-1.3-0.3-1.9-0.9
					c0.9-1,1.3-2.3,1.3-3.7c0-1.6-0.5-3-1.6-4.4l-4.1-5.3c-0.8,1.6-1.2,3.6-1.2,6c0,2.5,0.5,5,1.5,7.4c-0.6,0.6-1.3,0.9-2,0.9
					c-0.7,0-1.5-0.3-2.1-1c-0.7,0.7-1.4,1-2.1,1c-0.7,0-1.4-0.3-2-0.9c0.9-2,1.4-4.3,1.4-6.8c0-2.7-0.5-4.6-1.4-5.9
					c1-1.3,1.5-3.3,1.5-6c0-2-0.3-3.7-0.9-5.3l-0.5-1.4c0.6-0.6,1.3-0.9,2-0.9c0.7,0,1.5,0.3,2.1,1c0.7-0.7,1.4-1,2.1-1
					c0.7,0,1.4,0.3,2,0.9c-0.3,0.7-0.5,1.5-0.5,2.2c0,0.9,0.3,1.8,0.9,2.5L202.9,306.3z"/>
				<path fill="#FFFFFF" d="M224.1,321.6c-1.2,0.5-2.5,0.9-4.1,1c-1.6-0.1-3-0.4-4.2-0.9c-2.8-1.3-4.1-3.6-4.1-6.9v-3.1
					c-0.1-1.4-0.5-2.3-1.4-2.8c0.6-0.3,1-0.8,1.2-1.6c0.1-0.3,0.1-0.7,0.2-1.1v-3c0-3.2,1.4-5.5,4.1-6.8c1.2-0.5,2.5-0.9,4.2-1
					c1.6,0.1,3,0.5,4.1,1c2.8,1.3,4.1,3.6,4.1,6.8v3c0.1,1.4,0.5,2.3,1.4,2.8c-0.6,0.3-1,0.8-1.2,1.6c-0.1,0.3-0.1,0.7-0.2,1.1v3.1
					C228.2,318,226.8,320.3,224.1,321.6z M222.8,311.7c-0.1-1.4-0.5-2.3-1.4-2.8c0.6-0.3,1-0.8,1.2-1.6c0.1-0.3,0.1-0.7,0.2-1.1
					v-2.8c0-1-0.3-1.8-0.8-2.3c-0.5-0.6-1.2-0.9-1.9-0.9c-0.7,0-1.4,0.3-1.9,0.9c-0.5,0.6-0.8,1.3-0.8,2.3v2.8
					c0.1,1.4,0.5,2.3,1.4,2.8c-0.6,0.3-1,0.8-1.2,1.6c-0.1,0.3-0.1,0.7-0.2,1.1v2.8c0,1,0.3,1.8,0.8,2.4c0.5,0.6,1.2,0.8,1.9,0.8
					c0.7,0,1.4-0.3,1.9-0.8s0.8-1.3,0.8-2.4V311.7z"/>
				<path fill="#FFFFFF" d="M249.4,301.7c0,0.7-0.2,1.4-0.7,1.9c-2.1-1.1-3.9-1.6-5.2-1.6c-0.7,0-1.2,0.1-1.6,0.4
					c-0.1,3,0.4,5.2,1.4,6.6c-0.9,1.2-1.4,3.2-1.4,5.9c0,2.6,0.5,4.9,1.4,6.9c-0.7,0.6-1.4,0.9-2.2,0.9c-0.8,0-1.5-0.3-2.2-1
					c-0.7,0.7-1.5,1-2.3,1c-0.8,0-1.5-0.3-2.2-0.9c0.9-2,1.4-4.3,1.4-6.9c0-2.7-0.5-4.7-1.4-5.9c1-1.4,1.5-3.5,1.4-6.4
					c-0.4-0.4-1-0.5-1.8-0.5c-1.4,0-3.1,0.5-5.2,1.6c-0.5-0.5-0.7-1.1-0.7-1.9c0-0.8,0.2-1.6,0.7-2.5c-0.5-0.5-0.7-1.1-0.7-1.8
					c0-0.7,0.2-1.4,0.7-2c1.5,0.7,3.1,1,5,1c1.7,0,3.4-0.3,5-1c1.7,0.7,3.3,1,5,1c1.9,0,3.5-0.3,5-1c0.5,0.6,0.7,1.3,0.7,2
					c0,0.7-0.2,1.3-0.7,1.8C249.1,300.1,249.4,301,249.4,301.7z"/>
				<path fill="#FFFFFF" d="M279.8,306.1c0.1,1.5,0.5,2.4,1.4,2.8c-0.6,0.3-1,0.8-1.2,1.6c-0.1,0.3-0.1,0.7-0.2,1.2v3
					c0,0.3,0,0.6,0,1c0,2.9-1.3,4.9-4,6.1c-1.1,0.5-2.4,0.8-4,0.9c-0.4,0-0.8,0-1.1,0c-3,0-5.1-1.1-6.3-3.2
					c-0.5-0.9-0.8-1.9-0.9-3.2c0.1-1.4-0.1-2.4-0.7-3c0.4-0.5,0.9-0.7,1.5-0.7c0.5,0,1.1,0.2,1.6,0.5c0.4-0.8,1.2-1.2,2.3-1.2
					c0.8,0,1.4,0.2,1.7,0.5c-0.7,1-1,1.9-1,2.8c0,0.7,0.2,1.4,0.7,1.8c0.5,0.5,1,0.7,1.7,0.7h0.2c1.1,0,1.9-0.3,2.3-0.9
					c0.3-0.5,0.5-1.2,0.5-2.4v-2.8c-0.1-1.5-0.5-2.4-1.4-2.8c0.6-0.3,1-0.9,1.2-1.7c0.1-0.3,0.2-0.7,0.2-1.2v-2.8
					c0-2-0.2-3.5-0.7-4.5c-0.2-0.5-0.9-1.3-2-2.4c1-0.6,1.8-0.9,2.6-0.9c0.7,0,1.5,0.3,2.4,0.9c0.8-0.7,1.6-1,2.4-1
					c0.8,0,1.5,0.3,2.2,0.9c-0.9,0.9-1.3,3.1-1.3,6.8V306.1z"/>
				<path fill="#FFFFFF" d="M295.2,321.6c-1.2,0.6-2.5,0.9-4.2,1.1c-1.6-0.1-3-0.4-4.2-1c-2.8-1.3-4.2-3.6-4.2-7v-3.1
					c-0.1-1.5-0.5-2.4-1.4-2.8c0.6-0.3,1-0.9,1.2-1.7c0.1-0.3,0.1-0.7,0.2-1.2v-3c-0.1-2.8-0.7-5-1.8-6.7c0.8-0.6,1.7-1,2.6-1
					c0.8,0,1.5,0.3,2.1,0.9c0.7-0.6,1.5-0.9,2.3-0.9c0.7,0,1.5,0.3,2.1,0.8c-1,1.9-1.5,4.2-1.5,6.9v2.8c0,1.5,0.5,2.4,1.4,2.8
					c-0.6,0.3-1,0.8-1.2,1.6c-0.1,0.3-0.2,0.7-0.2,1.2v2.8c0,1,0.3,1.8,0.9,2.4c0.5,0.5,1.2,0.8,1.9,0.8c0.7,0,1.4-0.3,1.9-0.8
					c0.6-0.6,0.9-1.4,0.9-2.4v-2.8c-0.1-1.5-0.5-2.4-1.4-2.8c0.6-0.3,1-0.9,1.2-1.7c0.1-0.3,0.1-0.7,0.2-1.2v-2.8
					c0-2.7-0.5-5-1.5-6.9c0.6-0.5,1.3-0.8,2.1-0.8c0.8,0,1.5,0.3,2.2,0.9c0.5-0.6,1.1-0.9,1.8-0.9c0.8,0,1.6,0.3,2.4,1
					c-0.6,1.1-1.1,2.6-1.3,4.3c-0.1,0.7-0.2,1.5-0.2,2.3v3c0.1,1.5,0.5,2.4,1.4,2.8c-0.6,0.3-1,0.8-1.2,1.6
					c-0.1,0.3-0.2,0.7-0.2,1.2v3.1C299.4,318,297.9,320.3,295.2,321.6z"/>
				<path fill="#FFFFFF" d="M313.2,303.2c-1.2-2.4-2.8-3.6-4.6-3.6c-0.9,0-1.6,0.3-2.2,0.9c-0.6,0.6-0.9,1.2-0.9,2
					c0,0.7,0.3,1.5,0.9,2.1c0.7,0.6,1.6,1,2.5,1c0.5,0,1-0.1,1.4-0.3c0.2,0.7,0.8,1.4,1.7,2.2c0.4,0.3,0.9,0.6,1.4,1
					c2.6,1.4,3.9,3.5,3.9,6.4c0,2.1-0.8,3.9-2.3,5.4c-1.7,1.6-4,2.4-6.8,2.4c-1.4,0-2.9-0.2-4.5-0.6c-0.3-0.1-0.8-0.3-1.5-0.7
					c-0.5-0.3-1-0.4-1.4-0.4c-0.6,0-1.3,0.3-2.1,0.8c0-0.2-0.1-0.5-0.1-0.7c0-1.3,0.5-2.3,1.4-2.9c-0.3-0.4-0.4-0.9-0.4-1.5
					c0-0.8,0.2-1.7,0.7-2.7c0.8,1.5,2,2.6,3.4,3.4c1.2,0.7,2.6,1.1,3.9,1.1c1.1,0,2-0.2,2.8-0.7c0.7-0.5,1.1-1.1,1.1-1.9
					c0-0.8-0.4-1.7-1.2-2.6c-0.8-0.7-1.7-1-2.9-1c-0.6,0-1.1,0.1-1.6,0.2c-0.1-1.6-0.8-2.6-2-3.1c-2.4-1.4-3.7-3.4-3.7-6
					c0-2,0.7-3.9,2.2-5.4c1.6-1.7,3.4-2.5,5.6-2.5c1.3,0,2.6,0.3,3.9,1c0.3,0.2,0.6,0.4,0.9,0.5c0.3,0.2,0.6,0.2,1,0.2
					c0.4,0,0.9,0,1.6-0.1c0,0.2,0.1,0.4,0.1,0.6c0,0.8-0.4,1.6-1.1,2.4C314.4,301.2,314,302.3,313.2,303.2z"/>
				<path fill="#FFFFFF" d="M336.5,301.7c0,0.7-0.2,1.4-0.7,1.9c-2.1-1.1-3.9-1.6-5.2-1.6c-0.7,0-1.2,0.1-1.6,0.4
					c-0.1,3,0.4,5.2,1.4,6.6c-0.9,1.2-1.4,3.2-1.4,5.9c0,2.6,0.5,4.9,1.4,6.9c-0.7,0.6-1.4,0.9-2.2,0.9c-0.8,0-1.5-0.3-2.2-1
					c-0.7,0.7-1.5,1-2.3,1c-0.8,0-1.5-0.3-2.2-0.9c0.9-2,1.4-4.3,1.4-6.9c0-2.7-0.5-4.7-1.4-5.9c1-1.4,1.5-3.5,1.4-6.4
					c-0.4-0.4-1-0.5-1.8-0.5c-1.4,0-3.1,0.5-5.2,1.6c-0.5-0.5-0.7-1.1-0.7-1.9c0-0.8,0.2-1.6,0.7-2.5c-0.5-0.5-0.7-1.1-0.7-1.8
					c0-0.7,0.2-1.4,0.7-2c1.5,0.7,3.1,1,5,1c1.7,0,3.4-0.3,5-1c1.7,0.7,3.3,1,5,1c1.9,0,3.5-0.3,5-1c0.5,0.6,0.7,1.3,0.7,2
					c0,0.7-0.2,1.3-0.7,1.8C336.2,300.1,336.5,301,336.5,301.7z"/>
				<path fill="#FFFFFF" d="M367.2,322.7c-0.7,0-1.2-0.2-1.4-0.7c0.6-1.2,0.9-2.4,0.9-3.6c0-1.5-0.4-2.7-1.2-3.6
					c-0.8-1-1.8-1.4-3.1-1.4c-1.3,0-2.3,0.5-3.1,1.4c-0.8,1-1.2,2.2-1.2,3.6c0,1.2,0.3,2.4,0.8,3.6c-0.2,0.5-0.7,0.7-1.4,0.7
					c-0.8,0-1.7-0.2-2.8-0.7c-0.5,0.5-1.1,0.7-1.8,0.7c-0.9,0-1.9-0.3-2.9-0.9c3.3-3.3,4.9-6.9,4.9-10.9c0-0.7-0.1-1.3-0.2-1.9
					c2.7-3.4,4.1-6.7,4.1-10c0-1.2-0.2-2.1-0.6-2.7c0.6-0.6,1.3-0.9,2.1-0.9c0.8,0,1.5,0.3,2.1,1c0.7-0.7,1.4-1,2.1-1
					c0.8,0,1.5,0.3,2.1,0.9c-0.4,0.6-0.6,1.5-0.6,2.7c0,3.3,1.4,6.7,4.1,10c-0.1,0.5-0.2,1.1-0.2,1.9c0,4,1.6,7.6,4.9,10.9
					c-1,0.6-2,0.9-2.9,0.9c-0.7,0-1.4-0.2-1.8-0.7C368.9,322.4,368,322.7,367.2,322.7z M362.3,304.9c-0.9,1.6-1.4,3.1-1.4,4.7
					c0.5-0.2,1-0.4,1.4-0.4c0.4,0,0.8,0.1,1.4,0.4C363.7,308,363.2,306.5,362.3,304.9z"/>
				<path fill="#FFFFFF" d="M400.5,300.5c-0.2-2-0.6-3.4-1.4-4.1c0.6-0.6,1.3-0.9,2.1-0.9c0.8,0,1.5,0.3,2.2,1c0.7-0.7,1.5-1,2.2-1
					c0.8,0,1.5,0.3,2.2,0.9c-0.9,2-1.4,4.3-1.4,6.8c0,2.7,0.5,4.6,1.4,5.9c-0.9,1.2-1.4,3.2-1.4,5.9c0,2.6,0.5,4.8,1.4,6.8
					c-0.7,0.6-1.4,0.9-2.2,0.9c-0.8,0-1.5-0.3-2.2-1c-0.7,0.7-1.5,1-2.2,1c-0.8,0-1.5-0.3-2.1-0.9c0.7-0.7,1.2-2.1,1.4-4.1
					c0-0.5,0.1-2,0.1-4.3c0-1.3-0.5-2.2-1.4-2.6c-0.4-0.1-0.7-0.1-1-0.1c-0.3,0-0.6,0-1,0.1c-0.9,0.4-1.4,1.2-1.4,2.6
					c0,2.3,0,3.7,0.1,4.3c0.2,2,0.6,3.4,1.4,4.1c-0.7,0.6-1.4,0.9-2.1,0.9c-0.8,0-1.6-0.3-2.3-1c-0.7,0.7-1.5,1-2.2,1
					c-0.8,0-1.5-0.3-2.1-0.9c0.9-2,1.4-4.3,1.4-6.8c0-2.7-0.5-4.6-1.4-5.9c0.9-1.2,1.4-3.2,1.4-5.9c0-2.6-0.5-4.8-1.4-6.8
					c0.7-0.6,1.4-0.9,2.1-0.9c0.8,0,1.5,0.3,2.2,1c0.7-0.7,1.5-1,2.3-1c0.8,0,1.5,0.3,2.1,0.9c-0.7,0.7-1.2,2.1-1.4,4.1
					c0,0.5-0.1,2-0.1,4.3c0,1.3,0.5,2.2,1.4,2.6c0.4,0.1,0.7,0.1,1,0.1c0.3,0,0.6,0,1-0.1c1-0.4,1.4-1.2,1.4-2.6
					C400.6,302.4,400.6,301,400.5,300.5z"/>
				<path fill="#FFFFFF" d="M425.2,322.7c-0.7,0-1.2-0.2-1.4-0.7c0.6-1.2,0.9-2.4,0.9-3.6c0-1.5-0.4-2.7-1.2-3.6
					c-0.8-1-1.8-1.4-3.1-1.4c-1.3,0-2.3,0.5-3.1,1.4c-0.8,1-1.2,2.2-1.2,3.6c0,1.2,0.3,2.4,0.8,3.6c-0.2,0.5-0.7,0.7-1.4,0.7
					c-0.8,0-1.7-0.2-2.8-0.7c-0.5,0.5-1.1,0.7-1.8,0.7c-0.9,0-1.9-0.3-2.9-0.9c3.3-3.3,4.9-6.9,4.9-10.9c0-0.7-0.1-1.3-0.2-1.9
					c2.7-3.4,4.1-6.7,4.1-10c0-1.2-0.2-2.1-0.6-2.7c0.6-0.6,1.3-0.9,2.1-0.9c0.8,0,1.5,0.3,2.1,1c0.7-0.7,1.4-1,2.1-1
					c0.8,0,1.5,0.3,2.1,0.9c-0.4,0.6-0.6,1.5-0.6,2.7c0,3.3,1.4,6.7,4.1,10c-0.1,0.5-0.2,1.1-0.2,1.9c0,4,1.6,7.6,4.9,10.9
					c-1,0.6-2,0.9-2.9,0.9c-0.7,0-1.4-0.2-1.8-0.7C426.9,322.4,426,322.7,425.2,322.7z M420.3,304.9c-0.9,1.6-1.4,3.1-1.4,4.7
					c0.5-0.2,1-0.4,1.4-0.4c0.4,0,0.8,0.1,1.4,0.4C421.6,308,421.2,306.5,420.3,304.9z"/>
				<path fill="#FFFFFF" d="M436.3,321.7c-0.7,0.7-1.5,1-2.2,1c-0.8,0-1.5-0.3-2.1-0.9c0.9-2,1.4-4.3,1.4-6.8c0-2.7-0.5-4.6-1.4-5.9
					c0.9-1.2,1.4-3.2,1.4-5.9c0-2.6-0.5-4.8-1.4-6.8c0.7-0.6,1.4-0.9,2.1-0.9c0.8,0,1.5,0.3,2.2,1c0.7-0.7,1.5-1,2.3-1
					c0.8,0,1.5,0.3,2.1,0.9c-0.9,2-1.4,4.3-1.4,6.8c0,2.7,0.5,4.6,1.4,5.9c-0.9,1.2-1.4,3.2-1.4,5.9c0,2.6,0.5,4.8,1.4,6.8
					c-0.7,0.6-1.4,0.9-2.1,0.9C437.8,322.7,437,322.3,436.3,321.7z"/>
				<path fill="#FFFFFF" d="M458.7,322.7c-1.9,0-3.7-0.7-5.4-2.2c0.7-1,1.1-1.8,1.1-2.7c0-1-0.5-2.2-1.6-3.6c0.3-0.5,0.5-1,0.5-1.5
					c0-0.7-0.3-1.3-0.9-1.8c-0.6-0.5-1.2-0.8-2-0.8c-0.7,0-1.3,0.3-1.8,0.9c-0.5,0.7-0.8,1.8-0.8,3.2c0,3.5,0.7,5.9,2,7.3
					c-0.6,0.6-1.4,0.9-2.2,0.9c-0.8,0-1.6-0.3-2.4-1c-0.8,0.7-1.6,1-2.4,1c-0.8,0-1.5-0.3-2.2-0.9c0.9-2,1.4-4.2,1.4-6.7
					c0-2.6-0.5-4.6-1.4-5.8c0.9-1.2,1.4-3.2,1.4-5.8c0-2.5-0.5-4.8-1.4-6.7c0.6-0.6,1.4-0.9,2.2-0.9c0.8,0,1.7,0.3,2.4,1
					c1.5-0.7,3.3-1.1,5.2-1.1c2.2,0,4.1,0.5,5.6,1.4c1.6,1,2.5,2.2,2.5,3.6c0,1.4,0.5,2.4,1.3,2.8c-0.6,0.3-1,0.8-1.2,1.6
					c-0.1,0.3-0.1,0.7-0.2,1.1c-0.1,1.3-0.9,2.3-2.4,3c1,0.4,1.6,1,2,1.7c0.2,0.3,0.2,0.6,0.3,1c0,1.1,0.4,1.8,1.3,2.1
					c0,0,0.1,0.5,0.2,1.5c0.1,1.2,0.4,2.3,0.6,3.2c0.5,1.4,1.1,2.5,2,3.4C461.2,322.4,459.9,322.7,458.7,322.7z M452.9,302.1
					c0-0.5-0.2-1-0.7-1.3c-0.5-0.4-1-0.5-1.6-0.5c-0.8,0-1.4,0.3-1.9,0.8c-0.6,0.7-0.9,1.6-0.9,2.8s0.3,2.1,0.9,2.8
					c0.5,0.5,1.1,0.8,1.9,0.8c0.6,0,1.1-0.2,1.6-0.5c0.5-0.4,0.7-0.8,0.7-1.3c0-0.6-0.3-1.1-0.8-1.7
					C452.6,303.3,452.9,302.7,452.9,302.1z"/>
				<path fill="#FFFFFF" d="M472.2,312.1c1.1,0,1.9,0.4,2.3,1.2c0.5-0.3,1-0.5,1.6-0.5c0.6,0,1.1,0.2,1.5,0.7
					c-0.6,0.6-0.9,1.5-0.7,2.9c-0.1,1.2-0.4,2.3-0.9,3.1c-1.2,2.1-3.3,3.2-6.3,3.2c-0.3,0-0.7,0-1.1,0c-1.5-0.1-2.9-0.4-3.9-0.9
					c-2.6-1.1-3.9-3.1-3.9-6c0-0.3,0-0.6,0-1v-3c0-1.4-0.5-2.3-1.3-2.8c0.6-0.3,1-0.8,1.2-1.6c0.1-0.3,0.1-0.7,0.1-1.1v-3
					c0-3.3,1.3-5.6,3.9-6.9c1.1-0.5,2.4-0.9,3.9-1c0.4,0,0.7,0,1.1,0c3,0,5.1,1.1,6.3,3.2c0.5,0.9,0.8,1.9,0.9,3.1
					c-0.1,1.4,0.1,2.4,0.7,2.9c-0.4,0.5-0.9,0.7-1.5,0.7c-0.5,0-1-0.2-1.6-0.5c-0.4,0.8-1.1,1.2-2.3,1.2c-0.8,0-1.4-0.2-1.7-0.5
					c0.6-1,1-1.9,1-2.8c0-0.7-0.2-1.4-0.7-1.8c-0.4-0.5-1-0.7-1.6-0.7H469c-1.1,0-1.9,0.3-2.3,0.9c-0.3,0.5-0.5,1.2-0.5,2.4v2.8
					c0,1.4,0.5,2.3,1.3,2.8c-0.6,0.3-1,0.8-1.2,1.6c-0.1,0.3-0.2,0.7-0.2,1.1v2.8c0,1.1,0.2,1.9,0.5,2.4c0.4,0.6,1.1,0.9,2.3,0.9
					h0.1c0.7,0,1.2-0.2,1.6-0.7c0.4-0.5,0.7-1.1,0.7-1.8c0-0.9-0.3-1.8-1-2.8C470.8,312.3,471.4,312.1,472.2,312.1z"/>
				<path fill="#FFFFFF" d="M490.2,321.6c-1.2,0.6-2.5,0.9-4.1,1.1c-1.6-0.1-3-0.4-4.2-1c-2.8-1.3-4.2-3.6-4.2-7v-3.1
					c-0.1-1.5-0.5-2.4-1.4-2.8c0.6-0.3,1-0.9,1.2-1.7c0.1-0.3,0.1-0.7,0.2-1.2v-3c-0.1-2.8-0.7-5-1.8-6.7c0.8-0.6,1.7-1,2.6-1
					c0.8,0,1.5,0.3,2.1,0.9c0.7-0.6,1.5-0.9,2.3-0.9c0.7,0,1.5,0.3,2.1,0.8c-1,1.9-1.5,4.2-1.5,6.9v2.8c0,1.5,0.5,2.4,1.4,2.8
					c-0.6,0.3-1,0.8-1.2,1.6c-0.1,0.3-0.2,0.7-0.2,1.2v2.8c0,1,0.3,1.8,0.9,2.4c0.5,0.5,1.2,0.8,1.9,0.8c0.7,0,1.4-0.3,1.9-0.8
					c0.6-0.6,0.9-1.4,0.9-2.4v-2.8c-0.1-1.5-0.5-2.4-1.4-2.8c0.6-0.3,1-0.9,1.2-1.7c0.1-0.3,0.1-0.7,0.2-1.2v-2.8
					c0-2.7-0.5-5-1.5-6.9c0.6-0.5,1.3-0.8,2.1-0.8c0.8,0,1.5,0.3,2.2,0.9c0.5-0.6,1.1-0.9,1.8-0.9c0.8,0,1.6,0.3,2.4,1
					c-0.6,1.1-1.1,2.6-1.3,4.3c-0.1,0.7-0.2,1.5-0.2,2.3v3c0.1,1.5,0.5,2.4,1.4,2.8c-0.6,0.3-1,0.8-1.2,1.6
					c-0.1,0.3-0.2,0.7-0.2,1.2v3.1C494.4,318,493,320.3,490.2,321.6z"/>
				<path fill="#FFFFFF" d="M517.2,301.7c0,0.7-0.2,1.4-0.7,1.9c-2.1-1.1-3.9-1.6-5.2-1.6c-0.7,0-1.2,0.1-1.6,0.4
					c-0.1,3,0.4,5.2,1.4,6.6c-0.9,1.2-1.4,3.2-1.4,5.9c0,2.6,0.5,4.9,1.4,6.9c-0.7,0.6-1.4,0.9-2.2,0.9c-0.8,0-1.5-0.3-2.2-1
					c-0.7,0.7-1.5,1-2.3,1c-0.8,0-1.5-0.3-2.2-0.9c0.9-2,1.4-4.3,1.4-6.9c0-2.7-0.5-4.7-1.4-5.9c1-1.4,1.5-3.5,1.4-6.4
					c-0.4-0.4-1-0.5-1.8-0.5c-1.4,0-3.1,0.5-5.2,1.6c-0.5-0.5-0.7-1.1-0.7-1.9c0-0.8,0.2-1.6,0.7-2.5c-0.5-0.5-0.7-1.1-0.7-1.8
					c0-0.7,0.2-1.4,0.7-2c1.5,0.7,3.1,1,5,1c1.7,0,3.4-0.3,5-1c1.7,0.7,3.3,1,5,1c1.9,0,3.5-0.3,5-1c0.5,0.6,0.7,1.3,0.7,2
					c0,0.7-0.2,1.3-0.7,1.8C516.9,300.1,517.2,301,517.2,301.7z"/>
			</g>
			<g id="its_not_1_">
				<path d="M135.2,320.2c-0.7,0.7-1.5,1-2.2,1c-0.8,0-1.5-0.3-2.1-0.9c0.9-2,1.4-4.3,1.4-6.8c0-2.7-0.5-4.6-1.4-5.9
					c0.9-1.2,1.4-3.2,1.4-5.9c0-2.6-0.5-4.8-1.4-6.8c0.7-0.6,1.4-0.9,2.1-0.9c0.8,0,1.5,0.3,2.2,1c0.7-0.7,1.5-1,2.3-1
					c0.8,0,1.5,0.3,2.1,0.9c-0.9,2-1.4,4.3-1.4,6.8c0,2.7,0.5,4.6,1.4,5.9c-0.9,1.2-1.4,3.2-1.4,5.9c0,2.6,0.5,4.8,1.4,6.8
					c-0.7,0.6-1.4,0.9-2.1,0.9C136.7,321.2,135.9,320.9,135.2,320.2z"/>
				<path d="M160.9,300.3c0,0.7-0.2,1.4-0.7,1.9c-2.1-1.1-3.9-1.6-5.2-1.6c-0.7,0-1.2,0.1-1.6,0.4c-0.1,3,0.4,5.2,1.4,6.6
					c-0.9,1.2-1.4,3.2-1.4,5.9c0,2.6,0.5,4.9,1.4,6.9c-0.7,0.6-1.4,0.9-2.2,0.9c-0.8,0-1.5-0.3-2.2-1c-0.7,0.7-1.5,1-2.3,1
					c-0.8,0-1.5-0.3-2.2-0.9c0.9-2,1.4-4.3,1.4-6.9c0-2.7-0.5-4.7-1.4-5.9c1-1.4,1.5-3.5,1.4-6.4c-0.4-0.4-1-0.5-1.8-0.5
					c-1.4,0-3.1,0.5-5.2,1.6c-0.5-0.5-0.7-1.1-0.7-1.9c0-0.8,0.2-1.6,0.7-2.5c-0.5-0.5-0.7-1.1-0.7-1.8c0-0.7,0.2-1.4,0.7-2
					c1.5,0.7,3.1,1,5,1c1.7,0,3.4-0.3,5-1c1.7,0.7,3.3,1,5,1c1.9,0,3.5-0.3,5-1c0.5,0.6,0.7,1.3,0.7,2c0,0.7-0.2,1.3-0.7,1.8
					C160.7,298.7,160.9,299.5,160.9,300.3z"/>
				<path d="M173.4,301.7c-1.2-2.4-2.8-3.6-4.6-3.6c-0.9,0-1.6,0.3-2.2,0.9c-0.6,0.6-0.9,1.2-0.9,2c0,0.7,0.3,1.5,0.9,2.1
					c0.7,0.6,1.6,1,2.5,1c0.5,0,1-0.1,1.4-0.3c0.2,0.7,0.8,1.4,1.7,2.2c0.4,0.3,0.9,0.6,1.4,1c2.6,1.4,3.9,3.5,3.9,6.4
					c0,2.1-0.8,3.9-2.3,5.4c-1.7,1.6-4,2.4-6.8,2.4c-1.4,0-2.9-0.2-4.5-0.6c-0.3-0.1-0.8-0.3-1.5-0.7c-0.5-0.3-1-0.4-1.4-0.4
					c-0.6,0-1.3,0.3-2.1,0.8c0-0.2-0.1-0.5-0.1-0.7c0-1.3,0.5-2.3,1.4-2.9c-0.3-0.4-0.4-0.9-0.4-1.5c0-0.8,0.2-1.7,0.7-2.7
					c0.8,1.5,2,2.6,3.4,3.4c1.2,0.7,2.6,1.1,3.9,1.1c1.1,0,2-0.2,2.8-0.7c0.7-0.5,1.1-1.1,1.1-1.9c0-0.8-0.4-1.7-1.2-2.6
					c-0.8-0.7-1.7-1-2.9-1c-0.6,0-1.1,0.1-1.6,0.2c-0.1-1.6-0.8-2.6-2-3.1c-2.4-1.4-3.7-3.4-3.7-6c0-2,0.7-3.9,2.2-5.4
					c1.6-1.7,3.4-2.5,5.6-2.5c1.3,0,2.6,0.3,3.9,1c0.3,0.2,0.6,0.4,0.9,0.5c0.3,0.2,0.6,0.2,1,0.2c0.4,0,0.9,0,1.6-0.1
					c0,0.2,0.1,0.4,0.1,0.6c0,0.8-0.4,1.6-1.1,2.4C174.6,299.8,174.2,300.8,173.4,301.7z"/>
				<path d="M204,304.9c0.5-1,0.7-2.4,0.7-4.3c0-2.8-0.5-4.8-1.5-5.7c0.6-0.6,1.3-0.9,2-0.9c0.7,0,1.4,0.3,2.1,1
					c0.7-0.7,1.4-1,2.1-1c0.7,0,1.4,0.3,2,0.9l-0.5,1.4c-0.6,1.6-1,3.4-1,5.3c0,2.7,0.5,4.7,1.5,6c-0.9,1.2-1.4,3.2-1.4,5.9
					c0,2.6,0.5,4.8,1.4,6.8c-0.6,0.6-1.2,0.9-1.9,0.9c-0.7,0-1.4-0.3-2-1c-0.6,0.7-1.3,1-2,1c-0.7,0-1.3-0.3-1.9-0.9
					c0.9-1,1.3-2.3,1.3-3.7c0-1.6-0.5-3-1.6-4.4l-4.1-5.3c-0.8,1.6-1.2,3.6-1.2,6c0,2.5,0.5,5,1.5,7.4c-0.6,0.6-1.3,0.9-2,0.9
					c-0.7,0-1.5-0.3-2.1-1c-0.7,0.7-1.4,1-2.1,1c-0.7,0-1.4-0.3-2-0.9c0.9-2,1.4-4.3,1.4-6.8c0-2.7-0.5-4.6-1.4-5.9
					c1-1.3,1.5-3.3,1.5-6c0-2-0.3-3.7-0.9-5.3l-0.5-1.4c0.6-0.6,1.3-0.9,2-0.9c0.7,0,1.5,0.3,2.1,1c0.7-0.7,1.4-1,2.1-1
					c0.7,0,1.4,0.3,2,0.9c-0.3,0.7-0.5,1.5-0.5,2.2c0,0.9,0.3,1.8,0.9,2.5L204,304.9z"/>
				<path d="M225.2,320.2c-1.2,0.5-2.5,0.9-4.1,1c-1.6-0.1-3-0.4-4.2-0.9c-2.8-1.3-4.1-3.6-4.1-6.9v-3.1c-0.1-1.4-0.5-2.3-1.4-2.8
					c0.6-0.3,1-0.8,1.2-1.6c0.1-0.3,0.1-0.7,0.2-1.1v-3c0-3.2,1.4-5.5,4.1-6.8c1.2-0.5,2.5-0.9,4.2-1c1.6,0.1,3,0.5,4.1,1
					c2.8,1.3,4.1,3.6,4.1,6.8v3c0.1,1.4,0.5,2.3,1.4,2.8c-0.6,0.3-1,0.8-1.2,1.6c-0.1,0.3-0.1,0.7-0.2,1.1v3.1
					C229.3,316.6,227.9,318.9,225.2,320.2z M223.9,310.3c-0.1-1.4-0.5-2.3-1.4-2.8c0.6-0.3,1-0.8,1.2-1.6c0.1-0.3,0.1-0.7,0.2-1.1
					V302c0-1-0.3-1.8-0.8-2.3c-0.5-0.6-1.2-0.9-1.9-0.9c-0.7,0-1.4,0.3-1.9,0.9c-0.5,0.6-0.8,1.3-0.8,2.3v2.8
					c0.1,1.4,0.5,2.3,1.4,2.8c-0.6,0.3-1,0.8-1.2,1.6c-0.1,0.3-0.1,0.7-0.2,1.1v2.8c0,1,0.3,1.8,0.8,2.4c0.5,0.6,1.2,0.8,1.9,0.8
					c0.7,0,1.4-0.3,1.9-0.8c0.5-0.6,0.8-1.3,0.8-2.4V310.3z"/>
				<path d="M250.4,300.3c0,0.7-0.2,1.4-0.7,1.9c-2.1-1.1-3.9-1.6-5.2-1.6c-0.7,0-1.2,0.1-1.6,0.4c-0.1,3,0.4,5.2,1.4,6.6
					c-0.9,1.2-1.4,3.2-1.4,5.9c0,2.6,0.5,4.9,1.4,6.9c-0.7,0.6-1.4,0.9-2.2,0.9c-0.8,0-1.5-0.3-2.2-1c-0.7,0.7-1.5,1-2.3,1
					c-0.8,0-1.5-0.3-2.2-0.9c0.9-2,1.4-4.3,1.4-6.9c0-2.7-0.5-4.7-1.4-5.9c1-1.4,1.5-3.5,1.4-6.4c-0.4-0.4-1-0.5-1.8-0.5
					c-1.4,0-3.1,0.5-5.2,1.6c-0.5-0.5-0.7-1.1-0.7-1.9c0-0.8,0.2-1.6,0.7-2.5c-0.5-0.5-0.7-1.1-0.7-1.8c0-0.7,0.2-1.4,0.7-2
					c1.5,0.7,3.1,1,5,1c1.7,0,3.4-0.3,5-1c1.7,0.7,3.3,1,5,1c1.9,0,3.5-0.3,5-1c0.5,0.6,0.7,1.3,0.7,2c0,0.7-0.2,1.3-0.7,1.8
					C250.2,298.7,250.4,299.5,250.4,300.3z"/>
				<path d="M280.8,304.7c0.1,1.5,0.5,2.4,1.4,2.8c-0.6,0.3-1,0.8-1.2,1.6c-0.1,0.3-0.1,0.7-0.2,1.2v3c0,0.3,0,0.6,0,1
					c0,2.9-1.3,4.9-4,6.1c-1.1,0.5-2.4,0.8-4,0.9c-0.4,0-0.8,0-1.1,0c-3,0-5.1-1.1-6.3-3.2c-0.5-0.9-0.8-1.9-0.9-3.2
					c0.1-1.4-0.1-2.4-0.7-3c0.4-0.5,0.9-0.7,1.5-0.7c0.5,0,1.1,0.2,1.6,0.5c0.4-0.8,1.2-1.2,2.3-1.2c0.8,0,1.4,0.2,1.7,0.5
					c-0.7,1-1,1.9-1,2.8c0,0.7,0.2,1.4,0.7,1.8c0.5,0.5,1,0.7,1.7,0.7h0.2c1.1,0,1.9-0.3,2.3-0.9c0.3-0.5,0.5-1.2,0.5-2.4v-2.8
					c-0.1-1.5-0.5-2.4-1.4-2.8c0.6-0.3,1-0.9,1.2-1.7c0.1-0.3,0.2-0.7,0.2-1.2v-2.8c0-2-0.2-3.5-0.7-4.5c-0.2-0.5-0.9-1.3-2-2.4
					c1-0.6,1.8-0.9,2.6-0.9c0.7,0,1.5,0.3,2.4,0.9c0.8-0.7,1.6-1,2.4-1c0.8,0,1.5,0.3,2.2,0.9c-0.9,0.9-1.3,3.1-1.3,6.8V304.7z"/>
				<path d="M296.2,320.2c-1.2,0.6-2.5,0.9-4.2,1.1c-1.6-0.1-3-0.4-4.2-1c-2.8-1.3-4.2-3.6-4.2-7v-3.1c-0.1-1.5-0.5-2.4-1.4-2.8
					c0.6-0.3,1-0.9,1.2-1.7c0.1-0.3,0.1-0.7,0.2-1.2v-3c-0.1-2.8-0.7-5-1.8-6.7c0.8-0.6,1.7-1,2.6-1c0.8,0,1.5,0.3,2.1,0.9
					c0.7-0.6,1.5-0.9,2.3-0.9c0.7,0,1.5,0.3,2.1,0.8c-1,1.9-1.5,4.2-1.5,6.9v2.8c0,1.5,0.5,2.4,1.4,2.8c-0.6,0.3-1,0.8-1.2,1.6
					c-0.1,0.3-0.2,0.7-0.2,1.2v2.8c0,1,0.3,1.8,0.9,2.4c0.5,0.5,1.2,0.8,1.9,0.8s1.4-0.3,1.9-0.8c0.6-0.6,0.9-1.4,0.9-2.4v-2.8
					c-0.1-1.5-0.5-2.4-1.4-2.8c0.6-0.3,1-0.9,1.2-1.7c0.1-0.3,0.1-0.7,0.2-1.2v-2.8c0-2.7-0.5-5-1.5-6.9c0.6-0.5,1.3-0.8,2.1-0.8
					c0.8,0,1.5,0.3,2.2,0.9c0.5-0.6,1.1-0.9,1.8-0.9c0.8,0,1.6,0.3,2.4,1c-0.6,1.1-1.1,2.6-1.3,4.3c-0.1,0.7-0.2,1.5-0.2,2.3v3
					c0.1,1.5,0.5,2.4,1.4,2.8c-0.6,0.3-1,0.8-1.2,1.6c-0.1,0.3-0.2,0.7-0.2,1.2v3.1C300.4,316.5,299,318.8,296.2,320.2z"/>
				<path d="M314.2,301.7c-1.2-2.4-2.8-3.6-4.6-3.6c-0.9,0-1.6,0.3-2.2,0.9c-0.6,0.6-0.9,1.2-0.9,2c0,0.7,0.3,1.5,0.9,2.1
					c0.7,0.6,1.6,1,2.5,1c0.5,0,1-0.1,1.4-0.3c0.2,0.7,0.8,1.4,1.7,2.2c0.4,0.3,0.9,0.6,1.4,1c2.6,1.4,3.9,3.5,3.9,6.4
					c0,2.1-0.8,3.9-2.3,5.4c-1.7,1.6-4,2.4-6.8,2.4c-1.4,0-2.9-0.2-4.5-0.6c-0.3-0.1-0.8-0.3-1.5-0.7c-0.5-0.3-1-0.4-1.4-0.4
					c-0.6,0-1.3,0.3-2.1,0.8c0-0.2-0.1-0.5-0.1-0.7c0-1.3,0.5-2.3,1.4-2.9c-0.3-0.4-0.4-0.9-0.4-1.5c0-0.8,0.2-1.7,0.7-2.7
					c0.8,1.5,2,2.6,3.4,3.4c1.2,0.7,2.6,1.1,3.9,1.1c1.1,0,2-0.2,2.8-0.7c0.7-0.5,1.1-1.1,1.1-1.9c0-0.8-0.4-1.7-1.2-2.6
					c-0.8-0.7-1.7-1-2.9-1c-0.6,0-1.1,0.1-1.6,0.2c-0.1-1.6-0.8-2.6-2-3.1c-2.4-1.4-3.7-3.4-3.7-6c0-2,0.7-3.9,2.2-5.4
					c1.6-1.7,3.4-2.5,5.6-2.5c1.3,0,2.6,0.3,3.9,1c0.3,0.2,0.6,0.4,0.9,0.5c0.3,0.2,0.6,0.2,1,0.2c0.4,0,0.9,0,1.6-0.1
					c0,0.2,0.1,0.4,0.1,0.6c0,0.8-0.4,1.6-1.1,2.4C315.5,299.8,315.1,300.8,314.2,301.7z"/>
				<path d="M337.5,300.3c0,0.7-0.2,1.4-0.7,1.9c-2.1-1.1-3.9-1.6-5.2-1.6c-0.7,0-1.2,0.1-1.6,0.4c-0.1,3,0.4,5.2,1.4,6.6
					c-0.9,1.2-1.4,3.2-1.4,5.9c0,2.6,0.5,4.9,1.4,6.9c-0.7,0.6-1.4,0.9-2.2,0.9c-0.8,0-1.5-0.3-2.2-1c-0.7,0.7-1.5,1-2.3,1
					c-0.8,0-1.5-0.3-2.2-0.9c0.9-2,1.4-4.3,1.4-6.9c0-2.7-0.5-4.7-1.4-5.9c1-1.4,1.5-3.5,1.4-6.4c-0.4-0.4-1-0.5-1.8-0.5
					c-1.4,0-3.1,0.5-5.2,1.6c-0.5-0.5-0.7-1.1-0.7-1.9c0-0.8,0.2-1.6,0.7-2.5c-0.5-0.5-0.7-1.1-0.7-1.8c0-0.7,0.2-1.4,0.7-2
					c1.5,0.7,3.1,1,5,1c1.7,0,3.4-0.3,5-1c1.7,0.7,3.3,1,5,1c1.9,0,3.5-0.3,5-1c0.5,0.6,0.7,1.3,0.7,2c0,0.7-0.2,1.3-0.7,1.8
					C337.3,298.7,337.5,299.5,337.5,300.3z"/>
				<path d="M368.3,321.2c-0.7,0-1.2-0.2-1.4-0.7c0.6-1.2,0.9-2.4,0.9-3.6c0-1.5-0.4-2.7-1.2-3.6c-0.8-1-1.8-1.4-3.1-1.4
					c-1.3,0-2.3,0.5-3.1,1.4c-0.8,1-1.2,2.2-1.2,3.6c0,1.2,0.3,2.4,0.8,3.6c-0.2,0.5-0.7,0.7-1.4,0.7c-0.8,0-1.7-0.2-2.8-0.7
					c-0.5,0.5-1.1,0.7-1.8,0.7c-0.9,0-1.9-0.3-2.9-0.9c3.3-3.3,4.9-6.9,4.9-10.9c0-0.7-0.1-1.3-0.2-1.9c2.7-3.4,4.1-6.7,4.1-10
					c0-1.2-0.2-2.1-0.6-2.7c0.6-0.6,1.3-0.9,2.1-0.9c0.8,0,1.5,0.3,2.1,1c0.7-0.7,1.4-1,2.1-1c0.8,0,1.5,0.3,2.1,0.9
					c-0.4,0.6-0.6,1.5-0.6,2.7c0,3.3,1.4,6.7,4.1,10c-0.1,0.5-0.2,1.1-0.2,1.9c0,4,1.6,7.6,4.9,10.9c-1,0.6-2,0.9-2.9,0.9
					c-0.7,0-1.4-0.2-1.8-0.7C370,321,369.1,321.2,368.3,321.2z M363.4,303.5c-0.9,1.6-1.4,3.1-1.4,4.7c0.5-0.2,1-0.4,1.4-0.4
					c0.4,0,0.8,0.1,1.4,0.4C364.7,306.6,364.3,305,363.4,303.5z"/>
				<path d="M401.6,299.1c-0.2-2-0.6-3.4-1.4-4.1c0.6-0.6,1.3-0.9,2.1-0.9c0.8,0,1.5,0.3,2.2,1c0.7-0.7,1.5-1,2.2-1
					c0.8,0,1.5,0.3,2.2,0.9c-0.9,2-1.4,4.3-1.4,6.8c0,2.7,0.5,4.6,1.4,5.9c-0.9,1.2-1.4,3.2-1.4,5.9c0,2.6,0.5,4.8,1.4,6.8
					c-0.7,0.6-1.4,0.9-2.2,0.9c-0.8,0-1.5-0.3-2.2-1c-0.7,0.7-1.5,1-2.2,1c-0.8,0-1.5-0.3-2.1-0.9c0.7-0.7,1.2-2.1,1.4-4.1
					c0-0.5,0.1-2,0.1-4.3c0-1.3-0.5-2.2-1.4-2.6c-0.4-0.1-0.7-0.1-1-0.1c-0.3,0-0.6,0-1,0.1c-0.9,0.4-1.4,1.2-1.4,2.6
					c0,2.3,0,3.7,0.1,4.3c0.2,2,0.6,3.4,1.4,4.1c-0.7,0.6-1.4,0.9-2.1,0.9c-0.8,0-1.6-0.3-2.3-1c-0.7,0.7-1.5,1-2.2,1
					c-0.8,0-1.5-0.3-2.1-0.9c0.9-2,1.4-4.3,1.4-6.8c0-2.7-0.5-4.6-1.4-5.9c0.9-1.2,1.4-3.2,1.4-5.9c0-2.6-0.5-4.8-1.4-6.8
					c0.7-0.6,1.4-0.9,2.1-0.9c0.8,0,1.5,0.3,2.2,1c0.7-0.7,1.5-1,2.3-1c0.8,0,1.5,0.3,2.1,0.9c-0.7,0.7-1.2,2.1-1.4,4.1
					c0,0.5-0.1,2-0.1,4.3c0,1.3,0.5,2.2,1.4,2.6c0.4,0.1,0.7,0.1,1,0.1c0.3,0,0.6,0,1-0.1c1-0.4,1.4-1.2,1.4-2.6
					C401.7,301,401.6,299.6,401.6,299.1z"/>
				<path d="M426.2,321.2c-0.7,0-1.2-0.2-1.4-0.7c0.6-1.2,0.9-2.4,0.9-3.6c0-1.5-0.4-2.7-1.2-3.6c-0.8-1-1.8-1.4-3.1-1.4
					c-1.3,0-2.3,0.5-3.1,1.4c-0.8,1-1.2,2.2-1.2,3.6c0,1.2,0.3,2.4,0.8,3.6c-0.2,0.5-0.7,0.7-1.4,0.7c-0.8,0-1.7-0.2-2.8-0.7
					c-0.5,0.5-1.1,0.7-1.8,0.7c-0.9,0-1.9-0.3-2.9-0.9c3.3-3.3,4.9-6.9,4.9-10.9c0-0.7-0.1-1.3-0.2-1.9c2.7-3.4,4.1-6.7,4.1-10
					c0-1.2-0.2-2.1-0.6-2.7c0.6-0.6,1.3-0.9,2.1-0.9c0.8,0,1.5,0.3,2.1,1c0.7-0.7,1.4-1,2.1-1c0.8,0,1.5,0.3,2.1,0.9
					c-0.4,0.6-0.6,1.5-0.6,2.7c0,3.3,1.4,6.7,4.1,10c-0.1,0.5-0.2,1.1-0.2,1.9c0,4,1.6,7.6,4.9,10.9c-1,0.6-2,0.9-2.9,0.9
					c-0.7,0-1.4-0.2-1.8-0.7C428,321,427,321.2,426.2,321.2z M421.3,303.5c-0.9,1.6-1.4,3.1-1.4,4.7c0.5-0.2,1-0.4,1.4-0.4
					c0.4,0,0.8,0.1,1.4,0.4C422.7,306.6,422.2,305,421.3,303.5z"/>
				<path d="M437.4,320.2c-0.7,0.7-1.5,1-2.2,1c-0.8,0-1.5-0.3-2.1-0.9c0.9-2,1.4-4.3,1.4-6.8c0-2.7-0.5-4.6-1.4-5.9
					c0.9-1.2,1.4-3.2,1.4-5.9c0-2.6-0.5-4.8-1.4-6.8c0.7-0.6,1.4-0.9,2.1-0.9c0.8,0,1.5,0.3,2.2,1c0.7-0.7,1.5-1,2.3-1
					c0.8,0,1.5,0.3,2.1,0.9c-0.9,2-1.4,4.3-1.4,6.8c0,2.7,0.5,4.6,1.4,5.9c-0.9,1.2-1.4,3.2-1.4,5.9c0,2.6,0.5,4.8,1.4,6.8
					c-0.7,0.6-1.4,0.9-2.1,0.9C438.9,321.2,438.1,320.9,437.4,320.2z"/>
				<path d="M459.7,321.2c-1.9,0-3.7-0.7-5.4-2.2c0.7-1,1.1-1.8,1.1-2.7c0-1-0.5-2.2-1.6-3.6c0.3-0.5,0.5-1,0.5-1.5
					c0-0.7-0.3-1.3-0.9-1.8c-0.6-0.5-1.2-0.8-2-0.8c-0.7,0-1.3,0.3-1.8,0.9c-0.5,0.7-0.8,1.8-0.8,3.2c0,3.5,0.7,5.9,2,7.3
					c-0.6,0.6-1.4,0.9-2.2,0.9c-0.8,0-1.6-0.3-2.4-1c-0.8,0.7-1.6,1-2.4,1c-0.8,0-1.5-0.3-2.2-0.9c0.9-2,1.4-4.2,1.4-6.7
					c0-2.6-0.5-4.6-1.4-5.8c0.9-1.2,1.4-3.2,1.4-5.8c0-2.5-0.5-4.8-1.4-6.7c0.6-0.6,1.4-0.9,2.2-0.9c0.8,0,1.7,0.3,2.4,1
					c1.5-0.7,3.3-1.1,5.2-1.1c2.2,0,4.1,0.5,5.6,1.4c1.6,1,2.5,2.2,2.5,3.6c0,1.4,0.5,2.4,1.3,2.8c-0.6,0.3-1,0.8-1.2,1.6
					c-0.1,0.3-0.1,0.7-0.2,1.1c-0.1,1.3-0.9,2.3-2.4,3c1,0.4,1.6,1,2,1.7c0.2,0.3,0.2,0.6,0.3,1c0,1.1,0.4,1.8,1.3,2.1
					c0,0,0.1,0.5,0.2,1.5c0.1,1.2,0.4,2.3,0.6,3.2c0.5,1.4,1.1,2.5,2,3.4C462.3,320.9,461,321.2,459.7,321.2z M453.9,300.7
					c0-0.5-0.2-1-0.7-1.3c-0.5-0.4-1-0.5-1.6-0.5c-0.8,0-1.4,0.3-1.9,0.8c-0.6,0.7-0.9,1.6-0.9,2.8c0,1.2,0.3,2.1,0.9,2.8
					c0.5,0.5,1.1,0.8,1.9,0.8c0.6,0,1.1-0.2,1.6-0.5c0.5-0.4,0.7-0.8,0.7-1.3c0-0.6-0.3-1.1-0.8-1.7
					C453.6,301.8,453.9,301.3,453.9,300.7z"/>
				<path d="M473.3,310.7c1.1,0,1.9,0.4,2.3,1.2c0.5-0.3,1-0.5,1.6-0.5c0.6,0,1.1,0.2,1.5,0.7c-0.6,0.6-0.9,1.5-0.7,2.9
					c-0.1,1.2-0.4,2.3-0.9,3.1c-1.2,2.1-3.3,3.2-6.3,3.2c-0.3,0-0.7,0-1.1,0c-1.5-0.1-2.9-0.4-3.9-0.9c-2.6-1.1-3.9-3.1-3.9-6
					c0-0.3,0-0.6,0-1v-3c0-1.4-0.5-2.3-1.3-2.8c0.6-0.3,1-0.8,1.2-1.6c0.1-0.3,0.1-0.7,0.1-1.1v-3c0-3.3,1.3-5.6,3.9-6.9
					c1.1-0.5,2.4-0.9,3.9-1c0.4,0,0.7,0,1.1,0c3,0,5.1,1.1,6.3,3.2c0.5,0.9,0.8,1.9,0.9,3.1c-0.1,1.4,0.1,2.4,0.7,2.9
					c-0.4,0.5-0.9,0.7-1.5,0.7c-0.5,0-1-0.2-1.6-0.5c-0.4,0.8-1.1,1.2-2.3,1.2c-0.8,0-1.4-0.2-1.7-0.5c0.6-1,1-1.9,1-2.8
					c0-0.7-0.2-1.4-0.7-1.8c-0.4-0.5-1-0.7-1.6-0.7h-0.1c-1.1,0-1.9,0.3-2.3,0.9c-0.3,0.5-0.5,1.2-0.5,2.4v2.8
					c0,1.4,0.5,2.3,1.3,2.8c-0.6,0.3-1,0.8-1.2,1.6c-0.1,0.3-0.2,0.7-0.2,1.1v2.8c0,1.1,0.2,1.9,0.5,2.4c0.4,0.6,1.1,0.9,2.3,0.9
					h0.1c0.7,0,1.2-0.2,1.6-0.7c0.4-0.5,0.7-1.1,0.7-1.8c0-0.9-0.3-1.8-1-2.8C471.9,310.8,472.5,310.7,473.3,310.7z"/>
				<path d="M491.3,320.2c-1.2,0.6-2.5,0.9-4.1,1.1c-1.6-0.1-3-0.4-4.2-1c-2.8-1.3-4.2-3.6-4.2-7v-3.1c-0.1-1.5-0.5-2.4-1.4-2.8
					c0.6-0.3,1-0.9,1.2-1.7c0.1-0.3,0.1-0.7,0.2-1.2v-3c-0.1-2.8-0.7-5-1.8-6.7c0.8-0.6,1.7-1,2.6-1c0.8,0,1.5,0.3,2.1,0.9
					c0.7-0.6,1.5-0.9,2.3-0.9c0.7,0,1.5,0.3,2.1,0.8c-1,1.9-1.5,4.2-1.5,6.9v2.8c0,1.5,0.5,2.4,1.4,2.8c-0.6,0.3-1,0.8-1.2,1.6
					c-0.1,0.3-0.2,0.7-0.2,1.2v2.8c0,1,0.3,1.8,0.9,2.4c0.5,0.5,1.2,0.8,1.9,0.8c0.7,0,1.4-0.3,1.9-0.8c0.6-0.6,0.9-1.4,0.9-2.4
					v-2.8c-0.1-1.5-0.5-2.4-1.4-2.8c0.6-0.3,1-0.9,1.2-1.7c0.1-0.3,0.1-0.7,0.2-1.2v-2.8c0-2.7-0.5-5-1.5-6.9
					c0.6-0.5,1.3-0.8,2.1-0.8c0.8,0,1.5,0.3,2.2,0.9c0.5-0.6,1.1-0.9,1.8-0.9c0.8,0,1.6,0.3,2.4,1c-0.6,1.1-1.1,2.6-1.3,4.3
					c-0.1,0.7-0.2,1.5-0.2,2.3v3c0.1,1.5,0.5,2.4,1.4,2.8c-0.6,0.3-1,0.8-1.2,1.6c-0.1,0.3-0.2,0.7-0.2,1.2v3.1
					C495.5,316.5,494.1,318.8,491.3,320.2z"/>
				<path d="M518.2,300.3c0,0.7-0.2,1.4-0.7,1.9c-2.1-1.1-3.9-1.6-5.2-1.6c-0.7,0-1.2,0.1-1.6,0.4c-0.1,3,0.4,5.2,1.4,6.6
					c-0.9,1.2-1.4,3.2-1.4,5.9c0,2.6,0.5,4.9,1.4,6.9c-0.7,0.6-1.4,0.9-2.2,0.9c-0.8,0-1.5-0.3-2.2-1c-0.7,0.7-1.5,1-2.3,1
					c-0.8,0-1.5-0.3-2.2-0.9c0.9-2,1.4-4.3,1.4-6.9c0-2.7-0.5-4.7-1.4-5.9c1-1.4,1.5-3.5,1.4-6.4c-0.4-0.4-1-0.5-1.8-0.5
					c-1.4,0-3.1,0.5-5.2,1.6c-0.5-0.5-0.7-1.1-0.7-1.9c0-0.8,0.2-1.6,0.7-2.5c-0.5-0.5-0.7-1.1-0.7-1.8c0-0.7,0.2-1.4,0.7-2
					c1.5,0.7,3.1,1,5,1c1.7,0,3.4-0.3,5-1c1.7,0.7,3.3,1,5,1c1.9,0,3.5-0.3,5-1c0.5,0.6,0.7,1.3,0.7,2c0,0.7-0.2,1.3-0.7,1.8
					C518,298.7,518.2,299.5,518.2,300.3z"/>
			</g>
		</g>
	</g>
	<path fill-rule="evenodd" clip-rule="evenodd" fill="#0D0D0D" d="M110.8,294.2c1-1.3,1.2-2.7,1.2-4.2c-0.3-0.5-0.6-1.4-1.1-1.2
		c-0.2,0.1-0.5,0.3-0.7,0.4c0,0.9,0.7,2.1,0.3,2.9c-1.3,1.1-2,0.3-3.1,0.9c-0.3,3.5-4,9.8-4,9.8l-5.7,10.1c-0.5,0.5-1.6,2.5-2,3.5
		c-0.2,0.5,0,0.8,0.1,1l0,0.2l0,0c0,0.1-0.2,0.2-0.6,0.4c0.1,0.1,0.1,0.2,0.2,0.3c1.1,0.5,1.9,2.2,3.2,1.7c3-5.3,6-10.6,8.1-16.1
		c-0.2-1.1-1-0.6-1.3-1.5c1.2-1.3,1.4-2.8,3.2-4c5.8,8.5,3.5,17.9,7.5,25.5c0.6,1.1,1.1,2.6,2.6,3c0.1-0.1,0.2-0.1,0.3-0.2
		C123.2,319.7,116,303.3,110.8,294.2z M105.9,304.2c0,0.3-0.3,0.6-0.6,0.5c-0.3,0-0.6-0.3-0.5-0.6c0-0.3,0.3-0.6,0.6-0.5
		C105.7,303.6,105.9,303.9,105.9,304.2z"/>
	<path fill-rule="evenodd" clip-rule="evenodd" fill="#0D0D0D" d="M526.2,326.8c0.1,0.1,0.2,0.1,0.3,0.2c1.5-0.4,2-1.9,2.6-3
		c4-7.6,1.7-17,7.5-25.5c1.7,1.1,2,2.7,3.2,4c-0.3,0.9-1,0.4-1.3,1.5c2.2,5.5,5.1,10.8,8.1,16.1c1.4,0.4,2.1-1.3,3.2-1.7
		c0.1-0.1,0.1-0.2,0.2-0.3c-0.4-0.2-0.6-0.3-0.6-0.4v0l0-0.2c0.1-0.2,0.3-0.4,0.1-1c-0.4-1-1.4-2.9-2-3.5l-5.7-10.1
		c0,0-3.7-6.2-4-9.8c-1.1-0.6-1.8,0.2-3.1-0.9c-0.4-0.8,0.3-2,0.3-2.9c-0.2-0.1-0.5-0.3-0.7-0.4c-0.5-0.2-0.8,0.6-1.1,1.2
		c0.1,1.5,0.3,3,1.2,4.2C529.2,303.3,522,319.7,526.2,326.8z M539.9,303.6c0.3,0,0.6,0.2,0.6,0.5s-0.2,0.6-0.5,0.6
		c-0.3,0-0.6-0.2-0.6-0.5S539.6,303.6,539.9,303.6z"/>
	<path fill="#333335" d="M324,0c-79.2,0-143.5,64.2-143.5,143.5c0,79.2,64.2,143.5,143.5,143.5s143.5-64.2,143.5-143.5
		C467.5,64.3,403.2,0,324,0z M324,271.8c-70.7,0-128.3-57.5-128.3-128.3c0-70.7,57.5-128.3,128.3-128.3s128.3,57.5,128.3,128.3
		C452.3,214.2,394.7,271.8,324,271.8z"/>
	<path fill-rule="evenodd" clip-rule="evenodd" fill="#0D0D0D" d="M556.4,238.3c13.8-6.1,46.6-19.4,47.2-22
		c-5-0.2-44.4,12.2-58.8,16.9c-13.6-5.2-47.9-21.3-49-24.3c-0.9-2.4,0.1-5-0.5-6.9c-1.6-4.8-6.6-7.4-10.8-7.3
		c-3.7,0.1-6.6,3.9-10.3,3.9c-7.3,0.1-8.8-6.8-12.5-11.6c-0.1-0.5-0.5-0.3-0.9,0c-0.3,9.9,10.5,10.9,12.9,16.7
		c1.1,2.6,0.6,5.2,1.7,7.3c1.8,3.3,6.6,6,11.6,5.1c2.5-0.4,4.3-3.5,7.7-3.4c1.6,0,13.9,7.5,16.3,9c7.2,4.3,16.8,8.7,18.9,16.7
		c-1.3,2.6-2.6,5.2-3.8,7.7c-5.4,2.9-25.7,16.7-29.6,16.8c-1.9,0-3.5-0.9-4.7-1.3c-8.4-2.6-18.7,1.1-18.9,10.8
		c-0.1,4.8,3.3,10.1,8.6,11.1c7.1,1.4,13.1-2.9,15-7.8c0.9-2.3-0.2-5.6,1.3-9c1-2.3,34.9-18.1,47.2-23.3c14,4.9,53.2,16.9,58.4,16.6
		C603.1,257.8,570,244.5,556.4,238.3z M476.4,203.3c0.5-2.8,3-5.4,7.3-6c5.4-0.8,9.8,2.3,9.9,8.1C493.8,218.4,474,215.8,476.4,203.3
		z M475.3,272.5c0.1-6.1,4.5-8.9,10.3-9.5c5.9-0.6,9.2,2.3,9.9,5.5C498.6,282.7,475.2,286.9,475.3,272.5z M544.8,242.1
		c-1.9,0-3.5-1.6-3.5-3.5c0-1.9,1.6-3.5,3.5-3.5c1.9,0,3.5,1.6,3.5,3.5C548.3,240.5,546.7,242.1,544.8,242.1z"/>
	<path fill-rule="evenodd" clip-rule="evenodd" fill="#0D0D0D" d="M44.1,260.1c5.2,0.3,44.4-11.7,58.4-16.6
		c12.3,5.2,46.1,21,47.2,23.3c1.5,3.4,0.3,6.7,1.3,9c1.9,4.8,7.9,9.1,15,7.8c5.3-1,8.7-6.4,8.6-11.1c-0.1-9.7-10.5-13.4-18.9-10.8
		c-1.2,0.4-2.8,1.3-4.7,1.3c-3.8-0.1-24.2-14-29.6-16.8c-1.3-2.6-2.6-5.2-3.8-7.7c2.1-7.9,11.8-12.4,18.9-16.7
		c2.4-1.5,14.7-9,16.3-9c3.4-0.1,5.3,3,7.7,3.4c5,0.8,9.8-1.8,11.6-5.1c1.2-2.1,0.7-4.7,1.7-7.3c2.4-5.8,13.3-6.8,12.9-16.7
		c-0.4-0.3-0.8-0.5-0.9,0c-3.7,4.7-5.2,11.6-12.5,11.6c-3.7,0-6.6-3.8-10.3-3.9c-4.2-0.1-9.2,2.5-10.8,7.3c-0.6,1.8,0.4,4.5-0.5,6.9
		c-1.1,3-35.4,19.1-49,24.3c-14.3-4.7-53.7-17.1-58.8-16.9c0.6,2.6,33.4,15.9,47.2,22C77.7,244.5,44.6,257.8,44.1,260.1z
		 M154.1,205.4c0.1-5.9,4.5-9,9.9-8.1c4.3,0.7,6.7,3.3,7.3,6C173.8,215.8,154,218.4,154.1,205.4z M152.2,268.5
		c0.7-3.3,4-6.2,9.9-5.5c5.7,0.6,10.2,3.4,10.3,9.5C172.5,286.9,149.1,282.7,152.2,268.5z M99.4,238.5c0-1.9,1.6-3.5,3.5-3.5
		c1.9,0,3.5,1.6,3.5,3.5c0,1.9-1.6,3.5-3.5,3.5C101,242.1,99.4,240.5,99.4,238.5z"/>
	<g id="logo_1_">
		<circle fill="#FFFFFF" cx="324" cy="143.5" r="131.5"/>
		<path d="M448.3,143.5c0,68.6-55.6,124.3-124.3,124.3c-68.6,0-124.3-55.6-124.3-124.3c0-68.6,55.6-124.3,124.3-124.3
			C392.6,19.2,448.3,74.9,448.3,143.5z"/>
		<circle fill="#FFFFFF" cx="324" cy="143.5" r="89.3"/>
		<circle cx="324" cy="143.5" r="82.9"/>
		<g>
			<path fill="#FFFFFF" d="M239,88c0,0.5,0.2,1,0.7,1.5c0.2,0.2,0.5,0.4,0.8,0.6l0.3,0.2c1,0.8,1.6,2,1.7,3.4c0.1,1.5-0.3,3-1.2,4.5
				c-0.8,1.4-1.8,2.5-3.1,3.4c0.2,0.8,0.1,1.6-0.3,2.2c-0.3,0.6-0.8,1-1.5,1.3c-1.1-1.5-2.5-2.7-4.4-3.7c-1.9-1.1-3.5-1.5-4.8-1.4
				c-0.5-1.2-1.8-2.3-3.7-3.4c-1.8-1-3.7-1.6-5.5-1.7c-0.2-0.7-0.1-1.4,0.3-2c0.3-0.6,0.9-1.1,1.7-1.4c0.1-1.4,0.5-2.9,1.3-4.3
				c0.9-1.6,2-2.8,3.3-3.6c1.3-0.8,2.6-0.9,3.6-0.4c1.1,0.6,1.9,0.6,2.6,0.2c0,0.5,0.2,1,0.8,1.5c0.2,0.2,0.5,0.4,0.8,0.6
				c0.9,0.6,1.3,1.6,1.2,3c0.7-0.6,1.4-0.9,2.1-0.9c0.3,0,0.5,0,0.7,0.1C237.5,88.4,238.4,88.4,239,88z M227.3,88.2
				c-0.4-0.2-0.8-0.2-1.3,0c-0.4,0.2-0.8,0.5-1,1c-0.3,0.5-0.4,1.1-0.2,1.7c0.2,0.7,0.8,1.3,1.7,1.8c0.9,0.5,1.7,0.7,2.4,0.5
				c0.6-0.2,1.1-0.5,1.4-1.1c0.2-0.4,0.3-0.9,0.3-1.4c-0.1-0.5-0.3-0.8-0.7-1.1c-0.4-0.2-0.9-0.3-1.6-0.1
				C228,88.8,227.7,88.4,227.3,88.2z M236.8,97.4c0.7-0.1,1.2-0.5,1.5-1.1c0.3-0.5,0.3-1,0.2-1.5c-0.1-0.5-0.4-0.9-0.8-1.2
				c-0.5-0.3-1.1-0.3-1.8-0.2c-0.3-0.7-0.6-1.2-1.1-1.4c-0.5-0.3-0.9-0.3-1.4-0.1c-0.5,0.2-0.9,0.5-1.1,1c-0.3,0.6-0.4,1.2-0.1,1.8
				c0.3,0.8,1,1.4,2,2C235.1,97.4,236,97.6,236.8,97.4z"/>
			<path fill="#FFFFFF" d="M255.4,78.8c-0.4,0.5-0.8,0.6-1.2,0.5c-0.5-1-1.1-1.9-1.8-2.5c-0.9-0.8-1.9-1.2-3-1.2
				c-1.1,0-1.9,0.4-2.6,1.2c-0.7,0.8-1,1.7-0.8,2.7c0.2,1,0.7,2,1.6,2.8c0.7,0.7,1.6,1.1,2.7,1.5c0.2,0.4,0.1,0.8-0.4,1.3
				c-0.4,0.5-1.1,1-2,1.4c0,0.6-0.2,1.1-0.6,1.5c-0.5,0.6-1.2,1-2.1,1.3c-0.3-3.9-1.6-6.9-4.1-9.1c-0.5-0.4-0.9-0.7-1.3-0.9
				c-0.6-3.6-1.9-6.3-4-8.1c-0.7-0.7-1.4-1-2-1.1c0-0.7,0.2-1.3,0.6-1.8c0.4-0.5,1-0.8,1.8-0.8c-0.1-0.8,0.1-1.4,0.5-1.9
				c0.4-0.5,1-0.8,1.7-0.8c0.2,0.6,0.6,1.2,1.4,1.9c2.1,1.8,5,2.8,8.6,2.9c0.3,0.4,0.6,0.7,1.1,1.1c2.5,2.2,5.7,3.2,9.6,2.9
				c-0.2,1-0.6,1.7-1,2.3c-0.4,0.5-0.9,0.7-1.4,0.8C256.2,77.6,255.8,78.3,255.4,78.8z M241.5,72.1c0.5,1.4,1.2,2.6,2.2,3.5
				c0.1-0.5,0.3-0.8,0.5-1.1c0.2-0.2,0.5-0.4,1-0.7C244.2,73,243,72.4,241.5,72.1z"/>
			<path fill="#FFFFFF" d="M274.8,62.9c-1.3,0.9-2.9,1.3-4.8,1.1c0-1-0.2-1.8-0.5-2.4c-0.5-0.7-1.4-1.3-2.8-1.7
				c0-0.5-0.1-0.9-0.3-1.3c-0.3-0.5-0.8-0.8-1.5-0.8c-0.7-0.1-1.2,0.1-1.7,0.4c-0.5,0.4-0.8,0.9-0.8,1.5c0,0.7,0.3,1.6,0.9,2.6
				c1.7,2.4,3.3,3.8,4.9,4.1c-0.2,0.7-0.5,1.2-1.1,1.6c-0.6,0.4-1.3,0.6-2.1,0.5c-0.2,0.8-0.6,1.4-1.2,1.8c-0.6,0.4-1.2,0.5-1.9,0.4
				c-0.3-1.8-1.1-3.6-2.3-5.3c-1.2-1.8-2.5-2.9-3.7-3.3c0-1.3-0.6-2.8-1.8-4.7c-1.2-1.7-2.6-3.1-4.1-4c0.2-0.7,0.5-1.3,1.1-1.6
				c0.6-0.4,1.3-0.6,2.2-0.5c0.7-1.2,1.7-2.3,3-3.2c1.5-1,3-1.6,4.5-1.7c1.6-0.1,2.7,0.3,3.4,1.3c0.7,1,1.5,1.4,2.2,1.3
				c-0.3,0.5-0.3,1,0,1.7c0.1,0.3,0.2,0.6,0.4,0.9c0.5,0.9,0.4,2-0.3,3.2c0.9-0.2,1.6-0.1,2.2,0.2c0.3,0.1,0.5,0.3,0.7,0.6
				c0.5,0.8,1.1,1,1.9,0.8c0,0,0.3,0.3,0.9,0.9c0.7,0.8,1.3,1.4,1.9,1.9c1,0.7,2,1.2,3,1.4C276.5,61.5,275.7,62.3,274.8,62.9z
				 M261.1,51.5c-0.2-0.4-0.6-0.6-1.1-0.6c-0.5,0-0.9,0.1-1.4,0.4c-0.5,0.4-0.8,0.9-0.9,1.5c-0.1,0.7,0.1,1.5,0.7,2.3
				c0.6,0.8,1.2,1.3,1.9,1.5c0.6,0.1,1.2,0,1.7-0.3c0.4-0.3,0.7-0.7,0.9-1.1c0.1-0.5,0.1-0.9-0.2-1.2c-0.3-0.4-0.7-0.7-1.4-0.8
				C261.4,52.4,261.4,51.9,261.1,51.5z"/>
			<path fill="#FFFFFF" d="M293.5,46.7c-0.3,0.4-0.5,0.9-0.4,1.6c0,0.3,0.1,0.6,0.2,1l0.1,0.3c0.3,1.3,0,2.5-0.9,3.7
				c-0.9,1.2-2.1,2.1-3.7,2.7c-1.5,0.6-3,0.8-4.6,0.7c-0.4,0.8-0.9,1.3-1.6,1.5c-0.7,0.3-1.3,0.3-2,0c0.1-1.8-0.2-3.7-1-5.7
				c-0.8-2.1-1.8-3.4-2.9-4.1c0.3-1.2,0.1-2.9-0.7-4.9c-0.8-2-1.8-3.6-3.1-4.8c0.3-0.7,0.8-1.1,1.4-1.4c0.6-0.3,1.4-0.2,2.2,0
				c1-1.1,2.2-1.9,3.7-2.5c1.7-0.7,3.3-0.9,4.9-0.7c1.6,0.2,2.6,0.9,3,2c0.5,1.1,1.1,1.7,1.9,1.8c-0.3,0.4-0.5,0.9-0.4,1.7
				c0,0.3,0.1,0.6,0.2,0.9c0.3,1,0,2.1-1,3.1c0.9,0,1.7,0.2,2.2,0.6c0.2,0.2,0.4,0.4,0.5,0.6C292.1,46,292.7,46.6,293.5,46.7z
				 M284.3,39.4c-0.2-0.4-0.5-0.7-1-0.8c-0.5-0.1-0.9-0.1-1.4,0.1c-0.6,0.2-1,0.6-1.2,1.2c-0.3,0.7-0.2,1.5,0.2,2.4
				c0.4,1,0.9,1.6,1.6,1.9c0.6,0.3,1.2,0.3,1.7,0c0.5-0.2,0.8-0.5,1.1-0.9c0.3-0.4,0.3-0.8,0.1-1.3c-0.2-0.4-0.6-0.8-1.2-1.1
				C284.4,40.3,284.5,39.8,284.3,39.4z M285.8,52.6c0.6,0.3,1.2,0.4,1.8,0.1c0.5-0.2,0.9-0.5,1.1-1c0.2-0.5,0.3-0.9,0.1-1.4
				c-0.2-0.5-0.6-0.9-1.3-1.3c0.2-0.7,0.2-1.3,0.1-1.8c-0.2-0.5-0.5-0.8-1-1c-0.5-0.2-1-0.2-1.5,0c-0.6,0.2-1,0.7-1.2,1.4
				c-0.2,0.8-0.2,1.7,0.3,2.8C284.5,51.4,285.1,52.2,285.8,52.6z"/>
			<path fill="#FFFFFF" d="M306.5,40.4c-0.7,0.1-1.2,0.4-1.6,0.9c-0.4,0.5-0.5,1.2-0.4,1.9l0.3,1.6c0.3,1.5,1.1,2.1,2.6,1.8
				c0.8-0.1,1.5-0.5,2.2-1c0.7-0.5,1-1.1,1.1-1.7c0.9,0.4,1.4,1.2,1.6,2.1c0.1,0.5,0.1,1,0,1.5c0.4,0.1,0.6,0.7,0.7,1.7
				c-0.5-0.2-1.2-0.2-1.9-0.1c-0.5,0.1-1,0.2-1.5,0.4c-0.5,0.2-0.9,0.4-1.4,0.7c-0.6,0.3-1.1,0.4-1.6,0.5c-1,0.2-2,0-3.1-0.4
				c-0.6,0.7-1.2,1-1.9,1.2c-0.7,0.1-1.3,0-2-0.4c0.5-1.8,0.5-3.7,0.2-5.8c-0.4-2.2-1.1-3.7-2-4.6c0.6-1.2,0.7-2.8,0.3-5
				c-0.4-2.1-1.1-3.9-2.1-5.4c0.5-0.6,1-0.9,1.7-1.1c0.7-0.1,1.4,0,2.2,0.5c0.9-0.8,1.9-1.3,2.8-1.4c0.5-0.1,1-0.1,1.6-0.1
				c0.5,0.1,1,0.1,1.5,0.1c0.5,0,1,0,1.5-0.1c0.8-0.1,1.4-0.4,1.8-0.7c0.3,1,0.2,1.6-0.1,1.8c0.3,0.4,0.4,0.9,0.5,1.4
				c0.2,1-0.1,1.8-0.8,2.6c-0.3-0.5-0.8-0.9-1.6-1.2c-0.8-0.3-1.6-0.3-2.4-0.2c-1.5,0.3-2.1,1.1-1.9,2.6l0.3,1.6
				c0.1,0.8,0.5,1.3,1,1.7c0.5,0.3,1.1,0.4,1.8,0.3c1.1-0.2,2.1-0.8,2.8-1.9c0.2,0.2,0.3,0.5,0.3,0.8c0.1,0.6,0,1.2-0.4,1.8
				c0.6,0.4,0.9,0.9,1,1.5c0.1,0.3,0.1,0.6,0,0.9C308.8,40.5,307.7,40.3,306.5,40.4z"/>
			<path fill="#FFFFFF" d="M332.7,49.5c-1.6-0.1-3.1-0.7-4.4-2c0.6-0.8,0.9-1.5,1-2.2c0-0.8-0.4-1.9-1.2-3.1
				c0.3-0.4,0.5-0.8,0.5-1.2c0-0.6-0.2-1.1-0.7-1.6c-0.5-0.5-1-0.7-1.6-0.7c-0.6,0-1.1,0.2-1.5,0.7c-0.5,0.6-0.7,1.4-0.8,2.6
				c-0.1,2.9,0.4,5,1.5,6.2c-0.5,0.5-1.2,0.7-1.8,0.6c-0.7,0-1.4-0.3-2-0.9c-0.7,0.5-1.4,0.8-2.1,0.8c-0.7,0-1.3-0.3-1.8-0.8
				c0.8-1.6,1.3-3.5,1.3-5.6c0.1-2.2-0.2-3.8-1-4.9c0.8-1,1.2-2.6,1.3-4.8c0.1-2.1-0.2-4-0.9-5.6c0.5-0.5,1.2-0.7,1.8-0.7
				c0.7,0,1.4,0.3,2,0.9c1.3-0.6,2.8-0.8,4.4-0.8c1.8,0.1,3.4,0.5,4.7,1.3c1.3,0.9,2,1.9,2,3.1c0,1.2,0.3,2,1,2.4
				c-0.5,0.2-0.8,0.7-1,1.3c-0.1,0.3-0.1,0.6-0.2,0.9c-0.1,1.1-0.8,1.9-2.1,2.4c0.8,0.4,1.3,0.9,1.6,1.5c0.1,0.3,0.2,0.5,0.2,0.8
				c-0.1,0.9,0.3,1.5,1,1.8c0,0,0.1,0.4,0.2,1.2c0.1,1,0.2,1.9,0.4,2.7c0.4,1.2,0.9,2.1,1.6,2.9C334.8,49.3,333.7,49.5,332.7,49.5z
				 M328.4,32.1c0-0.4-0.2-0.8-0.5-1.1c-0.4-0.3-0.8-0.5-1.3-0.5c-0.6,0-1.2,0.2-1.6,0.6c-0.5,0.5-0.8,1.3-0.8,2.3
				c0,1,0.2,1.8,0.7,2.3c0.4,0.5,0.9,0.7,1.6,0.7c0.5,0,1-0.1,1.4-0.4c0.4-0.3,0.6-0.6,0.6-1.1c0-0.5-0.2-1-0.6-1.4
				C328.2,33.1,328.4,32.6,328.4,32.1z"/>
			<path fill="#FFFFFF" d="M374.2,44.9c-0.1-2.3-0.8-3.7-2.2-4.4c-0.7-0.3-1.3-0.3-2-0.1c-0.6,0.2-1.1,0.6-1.4,1.2
				c-0.3,0.6-0.3,1.2-0.1,1.9c0.3,0.7,0.9,1.3,1.5,1.6c0.4,0.2,0.8,0.3,1.2,0.3c-0.1,0.6,0.1,1.4,0.5,2.3c0.2,0.4,0.4,0.8,0.7,1.2
				c1.5,2,1.7,4.1,0.7,6.2c-0.7,1.6-2,2.7-3.6,3.3c-1.9,0.6-3.9,0.4-6-0.6c-1.1-0.5-2.1-1.2-3.1-2.1c-0.2-0.2-0.5-0.5-0.9-1.1
				c-0.3-0.4-0.6-0.7-0.9-0.8c-0.5-0.2-1.1-0.3-1.9-0.1c0.1-0.2,0.1-0.4,0.2-0.6c0.5-1,1.2-1.6,2.1-1.7c-0.1-0.4,0-0.8,0.2-1.3
				c0.3-0.6,0.8-1.2,1.5-1.8c0.1,1.4,0.6,2.7,1.4,3.8c0.7,1,1.6,1.7,2.6,2.2c0.8,0.4,1.6,0.5,2.4,0.4c0.7-0.1,1.2-0.4,1.5-1.1
				c0.3-0.6,0.3-1.4,0-2.4c-0.3-0.8-1-1.4-1.8-1.8c-0.4-0.2-0.9-0.3-1.3-0.4c0.5-1.3,0.3-2.3-0.4-3c-1.4-1.9-1.6-3.9-0.6-5.9
				c0.7-1.5,1.9-2.7,3.6-3.3c1.8-0.7,3.5-0.7,5.2,0.1c1,0.5,1.8,1.2,2.6,2.1c0.2,0.2,0.3,0.5,0.5,0.7c0.2,0.2,0.4,0.4,0.7,0.5
				c0.3,0.1,0.7,0.3,1.3,0.5c0,0.2-0.1,0.3-0.2,0.5c-0.3,0.6-0.9,1.1-1.7,1.5C375.8,43.8,375.1,44.5,374.2,44.9z"/>
			<path fill="#FFFFFF" d="M393.3,54.5c0.9-1.4,1.3-2.6,1.2-3.5c0.7-0.1,1.3,0.1,1.9,0.5c0.5,0.4,0.9,1,1,1.8c0.8-0.1,1.5,0.1,2,0.5
				c0.5,0.4,0.9,1,1,1.7c-1.6,0.9-3.1,2.1-4.4,3.8c-1.4,1.8-2.1,3.3-2.1,4.6c-1.3,0.4-2.6,1.4-3.9,3.2c-1.3,1.7-2.2,3.5-2.5,5.3
				c-0.7,0.1-1.4-0.1-1.9-0.5c-0.5-0.4-0.8-1-1-1.8c-0.8,0.1-1.5-0.1-2-0.5c-0.5-0.4-0.9-1-1-1.7c0.9-0.1,1.9-0.8,3-2.1
				c0.3-0.3,1-1.3,2.2-2.8c0.7-0.9,0.8-1.7,0.3-2.4c-0.2-0.2-0.4-0.4-0.6-0.6c-0.2-0.1-0.4-0.3-0.7-0.4c-0.8-0.2-1.5,0.1-2.2,1
				c-1.2,1.5-1.9,2.5-2.1,2.9c-0.9,1.4-1.3,2.6-1.2,3.5c-0.7,0.1-1.4-0.1-1.9-0.5c-0.5-0.4-0.9-1-1-1.8c-0.8,0.1-1.5-0.1-2-0.5
				c-0.5-0.4-0.8-1-1-1.7c1.6-0.9,3.1-2.1,4.4-3.8c1.4-1.8,2-3.3,2.1-4.6c1.3-0.4,2.6-1.4,3.9-3.2c1.3-1.7,2.2-3.5,2.6-5.3
				c0.7-0.1,1.4,0.1,1.9,0.5c0.5,0.4,0.9,1,1,1.8c0.8-0.1,1.5,0.1,2,0.5c0.5,0.4,0.8,1,1,1.7c-0.9,0.1-1.9,0.8-3,2.1
				c-0.3,0.3-1,1.3-2.2,2.8c-0.7,0.9-0.8,1.7-0.4,2.4c0.2,0.3,0.4,0.5,0.6,0.6c0.2,0.1,0.4,0.3,0.7,0.4c0.8,0.2,1.6-0.1,2.2-1
				C392.3,55.8,393,54.8,393.3,54.5z"/>
			<path fill="#FFFFFF" d="M398.4,84.2c-1-0.4-1.9-1.1-2.9-2.1c-0.8-1.1-1.4-2.1-1.7-3.2c-0.7-2.5,0.1-4.6,2.2-6.4l2-1.7
				c0.9-0.8,1.2-1.6,1-2.4c0.5,0.2,1,0.2,1.7-0.1c0.3-0.1,0.5-0.3,0.8-0.5l1.9-1.6c2-1.7,4.2-2.1,6.6-1c1,0.4,1.9,1.1,2.9,2.1
				c0.8,1.1,1.3,2.2,1.6,3.2c0.6,2.5-0.1,4.6-2.1,6.3l-1.9,1.6c-0.9,0.8-1.2,1.6-1,2.4c-0.5-0.2-1-0.2-1.7,0.1
				c-0.3,0.1-0.5,0.3-0.8,0.5l-2,1.7C403,84.9,400.8,85.3,398.4,84.2z M404.1,78.1c0.9-0.8,1.2-1.6,1-2.4c0.5,0.2,1.1,0.2,1.7-0.1
				c0.3-0.1,0.5-0.3,0.8-0.5l1.8-1.5c0.6-0.5,1-1.1,1.1-1.8c0.1-0.7-0.1-1.2-0.5-1.7c-0.4-0.5-0.9-0.7-1.6-0.8
				c-0.7,0-1.3,0.2-1.9,0.7l-1.8,1.5c-0.9,0.8-1.2,1.6-1,2.4c-0.5-0.2-1.1-0.2-1.7,0.1c-0.3,0.1-0.5,0.3-0.8,0.5l-1.8,1.5
				c-0.7,0.6-1,1.1-1.1,1.8c-0.1,0.6,0.1,1.2,0.5,1.7c0.4,0.5,0.9,0.7,1.6,0.8c0.6,0,1.3-0.2,2-0.8L404.1,78.1z"/>
			<path fill="#FFFFFF" d="M404.2,93.5c-0.3-0.6-0.4-1.2-0.2-2c1.8-0.1,3.7-0.6,5.6-1.6c2-1,3.2-2.2,3.8-3.3
				c1.3,0.2,2.9-0.2,4.9-1.3c1.9-1,3.4-2.2,4.5-3.7c0.7,0.3,1.2,0.7,1.5,1.3c0.3,0.6,0.4,1.4,0.2,2.2c1.2,0.9,2.1,2,2.9,3.4
				c0.9,1.6,1.3,3.2,1.2,4.8c-0.1,1.6-0.6,2.7-1.7,3.3c-1.1,0.6-1.6,1.3-1.6,2.1c-0.4-0.3-1-0.4-1.7-0.2c-0.3,0.1-0.6,0.2-0.9,0.3
				c-1.9,0.9-3.3,0.9-4.3-0.1c-0.9-0.5-1.8-1.5-2.7-3c-0.7-1.4-1.5-2-2.4-2.1c-0.3,0-1,0.2-1.9,0.7c-2,1.1-3.3,2.4-3.9,3.9
				c-0.7-0.2-1.2-0.6-1.5-1.2c-0.3-0.6-0.4-1.3-0.2-2.1C405,94.5,404.5,94.1,404.2,93.5z M423.3,93c0.4-0.2,0.7-0.6,0.7-1.1
				c0.1-0.5,0-0.9-0.2-1.4c-0.3-0.6-0.8-0.9-1.4-1.1c-0.7-0.2-1.5,0-2.4,0.4c-0.9,0.5-1.5,1.1-1.7,1.8c-0.2,0.6-0.2,1.2,0.1,1.7
				c0.2,0.5,0.6,0.8,1,1c0.4,0.2,0.9,0.2,1.3,0c0.4-0.2,0.7-0.7,1-1.3C422.3,93.2,422.9,93.2,423.3,93z"/>
		</g>
		<g>
			<path fill="#FFFFFF" d="M238.7,225.3c-0.4-0.4-0.5-0.9-0.4-1.3c1.1-0.3,2-0.8,2.7-1.5c0.9-0.8,1.4-1.8,1.6-2.8
				c0.1-1-0.2-1.9-0.9-2.7c-0.7-0.8-1.6-1.2-2.6-1.1c-1,0-2,0.5-2.9,1.3c-0.7,0.7-1.3,1.5-1.8,2.5c-0.4,0.1-0.8,0-1.2-0.5
				c-0.4-0.5-0.8-1.2-1.2-2.1c-0.5,0-1-0.3-1.5-0.8c-0.5-0.6-0.9-1.3-1.1-2.2c3.9,0.2,7-0.8,9.5-3.1c0.4-0.4,0.8-0.8,1.1-1.2
				c3.6-0.2,6.5-1.2,8.5-3.1c0.7-0.7,1.2-1.3,1.3-1.9c0.7,0.1,1.3,0.3,1.7,0.8c0.4,0.5,0.6,1.1,0.6,1.9c0.8,0,1.4,0.3,1.8,0.8
				c0.4,0.5,0.6,1.1,0.6,1.8c-0.6,0.1-1.3,0.5-2,1.1c-2.1,1.9-3.4,4.6-3.9,8.2c-0.4,0.2-0.8,0.5-1.3,0.9c-2.5,2.2-3.8,5.3-4,9.2
				c-0.9-0.3-1.6-0.7-2.1-1.3c-0.4-0.5-0.6-1-0.6-1.5C239.8,226.2,239.2,225.8,238.7,225.3z M247,212.3c-1.5,0.3-2.7,0.9-3.7,1.8
				c0.5,0.2,0.8,0.4,1,0.6c0.2,0.2,0.4,0.6,0.5,1.1C245.8,214.9,246.5,213.7,247,212.3z"/>
			<path fill="#FFFFFF" d="M267.3,231.2c0.8-0.5,1.6-1.4,2.5-2.6c1.3-2,1.8-3.5,1.6-4.7c0.7-0.1,1.3,0,1.8,0.3
				c0.5,0.3,0.8,0.9,1,1.7c0.8-0.2,1.4-0.1,1.9,0.3c0.5,0.3,0.8,0.9,1,1.5l-1,0.7c-1.2,0.8-2.2,1.9-3.1,3.3
				c-1.2,1.9-1.8,3.5-1.8,4.9c-1.2,0.4-2.5,1.6-3.7,3.5c-1.2,1.8-1.9,3.6-2.2,5.4c-0.7,0.1-1.2,0.1-1.7-0.3c-0.5-0.3-0.8-0.9-1-1.6
				c-0.7,0.2-1.4,0.1-1.9-0.2c-0.5-0.3-0.8-0.8-0.9-1.5c1.1-0.3,2-1,2.6-2c0.7-1.1,1-2.3,0.9-3.8l-0.4-5.6c-1.3,0.8-2.5,2-3.6,3.6
				c-1.2,1.8-2,3.7-2.4,5.9c-0.7,0.1-1.3,0-1.8-0.3c-0.5-0.3-0.9-0.9-1-1.7c-0.8,0.1-1.4,0-2-0.3c-0.5-0.3-0.8-0.9-1-1.5
				c1.6-1,3-2.3,4.1-4.1c1.2-1.9,1.8-3.4,1.8-4.7c1.3-0.5,2.6-1.7,3.8-3.5c0.9-1.4,1.5-2.7,1.8-4.1l0.3-1.2c0.7-0.1,1.3,0,1.8,0.3
				c0.5,0.3,0.9,0.9,1,1.7c0.8-0.2,1.4-0.1,1.9,0.3c0.5,0.3,0.8,0.9,1,1.5c-0.6,0.4-1,0.8-1.4,1.3c-0.4,0.6-0.6,1.4-0.6,2.1
				L267.3,231.2z"/>
			<path fill="#FFFFFF" d="M293,245.9c-0.5,0.1-1,0.4-1.4,0.9c-0.2,0.2-0.3,0.5-0.5,0.9l-1.7,4.5c-0.7,1.2-1.7,1.9-3.2,2.1
				c-1.5,0.3-3,0.1-4.6-0.5c-1.5-0.6-2.8-1.4-3.8-2.6c-0.8,0.3-1.5,0.3-2.2,0.1c-0.7-0.2-1.1-0.7-1.5-1.3c1.3-1.3,2.3-2.9,3.1-4.9
				c0.8-2.1,1-3.7,0.7-5c1.1-0.7,2-2.1,2.8-4.2c0.7-2,1.1-3.9,0.9-5.7c0.7-0.3,1.3-0.3,2,0c0.6,0.2,1.2,0.7,1.6,1.5
				c1.4-0.1,2.9,0.1,4.4,0.7c1.7,0.6,3.1,1.6,4,2.8c1,1.2,1.3,2.4,0.8,3.5l-1.7,4.5C292.4,244.4,292.5,245.3,293,245.9z
				 M289.4,239.2c0.3-0.8,0.3-1.4,0-2c-0.3-0.5-0.7-0.9-1.3-1.1c-0.5-0.2-1.1-0.2-1.6-0.1c-0.6,0.2-0.9,0.6-1.1,1.1l-1.1,2.9
				c-0.4,1.2-0.3,2,0.2,2.6c-0.5,0-1,0.4-1.4,0.9c-0.2,0.2-0.3,0.5-0.5,0.9l-1.4,3.6c-0.2,0.5-0.2,1.1,0.1,1.6
				c0.3,0.5,0.7,0.8,1.3,1c0.6,0.2,1.2,0.2,1.7,0c0.6-0.2,1-0.7,1.3-1.5l1.2-3.1c0.4-1.2,0.3-2-0.2-2.6c0.5,0,1-0.4,1.4-0.9
				c0.2-0.3,0.3-0.5,0.4-0.9L289.4,239.2z"/>
			<path fill="#FFFFFF" d="M329.8,245.2c-1.1-2-2.4-3-3.9-3c-0.7,0-1.3,0.3-1.8,0.8c-0.5,0.5-0.7,1.1-0.7,1.7c0,0.6,0.3,1.2,0.8,1.8
				c0.6,0.5,1.3,0.8,2.1,0.8c0.4,0,0.8-0.1,1.2-0.3c0.2,0.6,0.7,1.2,1.5,1.8c0.3,0.3,0.8,0.5,1.2,0.8c2.2,1.1,3.3,2.9,3.4,5.3
				c0,1.8-0.6,3.3-1.8,4.6c-1.4,1.4-3.3,2.1-5.6,2.2c-1.2,0-2.4-0.1-3.7-0.5c-0.3-0.1-0.7-0.3-1.3-0.5c-0.5-0.2-0.9-0.3-1.2-0.3
				c-0.5,0-1.1,0.3-1.7,0.7c0-0.2-0.1-0.4-0.1-0.6c0-1.1,0.4-1.9,1.1-2.4c-0.3-0.3-0.4-0.7-0.4-1.3c0-0.7,0.2-1.4,0.5-2.2
				c0.7,1.2,1.7,2.2,2.9,2.8c1.1,0.6,2.2,0.8,3.3,0.8c0.9,0,1.7-0.2,2.3-0.6c0.6-0.4,0.9-1,0.9-1.6c0-0.7-0.4-1.4-1.1-2.2
				c-0.7-0.5-1.5-0.8-2.4-0.8c-0.5,0-0.9,0.1-1.4,0.2c-0.1-1.3-0.7-2.2-1.7-2.5c-2.1-1.1-3.1-2.8-3.2-5c0-1.7,0.5-3.2,1.8-4.6
				c1.3-1.4,2.8-2.1,4.7-2.2c1.1,0,2.2,0.2,3.3,0.7c0.2,0.1,0.5,0.3,0.7,0.4c0.2,0.1,0.5,0.2,0.8,0.2c0.3,0,0.7-0.1,1.3-0.1
				c0,0.2,0.1,0.3,0.1,0.5c0,0.7-0.3,1.4-0.8,2C330.8,243.5,330.5,244.4,329.8,245.2z"/>
			<path fill="#FFFFFF" d="M348.3,240.1c-0.5-1.6-1.2-2.7-1.9-3.1c0.4-0.6,0.9-1,1.6-1.1c0.6-0.2,1.3,0,2,0.4c0.5-0.7,1-1.1,1.6-1.2
				c0.6-0.2,1.3-0.1,1.9,0.3c-0.4,1.8-0.3,3.8,0.2,5.8c0.5,2.2,1.3,3.7,2.3,4.5c-0.5,1.2-0.5,2.9,0,5.1c0.5,2.1,1.3,3.8,2.5,5.3
				c-0.4,0.6-1,1-1.6,1.1c-0.6,0.2-1.3,0-2-0.4c-0.4,0.7-1,1.1-1.6,1.2c-0.6,0.2-1.3,0.1-1.9-0.3c0.4-0.7,0.5-1.9,0.3-3.6
				c-0.1-0.5-0.3-1.6-0.8-3.5c-0.3-1.1-0.8-1.7-1.7-1.8c-0.3,0-0.6,0-0.8,0.1c-0.2,0.1-0.5,0.2-0.8,0.3c-0.7,0.5-0.9,1.3-0.6,2.3
				c0.4,1.9,0.7,3,0.9,3.4c0.5,1.6,1.2,2.7,1.9,3.1c-0.4,0.6-0.9,1-1.6,1.1c-0.6,0.2-1.3,0-2-0.4c-0.4,0.7-1,1.1-1.6,1.2
				c-0.6,0.2-1.3,0-1.9-0.3c0.4-1.8,0.3-3.8-0.2-5.8c-0.5-2.2-1.3-3.7-2.3-4.5c0.5-1.2,0.5-2.9,0-5.1c-0.5-2.1-1.3-3.8-2.5-5.3
				c0.4-0.6,0.9-1,1.6-1.1c0.6-0.2,1.3,0,2,0.4c0.5-0.7,1-1.1,1.7-1.2c0.6-0.1,1.3,0,1.9,0.3c-0.4,0.7-0.5,1.9-0.3,3.6
				c0.1,0.5,0.3,1.6,0.8,3.5c0.3,1.1,0.8,1.7,1.6,1.8c0.3,0,0.6,0,0.8-0.1c0.2-0.1,0.5-0.2,0.8-0.3c0.7-0.5,0.9-1.3,0.7-2.4
				C348.7,241.7,348.4,240.5,348.3,240.1z"/>
			<path fill="#FFFFFF" d="M381.9,246.5c-0.5,0.3-1,0.3-1.3,0.1c-0.1-1.1-0.3-2.1-0.8-3c-0.6-1.1-1.3-1.8-2.3-2.2
				c-1-0.4-1.9-0.3-2.8,0.1c-0.9,0.5-1.5,1.3-1.7,2.3c-0.2,1-0.1,2.1,0.5,3.2c0.5,0.9,1.1,1.7,2,2.4c0,0.4-0.2,0.8-0.8,1.1
				c-0.6,0.3-1.4,0.5-2.4,0.6c-0.2,0.5-0.5,0.9-1.1,1.2c-0.7,0.4-1.5,0.5-2.4,0.5c1.1-3.7,0.9-7-0.6-10c-0.3-0.5-0.6-1-0.9-1.3
				c0.7-3.6,0.4-6.6-0.9-9c-0.5-0.9-1-1.5-1.5-1.8c0.2-0.7,0.6-1.2,1.2-1.5c0.6-0.3,1.2-0.3,2-0.1c0.2-0.7,0.6-1.3,1.2-1.6
				c0.6-0.3,1.2-0.4,1.9-0.2c-0.1,0.6,0.1,1.4,0.6,2.2c1.3,2.5,3.6,4.4,7,5.8c0.1,0.4,0.3,0.9,0.6,1.5c1.5,2.9,4.2,5,7.9,6.2
				c-0.5,0.8-1.1,1.4-1.8,1.7c-0.6,0.3-1.1,0.4-1.6,0.2C383.1,245.7,382.5,246.2,381.9,246.5z M371.3,235.3c-0.1,1.5,0.2,2.9,0.8,4
				c0.3-0.4,0.6-0.7,0.9-0.8c0.3-0.1,0.7-0.2,1.2-0.3C373.6,237.1,372.6,236.1,371.3,235.3z"/>
			<path fill="#FFFFFF" d="M396.5,236.8c-0.5,0.4-1.1,0.6-1.8,0.7c-0.1-0.8-0.4-1.6-1.1-2.4c-1-1.3-2.5-2.3-4.5-3.2
				c-1.8-0.8-3.1-1.1-3.9-0.9c-0.4-0.6-0.8-1.2-1.2-1.7c-0.9-1.1-2-2-3.3-2.7c-1.1-0.6-2.6-1.1-4.5-1.5c0.1-0.9,0.5-1.6,1.1-2.1
				c0.5-0.4,1.2-0.6,2.1-0.5c0.1-0.9,0.4-1.5,1-2c0.5-0.4,1-0.6,1.6-0.6c0.2,1,0.6,1.9,1.3,2.7c1.2,1.5,2.7,2.4,4.5,2.6
				c0.1,0.5,0.4,1.1,0.9,1.7c0.5,0.7,1.2,1.2,1.9,1.7c0.8,0.5,1.4,0.8,2.1,0.8c0.1-0.6-0.1-1.3-0.4-2.2c-0.3-0.8-0.8-1.6-1.3-2.3
				c-0.5-0.6-1-1-1.4-1.3c0.2-1.8-0.3-3.4-1.6-4.9c-0.7-0.8-1.5-1.4-2.4-1.8c0.1-0.5,0.4-1,0.9-1.4c0.6-0.5,1.3-0.7,2.2-0.6
				c0.1-0.9,0.4-1.5,0.9-2c0.6-0.5,1.3-0.7,2.3-0.6c0,1.9,0.2,3.5,0.6,4.7c0.4,1.4,1,2.7,1.9,3.8c0.4,0.5,0.9,1,1.4,1.5
				c-0.4,0.8-0.4,2.1,0,4.1c0.5,2.1,1.2,3.7,2.3,5c0.6,0.8,1.3,1.3,2.1,1.6c-0.3,0.7-0.6,1.3-1.1,1.6c-0.5,0.4-1.1,0.6-1.7,0.5
				C397.3,235.8,397,236.4,396.5,236.8z"/>
			<path fill="#FFFFFF" d="M409.3,209.5c-0.4,0.6-0.6,1.1-0.6,1.7c0.1,0.7,0.4,1.2,1,1.7l1.3,1c1.2,0.9,2.2,0.8,3.2-0.4
				c0.5-0.6,0.8-1.3,0.9-2.2c0.1-0.8,0.1-1.5-0.3-2c1-0.3,1.8-0.1,2.6,0.5c0.4,0.3,0.7,0.7,1,1.1c0.4-0.2,0.9,0.1,1.7,0.8
				c-0.5,0.2-1,0.6-1.5,1.3c-0.3,0.4-0.6,0.8-0.8,1.3c-0.2,0.5-0.4,0.9-0.6,1.4c-0.3,0.6-0.5,1-0.8,1.4c-0.6,0.8-1.5,1.4-2.6,1.8
				c0,0.9-0.2,1.6-0.6,2.1c-0.4,0.5-1,0.9-1.7,1c-0.8-1.6-2.1-3.1-3.7-4.4c-1.7-1.4-3.3-2.1-4.6-2.1c-0.3-1.3-1.4-2.6-3.1-3.9
				c-1.7-1.3-3.4-2.2-5.2-2.6c0-0.7,0.1-1.4,0.6-1.9c0.4-0.6,1.1-0.9,1.9-1.1c0.2-1.2,0.6-2.2,1.2-2.9c0.3-0.4,0.7-0.8,1.2-1.1
				c0.4-0.3,0.8-0.6,1.2-0.9c0.4-0.3,0.8-0.7,1.1-1.1c0.5-0.6,0.8-1.2,0.9-1.7c0.8,0.5,1.2,1,1.1,1.4c0.5,0.1,0.9,0.4,1.3,0.7
				c0.8,0.6,1.2,1.4,1.1,2.4c-0.6-0.2-1.2-0.1-2,0.2c-0.8,0.3-1.4,0.8-1.9,1.4c-0.9,1.2-0.8,2.2,0.3,3.2l1.3,1
				c0.6,0.5,1.2,0.7,1.9,0.6c0.6-0.1,1.2-0.4,1.6-1c0.7-0.9,1-2,0.8-3.3c0.3,0.1,0.5,0.2,0.8,0.4c0.5,0.4,0.8,0.9,0.9,1.6
				c0.7-0.1,1.2,0.1,1.7,0.5c0.3,0.2,0.5,0.4,0.6,0.7C411,208.1,410,208.6,409.3,209.5z"/>
		</g>
		<g>
			<path fill="#FFFFFF" d="M264.7,161c-0.9,0-1.7-0.4-2.4-1.1c0.7-2.1,1-3.8,1-5.3c0-1.9-0.8-4-2.3-6.4c0.4-0.9,0.6-1.8,0.6-2.6
				c0-1-0.3-2.2-0.9-3.5c-0.3-0.7-1.2-2.2-2.6-4.7V151c0.1,4.2,0.8,7.1,2,8.9c-0.9,0.7-1.8,1.1-2.8,1.1c-0.9,0-1.8-0.4-2.6-1.1
				c-0.7,0.7-1.4,1.1-2.2,1.1c-0.9,0-1.7-0.4-2.5-1.1c1.2-2.5,1.8-5.4,1.8-8.6c0-3.4-0.6-5.8-1.8-7.4c1.2-1.7,1.8-4.2,1.8-7.6
				c0-2.4-0.4-4.7-1.2-6.7l-0.7-1.7c1.3-0.7,2.6-1,3.8-1c1.1,0,2.2,0.3,3.6,1c1.1-0.7,2.3-1,3.8-1c0.9,0,1.8,0.1,2.7,0.4
				c0.7,0.2,1.2,0.4,1.4,0.6c-0.7,1.2-1.1,2.7-1.1,4.7c0,2.4,0.3,4.2,0.9,5.5l2,6l2-6c0.6-1.3,0.9-3.1,0.9-5.5c0-1.9-0.3-3.5-1-4.7
				c0.2-0.2,0.6-0.4,1.4-0.6c0.9-0.3,1.8-0.4,2.7-0.4c1.5,0,2.7,0.3,3.8,1c1.3-0.7,2.5-1,3.6-1c1.2,0,2.5,0.3,3.8,1l-0.7,1.7
				c-0.8,2-1.2,4.3-1.2,6.7c0,3.4,0.6,5.9,1.8,7.6c-1.2,1.6-1.8,4.1-1.8,7.4c0,3.2,0.6,6.1,1.8,8.6c-0.8,0.7-1.6,1.1-2.5,1.1
				c-0.8,0-1.5-0.4-2.2-1.1c-0.8,0.7-1.7,1.1-2.6,1.1c-1,0-1.9-0.4-2.8-1.1c0.9-1.2,1.4-3,1.8-5.5c0.1-1,0.2-2.2,0.3-3.4v-13.6
				c-1.4,2.4-2.3,4-2.6,4.7c-0.6,1.3-0.9,2.5-0.9,3.5c0,0.8,0.2,1.7,0.6,2.6c-1.5,2.4-2.3,4.6-2.3,6.4c0,1.5,0.3,3.3,1,5.3
				c-0.8,0.7-1.6,1.1-2.4,1.1c-0.8,0-1.5-0.4-2.2-1.1C266.2,160.6,265.5,161,264.7,161z"/>
			<path fill="#FFFFFF" d="M301.6,159.9c-1.2,0.6-2.7,0.9-4.3,1.1c-1.7-0.1-3.2-0.4-4.4-1c-2.9-1.4-4.4-3.8-4.4-7.3v-3.3
				c-0.1-1.5-0.6-2.5-1.5-2.9c0.6-0.3,1-0.9,1.3-1.7c0.1-0.4,0.2-0.8,0.2-1.2v-3.1c0-3.4,1.5-5.8,4.4-7.2c1.2-0.6,2.7-0.9,4.4-1.1
				c1.7,0.1,3.2,0.5,4.4,1.1c2.9,1.4,4.4,3.8,4.4,7.2v3.1c0.1,1.5,0.6,2.5,1.5,2.9c-0.6,0.3-1,0.9-1.3,1.7c-0.1,0.4-0.2,0.8-0.2,1.2
				v3.3C306,156.1,304.5,158.5,301.6,159.9z M300.3,149.4c-0.1-1.5-0.6-2.5-1.5-2.9c0.6-0.3,1.1-0.9,1.3-1.7
				c0.1-0.4,0.2-0.8,0.2-1.2v-2.9c0-1.1-0.3-1.9-0.9-2.5c-0.6-0.6-1.3-0.9-2-0.9c-0.8,0-1.4,0.3-2,0.9c-0.6,0.6-0.9,1.4-0.9,2.5v2.9
				c0.1,1.5,0.6,2.5,1.5,2.9c-0.6,0.3-1.1,0.9-1.3,1.7c-0.1,0.4-0.2,0.8-0.2,1.2v2.9c0,1.1,0.3,1.9,0.9,2.5c0.6,0.6,1.2,0.9,2,0.9
				c0.8,0,1.5-0.3,2-0.9c0.6-0.6,0.9-1.4,0.9-2.5V149.4z"/>
			<path fill="#FFFFFF" d="M324.3,159.9c-1.2,0.6-2.7,0.9-4.3,1.1c-1.7-0.1-3.2-0.4-4.4-1c-2.9-1.4-4.4-3.8-4.4-7.3v-3.3
				c-0.1-1.5-0.6-2.5-1.5-2.9c0.6-0.3,1-0.9,1.3-1.7c0.1-0.4,0.2-0.8,0.2-1.2v-3.1c0-3.4,1.5-5.8,4.4-7.2c1.2-0.6,2.7-0.9,4.4-1.1
				c1.7,0.1,3.2,0.5,4.4,1.1c2.9,1.4,4.4,3.8,4.4,7.2v3.1c0.1,1.5,0.6,2.5,1.5,2.9c-0.6,0.3-1,0.9-1.3,1.7c-0.1,0.4-0.2,0.8-0.2,1.2
				v3.3C328.7,156.1,327.2,158.5,324.3,159.9z M323,149.4c-0.1-1.5-0.6-2.5-1.5-2.9c0.6-0.3,1.1-0.9,1.3-1.7
				c0.1-0.4,0.2-0.8,0.2-1.2v-2.9c0-1.1-0.3-1.9-0.9-2.5c-0.6-0.6-1.3-0.9-2-0.9c-0.8,0-1.4,0.3-2,0.9c-0.6,0.6-0.9,1.4-0.9,2.5v2.9
				c0.1,1.5,0.6,2.5,1.5,2.9c-0.6,0.3-1.1,0.9-1.3,1.7c-0.1,0.4-0.2,0.8-0.2,1.2v2.9c0,1.1,0.3,1.9,0.9,2.5c0.6,0.6,1.2,0.9,2,0.9
				c0.8,0,1.5-0.3,2-0.9c0.6-0.6,0.9-1.4,0.9-2.5V149.4z"/>
			<path fill="#FFFFFF" d="M345.8,140.4c-1.3-2.6-2.9-3.8-4.9-3.8c-0.9,0-1.7,0.3-2.3,0.9c-0.6,0.6-0.9,1.3-0.9,2.2
				c0,0.8,0.3,1.5,0.9,2.3c0.8,0.7,1.7,1,2.6,1c0.6,0,1.1-0.1,1.5-0.3c0.2,0.7,0.8,1.5,1.8,2.3c0.4,0.3,0.9,0.7,1.5,1
				c2.7,1.5,4.1,3.7,4.1,6.8c0,2.2-0.8,4.1-2.4,5.7c-1.8,1.7-4.2,2.6-7.1,2.6c-1.5,0-3.1-0.2-4.7-0.7c-0.3-0.1-0.9-0.3-1.6-0.7
				c-0.6-0.3-1.1-0.4-1.5-0.4c-0.6,0-1.4,0.3-2.2,0.9c0-0.3-0.1-0.5-0.1-0.8c0-1.4,0.5-2.4,1.5-3c-0.3-0.4-0.5-0.9-0.5-1.6
				c0-0.9,0.2-1.8,0.7-2.8c0.9,1.6,2.1,2.8,3.6,3.6c1.3,0.7,2.7,1.1,4.1,1.1c1.2,0,2.1-0.3,2.9-0.8c0.8-0.5,1.2-1.2,1.2-2
				c0-0.9-0.4-1.8-1.3-2.8c-0.8-0.7-1.8-1-3.1-1c-0.6,0-1.2,0.1-1.7,0.3c-0.1-1.7-0.8-2.8-2.1-3.2c-2.6-1.5-3.9-3.6-3.9-6.4
				c0-2.2,0.8-4.1,2.3-5.7c1.7-1.7,3.6-2.6,6-2.6c1.4,0,2.7,0.3,4.1,1c0.3,0.2,0.6,0.4,0.9,0.5c0.3,0.2,0.6,0.3,1,0.3
				c0.4,0,0.9,0,1.7-0.1c0,0.2,0.1,0.4,0.1,0.6c0,0.9-0.4,1.7-1.1,2.5C347.1,138.3,346.7,139.4,345.8,140.4z"/>
			<path fill="#FFFFFF" d="M362.9,148c-0.9,0-1.6,0.3-2.2,0.8c-0.6,0.6-0.9,1.4-0.9,2.3v2c0,1.9,1,2.8,2.9,2.8c1,0,1.9-0.3,2.9-0.8
				c0.9-0.5,1.5-1.1,1.8-1.8c1,0.7,1.5,1.7,1.5,3c0,0.6-0.1,1.3-0.4,1.8c0.5,0.2,0.7,1,0.5,2.2c-0.6-0.3-1.4-0.5-2.4-0.5
				c-0.6,0-1.3,0.1-1.9,0.2c-0.6,0.1-1.2,0.3-1.9,0.5c-0.8,0.2-1.4,0.3-2,0.3c-1.2,0-2.5-0.4-3.8-1.2c-0.8,0.7-1.7,1-2.6,1
				c-0.9,0-1.6-0.3-2.3-0.9c1-2.1,1.5-4.5,1.5-7.1c0-2.8-0.5-4.9-1.5-6.2c1-1.3,1.5-3.4,1.5-6.2c0-2.7-0.5-5.1-1.5-7.1
				c0.7-0.6,1.5-0.9,2.3-0.9c0.9,0,1.7,0.3,2.6,1c1.3-0.8,2.6-1.1,3.8-1.1c0.6,0,1.3,0.1,2,0.3c0.6,0.2,1.2,0.4,1.9,0.5
				c0.6,0.1,1.3,0.2,1.9,0.2c1,0,1.8-0.2,2.4-0.5c0.1,1.3-0.1,2-0.5,2.2c0.2,0.6,0.4,1.2,0.4,1.8c0,1.3-0.5,2.3-1.5,3
				c-0.2-0.7-0.8-1.3-1.8-1.8c-0.9-0.5-1.9-0.8-2.9-0.8c-1.9,0-2.9,0.9-2.9,2.8v2c0,1,0.3,1.7,0.9,2.3c0.6,0.5,1.3,0.8,2.2,0.8
				c1.4,0,2.7-0.6,3.9-1.8c0.1,0.3,0.2,0.7,0.2,1.1c0,0.8-0.3,1.5-0.9,2.1c0.6,0.6,0.9,1.3,0.9,2.1c0,0.4-0.1,0.8-0.2,1.1
				C365.6,148.6,364.3,148,362.9,148z"/>
			<path fill="#FFFFFF" d="M394.3,140.4c-1.3-2.6-2.9-3.8-4.8-3.8c-0.9,0-1.7,0.3-2.3,0.9c-0.6,0.6-0.9,1.3-0.9,2.2
				c0,0.8,0.3,1.5,0.9,2.3c0.8,0.7,1.7,1,2.6,1c0.5,0,1.1-0.1,1.5-0.3c0.2,0.7,0.8,1.5,1.8,2.3c0.4,0.3,0.9,0.7,1.5,1
				c2.7,1.5,4.1,3.7,4.1,6.8c0,2.2-0.8,4.1-2.4,5.7c-1.8,1.7-4.2,2.6-7.1,2.6c-1.5,0-3.1-0.2-4.7-0.7c-0.3-0.1-0.9-0.3-1.6-0.7
				c-0.6-0.3-1.1-0.4-1.5-0.4c-0.6,0-1.4,0.3-2.2,0.9c0-0.3-0.1-0.5-0.1-0.8c0-1.4,0.5-2.4,1.5-3c-0.3-0.4-0.5-0.9-0.5-1.6
				c0-0.9,0.2-1.8,0.7-2.8c0.9,1.6,2.1,2.8,3.6,3.6c1.3,0.7,2.7,1.1,4.1,1.1c1.2,0,2.1-0.3,2.9-0.8c0.8-0.5,1.2-1.2,1.2-2
				c0-0.9-0.4-1.8-1.3-2.8c-0.8-0.7-1.8-1-3.1-1c-0.6,0-1.2,0.1-1.7,0.3c-0.1-1.7-0.8-2.8-2.1-3.2c-2.6-1.5-3.9-3.6-3.9-6.4
				c0-2.2,0.8-4.1,2.3-5.7c1.7-1.7,3.6-2.6,6-2.6c1.4,0,2.7,0.3,4.1,1c0.3,0.2,0.6,0.4,0.9,0.5c0.3,0.2,0.6,0.3,1,0.3
				c0.4,0,0.9,0,1.7-0.1c0,0.2,0.1,0.4,0.1,0.6c0,0.9-0.4,1.7-1.1,2.5C395.6,138.3,395.1,139.4,394.3,140.4z"/>
		</g>
		<g>
			<path fill-rule="evenodd" clip-rule="evenodd" fill="#FFFFFF" d="M301.7,65.9c0.1,0,0.2,0,0.3,0c1.1,0.4-0.4,2.7,1.1,2.8
				c0.8,0.1,1.5,0,1.9,0c1.3,0,1.1-1.4,1.7-2c0.7-0.1,0.3,1,0.8,1.1c0.9,0,0.3-1.5,1.2-1.6c0.5,0.4,0.2,1.7,0.8,2
				c1.5,0.2,1.3-1.3,2.3-1.6c0.2,0.2,0.2,0.6,0.5,0.8c0.8,0.2,1-0.3,1.7-0.3c0,0.6-0.2,0.6,0,1.1c0.7,0.2,0.9-0.6,1.4-0.2
				c-0.4,1.6-0.9,2.6-2.2,3.4c-1.6,1-4.2,1.3-4.4,2.7c-0.2,1.2,1.7,2.2,1.4,4.1c1,0.7,3.6,0.7,4.1-0.5c-0.6-1.9-2.3-2.8-2.3-5.3
				c1.8,0.6,1.4,3.3,3.9,3.1c1.4-1.3-1-4.2,1-4.9c0.6,0.2,0.2,0.6,0.1,1c0.2,2,1.4,4.8,3.3,4.4c1.3-0.3,0.9-1.8,1.6-3
				c1.4,0.2,0.4,1.8,0.5,2.8c2.8-0.6,2.2-4.7,3.1-7.2c1.3,0,0.5,2.1,0.9,3c2.7,0.3,1.4-3.5,3.7-3.6c0.5,0.5-0.5,1.3,0,1.9
				c1.5,0.2,1-1.6,2.2-1.7c0.3,0.1,0,0.4,0.2,0.8c0.4,0.5,0.5-0.5,1.2,0.1c0.2-0.4,0.4-0.7,0.8-0.6c0,1.7-0.8,3.4-1.7,4.5
				c-2.2,2.7-7.7,5.4-12.2,5.9c-0.6,0.1-1.1,0.7-1.7,0.9c-1.3,0.5-2.7,0.3-3.9,0.6c0.2,0.6,1,1.5,1.9,2c1.6,0.9,4.3,0.7,6.6,1.6
				c1.4,0.6,2.8,1.4,4.1,1.6c3.2,0.5,6.7-0.9,9.7-0.5c3.7,0.5,5.8,4,6.7,7.3c0.2,0.7-0.7,0.3-0.8,0.6c-0.2,2.4-1.2,3.7-0.6,5.9
				c0.4,1.6,2,2.9,2,4.4c0,0.7-0.5,1.6-0.6,2.5c-0.4,3,0.2,6,0,9.7c-0.7,0.6-1.1,1.5-1.4,2.5c-1.1,0.2-2.3,0.4-3.3,0
				c0.3-0.7,0.7-1.3,1.2-1.7c2.3-4.9,1.7-13.8-2-16.7c-0.4,2.5,1.5,2.2-0.2,6.7c-1.2,4.2-3.6,7-4.7,11.2c-0.7,0.2-0.6,1.2-1.1,1.6
				c-0.9,0.2-2,0.5-3,0.2c-0.1-0.9,0.8-1.6,1.4-2.3c1.3-1.8,2.3-3.8,3.1-6.2c1-2.9,2.2-8.1-0.3-10.8c-2.5-2.6-5.2,3-10.8,0
				c-1.6,4.2-0.6,11,0.2,15.3c-0.4,0.8-1.4,1.1-1.4,2.3c-0.7,0.3-2.1,0.6-2.8,0c0.1-0.9,1.1-1.3,1.4-2.2c1.1-2.8,0-7.1-0.6-10
				c-1.4,2.7-1,7.1-1.3,10.9c-0.7,0.6-1.6,1.1-1.9,2.2c-1,0-2.5,0.5-3.1-0.2c0.5-1.1,1.3-1.2,1.9-2c2.2-3.5,0.8-8.5,0.5-12.8
				c-0.1-1.1,0.2-2.4,0-3.4c-0.5-2.8-3.8-5-4.5-7.8c-0.7,0.5-0.9,1.1-1.8,1.5c-3.2-1-1.4-6.2-3.1-8.6c-1,0-0.2,0.2-0.9,0.1
				c-2.4-0.3-3-4.5-0.9-5.8c1.3,0.2,1.8,0.9,3.1,0.5c-0.6-1.1-2.4-1.1-4.1-1.1c-1.9-2.7-6.2-3.8-6.2-7.8c1.2,0.3,0.9,2.1,2.2,2.3
				c0.6-1.7-1.6-3.7-0.2-5.3c0.8,0.6,0.5,2.3,1.1,3.1C301.8,70.5,301.3,67.6,301.7,65.9z"/>
		</g>
		<g>
			<path fill-rule="evenodd" clip-rule="evenodd" fill="#FFFFFF" d="M231,140.9c-0.1,0.5-6.6,3.1-9.3,4.3c2.7,1.2,9.2,3.9,9.3,4.3
				c-1,0.1-8.7-2.3-11.5-3.3c-2.4,1-9.1,4.1-9.3,4.6c-0.3,0.7-0.1,1.3-0.3,1.8c-0.4,0.9-1.6,1.8-3,1.5c-1-0.2-1.7-1.3-1.7-2.2
				c0-1.9,2.1-2.6,3.7-2.1c0.2,0.1,0.6,0.3,0.9,0.3c0.8,0,4.8-2.7,5.8-3.3c0.3-0.5,0.5-1,0.8-1.5c-0.4-1.6-2.3-2.4-3.7-3.3
				c-0.5-0.3-2.9-1.8-3.2-1.8c-0.7,0-1,0.6-1.5,0.7c-1,0.2-1.9-0.4-2.3-1c-0.2-0.4-0.1-0.9-0.3-1.4c-0.5-1.1-2.6-1.3-2.5-3.3
				c0.1-0.1,0.2-0.1,0.2,0c0.7,0.9,1,2.3,2.4,2.3c0.7,0,1.3-0.7,2-0.8c0.8,0,1.8,0.5,2.1,1.4c0.1,0.4-0.1,0.9,0.1,1.4
				c0.2,0.6,6.9,3.8,9.6,4.8C222.3,143.3,230,140.9,231,140.9z M206,138.3c-0.5,2.5,3.4,3,3.4,0.4c0-1.2-0.9-1.8-1.9-1.6
				C206.6,137.3,206.2,137.8,206,138.3z M219,145c0-0.3,0.8-0.2,0.6-0.3C219.2,144.5,218.8,145.1,219,145z M219.3,145.8
				c-0.3-0.2,0.4-0.7,0.7-0.8c-0.1,0-0.1,0-0.1-0.1c-0.1,0-0.1-0.1-0.2-0.1c-0.1,0.4-0.5,0.6-0.8,0.8
				C218.9,145.7,219.4,146,219.3,145.8z M220.1,145.3c0-0.1-0.1-0.3-0.1-0.2C220,145.3,220,145.5,220.1,145.3z M219.7,145.8
				c0-0.1,0.4-0.4,0.2-0.3C219.8,145.7,219.3,145.8,219.7,145.8z M205.8,151.9c0,2.8,4.6,2,4-0.8c-0.1-0.6-0.8-1.2-1.9-1.1
				C206.7,150.2,205.8,150.7,205.8,151.9z"/>
		</g>
		<g>
			<path fill-rule="evenodd" clip-rule="evenodd" fill="#FFFFFF" d="M418.2,140.9c0.1,0.5,6.2,3.1,8.8,4.3c-2.5,1.2-8.7,3.9-8.8,4.3
				c1,0.1,8.3-2.3,10.9-3.3c2.3,1,8.6,4.1,8.8,4.6c0.3,0.7,0.1,1.3,0.2,1.8c0.4,0.9,1.5,1.8,2.8,1.5c1-0.2,1.6-1.3,1.6-2.2
				c0-1.9-2-2.6-3.5-2.1c-0.2,0.1-0.5,0.3-0.9,0.3c-0.7,0-4.5-2.7-5.5-3.3c-0.2-0.5-0.5-1-0.7-1.5c0.4-1.6,2.2-2.4,3.5-3.3
				c0.5-0.3,2.7-1.8,3-1.8c0.6,0,1,0.6,1.4,0.7c0.9,0.2,1.8-0.4,2.2-1c0.2-0.4,0.1-0.9,0.3-1.4c0.4-1.1,2.5-1.3,2.4-3.3
				c-0.1-0.1-0.1-0.1-0.2,0c-0.7,0.9-1,2.3-2.3,2.3c-0.7,0-1.2-0.7-1.9-0.8c-0.8,0-1.7,0.5-2,1.4c-0.1,0.4,0.1,0.9-0.1,1.4
				c-0.2,0.6-6.6,3.8-9.1,4.8C426.4,143.3,419.1,140.9,418.2,140.9z M441.8,138.3c0.5,2.5-3.2,3-3.2,0.4c0-1.2,0.8-1.8,1.8-1.6
				C441.2,137.3,441.7,137.8,441.8,138.3z M429.6,145c0-0.3-0.7-0.2-0.6-0.3C429.4,144.5,429.8,145.1,429.6,145z M429.3,145.8
				c0.3-0.2-0.4-0.7-0.6-0.8c0,0,0.1,0,0.1-0.1c0.1,0,0.1-0.1,0.2-0.1c0.1,0.4,0.5,0.6,0.8,0.8C429.6,145.7,429.1,146,429.3,145.8z
				 M428.5,145.3c0-0.1,0-0.3,0.1-0.2C428.6,145.3,428.6,145.5,428.5,145.3z M428.9,145.8c0-0.1-0.4-0.4-0.2-0.3
				C428.7,145.7,429.2,145.8,428.9,145.8z M442,151.9c0,2.8-4.3,2-3.8-0.8c0.1-0.6,0.7-1.2,1.8-1.1C441.2,150.2,442,150.7,442,151.9
				z"/>
		</g>
		<rect x="241" y="116.6" fill-rule="evenodd" clip-rule="evenodd" fill="#FFFFFF" width="165.7" height="6.6"/>
		<polygon fill-rule="evenodd" clip-rule="evenodd" points="384.7,127 368.8,127 365,115.2 388.6,115.2 		"/>
		<rect x="241" y="164.3" fill-rule="evenodd" clip-rule="evenodd" fill="#FFFFFF" width="165.7" height="6.6"/>
		<g>
			<path d="M306.4,177.4L273,202.7c0,0,0.1,0,0.1,0l33.5-25.4C306.6,177.3,306.5,177.3,306.4,177.4z"/>
			<path d="M354.4,182.5l-22.6,17.2c0,0,0.1,0,0.1,0L354.4,182.5C354.4,182.5,354.4,182.5,354.4,182.5z"/>
			<path fill="#FFFFFF" d="M292.3,184.4c-2.3,1.3-5.1,3-8.3,4.5c-2.9,1.4-7,3.7-9.9,2.4c-0.8-0.3-1.3-1-1.7-1.9l-6.4,4.9
				c1.2,3.7,3.9,6.4,7.2,8.3l33.4-25.3C301.7,178.7,296.8,181.8,292.3,184.4z"/>
			<path fill="#9C0001" d="M274.7,178.6c-5.6,0-9.2,5.7-9.4,10.4c-0.1,1.9,0.2,3.6,0.7,5.2c0,0.1,0,0.1,0.1,0.2l6.4-4.9
				c0-0.1-0.1-0.1-0.1-0.2c-1-2.9,0.1-7.7,3.1-8.6c1.7-0.5,2.7-0.2,5.1,0.5C279.9,179.1,276.7,178.5,274.7,178.6z"/>
			<path fill="#FFFFFF" d="M336.3,176.7c-5.2,0.2-8,2.4-12.3,4.5c-0.7-0.5-1.4-1-2.2-1.5l-35,26.6c7.4,0.4,15.2-1,21.8-3.1l34.2-26
				C340.8,176.8,338.6,176.6,336.3,176.7z"/>
			<path fill="#0A4569" d="M321.6,179.7c-3.2-1.9-7.2-3.3-11.8-2.9c-1.1,0.1-2.1,0.3-3.2,0.6l-33.5,25.4c1.5,0.9,3.2,1.6,4.8,2.1
				c2.7,0.8,5.6,1.3,8.5,1.5c0.1,0,0.2,0,0.3,0l35-26.6C321.7,179.8,321.6,179.7,321.6,179.7z"/>
			<path fill="#9C0001" d="M343.1,177.3c-0.1,0-0.2,0-0.3-0.1l-34.2,26c0.2-0.1,0.4-0.1,0.6-0.2c2.9-1,5.5-2.1,7.8-3.3
				c2.8-1.5,5.1-3.2,7.5-4.8c2.2,1.7,4.6,3.3,7.2,4.7l22.6-17.2C350.9,180.3,347.3,178.3,343.1,177.3z"/>
			<path fill="#FFFFFF" d="M364.3,188.8c-0.5-0.3-1.1-0.6-1.6-0.9c-2.8-1.7-5.5-3.6-8.3-5.5l-22.6,17.2c3.6,1.9,7.6,3.6,12.1,4.7
				L364.3,188.8z"/>
			<path fill="#FFFFFF" d="M376,177.8c-4.4-0.9-7.3,1.4-8,4c2-2.1,4.6-2.1,6.6-0.8l3.3-2.5C377.3,178.1,376.7,177.9,376,177.8z"/>
			<path fill="#FFFFFF" d="M364,206.1c5.6-0.4,12-2.7,15.5-5.9c2.8-2.6,5.1-7.7,4.6-12.5l-24.5,18.6
				C361.1,206.3,362.5,206.2,364,206.1z"/>
			<path fill="#0A4569" d="M384.2,187.6c0-0.3-0.1-0.5-0.1-0.7c-0.5-3.1-3.1-6.7-6.1-8.4c0,0-0.1,0-0.1,0l-3.3,2.5c0,0,0,0,0.1,0
				c2.1,1.4,3.5,4.3,2.4,7.7c-3.3,4.2-8.5,2.5-12.8,0.2c0,0,0,0-0.1,0l-20.4,15.5c0,0,0.1,0,0.1,0c4.8,1.2,10,2,15.6,1.9
				c0,0,0.1,0,0.1,0L384.2,187.6C384.2,187.7,384.2,187.6,384.2,187.6z"/>
		</g>
		<g id="lmXyGe_1_">
			<g>
				<path fill-rule="evenodd" clip-rule="evenodd" fill="#FFFFFF" d="M380.3,114.4c-0.1,0.5,0,1.2-0.3,1.5c-0.8,0.4-1-0.2-1.7,0
					c-0.7,1.7-2.6,2.7-3.5,4.3c0.6-0.2-0.1,0.8-0.2,0.2c0.1,0,0.2-0.2,0-0.2c-0.6,0.6,0.2,1-0.7,0.6c0,0.6,0,1.1-0.3,0.5
					c-0.6,0.3,0.1,0.4-0.2,0.9c-1.2,0.8-2.2,2.7-3.3,3c1-1,2.8-2.4,3.1-3.4c-1,1.4-3.3,2.9-4.2,4.1c-0.4,0.5,0.3,0.6-0.5,0.7
					c0,0.1,0,0.1,0,0.2c0.5,0.4,0.6,1.4,1.4,1.4c2.3-2.2,4.6-4.4,6.5-6.9c0-0.6-0.4-0.5-0.4-0.9c0.8-0.5,1.1-1.2,2.2-1.5
					c1.7,5.1-0.9,9.6-0.1,14c0.1,0.6,0.2,1.5,0.8,1.9c0.1,0,0.1,0,0.2,0c3.2-3,2-12.3,0.7-17.6c0.7-0.5,1-1.2,1.3-1.9
					c-0.1-0.3-0.1-0.8-0.4-0.7C380.6,114.4,380.4,114.4,380.3,114.4z M369.9,125.7C368.9,126.8,369.2,125.5,369.9,125.7L369.9,125.7
					z M369.5,127.7c1.8-2.3,3.6-4.7,6.2-6.6C374.2,123.5,371.5,126.1,369.5,127.7z"/>
			</g>
		</g>
	</g>
</g>
</svg>
