<?xml version="1.0" encoding="utf-8"?>
<!-- Generator: Adobe Illustrator 18.1.1, SVG Export Plug-In . SVG Version: 6.00 Build 0)  -->
<!DOCTYPE svg PUBLIC "-//W3C//DTD SVG 1.1//EN" "http://www.w3.org/Graphics/SVG/1.1/DTD/svg11.dtd">
<svg version="1.1" id="Layer_1" xmlns="http://www.w3.org/2000/svg" xmlns:xlink="http://www.w3.org/1999/xlink" x="0px" y="0px"
	 viewBox="0 0 818.4 504" enable-background="new 0 0 818.4 504" xml:space="preserve">
<g>
	<g id="blend">
		<g>
			<circle cx="50.9" cy="285.5" r="4.5"/>
			<circle cx="23.4" cy="285.5" r="3.5"/>
			<circle cx="1.8" cy="285.5" r="1.8"/>
		</g>
		<g>
			<circle cx="767.5" cy="285.5" r="4.5"/>
			<circle cx="795" cy="285.5" r="3.5"/>
			<circle cx="816.6" cy="285.5" r="1.8"/>
		</g>
		<g>
			<line fill="none" stroke="#000000" stroke-width="4.2463" stroke-miterlimit="10" x1="71.5" y1="285.6" x2="747.1" y2="285.6"/>
			<line fill="none" stroke="#000000" stroke-width="3.6094" stroke-miterlimit="10" x1="135" y1="329.1" x2="683.6" y2="329.1"/>
			<line fill="none" stroke="#000000" stroke-width="2.9724" stroke-miterlimit="10" x1="198.6" y1="372.7" x2="620.1" y2="372.7"/>
			<line fill="none" stroke="#000000" stroke-width="2.3355" stroke-miterlimit="10" x1="262.1" y1="416.2" x2="556.6" y2="416.2"/>
			<line fill="none" stroke="#000000" stroke-width="1.6985" stroke-miterlimit="10" x1="325.6" y1="459.8" x2="493" y2="459.8"/>
			<line fill="none" stroke="#000000" stroke-width="1.0616" stroke-miterlimit="10" x1="389.1" y1="503.3" x2="429.5" y2="503.3"/>
		</g>
	</g>
	<g id="quote">
		<g id="must">
			<path fill="#0D0D0D" d="M450.6,429.9c6.7-2.6,13.6,5.1,7.1,9.7c-12.3,5.3-30.6-26.5-49.4-9.5c-18.8-17-37.1,14.8-49.4,9.5
				c-6.5-4.7,0.4-12.3,7.1-9.7c-4.2-6.5-18.7-1.2-14.3,12.6c3.5,10.7,25.4,21.1,56.6,1c31.3,20.1,53.1,9.8,56.6-1
				C469.2,428.7,454.8,423.4,450.6,429.9z"/>
		</g>
		<g id="ribbon_1_">
			<polygon fill="#202021" points="329.3,396 214.8,396 226,420.8 214.8,444 329.3,444 			"/>
			<polygon fill="#202021" points="489.3,396 603.8,396 592.6,420.8 603.8,444 489.3,444 			"/>
			<polygon fill="#0D0D0D" points="267.3,371.7 329.3,394.5 329.3,443.6 267.3,421 			"/>
			<polygon fill="#0D0D0D" points="551.3,371.7 489.3,394.5 489.3,443.6 551.3,421 			"/>
			<path fill="#333335" d="M551.3,421c0,0-95.8-10.5-142-10.5s-142,10.5-142,10.5v-49.3c0,0,87.3-10.5,142-10.5s142,10.5,142,10.5
				V421z"/>
		</g>
		<g id="trad_1_">
			<g>
				<path fill="#0D0D0D" d="M319.2,385c0,0.9-0.3,1.6-0.8,2.2c-2.5-1.3-4.5-1.9-6.2-1.9c-0.8,0-1.4,0.1-1.9,0.4
					c-0.1,3.5,0.4,6.1,1.6,7.8c-1.1,1.5-1.6,3.8-1.6,7c0,3,0.5,5.7,1.6,8.1c-0.8,0.7-1.6,1-2.6,1c-0.9,0-1.8-0.4-2.6-1.2
					c-0.9,0.8-1.7,1.2-2.7,1.2c-0.9,0-1.8-0.3-2.6-1c1.1-2.4,1.6-5.1,1.6-8.1c0-3.2-0.5-5.5-1.6-7c1.2-1.6,1.7-4.1,1.6-7.6
					c-0.4-0.4-1.1-0.6-2.1-0.6c-1.6,0-3.7,0.6-6.2,1.9c-0.6-0.6-0.8-1.3-0.8-2.2c0-0.9,0.3-1.9,0.8-3c-0.5-0.5-0.8-1.2-0.8-2.1
					c0-0.8,0.3-1.6,0.8-2.3c1.7,0.8,3.7,1.2,5.8,1.2c2,0,4-0.4,5.9-1.2c1.9,0.8,3.9,1.2,5.9,1.2c2.2,0,4.2-0.4,5.9-1.2
					c0.5,0.7,0.8,1.5,0.8,2.3c0,0.9-0.3,1.6-0.8,2.1C318.9,383.1,319.2,384.1,319.2,385z"/>
				<path fill="#0D0D0D" d="M344.1,409.6c-2.3,0-4.4-0.9-6.3-2.6c0.8-1.1,1.2-2.2,1.2-3.2c0-1.2-0.6-2.6-1.8-4.2
					c0.4-0.6,0.6-1.1,0.6-1.7c0-0.8-0.3-1.5-1-2.2c-0.7-0.6-1.5-0.9-2.3-0.9c-0.9,0-1.6,0.4-2.1,1.1c-0.6,0.8-1,2.1-1,3.7
					c0,4.1,0.8,7,2.4,8.6c-0.7,0.7-1.6,1-2.6,1c-1,0-1.9-0.4-2.8-1.2c-0.9,0.8-1.9,1.2-2.9,1.2c-1,0-1.8-0.3-2.6-1
					c1.1-2.3,1.6-5,1.6-7.9c0-3.1-0.5-5.4-1.6-6.8c1.1-1.5,1.6-3.7,1.6-6.8c0-3-0.5-5.6-1.6-7.9c0.7-0.7,1.6-1,2.6-1
					c1,0,1.9,0.4,2.9,1.2c1.8-0.9,3.8-1.3,6.1-1.3c2.6,0,4.8,0.5,6.6,1.6c1.9,1.1,2.9,2.6,2.9,4.3c0,1.7,0.6,2.8,1.5,3.3
					c-0.7,0.3-1.1,1-1.4,1.9c-0.1,0.4-0.2,0.8-0.2,1.3c-0.1,1.5-1.1,2.7-2.9,3.5c1.1,0.5,1.9,1.1,2.4,2c0.2,0.4,0.3,0.8,0.3,1.2
					c-0.1,1.3,0.5,2.1,1.5,2.5c0.1,0,0.1,0.6,0.3,1.7c0.2,1.4,0.4,2.7,0.8,3.7c0.6,1.6,1.3,2.9,2.4,4
					C347.1,409.3,345.6,409.6,344.1,409.6z M337.3,385.5c0-0.6-0.3-1.1-0.8-1.6c-0.5-0.4-1.2-0.6-1.9-0.6c-0.9,0-1.7,0.3-2.2,1
					c-0.7,0.8-1,1.9-1,3.3c0,1.4,0.3,2.5,1,3.2c0.6,0.6,1.3,1,2.2,1c0.7,0,1.3-0.2,1.9-0.6c0.5-0.4,0.8-0.9,0.8-1.6
					c0-0.7-0.3-1.3-1-2C337,386.8,337.3,386.1,337.3,385.5z"/>
				<path fill="#0D0D0D" d="M373.3,409.6c-0.9,0-1.4-0.3-1.7-0.8c0.7-1.4,1-2.9,1-4.2c0-1.7-0.5-3.2-1.4-4.3c-1-1.1-2.2-1.7-3.6-1.7
					c-1.5,0-2.7,0.6-3.7,1.7c-0.9,1.1-1.4,2.5-1.4,4.3c0,1.4,0.3,2.8,1,4.2c-0.2,0.5-0.8,0.8-1.7,0.8c-0.9,0-2-0.3-3.3-0.8
					c-0.6,0.5-1.3,0.8-2.2,0.8c-1.1,0-2.2-0.3-3.4-1c3.8-3.9,5.8-8.1,5.8-12.8c0-0.9-0.1-1.6-0.2-2.2c3.2-3.9,4.8-7.9,4.8-11.8
					c0-1.4-0.2-2.4-0.7-3.2c0.7-0.7,1.6-1,2.4-1c0.9,0,1.7,0.4,2.5,1.2c0.8-0.8,1.6-1.2,2.5-1.2c0.9,0,1.7,0.3,2.5,1
					c-0.5,0.7-0.7,1.8-0.7,3.2c0,3.9,1.6,7.9,4.8,11.8c-0.1,0.6-0.2,1.3-0.2,2.2c0,4.7,1.9,8.9,5.8,12.8c-1.2,0.7-2.3,1-3.4,1
					c-0.9,0-1.6-0.3-2.2-0.8C375.4,409.4,374.3,409.6,373.3,409.6z M367.6,388.8c-1.1,1.8-1.6,3.7-1.6,5.6c0.6-0.3,1.2-0.4,1.6-0.4
					c0.4,0,1,0.1,1.6,0.4C369.2,392.4,368.6,390.6,367.6,388.8z"/>
				<path fill="#0D0D0D" d="M408.9,393.6c-0.6,0.3-1.1,1-1.4,1.9c-0.1,0.4-0.2,0.9-0.2,1.4v6.8c0,1.8-1.3,3.3-3,4.4
					c-1.8,1.1-3.8,1.6-6.2,1.6c-2.2,0-4.3-0.5-6.3-1.4c-0.9,0.8-1.9,1.2-2.8,1.2c-1,0-1.9-0.3-2.6-1c1.1-2.3,1.6-5,1.6-7.9
					c0-3.1-0.5-5.4-1.6-6.8c1.1-1.5,1.6-3.7,1.6-6.8c0-3-0.5-5.6-1.6-7.9c0.7-0.7,1.6-1,2.6-1c1,0,1.9,0.4,2.8,1.2
					c1.8-0.9,3.9-1.3,6.1-1.3c2.6,0,4.7,0.6,6.6,1.7c1.9,1.1,2.8,2.5,2.8,4.2v6.8C407.3,392,408,393.1,408.9,393.6z M401.3,386.6
					c0-1.1-0.5-2-1.1-2.7c-0.6-0.5-1.4-0.8-2.3-0.8c-0.8,0-1.8,0.2-2.4,0.7c-0.6,0.5-1.2,1.2-1.2,2v4.3c0,1.7,0.8,2.8,1.8,3.3
					c-0.7,0.3-1.2,1-1.5,1.9c-0.1,0.4-0.3,0.9-0.3,1.4v5.4c0,0.8,0.5,1.5,1.1,2c0.6,0.5,1.4,0.7,2.3,0.7c0.9,0,1.8-0.3,2.5-0.9
					c0.6-0.6,1.1-1.5,1.1-2.6v-4.6c0-1.7-0.7-2.8-1.7-3.3c0.7-0.3,1.2-1,1.5-1.9c0.1-0.4,0.2-0.9,0.2-1.4V386.6z"/>
				<path fill="#0D0D0D" d="M418.7,408.5c-0.8,0.8-1.7,1.2-2.6,1.2c-0.9,0-1.7-0.3-2.5-1c1.1-2.3,1.6-5,1.6-8c0-3.1-0.5-5.5-1.6-6.9
					c1.1-1.5,1.6-3.8,1.6-6.9c0-3-0.5-5.7-1.6-8c0.8-0.7,1.6-1,2.5-1c0.9,0,1.8,0.4,2.6,1.2c0.9-0.8,1.7-1.2,2.7-1.2
					c0.9,0,1.7,0.3,2.5,1c-1.1,2.3-1.6,5-1.6,8c0,3.1,0.5,5.5,1.6,6.9c-1.1,1.5-1.6,3.8-1.6,6.9c0,3,0.5,5.7,1.6,8
					c-0.8,0.7-1.6,1-2.5,1C420.5,409.6,419.6,409.2,418.7,408.5z"/>
				<path fill="#0D0D0D" d="M454,385c0,0.9-0.3,1.6-0.8,2.2c-2.5-1.3-4.5-1.9-6.2-1.9c-0.8,0-1.4,0.1-1.9,0.4
					c-0.1,3.5,0.4,6.1,1.6,7.8c-1.1,1.5-1.6,3.8-1.6,7c0,3,0.5,5.7,1.6,8.1c-0.8,0.7-1.6,1-2.6,1c-0.9,0-1.8-0.4-2.6-1.2
					c-0.9,0.8-1.7,1.2-2.7,1.2c-0.9,0-1.8-0.3-2.6-1c1.1-2.4,1.6-5.1,1.6-8.1c0-3.2-0.5-5.5-1.6-7c1.2-1.6,1.7-4.1,1.6-7.6
					c-0.4-0.4-1.1-0.6-2.1-0.6c-1.6,0-3.7,0.6-6.2,1.9c-0.6-0.6-0.8-1.3-0.8-2.2c0-0.9,0.3-1.9,0.8-3c-0.5-0.5-0.8-1.2-0.8-2.1
					c0-0.8,0.3-1.6,0.8-2.3c1.7,0.8,3.7,1.2,5.8,1.2c2,0,4-0.4,5.9-1.2c1.9,0.8,3.9,1.2,5.9,1.2c2.2,0,4.2-0.4,5.9-1.2
					c0.5,0.7,0.8,1.5,0.8,2.3c0,0.9-0.3,1.6-0.8,2.1C453.7,383.1,454,384.1,454,385z"/>
				<path fill="#0D0D0D" d="M462.9,408.5c-0.8,0.8-1.7,1.2-2.6,1.2c-0.9,0-1.7-0.3-2.5-1c1.1-2.3,1.6-5,1.6-8c0-3.1-0.5-5.5-1.6-6.9
					c1.1-1.5,1.6-3.8,1.6-6.9c0-3-0.5-5.7-1.6-8c0.8-0.7,1.6-1,2.5-1c0.9,0,1.8,0.4,2.6,1.2c0.9-0.8,1.7-1.2,2.7-1.2
					c0.9,0,1.7,0.3,2.5,1c-1.1,2.3-1.6,5-1.6,8c0,3.1,0.5,5.5,1.6,6.9c-1.1,1.5-1.6,3.8-1.6,6.9c0,3,0.5,5.7,1.6,8
					c-0.8,0.7-1.6,1-2.5,1C464.6,409.6,463.7,409.2,462.9,408.5z"/>
				<path fill="#0D0D0D" d="M489.3,408.4c-1.4,0.6-3,1-4.9,1.2c-1.9-0.1-3.7-0.5-5-1.1c-3.3-1.5-5-4.2-5-8.1v-3.6
					c0-1.7-0.5-2.8-1.5-3.2c0.7-0.3,1.1-1,1.4-1.9c0.1-0.4,0.1-0.8,0.1-1.3v-3.5c0-3.8,1.7-6.4,5-8c1.4-0.6,3-1,4.9-1.2
					c1.9,0.2,3.7,0.6,5,1.2c3.3,1.6,5,4.2,5,8v3.5c0,1.7,0.5,2.8,1.5,3.2c-0.7,0.3-1.1,1-1.4,1.9c-0.1,0.4-0.1,0.8-0.1,1.3v3.6
					C494.3,404.2,492.5,406.9,489.3,408.4z M487.3,396.8c0-1.7-0.5-2.8-1.5-3.2c0.7-0.3,1.1-1,1.4-1.9c0.1-0.4,0.1-0.8,0.1-1.3V387
					c0-1.2-0.2-2.1-0.8-2.8c-0.6-0.7-1.3-1-2.2-1c-0.9,0-1.5,0.3-2.1,1c-0.6,0.7-0.9,1.6-0.9,2.8v3.3c0,1.7,0.6,2.8,1.6,3.2
					c-0.7,0.3-1.1,1-1.4,1.9c-0.1,0.4-0.2,0.8-0.2,1.3v3.3c0,1.2,0.3,2.1,0.9,2.8c0.6,0.7,1.4,1,2.2,1c0.9,0,1.5-0.3,2.1-1
					c0.6-0.7,0.8-1.6,0.8-2.8V396.8z"/>
				<path fill="#0D0D0D" d="M515.2,390.4c0.6-1.2,0.9-2.9,0.9-5c0-3.3-0.6-5.6-1.8-6.8c0.7-0.7,1.5-1,2.4-1c0.9,0,1.7,0.4,2.5,1.2
					c0.8-0.8,1.6-1.2,2.5-1.2c0.9,0,1.6,0.3,2.4,1l-0.6,1.6c-0.7,1.9-1.1,4-1.1,6.3c0,3.1,0.6,5.5,1.7,7.1c-1.1,1.5-1.6,3.8-1.6,6.9
					c0,3,0.5,5.7,1.6,8c-0.7,0.7-1.4,1-2.2,1c-0.9,0-1.7-0.4-2.4-1.2c-0.7,0.8-1.5,1.2-2.4,1.2c-0.8,0-1.6-0.3-2.3-1
					c1-1.2,1.6-2.7,1.6-4.4c0-1.8-0.6-3.5-1.9-5.1l-4.9-6.2c-0.9,1.9-1.4,4.3-1.4,7c0,3,0.6,5.9,1.8,8.7c-0.7,0.7-1.5,1-2.4,1
					c-0.9,0-1.7-0.4-2.5-1.2c-0.8,0.8-1.6,1.2-2.5,1.2c-0.9,0-1.6-0.3-2.4-1c1.1-2.3,1.6-5,1.6-8c0-3.1-0.5-5.5-1.6-6.9
					c1.1-1.6,1.7-3.9,1.7-7.1c0-2.3-0.4-4.4-1.1-6.3l-0.6-1.6c0.7-0.7,1.5-1,2.4-1c0.9,0,1.7,0.4,2.5,1.2c0.8-0.8,1.6-1.2,2.5-1.2
					c0.9,0,1.6,0.3,2.4,1c-0.4,0.9-0.6,1.7-0.6,2.6c0,1.1,0.3,2.1,1,2.9L515.2,390.4z"/>
			</g>
			<g>
				<path fill="#FCFCFC" d="M320.1,380.3c0,0.9-0.3,1.6-0.8,2.2c-2.5-1.3-4.5-1.9-6.2-1.9c-0.8,0-1.4,0.1-1.9,0.4
					c-0.1,3.5,0.4,6.1,1.6,7.8c-1.1,1.5-1.6,3.8-1.6,7c0,3,0.5,5.7,1.6,8.1c-0.8,0.7-1.6,1-2.6,1c-0.9,0-1.8-0.4-2.6-1.2
					c-0.9,0.8-1.7,1.2-2.7,1.2c-0.9,0-1.8-0.3-2.6-1c1.1-2.4,1.6-5.1,1.6-8.1c0-3.2-0.5-5.5-1.6-7c1.2-1.6,1.7-4.1,1.6-7.6
					c-0.4-0.4-1.1-0.6-2.1-0.6c-1.6,0-3.7,0.6-6.2,1.9c-0.6-0.6-0.8-1.3-0.8-2.2c0-0.9,0.3-1.9,0.8-3c-0.5-0.5-0.8-1.2-0.8-2.1
					c0-0.8,0.3-1.6,0.8-2.3c1.7,0.8,3.7,1.2,5.8,1.2c2,0,4-0.4,5.9-1.2c1.9,0.8,3.9,1.2,5.9,1.2c2.2,0,4.2-0.4,5.9-1.2
					c0.5,0.7,0.8,1.5,0.8,2.3c0,0.9-0.3,1.6-0.8,2.1C319.8,378.4,320.1,379.4,320.1,380.3z"/>
				<path fill="#FCFCFC" d="M345.1,404.9c-2.3,0-4.4-0.9-6.3-2.6c0.8-1.1,1.2-2.2,1.2-3.2c0-1.2-0.6-2.6-1.8-4.2
					c0.4-0.6,0.6-1.1,0.6-1.7c0-0.8-0.3-1.5-1-2.2c-0.7-0.6-1.5-0.9-2.3-0.9c-0.9,0-1.6,0.4-2.1,1.1c-0.6,0.8-1,2.1-1,3.7
					c0,4.1,0.8,7,2.4,8.6c-0.7,0.7-1.6,1-2.6,1c-1,0-1.9-0.4-2.8-1.2c-0.9,0.8-1.9,1.2-2.9,1.2c-1,0-1.8-0.3-2.6-1
					c1.1-2.3,1.6-5,1.6-7.9c0-3.1-0.5-5.4-1.6-6.8c1.1-1.5,1.6-3.7,1.6-6.8c0-3-0.5-5.6-1.6-7.9c0.7-0.7,1.6-1,2.6-1
					c1,0,1.9,0.4,2.9,1.2c1.8-0.9,3.8-1.3,6.1-1.3c2.6,0,4.8,0.5,6.6,1.6c1.9,1.1,2.9,2.6,2.9,4.3c0,1.7,0.6,2.8,1.5,3.3
					c-0.7,0.3-1.1,1-1.4,1.9c-0.1,0.4-0.2,0.8-0.2,1.3c-0.1,1.5-1.1,2.7-2.9,3.5c1.1,0.5,1.9,1.1,2.4,2c0.2,0.4,0.3,0.8,0.3,1.2
					c-0.1,1.3,0.5,2.1,1.5,2.5c0.1,0,0.1,0.6,0.3,1.7c0.2,1.4,0.4,2.7,0.8,3.7c0.6,1.6,1.3,2.9,2.4,4
					C348.1,404.6,346.5,404.9,345.1,404.9z M338.2,380.8c0-0.6-0.3-1.1-0.8-1.6c-0.5-0.4-1.2-0.6-1.9-0.6c-0.9,0-1.7,0.3-2.2,1
					c-0.7,0.8-1,1.9-1,3.3c0,1.4,0.3,2.5,1,3.2c0.6,0.6,1.3,1,2.2,1c0.7,0,1.3-0.2,1.9-0.6c0.5-0.4,0.8-0.9,0.8-1.6
					c0-0.7-0.3-1.3-1-2C337.9,382.1,338.2,381.4,338.2,380.8z"/>
				<path fill="#FCFCFC" d="M374.3,404.9c-0.9,0-1.4-0.3-1.7-0.8c0.7-1.4,1-2.9,1-4.2c0-1.7-0.5-3.2-1.4-4.3c-1-1.1-2.2-1.7-3.6-1.7
					c-1.5,0-2.7,0.6-3.7,1.7c-0.9,1.1-1.4,2.5-1.4,4.3c0,1.4,0.3,2.8,1,4.2c-0.2,0.5-0.8,0.8-1.7,0.8c-0.9,0-2-0.3-3.3-0.8
					c-0.6,0.5-1.3,0.8-2.2,0.8c-1.1,0-2.2-0.3-3.4-1c3.8-3.9,5.8-8.1,5.8-12.8c0-0.9-0.1-1.6-0.2-2.2c3.2-3.9,4.8-7.9,4.8-11.8
					c0-1.4-0.2-2.4-0.7-3.2c0.7-0.7,1.6-1,2.4-1c0.9,0,1.7,0.4,2.5,1.2c0.8-0.8,1.6-1.2,2.5-1.2c0.9,0,1.7,0.3,2.5,1
					c-0.5,0.7-0.7,1.8-0.7,3.2c0,3.9,1.6,7.9,4.8,11.8c-0.1,0.6-0.2,1.3-0.2,2.2c0,4.7,1.9,8.9,5.8,12.8c-1.2,0.7-2.3,1-3.4,1
					c-0.9,0-1.6-0.3-2.2-0.8C376.3,404.6,375.2,404.9,374.3,404.9z M368.5,384c-1.1,1.8-1.6,3.7-1.6,5.6c0.6-0.3,1.2-0.4,1.6-0.4
					c0.4,0,1,0.1,1.6,0.4C370.1,387.7,369.6,385.9,368.5,384z"/>
				<path fill="#FCFCFC" d="M409.9,388.9c-0.6,0.3-1.1,1-1.4,1.9c-0.1,0.4-0.2,0.9-0.2,1.4v6.8c0,1.8-1.3,3.3-3.1,4.4
					c-1.8,1.1-3.8,1.6-6.2,1.6c-2.2,0-4.3-0.5-6.3-1.4c-0.9,0.8-1.9,1.2-2.8,1.2c-1,0-1.9-0.3-2.6-1c1.1-2.3,1.6-5,1.6-7.9
					c0-3.1-0.5-5.4-1.6-6.8c1.1-1.5,1.6-3.7,1.6-6.8c0-3-0.5-5.6-1.6-7.9c0.7-0.7,1.6-1,2.6-1c1,0,1.9,0.4,2.8,1.2
					c1.8-0.9,3.9-1.3,6.1-1.3c2.6,0,4.8,0.6,6.7,1.7c1.9,1.1,2.8,2.5,2.8,4.2v6.8C408.3,387.3,408.9,388.4,409.9,388.9z
					 M402.3,381.9c0-1.1-0.5-2-1.2-2.7c-0.6-0.5-1.4-0.8-2.3-0.8c-0.8,0-1.8,0.2-2.4,0.7c-0.6,0.5-1.2,1.2-1.2,2v4.3
					c0,1.7,0.8,2.8,1.8,3.3c-0.7,0.3-1.2,1-1.5,1.9c-0.1,0.4-0.3,0.9-0.3,1.4v5.4c0,0.8,0.5,1.5,1.1,2c0.6,0.5,1.4,0.7,2.3,0.7
					c0.9,0,1.8-0.3,2.5-0.9c0.6-0.6,1.2-1.5,1.2-2.6V392c0-1.7-0.7-2.8-1.7-3.3c0.7-0.3,1.2-1,1.5-1.9c0.1-0.4,0.2-0.9,0.2-1.4
					V381.9z"/>
				<path fill="#FCFCFC" d="M419.7,403.8c-0.8,0.8-1.7,1.2-2.6,1.2c-0.9,0-1.7-0.3-2.5-1c1.1-2.3,1.6-5,1.6-8c0-3.1-0.5-5.5-1.6-6.9
					c1.1-1.5,1.6-3.8,1.6-6.9c0-3-0.5-5.7-1.6-8c0.8-0.7,1.6-1,2.5-1c0.9,0,1.8,0.4,2.6,1.2c0.9-0.8,1.7-1.2,2.7-1.2
					c0.9,0,1.7,0.3,2.5,1c-1.1,2.3-1.6,5-1.6,8c0,3.1,0.5,5.5,1.6,6.9c-1.1,1.5-1.6,3.8-1.6,6.9c0,3,0.5,5.7,1.6,8
					c-0.8,0.7-1.6,1-2.5,1C421.4,404.9,420.5,404.5,419.7,403.8z"/>
				<path fill="#FCFCFC" d="M454.9,380.3c0,0.9-0.3,1.6-0.8,2.2c-2.5-1.3-4.5-1.9-6.2-1.9c-0.8,0-1.4,0.1-1.9,0.4
					c-0.1,3.5,0.4,6.1,1.6,7.8c-1.1,1.5-1.6,3.8-1.6,7c0,3,0.5,5.7,1.6,8.1c-0.8,0.7-1.6,1-2.6,1c-0.9,0-1.8-0.4-2.6-1.2
					c-0.9,0.8-1.7,1.2-2.7,1.2c-0.9,0-1.8-0.3-2.6-1c1.1-2.4,1.6-5.1,1.6-8.1c0-3.2-0.5-5.5-1.6-7c1.2-1.6,1.7-4.1,1.6-7.6
					c-0.4-0.4-1.1-0.6-2.1-0.6c-1.6,0-3.7,0.6-6.2,1.9c-0.6-0.6-0.8-1.3-0.8-2.2c0-0.9,0.3-1.9,0.8-3c-0.5-0.5-0.8-1.2-0.8-2.1
					c0-0.8,0.3-1.6,0.8-2.3c1.7,0.8,3.7,1.2,5.8,1.2c2,0,4-0.4,5.9-1.2c1.9,0.8,3.9,1.2,5.9,1.2c2.2,0,4.2-0.4,5.9-1.2
					c0.5,0.7,0.8,1.5,0.8,2.3c0,0.9-0.3,1.6-0.8,2.1C454.6,378.4,454.9,379.4,454.9,380.3z"/>
				<path fill="#FCFCFC" d="M463.8,403.8c-0.8,0.8-1.7,1.2-2.6,1.2c-0.9,0-1.7-0.3-2.5-1c1.1-2.3,1.6-5,1.6-8c0-3.1-0.5-5.5-1.6-6.9
					c1.1-1.5,1.6-3.8,1.6-6.9c0-3-0.5-5.7-1.6-8c0.8-0.7,1.6-1,2.5-1c0.9,0,1.8,0.4,2.6,1.2c0.9-0.8,1.7-1.2,2.7-1.2
					c0.9,0,1.7,0.3,2.5,1c-1.1,2.3-1.6,5-1.6,8c0,3.1,0.5,5.5,1.6,6.9c-1.1,1.5-1.6,3.8-1.6,6.9c0,3,0.5,5.7,1.6,8
					c-0.8,0.7-1.6,1-2.5,1C465.5,404.9,464.6,404.5,463.8,403.8z"/>
				<path fill="#FCFCFC" d="M490.2,403.7c-1.4,0.6-3.1,1-4.9,1.2c-1.9-0.1-3.6-0.5-5-1.1c-3.3-1.5-5-4.2-5-8.1v-3.6
					c0-1.7-0.5-2.8-1.6-3.2c0.7-0.3,1.1-1,1.4-1.9c0.1-0.4,0.2-0.8,0.2-1.3v-3.5c0-3.8,1.7-6.4,5-8c1.4-0.6,3-1,4.9-1.2
					c1.9,0.2,3.7,0.6,5.1,1.2c3.3,1.6,5.1,4.2,5.1,8v3.5c0,1.7,0.5,2.8,1.5,3.2c-0.7,0.3-1.1,1-1.4,1.9c-0.1,0.4-0.1,0.8-0.1,1.3
					v3.6C495.3,399.5,493.5,402.1,490.2,403.7z M488.3,392.1c0-1.7-0.5-2.8-1.5-3.2c0.7-0.3,1.1-1,1.4-1.9c0.1-0.4,0.1-0.8,0.1-1.3
					v-3.3c0-1.2-0.2-2.1-0.8-2.8c-0.6-0.7-1.3-1-2.2-1c-0.9,0-1.5,0.3-2.1,1c-0.6,0.7-0.8,1.6-0.8,2.8v3.3c0,1.7,0.5,2.8,1.6,3.2
					c-0.7,0.3-1.1,1-1.4,1.9c-0.1,0.4-0.2,0.8-0.2,1.3v3.3c0,1.2,0.2,2.1,0.9,2.8c0.6,0.7,1.3,1,2.2,1c0.9,0,1.5-0.3,2.1-1
					c0.6-0.7,0.8-1.6,0.8-2.8V392.1z"/>
				<path fill="#FCFCFC" d="M516.1,385.7c0.6-1.2,0.9-2.9,0.9-5c0-3.3-0.6-5.6-1.8-6.8c0.7-0.7,1.5-1,2.4-1c0.9,0,1.7,0.4,2.5,1.2
					c0.8-0.8,1.6-1.2,2.5-1.2c0.9,0,1.6,0.3,2.4,1l-0.6,1.6c-0.7,1.9-1.1,4-1.1,6.3c0,3.1,0.6,5.5,1.7,7.1c-1.1,1.5-1.6,3.8-1.6,6.9
					c0,3,0.5,5.7,1.6,8c-0.7,0.7-1.4,1-2.2,1c-0.9,0-1.7-0.4-2.4-1.2c-0.7,0.8-1.5,1.2-2.4,1.2c-0.8,0-1.6-0.3-2.3-1
					c1-1.2,1.6-2.7,1.6-4.4c0-1.8-0.6-3.5-1.9-5.1l-4.9-6.2c-0.9,1.9-1.4,4.3-1.4,7c0,3,0.6,5.9,1.8,8.7c-0.7,0.7-1.5,1-2.4,1
					c-0.9,0-1.7-0.4-2.5-1.2c-0.8,0.8-1.6,1.2-2.5,1.2c-0.9,0-1.6-0.3-2.4-1c1.1-2.3,1.6-5,1.6-8c0-3.1-0.5-5.5-1.6-6.9
					c1.1-1.6,1.7-3.9,1.7-7.1c0-2.3-0.4-4.4-1.1-6.3l-0.6-1.6c0.7-0.7,1.5-1,2.4-1c0.9,0,1.7,0.4,2.5,1.2c0.8-0.8,1.6-1.2,2.5-1.2
					c0.9,0,1.6,0.3,2.4,1c-0.4,0.9-0.6,1.7-0.6,2.6c0,1.1,0.3,2.1,1,2.9L516.1,385.7z"/>
			</g>
		</g>
		<g id="its_decor">
			<path fill="#333335" d="M445,349.1c0.6-0.7,1-1.5,1.4-2.3c-0.1,0.1-0.3,0.1-0.5,0.1c-1.4,0.1-2.6-1.5-2.7-3.6s0.9-3.8,2.2-3.9
				c1.4-0.1,2.6,1.5,2.7,3.6c0,0.2,0,0.4,0,0.6c0,1.6-0.3,3.2-1.1,4.7c-0.8,1.5-2,2.7-3.4,3.7c4.8-0.4,9.7,0,14.5,0.6
				c4.8,0.6,9.7,1.4,14.5,2.1c4.8,0.8,9.7,1.7,14.5,2.5c2.2,0.4,4.5,0.8,6.7,1.1c2,0.3,4,0.4,6.1,0.3c1.2-0.1,2.4-0.2,3.6-0.5
				c0.5-0.1,1.1-0.3,1.6-0.6c0.2-0.1,0.4-0.3,0.5-0.5c0-0.1,0.1-0.3-0.1-0.4c0,0-0.2,0.1-0.3,0.1c-0.1,0-0.2,0-0.3,0
				c-0.3-0.1-0.5-0.2-0.6-0.4c-0.3-0.3-0.4-0.8-0.1-1.1c0.7-0.6,1.7,0.5,1.9,1c0.5,1.1-0.9,1.7-1.8,2c-1.2,0.4-2.5,0.5-3.7,0.6
				c-1.2,0.1-2.3,0.1-3.5,0c1.5,0.2,3,0.4,4.6,0.6c2.4,0.3,4.8,0.5,7.2,0.7c2.4,0.1,4.9,0.2,7.3-0.1c1.1-0.1,2.3-0.4,3.3-0.8
				c1-0.4,1.8-1,2.4-1.9c0.6-0.9,0.9-1.9,0.8-2.9c-0.1-1-0.6-2-1.2-2.8c-1.2-1.7-3-3.1-4.8-4.3c-1.9-1.2-4-2.3-6.1-3.1
				c-2.2-0.9-4.4-1.6-6.7-2.2c-2.3-0.5-4.6-0.9-7-1c-1.1,0-2.3,0-3.3,0.4c-0.4,0.1-0.8,0.4-1,0.7c-0.2,0.4-0.1,1,0,1.4
				c0.1,0.3,0.2,0.5,0.3,0.7c0.1,0.2,0.2,0.5,0.4,0.7c0.3,0.3,0.8,0.5,1.2,0.6c0.8,0.3,1.7,0.3,2.5,0.3c0.8,0,1.6,0.1,2.2,0.5
				c0.8,0.5,1.4,1.3,1.7,2.2c0.2,0.7,0.1,1.5-0.4,2.1c-0.5,0.6-1.3,1.1-2.1,1.2c-0.8,0.1-1.6-0.3-2.2-0.8c-0.5-0.3-0.9-0.7-1.4-1
				c-0.4-0.3-0.9-0.7-1.3-1c-1.6-1.4-3-3.3-3.4-5.3c-0.2-1-0.1-2.1,0.5-3c0.6-0.9,1.6-1.4,2.7-1.6c2.1-0.5,4.5-0.2,6.6,0.2
				c4.6,0.9,9,2.8,13.1,4.9c2,1.1,4,2.3,5.8,3.6c1.7,1.3,3.3,2.8,4.2,4.7c0.5,1,0.7,2.1,0.5,3.1c-0.2,1-0.7,1.9-1.4,2.7
				c-1.4,1.6-3.8,2.1-6,2.4c-2.4,0.3-4.8,0.3-7.2,0.2c-2.4-0.1-4.8-0.3-7.2-0.5c-4.8-0.5-9.7-1.2-14.5-1.9
				c-4.8-0.7-9.7-1.5-14.5-2.2c-4.8-0.8-9.7-1.5-14.5-2c-4.8-0.6-9.7-1.1-14.6-1c-0.6,0-1.2,0-1.8,0.1c-0.3,0-0.6,0.1-0.9,0.1
				c-0.1,0-0.5,0.1-0.6,0c0,0-0.1-0.2-0.1-0.2c0-0.1-0.1-0.3-0.1-0.4c0-0.2-0.1-0.3-0.1-0.5C441.9,351.9,443.7,350.6,445,349.1z"/>
			<path fill="#333335" d="M373.9,349.1c-0.6-0.7-1-1.5-1.4-2.3c0.1,0.1,0.3,0.1,0.5,0.1c1.4,0.1,2.6-1.5,2.7-3.6s-0.9-3.8-2.2-3.9
				c-1.4-0.1-2.6,1.5-2.7,3.6c0,0.2,0,0.4,0,0.6c0,1.6,0.3,3.2,1.1,4.7c0.8,1.5,2,2.7,3.4,3.7c-4.8-0.4-9.7,0-14.5,0.6
				c-4.8,0.6-9.7,1.4-14.5,2.1c-4.8,0.8-9.7,1.7-14.5,2.5c-2.2,0.4-4.5,0.8-6.7,1.1c-2,0.3-4,0.4-6.1,0.3c-1.2-0.1-2.4-0.2-3.6-0.5
				c-0.5-0.1-1.1-0.3-1.6-0.6c-0.2-0.1-0.4-0.3-0.5-0.5c0-0.1-0.1-0.3,0.1-0.4c0,0,0.2,0.1,0.3,0.1c0.1,0,0.2,0,0.3,0
				c0.3-0.1,0.5-0.2,0.6-0.4c0.3-0.3,0.4-0.8,0.1-1.1c-0.7-0.6-1.7,0.5-1.9,1c-0.5,1.1,0.9,1.7,1.8,2c1.2,0.4,2.5,0.5,3.7,0.6
				c1.2,0.1,2.3,0.1,3.5,0c-1.5,0.2-3,0.4-4.6,0.6c-2.4,0.3-4.8,0.5-7.2,0.7c-2.4,0.1-4.9,0.2-7.3-0.1c-1.1-0.1-2.3-0.4-3.3-0.8
				c-1-0.4-1.8-1-2.4-1.9c-0.6-0.9-0.9-1.9-0.8-2.9c0.1-1,0.6-2,1.2-2.8c1.2-1.7,3-3.1,4.8-4.3c1.9-1.2,4-2.3,6.1-3.1
				c2.2-0.9,4.4-1.6,6.7-2.2c2.3-0.5,4.6-0.9,7-1c1.1,0,2.3,0,3.3,0.4c0.4,0.1,0.8,0.4,1,0.7c0.2,0.4,0.1,1,0,1.4
				c-0.1,0.3-0.2,0.5-0.3,0.7c-0.1,0.2-0.2,0.5-0.4,0.7c-0.3,0.3-0.8,0.5-1.2,0.6c-0.8,0.3-1.7,0.3-2.5,0.3c-0.8,0-1.6,0.1-2.2,0.5
				c-0.8,0.5-1.4,1.3-1.7,2.2c-0.2,0.7-0.1,1.5,0.4,2.1c0.5,0.6,1.3,1.1,2.1,1.2c0.8,0.1,1.6-0.3,2.2-0.8c0.5-0.3,0.9-0.7,1.4-1
				c0.4-0.3,0.9-0.7,1.3-1c1.6-1.4,3-3.3,3.4-5.3c0.2-1,0.1-2.1-0.5-3c-0.6-0.9-1.6-1.4-2.7-1.6c-2.1-0.5-4.5-0.2-6.6,0.2
				c-4.6,0.9-9,2.8-13.1,4.9c-2,1.1-4,2.3-5.8,3.6c-1.7,1.3-3.3,2.8-4.2,4.7c-0.5,1-0.7,2.1-0.5,3.1c0.2,1,0.7,1.9,1.4,2.7
				c1.4,1.6,3.8,2.1,6,2.4c2.4,0.3,4.8,0.3,7.2,0.2c2.4-0.1,4.8-0.3,7.2-0.5c4.8-0.5,9.7-1.2,14.5-1.9c4.8-0.7,9.7-1.5,14.5-2.2
				c4.8-0.8,9.7-1.5,14.5-2c4.8-0.6,9.7-1.1,14.6-1c0.6,0,1.2,0,1.8,0.1c0.3,0,0.6,0.1,0.9,0.1c0.1,0,0.5,0.1,0.6,0
				c0,0,0.1-0.2,0.1-0.2c0-0.1,0.1-0.3,0.1-0.4c0-0.2,0.1-0.3,0.1-0.5C377,351.9,375.1,350.6,373.9,349.1z"/>
		</g>
		<g id="its">
			<path d="M398.7,351.8c-0.1,0.2-0.2,0.5-0.4,0.8c-0.2,0.3-0.3,0.7-0.4,1.1c-0.1,0.4-0.2,0.7-0.2,1.1c0,0.3,0,0.6,0.1,0.8
				c0.1,0.2,0.3,0.4,0.5,0.5c0.2,0.1,0.5,0.1,0.8,0c0.3-0.1,0.7-0.3,1.2-0.8c0.5-0.4,1-0.9,1.5-1.4c0.5-0.5,1.1-1,1.5-1.5
				c0.4-0.5,1-0.8,1-1v1.7c0,0.2-0.5,0.5-0.8,0.8c-0.3,0.4-0.7,0.7-1.1,1.2c-0.4,0.4-0.8,0.8-1.2,1.2c-0.4,0.4-0.7,0.7-1,0.9
				c-0.7,0.6-1.4,1.1-2,1.3s-1.3,0.4-2,0.3c-0.4-0.1-0.8-0.2-1.1-0.5c-0.3-0.3-0.5-0.5-0.7-0.9c-0.2-0.4-0.3-0.9-0.3-1.5
				c0-0.5,0-1.1,0.1-1.7c0.1-0.6,0.3-1.2,0.5-1.7c0.2-0.6,0.4-1.1,0.7-1.7c0.5-1,0.9-2,1.3-2.8c0.3-0.7,0.6-1.4,0.9-1.9
				c0.3-0.6,0.4-0.9,0.4-0.9c0.1-0.2,0.2-0.4,0.3-0.5c0.1-0.1,0.1-0.2,0.2-0.2c0.1-0.1,0.2,0.2,0.3,0.2c0.1,0,0.3,0.2,0.5,0.2h2.4
				c0.3,0,0.5-0.2,0.5,0c0,0.2-0.1,0.2-0.2,0.4L398.7,351.8z M401.9,338.2c0.4-0.1,0.7-0.1,1.1,0.1c0.3,0.1,0.6,0.4,0.7,0.7
				c0.1,0.4,0.2,0.8,0.1,1.3c-0.1,0.5-0.2,0.9-0.5,1.4c-0.2,0.4-0.5,0.8-0.9,1.2c-0.4,0.3-0.8,0.5-1.2,0.5c-0.7,0.1-1.2-0.1-1.5-0.6
				c-0.2-0.2-0.2-0.5-0.2-0.9c0-0.4,0.1-0.9,0.3-1.3c0.2-0.5,0.5-1,0.9-1.4C401,338.6,401.5,338.3,401.9,338.2z"/>
			<path d="M410.9,344.6c0.2,0,0.4,0.1,0.6,0.1c0.3,0,0.4,0.1,0.6,0.1c0.4,0.1,0.6,0.2,0.8,0.4s0.2,0.4,0.2,0.6c0,0.2,0,0.4-0.1,0.7
				c-0.1,0.3-0.2,0.4-0.4,0.5c-0.4,0.1-1,0.2-1.6,0.2c-0.6,0-1.2,0-1.7,0l-1,1.9c-0.3,0.6-0.6,1.2-0.9,1.8c-0.3,0.6-0.5,1.2-0.8,1.8
				c-0.2,0.6-0.4,1.1-0.5,1.6c-0.1,0.5-0.1,0.8,0,1c0.2,0.3,0.4,0.6,0.7,0.6c0.3,0.1,0.7,0,1.1-0.1c0.3-0.1,0.7-0.3,1.1-0.7
				c0.4-0.4,0.9-0.8,1.3-1.3c0.4-0.5,0.7-0.9,1.1-1.4c0.4-0.4,0.8-0.8,0.8-1.1v1.7c0,0.4-0.5,0.9-1,1.5c-0.5,0.6-1,1.2-1.7,1.8
				c-0.9,0.8-1.7,1.4-2.6,1.8c-0.9,0.4-1.7,0.6-2.5,0.5c-0.4-0.1-0.7-0.2-1.1-0.4c-0.4-0.2-0.7-0.5-0.9-1.1
				c-0.2-0.4-0.3-0.9-0.3-1.5c0-0.6,0.2-1.2,0.3-1.8s0.4-1.3,0.7-1.9c0.3-0.6,0.5-1.2,0.7-1.6l1.3-3.3c-0.3,0-0.5,0-0.8-0.1
				c-0.3,0-0.5-0.2-0.7-0.5c-0.1-0.1-0.1-0.3-0.1-0.5c0-0.2,0.1-0.4,0.2-0.7c0.1-0.2,0.2-0.4,0.4-0.6c0.2-0.2,0.3-0.3,0.5-0.3
				c0.4-0.1,0.8-0.1,1.2-0.1c0.3,0,0.7-0.1,1-0.1c0.1-0.1,0.2-0.2,0.3-0.5c0.1-0.2,0.3-0.5,0.5-0.8c0.2-0.3,0.4-0.7,0.7-1
				c0.2-0.4,0.4-0.7,0.6-1c0.2-0.3,0.4-0.5,0.5-0.8c0.1-0.2,0.3-0.4,0.4-0.7c0.1-0.2,0.3-0.5,0.5-0.7c0.2-0.2,0.4-0.5,0.6-0.9
				c0.3-0.4,0.5-0.8,0.7-1c0.2-0.2,0.4-0.1,0.6-0.2c0.2-0.1,0.4,0.1,0.7,0.1c0.3,0,0.6,0,1,0c0.4,0,0.7-0.2,0.9-0.2
				c0.2,0,0.4,0.1,0.5,0.5c0.1,0.2-0.1,0.5-0.5,1.1c-0.4,0.6-0.9,1.4-1.6,2.5c-0.3,0.5-0.6,0.9-0.9,1.4c-0.2,0.4-0.5,0.8-0.8,1.2
				C411.3,343.9,411.1,344.3,410.9,344.6z"/>
			<path d="M421.5,342.4c0.1,0.2,0.1,0.4,0,0.7c-0.1,0.3-0.2,0.6-0.4,0.8c-0.1,0.1-0.2,0.2-0.3,0.3c-0.1,0.1-0.2,0.2-0.4,0.4
				c-0.1,0.1-0.2,0.3-0.3,0.4c0,0.1-0.1,0.3-0.1,0.4c-0.1,0.4-0.2,0.8-0.1,1.3c0.1,0.5,0.2,1,0.3,1.6c0.1,0.5,0.2,1,0.2,1.4
				c0.1,0.4,0.1,0.9,0.1,1.5c0,1.7-0.1,3.3-0.4,4.6c0.2-0.1,0.6-0.4,1-0.7c0.4-0.4,0.8-0.7,1.2-1.2c0.4-0.4,0.7-0.9,1.1-1.3
				c0.4-0.4,0.8-0.8,0.8-1.1v1.7c-2,2.3-3.3,3.9-4.8,4.8c-1.4,0.9-2.8,1.2-4.2,0.8c-0.6-0.2-1.1-0.4-1.6-0.8
				c-0.5-0.4-0.9-0.8-1.2-1.4c-0.2-0.3-0.3-0.8-0.4-1.3c-0.1-0.5-0.1-1.1-0.1-1.7c0-0.6,0-1.2,0.1-1.7c0.1-0.6,0.1-1.1,0.2-1.4
				c0.2-0.1,0.3-0.1,0.5-0.3c0.2-0.1,0.3-0.2,0.4-0.3c0.4-0.5,0.9-1,1.4-1.5c0.4-0.4,0.8-0.9,1.2-1.4c0.4-0.5,0.8-0.9,1.2-1.3
				c0.2-0.2,0.4-0.5,0.6-0.7s0.4-0.5,0.6-0.8c0.2-0.3,0.5-0.6,0.7-0.9c0.2-0.3,0.4-0.5,0.6-0.7c0.2-0.2,0.4-0.4,0.6-0.4
				c0.2-0.1,0.5-0.1,0.7-0.1C421.2,342,421.4,342.1,421.5,342.4z M414.5,350.5c0.2,0.7,0.2,1.4,0,2c-0.2,0.7-0.6,1.1-1.1,1.3
				c0.1,0.3,0.2,0.6,0.3,1c0.1,0.4,0.5,0.7,1,0.9c0.4,0.2,0.8,0.2,1.2,0.1c0.4-0.1,0.8-0.3,1.1-0.6c0.5-0.5,0.9-1.1,1.1-1.8
				c0.2-0.8,0.3-1.5,0.3-2.3c0-0.8-0.1-1.6-0.2-2.3c-0.1-0.7-0.2-1.3-0.4-1.7c-0.7,0.6-1.4,1.2-1.9,1.8
				C415.4,349.3,414.9,349.9,414.5,350.5z"/>
		</g>
		<g id="its_not">
			<g id="_its_not_1_">
				<path fill="#FFFFFF" d="M219.5,321.7c-0.7,0.7-1.5,1-2.2,1c-0.8,0-1.5-0.3-2.1-0.9c0.9-2,1.4-4.3,1.4-6.8c0-2.7-0.5-4.6-1.4-5.9
					c0.9-1.2,1.4-3.2,1.4-5.9c0-2.6-0.5-4.8-1.4-6.8c0.7-0.6,1.4-0.9,2.1-0.9c0.8,0,1.5,0.3,2.2,1c0.7-0.7,1.5-1,2.3-1
					c0.8,0,1.5,0.3,2.1,0.9c-0.9,2-1.4,4.3-1.4,6.8c0,2.7,0.5,4.6,1.4,5.9c-0.9,1.2-1.4,3.2-1.4,5.9c0,2.6,0.5,4.8,1.4,6.8
					c-0.7,0.6-1.4,0.9-2.1,0.9C221,322.7,220.2,322.3,219.5,321.7z"/>
				<path fill="#FFFFFF" d="M245.2,301.7c0,0.7-0.2,1.4-0.7,1.9c-2.1-1.1-3.9-1.6-5.2-1.6c-0.7,0-1.2,0.1-1.6,0.4
					c-0.1,3,0.4,5.2,1.4,6.6c-0.9,1.2-1.4,3.2-1.4,5.9c0,2.6,0.5,4.9,1.4,6.9c-0.7,0.6-1.4,0.9-2.2,0.9c-0.8,0-1.5-0.3-2.2-1
					c-0.7,0.7-1.5,1-2.3,1c-0.8,0-1.5-0.3-2.2-0.9c0.9-2,1.4-4.3,1.4-6.9c0-2.7-0.5-4.7-1.4-5.9c1-1.4,1.5-3.5,1.4-6.4
					c-0.4-0.4-1-0.5-1.8-0.5c-1.4,0-3.1,0.5-5.2,1.6c-0.5-0.5-0.7-1.1-0.7-1.9c0-0.8,0.2-1.6,0.7-2.5c-0.5-0.5-0.7-1.1-0.7-1.8
					c0-0.7,0.2-1.4,0.7-2c1.5,0.7,3.1,1,5,1c1.7,0,3.4-0.3,5-1c1.7,0.7,3.3,1,5,1c1.9,0,3.5-0.3,5-1c0.5,0.6,0.7,1.3,0.7,2
					c0,0.7-0.2,1.3-0.7,1.8C244.9,300.1,245.2,301,245.2,301.7z"/>
				<path fill="#FFFFFF" d="M257.6,303.2c-1.2-2.4-2.8-3.6-4.6-3.6c-0.9,0-1.6,0.3-2.2,0.9c-0.6,0.6-0.9,1.2-0.9,2
					c0,0.7,0.3,1.5,0.9,2.1c0.7,0.6,1.6,1,2.5,1c0.5,0,1-0.1,1.4-0.3c0.2,0.7,0.8,1.4,1.7,2.2c0.4,0.3,0.9,0.6,1.4,1
					c2.6,1.4,3.9,3.5,3.9,6.4c0,2.1-0.8,3.9-2.3,5.4c-1.7,1.6-4,2.4-6.8,2.4c-1.4,0-2.9-0.2-4.5-0.6c-0.3-0.1-0.8-0.3-1.5-0.7
					c-0.5-0.3-1-0.4-1.4-0.4c-0.6,0-1.3,0.3-2.1,0.8c0-0.2-0.1-0.5-0.1-0.7c0-1.3,0.5-2.3,1.4-2.9c-0.3-0.4-0.4-0.9-0.4-1.5
					c0-0.8,0.2-1.7,0.7-2.7c0.8,1.5,2,2.6,3.4,3.4c1.2,0.7,2.6,1.1,3.9,1.1c1.1,0,2-0.2,2.8-0.7c0.7-0.5,1.1-1.1,1.1-1.9
					c0-0.8-0.4-1.7-1.2-2.6c-0.8-0.7-1.7-1-2.9-1c-0.6,0-1.1,0.1-1.6,0.2c-0.1-1.6-0.8-2.6-2-3.1c-2.4-1.4-3.7-3.4-3.7-6
					c0-2,0.7-3.9,2.2-5.4c1.6-1.7,3.4-2.5,5.6-2.5c1.3,0,2.6,0.3,3.9,1c0.3,0.2,0.6,0.4,0.9,0.5c0.3,0.2,0.6,0.2,1,0.2
					c0.4,0,0.9,0,1.6-0.1c0,0.2,0.1,0.4,0.1,0.6c0,0.8-0.4,1.6-1.1,2.4C258.9,301.2,258.5,302.3,257.6,303.2z"/>
				<path fill="#FFFFFF" d="M288.2,306.3c0.5-1,0.7-2.4,0.7-4.3c0-2.8-0.5-4.8-1.5-5.7c0.6-0.6,1.3-0.9,2-0.9c0.7,0,1.4,0.3,2.1,1
					c0.7-0.7,1.4-1,2.1-1c0.7,0,1.4,0.3,2,0.9l-0.5,1.4c-0.6,1.6-1,3.4-1,5.3c0,2.7,0.5,4.7,1.5,6c-0.9,1.2-1.4,3.2-1.4,5.9
					c0,2.6,0.5,4.8,1.4,6.8c-0.6,0.6-1.2,0.9-1.9,0.9c-0.7,0-1.4-0.3-2-1c-0.6,0.7-1.3,1-2,1c-0.7,0-1.3-0.3-1.9-0.9
					c0.9-1,1.3-2.3,1.3-3.7c0-1.6-0.5-3-1.6-4.4l-4.1-5.3c-0.8,1.6-1.2,3.6-1.2,6c0,2.5,0.5,5,1.5,7.4c-0.6,0.6-1.3,0.9-2,0.9
					c-0.7,0-1.5-0.3-2.1-1c-0.7,0.7-1.4,1-2.1,1c-0.7,0-1.4-0.3-2-0.9c0.9-2,1.4-4.3,1.4-6.8c0-2.7-0.5-4.6-1.4-5.9
					c1-1.3,1.5-3.3,1.5-6c0-2-0.3-3.7-0.9-5.3l-0.5-1.4c0.6-0.6,1.3-0.9,2-0.9c0.7,0,1.5,0.3,2.1,1c0.7-0.7,1.4-1,2.1-1
					c0.7,0,1.4,0.3,2,0.9c-0.3,0.7-0.5,1.5-0.5,2.2c0,0.9,0.3,1.8,0.9,2.5L288.2,306.3z"/>
				<path fill="#FFFFFF" d="M309.3,321.6c-1.2,0.5-2.5,0.9-4,1c-1.6-0.1-2.8-0.4-4-0.9c-2.8-1.3-4-3.6-4-6.9v-3.1
					c0-1.4-0.7-2.3-1.6-2.8c0.6-0.3,1.1-0.8,1.3-1.6c0.1-0.3,0.2-0.7,0.2-1.1v-3c0-3.2,1.2-5.5,4-6.8c1.2-0.5,2.5-0.9,4.1-1
					c1.6,0.1,2.8,0.5,4,1c2.8,1.3,4,3.6,4,6.8v3c0,1.4,0.7,2.3,1.5,2.8c-0.6,0.3-1,0.8-1.3,1.6c-0.1,0.3-0.2,0.7-0.2,1.1v3.1
					C313.3,318,312,320.3,309.3,321.6z M308.3,311.7c0-1.4-0.6-2.3-1.5-2.8c0.6-0.3,1-0.8,1.3-1.6c0.1-0.3,0.2-0.7,0.2-1.1v-2.8
					c0-1-0.4-1.8-0.9-2.3c-0.5-0.6-1.2-0.9-2-0.9c-0.7,0-1.6,0.3-2.1,0.9c-0.5,0.6-1,1.3-1,2.3v2.8c0,1.4,0.7,2.3,1.6,2.8
					c-0.6,0.3-1.1,0.8-1.3,1.6c-0.1,0.3-0.3,0.7-0.3,1.1v2.8c0,1,0.5,1.8,1,2.4c0.5,0.6,1.3,0.8,2,0.8c0.7,0,1.5-0.3,2.1-0.8
					c0.5-0.6,0.9-1.3,0.9-2.4V311.7z"/>
				<path fill="#FFFFFF" d="M334.7,301.7c0,0.7-0.2,1.4-0.7,1.9c-2.1-1.1-3.9-1.6-5.2-1.6c-0.7,0-1.2,0.1-1.6,0.4
					c-0.1,3,0.4,5.2,1.4,6.6c-0.9,1.2-1.4,3.2-1.4,5.9c0,2.6,0.5,4.9,1.4,6.9c-0.7,0.6-1.4,0.9-2.2,0.9c-0.8,0-1.5-0.3-2.2-1
					c-0.7,0.7-1.5,1-2.3,1c-0.8,0-1.5-0.3-2.2-0.9c0.9-2,1.4-4.3,1.4-6.9c0-2.7-0.5-4.7-1.4-5.9c1-1.4,1.5-3.5,1.4-6.4
					c-0.4-0.4-1-0.5-1.8-0.5c-1.4,0-3.1,0.5-5.2,1.6c-0.5-0.5-0.7-1.1-0.7-1.9c0-0.8,0.2-1.6,0.7-2.5c-0.5-0.5-0.7-1.1-0.7-1.8
					c0-0.7,0.2-1.4,0.7-2c1.5,0.7,3.1,1,5,1c1.7,0,3.4-0.3,5-1c1.7,0.7,3.3,1,5,1c1.9,0,3.5-0.3,5-1c0.5,0.6,0.7,1.3,0.7,2
					c0,0.7-0.2,1.3-0.7,1.8C334.4,300.1,334.7,301,334.7,301.7z"/>
				<path fill="#FFFFFF" d="M365.3,306.1c0,1.5,0.4,2.4,1.3,2.8c-0.6,0.3-0.9,0.8-1.1,1.6c-0.1,0.3-0.1,0.7-0.1,1.2v3
					c0,0.3-0.1,0.6-0.1,1c0,2.9-1.4,4.9-4,6.1c-1.1,0.5-2.5,0.8-4,0.9c-0.4,0-0.8,0-1.1,0c-3,0-5.1-1.1-6.3-3.2
					c-0.5-0.9-0.8-1.9-0.9-3.2c0.1-1.4-0.1-2.4-0.7-3c0.4-0.5,0.9-0.7,1.5-0.7c0.5,0,1.1,0.2,1.6,0.5c0.4-0.8,1.2-1.2,2.3-1.2
					c0.8,0,1.4,0.2,1.7,0.5c-0.7,1-1,1.9-1,2.8c0,0.7,0.2,1.4,0.7,1.9c0.5,0.5,1,0.8,1.7,0.8h0.2c1.1,0,1.8-0.4,2.2-1
					c0.3-0.5,0.4-1.3,0.4-2.5v-2.8c0-1.5-0.4-2.4-1.3-2.8c0.6-0.3,0.9-0.9,1.2-1.7c0.1-0.3,0.1-0.7,0.1-1.2v-2.8
					c0-2-0.1-3.5-0.6-4.5c-0.2-0.5-0.8-1.3-2-2.4c1-0.6,1.9-0.9,2.6-0.9c0.7,0,1.5,0.3,2.4,0.9c0.8-0.7,1.6-1,2.5-1
					c0.8,0,1.7,0.3,2.3,0.9c-0.9,0.9-1.2,3.1-1.2,6.8V306.1z"/>
				<path fill="#FFFFFF" d="M380.3,321.6c-1.2,0.6-2.4,0.9-4,1.1c-1.6-0.1-2.8-0.4-3.9-1c-2.8-1.3-4-3.6-4-7v-3.1
					c0-1.5-0.7-2.4-1.6-2.8c0.6-0.3,1.1-0.9,1.3-1.7c0.1-0.3,0.3-0.7,0.3-1.2v-3c0-2.8-0.9-5-2-6.7c0.8-0.6,1.6-1,2.5-1
					c0.8,0,1.4,0.3,2.1,0.9c0.7-0.6,1.5-0.9,2.3-0.9c0.7,0,1.2,0.3,1.9,0.8c-1,1.9-1.7,4.2-1.7,6.9v2.8c0,1.5,0.7,2.4,1.6,2.8
					c-0.6,0.3-1.1,0.8-1.3,1.6c-0.1,0.3-0.3,0.7-0.3,1.2v2.8c0,1,0.5,1.8,1,2.4c0.5,0.5,1.3,0.8,2,0.8s1.5-0.3,2-0.8
					c0.6-0.6,0.9-1.4,0.9-2.4v-2.8c0-1.5-0.6-2.4-1.4-2.8c0.6-0.3,1-0.9,1.2-1.7c0.1-0.3,0.2-0.7,0.2-1.2v-2.8c0-2.7-0.5-5-1.5-6.9
					c0.6-0.5,1.3-0.8,2.1-0.8c0.8,0,1.5,0.3,2.2,0.9c0.5-0.6,1.1-0.9,1.8-0.9c0.8,0,1.6,0.3,2.4,1c-0.6,1.1-1.3,2.6-1.5,4.3
					c-0.1,0.7-0.4,1.5-0.4,2.3v3c0,1.5,0.7,2.4,1.6,2.8c-0.6,0.3-1.1,0.8-1.3,1.6c-0.1,0.3-0.3,0.7-0.3,1.2v3.1
					C384.3,318,383.1,320.3,380.3,321.6z"/>
				<path fill="#FFFFFF" d="M398.5,303.2c-1.2-2.4-2.8-3.6-4.6-3.6c-0.9,0-1.6,0.3-2.2,0.9c-0.6,0.6-0.9,1.2-0.9,2
					c0,0.7,0.3,1.5,0.9,2.1c0.7,0.6,1.6,1,2.5,1c0.5,0,1-0.1,1.4-0.3c0.2,0.7,0.8,1.4,1.7,2.2c0.4,0.3,0.9,0.6,1.4,1
					c2.6,1.4,3.9,3.5,3.9,6.4c0,2.1-0.8,3.9-2.3,5.4c-1.7,1.6-4,2.4-6.8,2.4c-1.4,0-2.9-0.2-4.5-0.6c-0.3-0.1-0.8-0.3-1.5-0.7
					c-0.5-0.3-1-0.4-1.4-0.4c-0.6,0-1.3,0.3-2.1,0.8c0-0.2-0.1-0.5-0.1-0.7c0-1.3,0.5-2.3,1.4-2.9c-0.3-0.4-0.4-0.9-0.4-1.5
					c0-0.8,0.2-1.7,0.7-2.7c0.8,1.5,2,2.6,3.4,3.4c1.2,0.7,2.6,1.1,3.9,1.1c1.1,0,2-0.2,2.8-0.7c0.7-0.5,1.1-1.1,1.1-1.9
					c0-0.8-0.4-1.7-1.2-2.6c-0.8-0.7-1.7-1-2.9-1c-0.6,0-1.1,0.1-1.6,0.2c-0.1-1.6-0.8-2.6-2-3.1c-2.4-1.4-3.7-3.4-3.7-6
					c0-2,0.7-3.9,2.2-5.4c1.6-1.7,3.4-2.5,5.6-2.5c1.3,0,2.6,0.3,3.9,1c0.3,0.2,0.6,0.4,0.9,0.5c0.3,0.2,0.6,0.2,1,0.2
					c0.4,0,0.9,0,1.6-0.1c0,0.2,0.1,0.4,0.1,0.6c0,0.8-0.4,1.6-1.1,2.4C399.7,301.2,399.3,302.3,398.5,303.2z"/>
				<path fill="#FFFFFF" d="M421.8,301.7c0,0.7-0.2,1.4-0.7,1.9c-2.1-1.1-3.9-1.6-5.2-1.6c-0.7,0-1.2,0.1-1.6,0.4
					c-0.1,3,0.4,5.2,1.4,6.6c-0.9,1.2-1.4,3.2-1.4,5.9c0,2.6,0.5,4.9,1.4,6.9c-0.7,0.6-1.4,0.9-2.2,0.9c-0.8,0-1.5-0.3-2.2-1
					c-0.7,0.7-1.5,1-2.3,1c-0.8,0-1.5-0.3-2.2-0.9c0.9-2,1.4-4.3,1.4-6.9c0-2.7-0.5-4.7-1.4-5.9c1-1.4,1.5-3.5,1.4-6.4
					c-0.4-0.4-1-0.5-1.8-0.5c-1.4,0-3.1,0.5-5.2,1.6c-0.5-0.5-0.7-1.1-0.7-1.9c0-0.8,0.2-1.6,0.7-2.5c-0.5-0.5-0.7-1.1-0.7-1.8
					c0-0.7,0.2-1.4,0.7-2c1.5,0.7,3.1,1,5,1c1.7,0,3.4-0.3,5-1c1.7,0.7,3.3,1,5,1c1.9,0,3.5-0.3,5-1c0.5,0.6,0.7,1.3,0.7,2
					c0,0.7-0.2,1.3-0.7,1.8C421.6,300.1,421.8,301,421.8,301.7z"/>
				<path fill="#FFFFFF" d="M452.5,322.7c-0.7,0-1.2-0.2-1.4-0.7c0.6-1.2,0.9-2.4,0.9-3.6c0-1.5-0.4-2.7-1.2-3.6
					c-0.8-1-1.8-1.4-3.1-1.4c-1.3,0-2.3,0.5-3.1,1.4c-0.8,1-1.2,2.2-1.2,3.6c0,1.2,0.3,2.4,0.8,3.6c-0.2,0.5-0.7,0.7-1.4,0.7
					c-0.8,0-1.7-0.2-2.8-0.7c-0.5,0.5-1.1,0.7-1.8,0.7c-0.9,0-1.9-0.3-2.9-0.9c3.3-3.3,4.9-6.9,4.9-10.9c0-0.7-0.1-1.3-0.2-1.9
					c2.7-3.4,4.1-6.7,4.1-10c0-1.2-0.2-2.1-0.6-2.7c0.6-0.6,1.3-0.9,2.1-0.9c0.8,0,1.5,0.3,2.1,1c0.7-0.7,1.4-1,2.1-1
					c0.8,0,1.5,0.3,2.1,0.9c-0.4,0.6-0.6,1.5-0.6,2.7c0,3.3,1.4,6.7,4.1,10c-0.1,0.5-0.2,1.1-0.2,1.9c0,4,1.6,7.6,4.9,10.9
					c-1,0.6-2,0.9-2.9,0.9c-0.7,0-1.4-0.2-1.8-0.7C454.3,322.4,453.3,322.7,452.5,322.7z M447.6,304.9c-0.9,1.6-1.4,3.1-1.4,4.7
					c0.5-0.2,1-0.4,1.4-0.4s0.8,0.1,1.4,0.4C449,308,448.5,306.5,447.6,304.9z"/>
				<path fill="#FFFFFF" d="M485.8,300.5c-0.2-2-0.6-3.4-1.4-4.1c0.6-0.6,1.3-0.9,2.1-0.9c0.8,0,1.5,0.3,2.2,1c0.7-0.7,1.5-1,2.2-1
					c0.8,0,1.5,0.3,2.2,0.9c-0.9,2-1.4,4.3-1.4,6.8c0,2.7,0.5,4.6,1.4,5.9c-0.9,1.2-1.4,3.2-1.4,5.9c0,2.6,0.5,4.8,1.4,6.8
					c-0.7,0.6-1.4,0.9-2.2,0.9c-0.8,0-1.5-0.3-2.2-1c-0.7,0.7-1.5,1-2.2,1c-0.8,0-1.5-0.3-2.1-0.9c0.7-0.7,1.2-2.1,1.4-4.1
					c0-0.5,0.1-2,0.1-4.3c0-1.3-0.5-2.2-1.4-2.6c-0.4-0.1-0.7-0.1-1-0.1c-0.3,0-0.6,0-1,0.1c-0.9,0.4-1.4,1.2-1.4,2.6
					c0,2.3,0,3.7,0.1,4.3c0.2,2,0.6,3.4,1.4,4.1c-0.7,0.6-1.4,0.9-2.1,0.9c-0.8,0-1.6-0.3-2.3-1c-0.7,0.7-1.5,1-2.2,1
					c-0.8,0-1.5-0.3-2.1-0.9c0.9-2,1.4-4.3,1.4-6.8c0-2.7-0.5-4.6-1.4-5.9c0.9-1.2,1.4-3.2,1.4-5.9c0-2.6-0.5-4.8-1.4-6.8
					c0.7-0.6,1.4-0.9,2.1-0.9c0.8,0,1.5,0.3,2.2,1c0.7-0.7,1.5-1,2.3-1c0.8,0,1.5,0.3,2.1,0.9c-0.7,0.7-1.2,2.1-1.4,4.1
					c0,0.5-0.1,2-0.1,4.3c0,1.3,0.5,2.2,1.4,2.6c0.4,0.1,0.7,0.1,1,0.1c0.3,0,0.6,0,1-0.1c1-0.4,1.4-1.2,1.4-2.6
					C485.9,302.4,485.9,301,485.8,300.5z"/>
				<path fill="#FFFFFF" d="M510.5,322.7c-0.7,0-1.2-0.2-1.4-0.7c0.6-1.2,0.9-2.4,0.9-3.6c0-1.5-0.4-2.7-1.2-3.6
					c-0.8-1-1.8-1.4-3.1-1.4c-1.3,0-2.3,0.5-3.1,1.4c-0.8,1-1.2,2.2-1.2,3.6c0,1.2,0.3,2.4,0.8,3.6c-0.2,0.5-0.7,0.7-1.4,0.7
					c-0.8,0-1.7-0.2-2.8-0.7c-0.5,0.5-1.1,0.7-1.8,0.7c-0.9,0-1.9-0.3-2.9-0.9c3.3-3.3,4.9-6.9,4.9-10.9c0-0.7-0.1-1.3-0.2-1.9
					c2.7-3.4,4.1-6.7,4.1-10c0-1.2-0.2-2.1-0.6-2.7c0.6-0.6,1.3-0.9,2.1-0.9c0.8,0,1.5,0.3,2.1,1c0.7-0.7,1.4-1,2.1-1
					c0.8,0,1.5,0.3,2.1,0.9c-0.4,0.6-0.6,1.5-0.6,2.7c0,3.3,1.4,6.7,4.1,10c-0.1,0.5-0.2,1.1-0.2,1.9c0,4,1.6,7.6,4.9,10.9
					c-1,0.6-2,0.9-2.9,0.9c-0.7,0-1.4-0.2-1.8-0.7C512.2,322.4,511.3,322.7,510.5,322.7z M505.6,304.9c-0.9,1.6-1.4,3.1-1.4,4.7
					c0.5-0.2,1-0.4,1.4-0.4s0.8,0.1,1.4,0.4C506.9,308,506.5,306.5,505.6,304.9z"/>
				<path fill="#FFFFFF" d="M521.6,321.7c-0.7,0.7-1.5,1-2.2,1c-0.8,0-1.5-0.3-2.1-0.9c0.9-2,1.4-4.3,1.4-6.8c0-2.7-0.5-4.6-1.4-5.9
					c0.9-1.2,1.4-3.2,1.4-5.9c0-2.6-0.5-4.8-1.4-6.8c0.7-0.6,1.4-0.9,2.1-0.9c0.8,0,1.5,0.3,2.2,1c0.7-0.7,1.5-1,2.3-1
					c0.8,0,1.5,0.3,2.1,0.9c-0.9,2-1.4,4.3-1.4,6.8c0,2.7,0.5,4.6,1.4,5.9c-0.9,1.2-1.4,3.2-1.4,5.9c0,2.6,0.5,4.8,1.4,6.8
					c-0.7,0.6-1.4,0.9-2.1,0.9C523.1,322.7,522.4,322.3,521.6,321.7z"/>
				<path fill="#FFFFFF" d="M544,322.7c-1.9,0-3.7-0.7-5.4-2.2c0.7-1,1.1-1.8,1.1-2.7c0-1-0.5-2.2-1.6-3.6c0.3-0.5,0.5-1,0.5-1.5
					c0-0.7-0.3-1.3-0.9-1.8c-0.6-0.5-1.2-0.8-2-0.8c-0.7,0-1.3,0.3-1.8,0.9c-0.5,0.7-0.8,1.8-0.8,3.2c0,3.5,0.7,5.9,2,7.3
					c-0.6,0.6-1.4,0.9-2.2,0.9c-0.8,0-1.6-0.3-2.4-1c-0.8,0.7-1.6,1-2.4,1c-0.8,0-1.5-0.3-2.2-0.9c0.9-2,1.4-4.2,1.4-6.7
					c0-2.6-0.5-4.6-1.4-5.8c0.9-1.2,1.4-3.2,1.4-5.8c0-2.5-0.5-4.8-1.4-6.7c0.6-0.6,1.4-0.9,2.2-0.9c0.8,0,1.7,0.3,2.4,1
					c1.5-0.7,3.3-1.1,5.2-1.1c2.2,0,4.1,0.5,5.6,1.4c1.6,1,2.5,2.2,2.5,3.6c0,1.4,0.5,2.4,1.3,2.8c-0.6,0.3-1,0.8-1.2,1.6
					c-0.1,0.3-0.1,0.7-0.2,1.1c-0.1,1.3-0.9,2.3-2.4,3c1,0.4,1.6,1,2,1.7c0.2,0.3,0.2,0.6,0.3,1c0,1.1,0.4,1.8,1.3,2.1
					c0,0,0.1,0.5,0.2,1.5c0.1,1.2,0.4,2.3,0.6,3.2c0.5,1.4,1.1,2.5,2,3.4C546.5,322.4,545.2,322.7,544,322.7z M538.2,302.1
					c0-0.5-0.2-1-0.7-1.3c-0.5-0.4-1-0.5-1.6-0.5c-0.8,0-1.4,0.3-1.9,0.8c-0.6,0.7-0.9,1.6-0.9,2.8s0.3,2.1,0.9,2.8
					c0.5,0.5,1.1,0.8,1.9,0.8c0.6,0,1.1-0.2,1.6-0.5c0.5-0.4,0.7-0.8,0.7-1.3c0-0.6-0.3-1.1-0.8-1.7
					C537.9,303.3,538.2,302.7,538.2,302.1z"/>
				<path fill="#FFFFFF" d="M557.6,312.1c1.1,0,1.9,0.4,2.3,1.2c0.5-0.3,1-0.5,1.6-0.5c0.6,0,1.1,0.2,1.5,0.7
					c-0.6,0.6-0.9,1.5-0.7,2.9c-0.1,1.2-0.4,2.3-0.9,3.1c-1.2,2.1-3.3,3.2-6.3,3.2c-0.3,0-0.7,0-1.1,0c-1.5-0.1-2.9-0.4-3.9-0.9
					c-2.6-1.1-3.8-3.1-3.8-6c0-0.3,0.2-0.6,0.2-1v-3c0-1.4-0.6-2.3-1.5-2.8c0.6-0.3,1-0.8,1.3-1.6c0.1-0.3,0.2-0.7,0.2-1.1v-3
					c0-3.3,1.2-5.6,3.8-6.9c1.1-0.5,2.3-0.9,3.8-1c0.4,0,0.7,0,1.1,0c3,0,5.1,1.1,6.3,3.2c0.5,0.9,0.8,1.9,0.9,3.1
					c-0.1,1.4,0.1,2.4,0.7,2.9c-0.4,0.5-0.9,0.7-1.5,0.7c-0.5,0-1-0.2-1.6-0.5c-0.4,0.8-1.1,1.2-2.3,1.2c-0.8,0-1.4-0.2-1.7-0.5
					c0.6-1,1-1.9,1-2.8c0-0.7-0.2-1.5-0.7-1.9c-0.4-0.5-1-0.8-1.6-0.8h-0.1c-1.1,0-2,0.4-2.4,1c-0.3,0.5-0.6,1.4-0.6,2.5v2.8
					c0,1.4,0.6,2.3,1.5,2.8c-0.6,0.3-1,0.8-1.2,1.6c-0.1,0.3-0.2,0.7-0.2,1.1v2.8c0,1.1,0.3,2,0.6,2.4c0.4,0.6,1.3,1,2.4,1h0.1
					c0.7,0,1.2-0.3,1.6-0.7c0.4-0.5,0.7-1.1,0.7-1.8c0-0.9-0.3-1.8-1-2.8C556.1,312.3,556.7,312.1,557.6,312.1z"/>
				<path fill="#FFFFFF" d="M575.3,321.6c-1.2,0.6-2.4,0.9-4,1.1c-1.6-0.1-2.8-0.4-4-1c-2.8-1.3-4-3.6-4-7v-3.1
					c0-1.5-0.7-2.4-1.6-2.8c0.6-0.3,1.1-0.9,1.3-1.7c0.1-0.3,0.2-0.7,0.2-1.2v-3c0-2.8-0.8-5-1.9-6.7c0.8-0.6,1.6-1,2.5-1
					c0.8,0,1.4,0.3,2.1,0.9c0.7-0.6,1.5-0.9,2.3-0.9c0.7,0,1.2,0.3,1.9,0.8c-1,1.9-1.7,4.2-1.7,6.9v2.8c1,1.5,0.7,2.4,1.6,2.8
					c-0.6,0.3-1.1,0.8-1.3,1.6c-0.1,0.3-0.3,0.7-0.3,1.2v2.8c0,1,0.5,1.8,1.1,2.4c0.5,0.5,1.3,0.8,2,0.8c0.7,0,1.5-0.3,2-0.8
					c0.6-0.6,0.9-1.4,0.9-2.4v-2.8c0-1.5-0.5-2.4-1.4-2.8c0.6-0.3,1-0.9,1.2-1.7c0.1-0.3,0.2-0.7,0.2-1.2v-2.8c0-2.7-0.5-5-1.5-6.9
					c0.6-0.5,1.3-0.8,2.1-0.8c0.8,0,1.5,0.3,2.2,0.9c0.5-0.6,1.1-0.9,1.8-0.9c0.8,0,1.6,0.3,2.4,1c-0.6,1.1-1.3,2.6-1.6,4.3
					c-0.1,0.7,0.6,1.5-0.4,2.3v3c1,1.5,0.8,2.4,1.7,2.8c-0.6,0.3-1.1,0.8-1.3,1.6c-0.1,0.3,0.7,0.7-0.3,1.2v3.1
					C579.3,318,578.1,320.3,575.3,321.6z"/>
				<path fill="#FFFFFF" d="M602.5,301.7c0,0.7-0.2,1.4-0.7,1.9c-2.1-1.1-3.9-1.6-5.2-1.6c-0.7,0-1.2,0.1-1.6,0.4
					c-0.1,3,0.4,5.2,1.4,6.6c-0.9,1.2-1.4,3.2-1.4,5.9c0,2.6,0.5,4.9,1.4,6.9c-0.7,0.6-1.4,0.9-2.2,0.9c-0.8,0-1.5-0.3-2.2-1
					c-0.7,0.7-1.5,1-2.3,1c-0.8,0-1.5-0.3-2.2-0.9c0.9-2,1.4-4.3,1.4-6.9c0-2.7-0.5-4.7-1.4-5.9c1-1.4,1.5-3.5,1.4-6.4
					c-0.4-0.4-1-0.5-1.8-0.5c-1.4,0-3.1,0.5-5.2,1.6c-0.5-0.5-0.7-1.1-0.7-1.9c0-0.8,0.2-1.6,0.7-2.5c-0.5-0.5-0.7-1.1-0.7-1.8
					c0-0.7,0.2-1.4,0.7-2c1.5,0.7,3.1,1,5,1c1.7,0,3.4-0.3,5-1c1.7,0.7,3.3,1,5,1c1.9,0,3.5-0.3,5-1c0.5,0.6,0.7,1.3,0.7,2
					c0,0.7-0.2,1.3-0.7,1.8C602.3,300.1,602.5,301,602.5,301.7z"/>
			</g>
			<g id="its_not_1_">
				<path d="M220.5,320.2c-0.7,0.7-1.5,1-2.2,1c-0.8,0-1.5-0.3-2.1-0.9c0.9-2,1.4-4.3,1.4-6.8c0-2.7-0.5-4.6-1.4-5.9
					c0.9-1.2,1.4-3.2,1.4-5.9c0-2.6-0.5-4.8-1.4-6.8c0.7-0.6,1.4-0.9,2.1-0.9c0.8,0,1.5,0.3,2.2,1c0.7-0.7,1.5-1,2.3-1
					c0.8,0,1.5,0.3,2.1,0.9c-0.9,2-1.4,4.3-1.4,6.8c0,2.7,0.5,4.6,1.4,5.9c-0.9,1.2-1.4,3.2-1.4,5.9c0,2.6,0.5,4.8,1.4,6.8
					c-0.7,0.6-1.4,0.9-2.1,0.9C222,321.2,221.3,320.9,220.5,320.2z"/>
				<path d="M246.2,300.3c0,0.7-0.2,1.4-0.7,1.9c-2.1-1.1-3.9-1.6-5.2-1.6c-0.7,0-1.2,0.1-1.6,0.4c-0.1,3,0.4,5.2,1.4,6.6
					c-0.9,1.2-1.4,3.2-1.4,5.9c0,2.6,0.5,4.9,1.4,6.9c-0.7,0.6-1.4,0.9-2.2,0.9c-0.8,0-1.5-0.3-2.2-1c-0.7,0.7-1.5,1-2.3,1
					c-0.8,0-1.5-0.3-2.2-0.9c0.9-2,1.4-4.3,1.4-6.9c0-2.7-0.5-4.7-1.4-5.9c1-1.4,1.5-3.5,1.4-6.4c-0.4-0.4-1-0.5-1.8-0.5
					c-1.4,0-3.1,0.5-5.2,1.6c-0.5-0.5-0.7-1.1-0.7-1.9c0-0.8,0.2-1.6,0.7-2.5c-0.5-0.5-0.7-1.1-0.7-1.8c0-0.7,0.2-1.4,0.7-2
					c1.5,0.7,3.1,1,5,1c1.7,0,3.4-0.3,5-1c1.7,0.7,3.3,1,5,1c1.9,0,3.5-0.3,5-1c0.5,0.6,0.7,1.3,0.7,2c0,0.7-0.2,1.3-0.7,1.8
					C246,298.7,246.2,299.5,246.2,300.3z"/>
				<path d="M258.7,301.7c-1.2-2.4-2.8-3.6-4.6-3.6c-0.9,0-1.6,0.3-2.2,0.9c-0.6,0.6-0.9,1.2-0.9,2c0,0.7,0.3,1.5,0.9,2.1
					c0.7,0.6,1.6,1,2.5,1c0.5,0,1-0.1,1.4-0.3c0.2,0.7,0.8,1.4,1.7,2.2c0.4,0.3,0.9,0.6,1.4,1c2.6,1.4,3.9,3.5,3.9,6.4
					c0,2.1-0.8,3.9-2.3,5.4c-1.7,1.6-4,2.4-6.8,2.4c-1.4,0-2.9-0.2-4.5-0.6c-0.3-0.1-0.8-0.3-1.5-0.7c-0.5-0.3-1-0.4-1.4-0.4
					c-0.6,0-1.3,0.3-2.1,0.8c0-0.2-0.1-0.5-0.1-0.7c0-1.3,0.5-2.3,1.4-2.9c-0.3-0.4-0.4-0.9-0.4-1.5c0-0.8,0.2-1.7,0.7-2.7
					c0.8,1.5,2,2.6,3.4,3.4c1.2,0.7,2.6,1.1,3.9,1.1c1.1,0,2-0.2,2.8-0.7c0.7-0.5,1.1-1.1,1.1-1.9c0-0.8-0.4-1.7-1.2-2.6
					c-0.8-0.7-1.7-1-2.9-1c-0.6,0-1.1,0.1-1.6,0.2c-0.1-1.6-0.8-2.6-2-3.1c-2.4-1.4-3.7-3.4-3.7-6c0-2,0.7-3.9,2.2-5.4
					c1.6-1.7,3.4-2.5,5.6-2.5c1.3,0,2.6,0.3,3.9,1c0.3,0.2,0.6,0.4,0.9,0.5c0.3,0.2,0.6,0.2,1,0.2c0.4,0,0.9,0,1.6-0.1
					c0,0.2,0.1,0.4,0.1,0.6c0,0.8-0.4,1.6-1.1,2.4C259.9,299.8,259.5,300.8,258.7,301.7z"/>
				<path d="M289.3,304.9c0.5-1,0.7-2.4,0.7-4.3c0-2.8-0.5-4.8-1.5-5.7c0.6-0.6,1.3-0.9,2-0.9c0.7,0,1.4,0.3,2.1,1
					c0.7-0.7,1.4-1,2.1-1c0.7,0,1.4,0.3,2,0.9l-0.5,1.4c-0.6,1.6-1,3.4-1,5.3c0,2.7,0.5,4.7,1.5,6c-0.9,1.2-1.4,3.2-1.4,5.9
					c0,2.6,0.5,4.8,1.4,6.8c-0.6,0.6-1.2,0.9-1.9,0.9c-0.7,0-1.4-0.3-2-1c-0.6,0.7-1.3,1-2,1c-0.7,0-1.3-0.3-1.9-0.9
					c0.9-1,1.3-2.3,1.3-3.7c0-1.6-0.5-3-1.6-4.4l-4.1-5.3c-0.8,1.6-1.2,3.6-1.2,6c0,2.5,0.5,5,1.5,7.4c-0.6,0.6-1.3,0.9-2,0.9
					c-0.7,0-1.5-0.3-2.1-1c-0.7,0.7-1.4,1-2.1,1c-0.7,0-1.4-0.3-2-0.9c0.9-2,1.4-4.3,1.4-6.8c0-2.7-0.5-4.6-1.4-5.9
					c1-1.3,1.5-3.3,1.5-6c0-2-0.3-3.7-0.9-5.3l-0.5-1.4c0.6-0.6,1.3-0.9,2-0.9c0.7,0,1.5,0.3,2.1,1c0.7-0.7,1.4-1,2.1-1
					c0.7,0,1.4,0.3,2,0.9c-0.3,0.7-0.5,1.5-0.5,2.2c0,0.9,0.3,1.8,0.9,2.5L289.3,304.9z"/>
				<path d="M310.3,320.2c-1.2,0.5-2.4,0.9-4,1c-1.6-0.1-2.8-0.4-4-0.9c-2.8-1.3-4-3.6-4-6.9v-3.1c0-1.4-0.7-2.3-1.5-2.8
					c0.6-0.3,1-0.8,1.3-1.6c0.1-0.3,0.2-0.7,0.2-1.1v-3c0-3.2,1.3-5.5,4-6.8c1.2-0.5,2.5-0.9,4.1-1c1.6,0.1,2.8,0.5,3.9,1
					c2.8,1.3,3.9,3.6,3.9,6.8v3c0,1.4,0.7,2.3,1.6,2.8c-0.6,0.3-1.1,0.8-1.3,1.6c-0.1,0.3-0.3,0.7-0.3,1.1v3.1
					C314.3,316.6,313,318.9,310.3,320.2z M309.3,310.3c0-1.4-0.6-2.3-1.4-2.8c0.6-0.3,1-0.8,1.2-1.6c0.1-0.3,0.2-0.7,0.2-1.1V302
					c0-1-0.3-1.8-0.9-2.3c-0.5-0.6-1.2-0.9-2-0.9c-0.7,0-1.6,0.3-2.1,0.9c-0.5,0.6-1,1.3-1,2.3v2.8c0,1.4,0.7,2.3,1.6,2.8
					c-0.6,0.3-1.1,0.8-1.3,1.6c-0.1,0.3-0.3,0.7-0.3,1.1v2.8c0,1,0.5,1.8,1,2.4c0.5,0.6,1.3,0.8,2,0.8c0.7,0,1.5-0.3,2-0.8
					c0.5-0.6,0.9-1.3,0.9-2.4V310.3z"/>
				<path d="M335.7,300.3c0,0.7-0.2,1.4-0.7,1.9c-2.1-1.1-3.9-1.6-5.2-1.6c-0.7,0-1.2,0.1-1.6,0.4c-0.1,3,0.4,5.2,1.4,6.6
					c-0.9,1.2-1.4,3.2-1.4,5.9c0,2.6,0.5,4.9,1.4,6.9c-0.7,0.6-1.4,0.9-2.2,0.9c-0.8,0-1.5-0.3-2.2-1c-0.7,0.7-1.5,1-2.3,1
					c-0.8,0-1.5-0.3-2.2-0.9c0.9-2,1.4-4.3,1.4-6.9c0-2.7-0.5-4.7-1.4-5.9c1-1.4,1.5-3.5,1.4-6.4c-0.4-0.4-1-0.5-1.8-0.5
					c-1.4,0-3.1,0.5-5.2,1.6c-0.5-0.5-0.7-1.1-0.7-1.9c0-0.8,0.2-1.6,0.7-2.5c-0.5-0.5-0.7-1.1-0.7-1.8c0-0.7,0.2-1.4,0.7-2
					c1.5,0.7,3.1,1,5,1c1.7,0,3.4-0.3,5-1c1.7,0.7,3.3,1,5,1c1.9,0,3.5-0.3,5-1c0.5,0.6,0.7,1.3,0.7,2c0,0.7-0.2,1.3-0.7,1.8
					C335.5,298.7,335.7,299.5,335.7,300.3z"/>
				<path d="M366.3,304.7c0,1.5,0.4,2.4,1.3,2.8c-0.6,0.3-0.9,0.8-1.2,1.6c-0.1,0.3-0.1,0.7-0.1,1.2v3c0,0.3,0,0.6,0,1
					c0,2.9-1.4,4.9-4,6.1c-1.1,0.5-2.5,0.8-4,0.9c-0.4,0-0.8,0-1.1,0c-3,0-5.1-1.1-6.3-3.2c-0.5-0.9-0.8-1.9-0.9-3.2
					c0.1-1.4-0.1-2.4-0.7-3c0.4-0.5,0.9-0.7,1.5-0.7c0.5,0,1.1,0.2,1.6,0.5c0.4-0.8,1.2-1.2,2.3-1.2c0.8,0,1.4,0.2,1.7,0.5
					c-0.7,1-1,1.9-1,2.8c0,0.7,0.2,1.2,0.7,1.6c0.5,0.5,1,0.5,1.7,0.5h0.2c1.1,0,1.8-0.1,2.2-0.7c0.3-0.5,0.3-1,0.3-2.2v-2.8
					c0-1.5-0.4-2.4-1.2-2.8c0.6-0.3,0.9-0.9,1.1-1.7c0.1-0.3,0.1-0.7,0.1-1.2v-2.8c0-2-0.1-3.5-0.6-4.5c-0.2-0.5-0.8-1.3-2-2.4
					c1-0.6,1.9-0.9,2.6-0.9c0.7,0,1.5,0.3,2.4,0.9c0.8-0.7,1.6-1,2.5-1c0.8,0,1.6,0.3,2.3,0.9c-0.9,0.9-1.2,3.1-1.2,6.8V304.7z"/>
				<path d="M381.3,320.2c-1.2,0.6-2.4,0.9-4,1.1c-1.6-0.1-2.8-0.4-4-1c-2.8-1.3-4-3.6-4-7v-3.1c0-1.5-0.7-2.4-1.6-2.8
					c0.6-0.3,1.1-0.9,1.3-1.7c0.1-0.3,0.3-0.7,0.3-1.2v-3c0-2.8-0.8-5-1.9-6.7c0.8-0.6,1.6-1,2.5-1c0.8,0,1.4,0.3,2.1,0.9
					c0.7-0.6,1.5-0.9,2.3-0.9c0.7,0,1.2,0.3,1.9,0.8c-1,1.9-1.7,4.2-1.7,6.9v2.8c0,1.5,0.7,2.4,1.6,2.8c-0.6,0.3-1.1,0.8-1.3,1.6
					c-0.1,0.3-0.3,0.7-0.3,1.2v2.8c0,1,0.5,1.8,1.1,2.4c0.5,0.5,1.3,0.8,2,0.8s1.5-0.3,2-0.8c0.6-0.6,0.9-1.4,0.9-2.4v-2.8
					c0-1.5-0.6-2.4-1.4-2.8c0.6-0.3,1-0.9,1.2-1.7c0.1-0.3,0.2-0.7,0.2-1.2v-2.8c0-2.7-0.5-5-1.5-6.9c0.6-0.5,1.3-0.8,2.1-0.8
					c0.8,0,1.5,0.3,2.2,0.9c0.5-0.6,1.1-0.9,1.8-0.9c0.8,0,1.6,0.3,2.4,1c-0.6,1.1-1.3,2.6-1.6,4.3c-0.1,0.7-0.4,1.5-0.4,2.3v3
					c1,1.5,0.8,2.4,1.7,2.8c-0.6,0.3-1.1,0.8-1.3,1.6c-0.1,0.3-0.3,0.7-0.3,1.2v3.1C385.3,316.5,384.1,318.8,381.3,320.2z"/>
				<path d="M399.6,301.7c-1.2-2.4-2.8-3.6-4.6-3.6c-0.9,0-1.6,0.3-2.2,0.9c-0.6,0.6-0.9,1.2-0.9,2c0,0.7,0.3,1.5,0.9,2.1
					c0.7,0.6,1.6,1,2.5,1c0.5,0,1-0.1,1.4-0.3c0.2,0.7,0.8,1.4,1.7,2.2c0.4,0.3,0.9,0.6,1.4,1c2.6,1.4,3.9,3.5,3.9,6.4
					c0,2.1-0.8,3.9-2.3,5.4c-1.7,1.6-4,2.4-6.8,2.4c-1.4,0-2.9-0.2-4.5-0.6c-0.3-0.1-0.8-0.3-1.5-0.7c-0.5-0.3-1-0.4-1.4-0.4
					c-0.6,0-1.3,0.3-2.1,0.8c0-0.2-0.1-0.5-0.1-0.7c0-1.3,0.5-2.3,1.4-2.9c-0.3-0.4-0.4-0.9-0.4-1.5c0-0.8,0.2-1.7,0.7-2.7
					c0.8,1.5,2,2.6,3.4,3.4c1.2,0.7,2.6,1.1,3.9,1.1c1.1,0,2-0.2,2.8-0.7c0.7-0.5,1.1-1.1,1.1-1.9c0-0.8-0.4-1.7-1.2-2.6
					c-0.8-0.7-1.7-1-2.9-1c-0.6,0-1.1,0.1-1.6,0.2c-0.1-1.6-0.8-2.6-2-3.1c-2.4-1.4-3.7-3.4-3.7-6c0-2,0.7-3.9,2.2-5.4
					c1.6-1.7,3.4-2.5,5.6-2.5c1.3,0,2.6,0.3,3.9,1c0.3,0.2,0.6,0.4,0.9,0.5c0.3,0.2,0.6,0.2,1,0.2c0.4,0,0.9,0,1.6-0.1
					c0,0.2,0.1,0.4,0.1,0.6c0,0.8-0.4,1.6-1.1,2.4C400.8,299.8,400.4,300.8,399.6,301.7z"/>
				<path d="M422.9,300.3c0,0.7-0.2,1.4-0.7,1.9c-2.1-1.1-3.9-1.6-5.2-1.6c-0.7,0-1.2,0.1-1.6,0.4c-0.1,3,0.4,5.2,1.4,6.6
					c-0.9,1.2-1.4,3.2-1.4,5.9c0,2.6,0.5,4.9,1.4,6.9c-0.7,0.6-1.4,0.9-2.2,0.9c-0.8,0-1.5-0.3-2.2-1c-0.7,0.7-1.5,1-2.3,1
					c-0.8,0-1.5-0.3-2.2-0.9c0.9-2,1.4-4.3,1.4-6.9c0-2.7-0.5-4.7-1.4-5.9c1-1.4,1.5-3.5,1.4-6.4c-0.4-0.4-1-0.5-1.8-0.5
					c-1.4,0-3.1,0.5-5.2,1.6c-0.5-0.5-0.7-1.1-0.7-1.9c0-0.8,0.2-1.6,0.7-2.5c-0.5-0.5-0.7-1.1-0.7-1.8c0-0.7,0.2-1.4,0.7-2
					c1.5,0.7,3.1,1,5,1c1.7,0,3.4-0.3,5-1c1.7,0.7,3.3,1,5,1c1.9,0,3.5-0.3,5-1c0.5,0.6,0.7,1.3,0.7,2c0,0.7-0.2,1.3-0.7,1.8
					C422.6,298.7,422.9,299.5,422.9,300.3z"/>
				<path d="M453.6,321.2c-0.7,0-1.2-0.2-1.4-0.7c0.6-1.2,0.9-2.4,0.9-3.6c0-1.5-0.4-2.7-1.2-3.6c-0.8-1-1.8-1.4-3.1-1.4
					c-1.3,0-2.3,0.5-3.1,1.4c-0.8,1-1.2,2.2-1.2,3.6c0,1.2,0.3,2.4,0.8,3.6c-0.2,0.5-0.7,0.7-1.4,0.7c-0.8,0-1.7-0.2-2.8-0.7
					c-0.5,0.5-1.1,0.7-1.8,0.7c-0.9,0-1.9-0.3-2.9-0.9c3.3-3.3,4.9-6.9,4.9-10.9c0-0.7-0.1-1.3-0.2-1.9c2.7-3.4,4.1-6.7,4.1-10
					c0-1.2-0.2-2.1-0.6-2.7c0.6-0.6,1.3-0.9,2.1-0.9c0.8,0,1.5,0.3,2.1,1c0.7-0.7,1.4-1,2.1-1c0.8,0,1.5,0.3,2.1,0.9
					c-0.4,0.6-0.6,1.5-0.6,2.7c0,3.3,1.4,6.7,4.1,10c-0.1,0.5-0.2,1.1-0.2,1.9c0,4,1.6,7.6,4.9,10.9c-1,0.6-2,0.9-2.9,0.9
					c-0.7,0-1.4-0.2-1.8-0.7C455.3,321,454.4,321.2,453.6,321.2z M448.7,303.5c-0.9,1.6-1.4,3.1-1.4,4.7c0.5-0.2,1-0.4,1.4-0.4
					c0.4,0,0.8,0.1,1.4,0.4C450,306.6,449.6,305,448.7,303.5z"/>
				<path d="M486.9,299.1c-0.2-2-0.6-3.4-1.4-4.1c0.6-0.6,1.3-0.9,2.1-0.9c0.8,0,1.5,0.3,2.2,1c0.7-0.7,1.5-1,2.2-1
					c0.8,0,1.5,0.3,2.2,0.9c-0.9,2-1.4,4.3-1.4,6.8c0,2.7,0.5,4.6,1.4,5.9c-0.9,1.2-1.4,3.2-1.4,5.9c0,2.6,0.5,4.8,1.4,6.8
					c-0.7,0.6-1.4,0.9-2.2,0.9c-0.8,0-1.5-0.3-2.2-1c-0.7,0.7-1.5,1-2.2,1c-0.8,0-1.5-0.3-2.1-0.9c0.7-0.7,1.2-2.1,1.4-4.1
					c0-0.5,0.1-2,0.1-4.3c0-1.3-0.5-2.2-1.4-2.6c-0.4-0.1-0.7-0.1-1-0.1c-0.3,0-0.6,0-1,0.1c-0.9,0.4-1.4,1.2-1.4,2.6
					c0,2.3,0,3.7,0.1,4.3c0.2,2,0.6,3.4,1.4,4.1c-0.7,0.6-1.4,0.9-2.1,0.9c-0.8,0-1.6-0.3-2.3-1c-0.7,0.7-1.5,1-2.2,1
					c-0.8,0-1.5-0.3-2.1-0.9c0.9-2,1.4-4.3,1.4-6.8c0-2.7-0.5-4.6-1.4-5.9c0.9-1.2,1.4-3.2,1.4-5.9c0-2.6-0.5-4.8-1.4-6.8
					c0.7-0.6,1.4-0.9,2.1-0.9c0.8,0,1.5,0.3,2.2,1c0.7-0.7,1.5-1,2.3-1c0.8,0,1.5,0.3,2.1,0.9c-0.7,0.7-1.2,2.1-1.4,4.1
					c0,0.5-0.1,2-0.1,4.3c0,1.3,0.5,2.2,1.4,2.6c0.4,0.1,0.7,0.1,1,0.1c0.3,0,0.6,0,1-0.1c1-0.4,1.4-1.2,1.4-2.6
					C487,301,487,299.6,486.9,299.1z"/>
				<path d="M511.5,321.2c-0.7,0-1.2-0.2-1.4-0.7c0.6-1.2,0.9-2.4,0.9-3.6c0-1.5-0.4-2.7-1.2-3.6c-0.8-1-1.8-1.4-3.1-1.4
					c-1.3,0-2.3,0.5-3.1,1.4c-0.8,1-1.2,2.2-1.2,3.6c0,1.2,0.3,2.4,0.8,3.6c-0.2,0.5-0.7,0.7-1.4,0.7c-0.8,0-1.7-0.2-2.8-0.7
					c-0.5,0.5-1.1,0.7-1.8,0.7c-0.9,0-1.9-0.3-2.9-0.9c3.3-3.3,4.9-6.9,4.9-10.9c0-0.7-0.1-1.3-0.2-1.9c2.7-3.4,4.1-6.7,4.1-10
					c0-1.2-0.2-2.1-0.6-2.7c0.6-0.6,1.3-0.9,2.1-0.9c0.8,0,1.5,0.3,2.1,1c0.7-0.7,1.4-1,2.1-1c0.8,0,1.5,0.3,2.1,0.9
					c-0.4,0.6-0.6,1.5-0.6,2.7c0,3.3,1.4,6.7,4.1,10c-0.1,0.5-0.2,1.1-0.2,1.9c0,4,1.6,7.6,4.9,10.9c-1,0.6-2,0.9-2.9,0.9
					c-0.7,0-1.4-0.2-1.8-0.7C513.3,321,512.3,321.2,511.5,321.2z M506.6,303.5c-0.9,1.6-1.4,3.1-1.4,4.7c0.5-0.2,1-0.4,1.4-0.4
					c0.4,0,0.8,0.1,1.4,0.4C508,306.6,507.5,305,506.6,303.5z"/>
				<path d="M522.7,320.2c-0.7,0.7-1.5,1-2.2,1c-0.8,0-1.5-0.3-2.1-0.9c0.9-2,1.4-4.3,1.4-6.8c0-2.7-0.5-4.6-1.4-5.9
					c0.9-1.2,1.4-3.2,1.4-5.9c0-2.6-0.5-4.8-1.4-6.8c0.7-0.6,1.4-0.9,2.1-0.9c0.8,0,1.5,0.3,2.2,1c0.7-0.7,1.5-1,2.3-1
					c0.8,0,1.5,0.3,2.1,0.9c-0.9,2-1.4,4.3-1.4,6.8c0,2.7,0.5,4.6,1.4,5.9c-0.9,1.2-1.4,3.2-1.4,5.9c0,2.6,0.5,4.8,1.4,6.8
					c-0.7,0.6-1.4,0.9-2.1,0.9C524.2,321.2,523.4,320.9,522.7,320.2z"/>
				<path d="M545,321.2c-1.9,0-3.7-0.7-5.4-2.2c0.7-1,1.1-1.8,1.1-2.7c0-1-0.5-2.2-1.6-3.6c0.3-0.5,0.5-1,0.5-1.5
					c0-0.7-0.3-1.3-0.9-1.8c-0.6-0.5-1.2-0.8-2-0.8c-0.7,0-1.3,0.3-1.8,0.9c-0.5,0.7-0.8,1.8-0.8,3.2c0,3.5,0.7,5.9,2,7.3
					c-0.6,0.6-1.4,0.9-2.2,0.9c-0.8,0-1.6-0.3-2.4-1c-0.8,0.7-1.6,1-2.4,1c-0.8,0-1.5-0.3-2.2-0.9c0.9-2,1.4-4.2,1.4-6.7
					c0-2.6-0.5-4.6-1.4-5.8c0.9-1.2,1.4-3.2,1.4-5.8c0-2.5-0.5-4.8-1.4-6.7c0.6-0.6,1.4-0.9,2.2-0.9c0.8,0,1.7,0.3,2.4,1
					c1.5-0.7,3.3-1.1,5.2-1.1c2.2,0,4.1,0.5,5.6,1.4c1.6,1,2.5,2.2,2.5,3.6c0,1.4,0.5,2.4,1.3,2.8c-0.6,0.3-1,0.8-1.2,1.6
					c-0.1,0.3-0.1,0.7-0.2,1.1c-0.1,1.3-0.9,2.3-2.4,3c1,0.4,1.6,1,2,1.7c0.2,0.3,0.2,0.6,0.3,1c0,1.1,0.4,1.8,1.3,2.1
					c0,0,0.1,0.5,0.2,1.5c0.1,1.2,0.4,2.3,0.6,3.2c0.5,1.4,1.1,2.5,2,3.4C547.6,320.9,546.3,321.2,545,321.2z M539.2,300.7
					c0-0.5-0.2-1-0.7-1.3c-0.5-0.4-1-0.5-1.6-0.5c-0.8,0-1.4,0.3-1.9,0.8c-0.6,0.7-0.9,1.6-0.9,2.8c0,1.2,0.3,2.1,0.9,2.8
					c0.5,0.5,1.1,0.8,1.9,0.8c0.6,0,1.1-0.2,1.6-0.5c0.5-0.4,0.7-0.8,0.7-1.3c0-0.6-0.3-1.1-0.8-1.7
					C539,301.8,539.2,301.3,539.2,300.7z"/>
				<path d="M558.6,310.7c1.1,0,1.9,0.4,2.3,1.2c0.5-0.3,1-0.5,1.6-0.5c0.6,0,1.1,0.2,1.5,0.7c-0.6,0.6-0.9,1.5-0.7,2.9
					c-0.1,1.2-0.4,2.3-0.9,3.1c-1.2,2.1-3.3,3.2-6.3,3.2c-0.3,0-0.7,0-1.1,0c-1.5-0.1-2.9-0.4-3.9-0.9c-2.6-1.1-3.8-3.1-3.8-6
					c0-0.3,0.1-0.6,0.1-1v-3c0-1.4-0.6-2.3-1.4-2.8c0.6-0.3,1-0.8,1.2-1.6c0.1-0.3,0.2-0.7,0.2-1.1v-3c0-3.3,1.2-5.6,3.8-6.9
					c1.1-0.5,2.3-0.9,3.9-1c0.4,0,0.7,0,1.1,0c3,0,5.1,1.1,6.3,3.2c0.5,0.9,0.8,1.9,0.9,3.1c-0.1,1.4,0.1,2.4,0.7,2.9
					c-0.4,0.5-0.9,0.7-1.5,0.7c-0.5,0-1-0.2-1.6-0.5c-0.4,0.8-1.1,1.2-2.3,1.2c-0.8,0-1.4-0.2-1.7-0.5c0.6-1,1-1.9,1-2.8
					c0-0.7-0.2-1.2-0.7-1.7c-0.4-0.5-1-0.6-1.6-0.6h-0.1c-1.1,0-2.1,0.2-2.4,0.8c-0.3,0.5-0.6,1.1-0.6,2.3v2.8
					c0,1.4,0.6,2.3,1.5,2.8c-0.6,0.3-1,0.8-1.2,1.6c-0.1,0.3-0.2,0.7-0.2,1.1v2.8c0,1.1,0.3,1.7,0.6,2.1c0.4,0.6,1.3,0.7,2.4,0.7
					h0.1c0.7,0,1.2,0,1.6-0.5c0.4-0.5,0.7-1,0.7-1.7c0-0.9-0.3-1.8-1-2.7C557.2,310.8,557.8,310.7,558.6,310.7z"/>
				<path d="M576.8,320.2c-1.2,0.6-2.7,0.9-4.3,1.1c-1.6-0.1-3-0.4-4.1-1c-2.8-1.3-4.1-3.6-4.1-7v-3.1c0-1.5-0.7-2.4-1.5-2.8
					c0.6-0.3,1.1-0.9,1.3-1.7c0.1-0.3,0.2-0.7,0.2-1.2v-3c0-2.8-0.8-5-1.9-6.7c0.8-0.6,1.6-1,2.5-1c0.8,0,1.4,0.3,2.1,0.9
					c0.7-0.6,1.5-0.9,2.3-0.9c0.7,0,1.7,0.3,2.3,0.8c-1,1.9-1.3,4.2-1.3,6.9v2.8c0,1.5,0.3,2.4,1.2,2.8c-0.6,0.3-0.9,0.8-1.1,1.6
					c-0.1,0.3-0.1,0.7-0.1,1.2v2.8c0,1,0,1.8,0.6,2.4c0.5,0.5,1,0.8,1.8,0.8c0.7,0,1.3-0.3,1.8-0.8c0.6-0.6,0.8-1.4,0.8-2.4v-2.8
					c0-1.5-0.5-2.4-1.4-2.8c0.6-0.3,1-0.9,1.2-1.7c0.1-0.3,0.2-0.7,0.2-1.2v-2.8c0-2.7-0.5-5-1.5-6.9c0.6-0.5,1.3-0.8,2.1-0.8
					c0.8,0,1.5,0.3,2.3,0.9c0.5-0.6,1.1-0.9,1.8-0.9c0.8,0,1.6,0.3,2.4,1c-0.6,1.1-0.9,2.6-1.1,4.3c-0.1,0.7,0,1.5,0,2.3v3
					c0,1.5,0.3,2.4,1.2,2.8c-0.6,0.3-0.9,0.8-1.1,1.6c-0.1,0.3-0.1,0.7-0.1,1.2v3.1C581.3,316.5,579.6,318.8,576.8,320.2z"/>
				<path d="M603.6,300.3c0,0.7-0.2,1.4-0.7,1.9c-2.1-1.1-3.9-1.6-5.2-1.6c-0.7,0-1.2,0.1-1.6,0.4c-0.1,3,0.4,5.2,1.4,6.6
					c-0.9,1.2-1.4,3.2-1.4,5.9c0,2.6,0.5,4.9,1.4,6.9c-0.7,0.6-1.4,0.9-2.2,0.9c-0.8,0-1.5-0.3-2.2-1c-0.7,0.7-1.5,1-2.3,1
					c-0.8,0-1.5-0.3-2.2-0.9c0.9-2,1.4-4.3,1.4-6.9c0-2.7-0.5-4.7-1.4-5.9c1-1.4,1.5-3.5,1.4-6.4c-0.4-0.4-1-0.5-1.8-0.5
					c-1.4,0-3.1,0.5-5.2,1.6c-0.5-0.5-0.7-1.1-0.7-1.9c0-0.8,0.2-1.6,0.7-2.5c-0.5-0.5-0.7-1.1-0.7-1.8c0-0.7,0.2-1.4,0.7-2
					c1.5,0.7,3.1,1,5,1c1.7,0,3.4-0.3,5-1c1.7,0.7,3.3,1,5,1c1.9,0,3.5-0.3,5-1c0.5,0.6,0.7,1.3,0.7,2c0,0.7-0.2,1.3-0.7,1.8
					C603.3,298.7,603.6,299.5,603.6,300.3z"/>
			</g>
		</g>
	</g>
	<path fill="#333335" d="M273.3,210.7c-1.5-1.4-3.2-4.4-4.4-7c0.4,0.1,0.7,0.1,1.1,0.1c3.2-0.4,5.1-6.3,4.3-13.1
		c-0.8-6.8-4.1-12-7.3-11.6c-3.2,0.4-5.1,6.3-4.3,13.1c0.1,0.6,0.2,1.2,0.3,1.8c0.8,5.3,2.8,10.6,5.4,14.9c2.7,4.5,7.4,7.5,12.4,9.6
		c-11.4,1.1-22.6,4.9-33.4,9.2c-10.9,4.3-21.7,9.2-32.5,14.2c-10.8,5-21.5,10.2-32.3,15.3c-5,2.3-10,4.7-15,6.9
		c-4.5,2-9.1,3.4-13.9,4.1c-2.9,0.4-5.8,0.6-8.7,0.1c-1.3-0.2-2.7-0.5-4-1.3c-0.5-0.3-1-0.7-1.3-1.3c-0.1-0.3-0.4-1,0-1.2
		c0.1-0.1,0.6,0.1,0.7,0.1c0.2,0,0.4-0.1,0.6-0.2c0.6-0.3,1-0.9,1.3-1.6c0.4-1.1,0.5-2.8-0.4-3.7c-2-1.8-3.6,2.3-3.8,4.2
		c-0.5,3.9,3,5.2,5.2,5.7c3,0.6,6,0.4,8.9,0c2.7-0.3,5.5-0.9,8.1-1.7c-3.4,1.5-6.8,2.9-10.2,4.2c-5.4,2.1-10.9,4.1-16.4,5.7
		c-5.6,1.6-11.2,3-17,3.2c-2.7,0.1-5.5,0-8.2-0.9c-2.5-0.8-4.7-2.5-6.6-5c-1.9-2.6-3.1-5.8-3.4-9.2c-0.3-3.4,0.3-6.8,1.3-9.9
		c1.9-6.3,5.2-11.7,8.8-16.4c3.8-5,8-9.4,12.4-13.3c4.6-4,9.4-7.4,14.4-10.4c5-2.9,10.2-5.4,15.6-6.6c2.5-0.6,5.4-1,8-0.2
		c1,0.3,2,0.8,2.6,1.9c0.8,1.3,0.8,3.2,0.7,4.7c-0.1,0.9-0.2,1.7-0.3,2.5c-0.1,0.8-0.2,1.7-0.5,2.3c-0.6,1.1-1.6,2-2.5,2.7
		c-1.7,1.2-3.7,1.7-5.6,2.2c-1.8,0.5-3.6,1.2-4.9,2.9c-1.5,2-2.6,5-2.7,7.9c-0.1,2.5,0.7,4.9,2.2,6.6c1.5,1.7,3.7,3,5.6,2.9
		c2-0.1,3.5-1.8,4.8-3.6c0.9-1.3,1.7-2.6,2.6-3.9c0.9-1.3,1.6-2.6,2.4-4c2.9-5.5,5.2-12.2,5-19.2c-0.1-3.4-0.9-6.9-2.8-9.4
		c-1.9-2.6-4.5-3.7-7.1-4c-5.3-0.6-10.5,1.5-15.2,4c-10.1,5.4-19.4,13.5-27.8,22.5c-4.1,4.5-8,9.3-11.4,14.8c-3.1,5-6,10.8-7.1,17.4
		c-0.5,3.5-0.5,7.1,0.5,10.6c1,3.2,2.7,6,4.7,8.2c4.2,4.6,10.1,5,15.2,4.9c5.7-0.2,11.4-1.4,16.9-2.9c5.5-1.5,11-3.3,16.5-5.3
		c11-4,21.8-8.6,32.6-13.4c10.9-4.8,21.7-9.6,32.5-14.5c10.8-4.9,21.7-9.6,32.7-13.8c10.9-4.2,22-8.4,33.4-10.3
		c1.4-0.2,2.8-0.4,4.2-0.6c0.7-0.1,1.4-0.1,2.1-0.2c0.3,0,1.3,0.1,1.4-0.1c0.1-0.2,0-0.7,0-0.9c0-0.4,0-0.9,0-1.3c0-0.5,0-1.1,0-1.6
		C285,217.5,276.7,213.7,273.3,210.7z"/>
	<path fill="#333335" d="M544.5,210.7c1.5-1.4,3.2-4.4,4.4-7c-0.4,0.1-0.7,0.1-1.1,0.1c-3.2-0.4-5.1-6.3-4.3-13.1
		c0.8-6.8,4.1-12,7.3-11.6c3.2,0.4,5.1,6.3,4.3,13.1c-0.1,0.6-0.2,1.2-0.3,1.8c-0.8,5.3-2.8,10.6-5.4,14.9
		c-2.7,4.5-7.4,7.5-12.4,9.6c11.4,1.1,22.6,4.9,33.4,9.2c10.9,4.3,21.7,9.2,32.5,14.2c10.8,5,21.5,10.2,32.3,15.3
		c5,2.3,10,4.7,15,6.9c4.5,2,9.1,3.4,13.9,4.1c2.9,0.4,5.8,0.6,8.7,0.1c1.3-0.2,2.7-0.5,4-1.3c0.5-0.3,1-0.7,1.3-1.3
		c0.1-0.3,0.4-1,0-1.2c-0.1-0.1-0.6,0.1-0.7,0.1c-0.2,0-0.4-0.1-0.6-0.2c-0.6-0.3-1-0.9-1.3-1.6c-0.4-1.1-0.5-2.8,0.4-3.7
		c2-1.8,3.6,2.3,3.8,4.2c0.5,3.9-3,5.2-5.2,5.7c-3,0.6-6,0.4-8.9,0c-2.7-0.3-5.5-0.9-8.1-1.7c3.4,1.5,6.8,2.9,10.2,4.2
		c5.4,2.1,10.9,4.1,16.4,5.7c5.6,1.6,11.2,3,17,3.2c2.7,0.1,5.5,0,8.2-0.9c2.5-0.8,4.7-2.5,6.6-5c1.9-2.6,3.1-5.8,3.4-9.2
		c0.3-3.4-0.3-6.8-1.3-9.9c-1.9-6.3-5.2-11.7-8.8-16.4c-3.8-5-8-9.4-12.4-13.3c-4.6-4-9.4-7.4-14.4-10.4c-5-2.9-10.2-5.4-15.6-6.6
		c-2.5-0.6-5.4-1-8-0.2c-1,0.3-2,0.8-2.6,1.9c-0.8,1.3-0.8,3.2-0.7,4.7c0.1,0.9,0.2,1.7,0.3,2.5c0.1,0.8,0.2,1.7,0.5,2.3
		c0.6,1.1,1.6,2,2.5,2.7c1.7,1.2,3.7,1.7,5.6,2.2c1.8,0.5,3.6,1.2,4.9,2.9c1.5,2,2.6,5,2.7,7.9c0.1,2.5-0.7,4.9-2.2,6.6
		c-1.5,1.7-3.7,3-5.6,2.9c-2-0.1-3.5-1.8-4.8-3.6c-0.9-1.3-1.7-2.6-2.6-3.9c-0.9-1.3-1.6-2.6-2.4-4c-2.9-5.5-5.2-12.2-5-19.2
		c0.1-3.4,0.9-6.9,2.8-9.4c1.9-2.6,4.5-3.7,7.1-4c5.3-0.6,10.5,1.5,15.2,4c10.1,5.4,19.4,13.5,27.8,22.5c4.1,4.5,8,9.3,11.4,14.8
		c3.1,5,6,10.8,7.1,17.4c0.5,3.5,0.5,7.1-0.5,10.6c-1,3.2-2.7,6-4.7,8.2c-4.2,4.6-10.1,5-15.2,4.9c-5.7-0.2-11.4-1.4-16.9-2.9
		c-5.5-1.5-11-3.3-16.5-5.3c-11-4-21.8-8.6-32.6-13.4c-10.9-4.8-21.7-9.6-32.5-14.5c-10.8-4.9-21.7-9.6-32.7-13.8
		c-10.9-4.2-22-8.4-33.4-10.3c-1.4-0.2-2.8-0.4-4.2-0.6c-0.7-0.1-1.4-0.1-2.1-0.2c-0.3,0-1.3,0.1-1.4-0.1c-0.1-0.2,0-0.7,0-0.9
		c0-0.4,0-0.9,0-1.3c0-0.5,0-1.1,0-1.6C532.8,217.5,541.1,213.7,544.5,210.7z"/>
	<path fill-rule="evenodd" clip-rule="evenodd" fill="#0D0D0D" d="M196.1,294.2c1-1.3,1.2-2.7,1.2-4.2c-0.3-0.5-0.6-1.4-1.1-1.2
		c-0.2,0.1-0.5,0.3-0.7,0.4c0,0.9,0.7,2.1,0.3,2.9c-1.3,1.1-2,0.3-3.1,0.9c-0.3,3.5-4,9.8-4,9.8l-5.7,10.1c-0.5,0.5-1.6,2.5-2,3.5
		c-0.2,0.5,0,0.8,0.1,1l0,0.2l0,0c0,0.1-0.2,0.2-0.6,0.4c0.1,0.1,0.1,0.2,0.2,0.3c1.1,0.5,1.9,2.2,3.2,1.7c3-5.3,6-10.6,8.1-16.1
		c-0.2-1.1-1-0.6-1.3-1.5c1.2-1.3,1.4-2.8,3.2-4c5.8,8.5,3.5,17.9,7.5,25.5c0.6,1.1,1.1,2.6,2.6,3c0.1-0.1,0.2-0.1,0.3-0.2
		C208.5,319.7,201.3,303.3,196.1,294.2z M191.2,304.2c0,0.3-0.3,0.6-0.6,0.5c-0.3,0-0.6-0.3-0.5-0.6c0-0.3,0.3-0.6,0.6-0.5
		C191,303.6,191.2,303.9,191.2,304.2z"/>
	<path fill-rule="evenodd" clip-rule="evenodd" fill="#0D0D0D" d="M611.5,326.8c0.1,0.1,0.2,0.1,0.3,0.2c1.5-0.4,2-1.9,2.6-3
		c4-7.6,1.7-17,7.5-25.5c1.7,1.1,2,2.7,3.2,4c-0.3,0.9-1,0.4-1.3,1.5c2.2,5.5,5.1,10.8,8.1,16.1c1.4,0.4,2.1-1.3,3.2-1.7
		c0.1-0.1,0.1-0.2,0.2-0.3c-0.4-0.2-0.6-0.3-0.6-0.4v0l0-0.2c0.1-0.2,0.3-0.4,0.1-1c-0.4-1-1.4-2.9-2-3.5l-5.7-10.1
		c0,0-3.7-6.2-4-9.8c-1.1-0.6-1.8,0.2-3.1-0.9c-0.4-0.8,0.3-2,0.3-2.9c-0.2-0.1-0.5-0.3-0.7-0.4c-0.5-0.2-0.8,0.6-1.1,1.2
		c0.1,1.5,0.3,3,1.2,4.2C614.6,303.3,607.3,319.7,611.5,326.8z M625.2,303.6c0.3,0,0.6,0.2,0.6,0.5s-0.2,0.6-0.5,0.6
		c-0.3,0-0.6-0.2-0.6-0.5C624.7,303.9,624.9,303.6,625.2,303.6z"/>
	<path fill="#333335" d="M409.3,0c-79.2,0-143.5,64.2-143.5,143.5c0,79.2,64.2,143.5,143.5,143.5s143.5-64.2,143.5-143.5
		C552.8,64.3,488.6,0,409.3,0z M409.3,271.8c-70.7,0-128.3-57.5-128.3-128.3c0-70.7,57.5-128.3,128.3-128.3s128.3,57.5,128.3,128.3
		C537.6,214.2,480,271.8,409.3,271.8z"/>
	<g id="scis">
		<path fill-rule="evenodd" clip-rule="evenodd" fill="#0D0D0D" d="M580.3,259.9c6.4-2.8,21.6-9,21.9-10.2
			c-2.3-0.1-20.6,5.7-27.2,7.8c-6.3-2.4-22.2-9.9-22.7-11.3c-0.4-1.1,0.1-2.3-0.2-3.2c-0.7-2.2-3-3.4-5-3.4
			c-1.7,0.1-3.1,1.8-4.8,1.8c-3.4,0-4.1-3.2-5.8-5.4c0-0.2-0.2-0.1-0.4,0c-0.2,4.6,4.9,5.1,6,7.7c0.5,1.2,0.3,2.4,0.8,3.4
			c0.8,1.5,3.1,2.8,5.4,2.4c1.1-0.2,2-1.6,3.6-1.6c0.8,0,6.4,3.5,7.6,4.2c3.3,2,7.8,4,8.8,7.7c-0.6,1.2-1.2,2.4-1.8,3.6
			c-2.5,1.3-11.9,7.7-13.7,7.8c-0.9,0-1.6-0.4-2.2-0.6c-3.9-1.2-8.7,0.5-8.7,5c0,2.2,1.5,4.7,4,5.2c3.3,0.6,6.1-1.4,7-3.6
			c0.4-1.1-0.1-2.6,0.6-4.2c0.5-1.1,16.2-8.4,21.9-10.8c6.5,2.3,24.7,7.8,27.1,7.7C601.9,268.9,586.6,262.8,580.3,259.9z
			 M543.2,243.7c0.3-1.3,1.4-2.5,3.4-2.8c2.5-0.4,4.6,1,4.6,3.8C551.3,250.7,542.1,249.5,543.2,243.7z M542.7,275.7
			c0-2.8,2.1-4.1,4.8-4.4c2.7-0.3,4.2,1.1,4.6,2.6C553.5,280.5,542.7,282.4,542.7,275.7z M574.9,261.7c-0.9,0-1.6-0.7-1.6-1.6
			c0-0.9,0.7-1.6,1.6-1.6c0.9,0,1.6,0.7,1.6,1.6C576.6,260.9,575.8,261.7,574.9,261.7z"/>
		<path fill-rule="evenodd" clip-rule="evenodd" fill="#0D0D0D" d="M216.2,270c2.4,0.2,20.6-5.4,27.1-7.7
			c5.7,2.4,21.4,9.7,21.9,10.8c0.7,1.6,0.2,3.1,0.6,4.2c0.9,2.2,3.6,4.2,7,3.6c2.5-0.5,4-2.9,4-5.2c-0.1-4.5-4.8-6.2-8.7-5
			c-0.6,0.2-1.3,0.6-2.2,0.6c-1.8,0-11.2-6.5-13.7-7.8c-0.6-1.2-1.2-2.4-1.8-3.6c1-3.7,5.4-5.7,8.8-7.7c1.1-0.7,6.8-4.1,7.6-4.2
			c1.6,0,2.4,1.4,3.6,1.6c2.3,0.4,4.5-0.8,5.4-2.4c0.5-1,0.3-2.2,0.8-3.4c1.1-2.7,6.2-3.2,6-7.7c-0.2-0.1-0.4-0.2-0.4,0
			c-1.7,2.2-2.4,5.4-5.8,5.4c-1.7,0-3.1-1.7-4.8-1.8c-1.9-0.1-4.3,1.1-5,3.4c-0.3,0.8,0.2,2.1-0.2,3.2c-0.5,1.4-16.4,8.9-22.7,11.3
			c-6.6-2.2-24.9-7.9-27.2-7.8c0.3,1.2,15.5,7.4,21.9,10.2C231.8,262.8,216.5,268.9,216.2,270z M267.2,244.7c0-2.7,2.1-4.2,4.6-3.8
			c2,0.3,3.1,1.5,3.4,2.8C276.3,249.5,267.1,250.7,267.2,244.7z M266.3,273.9c0.3-1.5,1.9-2.9,4.6-2.6c2.7,0.3,4.7,1.6,4.8,4.4
			C275.7,282.4,264.9,280.5,266.3,273.9z M241.9,260c0-0.9,0.7-1.6,1.6-1.6c0.9,0,1.6,0.7,1.6,1.6c0,0.9-0.7,1.6-1.6,1.6
			C242.6,261.7,241.9,260.9,241.9,260z"/>
	</g>
</g>
</svg>
