<?xml version="1.0" encoding="utf-8"?>
<!-- Generator: Adobe Illustrator 18.1.1, SVG Export Plug-In . SVG Version: 6.00 Build 0)  -->
<!DOCTYPE svg PUBLIC "-//W3C//DTD SVG 1.1//EN" "http://www.w3.org/Graphics/SVG/1.1/DTD/svg11.dtd">
<svg version="1.1" id="Layer_1" xmlns="http://www.w3.org/2000/svg" xmlns:xlink="http://www.w3.org/1999/xlink" x="0px" y="0px"
	 viewBox="0 0 604.8 360" enable-background="new 0 0 604.8 360" xml:space="preserve">
<g>
	<g>
		<path fill-rule="evenodd" clip-rule="evenodd" fill="#0D0D0D" d="M483.8,187.5c0.1-0.4,0.2-0.8,0.3-1.2c-2.2-4.2-7.5-4.8-11.2-5.7
			c-26.5-6.6-53.9,7.8-84.6-3.8c2.2-6.3,6.8-8.3,9.9-12.9c3,0.3,2,2.9,5.6,2.8c15.4-10.9,29.6-24,43.5-37.5c0.3-4.5-5.5-5.6-7.9-8.7
			c-0.4-0.1-0.8-0.2-1.2-0.3c-0.3,1.4-0.5,2.1-0.8,2.3l0,0l-0.6,0.1c-0.7-0.1-1.7-0.7-3.2,0.3c-2.7,2-8,6.6-9.3,8.8l-27,25.5
			c0,0-16.5,16.2-27.2,19.9c-1,4,2.1,5.6-0.3,10.3c-2.3,1.9-6.4,0.6-9.3,1.3c-0.2,0.8-0.5,1.6-0.7,2.4c-0.3,1.9,2.6,1.9,4.4,2.5
			c4.6-1.4,9-3.1,12.2-7.1C408.6,196,464.8,205.8,483.8,187.5z M401.4,162.7c-0.3-1,0.2-2,1.1-2.4c1-0.3,2,0.2,2.4,1.1
			c0.3,1-0.2,2-1.1,2.4C402.8,164.2,401.7,163.7,401.4,162.7z"/>
		<path fill-rule="evenodd" clip-rule="evenodd" fill="#0D0D0D" d="M226.1,185.9c3.4,4.3,8.2,6.1,13.1,7.6c2-0.7,5.1-0.7,4.8-2.7
			c-0.2-0.9-0.5-1.7-0.7-2.6c-3.1-0.8-7.5,0.6-10-1.4c-2.6-5.1,0.8-6.8-0.3-11.1c-11.5-3.9-29.3-21.4-29.3-21.4l-29-27.4
			c-1.4-2.3-7-7.3-10-9.4c-1.6-1.2-2.6-0.5-3.4-0.4l-0.6-0.1l0,0c-0.4-0.2-0.6-0.9-0.9-2.4c-0.4,0.1-0.9,0.2-1.3,0.4
			c-2.5,3.3-8.7,4.4-8.4,9.3c15,14.5,30.3,28.6,46.8,40.3c3.9,0.1,2.8-2.8,6-3.1c3.4,4.9,8.3,7.1,10.7,13.9
			c-33.1,12.5-62.6-3.1-91.1,4c-4,1-9.7,1.6-12.1,6.1c0.1,0.4,0.3,0.9,0.4,1.3C131.1,206.4,191.6,195.8,226.1,185.9z M196.8,161.3
			c-1-0.4-1.6-1.5-1.2-2.6c0.4-1,1.5-1.6,2.6-1.2c1,0.4,1.6,1.5,1.2,2.6C199,161.1,197.9,161.7,196.8,161.3z"/>
	</g>
	<g>
		<g>
			<path fill="#FFFFFF" d="M302.5,0C247.1,0,202,45.1,202,100.5s45.1,100.5,100.5,100.5S403,156,403,100.5S357.9,0,302.5,0z
				 M302.5,197.6c-53.6,0-97.1-43.5-97.1-97.1c0-53.6,43.5-97.1,97.1-97.1s97.1,43.5,97.1,97.1C399.6,154.2,356.1,197.6,302.5,197.6
				z"/>
		</g>
		<path d="M302.5,177c-42.2,0-76.5-34.3-76.5-76.5c0-42.2,34.3-76.5,76.5-76.5S379,58.3,379,100.5C379,142.7,344.7,177,302.5,177z"
			/>
	</g>
	<path d="M302.5,3.4c-53.6,0-97.1,43.5-97.1,97.1c0,53.6,43.5,97.1,97.1,97.1s97.1-43.5,97.1-97.1C399.6,46.9,356.1,3.4,302.5,3.4z
		 M302.5,187.3c-47.9,0-86.8-38.9-86.8-86.8c0-47.9,38.9-86.8,86.8-86.8s86.8,38.9,86.8,86.8C389.3,148.4,350.3,187.3,302.5,187.3z"
		/>
	<g id="scis">
		<path fill-rule="evenodd" clip-rule="evenodd" fill="#0D0D0D" d="M476.8,216.4c3.7-1.6,12.5-5.2,12.7-5.9
			c-1.4,0-11.9,3.3-15.8,4.5c-3.7-1.4-12.9-5.7-13.2-6.5c-0.2-0.6,0-1.4-0.1-1.8c-0.4-1.3-1.8-2-2.9-2c-1,0-1.8,1-2.8,1
			c-2,0-2.4-1.8-3.4-3.1c0-0.1-0.1-0.1-0.2,0c-0.1,2.6,2.8,2.9,3.5,4.5c0.3,0.7,0.2,1.4,0.5,2c0.5,0.9,1.8,1.6,3.1,1.4
			c0.7-0.1,1.1-0.9,2.1-0.9c0.4,0,3.7,2,4.4,2.4c1.9,1.2,4.5,2.3,5.1,4.5c-0.3,0.7-0.7,1.4-1,2.1c-1.4,0.8-6.9,4.5-7.9,4.5
			c-0.5,0-0.9-0.2-1.3-0.3c-2.3-0.7-5,0.3-5.1,2.9c0,1.3,0.9,2.7,2.3,3c1.9,0.4,3.5-0.8,4-2.1c0.2-0.6-0.1-1.5,0.3-2.4
			c0.3-0.6,9.4-4.9,12.7-6.3c3.8,1.3,14.3,4.5,15.7,4.5C489.3,221.6,480.4,218.1,476.8,216.4z M455.3,207c0.1-0.7,0.8-1.4,2-1.6
			c1.5-0.2,2.6,0.6,2.7,2.2C459.9,211.1,454.6,210.4,455.3,207z M455,225.6c0-1.6,1.2-2.4,2.8-2.5c1.6-0.2,2.5,0.6,2.7,1.5
			C461.3,228.3,455,229.5,455,225.6z M473.6,217.4c-0.5,0-0.9-0.4-0.9-0.9c0-0.5,0.4-0.9,0.9-0.9c0.5,0,0.9,0.4,0.9,0.9
			C474.6,217,474.2,217.4,473.6,217.4z"/>
		<path fill-rule="evenodd" clip-rule="evenodd" fill="#0D0D0D" d="M116,222.3c1.4,0.1,11.9-3.1,15.7-4.5c3.3,1.4,12.4,5.6,12.7,6.3
			c0.4,0.9,0.1,1.8,0.3,2.4c0.5,1.3,2.1,2.5,4,2.1c1.4-0.3,2.3-1.7,2.3-3c0-2.6-2.8-3.6-5.1-2.9c-0.3,0.1-0.8,0.4-1.3,0.3
			c-1,0-6.5-3.8-7.9-4.5c-0.3-0.7-0.7-1.4-1-2.1c0.6-2.1,3.2-3.3,5.1-4.5c0.7-0.4,3.9-2.4,4.4-2.4c0.9,0,1.4,0.8,2.1,0.9
			c1.3,0.2,2.6-0.5,3.1-1.4c0.3-0.6,0.2-1.3,0.5-2c0.6-1.6,3.6-1.8,3.5-4.5c-0.1-0.1-0.2-0.1-0.2,0c-1,1.3-1.4,3.1-3.4,3.1
			c-1,0-1.8-1-2.8-1c-1.1,0-2.5,0.7-2.9,2c-0.2,0.5,0.1,1.2-0.1,1.8c-0.3,0.8-9.5,5.1-13.2,6.5c-3.9-1.3-14.4-4.6-15.8-4.5
			c0.2,0.7,9,4.3,12.7,5.9C125,218.1,116.1,221.6,116,222.3z M145.5,207.6c0-1.6,1.2-2.4,2.7-2.2c1.2,0.2,1.8,0.9,2,1.6
			C150.8,210.4,145.5,211.1,145.5,207.6z M145,224.5c0.2-0.9,1.1-1.7,2.7-1.5c1.5,0.2,2.7,0.9,2.8,2.5
			C150.5,229.5,144.2,228.3,145,224.5z M130.8,216.5c0-0.5,0.4-0.9,0.9-0.9s0.9,0.4,0.9,0.9c0,0.5-0.4,0.9-0.9,0.9
			C131.3,217.4,130.8,217,130.8,216.5z"/>
	</g>
	<g id="blend">
		<g>
			<circle cx="38.7" cy="199.1" r="3.3"/>
			<circle cx="18.5" cy="199.1" r="2.6"/>
			<circle cx="2.6" cy="199.1" r="1.4"/>
		</g>
		<g>
			<circle cx="566.1" cy="199.1" r="3.3"/>
			<circle cx="586.3" cy="199.1" r="2.6"/>
			<circle cx="602.2" cy="199.1" r="1.4"/>
		</g>
		<g>
			<line fill="none" stroke="#000000" stroke-width="3.1251" stroke-miterlimit="10" x1="53.9" y1="199.2" x2="551.1" y2="199.2"/>
			<line fill="none" stroke="#000000" stroke-width="2.6563" stroke-miterlimit="10" x1="100.6" y1="231.2" x2="504.3" y2="231.2"/>
			<line fill="none" stroke="#000000" stroke-width="2.1875" stroke-miterlimit="10" x1="147.4" y1="263.1" x2="457.6" y2="263.1"/>
			<line fill="none" stroke="#000000" stroke-width="1.7186" stroke-miterlimit="10" x1="194.1" y1="295.1" x2="410.8" y2="295.1"/>
			<line fill="none" stroke="#000000" stroke-width="1.2498" stroke-miterlimit="10" x1="240.9" y1="327" x2="364.1" y2="327"/>
			<line fill="none" stroke="#000000" stroke-width="0.781" stroke-miterlimit="10" x1="287.6" y1="359" x2="317.3" y2="359"/>
		</g>
	</g>
	<g id="quote">
		<g id="ribbon_1_">
			<polygon fill="#202021" points="243.5,277.3 159.4,277.3 167.6,295.5 159.4,312.5 243.5,312.5 			"/>
			<polygon fill="#202021" points="361.4,277.3 445.6,277.3 437.4,295.5 445.6,312.5 361.4,312.5 			"/>
			<polygon fill="#0D0D0D" points="197.8,259.5 243.4,276.2 243.4,312.4 197.8,295.7 			"/>
			<polygon fill="#0D0D0D" points="407.2,259.5 361.5,276.2 361.5,312.4 407.2,295.7 			"/>
			<path fill="#333335" d="M407.2,295.7c0,0-70.7-7.7-104.7-7.7s-104.7,7.7-104.7,7.7v-36.3c0,0,64.5-7.7,104.7-7.7
				s104.7,7.7,104.7,7.7V295.7z"/>
		</g>
		<g id="trad_1_">
			<g>
				<path fill="#0D0D0D" d="M236.2,269.3c0,0.6-0.2,1.2-0.6,1.6c-1.8-0.9-3.3-1.4-4.5-1.4c-0.6,0-1.1,0.1-1.4,0.3
					c-0.1,2.6,0.3,4.5,1.2,5.7c-0.8,1.1-1.2,2.8-1.2,5.1c0,2.2,0.4,4.2,1.2,6c-0.6,0.5-1.2,0.8-1.9,0.8c-0.7,0-1.3-0.3-1.9-0.9
					c-0.6,0.6-1.3,0.9-2,0.9c-0.7,0-1.3-0.3-1.9-0.8c0.8-1.7,1.2-3.7,1.2-6c0-2.3-0.4-4-1.2-5.1c0.9-1.2,1.3-3,1.2-5.6
					c-0.3-0.3-0.8-0.5-1.6-0.5c-1.2,0-2.7,0.5-4.5,1.4c-0.4-0.4-0.6-1-0.6-1.6c0-0.7,0.2-1.4,0.6-2.2c-0.4-0.4-0.6-0.9-0.6-1.6
					c0-0.6,0.2-1.2,0.6-1.7c1.3,0.6,2.7,0.9,4.3,0.9c1.5,0,2.9-0.3,4.4-0.9c1.4,0.6,2.9,0.9,4.3,0.9c1.6,0,3.1-0.3,4.3-0.9
					c0.4,0.5,0.6,1.1,0.6,1.7c0,0.6-0.2,1.2-0.6,1.6C235.9,267.9,236.2,268.6,236.2,269.3z"/>
				<path fill="#0D0D0D" d="M254.5,287.4c-1.7,0-3.2-0.6-4.7-1.9c0.6-0.8,0.9-1.6,0.9-2.3c0-0.9-0.5-1.9-1.4-3.1
					c0.3-0.4,0.4-0.8,0.4-1.3c0-0.6-0.3-1.1-0.8-1.6c-0.5-0.5-1.1-0.7-1.7-0.7c-0.6,0-1.2,0.3-1.6,0.8c-0.5,0.6-0.7,1.5-0.7,2.7
					c0,3,0.6,5.1,1.8,6.3c-0.5,0.5-1.2,0.7-1.9,0.7c-0.7,0-1.4-0.3-2.1-0.9c-0.7,0.6-1.4,0.9-2.1,0.9c-0.7,0-1.3-0.2-1.9-0.7
					c0.8-1.7,1.2-3.6,1.2-5.8c0-2.3-0.4-3.9-1.2-5c0.8-1.1,1.2-2.8,1.2-5c0-2.2-0.4-4.1-1.2-5.8c0.5-0.5,1.2-0.8,1.9-0.8
					c0.7,0,1.4,0.3,2.1,0.9c1.3-0.6,2.8-1,4.5-1c1.9,0,3.5,0.4,4.9,1.2c1.4,0.8,2.1,1.9,2.2,3.1c0,1.2,0.4,2.1,1.1,2.4
					c-0.5,0.2-0.8,0.7-1,1.4c-0.1,0.3-0.1,0.6-0.1,1c-0.1,1.1-0.8,2-2.1,2.6c0.8,0.4,1.4,0.8,1.7,1.5c0.1,0.3,0.2,0.6,0.2,0.9
					c0,0.9,0.3,1.5,1.1,1.8c0,0,0.1,0.4,0.2,1.3c0.1,1.1,0.3,2,0.6,2.7c0.4,1.2,1,2.1,1.7,2.9C256.7,287.1,255.6,287.4,254.5,287.4z
					 M249.5,269.6c0-0.5-0.2-0.8-0.6-1.1c-0.4-0.3-0.9-0.5-1.4-0.5c-0.7,0-1.2,0.2-1.6,0.7c-0.5,0.6-0.8,1.4-0.8,2.4
					c0,1,0.3,1.8,0.8,2.4c0.4,0.5,1,0.7,1.6,0.7c0.5,0,1-0.2,1.4-0.5c0.4-0.3,0.6-0.7,0.6-1.2c0-0.5-0.2-1-0.7-1.5
					C249.2,270.6,249.5,270.1,249.5,269.6z"/>
				<path fill="#0D0D0D" d="M276,287.4c-0.6,0-1-0.2-1.2-0.6c0.5-1.1,0.7-2.1,0.7-3.1c0-1.3-0.4-2.3-1.1-3.1
					c-0.7-0.8-1.6-1.2-2.7-1.2c-1.1,0-2,0.4-2.7,1.2c-0.7,0.8-1,1.9-1,3.1c0,1,0.2,2.1,0.7,3.1c-0.2,0.4-0.6,0.6-1.2,0.6
					c-0.7,0-1.5-0.2-2.4-0.6c-0.4,0.4-0.9,0.6-1.6,0.6c-0.8,0-1.6-0.2-2.5-0.7c2.8-2.8,4.2-6,4.2-9.4c0-0.6,0-1.2-0.1-1.6
					c2.4-2.9,3.6-5.8,3.6-8.7c0-1-0.2-1.8-0.5-2.3c0.5-0.5,1.1-0.8,1.8-0.8c0.7,0,1.3,0.3,1.9,0.9c0.6-0.6,1.2-0.9,1.8-0.9
					c0.7,0,1.3,0.3,1.8,0.8c-0.4,0.5-0.5,1.3-0.5,2.3c0,2.9,1.2,5.8,3.6,8.7c-0.1,0.5-0.1,1-0.1,1.6c0,3.4,1.4,6.6,4.2,9.4
					c-0.9,0.5-1.7,0.7-2.5,0.7c-0.6,0-1.2-0.2-1.6-0.6C277.5,287.2,276.7,287.4,276,287.4z M271.8,272c-0.8,1.4-1.2,2.7-1.2,4.1
					c0.5-0.2,0.9-0.3,1.2-0.3c0.3,0,0.7,0.1,1.2,0.3C272.9,274.7,272.6,273.4,271.8,272z"/>
				<path fill="#0D0D0D" d="M302.2,275.6c-0.5,0.2-0.8,0.7-1,1.4c-0.1,0.3-0.1,0.6-0.1,1v5c-0.2,1.4-1,2.4-2.3,3.2
					c-1.3,0.8-2.8,1.2-4.6,1.2c-1.6,0-3.2-0.4-4.7-1.1c-0.7,0.6-1.4,0.9-2.1,0.9c-0.7,0-1.4-0.2-1.9-0.7c0.8-1.7,1.2-3.7,1.2-5.8
					c0-2.3-0.4-4-1.2-5c0.8-1.1,1.2-2.8,1.2-5c0-2.2-0.4-4.1-1.2-5.8c0.5-0.5,1.2-0.8,1.9-0.8c0.7,0,1.4,0.3,2.1,0.9
					c1.4-0.6,2.9-1,4.5-1c1.9,0,3.5,0.4,4.9,1.2c1.4,0.8,2.1,1.8,2.1,3.1v5C301.1,274.4,301.5,275.2,302.2,275.6z M296.4,270.4
					c0-0.8-0.2-1.5-0.7-2c-0.4-0.4-1-0.6-1.6-0.6c-0.6,0-1.1,0.2-1.6,0.5c-0.5,0.4-0.7,0.9-0.7,1.5v3.2c0.1,1.3,0.5,2.1,1.2,2.4
					c-0.5,0.2-0.8,0.7-1,1.4c-0.1,0.3-0.1,0.6-0.1,1v3.9c0,0.6,0.2,1.1,0.7,1.5c0.5,0.4,1,0.5,1.6,0.5c0.6,0,1.2-0.2,1.7-0.6
					c0.5-0.4,0.7-1.1,0.7-1.9v-3.4c0-1.3-0.4-2.1-1.1-2.4c0.5-0.2,0.8-0.7,1-1.4c0.1-0.3,0.1-0.6,0.1-1V270.4z"/>
				<path fill="#0D0D0D" d="M309.4,286.5c-0.6,0.6-1.3,0.9-1.9,0.9c-0.7,0-1.3-0.3-1.9-0.8c0.8-1.7,1.2-3.7,1.2-5.9
					c0-2.3-0.4-4-1.2-5.1c0.8-1.1,1.2-2.8,1.2-5.1c0-2.2-0.4-4.2-1.2-5.9c0.6-0.5,1.2-0.8,1.9-0.8c0.7,0,1.3,0.3,1.9,0.9
					c0.6-0.6,1.3-0.9,2-0.9c0.7,0,1.3,0.3,1.9,0.8c-0.8,1.7-1.2,3.7-1.2,5.9c0,2.3,0.4,4,1.2,5.1c-0.8,1.1-1.2,2.8-1.2,5.1
					c0,2.2,0.4,4.2,1.2,5.9c-0.6,0.5-1.2,0.8-1.9,0.8C310.7,287.4,310,287.1,309.4,286.5z"/>
				<path fill="#0D0D0D" d="M335.3,269.3c0,0.6-0.2,1.2-0.6,1.6c-1.8-0.9-3.3-1.4-4.5-1.4c-0.6,0-1.1,0.1-1.4,0.3
					c-0.1,2.6,0.3,4.5,1.2,5.7c-0.8,1.1-1.2,2.8-1.2,5.1c0,2.2,0.4,4.2,1.2,6c-0.6,0.5-1.2,0.8-1.9,0.8c-0.7,0-1.3-0.3-1.9-0.9
					c-0.6,0.6-1.3,0.9-2,0.9c-0.7,0-1.3-0.3-1.9-0.8c0.8-1.7,1.2-3.7,1.2-6c0-2.3-0.4-4-1.2-5.1c0.9-1.2,1.3-3,1.2-5.6
					c-0.3-0.3-0.8-0.5-1.6-0.5c-1.2,0-2.7,0.5-4.5,1.4c-0.4-0.4-0.6-1-0.6-1.6c0-0.7,0.2-1.4,0.6-2.2c-0.4-0.4-0.6-0.9-0.6-1.6
					c0-0.6,0.2-1.2,0.6-1.7c1.3,0.6,2.7,0.9,4.3,0.9c1.5,0,2.9-0.3,4.4-0.9c1.4,0.6,2.9,0.9,4.3,0.9c1.6,0,3.1-0.3,4.3-0.9
					c0.4,0.5,0.6,1.1,0.6,1.7c0,0.6-0.2,1.2-0.6,1.6C335.1,267.9,335.3,268.6,335.3,269.3z"/>
				<path fill="#0D0D0D" d="M341.9,286.5c-0.6,0.6-1.3,0.9-1.9,0.9c-0.7,0-1.3-0.3-1.9-0.8c0.8-1.7,1.2-3.7,1.2-5.9
					c0-2.3-0.4-4-1.2-5.1c0.8-1.1,1.2-2.8,1.2-5.1c0-2.2-0.4-4.2-1.2-5.9c0.6-0.5,1.2-0.8,1.9-0.8c0.7,0,1.3,0.3,1.9,0.9
					c0.6-0.6,1.3-0.9,2-0.9c0.7,0,1.3,0.3,1.9,0.8c-0.8,1.7-1.2,3.7-1.2,5.9c0,2.3,0.4,4,1.2,5.1c-0.8,1.1-1.2,2.8-1.2,5.1
					c0,2.2,0.4,4.2,1.2,5.9c-0.6,0.5-1.2,0.8-1.9,0.8C343.2,287.4,342.5,287.1,341.9,286.5z"/>
				<path fill="#0D0D0D" d="M361.2,286.5c-1,0.5-2.2,0.8-3.6,0.9c-1.4-0.1-2.6-0.3-3.6-0.8c-2.4-1.1-3.6-3.1-3.6-6v-2.7
					c-0.1-1.2-0.5-2-1.2-2.4c0.5-0.2,0.8-0.7,1.1-1.4c0.1-0.3,0.1-0.6,0.1-1v-2.6c0-2.8,1.2-4.7,3.6-5.9c1-0.5,2.2-0.8,3.6-0.9
					c1.4,0.1,2.6,0.4,3.6,0.9c2.4,1.2,3.6,3.1,3.6,5.9v2.6c0.1,1.2,0.5,2,1.2,2.4c-0.5,0.2-0.8,0.7-1.1,1.4c-0.1,0.3-0.1,0.6-0.1,1
					v2.7C364.8,283.4,363.6,285.4,361.2,286.5z M360.1,277.9c-0.1-1.2-0.5-2-1.2-2.4c0.5-0.2,0.9-0.7,1.1-1.4c0.1-0.3,0.1-0.6,0.1-1
					v-2.4c0-0.9-0.2-1.5-0.7-2c-0.5-0.5-1-0.7-1.7-0.7c-0.6,0-1.2,0.2-1.6,0.7c-0.5,0.5-0.7,1.2-0.7,2v2.4c0.1,1.2,0.5,2,1.2,2.4
					c-0.5,0.2-0.9,0.7-1.1,1.4c-0.1,0.3-0.1,0.6-0.1,1v2.4c0,0.9,0.2,1.6,0.7,2c0.5,0.5,1,0.7,1.6,0.7c0.6,0,1.2-0.2,1.7-0.7
					c0.5-0.5,0.7-1.2,0.7-2V277.9z"/>
				<path fill="#0D0D0D" d="M380.4,273.3c0.4-0.9,0.6-2.1,0.6-3.7c0-2.5-0.4-4.1-1.3-5c0.5-0.5,1.1-0.8,1.8-0.8
					c0.6,0,1.2,0.3,1.8,0.9c0.6-0.6,1.2-0.9,1.8-0.9c0.6,0,1.2,0.3,1.7,0.8l-0.4,1.2c-0.6,1.4-0.8,2.9-0.8,4.6
					c0,2.3,0.4,4.1,1.3,5.2c-0.8,1.1-1.2,2.8-1.2,5.1c0,2.2,0.4,4.2,1.2,5.9c-0.5,0.5-1,0.8-1.6,0.8c-0.6,0-1.2-0.3-1.8-0.9
					c-0.5,0.6-1.1,0.9-1.7,0.9c-0.6,0-1.2-0.3-1.7-0.8c0.8-0.9,1.1-2,1.1-3.2c0-1.4-0.5-2.6-1.4-3.8l-3.6-4.6c-0.7,1.4-1,3.1-1,5.2
					c0,2.2,0.4,4.3,1.3,6.4c-0.5,0.5-1.1,0.8-1.7,0.8c-0.6,0-1.3-0.3-1.8-0.9c-0.6,0.6-1.2,0.9-1.9,0.9c-0.6,0-1.2-0.3-1.7-0.8
					c0.8-1.7,1.2-3.7,1.2-5.9c0-2.3-0.4-4-1.2-5.1c0.8-1.2,1.3-2.9,1.3-5.2c0-1.7-0.3-3.2-0.8-4.6l-0.5-1.2c0.5-0.5,1.1-0.8,1.7-0.8
					c0.6,0,1.3,0.3,1.9,0.9c0.6-0.6,1.2-0.9,1.8-0.9c0.6,0,1.2,0.3,1.7,0.8c-0.3,0.6-0.4,1.3-0.4,1.9c0,0.8,0.2,1.5,0.7,2.1
					L380.4,273.3z"/>
			</g>
			<g>
				<path fill="#FCFCFC" d="M236.8,265.8c0,0.6-0.2,1.2-0.6,1.6c-1.8-0.9-3.3-1.4-4.5-1.4c-0.6,0-1.1,0.1-1.4,0.3
					c-0.1,2.6,0.3,4.5,1.2,5.7c-0.8,1.1-1.2,2.8-1.2,5.1c0,2.2,0.4,4.2,1.2,6c-0.6,0.5-1.2,0.8-1.9,0.8c-0.7,0-1.3-0.3-1.9-0.9
					c-0.6,0.6-1.3,0.9-2,0.9c-0.7,0-1.3-0.3-1.9-0.8c0.8-1.7,1.2-3.7,1.2-6c0-2.3-0.4-4-1.2-5.1c0.9-1.2,1.3-3,1.2-5.6
					c-0.3-0.3-0.8-0.5-1.6-0.5c-1.2,0-2.7,0.5-4.5,1.4c-0.4-0.4-0.6-1-0.6-1.6c0-0.7,0.2-1.4,0.6-2.2c-0.4-0.4-0.6-0.9-0.6-1.6
					c0-0.6,0.2-1.2,0.6-1.7c1.3,0.6,2.7,0.9,4.3,0.9c1.5,0,2.9-0.3,4.4-0.9c1.4,0.6,2.9,0.9,4.3,0.9c1.6,0,3.1-0.3,4.3-0.9
					c0.4,0.5,0.6,1.1,0.6,1.7c0,0.6-0.2,1.2-0.6,1.6C236.6,264.4,236.8,265.1,236.8,265.8z"/>
				<path fill="#FCFCFC" d="M255.2,283.9c-1.7,0-3.2-0.6-4.7-1.9c0.6-0.8,0.9-1.6,0.9-2.3c0-0.9-0.5-1.9-1.4-3.1
					c0.3-0.4,0.4-0.8,0.4-1.3c0-0.6-0.3-1.1-0.8-1.6c-0.5-0.5-1.1-0.7-1.7-0.7c-0.6,0-1.2,0.3-1.6,0.8c-0.5,0.6-0.7,1.5-0.7,2.7
					c0,3,0.6,5.1,1.8,6.3c-0.5,0.5-1.2,0.7-1.9,0.7c-0.7,0-1.4-0.3-2.1-0.9c-0.7,0.6-1.4,0.9-2.1,0.9c-0.7,0-1.3-0.2-1.9-0.7
					c0.8-1.7,1.2-3.6,1.2-5.8c0-2.3-0.4-3.9-1.2-5c0.8-1.1,1.2-2.8,1.2-5c0-2.2-0.4-4.1-1.2-5.8c0.5-0.5,1.2-0.8,1.9-0.8
					c0.7,0,1.4,0.3,2.1,0.9c1.3-0.6,2.8-1,4.5-1c1.9,0,3.5,0.4,4.9,1.2c1.4,0.8,2.1,1.9,2.2,3.1c0,1.2,0.4,2.1,1.1,2.4
					c-0.5,0.2-0.8,0.7-1,1.4c-0.1,0.3-0.1,0.6-0.1,1c-0.1,1.1-0.8,2-2.1,2.6c0.8,0.4,1.4,0.8,1.7,1.5c0.1,0.3,0.2,0.6,0.2,0.9
					c0,0.9,0.3,1.5,1.1,1.8c0,0,0.1,0.4,0.2,1.3c0.1,1.1,0.3,2,0.6,2.7c0.4,1.2,1,2.1,1.7,2.9C257.4,283.7,256.3,283.9,255.2,283.9z
					 M250.2,266.1c0-0.5-0.2-0.8-0.6-1.1c-0.4-0.3-0.9-0.5-1.4-0.5c-0.7,0-1.2,0.2-1.6,0.7c-0.5,0.6-0.8,1.4-0.8,2.4
					c0,1,0.3,1.8,0.8,2.4c0.4,0.5,1,0.7,1.6,0.7c0.5,0,1-0.2,1.4-0.5c0.4-0.3,0.6-0.7,0.6-1.2c0-0.5-0.2-1-0.7-1.5
					C249.9,267.1,250.2,266.6,250.2,266.1z"/>
				<path fill="#FCFCFC" d="M276.7,283.9c-0.6,0-1-0.2-1.2-0.6c0.5-1.1,0.7-2.1,0.7-3.1c0-1.3-0.4-2.3-1.1-3.1
					c-0.7-0.8-1.6-1.2-2.7-1.2c-1.1,0-2,0.4-2.7,1.2c-0.7,0.8-1,1.9-1,3.1c0,1,0.2,2.1,0.7,3.1c-0.2,0.4-0.6,0.6-1.2,0.6
					c-0.7,0-1.5-0.2-2.4-0.6c-0.4,0.4-0.9,0.6-1.6,0.6c-0.8,0-1.6-0.2-2.5-0.7c2.8-2.8,4.2-6,4.2-9.4c0-0.6,0-1.2-0.1-1.6
					c2.4-2.9,3.6-5.8,3.6-8.7c0-1-0.2-1.8-0.5-2.3c0.5-0.5,1.1-0.8,1.8-0.8c0.7,0,1.3,0.3,1.9,0.9c0.6-0.6,1.2-0.9,1.8-0.9
					c0.7,0,1.3,0.3,1.8,0.8c-0.4,0.5-0.5,1.3-0.5,2.3c0,2.9,1.2,5.8,3.6,8.7c-0.1,0.5-0.1,1-0.1,1.6c0,3.4,1.4,6.6,4.2,9.4
					c-0.9,0.5-1.7,0.7-2.5,0.7c-0.6,0-1.2-0.2-1.6-0.6C278.2,283.7,277.4,283.9,276.7,283.9z M272.5,268.6c-0.8,1.4-1.2,2.7-1.2,4.1
					c0.5-0.2,0.9-0.3,1.2-0.3c0.3,0,0.7,0.1,1.2,0.3C273.6,271.3,273.2,269.9,272.5,268.6z"/>
				<path fill="#FCFCFC" d="M302.9,272.1c-0.5,0.2-0.8,0.7-1,1.4c-0.1,0.3-0.1,0.6-0.1,1v5c-0.2,1.4-1,2.4-2.3,3.2
					c-1.3,0.8-2.8,1.2-4.6,1.2c-1.6,0-3.2-0.4-4.7-1.1c-0.7,0.6-1.4,0.9-2.1,0.9c-0.7,0-1.4-0.2-1.9-0.7c0.8-1.7,1.2-3.7,1.2-5.8
					c0-2.3-0.4-4-1.2-5c0.8-1.1,1.2-2.8,1.2-5c0-2.2-0.4-4.1-1.2-5.8c0.5-0.5,1.2-0.8,1.9-0.8c0.7,0,1.4,0.3,2.1,0.9
					c1.4-0.6,2.9-1,4.5-1c1.9,0,3.5,0.4,4.9,1.2c1.4,0.8,2.1,1.8,2.1,3.1v5C301.8,270.9,302.2,271.7,302.9,272.1z M297.1,267
					c0-0.8-0.2-1.5-0.7-2c-0.4-0.4-1-0.6-1.6-0.6c-0.6,0-1.1,0.2-1.6,0.5c-0.5,0.4-0.7,0.9-0.7,1.5v3.2c0.1,1.3,0.5,2.1,1.2,2.4
					c-0.5,0.2-0.8,0.7-1,1.4c-0.1,0.3-0.1,0.6-0.1,1v3.9c0,0.6,0.2,1.1,0.7,1.5c0.5,0.4,1,0.5,1.6,0.5c0.6,0,1.2-0.2,1.7-0.6
					c0.5-0.4,0.7-1.1,0.7-1.9v-3.4c0-1.3-0.4-2.1-1.1-2.4c0.5-0.2,0.8-0.7,1-1.4c0.1-0.3,0.1-0.6,0.1-1V267z"/>
				<path fill="#FCFCFC" d="M310.1,283.1c-0.6,0.6-1.3,0.9-1.9,0.9c-0.7,0-1.3-0.3-1.9-0.8c0.8-1.7,1.2-3.7,1.2-5.9
					c0-2.3-0.4-4-1.2-5.1c0.8-1.1,1.2-2.8,1.2-5.1c0-2.2-0.4-4.2-1.2-5.9c0.6-0.5,1.2-0.8,1.9-0.8c0.7,0,1.3,0.3,1.9,0.9
					c0.6-0.6,1.3-0.9,2-0.9c0.7,0,1.3,0.3,1.9,0.8c-0.8,1.7-1.2,3.7-1.2,5.9c0,2.3,0.4,4,1.2,5.1c-0.8,1.1-1.2,2.8-1.2,5.1
					c0,2.2,0.4,4.2,1.2,5.9c-0.6,0.5-1.2,0.8-1.9,0.8C311.4,283.9,310.7,283.6,310.1,283.1z"/>
				<path fill="#FCFCFC" d="M336,265.8c0,0.6-0.2,1.2-0.6,1.6c-1.8-0.9-3.3-1.4-4.5-1.4c-0.6,0-1.1,0.1-1.4,0.3
					c-0.1,2.6,0.3,4.5,1.2,5.7c-0.8,1.1-1.2,2.8-1.2,5.1c0,2.2,0.4,4.2,1.2,6c-0.6,0.5-1.2,0.8-1.9,0.8c-0.7,0-1.3-0.3-1.9-0.9
					c-0.6,0.6-1.3,0.9-2,0.9c-0.7,0-1.3-0.3-1.9-0.8c0.8-1.7,1.2-3.7,1.2-6c0-2.3-0.4-4-1.2-5.1c0.9-1.2,1.3-3,1.2-5.6
					c-0.3-0.3-0.8-0.5-1.6-0.5c-1.2,0-2.7,0.5-4.5,1.4c-0.4-0.4-0.6-1-0.6-1.6c0-0.7,0.2-1.4,0.6-2.2c-0.4-0.4-0.6-0.9-0.6-1.6
					c0-0.6,0.2-1.2,0.6-1.7c1.3,0.6,2.7,0.9,4.3,0.9c1.5,0,2.9-0.3,4.4-0.9c1.4,0.6,2.9,0.9,4.3,0.9c1.6,0,3.1-0.3,4.3-0.9
					c0.4,0.5,0.6,1.1,0.6,1.7c0,0.6-0.2,1.2-0.6,1.6C335.8,264.4,336,265.1,336,265.8z"/>
				<path fill="#FCFCFC" d="M342.6,283.1c-0.6,0.6-1.3,0.9-1.9,0.9c-0.7,0-1.3-0.3-1.9-0.8c0.8-1.7,1.2-3.7,1.2-5.9
					c0-2.3-0.4-4-1.2-5.1c0.8-1.1,1.2-2.8,1.2-5.1c0-2.2-0.4-4.2-1.2-5.9c0.6-0.5,1.2-0.8,1.9-0.8c0.7,0,1.3,0.3,1.9,0.9
					c0.6-0.6,1.3-0.9,2-0.9c0.7,0,1.3,0.3,1.9,0.8c-0.8,1.7-1.2,3.7-1.2,5.9c0,2.3,0.4,4,1.2,5.1c-0.8,1.1-1.2,2.8-1.2,5.1
					c0,2.2,0.4,4.2,1.2,5.9c-0.6,0.5-1.2,0.8-1.9,0.8C343.9,283.9,343.2,283.6,342.6,283.1z"/>
				<path fill="#FCFCFC" d="M361.9,283c-1,0.5-2.2,0.8-3.6,0.9c-1.4-0.1-2.6-0.3-3.6-0.8c-2.4-1.1-3.6-3.1-3.6-6v-2.7
					c-0.1-1.2-0.5-2-1.2-2.4c0.5-0.2,0.8-0.7,1.1-1.4c0.1-0.3,0.1-0.6,0.1-1v-2.6c0-2.8,1.2-4.7,3.6-5.9c1-0.5,2.2-0.8,3.6-0.9
					c1.4,0.1,2.6,0.4,3.6,0.9c2.4,1.2,3.6,3.1,3.6,5.9v2.6c0.1,1.2,0.5,2,1.2,2.4c-0.5,0.2-0.8,0.7-1.1,1.4c-0.1,0.3-0.1,0.6-0.1,1
					v2.7C365.5,279.9,364.3,281.9,361.9,283z M360.8,274.5c-0.1-1.2-0.5-2-1.2-2.4c0.5-0.2,0.9-0.7,1.1-1.4c0.1-0.3,0.1-0.6,0.1-1
					v-2.4c0-0.9-0.2-1.5-0.7-2c-0.5-0.5-1-0.7-1.7-0.7c-0.6,0-1.2,0.2-1.6,0.7c-0.5,0.5-0.7,1.2-0.7,2v2.4c0.1,1.2,0.5,2,1.2,2.4
					c-0.5,0.2-0.9,0.7-1.1,1.4c-0.1,0.3-0.1,0.6-0.1,1v2.4c0,0.9,0.2,1.6,0.7,2c0.5,0.5,1,0.7,1.6,0.7c0.6,0,1.2-0.2,1.7-0.7
					c0.5-0.5,0.7-1.2,0.7-2V274.5z"/>
				<path fill="#FCFCFC" d="M381.1,269.8c0.4-0.9,0.6-2.1,0.6-3.7c0-2.5-0.4-4.1-1.3-5c0.5-0.5,1.1-0.8,1.8-0.8
					c0.6,0,1.2,0.3,1.8,0.9c0.6-0.6,1.2-0.9,1.8-0.9c0.6,0,1.2,0.3,1.7,0.8l-0.4,1.2c-0.6,1.4-0.8,2.9-0.8,4.6
					c0,2.3,0.4,4.1,1.3,5.2c-0.8,1.1-1.2,2.8-1.2,5.1c0,2.2,0.4,4.2,1.2,5.9c-0.5,0.5-1,0.8-1.6,0.8c-0.6,0-1.2-0.3-1.8-0.9
					c-0.5,0.6-1.1,0.9-1.7,0.9c-0.6,0-1.2-0.3-1.7-0.8c0.8-0.9,1.1-2,1.1-3.2c0-1.4-0.5-2.6-1.4-3.8l-3.6-4.6c-0.7,1.4-1,3.1-1,5.2
					c0,2.2,0.4,4.3,1.3,6.4c-0.5,0.5-1.1,0.8-1.7,0.8c-0.6,0-1.3-0.3-1.8-0.9c-0.6,0.6-1.2,0.9-1.9,0.9c-0.6,0-1.2-0.3-1.7-0.8
					c0.8-1.7,1.2-3.7,1.2-5.9c0-2.3-0.4-4-1.2-5.1c0.8-1.2,1.3-2.9,1.3-5.2c0-1.7-0.3-3.2-0.8-4.6l-0.5-1.2c0.5-0.5,1.1-0.8,1.7-0.8
					c0.6,0,1.3,0.3,1.9,0.9c0.6-0.6,1.2-0.9,1.8-0.9c0.6,0,1.2,0.3,1.7,0.8c-0.3,0.6-0.4,1.3-0.4,1.9c0,0.8,0.2,1.5,0.7,2.1
					L381.1,269.8z"/>
			</g>
			<g id="must_1_">
				<g id="trad_shadow_1_">
					<path fill="#0D0D0D" d="M333.1,307.8c5-1.9,10,3.7,5.2,7.2c-9.1,3.9-22.5-19.5-36.3-7c-13.8-12.5-27.3,10.9-36.3,7
						c-4.8-3.4,0.3-9.1,5.2-7.2c-3.1-4.8-13.7-0.9-10.5,9.3c2.6,7.9,18.7,15.5,41.7,0.7c23,14.8,39.1,7.2,41.7-0.7
						C346.9,306.9,336.2,303,333.1,307.8z"/>
				</g>
				<path fill="#FCFCFC" d="M333.8,304.3c5-1.9,10,3.7,5.2,7.2c-9.1,3.9-22.5-19.5-36.3-7c-13.8-12.5-27.3,10.9-36.3,7
					c-4.8-3.4,0.3-9.1,5.2-7.2c-3.1-4.8-13.7-0.9-10.5,9.3c2.6,7.9,18.7,15.5,41.7,0.7c23,14.8,39.1,7.2,41.7-0.7
					C347.6,303.4,336.9,299.5,333.8,304.3z"/>
				<g>
					<defs>
						<path id="SVGID_1_" d="M333.8,304.3c5-1.9,10,3.7,5.2,7.2c-9.1,3.9-22.5-19.5-36.3-7c-13.8-12.5-27.3,10.9-36.3,7
							c-4.8-3.4,0.3-9.1,5.2-7.2c-3.1-4.8-13.7-0.9-10.5,9.3c2.6,7.9,18.7,15.5,41.7,0.7c23,14.8,39.1,7.2,41.7-0.7
							C347.6,303.4,336.9,299.5,333.8,304.3z"/>
					</defs>
					<clipPath id="SVGID_2_">
						<use xlink:href="#SVGID_1_"  overflow="visible"/>
					</clipPath>
					<g clip-path="url(#SVGID_2_)">
						<g>
							<polygon fill-rule="evenodd" clip-rule="evenodd" fill="#B0102D" points="199.4,338.7 191.5,338.7 238.2,282.3 246.1,282.3 
															"/>
							<polygon fill-rule="evenodd" clip-rule="evenodd" fill="#B0102D" points="228.7,338.7 220.8,338.7 267.5,282.3 275.4,282.3 
															"/>
							<polygon fill-rule="evenodd" clip-rule="evenodd" fill="#B0102D" points="258,338.7 250.1,338.7 296.8,282.3 304.7,282.3 
															"/>
							<polygon fill-rule="evenodd" clip-rule="evenodd" fill="#B0102D" points="287.2,338.7 279.3,338.7 326,282.3 333.9,282.3 
															"/>
							<polygon fill-rule="evenodd" clip-rule="evenodd" fill="#B0102D" points="316.5,338.7 308.6,338.7 355.3,282.3 363.2,282.3 
															"/>
							<polygon fill-rule="evenodd" clip-rule="evenodd" fill="#B0102D" points="345.8,338.7 337.9,338.7 384.5,282.3 392.4,282.3 
															"/>
							<polygon fill-rule="evenodd" clip-rule="evenodd" fill="#B0102D" points="375,338.7 367.1,338.7 413.8,282.3 421.7,282.3 
															"/>
						</g>
						<g>
							<polygon fill-rule="evenodd" clip-rule="evenodd" fill="#1C4752" points="213.7,338.7 205.8,338.7 252.5,282.3 260.3,282.3 
															"/>
							<polygon fill-rule="evenodd" clip-rule="evenodd" fill="#1C4752" points="242.9,338.7 235,338.7 281.7,282.3 289.6,282.3 
															"/>
							<polygon fill-rule="evenodd" clip-rule="evenodd" fill="#1C4752" points="272.2,338.7 264.3,338.7 311,282.3 318.9,282.3 
															"/>
							<polygon fill-rule="evenodd" clip-rule="evenodd" fill="#1C4752" points="301.5,338.7 293.6,338.7 340.2,282.3 348.1,282.3 
															"/>
							<polygon fill-rule="evenodd" clip-rule="evenodd" fill="#1C4752" points="330.7,338.7 322.8,338.7 369.5,282.3 377.4,282.3 
															"/>
							<polygon fill-rule="evenodd" clip-rule="evenodd" fill="#1C4752" points="360,338.7 352.1,338.7 398.8,282.3 406.7,282.3 
															"/>
							<polygon fill-rule="evenodd" clip-rule="evenodd" fill="#1C4752" points="389.2,338.7 381.3,338.7 428,282.3 435.9,282.3 
															"/>
						</g>
					</g>
				</g>
			</g>
		</g>
		<g id="its_decor">
			<path fill="#333335" d="M328.8,243.6c0.4-0.5,0.8-1.1,1-1.7c-0.1,0-0.2,0.1-0.3,0.1c-1,0.1-1.9-1.1-2-2.6
				c-0.1-1.5,0.6-2.8,1.6-2.9c1-0.1,1.9,1.1,2,2.6c0,0.1,0,0.3,0,0.4c0,1.2-0.2,2.4-0.8,3.5c-0.6,1.1-1.5,2-2.5,2.7
				c3.6-0.3,7.2,0,10.7,0.5c3.6,0.4,7.1,1,10.7,1.6c3.6,0.6,7.1,1.2,10.7,1.8c1.6,0.3,3.3,0.6,4.9,0.8c1.5,0.2,3,0.3,4.5,0.2
				c0.9,0,1.8-0.1,2.7-0.4c0.4-0.1,0.8-0.2,1.2-0.5c0.1-0.1,0.3-0.2,0.3-0.3c0-0.1,0.1-0.2-0.1-0.3c0,0-0.2,0-0.2,0.1
				c-0.1,0-0.1,0-0.2,0c-0.2,0-0.4-0.2-0.5-0.3c-0.2-0.2-0.3-0.6-0.1-0.8c0.5-0.5,1.2,0.3,1.4,0.7c0.3,0.8-0.6,1.3-1.3,1.5
				c-0.9,0.3-1.8,0.4-2.7,0.4c-0.9,0.1-1.7,0-2.6,0c1.1,0.2,2.2,0.3,3.4,0.5c1.8,0.2,3.5,0.4,5.3,0.5c1.8,0.1,3.6,0.1,5.4-0.1
				c0.8-0.1,1.7-0.3,2.4-0.6c0.7-0.3,1.3-0.8,1.8-1.4c0.4-0.6,0.7-1.4,0.6-2.2c-0.1-0.8-0.5-1.5-0.9-2.1c-0.9-1.3-2.2-2.3-3.5-3.2
				c-1.4-0.9-2.9-1.7-4.5-2.3c-1.6-0.7-3.3-1.2-4.9-1.6c-1.7-0.4-3.4-0.7-5.1-0.7c-0.8,0-1.7,0-2.4,0.3c-0.3,0.1-0.6,0.3-0.7,0.5
				c-0.2,0.3-0.1,0.7,0,1.1c0.1,0.2,0.1,0.4,0.2,0.5c0.1,0.2,0.1,0.4,0.3,0.5c0.2,0.2,0.6,0.4,0.9,0.5c0.6,0.2,1.2,0.2,1.8,0.2
				c0.6,0,1.2,0.1,1.6,0.4c0.6,0.4,1.1,1,1.2,1.6c0.2,0.5,0,1.1-0.3,1.5c-0.4,0.4-1,0.8-1.6,0.9c-0.6,0.1-1.2-0.2-1.6-0.6
				c-0.3-0.2-0.7-0.5-1-0.7c-0.3-0.2-0.6-0.5-0.9-0.8c-1.2-1.1-2.2-2.4-2.5-3.9c-0.2-0.7-0.1-1.5,0.4-2.2c0.4-0.6,1.2-1,2-1.2
				c1.6-0.4,3.3-0.2,4.9,0.2c3.4,0.7,6.6,2,9.7,3.6c1.5,0.8,2.9,1.7,4.2,2.7c1.2,1,2.4,2.1,3.1,3.4c0.3,0.7,0.5,1.5,0.4,2.3
				c-0.1,0.7-0.5,1.4-1,2c-1.1,1.2-2.8,1.6-4.4,1.8c-1.8,0.2-3.6,0.2-5.3,0.1c-1.8-0.1-3.5-0.2-5.3-0.4c-3.6-0.4-7.1-0.9-10.7-1.4
				c-3.6-0.5-7.1-1.1-10.7-1.7c-3.6-0.6-7.1-1.1-10.7-1.5c-3.6-0.4-7.2-0.8-10.7-0.7c-0.4,0-0.9,0-1.3,0.1c-0.2,0-0.4,0-0.6,0.1
				c-0.1,0-0.4,0.1-0.4,0c0,0,0-0.1,0-0.2c0-0.1-0.1-0.2-0.1-0.3c0-0.1-0.1-0.2-0.1-0.4C326.4,245.7,327.8,244.7,328.8,243.6z"/>
			<path fill="#333335" d="M276.4,243.6c-0.4-0.5-0.8-1.1-1-1.7c0.1,0,0.2,0.1,0.3,0.1c1,0.1,1.9-1.1,2-2.6c0.1-1.5-0.6-2.8-1.6-2.9
				c-1-0.1-1.9,1.1-2,2.6c0,0.1,0,0.3,0,0.4c0,1.2,0.2,2.4,0.8,3.5c0.6,1.1,1.5,2,2.5,2.7c-3.6-0.3-7.2,0-10.7,0.5
				c-3.6,0.4-7.1,1-10.7,1.6c-3.6,0.6-7.1,1.2-10.7,1.8c-1.6,0.3-3.3,0.6-4.9,0.8c-1.5,0.2-3,0.3-4.5,0.2c-0.9,0-1.8-0.1-2.7-0.4
				c-0.4-0.1-0.8-0.2-1.2-0.5c-0.1-0.1-0.3-0.2-0.3-0.3c0-0.1-0.1-0.2,0.1-0.3c0,0,0.2,0,0.2,0.1c0.1,0,0.1,0,0.2,0
				c0.2,0,0.4-0.2,0.5-0.3c0.2-0.2,0.3-0.6,0.1-0.8c-0.5-0.5-1.2,0.3-1.4,0.7c-0.3,0.8,0.6,1.3,1.3,1.5c0.9,0.3,1.8,0.4,2.7,0.4
				c0.9,0.1,1.7,0,2.6,0c-1.1,0.2-2.2,0.3-3.4,0.5c-1.8,0.2-3.5,0.4-5.3,0.5c-1.8,0.1-3.6,0.1-5.4-0.1c-0.8-0.1-1.7-0.3-2.4-0.6
				c-0.7-0.3-1.3-0.8-1.8-1.4c-0.4-0.6-0.7-1.4-0.6-2.2c0.1-0.8,0.5-1.5,0.9-2.1c0.9-1.3,2.2-2.3,3.5-3.2c1.4-0.9,2.9-1.7,4.5-2.3
				c1.6-0.7,3.3-1.2,4.9-1.6c1.7-0.4,3.4-0.7,5.1-0.7c0.8,0,1.7,0,2.4,0.3c0.3,0.1,0.6,0.3,0.7,0.5c0.2,0.3,0.1,0.7,0,1.1
				c-0.1,0.2-0.1,0.4-0.2,0.5c-0.1,0.2-0.1,0.4-0.3,0.5c-0.2,0.2-0.6,0.4-0.9,0.5c-0.6,0.2-1.2,0.2-1.8,0.2c-0.6,0-1.2,0.1-1.6,0.4
				c-0.6,0.4-1.1,1-1.2,1.6c-0.2,0.5,0,1.1,0.3,1.5c0.4,0.4,1,0.8,1.6,0.9c0.6,0.1,1.2-0.2,1.6-0.6c0.3-0.2,0.7-0.5,1-0.7
				c0.3-0.2,0.6-0.5,0.9-0.8c1.2-1.1,2.2-2.4,2.5-3.9c0.2-0.7,0.1-1.5-0.4-2.2c-0.4-0.6-1.2-1-2-1.2c-1.6-0.4-3.3-0.2-4.9,0.2
				c-3.4,0.7-6.6,2-9.7,3.6c-1.5,0.8-2.9,1.7-4.2,2.7c-1.2,1-2.4,2.1-3.1,3.4c-0.3,0.7-0.5,1.5-0.4,2.3c0.1,0.7,0.5,1.4,1,2
				c1.1,1.2,2.8,1.6,4.4,1.8c1.8,0.2,3.6,0.2,5.3,0.1c1.8-0.1,3.5-0.2,5.3-0.4c3.6-0.4,7.1-0.9,10.7-1.4c3.6-0.5,7.1-1.1,10.7-1.7
				c3.6-0.6,7.1-1.1,10.7-1.5c3.6-0.4,7.2-0.8,10.7-0.7c0.4,0,0.9,0,1.3,0.1c0.2,0,0.4,0,0.6,0.1c0.1,0,0.4,0.1,0.4,0
				c0,0,0-0.1,0-0.2c0-0.1,0.1-0.2,0.1-0.3c0-0.1,0.1-0.2,0.1-0.4C278.7,245.7,277.3,244.7,276.4,243.6z"/>
		</g>
		<g id="its">
			<path d="M294.8,245.6c-0.1,0.2-0.2,0.4-0.3,0.6c-0.1,0.3-0.2,0.5-0.3,0.8c-0.1,0.3-0.1,0.5-0.2,0.8c0,0.3,0,0.5,0.1,0.6
				c0.1,0.2,0.2,0.3,0.4,0.4c0.2,0.1,0.3,0.1,0.6,0c0.2-0.1,0.5-0.2,0.9-0.6c0.4-0.3,0.7-0.7,1.1-1c0.4-0.4,0.7-0.7,1-1.1
				c0.3-0.4,0.5-0.6,0.6-0.8v1.3c-0.1,0.1-0.2,0.3-0.5,0.6c-0.2,0.3-0.5,0.6-0.8,0.9c-0.3,0.3-0.6,0.6-0.9,0.9
				c-0.3,0.3-0.5,0.5-0.7,0.7c-0.5,0.4-1,0.8-1.5,1s-1,0.3-1.5,0.2c-0.3,0-0.6-0.2-0.8-0.3c-0.2-0.2-0.4-0.4-0.5-0.6
				c-0.1-0.3-0.2-0.7-0.2-1.1c0-0.4,0-0.8,0.1-1.2c0.1-0.4,0.2-0.9,0.3-1.3c0.1-0.4,0.3-0.8,0.5-1.2c0.4-0.8,0.7-1.5,1-2.1
				c0.2-0.5,0.5-1,0.7-1.4c0.2-0.4,0.3-0.7,0.3-0.7c0.1-0.2,0.2-0.3,0.2-0.4c0-0.1,0.1-0.1,0.1-0.2c0,0,0.1-0.1,0.2-0.1
				c0.1,0,0.2,0,0.4,0h1.8c0.3,0,0.4,0.1,0.4,0.2c0,0.1,0,0.3-0.1,0.4L294.8,245.6z M297.1,235.6c0.3-0.1,0.5,0,0.8,0
				c0.2,0.1,0.4,0.3,0.5,0.5c0.1,0.3,0.1,0.6,0.1,1c0,0.4-0.2,0.7-0.4,1c-0.2,0.3-0.4,0.6-0.7,0.8c-0.3,0.2-0.6,0.4-0.9,0.4
				c-0.5,0-0.9-0.1-1.1-0.4c-0.1-0.2-0.2-0.4-0.2-0.7c0-0.3,0.1-0.6,0.2-1c0.1-0.4,0.4-0.7,0.7-1.1
				C296.5,235.9,296.8,235.7,297.1,235.6z"/>
			<path d="M303.7,240.3c0.1,0,0.3,0,0.5,0.1c0.2,0,0.3,0,0.4,0.1c0.3,0.1,0.5,0.2,0.6,0.3c0.1,0.1,0.1,0.3,0.1,0.4
				c0,0.2,0,0.3-0.1,0.5c0,0.2-0.1,0.3-0.3,0.4c-0.3,0.1-0.7,0.2-1.2,0.2c-0.5,0-0.9,0-1.3,0l-0.7,1.4c-0.2,0.4-0.4,0.9-0.6,1.3
				c-0.2,0.5-0.4,0.9-0.6,1.3c-0.2,0.4-0.3,0.8-0.3,1.2c-0.1,0.3-0.1,0.6,0,0.7c0.1,0.3,0.3,0.4,0.5,0.5c0.2,0.1,0.5,0,0.8-0.1
				c0.2-0.1,0.5-0.3,0.8-0.5c0.3-0.3,0.6-0.6,0.9-0.9c0.3-0.3,0.6-0.7,0.9-1c0.3-0.3,0.5-0.6,0.7-0.8v1.3c-0.2,0.3-0.5,0.6-0.9,1.1
				c-0.4,0.4-0.8,0.9-1.3,1.3c-0.6,0.6-1.3,1-1.9,1.3c-0.7,0.3-1.3,0.4-1.8,0.4c-0.3,0-0.5-0.1-0.8-0.3c-0.3-0.1-0.5-0.4-0.7-0.8
				c-0.2-0.3-0.2-0.7-0.2-1.1c0-0.4,0.1-0.9,0.2-1.3s0.3-0.9,0.5-1.4c0.2-0.4,0.3-0.8,0.5-1.2l1-2.4c-0.2,0-0.4,0-0.6-0.1
				c-0.2,0-0.4-0.1-0.5-0.4c-0.1-0.1-0.1-0.2-0.1-0.4c0-0.2,0-0.3,0.1-0.5c0.1-0.2,0.2-0.3,0.3-0.4c0.1-0.1,0.2-0.2,0.4-0.2
				c0.3,0,0.6-0.1,0.9-0.1c0.2,0,0.5,0,0.7-0.1c0-0.1,0.1-0.2,0.2-0.4c0.1-0.2,0.2-0.4,0.4-0.6c0.1-0.2,0.3-0.5,0.5-0.7
				c0.2-0.3,0.3-0.5,0.5-0.7c0.1-0.2,0.3-0.4,0.4-0.6c0.1-0.2,0.2-0.3,0.3-0.5c0.1-0.2,0.2-0.3,0.3-0.5c0.1-0.2,0.3-0.4,0.5-0.6
				c0.2-0.3,0.4-0.6,0.5-0.7c0.1-0.1,0.3-0.2,0.4-0.3c0.1,0,0.3-0.1,0.5-0.1c0.2,0,0.4,0,0.8,0c0.3,0,0.5,0,0.7,0
				c0.2,0,0.3,0.2,0.4,0.4c0,0.2-0.1,0.4-0.4,0.8c-0.3,0.4-0.7,1-1.2,1.8c-0.2,0.4-0.4,0.7-0.6,1.1c-0.2,0.3-0.4,0.6-0.6,0.9
				C304,239.8,303.8,240.1,303.7,240.3z"/>
			<path d="M311.5,238.7c0,0.1,0,0.3,0,0.5c0,0.2-0.1,0.4-0.3,0.6c-0.1,0.1-0.2,0.2-0.2,0.2c0,0-0.1,0.1-0.3,0.3
				c-0.1,0.1-0.2,0.2-0.2,0.3c0,0.1-0.1,0.2-0.1,0.3c-0.1,0.3-0.1,0.6-0.1,1c0.1,0.4,0.1,0.7,0.2,1.2c0.1,0.4,0.1,0.7,0.2,1.1
				c0.1,0.3,0.1,0.7,0.1,1.1c0,1.3-0.1,2.4-0.3,3.4c0.2-0.1,0.4-0.3,0.7-0.5c0.3-0.3,0.6-0.5,0.9-0.9c0.3-0.3,0.6-0.6,0.9-0.9
				c0.3-0.3,0.5-0.6,0.7-0.8v1.3c-1.3,1.7-2.5,2.9-3.6,3.5s-2.1,0.9-3.1,0.6c-0.4-0.1-0.8-0.3-1.2-0.6c-0.4-0.3-0.7-0.6-0.9-1.1
				c-0.1-0.3-0.2-0.6-0.3-1c-0.1-0.4-0.1-0.8-0.1-1.2c0-0.4,0-0.9,0.1-1.3c0-0.4,0.1-0.8,0.2-1.1c0.1,0,0.2-0.1,0.4-0.2
				c0.1-0.1,0.2-0.2,0.3-0.2c0.3-0.4,0.7-0.8,1-1.1c0.3-0.3,0.6-0.7,0.9-1c0.3-0.4,0.6-0.7,0.8-1c0.2-0.2,0.3-0.3,0.5-0.5
				s0.3-0.4,0.5-0.6c0.2-0.2,0.3-0.4,0.5-0.6c0.2-0.2,0.3-0.4,0.5-0.5c0.2-0.2,0.3-0.3,0.5-0.3c0.2-0.1,0.3-0.1,0.5-0.1
				C311.3,238.4,311.5,238.5,311.5,238.7z M306.4,244.7c0.2,0.5,0.2,1,0,1.5c-0.1,0.5-0.4,0.8-0.8,1c0,0.2,0.1,0.5,0.2,0.8
				c0.1,0.3,0.4,0.5,0.7,0.6c0.3,0.1,0.6,0.1,0.9,0.1c0.3-0.1,0.6-0.2,0.8-0.5c0.4-0.4,0.6-0.8,0.8-1.4c0.1-0.6,0.2-1.1,0.2-1.7
				c0-0.6,0-1.2-0.1-1.7c-0.1-0.5-0.2-1-0.3-1.3c-0.5,0.4-1,0.9-1.4,1.3C307,243.8,306.7,244.2,306.4,244.7z"/>
		</g>
		<g id="its_not">
			<g id="_its_not_1_">
				<path fill="#FFFFFF" d="M162.5,225.8c-0.5,0.5-1.1,0.7-1.7,0.7c-0.6,0-1.1-0.2-1.6-0.7c0.7-1.5,1-3.1,1-5c0-2-0.3-3.4-1-4.3
					c0.7-0.9,1-2.4,1-4.3c0-1.9-0.3-3.6-1-5c0.5-0.4,1-0.7,1.6-0.7c0.6,0,1.1,0.2,1.7,0.7c0.5-0.5,1.1-0.7,1.7-0.7
					c0.6,0,1.1,0.2,1.6,0.7c-0.7,1.5-1,3.1-1,5c0,2,0.3,3.4,1,4.3c-0.7,0.9-1,2.4-1,4.3c0,1.9,0.3,3.6,1,5c-0.5,0.4-1,0.7-1.6,0.7
					C163.6,226.5,163,226.3,162.5,225.8z"/>
				<path fill="#FFFFFF" d="M181.4,211.1c0,0.6-0.2,1-0.5,1.4c-1.6-0.8-2.8-1.2-3.9-1.2c-0.5,0-0.9,0.1-1.2,0.3
					c-0.1,2.2,0.3,3.8,1,4.9c-0.7,0.9-1,2.4-1,4.4c0,1.9,0.3,3.6,1,5.1c-0.5,0.4-1,0.7-1.6,0.7c-0.6,0-1.1-0.3-1.7-0.8
					c-0.5,0.5-1.1,0.8-1.7,0.8c-0.6,0-1.1-0.2-1.6-0.7c0.7-1.5,1-3.2,1-5.1c0-2-0.3-3.4-1-4.4c0.7-1,1.1-2.6,1-4.7
					c-0.3-0.3-0.7-0.4-1.3-0.4c-1,0-2.3,0.4-3.9,1.2c-0.4-0.4-0.5-0.8-0.5-1.4c0-0.6,0.2-1.2,0.5-1.9c-0.3-0.3-0.5-0.8-0.5-1.3
					c0-0.5,0.2-1,0.5-1.5c1.1,0.5,2.3,0.8,3.7,0.8c1.3,0,2.5-0.3,3.7-0.8c1.2,0.5,2.4,0.8,3.7,0.8c1.4,0,2.6-0.3,3.7-0.8
					c0.3,0.5,0.5,0.9,0.5,1.5c0,0.6-0.2,1-0.5,1.3C181.2,209.9,181.4,210.5,181.4,211.1z"/>
				<path fill="#FFFFFF" d="M190.6,212.2c-0.9-1.8-2-2.7-3.4-2.7c-0.6,0-1.2,0.2-1.6,0.6c-0.4,0.4-0.7,0.9-0.7,1.5
					c0,0.6,0.2,1.1,0.6,1.6c0.6,0.5,1.2,0.7,1.8,0.7c0.4,0,0.7-0.1,1.1-0.2c0.1,0.5,0.6,1.1,1.3,1.6c0.3,0.2,0.7,0.5,1.1,0.7
					c1.9,1,2.9,2.6,2.9,4.7c0,1.6-0.6,2.9-1.7,4c-1.3,1.2-2.9,1.8-5,1.8c-1,0-2.1-0.2-3.3-0.5c-0.2-0.1-0.6-0.2-1.1-0.5
					c-0.4-0.2-0.7-0.3-1-0.3c-0.5,0-1,0.2-1.5,0.6c0-0.2,0-0.4,0-0.6c0-1,0.4-1.7,1.1-2.1c-0.2-0.3-0.3-0.7-0.3-1.1
					c0-0.6,0.2-1.3,0.5-2c0.6,1.1,1.5,1.9,2.5,2.5c0.9,0.5,1.9,0.8,2.9,0.8c0.8,0,1.5-0.2,2-0.5c0.5-0.4,0.8-0.8,0.8-1.4
					c0-0.6-0.3-1.2-0.9-1.9c-0.6-0.5-1.3-0.7-2.1-0.7c-0.4,0-0.8,0.1-1.2,0.2c-0.1-1.2-0.6-1.9-1.5-2.3c-1.8-1-2.7-2.5-2.7-4.4
					c0-1.5,0.5-2.8,1.6-4c1.2-1.2,2.5-1.8,4.2-1.8c1,0,1.9,0.2,2.9,0.7c0.2,0.1,0.4,0.3,0.6,0.4c0.2,0.1,0.4,0.2,0.7,0.2
					c0.3,0,0.7,0,1.2-0.1c0,0.2,0,0.3,0,0.5c0,0.6-0.3,1.2-0.8,1.8C191.5,210.7,191.2,211.5,190.6,212.2z"/>
				<path fill="#FFFFFF" d="M213.1,214.5c0.4-0.8,0.6-1.8,0.6-3.1c0-2.1-0.4-3.5-1.1-4.2c0.5-0.4,1-0.7,1.5-0.7
					c0.5,0,1.1,0.2,1.6,0.7c0.5-0.5,1-0.7,1.6-0.7c0.5,0,1,0.2,1.5,0.7l-0.4,1c-0.5,1.2-0.7,2.5-0.7,3.9c0,2,0.4,3.4,1.1,4.4
					c-0.7,0.9-1,2.4-1,4.3c0,1.9,0.3,3.6,1,5c-0.4,0.4-0.9,0.7-1.4,0.7c-0.5,0-1-0.2-1.5-0.7c-0.5,0.5-1,0.7-1.5,0.7
					c-0.5,0-1-0.2-1.4-0.7c0.7-0.8,1-1.7,1-2.7c0-1.2-0.4-2.2-1.2-3.2l-3.1-3.9c-0.6,1.2-0.9,2.7-0.9,4.4c0,1.9,0.4,3.7,1.1,5.4
					c-0.5,0.4-0.9,0.7-1.5,0.7c-0.6,0-1.1-0.2-1.6-0.7c-0.5,0.5-1,0.7-1.6,0.7c-0.5,0-1-0.2-1.5-0.7c0.7-1.5,1-3.1,1-5
					c0-2-0.3-3.4-1-4.3c0.7-1,1.1-2.5,1.1-4.4c0-1.4-0.2-2.7-0.7-3.9l-0.4-1c0.5-0.4,0.9-0.7,1.5-0.7c0.6,0,1.1,0.2,1.6,0.7
					c0.5-0.5,1-0.7,1.6-0.7c0.5,0,1,0.2,1.5,0.7c-0.3,0.6-0.4,1.1-0.4,1.6c0,0.7,0.2,1.3,0.6,1.8L213.1,214.5z"/>
				<path fill="#FFFFFF" d="M228.7,225.8c-0.9,0.4-1.9,0.7-3,0.8c-1.2-0.1-2.2-0.3-3.1-0.7c-2-1-3.1-2.6-3.1-5.1v-2.3
					c0-1.1-0.4-1.7-1-2c0.4-0.2,0.7-0.6,0.9-1.2c0.1-0.3,0.1-0.5,0.1-0.8v-2.2c0-2.4,1-4,3.1-5c0.9-0.4,1.9-0.7,3.1-0.8
					c1.2,0.1,2.2,0.4,3.1,0.8c2,1,3.1,2.7,3.1,5v2.2c0,1.1,0.4,1.7,1,2c-0.4,0.2-0.7,0.6-0.9,1.2c-0.1,0.3-0.1,0.5-0.1,0.8v2.3
					C231.7,223.1,230.7,224.8,228.7,225.8z M227.7,218.5c0-1.1-0.4-1.7-1-2c0.4-0.2,0.7-0.6,0.9-1.2c0.1-0.3,0.1-0.5,0.1-0.8v-2.1
					c0-0.7-0.2-1.3-0.6-1.7c-0.4-0.4-0.9-0.6-1.4-0.6c-0.5,0-1,0.2-1.4,0.6c-0.4,0.4-0.6,1-0.6,1.7v2.1c0,1.1,0.4,1.7,1,2
					c-0.4,0.2-0.7,0.6-0.9,1.2c-0.1,0.3-0.1,0.5-0.1,0.8v2.1c0,0.8,0.2,1.3,0.6,1.7c0.4,0.4,0.9,0.6,1.4,0.6c0.6,0,1-0.2,1.4-0.6
					s0.6-1,0.6-1.7V218.5z"/>
				<path fill="#FFFFFF" d="M247.3,211.1c0,0.6-0.2,1-0.5,1.4c-1.6-0.8-2.8-1.2-3.9-1.2c-0.5,0-0.9,0.1-1.2,0.3
					c-0.1,2.2,0.3,3.8,1,4.9c-0.7,0.9-1,2.4-1,4.4c0,1.9,0.3,3.6,1,5.1c-0.5,0.4-1,0.7-1.6,0.7c-0.6,0-1.1-0.3-1.7-0.8
					c-0.5,0.5-1.1,0.8-1.7,0.8c-0.6,0-1.1-0.2-1.6-0.7c0.7-1.5,1-3.2,1-5.1c0-2-0.3-3.4-1-4.4c0.7-1,1.1-2.6,1-4.7
					c-0.3-0.3-0.7-0.4-1.3-0.4c-1,0-2.3,0.4-3.9,1.2c-0.4-0.4-0.5-0.8-0.5-1.4c0-0.6,0.2-1.2,0.5-1.9c-0.3-0.3-0.5-0.8-0.5-1.3
					c0-0.5,0.2-1,0.5-1.5c1.1,0.5,2.3,0.8,3.7,0.8c1.3,0,2.5-0.3,3.7-0.8c1.2,0.5,2.4,0.8,3.7,0.8c1.4,0,2.6-0.3,3.7-0.8
					c0.3,0.5,0.5,0.9,0.5,1.5c0,0.6-0.2,1-0.5,1.3C247.1,209.9,247.3,210.5,247.3,211.1z"/>
				<path fill="#FFFFFF" d="M269.6,214.3c0.1,1.1,0.4,1.8,1,2.1c-0.4,0.2-0.7,0.6-0.9,1.2c-0.1,0.3-0.1,0.5-0.1,0.9v2.2
					c0,0.2,0,0.5,0,0.7c0,2.1-1,3.6-2.9,4.5c-0.8,0.4-1.8,0.6-2.9,0.7c-0.3,0-0.6,0-0.8,0c-2.2,0-3.8-0.8-4.7-2.4
					c-0.4-0.7-0.6-1.4-0.7-2.3c0.1-1-0.1-1.8-0.6-2.2c0.3-0.4,0.7-0.5,1.1-0.5c0.4,0,0.8,0.1,1.2,0.4c0.3-0.6,0.9-0.9,1.7-0.9
					c0.6,0,1,0.1,1.3,0.4c-0.5,0.7-0.7,1.4-0.7,2.1c0,0.6,0.2,1,0.5,1.3c0.3,0.3,0.7,0.5,1.2,0.5h0.1c0.8,0,1.4-0.2,1.7-0.7
					c0.2-0.3,0.4-0.9,0.4-1.8v-2.1c-0.1-1.1-0.4-1.8-1-2.1c0.4-0.2,0.7-0.6,0.9-1.2c0.1-0.3,0.1-0.5,0.1-0.9v-2.1
					c0-1.5-0.2-2.6-0.5-3.3c-0.2-0.4-0.7-0.9-1.5-1.8c0.7-0.4,1.4-0.7,1.9-0.7c0.5,0,1.1,0.2,1.8,0.6c0.6-0.5,1.2-0.7,1.8-0.7
					c0.6,0,1.1,0.2,1.6,0.7c-0.6,0.6-1,2.3-1,5V214.3z"/>
				<path fill="#FFFFFF" d="M281,225.7c-0.9,0.4-1.9,0.7-3.1,0.8c-1.2-0.1-2.2-0.3-3.1-0.7c-2.1-1-3.1-2.7-3.1-5.1v-2.3
					c0-1.1-0.4-1.8-1-2.1c0.4-0.2,0.7-0.6,0.9-1.2c0.1-0.3,0.1-0.5,0.1-0.9v-2.2c0-2.1-0.5-3.7-1.3-4.9c0.6-0.5,1.2-0.7,1.9-0.7
					c0.6,0,1.1,0.2,1.6,0.7c0.5-0.4,1.1-0.7,1.7-0.7c0.6,0,1.1,0.2,1.6,0.6c-0.7,1.4-1.1,3.1-1.1,5.1v2.1c0,1.1,0.4,1.8,1,2.1
					c-0.4,0.2-0.7,0.6-0.9,1.2c-0.1,0.3-0.1,0.5-0.1,0.9v2.1c0,0.7,0.2,1.3,0.6,1.8c0.4,0.4,0.9,0.6,1.4,0.6c0.6,0,1-0.2,1.4-0.6
					c0.4-0.5,0.6-1,0.6-1.8v-2.1c0-1.1-0.4-1.8-1-2.1c0.4-0.2,0.7-0.6,0.9-1.2c0.1-0.3,0.1-0.5,0.1-0.9v-2.1c0-2-0.4-3.7-1.1-5.1
					c0.5-0.4,1-0.6,1.6-0.6c0.6,0,1.1,0.2,1.7,0.7c0.4-0.4,0.8-0.7,1.3-0.7c0.6,0,1.2,0.2,1.8,0.7c-0.5,0.8-0.8,1.9-1,3.2
					c-0.1,0.6-0.1,1.1-0.1,1.7v2.2c0,1.1,0.4,1.8,1.1,2.1c-0.4,0.2-0.7,0.6-0.9,1.2c-0.1,0.3-0.1,0.5-0.1,0.9v2.3
					C284.1,223.1,283,224.8,281,225.7z"/>
				<path fill="#FFFFFF" d="M294.2,212.2c-0.9-1.8-2-2.7-3.4-2.7c-0.6,0-1.2,0.2-1.6,0.6c-0.4,0.4-0.7,0.9-0.7,1.5
					c0,0.6,0.2,1.1,0.6,1.6c0.6,0.5,1.2,0.7,1.8,0.7c0.4,0,0.7-0.1,1.1-0.2c0.1,0.5,0.6,1.1,1.3,1.6c0.3,0.2,0.7,0.5,1.1,0.7
					c1.9,1,2.9,2.6,2.9,4.7c0,1.6-0.6,2.9-1.7,4c-1.3,1.2-2.9,1.8-5,1.8c-1,0-2.1-0.2-3.3-0.5c-0.2-0.1-0.6-0.2-1.1-0.5
					c-0.4-0.2-0.7-0.3-1-0.3c-0.5,0-1,0.2-1.5,0.6c0-0.2,0-0.4,0-0.6c0-1,0.4-1.7,1.1-2.1c-0.2-0.3-0.3-0.7-0.3-1.1
					c0-0.6,0.2-1.3,0.5-2c0.6,1.1,1.5,1.9,2.5,2.5c0.9,0.5,1.9,0.8,2.9,0.8c0.8,0,1.5-0.2,2-0.5c0.5-0.4,0.8-0.8,0.8-1.4
					c0-0.6-0.3-1.2-0.9-1.9c-0.6-0.5-1.3-0.7-2.1-0.7c-0.4,0-0.8,0.1-1.2,0.2c-0.1-1.2-0.6-1.9-1.5-2.3c-1.8-1-2.7-2.5-2.7-4.4
					c0-1.5,0.5-2.8,1.6-4c1.2-1.2,2.5-1.8,4.2-1.8c1,0,1.9,0.2,2.9,0.7c0.2,0.1,0.4,0.3,0.6,0.4c0.2,0.1,0.4,0.2,0.7,0.2
					c0.3,0,0.7,0,1.2-0.1c0,0.2,0,0.3,0,0.5c0,0.6-0.3,1.2-0.8,1.8C295.1,210.7,294.8,211.5,294.2,212.2z"/>
				<path fill="#FFFFFF" d="M311.4,211.1c0,0.6-0.2,1-0.5,1.4c-1.6-0.8-2.8-1.2-3.9-1.2c-0.5,0-0.9,0.1-1.2,0.3
					c-0.1,2.2,0.3,3.8,1,4.9c-0.7,0.9-1,2.4-1,4.4c0,1.9,0.3,3.6,1,5.1c-0.5,0.4-1,0.7-1.6,0.7c-0.6,0-1.1-0.3-1.7-0.8
					c-0.5,0.5-1.1,0.8-1.7,0.8c-0.6,0-1.1-0.2-1.6-0.7c0.7-1.5,1-3.2,1-5.1c0-2-0.3-3.4-1-4.4c0.7-1,1.1-2.6,1-4.7
					c-0.3-0.3-0.7-0.4-1.3-0.4c-1,0-2.3,0.4-3.9,1.2c-0.4-0.4-0.5-0.8-0.5-1.4c0-0.6,0.2-1.2,0.5-1.9c-0.3-0.3-0.5-0.8-0.5-1.3
					c0-0.5,0.2-1,0.5-1.5c1.1,0.5,2.3,0.8,3.7,0.8c1.3,0,2.5-0.3,3.7-0.8c1.2,0.5,2.4,0.8,3.7,0.8c1.4,0,2.6-0.3,3.7-0.8
					c0.3,0.5,0.5,0.9,0.5,1.5c0,0.6-0.2,1-0.5,1.3C311.2,209.9,311.4,210.5,311.4,211.1z"/>
				<path fill="#FFFFFF" d="M334,226.5c-0.5,0-0.9-0.2-1.1-0.5c0.4-0.9,0.6-1.8,0.6-2.7c0-1.1-0.3-2-0.9-2.7
					c-0.6-0.7-1.4-1.1-2.3-1.1c-0.9,0-1.7,0.4-2.3,1.1c-0.6,0.7-0.9,1.6-0.9,2.7c0,0.9,0.2,1.8,0.6,2.7c-0.1,0.3-0.5,0.5-1.1,0.5
					c-0.6,0-1.3-0.2-2.1-0.5c-0.4,0.3-0.8,0.5-1.4,0.5c-0.7,0-1.4-0.2-2.1-0.6c2.4-2.4,3.6-5.1,3.6-8c0-0.5,0-1-0.1-1.4
					c2-2.5,3-4.9,3-7.4c0-0.9-0.2-1.5-0.5-2c0.5-0.4,1-0.7,1.5-0.7c0.6,0,1.1,0.2,1.6,0.7c0.5-0.5,1-0.7,1.6-0.7
					c0.6,0,1.1,0.2,1.6,0.7c-0.3,0.5-0.5,1.1-0.5,2c0,2.5,1,4.9,3,7.4c-0.1,0.4-0.1,0.8-0.1,1.4c0,2.9,1.2,5.6,3.6,8
					c-0.8,0.4-1.5,0.6-2.1,0.6c-0.6,0-1-0.2-1.4-0.5C335.3,226.3,334.6,226.5,334,226.5z M330.4,213.4c-0.7,1.2-1,2.3-1,3.5
					c0.4-0.2,0.7-0.3,1-0.3c0.3,0,0.6,0.1,1,0.3C331.4,215.8,331,214.6,330.4,213.4z"/>
				<path fill="#FFFFFF" d="M358.5,210.2c-0.1-1.5-0.5-2.5-1-3.1c0.5-0.4,1-0.7,1.6-0.7c0.6,0,1.1,0.2,1.7,0.7
					c0.5-0.5,1.1-0.7,1.7-0.7c0.6,0,1.1,0.2,1.6,0.7c-0.7,1.5-1,3.1-1,5c0,2,0.3,3.4,1,4.3c-0.7,0.9-1,2.4-1,4.3c0,1.9,0.3,3.6,1,5
					c-0.5,0.4-1,0.7-1.6,0.7c-0.6,0-1.1-0.2-1.7-0.7c-0.5,0.5-1.1,0.7-1.7,0.7c-0.6,0-1.1-0.2-1.6-0.7c0.5-0.5,0.9-1.6,1-3.1
					c0-0.4,0.1-1.4,0.1-3.1c0-1-0.4-1.6-1.1-1.9c-0.3-0.1-0.5-0.1-0.7-0.1c-0.2,0-0.4,0-0.7,0.1c-0.7,0.3-1,0.9-1,1.9
					c0,1.7,0,2.7,0.1,3.1c0.1,1.5,0.5,2.5,1,3.1c-0.5,0.4-1,0.7-1.6,0.7c-0.6,0-1.1-0.2-1.7-0.7c-0.5,0.5-1.1,0.7-1.7,0.7
					c-0.6,0-1.1-0.2-1.6-0.7c0.7-1.5,1-3.1,1-5c0-2-0.3-3.4-1-4.3c0.7-0.9,1-2.4,1-4.3c0-1.9-0.3-3.6-1-5c0.5-0.4,1-0.7,1.6-0.7
					c0.6,0,1.1,0.2,1.7,0.7c0.5-0.5,1.1-0.7,1.7-0.7c0.6,0,1.1,0.2,1.6,0.7c-0.5,0.5-0.9,1.6-1,3.1c0,0.4-0.1,1.4-0.1,3.1
					c0,1,0.3,1.6,1,1.9c0.3,0.1,0.5,0.1,0.7,0.1c0.2,0,0.5,0,0.7-0.1c0.7-0.3,1.1-0.9,1.1-1.9C358.6,211.6,358.5,210.6,358.5,210.2z
					"/>
				<path fill="#FFFFFF" d="M376.6,226.5c-0.5,0-0.9-0.2-1.1-0.5c0.4-0.9,0.6-1.8,0.6-2.7c0-1.1-0.3-2-0.9-2.7
					c-0.6-0.7-1.4-1.1-2.3-1.1c-0.9,0-1.7,0.4-2.3,1.1c-0.6,0.7-0.9,1.6-0.9,2.7c0,0.9,0.2,1.8,0.6,2.7c-0.1,0.3-0.5,0.5-1.1,0.5
					c-0.6,0-1.3-0.2-2.1-0.5c-0.4,0.3-0.8,0.5-1.4,0.5c-0.7,0-1.4-0.2-2.1-0.6c2.4-2.4,3.6-5.1,3.6-8c0-0.5,0-1-0.1-1.4
					c2-2.5,3-4.9,3-7.4c0-0.9-0.2-1.5-0.5-2c0.5-0.4,1-0.7,1.5-0.7c0.6,0,1.1,0.2,1.6,0.7c0.5-0.5,1-0.7,1.6-0.7
					c0.6,0,1.1,0.2,1.6,0.7c-0.3,0.5-0.5,1.1-0.5,2c0,2.5,1,4.9,3,7.4c-0.1,0.4-0.1,0.8-0.1,1.4c0,2.9,1.2,5.6,3.6,8
					c-0.8,0.4-1.5,0.6-2.1,0.6c-0.6,0-1-0.2-1.4-0.5C377.9,226.3,377.2,226.5,376.6,226.5z M373,213.4c-0.7,1.2-1,2.3-1,3.5
					c0.4-0.2,0.7-0.3,1-0.3s0.6,0.1,1,0.3C374,215.8,373.7,214.6,373,213.4z"/>
				<path fill="#FFFFFF" d="M384.9,225.8c-0.5,0.5-1.1,0.7-1.7,0.7c-0.6,0-1.1-0.2-1.6-0.7c0.7-1.5,1-3.1,1-5c0-2-0.3-3.4-1-4.3
					c0.7-0.9,1-2.4,1-4.3c0-1.9-0.3-3.6-1-5c0.5-0.4,1-0.7,1.6-0.7c0.6,0,1.1,0.2,1.7,0.7c0.5-0.5,1.1-0.7,1.7-0.7
					c0.6,0,1.1,0.2,1.6,0.7c-0.7,1.5-1,3.1-1,5c0,2,0.3,3.4,1,4.3c-0.7,0.9-1,2.4-1,4.3c0,1.9,0.3,3.6,1,5c-0.5,0.4-1,0.7-1.6,0.7
					C385.9,226.5,385.4,226.3,384.9,225.8z"/>
				<path fill="#FFFFFF" d="M401.3,226.5c-1.4,0-2.7-0.5-4-1.6c0.5-0.7,0.8-1.4,0.8-2c0-0.7-0.4-1.6-1.2-2.7
					c0.3-0.4,0.4-0.7,0.4-1.1c0-0.5-0.2-1-0.7-1.4c-0.4-0.4-0.9-0.6-1.5-0.6c-0.6,0-1,0.2-1.3,0.7c-0.4,0.5-0.6,1.3-0.6,2.3
					c0,2.6,0.5,4.4,1.5,5.4c-0.5,0.4-1,0.6-1.6,0.6c-0.6,0-1.2-0.2-1.8-0.7c-0.6,0.5-1.2,0.7-1.8,0.7c-0.6,0-1.1-0.2-1.6-0.6
					c0.7-1.5,1-3.1,1-5c0-1.9-0.3-3.4-1-4.3c0.7-0.9,1-2.3,1-4.3c0-1.9-0.3-3.5-1-4.9c0.5-0.4,1-0.7,1.6-0.7c0.6,0,1.2,0.2,1.8,0.7
					c1.1-0.6,2.4-0.8,3.8-0.8c1.6,0,3,0.3,4.2,1c1.2,0.7,1.8,1.6,1.8,2.7c0,1.1,0.3,1.7,1,2.1c-0.4,0.2-0.7,0.6-0.9,1.2
					c-0.1,0.3-0.1,0.5-0.1,0.8c-0.1,1-0.7,1.7-1.8,2.2c0.7,0.3,1.2,0.7,1.5,1.3c0.1,0.2,0.2,0.5,0.2,0.7c0,0.8,0.3,1.3,1,1.6
					c0,0,0.1,0.4,0.2,1.1c0.1,0.9,0.3,1.7,0.5,2.3c0.4,1,0.8,1.8,1.5,2.5C403.2,226.3,402.2,226.5,401.3,226.5z M397,211.4
					c0-0.4-0.2-0.7-0.5-1c-0.3-0.3-0.7-0.4-1.2-0.4c-0.6,0-1,0.2-1.4,0.6c-0.4,0.5-0.7,1.2-0.7,2.1c0,0.9,0.2,1.6,0.7,2
					c0.4,0.4,0.8,0.6,1.4,0.6c0.5,0,0.8-0.1,1.2-0.4c0.3-0.3,0.5-0.6,0.5-1c0-0.4-0.2-0.8-0.6-1.3C396.8,212.2,397,211.8,397,211.4z
					"/>
				<path fill="#FFFFFF" d="M411.3,218.8c0.8,0,1.4,0.3,1.7,0.9c0.4-0.3,0.8-0.4,1.2-0.4c0.4,0,0.8,0.2,1.1,0.5
					c-0.5,0.4-0.7,1.1-0.6,2.2c-0.1,0.9-0.3,1.7-0.7,2.3c-0.9,1.6-2.4,2.3-4.6,2.3c-0.3,0-0.5,0-0.8,0c-1.1-0.1-2.1-0.3-2.9-0.7
					c-1.9-0.8-2.9-2.3-2.9-4.4c0-0.2,0-0.5,0-0.7v-2.2c0-1.1-0.4-1.7-1-2c0.4-0.2,0.7-0.6,0.9-1.2c0.1-0.3,0.1-0.5,0.1-0.8v-2.2
					c0-2.4,1-4.1,2.9-5.1c0.8-0.4,1.8-0.6,2.9-0.7c0.3,0,0.6,0,0.8,0c2.2,0,3.7,0.8,4.6,2.3c0.4,0.6,0.6,1.4,0.7,2.3
					c-0.1,1,0.1,1.7,0.6,2.2c-0.3,0.3-0.7,0.5-1.1,0.5c-0.4,0-0.8-0.1-1.2-0.4c-0.3,0.6-0.8,0.9-1.7,0.9c-0.6,0-1-0.1-1.3-0.4
					c0.5-0.7,0.7-1.4,0.7-2.1c0-0.6-0.2-1-0.5-1.3c-0.3-0.3-0.7-0.5-1.2-0.5h-0.1c-0.8,0-1.4,0.2-1.7,0.7c-0.2,0.3-0.4,0.9-0.4,1.8
					v2.1c0,1.1,0.4,1.7,1,2c-0.4,0.2-0.7,0.6-0.9,1.2c-0.1,0.3-0.1,0.5-0.1,0.8v2.1c0,0.8,0.1,1.4,0.4,1.8c0.3,0.5,0.8,0.7,1.7,0.7
					h0.1c0.5,0,0.9-0.2,1.2-0.5c0.3-0.3,0.5-0.8,0.5-1.3c0-0.7-0.2-1.3-0.7-2.1C410.2,218.9,410.7,218.8,411.3,218.8z"/>
				<path fill="#FFFFFF" d="M424.5,225.7c-0.9,0.4-1.9,0.7-3.1,0.8c-1.2-0.1-2.2-0.3-3.1-0.7c-2.1-1-3.1-2.7-3.1-5.1v-2.3
					c-0.1-1.1-0.4-1.8-1-2.1c0.4-0.2,0.7-0.6,0.9-1.2c0.1-0.3,0.1-0.5,0.1-0.9v-2.2c-0.1-2.1-0.5-3.7-1.3-4.9
					c0.6-0.5,1.2-0.7,1.9-0.7c0.6,0,1.1,0.2,1.6,0.7c0.5-0.4,1.1-0.7,1.7-0.7c0.6,0,1.1,0.2,1.6,0.6c-0.7,1.4-1.1,3.1-1.1,5.1v2.1
					c0,1.1,0.4,1.8,1,2.1c-0.4,0.2-0.7,0.6-0.9,1.2c-0.1,0.3-0.1,0.5-0.1,0.9v2.1c0,0.7,0.2,1.3,0.6,1.8c0.4,0.4,0.9,0.6,1.4,0.6
					c0.6,0,1-0.2,1.4-0.6c0.4-0.5,0.6-1,0.6-1.8v-2.1c-0.1-1.1-0.4-1.8-1-2.1c0.4-0.2,0.7-0.6,0.9-1.2c0.1-0.3,0.1-0.5,0.1-0.9v-2.1
					c0-2-0.4-3.7-1.1-5.1c0.5-0.4,1-0.6,1.6-0.6c0.6,0,1.1,0.2,1.7,0.7c0.4-0.4,0.8-0.7,1.3-0.7c0.6,0,1.2,0.2,1.8,0.7
					c-0.5,0.8-0.8,1.9-1,3.2c-0.1,0.6-0.1,1.1-0.2,1.7v2.2c0.1,1.1,0.4,1.8,1.1,2.1c-0.4,0.2-0.7,0.6-0.9,1.2
					c-0.1,0.3-0.1,0.5-0.2,0.9v2.3C427.6,223.1,426.6,224.8,424.5,225.7z"/>
				<path fill="#FFFFFF" d="M444.4,211.1c0,0.6-0.2,1-0.5,1.4c-1.6-0.8-2.8-1.2-3.9-1.2c-0.5,0-0.9,0.1-1.2,0.3
					c-0.1,2.2,0.3,3.8,1,4.9c-0.7,0.9-1,2.4-1,4.4c0,1.9,0.3,3.6,1,5.1c-0.5,0.4-1,0.7-1.6,0.7c-0.6,0-1.1-0.3-1.7-0.8
					c-0.5,0.5-1.1,0.8-1.7,0.8c-0.6,0-1.1-0.2-1.6-0.7c0.7-1.5,1-3.2,1-5.1c0-2-0.3-3.4-1-4.4c0.7-1,1.1-2.6,1-4.7
					c-0.3-0.3-0.7-0.4-1.3-0.4c-1,0-2.3,0.4-3.9,1.2c-0.4-0.4-0.5-0.8-0.5-1.4c0-0.6,0.2-1.2,0.5-1.9c-0.3-0.3-0.5-0.8-0.5-1.3
					c0-0.5,0.2-1,0.5-1.5c1.1,0.5,2.3,0.8,3.7,0.8c1.3,0,2.5-0.3,3.7-0.8c1.2,0.5,2.4,0.8,3.7,0.8c1.4,0,2.6-0.3,3.7-0.8
					c0.3,0.5,0.5,0.9,0.5,1.5c0,0.6-0.2,1-0.5,1.3C444.2,209.9,444.4,210.5,444.4,211.1z"/>
			</g>
			<g id="its_not_1_">
				<path d="M163.3,224.7c-0.5,0.5-1.1,0.7-1.7,0.7c-0.6,0-1.1-0.2-1.6-0.7c0.7-1.5,1-3.1,1-5c0-2-0.3-3.4-1-4.3
					c0.7-0.9,1-2.4,1-4.3c0-1.9-0.3-3.6-1-5c0.5-0.4,1-0.7,1.6-0.7c0.6,0,1.1,0.2,1.7,0.7c0.5-0.5,1.1-0.7,1.7-0.7
					c0.6,0,1.1,0.2,1.6,0.7c-0.7,1.5-1,3.1-1,5c0,2,0.3,3.4,1,4.3c-0.7,0.9-1,2.4-1,4.3c0,1.9,0.3,3.6,1,5c-0.5,0.4-1,0.7-1.6,0.7
					C164.3,225.5,163.8,225.2,163.3,224.7z"/>
				<path d="M182.2,210.1c0,0.6-0.2,1-0.5,1.4c-1.6-0.8-2.8-1.2-3.9-1.2c-0.5,0-0.9,0.1-1.2,0.3c-0.1,2.2,0.3,3.8,1,4.9
					c-0.7,0.9-1,2.4-1,4.4c0,1.9,0.3,3.6,1,5.1c-0.5,0.4-1,0.7-1.6,0.7c-0.6,0-1.1-0.3-1.7-0.8c-0.5,0.5-1.1,0.8-1.7,0.8
					c-0.6,0-1.1-0.2-1.6-0.7c0.7-1.5,1-3.2,1-5.1c0-2-0.3-3.4-1-4.4c0.7-1,1.1-2.6,1-4.7c-0.3-0.3-0.7-0.4-1.3-0.4
					c-1,0-2.3,0.4-3.9,1.2c-0.4-0.4-0.5-0.8-0.5-1.4c0-0.6,0.2-1.2,0.5-1.9c-0.3-0.3-0.5-0.8-0.5-1.3c0-0.5,0.2-1,0.5-1.5
					c1.1,0.5,2.3,0.8,3.7,0.8c1.3,0,2.5-0.3,3.7-0.8c1.2,0.5,2.4,0.8,3.7,0.8c1.4,0,2.6-0.3,3.7-0.8c0.3,0.5,0.5,0.9,0.5,1.5
					c0,0.6-0.2,1-0.5,1.3C182,208.9,182.2,209.5,182.2,210.1z"/>
				<path d="M191.3,211.1c-0.9-1.8-2-2.7-3.4-2.7c-0.6,0-1.2,0.2-1.6,0.6c-0.4,0.4-0.7,0.9-0.7,1.5c0,0.6,0.2,1.1,0.6,1.6
					c0.6,0.5,1.2,0.7,1.8,0.7c0.4,0,0.7-0.1,1.1-0.2c0.1,0.5,0.6,1.1,1.3,1.6c0.3,0.2,0.7,0.5,1.1,0.7c1.9,1,2.9,2.6,2.9,4.7
					c0,1.6-0.6,2.9-1.7,4c-1.3,1.2-2.9,1.8-5,1.8c-1,0-2.1-0.2-3.3-0.5c-0.2-0.1-0.6-0.2-1.1-0.5c-0.4-0.2-0.7-0.3-1-0.3
					c-0.5,0-1,0.2-1.5,0.6c0-0.2,0-0.4,0-0.6c0-1,0.4-1.7,1.1-2.1c-0.2-0.3-0.3-0.7-0.3-1.1c0-0.6,0.2-1.3,0.5-2
					c0.6,1.1,1.5,1.9,2.5,2.5c0.9,0.5,1.9,0.8,2.9,0.8c0.8,0,1.5-0.2,2-0.5c0.5-0.4,0.8-0.8,0.8-1.4c0-0.6-0.3-1.2-0.9-1.9
					c-0.6-0.5-1.3-0.7-2.1-0.7c-0.4,0-0.8,0.1-1.2,0.2c-0.1-1.2-0.6-1.9-1.5-2.3c-1.8-1-2.7-2.5-2.7-4.4c0-1.5,0.5-2.8,1.6-4
					c1.2-1.2,2.5-1.8,4.2-1.8c1,0,1.9,0.2,2.9,0.7c0.2,0.1,0.4,0.3,0.6,0.4c0.2,0.1,0.4,0.2,0.7,0.2c0.3,0,0.7,0,1.2-0.1
					c0,0.2,0,0.3,0,0.5c0,0.6-0.3,1.2-0.8,1.8C192.2,209.7,191.9,210.4,191.3,211.1z"/>
				<path d="M213.9,213.4c0.4-0.8,0.6-1.8,0.6-3.1c0-2.1-0.4-3.5-1.1-4.2c0.5-0.4,1-0.7,1.5-0.7c0.5,0,1.1,0.2,1.6,0.7
					c0.5-0.5,1-0.7,1.6-0.7c0.5,0,1,0.2,1.5,0.7l-0.4,1c-0.5,1.2-0.7,2.5-0.7,3.9c0,2,0.4,3.4,1.1,4.4c-0.7,0.9-1,2.4-1,4.3
					c0,1.9,0.3,3.6,1,5c-0.4,0.4-0.9,0.7-1.4,0.7c-0.5,0-1-0.2-1.5-0.7c-0.5,0.5-1,0.7-1.5,0.7c-0.5,0-1-0.2-1.4-0.7
					c0.7-0.8,1-1.7,1-2.7c0-1.2-0.4-2.2-1.2-3.2l-3.1-3.9c-0.6,1.2-0.9,2.7-0.9,4.4c0,1.9,0.4,3.7,1.1,5.4c-0.5,0.4-0.9,0.7-1.5,0.7
					c-0.6,0-1.1-0.2-1.6-0.7c-0.5,0.5-1,0.7-1.6,0.7c-0.5,0-1-0.2-1.5-0.7c0.7-1.5,1-3.1,1-5c0-2-0.3-3.4-1-4.3
					c0.7-1,1.1-2.5,1.1-4.4c0-1.4-0.2-2.7-0.7-3.9l-0.4-1c0.5-0.4,0.9-0.7,1.5-0.7c0.6,0,1.1,0.2,1.6,0.7c0.5-0.5,1-0.7,1.6-0.7
					c0.5,0,1,0.2,1.5,0.7c-0.3,0.6-0.4,1.1-0.4,1.6c0,0.7,0.2,1.3,0.6,1.8L213.9,213.4z"/>
				<path d="M229.4,224.7c-0.9,0.4-1.9,0.7-3,0.8c-1.2-0.1-2.2-0.3-3.1-0.7c-2-1-3.1-2.6-3.1-5.1v-2.3c0-1.1-0.4-1.7-1-2
					c0.4-0.2,0.7-0.6,0.9-1.2c0.1-0.3,0.1-0.5,0.1-0.8v-2.2c0-2.4,1-4,3.1-5c0.9-0.4,1.9-0.7,3.1-0.8c1.2,0.1,2.2,0.4,3.1,0.8
					c2,1,3.1,2.7,3.1,5v2.2c0,1.1,0.4,1.7,1,2c-0.4,0.2-0.7,0.6-0.9,1.2c-0.1,0.3-0.1,0.5-0.1,0.8v2.3
					C232.5,222.1,231.5,223.7,229.4,224.7z M228.5,217.4c0-1.1-0.4-1.7-1-2c0.4-0.2,0.7-0.6,0.9-1.2c0.1-0.3,0.1-0.5,0.1-0.8v-2.1
					c0-0.7-0.2-1.3-0.6-1.7c-0.4-0.4-0.9-0.6-1.4-0.6c-0.5,0-1,0.2-1.4,0.6c-0.4,0.4-0.6,1-0.6,1.7v2.1c0,1.1,0.4,1.7,1,2
					c-0.4,0.2-0.7,0.6-0.9,1.2c-0.1,0.3-0.1,0.5-0.1,0.8v2.1c0,0.8,0.2,1.3,0.6,1.7c0.4,0.4,0.9,0.6,1.4,0.6c0.6,0,1-0.2,1.4-0.6
					c0.4-0.4,0.6-1,0.6-1.7V217.4z"/>
				<path d="M248,210.1c0,0.6-0.2,1-0.5,1.4c-1.6-0.8-2.8-1.2-3.9-1.2c-0.5,0-0.9,0.1-1.2,0.3c-0.1,2.2,0.3,3.8,1,4.9
					c-0.7,0.9-1,2.4-1,4.4c0,1.9,0.3,3.6,1,5.1c-0.5,0.4-1,0.7-1.6,0.7c-0.6,0-1.1-0.3-1.7-0.8c-0.5,0.5-1.1,0.8-1.7,0.8
					c-0.6,0-1.1-0.2-1.6-0.7c0.7-1.5,1-3.2,1-5.1c0-2-0.3-3.4-1-4.4c0.7-1,1.1-2.6,1-4.7c-0.3-0.3-0.7-0.4-1.3-0.4
					c-1,0-2.3,0.4-3.9,1.2c-0.4-0.4-0.5-0.8-0.5-1.4c0-0.6,0.2-1.2,0.5-1.9c-0.3-0.3-0.5-0.8-0.5-1.3c0-0.5,0.2-1,0.5-1.5
					c1.1,0.5,2.3,0.8,3.7,0.8c1.3,0,2.5-0.3,3.7-0.8c1.2,0.5,2.4,0.8,3.7,0.8c1.4,0,2.6-0.3,3.7-0.8c0.3,0.5,0.5,0.9,0.5,1.5
					c0,0.6-0.2,1-0.5,1.3C247.9,208.9,248,209.5,248,210.1z"/>
				<path d="M270.4,213.3c0.1,1.1,0.4,1.8,1,2.1c-0.4,0.2-0.7,0.6-0.9,1.2c-0.1,0.3-0.1,0.5-0.1,0.9v2.2c0,0.2,0,0.5,0,0.7
					c0,2.1-1,3.6-2.9,4.5c-0.8,0.4-1.8,0.6-2.9,0.7c-0.3,0-0.6,0-0.8,0c-2.2,0-3.8-0.8-4.7-2.4c-0.4-0.7-0.6-1.4-0.7-2.3
					c0.1-1-0.1-1.8-0.6-2.2c0.3-0.4,0.7-0.5,1.1-0.5c0.4,0,0.8,0.1,1.2,0.4c0.3-0.6,0.9-0.9,1.7-0.9c0.6,0,1,0.1,1.3,0.4
					c-0.5,0.7-0.7,1.4-0.7,2.1c0,0.6,0.2,1,0.5,1.3c0.3,0.3,0.7,0.5,1.2,0.5h0.1c0.8,0,1.4-0.2,1.7-0.7c0.2-0.3,0.4-0.9,0.4-1.8
					v-2.1c-0.1-1.1-0.4-1.8-1-2.1c0.4-0.2,0.7-0.6,0.9-1.2c0.1-0.3,0.1-0.5,0.1-0.9v-2.1c0-1.5-0.2-2.6-0.5-3.3
					c-0.2-0.4-0.7-0.9-1.5-1.8c0.7-0.4,1.4-0.7,1.9-0.7c0.5,0,1.1,0.2,1.8,0.6c0.6-0.5,1.2-0.7,1.8-0.7c0.6,0,1.1,0.2,1.6,0.7
					c-0.6,0.6-1,2.3-1,5V213.3z"/>
				<path d="M281.7,224.7c-0.9,0.4-1.9,0.7-3.1,0.8c-1.2-0.1-2.2-0.3-3.1-0.7c-2.1-1-3.1-2.7-3.1-5.1v-2.3c0-1.1-0.4-1.8-1-2.1
					c0.4-0.2,0.7-0.6,0.9-1.2c0.1-0.3,0.1-0.5,0.1-0.9V211c0-2.1-0.5-3.7-1.3-4.9c0.6-0.5,1.2-0.7,1.9-0.7c0.6,0,1.1,0.2,1.6,0.7
					c0.5-0.4,1.1-0.7,1.7-0.7c0.6,0,1.1,0.2,1.6,0.6c-0.7,1.4-1.1,3.1-1.1,5.1v2.1c0,1.1,0.4,1.8,1,2.1c-0.4,0.2-0.7,0.6-0.9,1.2
					c-0.1,0.3-0.1,0.5-0.1,0.9v2.1c0,0.7,0.2,1.3,0.6,1.8c0.4,0.4,0.9,0.6,1.4,0.6c0.6,0,1-0.2,1.4-0.6c0.4-0.5,0.6-1,0.6-1.8v-2.1
					c0-1.1-0.4-1.8-1-2.1c0.4-0.2,0.7-0.6,0.9-1.2c0.1-0.3,0.1-0.5,0.1-0.9v-2.1c0-2-0.4-3.7-1.1-5.1c0.5-0.4,1-0.6,1.6-0.6
					c0.6,0,1.1,0.2,1.7,0.7c0.4-0.4,0.8-0.7,1.3-0.7c0.6,0,1.2,0.2,1.8,0.7c-0.5,0.8-0.8,1.9-1,3.2c-0.1,0.6-0.1,1.1-0.1,1.7v2.2
					c0,1.1,0.4,1.8,1.1,2.1c-0.4,0.2-0.7,0.6-0.9,1.2c-0.1,0.3-0.1,0.5-0.1,0.9v2.3C284.8,222,283.8,223.7,281.7,224.7z"/>
				<path d="M295,211.1c-0.9-1.8-2-2.7-3.4-2.7c-0.6,0-1.2,0.2-1.6,0.6c-0.4,0.4-0.7,0.9-0.7,1.5c0,0.6,0.2,1.1,0.6,1.6
					c0.6,0.5,1.2,0.7,1.8,0.7c0.4,0,0.7-0.1,1.1-0.2c0.1,0.5,0.6,1.1,1.3,1.6c0.3,0.2,0.7,0.5,1.1,0.7c1.9,1,2.9,2.6,2.9,4.7
					c0,1.6-0.6,2.9-1.7,4c-1.3,1.2-2.9,1.8-5,1.8c-1,0-2.1-0.2-3.3-0.5c-0.2-0.1-0.6-0.2-1.1-0.5c-0.4-0.2-0.7-0.3-1-0.3
					c-0.5,0-1,0.2-1.5,0.6c0-0.2,0-0.4,0-0.6c0-1,0.4-1.7,1.1-2.1c-0.2-0.3-0.3-0.7-0.3-1.1c0-0.6,0.2-1.3,0.5-2
					c0.6,1.1,1.5,1.9,2.5,2.5c0.9,0.5,1.9,0.8,2.9,0.8c0.8,0,1.5-0.2,2-0.5c0.5-0.4,0.8-0.8,0.8-1.4c0-0.6-0.3-1.2-0.9-1.9
					c-0.6-0.5-1.3-0.7-2.1-0.7c-0.4,0-0.8,0.1-1.2,0.2c-0.1-1.2-0.6-1.9-1.5-2.3c-1.8-1-2.7-2.5-2.7-4.4c0-1.5,0.5-2.8,1.6-4
					c1.2-1.2,2.5-1.8,4.2-1.8c1,0,1.9,0.2,2.9,0.7c0.2,0.1,0.4,0.3,0.6,0.4c0.2,0.1,0.4,0.2,0.7,0.2c0.3,0,0.7,0,1.2-0.1
					c0,0.2,0,0.3,0,0.5c0,0.6-0.3,1.2-0.8,1.8C295.9,209.7,295.6,210.4,295,211.1z"/>
				<path d="M312.2,210.1c0,0.6-0.2,1-0.5,1.4c-1.6-0.8-2.8-1.2-3.9-1.2c-0.5,0-0.9,0.1-1.2,0.3c-0.1,2.2,0.3,3.8,1,4.9
					c-0.7,0.9-1,2.4-1,4.4c0,1.9,0.3,3.6,1,5.1c-0.5,0.4-1,0.7-1.6,0.7c-0.6,0-1.1-0.3-1.7-0.8c-0.5,0.5-1.1,0.8-1.7,0.8
					c-0.6,0-1.1-0.2-1.6-0.7c0.7-1.5,1-3.2,1-5.1c0-2-0.3-3.4-1-4.4c0.7-1,1.1-2.6,1-4.7c-0.3-0.3-0.7-0.4-1.3-0.4
					c-1,0-2.3,0.4-3.9,1.2c-0.4-0.4-0.5-0.8-0.5-1.4c0-0.6,0.2-1.2,0.5-1.9c-0.3-0.3-0.5-0.8-0.5-1.3c0-0.5,0.2-1,0.5-1.5
					c1.1,0.5,2.3,0.8,3.7,0.8c1.3,0,2.5-0.3,3.7-0.8c1.2,0.5,2.4,0.8,3.7,0.8c1.4,0,2.6-0.3,3.7-0.8c0.3,0.5,0.5,0.9,0.5,1.5
					c0,0.6-0.2,1-0.5,1.3C312,208.9,312.2,209.5,312.2,210.1z"/>
				<path d="M334.8,225.5c-0.5,0-0.9-0.2-1.1-0.5c0.4-0.9,0.6-1.8,0.6-2.7c0-1.1-0.3-2-0.9-2.7c-0.6-0.7-1.4-1.1-2.3-1.1
					c-0.9,0-1.7,0.4-2.3,1.1c-0.6,0.7-0.9,1.6-0.9,2.7c0,0.9,0.2,1.8,0.6,2.7c-0.1,0.3-0.5,0.5-1.1,0.5c-0.6,0-1.3-0.2-2.1-0.5
					c-0.4,0.3-0.8,0.5-1.4,0.5c-0.7,0-1.4-0.2-2.1-0.6c2.4-2.4,3.6-5.1,3.6-8c0-0.5,0-1-0.1-1.4c2-2.5,3-4.9,3-7.4
					c0-0.9-0.2-1.5-0.5-2c0.5-0.4,1-0.7,1.5-0.7c0.6,0,1.1,0.2,1.6,0.7c0.5-0.5,1-0.7,1.6-0.7c0.6,0,1.1,0.2,1.6,0.7
					c-0.3,0.5-0.5,1.1-0.5,2c0,2.5,1,4.9,3,7.4c-0.1,0.4-0.1,0.8-0.1,1.4c0,2.9,1.2,5.6,3.6,8c-0.8,0.4-1.5,0.6-2.1,0.6
					c-0.6,0-1-0.2-1.4-0.5C336,225.3,335.3,225.5,334.8,225.5z M331.2,212.4c-0.7,1.2-1,2.3-1,3.5c0.4-0.2,0.7-0.3,1-0.3
					c0.3,0,0.6,0.1,1,0.3C332.2,214.7,331.8,213.5,331.2,212.4z"/>
				<path d="M359.3,209.1c-0.1-1.5-0.5-2.5-1-3.1c0.5-0.4,1-0.7,1.6-0.7c0.6,0,1.1,0.2,1.7,0.7c0.5-0.5,1.1-0.7,1.7-0.7
					c0.6,0,1.1,0.2,1.6,0.7c-0.7,1.5-1,3.1-1,5c0,2,0.3,3.4,1,4.3c-0.7,0.9-1,2.4-1,4.3c0,1.9,0.3,3.6,1,5c-0.5,0.4-1,0.7-1.6,0.7
					c-0.6,0-1.1-0.2-1.7-0.7c-0.5,0.5-1.1,0.7-1.7,0.7c-0.6,0-1.1-0.2-1.6-0.7c0.5-0.5,0.9-1.6,1-3.1c0-0.4,0.1-1.4,0.1-3.1
					c0-1-0.4-1.6-1.1-1.9c-0.3-0.1-0.5-0.1-0.7-0.1c-0.2,0-0.4,0-0.7,0.1c-0.7,0.3-1,0.9-1,1.9c0,1.7,0,2.7,0.1,3.1
					c0.1,1.5,0.5,2.5,1,3.1c-0.5,0.4-1,0.7-1.6,0.7c-0.6,0-1.1-0.2-1.7-0.7c-0.5,0.5-1.1,0.7-1.7,0.7c-0.6,0-1.1-0.2-1.6-0.7
					c0.7-1.5,1-3.1,1-5c0-2-0.3-3.4-1-4.3c0.7-0.9,1-2.4,1-4.3c0-1.9-0.3-3.6-1-5c0.5-0.4,1-0.7,1.6-0.7c0.6,0,1.1,0.2,1.7,0.7
					c0.5-0.5,1.1-0.7,1.7-0.7c0.6,0,1.1,0.2,1.6,0.7c-0.5,0.5-0.9,1.6-1,3.1c0,0.4-0.1,1.4-0.1,3.1c0,1,0.3,1.6,1,1.9
					c0.3,0.1,0.5,0.1,0.7,0.1c0.2,0,0.5,0,0.7-0.1c0.7-0.3,1.1-0.9,1.1-1.9C359.3,210.6,359.3,209.5,359.3,209.1z"/>
				<path d="M377.4,225.5c-0.5,0-0.9-0.2-1.1-0.5c0.4-0.9,0.6-1.8,0.6-2.7c0-1.1-0.3-2-0.9-2.7c-0.6-0.7-1.4-1.1-2.3-1.1
					c-0.9,0-1.7,0.4-2.3,1.1c-0.6,0.7-0.9,1.6-0.9,2.7c0,0.9,0.2,1.8,0.6,2.7c-0.1,0.3-0.5,0.5-1.1,0.5c-0.6,0-1.3-0.2-2.1-0.5
					c-0.4,0.3-0.8,0.5-1.4,0.5c-0.7,0-1.4-0.2-2.1-0.6c2.4-2.4,3.6-5.1,3.6-8c0-0.5,0-1-0.1-1.4c2-2.5,3-4.9,3-7.4
					c0-0.9-0.2-1.5-0.5-2c0.5-0.4,1-0.7,1.5-0.7c0.6,0,1.1,0.2,1.6,0.7c0.5-0.5,1-0.7,1.6-0.7c0.6,0,1.1,0.2,1.6,0.7
					c-0.3,0.5-0.5,1.1-0.5,2c0,2.5,1,4.9,3,7.4c-0.1,0.4-0.1,0.8-0.1,1.4c0,2.9,1.2,5.6,3.6,8c-0.8,0.4-1.5,0.6-2.1,0.6
					c-0.6,0-1-0.2-1.4-0.5C378.7,225.3,378,225.5,377.4,225.5z M373.8,212.4c-0.7,1.2-1,2.3-1,3.5c0.4-0.2,0.7-0.3,1-0.3
					s0.6,0.1,1,0.3C374.8,214.7,374.5,213.5,373.8,212.4z"/>
				<path d="M385.6,224.7c-0.5,0.5-1.1,0.7-1.7,0.7c-0.6,0-1.1-0.2-1.6-0.7c0.7-1.5,1-3.1,1-5c0-2-0.3-3.4-1-4.3
					c0.7-0.9,1-2.4,1-4.3c0-1.9-0.3-3.6-1-5c0.5-0.4,1-0.7,1.6-0.7c0.6,0,1.1,0.2,1.7,0.7c0.5-0.5,1.1-0.7,1.7-0.7
					c0.6,0,1.1,0.2,1.6,0.7c-0.7,1.5-1,3.1-1,5c0,2,0.3,3.4,1,4.3c-0.7,0.9-1,2.4-1,4.3c0,1.9,0.3,3.6,1,5c-0.5,0.4-1,0.7-1.6,0.7
					C386.7,225.5,386.2,225.2,385.6,224.7z"/>
				<path d="M402.1,225.5c-1.4,0-2.7-0.5-4-1.6c0.5-0.7,0.8-1.4,0.8-2c0-0.7-0.4-1.6-1.2-2.7c0.3-0.4,0.4-0.7,0.4-1.1
					c0-0.5-0.2-1-0.7-1.4c-0.4-0.4-0.9-0.6-1.5-0.6c-0.6,0-1,0.2-1.3,0.7c-0.4,0.5-0.6,1.3-0.6,2.3c0,2.6,0.5,4.4,1.5,5.4
					c-0.5,0.4-1,0.6-1.6,0.6c-0.6,0-1.2-0.2-1.8-0.7c-0.6,0.5-1.2,0.7-1.8,0.7c-0.6,0-1.1-0.2-1.6-0.6c0.7-1.5,1-3.1,1-5
					c0-1.9-0.3-3.4-1-4.3c0.7-0.9,1-2.3,1-4.3c0-1.9-0.3-3.5-1-4.9c0.5-0.4,1-0.7,1.6-0.7c0.6,0,1.2,0.2,1.8,0.7
					c1.1-0.6,2.4-0.8,3.8-0.8c1.6,0,3,0.3,4.2,1c1.2,0.7,1.8,1.6,1.8,2.7c0,1.1,0.3,1.7,1,2.1c-0.4,0.2-0.7,0.6-0.9,1.2
					c-0.1,0.3-0.1,0.5-0.1,0.8c-0.1,1-0.7,1.7-1.8,2.2c0.7,0.3,1.2,0.7,1.5,1.3c0.1,0.2,0.2,0.5,0.2,0.7c0,0.8,0.3,1.3,1,1.6
					c0,0,0.1,0.4,0.2,1.1c0.1,0.9,0.3,1.7,0.5,2.3c0.4,1,0.8,1.8,1.5,2.5C403.9,225.2,403,225.5,402.1,225.5z M397.8,210.3
					c0-0.4-0.2-0.7-0.5-1c-0.3-0.3-0.7-0.4-1.2-0.4c-0.6,0-1,0.2-1.4,0.6c-0.4,0.5-0.7,1.2-0.7,2.1s0.2,1.6,0.7,2
					c0.4,0.4,0.8,0.6,1.4,0.6c0.5,0,0.8-0.1,1.2-0.4c0.3-0.3,0.5-0.6,0.5-1c0-0.4-0.2-0.8-0.6-1.3
					C397.6,211.2,397.8,210.8,397.8,210.3z"/>
				<path d="M412.1,217.7c0.8,0,1.4,0.3,1.7,0.9c0.4-0.3,0.8-0.4,1.2-0.4c0.4,0,0.8,0.2,1.1,0.5c-0.5,0.4-0.7,1.1-0.6,2.2
					c-0.1,0.9-0.3,1.7-0.7,2.3c-0.9,1.6-2.4,2.3-4.6,2.3c-0.3,0-0.5,0-0.8,0c-1.1-0.1-2.1-0.3-2.9-0.7c-1.9-0.8-2.9-2.3-2.9-4.4
					c0-0.2,0-0.5,0-0.7v-2.2c0-1.1-0.4-1.7-1-2c0.4-0.2,0.7-0.6,0.9-1.2c0.1-0.3,0.1-0.5,0.1-0.8v-2.2c0-2.4,1-4.1,2.9-5.1
					c0.8-0.4,1.8-0.6,2.9-0.7c0.3,0,0.6,0,0.8,0c2.2,0,3.7,0.8,4.6,2.3c0.4,0.6,0.6,1.4,0.7,2.3c-0.1,1,0.1,1.7,0.6,2.2
					c-0.3,0.3-0.7,0.5-1.1,0.5c-0.4,0-0.8-0.1-1.2-0.4c-0.3,0.6-0.8,0.9-1.7,0.9c-0.6,0-1-0.1-1.3-0.4c0.5-0.7,0.7-1.4,0.7-2.1
					c0-0.6-0.2-1-0.5-1.3c-0.3-0.3-0.7-0.5-1.2-0.5h-0.1c-0.8,0-1.4,0.2-1.7,0.7c-0.2,0.3-0.4,0.9-0.4,1.8v2.1c0,1.1,0.4,1.7,1,2
					c-0.4,0.2-0.7,0.6-0.9,1.2c-0.1,0.3-0.1,0.5-0.1,0.8v2.1c0,0.8,0.1,1.4,0.4,1.8c0.3,0.5,0.8,0.7,1.7,0.7h0.1
					c0.5,0,0.9-0.2,1.2-0.5c0.3-0.3,0.5-0.8,0.5-1.3c0-0.7-0.2-1.3-0.7-2.1C411,217.8,411.4,217.7,412.1,217.7z"/>
				<path d="M425.3,224.7c-0.9,0.4-1.9,0.7-3.1,0.8c-1.2-0.1-2.2-0.3-3.1-0.7c-2.1-1-3.1-2.7-3.1-5.1v-2.3c-0.1-1.1-0.4-1.8-1-2.1
					c0.4-0.2,0.7-0.6,0.9-1.2c0.1-0.3,0.1-0.5,0.1-0.9V211c-0.1-2.1-0.5-3.7-1.3-4.9c0.6-0.5,1.2-0.7,1.9-0.7c0.6,0,1.1,0.2,1.6,0.7
					c0.5-0.4,1.1-0.7,1.7-0.7c0.6,0,1.1,0.2,1.6,0.6c-0.7,1.4-1.1,3.1-1.1,5.1v2.1c0,1.1,0.4,1.8,1,2.1c-0.4,0.2-0.7,0.6-0.9,1.2
					c-0.1,0.3-0.1,0.5-0.1,0.9v2.1c0,0.7,0.2,1.3,0.6,1.8c0.4,0.4,0.9,0.6,1.4,0.6c0.6,0,1-0.2,1.4-0.6c0.4-0.5,0.6-1,0.6-1.8v-2.1
					c-0.1-1.1-0.4-1.8-1-2.1c0.4-0.2,0.7-0.6,0.9-1.2c0.1-0.3,0.1-0.5,0.1-0.9v-2.1c0-2-0.4-3.7-1.1-5.1c0.5-0.4,1-0.6,1.6-0.6
					c0.6,0,1.1,0.2,1.7,0.7c0.4-0.4,0.8-0.7,1.3-0.7c0.6,0,1.2,0.2,1.8,0.7c-0.5,0.8-0.8,1.9-1,3.2c-0.1,0.6-0.1,1.1-0.2,1.7v2.2
					c0.1,1.1,0.4,1.8,1.1,2.1c-0.4,0.2-0.7,0.6-0.9,1.2c-0.1,0.3-0.1,0.5-0.2,0.9v2.3C428.4,222,427.4,223.7,425.3,224.7z"/>
				<path d="M445.1,210.1c0,0.6-0.2,1-0.5,1.4c-1.6-0.8-2.8-1.2-3.9-1.2c-0.5,0-0.9,0.1-1.2,0.3c-0.1,2.2,0.3,3.8,1,4.9
					c-0.7,0.9-1,2.4-1,4.4c0,1.9,0.3,3.6,1,5.1c-0.5,0.4-1,0.7-1.6,0.7c-0.6,0-1.1-0.3-1.7-0.8c-0.5,0.5-1.1,0.8-1.7,0.8
					c-0.6,0-1.1-0.2-1.6-0.7c0.7-1.5,1-3.2,1-5.1c0-2-0.3-3.4-1-4.4c0.7-1,1.1-2.6,1-4.7c-0.3-0.3-0.7-0.4-1.3-0.4
					c-1,0-2.3,0.4-3.9,1.2c-0.4-0.4-0.5-0.8-0.5-1.4c0-0.6,0.2-1.2,0.5-1.9c-0.3-0.3-0.5-0.8-0.5-1.3c0-0.5,0.2-1,0.5-1.5
					c1.1,0.5,2.3,0.8,3.7,0.8c1.3,0,2.5-0.3,3.7-0.8c1.2,0.5,2.4,0.8,3.7,0.8c1.4,0,2.6-0.3,3.7-0.8c0.3,0.5,0.5,0.9,0.5,1.5
					c0,0.6-0.2,1-0.5,1.3C445,208.9,445.1,209.5,445.1,210.1z"/>
			</g>
		</g>
	</g>
</g>
</svg>
