<?xml version="1.0" encoding="utf-8"?>
<!-- Generator: Adobe Illustrator 18.1.1, SVG Export Plug-In . SVG Version: 6.00 Build 0)  -->
<!DOCTYPE svg PUBLIC "-//W3C//DTD SVG 1.1//EN" "http://www.w3.org/Graphics/SVG/1.1/DTD/svg11.dtd">
<svg version="1.1" id="Layer_1" xmlns="http://www.w3.org/2000/svg" xmlns:xlink="http://www.w3.org/1999/xlink" x="0px" y="0px"
	 viewBox="0 0 756 453.6" enable-background="new 0 0 756 453.6" xml:space="preserve">
<g>
	<g>
		<path fill-rule="evenodd" clip-rule="evenodd" fill="#0D0D0D" d="M605.5,235.4c0.1-0.5,0.3-1,0.4-1.5c-2.8-5.3-9.4-6-14.1-7.1
			c-33.2-8.3-67.7,9.8-106.2-4.7c2.8-7.9,8.5-10.4,12.5-16.2c3.8,0.4,2.5,3.7,7.1,3.6c19.3-13.6,37.1-30.2,54.7-47.1
			c0.3-5.7-6.9-7-9.9-10.9c-0.5-0.1-1-0.3-1.5-0.4c-0.3,1.8-0.6,2.6-1.1,2.8l0,0l-0.7,0.1c-0.9-0.2-2.1-0.9-4,0.4
			c-3.4,2.5-10,8.3-11.6,11l-33.9,32c0,0-20.7,20.4-34.1,24.9c-1.3,5,2.7,7-0.4,13c-2.9,2.3-8,0.7-11.7,1.7c-0.3,1-0.6,2-0.8,3
			c-0.4,2.3,3.2,2.4,5.5,3.2c5.7-1.8,11.3-3.9,15.3-8.9C511.2,245.9,581.8,258.3,605.5,235.4z M502.1,204.2c-0.4-1.2,0.2-2.6,1.4-3
			c1.2-0.4,2.6,0.2,3,1.4c0.4,1.2-0.2,2.6-1.4,3C503.9,206.1,502.5,205.5,502.1,204.2z"/>
		<path fill-rule="evenodd" clip-rule="evenodd" fill="#0D0D0D" d="M282.1,233.3c4.2,5.4,10.3,7.6,16.4,9.5c2.5-0.8,6.3-0.9,6-3.4
			c-0.3-1.1-0.6-2.2-0.9-3.3c-4-1-9.4,0.7-12.6-1.8c-3.2-6.5,1-8.6-0.4-14c-14.5-4.9-36.7-26.8-36.7-26.8l-36.5-34.4
			c-1.7-2.8-8.8-9.2-12.5-11.8c-2-1.4-3.3-0.6-4.3-0.4l-0.8-0.1l0,0c-0.4-0.3-0.8-1.1-1.1-3c-0.5,0.1-1.1,0.3-1.6,0.4
			c-3.2,4.1-10.9,5.6-10.6,11.7c18.9,18.2,38,35.9,58.8,50.6c4.9,0.1,3.5-3.5,7.6-3.8c4.3,6.2,10.4,8.9,13.4,17.4
			c-41.5,15.6-78.5-3.9-114.3,5.1c-5,1.3-12.2,2-15.2,7.7c0.2,0.6,0.3,1.1,0.5,1.6C162.9,259.1,238.8,245.8,282.1,233.3z
			 M245.4,202.4c-1.3-0.5-2-1.9-1.5-3.2c0.5-1.3,1.9-2,3.2-1.5c1.3,0.5,2,1.9,1.5,3.2C248.1,202.2,246.7,202.9,245.4,202.4z"/>
	</g>
	<g>
		<g>
			<path fill="#FFFFFF" d="M378,0c-69.6,0-126.2,56.6-126.2,126.2S308.4,252.3,378,252.3s126.2-56.6,126.2-126.2S447.6,0,378,0z
				 M378,248c-67.3,0-121.9-54.6-121.9-121.9C256.1,58.8,310.7,4.3,378,4.3s121.9,54.6,121.9,121.9C499.9,193.5,445.3,248,378,248z"
				/>
		</g>
		<path d="M378,222.2c-53,0-96-43.1-96-96c0-53,43.1-96,96-96s96,43.1,96,96C474,179.1,430.9,222.2,378,222.2z"/>
	</g>
	<path d="M378,4.3c-67.3,0-121.9,54.6-121.9,121.9c0,67.3,54.6,121.9,121.9,121.9s121.9-54.6,121.9-121.9
		C499.9,58.8,445.3,4.3,378,4.3z M378,235.1c-60.1,0-109-48.9-109-109c0-60.1,48.9-109,109-109s109,48.9,109,109
		C487,186.2,438.1,235.1,378,235.1z"/>
	<g id="logo_1_">
		<circle fill="#FFFFFF" cx="378" cy="125.5" r="101.4"/>
		<circle cx="378" cy="125.5" r="95.8"/>
		<circle fill="#FFFFFF" cx="378" cy="125.5" r="68.9"/>
		<circle cx="378" cy="125.5" r="63.9"/>
		<g>
			<path fill="#FFFFFF" d="M312.5,82.7c0,0.4,0.2,0.8,0.6,1.2c0.2,0.2,0.4,0.3,0.6,0.5l0.2,0.1c0.8,0.6,1.2,1.5,1.3,2.7
				c0,1.1-0.3,2.3-0.9,3.4c-0.6,1.1-1.4,2-2.4,2.6c0.1,0.7,0.1,1.2-0.2,1.7c-0.3,0.5-0.7,0.8-1.2,1c-0.8-1.1-2-2.1-3.4-2.9
				c-1.5-0.8-2.7-1.2-3.7-1.1c-0.4-0.9-1.4-1.8-2.9-2.6c-1.4-0.8-2.8-1.2-4.2-1.3c-0.1-0.5-0.1-1.1,0.2-1.5c0.3-0.5,0.7-0.8,1.3-1.1
				c0.1-1.1,0.4-2.2,1-3.3c0.7-1.2,1.5-2.2,2.6-2.8c1-0.6,2-0.7,2.8-0.3c0.8,0.4,1.5,0.5,2,0.2c0,0.4,0.2,0.8,0.6,1.2
				c0.2,0.2,0.4,0.3,0.6,0.4c0.7,0.5,1,1.2,0.9,2.3c0.6-0.4,1.1-0.7,1.6-0.7c0.2,0,0.4,0,0.6,0.1C311.3,83,312,83,312.5,82.7z
				 M303.4,82.8c-0.3-0.2-0.6-0.2-1,0c-0.3,0.2-0.6,0.4-0.8,0.7c-0.2,0.4-0.3,0.9-0.1,1.3c0.2,0.5,0.6,1,1.3,1.4
				c0.7,0.4,1.3,0.5,1.9,0.4c0.5-0.1,0.8-0.4,1.1-0.8c0.2-0.3,0.3-0.7,0.2-1.1c-0.1-0.4-0.2-0.6-0.5-0.8c-0.3-0.2-0.7-0.2-1.2-0.1
				C303.9,83.3,303.7,83,303.4,82.8z M310.7,90c0.5-0.1,0.9-0.4,1.2-0.8c0.2-0.4,0.3-0.7,0.2-1.1c-0.1-0.4-0.3-0.7-0.7-0.9
				c-0.4-0.2-0.8-0.3-1.4-0.1c-0.2-0.5-0.5-0.9-0.8-1.1c-0.4-0.2-0.7-0.2-1.1-0.1c-0.4,0.1-0.7,0.4-0.9,0.7
				c-0.2,0.4-0.3,0.9-0.1,1.4c0.2,0.6,0.7,1.1,1.5,1.5C309.4,89.9,310.1,90.1,310.7,90z"/>
			<path fill="#FFFFFF" d="M325.1,75.6c-0.3,0.4-0.6,0.5-0.9,0.4c-0.4-0.8-0.8-1.4-1.4-1.9c-0.7-0.6-1.5-0.9-2.3-1
				c-0.8,0-1.5,0.3-2,0.9c-0.5,0.6-0.8,1.3-0.6,2.1c0.1,0.8,0.5,1.5,1.3,2.1c0.6,0.5,1.3,0.9,2.1,1.1c0.1,0.3,0,0.6-0.3,1
				c-0.3,0.4-0.8,0.7-1.5,1.1c0,0.4-0.1,0.8-0.5,1.2c-0.4,0.4-0.9,0.8-1.6,1c-0.2-3-1.3-5.3-3.2-7c-0.4-0.3-0.7-0.5-1-0.7
				c-0.5-2.8-1.5-4.8-3.1-6.3c-0.6-0.5-1.1-0.8-1.6-0.8c0-0.6,0.1-1,0.5-1.4c0.3-0.4,0.8-0.6,1.4-0.6c0-0.6,0.1-1.1,0.4-1.4
				c0.3-0.4,0.8-0.6,1.3-0.6c0.1,0.5,0.5,0.9,1,1.4c1.6,1.4,3.8,2.2,6.6,2.3c0.2,0.3,0.5,0.6,0.8,0.9c1.9,1.7,4.4,2.4,7.4,2.3
				c-0.2,0.7-0.4,1.3-0.8,1.7c-0.3,0.4-0.7,0.6-1.1,0.6C325.7,74.7,325.4,75.3,325.1,75.6z M314.4,70.5c0.4,1.1,0.9,2,1.7,2.7
				c0.1-0.4,0.2-0.6,0.4-0.8c0.2-0.2,0.4-0.3,0.8-0.5C316.5,71.1,315.5,70.7,314.4,70.5z"/>
			<path fill="#FFFFFF" d="M340.1,63.4c-1,0.7-2.2,1-3.7,0.8c0-0.8-0.1-1.4-0.4-1.8c-0.4-0.5-1.1-1-2.2-1.3c0-0.4-0.1-0.7-0.3-1
				c-0.3-0.4-0.6-0.6-1.1-0.7c-0.5-0.1-0.9,0-1.3,0.3c-0.4,0.3-0.6,0.7-0.6,1.1c0,0.6,0.2,1.2,0.7,2c1.3,1.9,2.5,2.9,3.8,3.1
				c-0.1,0.5-0.4,0.9-0.8,1.2c-0.4,0.3-1,0.4-1.6,0.4c-0.2,0.6-0.5,1.1-0.9,1.4c-0.4,0.3-0.9,0.4-1.5,0.3c-0.2-1.4-0.8-2.7-1.7-4.1
				c-1-1.4-1.9-2.3-2.8-2.6c0-1-0.4-2.2-1.4-3.6c-0.9-1.3-2-2.4-3.2-3.1c0.1-0.5,0.4-1,0.8-1.3c0.4-0.3,1-0.4,1.7-0.4
				c0.5-1,1.3-1.8,2.3-2.5c1.2-0.8,2.3-1.2,3.5-1.3c1.2-0.1,2.1,0.3,2.7,1c0.5,0.8,1.1,1.1,1.7,1c-0.2,0.4-0.2,0.8,0,1.3
				c0.1,0.2,0.2,0.4,0.3,0.7c0.4,0.7,0.3,1.6-0.2,2.5c0.7-0.1,1.2-0.1,1.7,0.2c0.2,0.1,0.4,0.3,0.5,0.4c0.4,0.6,0.9,0.8,1.5,0.6
				c0,0,0.3,0.2,0.7,0.7c0.5,0.6,1,1.1,1.5,1.4c0.8,0.5,1.5,0.9,2.3,1.1C341.3,62.3,340.8,62.9,340.1,63.4z M329.5,54.6
				c-0.2-0.3-0.5-0.4-0.8-0.5c-0.4,0-0.7,0.1-1,0.3c-0.4,0.3-0.6,0.7-0.7,1.1c-0.1,0.6,0.1,1.2,0.6,1.8c0.4,0.6,0.9,1,1.5,1.1
				c0.5,0.1,0.9,0,1.3-0.3c0.3-0.2,0.5-0.5,0.7-0.9c0.1-0.4,0.1-0.7-0.1-1c-0.2-0.3-0.6-0.5-1.1-0.6
				C329.8,55.3,329.7,54.9,329.5,54.6z"/>
			<path fill="#FFFFFF" d="M354.5,50.8c-0.3,0.3-0.4,0.7-0.3,1.3c0,0.2,0.1,0.5,0.2,0.7l0.1,0.3c0.2,1,0,2-0.7,2.9
				c-0.7,0.9-1.6,1.6-2.9,2.1c-1.1,0.5-2.3,0.6-3.5,0.5c-0.3,0.6-0.7,1-1.2,1.2c-0.5,0.2-1,0.2-1.5,0c0.1-1.4-0.2-2.9-0.8-4.4
				c-0.6-1.6-1.4-2.6-2.2-3.2c0.2-1,0.1-2.2-0.6-3.8c-0.6-1.5-1.4-2.7-2.4-3.7c0.2-0.5,0.6-0.9,1.1-1.1c0.5-0.2,1.1-0.2,1.7,0
				c0.8-0.8,1.7-1.5,2.9-1.9c1.3-0.5,2.6-0.7,3.8-0.5c1.2,0.2,2,0.7,2.3,1.6c0.4,0.9,0.8,1.3,1.4,1.4c-0.3,0.3-0.4,0.7-0.3,1.3
				c0,0.2,0.1,0.5,0.2,0.7c0.2,0.8,0,1.6-0.8,2.4c0.7,0,1.3,0.2,1.7,0.5c0.2,0.1,0.3,0.3,0.4,0.4C353.4,50.3,353.9,50.8,354.5,50.8z
				 M347.4,45.2c-0.1-0.3-0.4-0.5-0.7-0.6c-0.4-0.1-0.7-0.1-1.1,0.1c-0.4,0.2-0.8,0.5-0.9,0.9c-0.2,0.5-0.2,1.1,0.1,1.9
				c0.3,0.7,0.7,1.2,1.2,1.5c0.4,0.2,0.9,0.2,1.3,0c0.4-0.1,0.6-0.4,0.8-0.7c0.2-0.3,0.2-0.6,0.1-1c-0.1-0.3-0.4-0.6-0.9-0.8
				C347.5,46,347.5,45.5,347.4,45.2z M348.5,55.4c0.5,0.3,0.9,0.3,1.4,0.1c0.4-0.2,0.7-0.4,0.8-0.8c0.2-0.4,0.2-0.7,0.1-1.1
				c-0.2-0.4-0.5-0.7-1-1c0.2-0.5,0.2-1,0-1.4c-0.2-0.4-0.4-0.6-0.8-0.8c-0.4-0.1-0.8-0.1-1.1,0c-0.5,0.2-0.8,0.5-1,1
				c-0.2,0.6-0.1,1.3,0.2,2.1C347.5,54.5,348,55.1,348.5,55.4z"/>
			<path fill="#FFFFFF" d="M364.5,46c-0.5,0.1-0.9,0.3-1.2,0.7c-0.3,0.4-0.4,0.9-0.3,1.5l0.2,1.2c0.2,1.1,0.9,1.6,2,1.4
				c0.6-0.1,1.1-0.4,1.7-0.8c0.5-0.4,0.8-0.8,0.9-1.3c0.7,0.3,1.1,0.9,1.2,1.7c0.1,0.4,0.1,0.8,0,1.1c0.3,0.1,0.5,0.5,0.6,1.3
				c-0.4-0.1-0.9-0.2-1.5,0c-0.4,0.1-0.8,0.2-1.1,0.3c-0.4,0.2-0.7,0.3-1.1,0.5c-0.4,0.2-0.8,0.3-1.2,0.4c-0.7,0.1-1.5,0-2.4-0.3
				c-0.4,0.5-0.9,0.8-1.4,0.9c-0.5,0.1-1,0-1.5-0.3c0.4-1.4,0.4-2.8,0.1-4.5c-0.3-1.7-0.8-2.9-1.5-3.6c0.5-0.9,0.5-2.2,0.2-3.9
				c-0.3-1.6-0.8-3-1.6-4.1c0.4-0.4,0.8-0.7,1.3-0.8c0.5-0.1,1.1,0,1.7,0.4c0.7-0.6,1.4-1,2.2-1.1c0.4-0.1,0.8-0.1,1.3,0
				c0.4,0,0.8,0.1,1.2,0.1c0.4,0,0.8,0,1.2-0.1c0.6-0.1,1.1-0.3,1.4-0.6c0.2,0.8,0.2,1.2-0.1,1.4c0.2,0.3,0.3,0.7,0.4,1.1
				c0.1,0.8-0.1,1.4-0.6,2c-0.2-0.4-0.6-0.7-1.3-0.9c-0.6-0.2-1.2-0.3-1.8-0.2c-1.2,0.2-1.6,0.9-1.4,2l0.2,1.2
				c0.1,0.6,0.4,1,0.8,1.3c0.4,0.3,0.9,0.3,1.4,0.3c0.9-0.2,1.6-0.6,2.2-1.5c0.1,0.2,0.2,0.4,0.2,0.6c0.1,0.5,0,0.9-0.3,1.3
				c0.4,0.3,0.7,0.7,0.8,1.2c0,0.2,0,0.5,0,0.7C366.2,46.1,365.4,45.9,364.5,46z"/>
			<path fill="#FFFFFF" d="M384.7,53c-1.2,0-2.4-0.6-3.4-1.5c0.5-0.6,0.7-1.2,0.7-1.7c0-0.6-0.3-1.4-0.9-2.4
				c0.2-0.3,0.4-0.6,0.4-0.9c0-0.5-0.2-0.9-0.5-1.2c-0.4-0.4-0.8-0.5-1.3-0.6c-0.5,0-0.9,0.2-1.2,0.6c-0.4,0.4-0.6,1.1-0.6,2
				c-0.1,2.3,0.3,3.8,1.1,4.8c-0.4,0.4-0.9,0.5-1.4,0.5c-0.5,0-1.1-0.3-1.5-0.7c-0.5,0.4-1.1,0.6-1.6,0.6c-0.5,0-1-0.2-1.4-0.6
				c0.6-1.3,1-2.7,1-4.3c0.1-1.7-0.2-3-0.7-3.8c0.6-0.8,1-2,1-3.7c0.1-1.6-0.2-3.1-0.7-4.4c0.4-0.4,0.9-0.5,1.4-0.5
				c0.5,0,1.1,0.3,1.6,0.7c1-0.4,2.1-0.6,3.4-0.6c1.4,0.1,2.6,0.4,3.6,1c1,0.7,1.5,1.5,1.5,2.4c0,0.9,0.2,1.5,0.8,1.8
				c-0.4,0.2-0.6,0.5-0.8,1c-0.1,0.2-0.1,0.5-0.1,0.7c-0.1,0.8-0.7,1.5-1.6,1.9c0.6,0.3,1,0.7,1.3,1.1c0.1,0.2,0.1,0.4,0.2,0.6
				c-0.1,0.7,0.2,1.1,0.8,1.4c0,0,0.1,0.3,0.1,0.9c0.1,0.8,0.2,1.5,0.3,2.1c0.3,0.9,0.7,1.6,1.2,2.2C386.3,52.9,385.5,53.1,384.7,53
				z M381.4,39.6c0-0.3-0.1-0.6-0.4-0.9c-0.3-0.2-0.6-0.4-1-0.4c-0.5,0-0.9,0.1-1.2,0.5c-0.4,0.4-0.6,1-0.6,1.8
				c0,0.8,0.1,1.4,0.5,1.8c0.3,0.4,0.7,0.6,1.2,0.6c0.4,0,0.7-0.1,1-0.3c0.3-0.2,0.5-0.5,0.5-0.9c0-0.4-0.1-0.7-0.5-1.1
				C381.2,40.4,381.4,40,381.4,39.6z"/>
			<path fill="#FFFFFF" d="M416.7,49.5c-0.1-1.8-0.6-2.9-1.7-3.4c-0.5-0.2-1-0.3-1.5-0.1c-0.5,0.2-0.9,0.5-1.1,0.9
				c-0.2,0.4-0.2,0.9-0.1,1.5c0.3,0.6,0.7,1,1.2,1.2c0.3,0.1,0.6,0.2,0.9,0.2c-0.1,0.5,0,1,0.4,1.8c0.2,0.3,0.3,0.6,0.6,0.9
				c1.1,1.5,1.3,3.1,0.5,4.8c-0.6,1.2-1.5,2.1-2.8,2.5c-1.4,0.5-3,0.3-4.6-0.4c-0.8-0.4-1.6-0.9-2.4-1.6c-0.2-0.1-0.4-0.4-0.7-0.8
				c-0.2-0.3-0.5-0.5-0.7-0.6c-0.4-0.2-0.8-0.2-1.4-0.1c0-0.2,0.1-0.3,0.2-0.5c0.4-0.8,0.9-1.2,1.6-1.3c-0.1-0.3,0-0.6,0.2-1
				c0.2-0.5,0.6-0.9,1.1-1.4c0.1,1.1,0.4,2.1,1.1,2.9c0.5,0.8,1.2,1.3,2,1.7c0.6,0.3,1.3,0.4,1.8,0.3c0.6-0.1,1-0.3,1.2-0.8
				c0.2-0.5,0.2-1.1,0-1.9c-0.3-0.6-0.7-1.1-1.4-1.4c-0.3-0.2-0.7-0.3-1-0.3c0.4-1,0.3-1.8-0.3-2.3c-1-1.5-1.2-3-0.5-4.5
				c0.6-1.2,1.5-2.1,2.8-2.6c1.4-0.5,2.7-0.5,4,0.1c0.8,0.4,1.4,0.9,2,1.6c0.1,0.2,0.2,0.4,0.4,0.5c0.1,0.2,0.3,0.3,0.5,0.4
				c0.2,0.1,0.5,0.2,1,0.4c0,0.1-0.1,0.3-0.1,0.4c-0.2,0.5-0.7,0.9-1.3,1.1C417.9,48.7,417.4,49.2,416.7,49.5z"/>
			<path fill="#FFFFFF" d="M431.4,56.8c0.7-1.1,1-2,0.9-2.7c0.6-0.1,1,0.1,1.4,0.4c0.4,0.3,0.7,0.8,0.8,1.4c0.6-0.1,1.1,0.1,1.5,0.4
				c0.4,0.3,0.7,0.7,0.8,1.3c-1.3,0.7-2.4,1.6-3.4,3c-1,1.4-1.6,2.6-1.6,3.6c-1,0.3-2,1.1-3,2.5c-1,1.3-1.7,2.7-2,4.1
				c-0.6,0-1.1-0.1-1.5-0.4c-0.4-0.3-0.6-0.8-0.8-1.4c-0.6,0.1-1.1-0.1-1.5-0.4c-0.4-0.3-0.7-0.7-0.8-1.3c0.7-0.1,1.4-0.6,2.3-1.6
				c0.2-0.3,0.8-1,1.7-2.2c0.5-0.7,0.6-1.3,0.3-1.9c-0.2-0.2-0.3-0.3-0.5-0.5c-0.1-0.1-0.3-0.2-0.6-0.3c-0.6-0.2-1.2,0.1-1.7,0.8
				c-0.9,1.2-1.4,1.9-1.6,2.2c-0.7,1.1-1,2-0.9,2.7c-0.6,0-1.1-0.1-1.4-0.4c-0.4-0.3-0.7-0.8-0.8-1.4c-0.6,0.1-1.1-0.1-1.5-0.4
				c-0.4-0.3-0.6-0.7-0.8-1.3c1.3-0.7,2.4-1.6,3.4-3c1-1.4,1.6-2.6,1.6-3.6c1-0.3,2-1.1,3-2.5c1-1.3,1.7-2.7,2-4.1
				c0.6,0,1.1,0.1,1.4,0.4c0.4,0.3,0.7,0.8,0.8,1.4c0.6-0.1,1.1,0.1,1.6,0.4c0.4,0.3,0.6,0.7,0.8,1.3c-0.7,0.1-1.4,0.6-2.3,1.6
				c-0.2,0.3-0.8,1-1.7,2.2c-0.5,0.7-0.6,1.3-0.3,1.9c0.2,0.2,0.3,0.4,0.5,0.5c0.2,0.1,0.3,0.2,0.6,0.3c0.6,0.2,1.2-0.1,1.7-0.7
				C430.7,57.9,431.2,57.1,431.4,56.8z"/>
			<path fill="#FFFFFF" d="M435.4,79.8c-0.8-0.3-1.5-0.9-2.2-1.6c-0.6-0.8-1-1.6-1.3-2.4c-0.5-1.9,0-3.5,1.7-4.9l1.5-1.3
				c0.7-0.6,0.9-1.2,0.8-1.8c0.4,0.2,0.8,0.1,1.3-0.1c0.2-0.1,0.4-0.2,0.6-0.4l1.5-1.2c1.6-1.3,3.3-1.6,5.1-0.8
				c0.7,0.3,1.5,0.9,2.2,1.6c0.6,0.9,1,1.7,1.2,2.5c0.5,1.9-0.1,3.5-1.6,4.9l-1.5,1.2c-0.7,0.6-0.9,1.2-0.8,1.8
				c-0.4-0.2-0.8-0.1-1.3,0.1c-0.2,0.1-0.4,0.2-0.6,0.4l-1.5,1.3C438.9,80.3,437.2,80.6,435.4,79.8z M439.8,75.1
				c0.7-0.6,0.9-1.2,0.8-1.8c0.4,0.2,0.8,0.2,1.3-0.1c0.2-0.1,0.4-0.2,0.6-0.4l1.4-1.2c0.5-0.4,0.8-0.9,0.8-1.4
				c0.1-0.5-0.1-0.9-0.4-1.3c-0.3-0.4-0.7-0.6-1.2-0.6c-0.5,0-1,0.2-1.5,0.6l-1.4,1.2c-0.7,0.6-0.9,1.2-0.8,1.8
				c-0.4-0.2-0.8-0.2-1.3,0.1c-0.2,0.1-0.4,0.2-0.6,0.4l-1.4,1.2c-0.5,0.4-0.8,0.9-0.8,1.4c0,0.5,0.1,0.9,0.4,1.3
				c0.3,0.4,0.7,0.6,1.2,0.6c0.5,0,1-0.2,1.5-0.6L439.8,75.1z"/>
			<path fill="#FFFFFF" d="M439.8,86.9c-0.2-0.5-0.3-1-0.2-1.5c1.4-0.1,2.8-0.5,4.3-1.3c1.5-0.8,2.5-1.7,2.9-2.6
				c1,0.2,2.2-0.2,3.8-1c1.4-0.8,2.6-1.7,3.5-2.9c0.5,0.2,0.9,0.5,1.2,1c0.3,0.5,0.3,1,0.2,1.7c0.9,0.7,1.6,1.5,2.2,2.6
				c0.7,1.3,1,2.5,0.9,3.7c0,1.2-0.5,2.1-1.3,2.5c-0.8,0.5-1.2,1-1.2,1.6c-0.3-0.2-0.8-0.3-1.3-0.2c-0.2,0.1-0.5,0.1-0.7,0.3
				c-1.4,0.7-2.5,0.7-3.3-0.1c-0.7-0.4-1.4-1.2-2-2.3c-0.6-1-1.2-1.6-1.8-1.6c-0.3,0-0.8,0.2-1.5,0.6c-1.5,0.8-2.5,1.8-3,3
				c-0.5-0.2-0.9-0.5-1.2-1c-0.2-0.5-0.3-1-0.2-1.6C440.5,87.7,440.1,87.4,439.8,86.9z M454.6,86.5c0.3-0.2,0.5-0.4,0.6-0.8
				c0.1-0.4,0-0.7-0.2-1.1c-0.2-0.4-0.6-0.7-1-0.8c-0.6-0.1-1.2,0-1.9,0.3c-0.7,0.4-1.1,0.8-1.3,1.4c-0.2,0.4-0.1,0.9,0.1,1.3
				c0.2,0.3,0.4,0.6,0.8,0.8c0.3,0.2,0.7,0.2,1,0c0.3-0.2,0.6-0.5,0.7-1C453.8,86.7,454.2,86.7,454.6,86.5z"/>
		</g>
		<g>
			<path fill="#FFFFFF" d="M312.2,188.6c-0.3-0.3-0.4-0.7-0.3-1c0.8-0.3,1.5-0.6,2.1-1.2c0.7-0.6,1.1-1.4,1.2-2.2
				c0.1-0.8-0.1-1.5-0.7-2.1c-0.6-0.6-1.2-0.9-2-0.9c-0.8,0-1.6,0.4-2.3,1c-0.6,0.5-1,1.2-1.4,2c-0.3,0.1-0.6,0-0.9-0.4
				c-0.3-0.4-0.6-0.9-0.9-1.6c-0.4,0-0.8-0.2-1.1-0.6c-0.4-0.4-0.7-1-0.8-1.7c3,0.1,5.4-0.7,7.3-2.4c0.3-0.3,0.6-0.6,0.8-0.9
				c2.8-0.1,5-0.9,6.6-2.4c0.6-0.5,0.9-1,1-1.5c0.6,0,1,0.3,1.3,0.6c0.3,0.4,0.5,0.9,0.5,1.5c0.6,0,1.1,0.2,1.4,0.6
				c0.3,0.4,0.5,0.8,0.5,1.4c-0.5,0.1-1,0.4-1.6,0.9c-1.6,1.4-2.6,3.5-3,6.3c-0.3,0.2-0.6,0.4-1,0.7c-1.9,1.7-2.9,4.1-3.1,7.1
				c-0.7-0.2-1.3-0.6-1.6-1c-0.3-0.4-0.5-0.7-0.5-1.2C313.1,189.3,312.6,189,312.2,188.6z M318.6,178.5c-1.1,0.2-2.1,0.7-2.9,1.4
				c0.4,0.2,0.6,0.3,0.8,0.5c0.2,0.2,0.3,0.4,0.4,0.8C317.7,180.5,318.3,179.6,318.6,178.5z"/>
			<path fill="#FFFFFF" d="M334.3,193.2c0.6-0.4,1.3-1,1.9-2c1-1.5,1.4-2.7,1.2-3.6c0.5-0.1,1,0,1.4,0.3c0.4,0.3,0.7,0.7,0.8,1.3
				c0.6-0.1,1.1,0,1.5,0.2c0.4,0.3,0.6,0.7,0.8,1.2l-0.8,0.5c-0.9,0.6-1.7,1.5-2.4,2.5c-1,1.4-1.4,2.7-1.4,3.8
				c-0.9,0.3-1.9,1.2-2.9,2.7c-0.9,1.4-1.5,2.8-1.7,4.2c-0.5,0.1-1,0-1.3-0.2c-0.4-0.3-0.6-0.7-0.7-1.3c-0.6,0.1-1.1,0.1-1.4-0.2
				c-0.4-0.3-0.6-0.6-0.7-1.2c0.8-0.2,1.5-0.8,2-1.5c0.6-0.8,0.8-1.8,0.7-2.9l-0.3-4.3c-1,0.6-1.9,1.5-2.8,2.8
				c-0.9,1.4-1.5,2.9-1.8,4.5c-0.5,0.1-1,0-1.4-0.2c-0.4-0.3-0.7-0.7-0.8-1.3c-0.6,0.1-1.1,0-1.5-0.2c-0.4-0.3-0.6-0.7-0.8-1.2
				c1.2-0.7,2.3-1.8,3.2-3.2c1-1.4,1.4-2.7,1.4-3.7c1-0.4,2-1.3,2.9-2.7c0.7-1,1.2-2.1,1.4-3.2l0.2-0.9c0.5-0.1,1,0,1.4,0.2
				c0.4,0.3,0.7,0.7,0.8,1.3c0.6-0.1,1.1,0,1.5,0.2c0.4,0.3,0.6,0.7,0.8,1.2c-0.4,0.3-0.8,0.6-1.1,1c-0.3,0.5-0.5,1-0.4,1.6
				L334.3,193.2z"/>
			<path fill="#FFFFFF" d="M354.1,204.4c-0.4,0-0.7,0.3-1.1,0.7c-0.1,0.2-0.3,0.4-0.4,0.7l-1.3,3.5c-0.5,0.9-1.3,1.4-2.4,1.6
				c-1.1,0.2-2.3,0.1-3.5-0.4c-1.2-0.4-2.1-1.1-3-2c-0.6,0.2-1.2,0.2-1.7,0c-0.5-0.2-0.9-0.5-1.1-1c1-1,1.8-2.2,2.4-3.8
				c0.6-1.6,0.8-2.9,0.5-3.8c0.8-0.5,1.5-1.6,2.1-3.2c0.6-1.5,0.8-3,0.7-4.4c0.5-0.2,1-0.2,1.5,0c0.5,0.2,0.9,0.6,1.2,1.1
				c1.1-0.1,2.2,0.1,3.4,0.5c1.3,0.5,2.4,1.2,3.1,2.2c0.8,0.9,1,1.8,0.6,2.7l-1.3,3.5C353.6,203.3,353.7,204,354.1,204.4z
				 M351.3,199.3c0.2-0.6,0.2-1.1,0-1.6c-0.2-0.4-0.5-0.7-1-0.8c-0.4-0.2-0.8-0.2-1.2-0.1c-0.4,0.1-0.7,0.4-0.9,0.8l-0.8,2.2
				c-0.3,0.9-0.2,1.6,0.2,2c-0.4,0-0.8,0.3-1.1,0.7c-0.1,0.2-0.3,0.4-0.4,0.7l-1,2.8c-0.2,0.4-0.1,0.8,0.1,1.2
				c0.2,0.4,0.6,0.6,1,0.8c0.5,0.2,0.9,0.2,1.3,0c0.4-0.2,0.8-0.6,1-1.2l0.9-2.4c0.3-0.9,0.2-1.6-0.2-2c0.4,0,0.8-0.3,1.1-0.7
				c0.1-0.2,0.3-0.4,0.3-0.7L351.3,199.3z"/>
			<path fill="#FFFFFF" d="M382.5,203.9c-0.8-1.5-1.8-2.3-3-2.3c-0.6,0-1,0.2-1.4,0.6c-0.4,0.4-0.6,0.8-0.5,1.3
				c0,0.5,0.2,0.9,0.6,1.4c0.5,0.4,1,0.6,1.6,0.6c0.3,0,0.6-0.1,0.9-0.2c0.1,0.5,0.5,0.9,1.2,1.4c0.3,0.2,0.6,0.4,0.9,0.6
				c1.7,0.9,2.6,2.2,2.6,4.1c0,1.4-0.4,2.5-1.4,3.5c-1.1,1.1-2.5,1.6-4.3,1.7c-0.9,0-1.9-0.1-2.9-0.4c-0.2-0.1-0.5-0.2-1-0.4
				c-0.4-0.2-0.7-0.2-0.9-0.2c-0.4,0-0.8,0.2-1.3,0.6c0-0.2,0-0.3-0.1-0.5c0-0.9,0.3-1.5,0.9-1.9c-0.2-0.2-0.3-0.6-0.3-1
				c0-0.5,0.1-1.1,0.4-1.7c0.6,1,1.3,1.7,2.3,2.2c0.8,0.4,1.7,0.6,2.5,0.6c0.7,0,1.3-0.2,1.8-0.5c0.5-0.3,0.7-0.7,0.7-1.2
				c0-0.5-0.3-1.1-0.8-1.7c-0.5-0.4-1.1-0.6-1.9-0.6c-0.4,0-0.7,0.1-1.1,0.2c-0.1-1-0.5-1.7-1.3-1.9c-1.6-0.9-2.4-2.2-2.5-3.8
				c0-1.3,0.4-2.5,1.4-3.5c1-1.1,2.2-1.7,3.6-1.7c0.8,0,1.7,0.2,2.5,0.6c0.2,0.1,0.4,0.2,0.6,0.3c0.2,0.1,0.4,0.1,0.6,0.1
				c0.2,0,0.6,0,1-0.1c0,0.1,0.1,0.3,0.1,0.4c0,0.5-0.2,1.1-0.6,1.6C383.3,202.7,383,203.3,382.5,203.9z"/>
			<path fill="#FFFFFF" d="M396.7,200c-0.4-1.3-0.9-2.1-1.5-2.4c0.3-0.5,0.7-0.8,1.2-0.9c0.5-0.1,1,0,1.6,0.3c0.4-0.5,0.8-0.8,1.3-1
				c0.5-0.1,1,0,1.5,0.2c-0.3,1.4-0.2,2.9,0.2,4.5c0.4,1.7,1,2.8,1.8,3.5c-0.4,0.9-0.4,2.2,0,3.9c0.4,1.6,1,3,1.9,4.1
				c-0.3,0.5-0.7,0.8-1.2,0.9c-0.5,0.1-1,0-1.6-0.3c-0.3,0.5-0.8,0.8-1.3,1c-0.5,0.1-1,0-1.5-0.2c0.3-0.6,0.4-1.5,0.2-2.8
				c-0.1-0.3-0.3-1.2-0.6-2.7c-0.2-0.8-0.6-1.3-1.3-1.4c-0.2,0-0.5,0-0.6,0.1c-0.2,0-0.4,0.1-0.6,0.2c-0.5,0.4-0.7,1-0.5,1.8
				c0.3,1.4,0.6,2.3,0.7,2.7c0.4,1.3,0.9,2.1,1.5,2.4c-0.3,0.5-0.7,0.8-1.2,0.9c-0.5,0.1-1,0-1.6-0.3c-0.3,0.5-0.8,0.8-1.3,1
				c-0.5,0.1-1,0-1.5-0.2c0.3-1.4,0.2-2.9-0.2-4.5c-0.4-1.7-1-2.8-1.8-3.5c0.4-0.9,0.4-2.2,0-3.9c-0.4-1.6-1-3-1.9-4.1
				c0.3-0.5,0.7-0.8,1.2-0.9c0.5-0.1,1,0,1.6,0.3c0.4-0.5,0.8-0.8,1.3-1c0.5-0.1,1,0,1.5,0.2c-0.3,0.6-0.4,1.5-0.2,2.8
				c0.1,0.3,0.3,1.2,0.6,2.7c0.2,0.8,0.6,1.3,1.3,1.4c0.3,0,0.5,0,0.6-0.1c0.2,0,0.4-0.1,0.6-0.2c0.5-0.4,0.7-1,0.5-1.8
				C397,201.2,396.8,200.3,396.7,200z"/>
			<path fill="#FFFFFF" d="M422.6,205c-0.4,0.2-0.8,0.2-1,0c0-0.9-0.2-1.6-0.6-2.3c-0.4-0.8-1-1.4-1.8-1.7c-0.8-0.3-1.5-0.3-2.2,0.1
				c-0.7,0.4-1.2,1-1.3,1.8c-0.2,0.8,0,1.6,0.4,2.4c0.4,0.7,0.9,1.3,1.5,1.8c0,0.3-0.2,0.6-0.6,0.8c-0.4,0.2-1,0.4-1.8,0.5
				c-0.1,0.4-0.4,0.7-0.8,0.9c-0.5,0.3-1.1,0.4-1.9,0.4c0.9-2.9,0.7-5.4-0.5-7.7c-0.2-0.4-0.4-0.8-0.7-1c0.6-2.7,0.3-5.1-0.7-7
				c-0.4-0.7-0.7-1.1-1.2-1.4c0.2-0.5,0.5-0.9,0.9-1.1c0.4-0.2,0.9-0.3,1.5-0.1c0.2-0.6,0.5-1,0.9-1.2c0.4-0.2,0.9-0.3,1.5-0.1
				c0,0.5,0.1,1,0.5,1.7c1,1.9,2.8,3.4,5.4,4.5c0.1,0.3,0.2,0.7,0.5,1.1c1.2,2.3,3.2,3.9,6.1,4.7c-0.4,0.6-0.9,1.1-1.4,1.3
				c-0.4,0.2-0.8,0.3-1.3,0.2C423.6,204.3,423.1,204.7,422.6,205z M414.5,196.3c0,1.2,0.2,2.2,0.6,3.1c0.2-0.3,0.5-0.5,0.7-0.6
				c0.2-0.1,0.5-0.2,0.9-0.2C416.2,197.7,415.5,196.9,414.5,196.3z"/>
			<path fill="#FFFFFF" d="M433.9,197.4c-0.4,0.3-0.8,0.5-1.4,0.6c-0.1-0.6-0.3-1.2-0.8-1.8c-0.8-1-1.9-1.8-3.4-2.5
				c-1.4-0.6-2.4-0.9-3-0.7c-0.3-0.5-0.6-0.9-0.9-1.3c-0.7-0.9-1.6-1.6-2.5-2.1c-0.9-0.4-2-0.8-3.5-1.2c0.1-0.7,0.4-1.2,0.8-1.6
				c0.4-0.3,1-0.5,1.6-0.4c0.1-0.7,0.3-1.2,0.8-1.6c0.4-0.3,0.8-0.5,1.2-0.4c0.2,0.7,0.5,1.4,1,2.1c1,1.2,2.1,1.8,3.5,2
				c0.1,0.4,0.3,0.8,0.7,1.3c0.4,0.5,0.9,1,1.5,1.3c0.6,0.4,1.1,0.6,1.6,0.6c0-0.5-0.1-1-0.3-1.7c-0.3-0.6-0.6-1.2-1-1.7
				c-0.4-0.5-0.7-0.8-1.1-1c0.1-1.4-0.3-2.6-1.2-3.8c-0.5-0.6-1.1-1.1-1.8-1.4c0.1-0.4,0.3-0.8,0.7-1.1c0.5-0.4,1-0.5,1.7-0.4
				c0.1-0.7,0.3-1.2,0.7-1.5c0.5-0.4,1-0.5,1.8-0.5c0,1.5,0.2,2.7,0.4,3.6c0.3,1.1,0.8,2,1.5,2.9c0.3,0.4,0.7,0.8,1.1,1.2
				c-0.3,0.6-0.3,1.6,0,3.1c0.4,1.6,1,2.9,1.8,3.9c0.5,0.6,1,1,1.6,1.2c-0.2,0.5-0.5,1-0.9,1.3c-0.4,0.3-0.8,0.4-1.3,0.4
				C434.5,196.7,434.3,197.1,433.9,197.4z"/>
			<path fill="#FFFFFF" d="M443.8,176.4c-0.3,0.4-0.5,0.9-0.5,1.3c0,0.5,0.3,0.9,0.8,1.3l1,0.8c0.9,0.7,1.7,0.6,2.4-0.3
				c0.4-0.5,0.6-1,0.7-1.7c0.1-0.6,0-1.2-0.2-1.5c0.7-0.2,1.4-0.1,2,0.4c0.3,0.2,0.6,0.5,0.7,0.9c0.3-0.1,0.7,0,1.3,0.6
				c-0.4,0.2-0.8,0.5-1.2,1c-0.2,0.3-0.5,0.6-0.6,1c-0.2,0.4-0.3,0.7-0.5,1.1c-0.2,0.4-0.4,0.8-0.6,1.1c-0.5,0.6-1.1,1.1-2,1.4
				c0,0.7-0.1,1.2-0.5,1.6c-0.3,0.4-0.8,0.7-1.3,0.8c-0.6-1.3-1.6-2.4-2.9-3.4c-1.3-1.1-2.5-1.6-3.5-1.6c-0.3-1-1.1-2-2.4-3
				c-1.3-1-2.6-1.7-4-2c0-0.6,0.1-1.1,0.4-1.5c0.3-0.4,0.8-0.7,1.5-0.8c0.1-0.9,0.4-1.7,0.9-2.3c0.2-0.3,0.5-0.6,0.9-0.9
				c0.3-0.2,0.6-0.5,0.9-0.7c0.3-0.2,0.6-0.5,0.8-0.8c0.4-0.5,0.6-0.9,0.7-1.3c0.7,0.4,0.9,0.8,0.9,1.1c0.4,0.1,0.7,0.3,1,0.5
				c0.6,0.5,0.9,1.1,0.9,1.9c-0.4-0.1-0.9-0.1-1.5,0.2c-0.6,0.3-1.1,0.6-1.5,1.1c-0.7,0.9-0.6,1.7,0.3,2.4l1,0.8
				c0.5,0.4,0.9,0.5,1.4,0.4c0.5-0.1,0.9-0.3,1.2-0.8c0.5-0.7,0.8-1.5,0.6-2.5c0.2,0.1,0.4,0.2,0.6,0.3c0.4,0.3,0.6,0.7,0.7,1.2
				c0.5-0.1,1,0.1,1.3,0.4c0.2,0.2,0.3,0.3,0.5,0.5C445.1,175.3,444.3,175.7,443.8,176.4z"/>
		</g>
		<g>
			<path fill="#FFFFFF" d="M332.2,139c-0.7,0-1.3-0.3-1.8-0.8c0.5-1.6,0.8-2.9,0.8-4.1c0-1.4-0.6-3.1-1.8-5c0.3-0.7,0.4-1.4,0.4-2
				c0-0.8-0.2-1.7-0.7-2.7c-0.3-0.5-0.9-1.7-2-3.6v10.5c0.1,3.2,0.6,5.5,1.6,6.8c-0.7,0.5-1.4,0.8-2.1,0.8c-0.7,0-1.4-0.3-2-0.8
				c-0.5,0.5-1.1,0.8-1.7,0.8c-0.7,0-1.3-0.3-1.9-0.9c0.9-1.9,1.4-4.2,1.4-6.7c0-2.6-0.5-4.5-1.4-5.7c0.9-1.3,1.4-3.2,1.4-5.9
				c0-1.9-0.3-3.6-0.9-5.2l-0.5-1.3c1-0.5,2-0.8,2.9-0.8c0.8,0,1.7,0.3,2.7,0.8c0.8-0.5,1.8-0.8,2.9-0.8c0.7,0,1.4,0.1,2.1,0.3
				c0.6,0.2,0.9,0.3,1.1,0.5c-0.6,0.9-0.8,2.1-0.8,3.6c0,1.8,0.2,3.2,0.7,4.2l1.6,4.7l1.6-4.7c0.4-1,0.7-2.4,0.7-4.2
				c0-1.5-0.3-2.7-0.8-3.6c0.1-0.2,0.5-0.3,1.1-0.5c0.7-0.2,1.4-0.3,2.1-0.3c1.1,0,2.1,0.3,2.9,0.8c1-0.5,1.9-0.8,2.7-0.8
				c0.9,0,1.9,0.3,2.9,0.8l-0.5,1.3c-0.6,1.6-0.9,3.3-0.9,5.2c0,2.6,0.5,4.6,1.4,5.9c-0.9,1.2-1.4,3.1-1.4,5.7
				c0,2.5,0.5,4.7,1.4,6.7c-0.6,0.6-1.3,0.9-1.9,0.9c-0.6,0-1.2-0.3-1.7-0.8c-0.6,0.5-1.3,0.8-2,0.8c-0.8,0-1.5-0.3-2.1-0.8
				c0.7-0.9,1.1-2.3,1.4-4.2c0.1-0.8,0.2-1.7,0.2-2.6v-10.5c-1.1,1.9-1.7,3.1-2,3.6c-0.5,1-0.7,1.9-0.7,2.7c0,0.6,0.1,1.3,0.4,2
				c-1.2,1.9-1.8,3.5-1.8,5c0,1.1,0.3,2.5,0.8,4.1c-0.6,0.5-1.2,0.8-1.9,0.8c-0.6,0-1.2-0.3-1.7-0.8
				C333.5,138.7,332.9,139,332.2,139z"/>
			<path fill="#FFFFFF" d="M360.7,138.1c-0.9,0.4-2.1,0.7-3.4,0.8c-1.3-0.1-2.4-0.3-3.4-0.8c-2.3-1.1-3.4-2.9-3.4-5.6v-2.5
				c-0.1-1.2-0.4-1.9-1.1-2.2c0.5-0.2,0.8-0.7,1-1.3c0.1-0.3,0.1-0.6,0.1-0.9v-2.4c0-2.6,1.1-4.4,3.4-5.5c0.9-0.4,2.1-0.7,3.4-0.8
				c1.3,0.1,2.4,0.4,3.4,0.8c2.3,1.1,3.4,2.9,3.4,5.5v2.4c0.1,1.2,0.4,1.9,1.1,2.2c-0.5,0.2-0.8,0.7-1,1.3c-0.1,0.3-0.1,0.6-0.1,0.9
				v2.5C364.1,135.2,362.9,137.1,360.7,138.1z M359.7,130.1c-0.1-1.2-0.4-1.9-1.1-2.2c0.5-0.2,0.8-0.7,1-1.3
				c0.1-0.3,0.1-0.6,0.1-0.9v-2.3c0-0.8-0.2-1.4-0.7-1.9c-0.4-0.5-1-0.7-1.6-0.7c-0.6,0-1.1,0.2-1.6,0.7c-0.4,0.5-0.7,1.1-0.7,1.9
				v2.3c0.1,1.2,0.4,1.9,1.1,2.2c-0.5,0.2-0.8,0.7-1,1.3c-0.1,0.3-0.1,0.6-0.1,0.9v2.3c0,0.8,0.2,1.5,0.7,1.9c0.4,0.5,1,0.7,1.6,0.7
				c0.6,0,1.1-0.2,1.6-0.7c0.4-0.5,0.7-1.1,0.7-1.9V130.1z"/>
			<path fill="#FFFFFF" d="M378.2,138.1c-0.9,0.4-2.1,0.7-3.4,0.8c-1.3-0.1-2.4-0.3-3.4-0.8c-2.3-1.1-3.4-2.9-3.4-5.6v-2.5
				c-0.1-1.2-0.4-1.9-1.1-2.2c0.5-0.2,0.8-0.7,1-1.3c0.1-0.3,0.1-0.6,0.1-0.9v-2.4c0-2.6,1.1-4.4,3.4-5.5c0.9-0.4,2.1-0.7,3.4-0.8
				c1.3,0.1,2.4,0.4,3.4,0.8c2.3,1.1,3.4,2.9,3.4,5.5v2.4c0.1,1.2,0.4,1.9,1.1,2.2c-0.5,0.2-0.8,0.7-1,1.3c-0.1,0.3-0.1,0.6-0.1,0.9
				v2.5C381.6,135.2,380.4,137.1,378.2,138.1z M377.2,130.1c-0.1-1.2-0.4-1.9-1.1-2.2c0.5-0.2,0.8-0.7,1-1.3
				c0.1-0.3,0.1-0.6,0.1-0.9v-2.3c0-0.8-0.2-1.4-0.7-1.9c-0.4-0.5-1-0.7-1.6-0.7c-0.6,0-1.1,0.2-1.6,0.7c-0.4,0.5-0.7,1.1-0.7,1.9
				v2.3c0.1,1.2,0.4,1.9,1.1,2.2c-0.5,0.2-0.8,0.7-1,1.3c-0.1,0.3-0.1,0.6-0.1,0.9v2.3c0,0.8,0.2,1.5,0.7,1.9c0.4,0.5,1,0.7,1.6,0.7
				c0.6,0,1.1-0.2,1.6-0.7c0.4-0.5,0.7-1.1,0.7-1.9V130.1z"/>
			<path fill="#FFFFFF" d="M394.8,123.1c-1-2-2.3-3-3.7-3c-0.7,0-1.3,0.2-1.8,0.7c-0.5,0.5-0.7,1-0.7,1.7c0,0.6,0.2,1.2,0.7,1.7
				c0.6,0.5,1.3,0.8,2,0.8c0.4,0,0.8-0.1,1.2-0.3c0.1,0.6,0.6,1.2,1.4,1.8c0.3,0.3,0.7,0.5,1.2,0.8c2.1,1.1,3.2,2.9,3.2,5.2
				c0,1.7-0.6,3.2-1.9,4.4c-1.4,1.3-3.2,2-5.5,2c-1.1,0-2.4-0.2-3.6-0.5c-0.3-0.1-0.7-0.3-1.2-0.6c-0.4-0.2-0.8-0.3-1.1-0.3
				c-0.5,0-1.1,0.2-1.7,0.7c0-0.2-0.1-0.4-0.1-0.6c0-1.1,0.4-1.9,1.2-2.3c-0.2-0.3-0.4-0.7-0.4-1.2c0-0.7,0.2-1.4,0.6-2.2
				c0.7,1.2,1.6,2.2,2.8,2.8c1,0.6,2.1,0.9,3.2,0.9c0.9,0,1.7-0.2,2.3-0.6c0.6-0.4,0.9-0.9,0.9-1.6c0-0.7-0.3-1.4-1-2.1
				c-0.6-0.5-1.4-0.8-2.4-0.8c-0.5,0-0.9,0.1-1.3,0.2c-0.1-1.3-0.6-2.1-1.6-2.5c-2-1.1-3-2.8-3-4.9c0-1.7,0.6-3.1,1.8-4.4
				c1.3-1.3,2.8-2,4.6-2c1.1,0,2.1,0.3,3.2,0.8c0.2,0.1,0.5,0.3,0.7,0.4c0.2,0.1,0.5,0.2,0.8,0.2c0.3,0,0.7,0,1.3-0.1
				c0,0.2,0.1,0.3,0.1,0.5c0,0.7-0.3,1.3-0.9,2C395.8,121.5,395.5,122.4,394.8,123.1z"/>
			<path fill="#FFFFFF" d="M408,129c-0.7,0-1.2,0.2-1.7,0.6c-0.5,0.4-0.7,1-0.7,1.8v1.6c0,1.4,0.7,2.2,2.2,2.2
				c0.8,0,1.5-0.2,2.2-0.6c0.7-0.4,1.2-0.9,1.4-1.4c0.8,0.6,1.2,1.3,1.2,2.3c0,0.5-0.1,1-0.3,1.4c0.4,0.2,0.5,0.7,0.4,1.7
				c-0.5-0.3-1.1-0.4-1.9-0.4c-0.5,0-1,0.1-1.5,0.2c-0.5,0.1-1,0.2-1.4,0.4c-0.6,0.1-1.1,0.2-1.6,0.2c-0.9,0-1.9-0.3-2.9-0.9
				c-0.6,0.5-1.3,0.8-2,0.8c-0.7,0-1.3-0.2-1.8-0.7c0.8-1.6,1.1-3.4,1.1-5.5c0-2.2-0.4-3.7-1.1-4.8c0.8-1,1.1-2.6,1.1-4.8
				c0-2.1-0.4-3.9-1.1-5.5c0.5-0.5,1.1-0.7,1.8-0.7c0.7,0,1.3,0.3,2,0.8c1-0.6,2-0.9,2.9-0.9c0.5,0,1,0.1,1.6,0.2
				c0.5,0.1,1,0.3,1.4,0.4c0.5,0.1,1,0.2,1.5,0.2c0.8,0,1.4-0.1,1.9-0.4c0.1,1,0,1.6-0.4,1.7c0.2,0.4,0.3,0.9,0.3,1.4
				c0,1-0.4,1.8-1.2,2.3c-0.2-0.5-0.6-1-1.4-1.4c-0.7-0.4-1.5-0.6-2.2-0.6c-1.5,0-2.2,0.7-2.2,2.2v1.6c0,0.8,0.2,1.3,0.7,1.8
				c0.5,0.4,1,0.6,1.7,0.6c1.1,0,2.1-0.5,3-1.4c0.1,0.3,0.2,0.5,0.2,0.9c0,0.6-0.2,1.1-0.7,1.6c0.5,0.5,0.7,1,0.7,1.6
				c0,0.3-0.1,0.6-0.2,0.9C410.1,129.5,409.1,129,408,129z"/>
			<path fill="#FFFFFF" d="M432.2,123.1c-1-2-2.3-3-3.7-3c-0.7,0-1.3,0.2-1.8,0.7c-0.5,0.5-0.7,1-0.7,1.7c0,0.6,0.2,1.2,0.7,1.7
				c0.6,0.5,1.3,0.8,2,0.8c0.4,0,0.8-0.1,1.2-0.3c0.1,0.6,0.6,1.2,1.4,1.8c0.3,0.3,0.7,0.5,1.2,0.8c2.1,1.1,3.2,2.9,3.2,5.2
				c0,1.7-0.6,3.2-1.9,4.4c-1.4,1.3-3.2,2-5.5,2c-1.1,0-2.4-0.2-3.6-0.5c-0.3-0.1-0.7-0.3-1.2-0.6c-0.4-0.2-0.8-0.3-1.1-0.3
				c-0.5,0-1.1,0.2-1.7,0.7c0-0.2-0.1-0.4-0.1-0.6c0-1.1,0.4-1.9,1.2-2.3c-0.2-0.3-0.4-0.7-0.4-1.2c0-0.7,0.2-1.4,0.6-2.2
				c0.7,1.2,1.6,2.2,2.8,2.8c1,0.6,2.1,0.9,3.2,0.9c0.9,0,1.7-0.2,2.3-0.6c0.6-0.4,0.9-0.9,0.9-1.6c0-0.7-0.3-1.4-1-2.1
				c-0.6-0.5-1.4-0.8-2.4-0.8c-0.5,0-0.9,0.1-1.3,0.2c-0.1-1.3-0.6-2.1-1.6-2.5c-2-1.1-3-2.8-3-4.9c0-1.7,0.6-3.1,1.8-4.4
				c1.3-1.3,2.8-2,4.6-2c1.1,0,2.1,0.3,3.2,0.8c0.2,0.1,0.5,0.3,0.7,0.4c0.2,0.1,0.5,0.2,0.8,0.2c0.3,0,0.7,0,1.3-0.1
				c0,0.2,0.1,0.3,0.1,0.5c0,0.7-0.3,1.3-0.9,2C433.2,121.5,432.9,122.4,432.2,123.1z"/>
		</g>
		<g>
			<path fill-rule="evenodd" clip-rule="evenodd" fill="#FFFFFF" d="M360.8,65.7c0.1,0,0.2,0,0.2,0c0.9,0.3-0.3,2.1,0.8,2.2
				c0.6,0.1,1.1,0,1.4,0c1,0,0.8-1.1,1.3-1.6c0.6-0.1,0.2,0.8,0.6,0.8c0.7,0,0.3-1.2,1-1.2c0.4,0.3,0.1,1.3,0.6,1.6
				c1.1,0.1,1-1,1.8-1.2c0.1,0.2,0.1,0.5,0.4,0.6c0.7,0.1,0.8-0.2,1.3-0.2c0,0.5-0.2,0.5,0,0.8c0.5,0.1,0.7-0.5,1.1-0.1
				c-0.3,1.2-0.7,2-1.7,2.6c-1.3,0.8-3.2,1-3.4,2c-0.1,0.9,1.3,1.7,1.1,3.1c0.8,0.5,2.8,0.5,3.1-0.4c-0.5-1.5-1.7-2.2-1.8-4.1
				c1.4,0.5,1.1,2.5,3,2.4c1.1-1-0.8-3.2,0.8-3.7c0.5,0.1,0.2,0.5,0.1,0.7c0.1,1.6,1.1,3.7,2.5,3.4c1-0.2,0.7-1.4,1.2-2.3
				c1.1,0.1,0.3,1.4,0.4,2.2c2.2-0.5,1.7-3.6,2.4-5.5c1,0,0.4,1.6,0.7,2.3c2.1,0.2,1.1-2.7,2.9-2.8c0.4,0.4-0.4,1,0,1.4
				c1.2,0.2,0.8-1.2,1.7-1.3c0.2,0.1,0,0.3,0.2,0.6c0.3,0.4,0.4-0.4,0.9,0.1c0.1-0.3,0.3-0.6,0.6-0.5c0,1.3-0.6,2.6-1.3,3.5
				c-1.7,2.1-5.9,4.2-9.4,4.6c-0.5,0.1-0.9,0.5-1.3,0.7c-1,0.4-2.1,0.2-3,0.5c0.2,0.5,0.8,1.2,1.4,1.6c1.2,0.7,3.3,0.5,5.1,1.2
				c1.1,0.4,2.1,1.1,3.1,1.2c2.5,0.4,5.2-0.7,7.5-0.4c2.8,0.4,4.5,3.1,5.2,5.7c0.1,0.5-0.5,0.2-0.6,0.5c-0.2,1.8-0.9,2.9-0.5,4.6
				c0.3,1.2,1.5,2.2,1.6,3.4c0,0.6-0.4,1.2-0.5,1.9c-0.3,2.3,0.2,4.6,0,7.5c-0.6,0.4-0.9,1.1-1.1,1.9c-0.9,0.2-1.7,0.3-2.5,0
				c0.2-0.6,0.6-1,1-1.3c1.8-3.7,1.3-10.7-1.6-12.9c-0.3,2,1.1,1.7-0.1,5.2c-0.9,3.2-2.8,5.4-3.6,8.7c-0.6,0.1-0.5,0.9-0.8,1.2
				c-0.7,0.2-1.5,0.4-2.3,0.1c-0.1-0.7,0.6-1.2,1.1-1.8c1-1.4,1.7-2.9,2.4-4.8c0.8-2.2,1.7-6.3-0.2-8.3c-1.9-2-4,2.3-8.3,0
				c-1.2,3.2-0.4,8.5,0.1,11.8c-0.3,0.6-1.1,0.8-1.1,1.8c-0.6,0.2-1.7,0.5-2.2,0c0.1-0.7,0.8-1,1.1-1.7c0.9-2.2,0-5.5-0.5-7.7
				c-1.1,2-0.8,5.5-1,8.4c-0.6,0.5-1.2,0.9-1.4,1.7c-0.8,0-1.9,0.4-2.4-0.1c0.4-0.8,1-0.9,1.4-1.6c1.7-2.7,0.6-6.6,0.4-9.9
				c-0.1-0.9,0.1-1.8,0-2.6c-0.4-2.2-2.9-3.9-3.5-6c-0.6,0.4-0.7,0.9-1.4,1.1c-2.4-0.8-1-4.8-2.4-6.7c-0.8,0-0.1,0.2-0.7,0.1
				c-1.8-0.3-2.3-3.4-0.7-4.5c1,0.1,1.4,0.7,2.4,0.4c-0.4-0.9-1.8-0.8-3.1-0.8c-1.4-2.1-4.8-2.9-4.8-6c0.9,0.2,0.7,1.6,1.7,1.8
				c0.5-1.3-1.3-2.9-0.1-4.1c0.6,0.5,0.4,1.7,0.8,2.4C360.9,69.2,360.5,67,360.8,65.7z"/>
		</g>
		<g>
			<path fill-rule="evenodd" clip-rule="evenodd" fill="#FFFFFF" d="M306.3,123.5c-0.1,0.4-5.1,2.4-7.2,3.3c2.1,0.9,7.1,3,7.2,3.3
				c-0.8,0-6.7-1.8-8.9-2.5c-1.9,0.8-7,3.2-7.2,3.5c-0.2,0.5-0.1,1-0.2,1.4c-0.3,0.7-1.2,1.4-2.3,1.2c-0.8-0.2-1.3-1-1.3-1.7
				c0-1.5,1.6-2,2.9-1.6c0.2,0.1,0.4,0.2,0.7,0.2c0.6,0,3.7-2.1,4.5-2.5c0.2-0.4,0.4-0.8,0.6-1.2c-0.3-1.2-1.8-1.9-2.9-2.5
				c-0.4-0.2-2.2-1.4-2.5-1.4c-0.5,0-0.8,0.5-1.2,0.5c-0.8,0.1-1.5-0.3-1.8-0.8c-0.2-0.3-0.1-0.7-0.3-1.1c-0.4-0.9-2-1-2-2.5
				c0.1,0,0.1-0.1,0.1,0c0.6,0.7,0.8,1.8,1.9,1.8c0.6,0,1-0.6,1.6-0.6c0.6,0,1.4,0.4,1.6,1.1c0.1,0.3-0.1,0.7,0.1,1
				c0.2,0.5,5.4,2.9,7.4,3.7C299.6,125.4,305.5,123.5,306.3,123.5z M287,121.5c-0.4,1.9,2.6,2.3,2.6,0.3c0-0.9-0.7-1.4-1.5-1.2
				C287.5,120.7,287.1,121.1,287,121.5z M297,126.7c0-0.2,0.6-0.1,0.5-0.3C297.2,126.3,296.8,126.7,297,126.7z M297.3,127.3
				c-0.2-0.1,0.3-0.5,0.5-0.6c0,0-0.1,0-0.1-0.1c-0.1,0-0.1-0.1-0.1-0.1c-0.1,0.3-0.4,0.5-0.7,0.7
				C297,127.2,297.4,127.4,297.3,127.3z M297.8,126.9c0-0.1,0-0.3-0.1-0.1C297.8,126.9,297.8,127.1,297.8,126.9z M297.6,127.3
				c0-0.1,0.3-0.3,0.1-0.2C297.7,127.2,297.3,127.3,297.6,127.3z M286.8,132c0,2.2,3.5,1.6,3.1-0.6c-0.1-0.5-0.6-0.9-1.5-0.8
				C287.5,130.7,286.8,131.1,286.8,132z"/>
		</g>
		<g>
			<path fill-rule="evenodd" clip-rule="evenodd" fill="#FFFFFF" d="M450.6,123.5c0.1,0.4,4.8,2.4,6.8,3.3c-1.9,0.9-6.7,3-6.8,3.3
				c0.7,0,6.4-1.8,8.4-2.5c1.8,0.8,6.6,3.2,6.8,3.5c0.2,0.5,0.1,1,0.2,1.4c0.3,0.7,1.1,1.4,2.2,1.2c0.8-0.2,1.2-1,1.2-1.7
				c0-1.5-1.5-2-2.7-1.6c-0.2,0.1-0.4,0.2-0.7,0.2c-0.5,0-3.5-2.1-4.3-2.5c-0.2-0.4-0.4-0.8-0.6-1.2c0.3-1.2,1.7-1.9,2.7-2.5
				c0.3-0.2,2.1-1.4,2.3-1.4c0.5,0,0.8,0.5,1.1,0.5c0.7,0.1,1.4-0.3,1.7-0.8c0.2-0.3,0.1-0.7,0.2-1.1c0.3-0.9,1.9-1,1.8-2.5
				c-0.1,0-0.1-0.1-0.1,0c-0.5,0.7-0.7,1.8-1.8,1.8c-0.5,0-1-0.6-1.5-0.6c-0.6,0-1.3,0.4-1.5,1.1c-0.1,0.3,0.1,0.7-0.1,1
				c-0.2,0.5-5.1,2.9-7,3.7C457,125.4,451.3,123.5,450.6,123.5z M468.8,121.5c0.4,1.9-2.5,2.3-2.5,0.3c0-0.9,0.6-1.4,1.4-1.2
				C468.4,120.7,468.7,121.1,468.8,121.5z M459.4,126.7c0-0.2-0.6-0.1-0.4-0.3C459.3,126.3,459.6,126.7,459.4,126.7z M459.2,127.3
				c0.2-0.1-0.3-0.5-0.5-0.6c0,0,0.1,0,0.1-0.1c0.1,0,0.1-0.1,0.1-0.1c0.1,0.3,0.4,0.5,0.6,0.7C459.4,127.2,459.1,127.4,459.2,127.3
				z M458.6,126.9c0-0.1,0-0.3,0.1-0.1C458.7,126.9,458.6,127.1,458.6,126.9z M458.9,127.3c0-0.1-0.3-0.3-0.1-0.2
				C458.8,127.2,459.1,127.3,458.9,127.3z M469,132c0,2.2-3.3,1.6-2.9-0.6c0.1-0.5,0.6-0.9,1.4-0.8C468.4,130.7,469,131.1,469,132z"
				/>
		</g>
		<rect x="313.9" y="104.8" fill-rule="evenodd" clip-rule="evenodd" fill="#FFFFFF" width="127.7" height="5.1"/>
		<polygon fill-rule="evenodd" clip-rule="evenodd" points="424.8,112.8 412.6,112.8 409.6,103.7 427.8,103.7 		"/>
		<rect x="313.9" y="141.5" fill-rule="evenodd" clip-rule="evenodd" fill="#FFFFFF" width="127.7" height="5.1"/>
		<g>
			<path d="M364.4,151.6l-25.7,19.5c0,0,0,0,0.1,0l25.8-19.6C364.5,151.6,364.5,151.6,364.4,151.6z"/>
			<path d="M401.4,155.6L384,168.8c0,0,0,0,0.1,0L401.4,155.6C401.4,155.6,401.4,155.6,401.4,155.6z"/>
			<path fill="#FFFFFF" d="M353.6,157.1c-1.8,1-3.9,2.3-6.4,3.5c-2.2,1.1-5.4,2.9-7.6,1.9c-0.6-0.3-1-0.8-1.3-1.5l-4.9,3.8
				c1,2.9,3,4.9,5.5,6.4l25.7-19.5C360.8,152.6,357,155.1,353.6,157.1z"/>
			<path fill="#9C0001" d="M340,152.6c-4.3,0-7.1,4.4-7.2,8c-0.1,1.5,0.1,2.8,0.5,4c0,0.1,0,0.1,0.1,0.2l4.9-3.8
				c0-0.1,0-0.1-0.1-0.2c-0.8-2.3,0.1-5.9,2.4-6.6c1.3-0.4,2.1-0.1,3.9,0.4C344,153,341.5,152.5,340,152.6z"/>
			<path fill="#FFFFFF" d="M387.5,151.1c-4,0.2-6.2,1.9-9.5,3.5c-0.5-0.4-1.1-0.8-1.7-1.1l-27,20.5c5.7,0.3,11.8-0.7,16.8-2.4
				l26.4-20C390.9,151.2,389.2,151.1,387.5,151.1z"/>
			<path fill="#0A4569" d="M376.1,153.4c-2.5-1.5-5.6-2.6-9.1-2.3c-0.8,0.1-1.6,0.2-2.4,0.4l-25.8,19.6c1.2,0.7,2.4,1.2,3.7,1.6
				c2.1,0.6,4.3,1,6.5,1.2c0.1,0,0.2,0,0.2,0l27-20.5C376.2,153.5,376.2,153.4,376.1,153.4z"/>
			<path fill="#9C0001" d="M392.7,151.6c-0.1,0-0.1,0-0.2,0l-26.4,20c0.2-0.1,0.3-0.1,0.5-0.2c2.2-0.8,4.3-1.6,6-2.5
				c2.2-1.1,4-2.5,5.8-3.7c1.7,1.3,3.5,2.5,5.6,3.6l17.5-13.2C398.8,153.9,395.9,152.4,392.7,151.6z"/>
			<path fill="#FFFFFF" d="M409,160.5c-0.4-0.2-0.8-0.5-1.2-0.7c-2.1-1.3-4.2-2.8-6.4-4.2L384,168.8c2.8,1.5,5.9,2.7,9.3,3.6
				L409,160.5z"/>
			<path fill="#FFFFFF" d="M418.1,151.9c-3.4-0.7-5.6,1.1-6.2,3.1c1.5-1.6,3.6-1.6,5.1-0.6l2.5-1.9
				C419.1,152.2,418.6,152,418.1,151.9z"/>
			<path fill="#FFFFFF" d="M408.8,173.8c4.4-0.3,9.3-2.1,12-4.5c2.2-2,3.9-5.9,3.6-9.7l-18.9,14.3
				C406.6,173.9,407.7,173.9,408.8,173.8z"/>
			<path fill="#0A4569" d="M424.4,159.5c0-0.2,0-0.4-0.1-0.6c-0.4-2.4-2.4-5.2-4.7-6.4c0,0,0,0-0.1,0l-2.5,1.9c0,0,0,0,0.1,0
				c1.6,1.1,2.7,3.3,1.9,6c-2.6,3.3-6.6,1.9-9.9,0.1c0,0,0,0-0.1,0l-15.8,12c0,0,0,0,0.1,0c3.7,1,7.7,1.5,12.1,1.5c0,0,0.1,0,0.1,0
				L424.4,159.5C424.4,159.6,424.4,159.5,424.4,159.5z"/>
		</g>
		<g id="lmXyGe_1_">
			<g>
				<path fill-rule="evenodd" clip-rule="evenodd" fill="#FFFFFF" d="M421.4,103.1c-0.1,0.4,0,0.9-0.2,1.2c-0.6,0.3-0.8-0.1-1.3,0
					c-0.5,1.3-2,2.1-2.7,3.3c0.4-0.2-0.1,0.6-0.1,0.2c0.1,0,0.1-0.2,0-0.2c-0.5,0.5,0.1,0.8-0.6,0.4c0,0.4,0,0.8-0.2,0.4
					c-0.5,0.3,0.1,0.3-0.2,0.7c-0.9,0.7-1.7,2.1-2.6,2.3c0.8-0.8,2.2-1.9,2.4-2.6c-0.7,1.1-2.5,2.3-3.2,3.1
					c-0.3,0.3,0.2,0.5-0.4,0.6c0,0.1,0,0.1,0,0.2c0.4,0.3,0.5,1.1,1.1,1c1.8-1.7,3.5-3.4,5-5.3c0-0.5-0.3-0.3-0.3-0.7
					c0.6-0.4,0.9-0.9,1.7-1.2c1.3,4-0.7,7.4,0,10.8c0.1,0.5,0.1,1.2,0.7,1.5c0.1,0,0.1,0,0.2,0c2.4-2.3,1.5-9.5,0.6-13.6
					c0.5-0.4,0.8-0.9,1-1.5c-0.1-0.2-0.1-0.6-0.3-0.6C421.6,103,421.5,103.1,421.4,103.1z M413.4,111.8
					C412.7,112.6,412.9,111.6,413.4,111.8L413.4,111.8z M413.1,113.3c1.4-1.8,2.8-3.6,4.7-5.1C416.7,110.1,414.6,112.1,413.1,113.3z
					"/>
			</g>
		</g>
	</g>
	<g id="scis">
		<path fill-rule="evenodd" clip-rule="evenodd" fill="#0D0D0D" d="M596.7,271.6c4.7-2.1,15.7-6.5,15.9-7.4
			c-1.7-0.1-15,4.1-19.8,5.7c-4.6-1.8-16.2-7.2-16.5-8.2c-0.3-0.8,0-1.7-0.2-2.3c-0.5-1.6-2.2-2.5-3.6-2.5c-1.2,0-2.2,1.3-3.5,1.3
			c-2.5,0-3-2.3-4.2-3.9c0-0.2-0.2-0.1-0.3,0c-0.1,3.3,3.5,3.7,4.4,5.6c0.4,0.9,0.2,1.8,0.6,2.5c0.6,1.1,2.2,2,3.9,1.7
			c0.8-0.1,1.4-1.2,2.6-1.2c0.5,0,4.7,2.5,5.5,3c2.4,1.5,5.7,2.9,6.4,5.6c-0.4,0.9-0.9,1.7-1.3,2.6c-1.8,1-8.7,5.6-10,5.7
			c-0.6,0-1.2-0.3-1.6-0.4c-2.8-0.9-6.3,0.4-6.4,3.6c0,1.6,1.1,3.4,2.9,3.8c2.4,0.5,4.4-1,5.1-2.6c0.3-0.8-0.1-1.9,0.4-3
			c0.3-0.8,11.8-6.1,15.9-7.9c4.7,1.6,17.9,5.7,19.7,5.6C612.5,278.2,601.3,273.7,596.7,271.6z M569.8,259.8c0.2-0.9,1-1.8,2.5-2
			c1.8-0.3,3.3,0.8,3.3,2.7C575.6,264.9,569,264,569.8,259.8z M569.4,283.1c0-2,1.5-3,3.5-3.2c2-0.2,3.1,0.8,3.3,1.9
			C577.3,286.6,569.4,288,569.4,283.1z M592.8,272.9c-0.7,0-1.2-0.5-1.2-1.2s0.5-1.2,1.2-1.2c0.7,0,1.2,0.5,1.2,1.2
			S593.5,272.9,592.8,272.9z"/>
		<path fill-rule="evenodd" clip-rule="evenodd" fill="#0D0D0D" d="M143.9,279c1.7,0.1,15-3.9,19.7-5.6c4.1,1.7,15.5,7.1,15.9,7.9
			c0.5,1.2,0.1,2.3,0.4,3c0.7,1.6,2.6,3.1,5.1,2.6c1.8-0.3,2.9-2.1,2.9-3.8c0-3.3-3.5-4.5-6.4-3.6c-0.4,0.1-1,0.4-1.6,0.4
			c-1.3,0-8.2-4.7-10-5.7c-0.4-0.9-0.9-1.7-1.3-2.6c0.7-2.7,4-4.2,6.4-5.6c0.8-0.5,5-3,5.5-3c1.2,0,1.8,1,2.6,1.2
			c1.7,0.3,3.3-0.6,3.9-1.7c0.4-0.7,0.2-1.6,0.6-2.5c0.8-2,4.5-2.3,4.4-5.6c-0.1-0.1-0.3-0.2-0.3,0c-1.3,1.6-1.8,3.9-4.2,3.9
			c-1.2,0-2.2-1.3-3.5-1.3c-1.4,0-3.1,0.8-3.6,2.5c-0.2,0.6,0.1,1.5-0.2,2.3c-0.4,1-11.9,6.4-16.5,8.2c-4.8-1.6-18.1-5.8-19.8-5.7
			c0.2,0.9,11.2,5.4,15.9,7.4C155.2,273.7,144.1,278.2,143.9,279z M181,260.5c0-2,1.5-3,3.3-2.7c1.5,0.2,2.3,1.1,2.5,2
			C187.6,264,180.9,264.9,181,260.5z M180.3,281.8c0.2-1.1,1.3-2.1,3.3-1.9c1.9,0.2,3.4,1.1,3.5,3.2
			C187.2,288,179.3,286.6,180.3,281.8z M162.5,271.7c0-0.7,0.5-1.2,1.2-1.2c0.7,0,1.2,0.5,1.2,1.2c0,0.7-0.5,1.2-1.2,1.2
			S162.5,272.3,162.5,271.7z"/>
	</g>
	<g id="blend">
		<g>
			<circle cx="46.9" cy="249.9" r="4.2"/>
			<circle cx="21.5" cy="249.9" r="3.2"/>
			<circle cx="1.6" cy="249.9" r="1.7"/>
		</g>
		<g>
			<circle cx="708.8" cy="249.9" r="4.2"/>
			<circle cx="734.3" cy="249.9" r="3.2"/>
			<circle cx="754.2" cy="249.9" r="1.7"/>
		</g>
		<g>
			<line fill="none" stroke="#000000" stroke-width="3.9226" stroke-miterlimit="10" x1="66" y1="250" x2="690" y2="250"/>
			<line fill="none" stroke="#000000" stroke-width="3.3342" stroke-miterlimit="10" x1="124.6" y1="290.4" x2="631.4" y2="290.4"/>
			<line fill="none" stroke="#000000" stroke-width="2.7458" stroke-miterlimit="10" x1="183.3" y1="330.8" x2="572.7" y2="330.8"/>
			<line fill="none" stroke="#000000" stroke-width="2.1574" stroke-miterlimit="10" x1="242" y1="371.1" x2="514" y2="371.1"/>
			<line fill="none" stroke="#000000" stroke-width="1.569" stroke-miterlimit="10" x1="300.7" y1="411.5" x2="455.3" y2="411.5"/>
			<line fill="none" stroke="#000000" stroke-width="0.9806" stroke-miterlimit="10" x1="359.3" y1="451.8" x2="396.7" y2="451.8"/>
		</g>
	</g>
	<g id="quote">
		<g id="ribbon_1_">
			<polygon fill="#202021" points="304,348 198.3,348 208.6,370.9 198.3,392.2 304,392.2 			"/>
			<polygon fill="#202021" points="452,348 557.6,348 547.3,370.9 557.6,392.2 452,392.2 			"/>
			<polygon fill="#0D0D0D" points="246.6,325.6 303.8,346.7 303.8,392.1 246.6,371.2 			"/>
			<polygon fill="#0D0D0D" points="509.4,325.6 452.1,346.7 452.1,392.1 509.4,371.2 			"/>
			<path fill="#333335" d="M509.5,371.2c0,0-88.7-9.7-131.5-9.7s-131.5,9.7-131.5,9.7v-45.5c0,0,80.9-9.7,131.5-9.7
				s131.5,9.7,131.5,9.7V371.2z"/>
		</g>
		<g id="trad_1_">
			<g>
				<path fill="#0D0D0D" d="M294.7,338c0,0.8-0.3,1.5-0.8,2c-2.3-1.2-4.2-1.8-5.7-1.8c-0.7,0-1.3,0.1-1.8,0.4
					c-0.1,3.3,0.4,5.6,1.5,7.2c-1,1.4-1.5,3.5-1.5,6.4c0,2.8,0.5,5.3,1.5,7.5c-0.7,0.6-1.5,1-2.4,1c-0.8,0-1.7-0.4-2.4-1.1
					c-0.8,0.7-1.6,1.1-2.5,1.1c-0.9,0-1.7-0.3-2.4-1c1-2.2,1.5-4.7,1.5-7.5c0-2.9-0.5-5.1-1.5-6.4c1.1-1.5,1.6-3.8,1.5-7
					c-0.4-0.4-1-0.6-2-0.6c-1.5,0-3.4,0.6-5.7,1.8c-0.5-0.5-0.8-1.2-0.8-2c0-0.9,0.3-1.8,0.8-2.7c-0.5-0.5-0.7-1.1-0.7-2
					c0-0.8,0.2-1.5,0.7-2.1c1.6,0.7,3.4,1.1,5.4,1.1c1.8,0,3.7-0.4,5.5-1.1c1.8,0.7,3.6,1.1,5.4,1.1c2,0,3.9-0.4,5.4-1.1
					c0.5,0.7,0.7,1.4,0.7,2.1c0,0.8-0.2,1.5-0.7,2C294.5,336.2,294.7,337.1,294.7,338z"/>
				<path fill="#0D0D0D" d="M317.8,360.7c-2.1,0-4.1-0.8-5.9-2.4c0.8-1,1.1-2,1.1-2.9c0-1.1-0.6-2.4-1.7-3.9c0.4-0.5,0.6-1,0.6-1.6
					c0-0.8-0.3-1.4-1-2c-0.6-0.6-1.4-0.8-2.1-0.8c-0.8,0-1.5,0.3-2,1c-0.6,0.8-0.9,1.9-0.9,3.4c0,3.8,0.7,6.4,2.2,7.9
					c-0.7,0.6-1.5,0.9-2.4,0.9c-0.9,0-1.8-0.4-2.6-1.1c-0.9,0.7-1.7,1.1-2.7,1.1c-0.9,0-1.7-0.3-2.4-0.9c1-2.1,1.5-4.6,1.5-7.3
					c0-2.9-0.5-5-1.5-6.3c1-1.4,1.5-3.5,1.5-6.3c0-2.7-0.5-5.2-1.5-7.3c0.7-0.6,1.5-1,2.4-1c0.9,0,1.8,0.4,2.7,1.1
					c1.7-0.8,3.5-1.2,5.6-1.2c2.4,0,4.4,0.5,6.1,1.5c1.8,1.1,2.7,2.4,2.7,3.9c0,1.6,0.5,2.6,1.4,3c-0.6,0.3-1,0.9-1.3,1.8
					c-0.1,0.4-0.2,0.8-0.2,1.2c-0.1,1.4-1,2.5-2.7,3.3c1,0.4,1.8,1.1,2.2,1.8c0.2,0.3,0.3,0.7,0.3,1.1c0,1.2,0.4,1.9,1.4,2.3
					c0,0,0.1,0.6,0.3,1.6c0.1,1.3,0.4,2.5,0.7,3.4c0.5,1.5,1.2,2.7,2.2,3.7C320.5,360.4,319.1,360.7,317.8,360.7z M311.5,338.4
					c0-0.6-0.2-1-0.7-1.4c-0.5-0.4-1.1-0.6-1.7-0.6c-0.8,0-1.5,0.3-2.1,0.9c-0.6,0.7-1,1.7-1,3c0,1.3,0.3,2.3,1,3
					c0.5,0.6,1.2,0.9,2.1,0.9c0.7,0,1.2-0.2,1.7-0.6c0.5-0.4,0.7-0.9,0.7-1.5c0-0.6-0.3-1.2-0.9-1.8
					C311.2,339.6,311.5,339,311.5,338.4z"/>
				<path fill="#0D0D0D" d="M344.8,360.7c-0.8,0-1.3-0.2-1.6-0.7c0.6-1.3,0.9-2.6,0.9-3.9c0-1.6-0.4-2.9-1.3-4c-0.9-1-2-1.6-3.4-1.6
					c-1.4,0-2.5,0.5-3.4,1.6c-0.9,1-1.3,2.4-1.3,4c0,1.3,0.3,2.6,0.9,3.9c-0.2,0.5-0.7,0.7-1.6,0.7c-0.8,0-1.9-0.2-3.1-0.7
					c-0.5,0.5-1.2,0.7-2,0.7c-1,0-2-0.3-3.1-0.9c3.5-3.6,5.3-7.5,5.3-11.8c0-0.8-0.1-1.5-0.2-2c3-3.6,4.5-7.3,4.5-10.9
					c0-1.3-0.2-2.3-0.7-2.9c0.7-0.6,1.4-1,2.3-1c0.8,0,1.6,0.4,2.3,1.1c0.7-0.7,1.5-1.1,2.3-1.1c0.8,0,1.6,0.3,2.3,1
					c-0.4,0.7-0.7,1.6-0.7,2.9c0,3.6,1.5,7.3,4.5,10.9c-0.1,0.6-0.2,1.2-0.2,2c0,4.3,1.8,8.3,5.3,11.8c-1.1,0.6-2.1,0.9-3.1,0.9
					c-0.8,0-1.5-0.2-2-0.7C346.7,360.5,345.6,360.7,344.8,360.7z M339.4,341.4c-1,1.7-1.5,3.4-1.5,5.1c0.6-0.3,1.1-0.4,1.5-0.4
					c0.4,0,0.9,0.1,1.5,0.4C340.9,344.8,340.4,343.1,339.4,341.4z"/>
				<path fill="#0D0D0D" d="M377.7,345.9c-0.6,0.3-1,0.9-1.3,1.8c-0.1,0.4-0.2,0.8-0.2,1.3v6.2c-0.3,1.7-1.2,3-2.9,4
					c-1.6,1-3.6,1.5-5.8,1.5c-2.1,0-4-0.4-5.8-1.3c-0.9,0.7-1.7,1.1-2.6,1.1c-0.9,0-1.7-0.3-2.4-0.9c1-2.1,1.5-4.6,1.5-7.3
					c0-2.9-0.5-5-1.5-6.3c1-1.4,1.5-3.5,1.5-6.3c0-2.7-0.5-5.2-1.5-7.3c0.7-0.6,1.5-1,2.4-1c0.9,0,1.8,0.4,2.6,1.1
					c1.7-0.8,3.6-1.2,5.7-1.2c2.4,0,4.4,0.5,6.2,1.5c1.8,1,2.6,2.3,2.6,3.9v6.3C376.3,344.4,376.8,345.4,377.7,345.9z M370.3,339.4
					c0-1.1-0.3-1.9-0.9-2.5c-0.5-0.5-1.2-0.7-2-0.7c-0.8,0-1.4,0.2-2,0.6c-0.6,0.5-0.9,1.1-0.9,1.8v4c0.1,1.6,0.6,2.6,1.5,3
					c-0.6,0.3-1,0.9-1.3,1.8c-0.1,0.4-0.2,0.8-0.2,1.3v5c0,0.8,0.3,1.4,0.9,1.8c0.6,0.5,1.2,0.7,2,0.7c0.8,0,1.5-0.3,2.1-0.8
					c0.6-0.5,0.9-1.3,0.9-2.4v-4.2c0-1.6-0.5-2.6-1.4-3c0.6-0.3,1-0.9,1.3-1.8c0.1-0.4,0.1-0.8,0.1-1.3V339.4z"/>
				<path fill="#0D0D0D" d="M386.7,359.6c-0.8,0.7-1.6,1.1-2.4,1.1c-0.8,0-1.6-0.3-2.3-1c1-2.2,1.5-4.6,1.5-7.4c0-2.9-0.5-5-1.5-6.4
					c1-1.4,1.5-3.5,1.5-6.4c0-2.8-0.5-5.3-1.5-7.4c0.7-0.6,1.5-1,2.3-1c0.9,0,1.7,0.4,2.4,1.1c0.8-0.7,1.6-1.1,2.5-1.1
					c0.8,0,1.6,0.3,2.3,1c-1,2.2-1.5,4.6-1.5,7.4c0,2.9,0.5,5,1.5,6.4c-1,1.4-1.5,3.5-1.5,6.4c0,2.8,0.5,5.3,1.5,7.4
					c-0.7,0.6-1.5,1-2.3,1C388.3,360.7,387.5,360.3,386.7,359.6z"/>
				<path fill="#0D0D0D" d="M419.2,338c0,0.8-0.3,1.5-0.8,2c-2.3-1.2-4.2-1.8-5.7-1.8c-0.7,0-1.3,0.1-1.8,0.4
					c-0.1,3.3,0.4,5.6,1.5,7.2c-1,1.4-1.5,3.5-1.5,6.4c0,2.8,0.5,5.3,1.5,7.5c-0.7,0.6-1.5,1-2.4,1c-0.8,0-1.7-0.4-2.4-1.1
					c-0.8,0.7-1.6,1.1-2.5,1.1c-0.9,0-1.7-0.3-2.4-1c1-2.2,1.5-4.7,1.5-7.5c0-2.9-0.5-5.1-1.5-6.4c1.1-1.5,1.6-3.8,1.5-7
					c-0.4-0.4-1-0.6-2-0.6c-1.5,0-3.4,0.6-5.7,1.8c-0.5-0.5-0.8-1.2-0.8-2c0-0.9,0.3-1.8,0.8-2.7c-0.5-0.5-0.7-1.1-0.7-2
					c0-0.8,0.2-1.5,0.7-2.1c1.6,0.7,3.4,1.1,5.4,1.1c1.8,0,3.7-0.4,5.5-1.1c1.8,0.7,3.6,1.1,5.4,1.1c2,0,3.9-0.4,5.4-1.1
					c0.5,0.7,0.7,1.4,0.7,2.1c0,0.8-0.2,1.5-0.7,2C419,336.2,419.2,337.1,419.2,338z"/>
				<path fill="#0D0D0D" d="M427.5,359.6c-0.8,0.7-1.6,1.1-2.4,1.1c-0.8,0-1.6-0.3-2.3-1c1-2.2,1.5-4.6,1.5-7.4c0-2.9-0.5-5-1.5-6.4
					c1-1.4,1.5-3.5,1.5-6.4c0-2.8-0.5-5.3-1.5-7.4c0.7-0.6,1.5-1,2.3-1c0.9,0,1.7,0.4,2.4,1.1c0.8-0.7,1.6-1.1,2.5-1.1
					c0.8,0,1.6,0.3,2.3,1c-1,2.2-1.5,4.6-1.5,7.4c0,2.9,0.5,5,1.5,6.4c-1,1.4-1.5,3.5-1.5,6.4c0,2.8,0.5,5.3,1.5,7.4
					c-0.7,0.6-1.5,1-2.3,1C429.1,360.7,428.2,360.3,427.5,359.6z"/>
				<path fill="#0D0D0D" d="M451.7,359.6c-1.3,0.6-2.7,1-4.5,1.1c-1.7-0.1-3.3-0.4-4.5-1c-3-1.4-4.5-3.9-4.5-7.5v-3.4
					c-0.1-1.6-0.6-2.5-1.5-3c0.6-0.3,1.1-0.9,1.3-1.8c0.1-0.4,0.2-0.8,0.2-1.2v-3.2c0-3.5,1.5-5.9,4.5-7.4c1.3-0.6,2.8-1,4.5-1.1
					c1.7,0.1,3.3,0.5,4.5,1.1c3,1.5,4.5,3.9,4.5,7.4v3.2c0.1,1.6,0.6,2.5,1.5,3c-0.6,0.3-1.1,0.9-1.3,1.8c-0.1,0.4-0.2,0.8-0.2,1.2
					v3.4C456.2,355.7,454.7,358.1,451.7,359.6z M450.4,348.8c-0.1-1.6-0.6-2.5-1.5-3c0.6-0.3,1.1-0.9,1.3-1.8
					c0.1-0.4,0.2-0.8,0.2-1.2v-3c0-1.1-0.3-1.9-0.9-2.5c-0.6-0.6-1.3-0.9-2.1-0.9c-0.8,0-1.5,0.3-2.1,0.9c-0.6,0.6-0.9,1.5-0.9,2.5
					v3c0.1,1.6,0.6,2.5,1.5,3c-0.6,0.3-1.1,0.9-1.3,1.8c-0.1,0.4-0.2,0.8-0.2,1.2v3c0,1.1,0.3,2,0.9,2.6c0.6,0.6,1.3,0.9,2.1,0.9
					c0.8,0,1.5-0.3,2.1-0.9c0.6-0.6,0.9-1.5,0.9-2.6V348.8z"/>
				<path fill="#0D0D0D" d="M475.8,343c0.5-1.1,0.8-2.6,0.8-4.6c0-3.1-0.6-5.2-1.7-6.2c0.7-0.6,1.4-1,2.2-1c0.8,0,1.6,0.4,2.3,1.1
					c0.7-0.7,1.5-1.1,2.3-1.1c0.8,0,1.5,0.3,2.2,1l-0.6,1.5c-0.7,1.7-1,3.7-1,5.8c0,2.9,0.5,5.1,1.6,6.5c-1,1.4-1.5,3.5-1.5,6.4
					c0,2.8,0.5,5.3,1.5,7.4c-0.6,0.6-1.3,1-2.1,1c-0.8,0-1.5-0.4-2.2-1.1c-0.7,0.7-1.4,1.1-2.2,1.1c-0.8,0-1.5-0.3-2.1-1
					c1-1.1,1.4-2.5,1.4-4c0-1.7-0.6-3.3-1.7-4.7l-4.5-5.8c-0.9,1.8-1.3,3.9-1.3,6.5c0,2.8,0.6,5.4,1.7,8c-0.7,0.6-1.4,1-2.2,1
					c-0.8,0-1.6-0.4-2.3-1.1c-0.7,0.7-1.5,1.1-2.3,1.1c-0.8,0-1.5-0.3-2.2-1c1-2.2,1.5-4.6,1.5-7.4c0-2.9-0.5-5-1.5-6.4
					c1.1-1.5,1.6-3.6,1.6-6.5c0-2.1-0.3-4.1-1-5.8l-0.6-1.5c0.7-0.6,1.4-1,2.2-1c0.8,0,1.6,0.4,2.3,1.1c0.7-0.7,1.5-1.1,2.3-1.1
					c0.8,0,1.5,0.3,2.2,1c-0.4,0.8-0.6,1.6-0.6,2.4c0,1,0.3,1.9,0.9,2.7L475.8,343z"/>
			</g>
			<g>
				<path fill="#FCFCFC" d="M295.6,333.6c0,0.8-0.3,1.5-0.8,2c-2.3-1.2-4.2-1.8-5.7-1.8c-0.7,0-1.3,0.1-1.8,0.4
					c-0.1,3.3,0.4,5.6,1.5,7.2c-1,1.4-1.5,3.5-1.5,6.4c0,2.8,0.5,5.3,1.5,7.5c-0.7,0.6-1.5,1-2.4,1c-0.8,0-1.7-0.4-2.4-1.1
					c-0.8,0.7-1.6,1.1-2.5,1.1c-0.9,0-1.7-0.3-2.4-1c1-2.2,1.5-4.7,1.5-7.5c0-2.9-0.5-5.1-1.5-6.4c1.1-1.5,1.6-3.8,1.5-7
					c-0.4-0.4-1-0.6-2-0.6c-1.5,0-3.4,0.6-5.7,1.8c-0.5-0.5-0.8-1.2-0.8-2c0-0.9,0.3-1.8,0.8-2.7c-0.5-0.5-0.7-1.1-0.7-2
					c0-0.8,0.2-1.5,0.7-2.1c1.6,0.7,3.4,1.1,5.4,1.1c1.8,0,3.7-0.4,5.5-1.1c1.8,0.7,3.6,1.1,5.4,1.1c2,0,3.9-0.4,5.4-1.1
					c0.5,0.7,0.7,1.4,0.7,2.1c0,0.8-0.2,1.5-0.7,2C295.4,331.8,295.6,332.8,295.6,333.6z"/>
				<path fill="#FCFCFC" d="M318.6,356.3c-2.1,0-4.1-0.8-5.9-2.4c0.8-1,1.1-2,1.1-2.9c0-1.1-0.6-2.4-1.7-3.9c0.4-0.5,0.6-1,0.6-1.6
					c0-0.8-0.3-1.4-1-2c-0.6-0.6-1.4-0.8-2.1-0.8c-0.8,0-1.5,0.3-2,1c-0.6,0.8-0.9,1.9-0.9,3.4c0,3.8,0.7,6.4,2.2,7.9
					c-0.7,0.6-1.5,0.9-2.4,0.9c-0.9,0-1.8-0.4-2.6-1.1c-0.9,0.7-1.7,1.1-2.7,1.1c-0.9,0-1.7-0.3-2.4-0.9c1-2.1,1.5-4.6,1.5-7.3
					c0-2.9-0.5-5-1.5-6.3c1-1.4,1.5-3.5,1.5-6.3c0-2.7-0.5-5.2-1.5-7.3c0.7-0.6,1.5-1,2.4-1c0.9,0,1.8,0.4,2.7,1.1
					c1.7-0.8,3.5-1.2,5.6-1.2c2.4,0,4.4,0.5,6.1,1.5c1.8,1.1,2.7,2.4,2.7,3.9c0,1.6,0.5,2.6,1.4,3c-0.6,0.3-1,0.9-1.3,1.8
					c-0.1,0.4-0.2,0.8-0.2,1.2c-0.1,1.4-1,2.5-2.7,3.3c1,0.4,1.8,1.1,2.2,1.8c0.2,0.3,0.3,0.7,0.3,1.1c0,1.2,0.4,1.9,1.4,2.3
					c0,0,0.1,0.6,0.3,1.6c0.1,1.3,0.4,2.5,0.7,3.4c0.5,1.5,1.2,2.7,2.2,3.7C321.4,356,320,356.3,318.6,356.3z M312.3,334
					c0-0.6-0.2-1-0.7-1.4c-0.5-0.4-1.1-0.6-1.7-0.6c-0.8,0-1.5,0.3-2.1,0.9c-0.6,0.7-1,1.7-1,3c0,1.3,0.3,2.3,1,3
					c0.5,0.6,1.2,0.9,2.1,0.9c0.7,0,1.2-0.2,1.7-0.6c0.5-0.4,0.7-0.9,0.7-1.5c0-0.6-0.3-1.2-0.9-1.8
					C312.1,335.3,312.3,334.6,312.3,334z"/>
				<path fill="#FCFCFC" d="M345.6,356.3c-0.8,0-1.3-0.2-1.6-0.7c0.6-1.3,0.9-2.6,0.9-3.9c0-1.6-0.4-2.9-1.3-4c-0.9-1-2-1.6-3.4-1.6
					c-1.4,0-2.5,0.5-3.4,1.6c-0.9,1-1.3,2.4-1.3,4c0,1.3,0.3,2.6,0.9,3.9c-0.2,0.5-0.7,0.7-1.6,0.7c-0.8,0-1.9-0.2-3.1-0.7
					c-0.5,0.5-1.2,0.7-2,0.7c-1,0-2-0.3-3.1-0.9c3.5-3.6,5.3-7.5,5.3-11.8c0-0.8-0.1-1.5-0.2-2c3-3.6,4.5-7.3,4.5-10.9
					c0-1.3-0.2-2.3-0.7-2.9c0.7-0.6,1.4-1,2.3-1c0.8,0,1.6,0.4,2.3,1.1c0.7-0.7,1.5-1.1,2.3-1.1c0.8,0,1.6,0.3,2.3,1
					c-0.4,0.7-0.7,1.6-0.7,2.9c0,3.6,1.5,7.3,4.5,10.9c-0.1,0.6-0.2,1.2-0.2,2c0,4.3,1.8,8.3,5.3,11.8c-1.1,0.6-2.1,0.9-3.1,0.9
					c-0.8,0-1.5-0.2-2-0.7C347.5,356.1,346.5,356.3,345.6,356.3z M340.3,337.1c-1,1.7-1.5,3.4-1.5,5.1c0.6-0.3,1.1-0.4,1.5-0.4
					c0.4,0,0.9,0.1,1.5,0.4C341.8,340.5,341.3,338.8,340.3,337.1z"/>
				<path fill="#FCFCFC" d="M378.6,341.5c-0.6,0.3-1,0.9-1.3,1.8c-0.1,0.4-0.2,0.8-0.2,1.3v6.2c-0.3,1.7-1.2,3-2.9,4
					c-1.6,1-3.6,1.5-5.8,1.5c-2.1,0-4-0.4-5.8-1.3c-0.9,0.7-1.7,1.1-2.6,1.1c-0.9,0-1.7-0.3-2.4-0.9c1-2.1,1.5-4.6,1.5-7.3
					c0-2.9-0.5-5-1.5-6.3c1-1.4,1.5-3.5,1.5-6.3c0-2.7-0.5-5.2-1.5-7.3c0.7-0.6,1.5-1,2.4-1c0.9,0,1.8,0.4,2.6,1.1
					c1.7-0.8,3.6-1.2,5.7-1.2c2.4,0,4.4,0.5,6.2,1.5c1.8,1,2.6,2.3,2.6,3.9v6.3C377.2,340,377.7,341.1,378.6,341.5z M371.2,335.1
					c0-1.1-0.3-1.9-0.9-2.5c-0.5-0.5-1.2-0.7-2-0.7c-0.8,0-1.4,0.2-2,0.6c-0.6,0.5-0.9,1.1-0.9,1.8v4c0.1,1.6,0.6,2.6,1.5,3
					c-0.6,0.3-1,0.9-1.3,1.8c-0.1,0.4-0.2,0.8-0.2,1.3v5c0,0.8,0.3,1.4,0.9,1.8c0.6,0.5,1.2,0.7,2,0.7c0.8,0,1.5-0.3,2.1-0.8
					c0.6-0.5,0.9-1.3,0.9-2.4v-4.2c0-1.6-0.5-2.6-1.4-3c0.6-0.3,1-0.9,1.3-1.8c0.1-0.4,0.1-0.8,0.1-1.3V335.1z"/>
				<path fill="#FCFCFC" d="M387.6,355.3c-0.8,0.7-1.6,1.1-2.4,1.1c-0.8,0-1.6-0.3-2.3-1c1-2.2,1.5-4.6,1.5-7.4c0-2.9-0.5-5-1.5-6.4
					c1-1.4,1.5-3.5,1.5-6.4c0-2.8-0.5-5.3-1.5-7.4c0.7-0.6,1.5-1,2.3-1c0.9,0,1.7,0.4,2.4,1.1c0.8-0.7,1.6-1.1,2.5-1.1
					c0.8,0,1.6,0.3,2.3,1c-1,2.2-1.5,4.6-1.5,7.4c0,2.9,0.5,5,1.5,6.4c-1,1.4-1.5,3.5-1.5,6.4c0,2.8,0.5,5.3,1.5,7.4
					c-0.7,0.6-1.5,1-2.3,1C389.2,356.3,388.4,356,387.6,355.3z"/>
				<path fill="#FCFCFC" d="M420.1,333.6c0,0.8-0.3,1.5-0.8,2c-2.3-1.2-4.2-1.8-5.7-1.8c-0.7,0-1.3,0.1-1.8,0.4
					c-0.1,3.3,0.4,5.6,1.5,7.2c-1,1.4-1.5,3.5-1.5,6.4c0,2.8,0.5,5.3,1.5,7.5c-0.7,0.6-1.5,1-2.4,1c-0.8,0-1.7-0.4-2.4-1.1
					c-0.8,0.7-1.6,1.1-2.5,1.1c-0.9,0-1.7-0.3-2.4-1c1-2.2,1.5-4.7,1.5-7.5c0-2.9-0.5-5.1-1.5-6.4c1.1-1.5,1.6-3.8,1.5-7
					c-0.4-0.4-1-0.6-2-0.6c-1.5,0-3.4,0.6-5.7,1.8c-0.5-0.5-0.8-1.2-0.8-2c0-0.9,0.3-1.8,0.8-2.7c-0.5-0.5-0.7-1.1-0.7-2
					c0-0.8,0.2-1.5,0.7-2.1c1.6,0.7,3.4,1.1,5.4,1.1c1.8,0,3.7-0.4,5.5-1.1c1.8,0.7,3.6,1.1,5.4,1.1c2,0,3.9-0.4,5.4-1.1
					c0.5,0.7,0.7,1.4,0.7,2.1c0,0.8-0.2,1.5-0.7,2C419.9,331.8,420.1,332.8,420.1,333.6z"/>
				<path fill="#FCFCFC" d="M428.3,355.3c-0.8,0.7-1.6,1.1-2.4,1.1c-0.8,0-1.6-0.3-2.3-1c1-2.2,1.5-4.6,1.5-7.4c0-2.9-0.5-5-1.5-6.4
					c1-1.4,1.5-3.5,1.5-6.4c0-2.8-0.5-5.3-1.5-7.4c0.7-0.6,1.5-1,2.3-1c0.9,0,1.7,0.4,2.4,1.1c0.8-0.7,1.6-1.1,2.5-1.1
					c0.8,0,1.6,0.3,2.3,1c-1,2.2-1.5,4.6-1.5,7.4c0,2.9,0.5,5,1.5,6.4c-1,1.4-1.5,3.5-1.5,6.4c0,2.8,0.5,5.3,1.5,7.4
					c-0.7,0.6-1.5,1-2.3,1C429.9,356.3,429.1,356,428.3,355.3z"/>
				<path fill="#FCFCFC" d="M452.6,355.2c-1.3,0.6-2.7,1-4.5,1.1c-1.7-0.1-3.3-0.4-4.5-1c-3-1.4-4.5-3.9-4.5-7.5v-3.4
					c-0.1-1.6-0.6-2.5-1.5-3c0.6-0.3,1.1-0.9,1.3-1.8c0.1-0.4,0.2-0.8,0.2-1.2v-3.2c0-3.5,1.5-5.9,4.5-7.4c1.3-0.6,2.8-1,4.5-1.1
					c1.7,0.1,3.3,0.5,4.5,1.1c3,1.5,4.5,3.9,4.5,7.4v3.2c0.1,1.6,0.6,2.5,1.5,3c-0.6,0.3-1.1,0.9-1.3,1.8c-0.1,0.4-0.2,0.8-0.2,1.2
					v3.4C457.1,351.3,455.6,353.8,452.6,355.2z M451.2,344.5c-0.1-1.6-0.6-2.5-1.5-3c0.6-0.3,1.1-0.9,1.3-1.8
					c0.1-0.4,0.2-0.8,0.2-1.2v-3c0-1.1-0.3-1.9-0.9-2.5c-0.6-0.6-1.3-0.9-2.1-0.9c-0.8,0-1.5,0.3-2.1,0.9c-0.6,0.6-0.9,1.5-0.9,2.5
					v3c0.1,1.6,0.6,2.5,1.5,3c-0.6,0.3-1.1,0.9-1.3,1.8c-0.1,0.4-0.2,0.8-0.2,1.2v3c0,1.1,0.3,2,0.9,2.6c0.6,0.6,1.3,0.9,2.1,0.9
					c0.8,0,1.5-0.3,2.1-0.9c0.6-0.6,0.9-1.5,0.9-2.6V344.5z"/>
				<path fill="#FCFCFC" d="M476.7,338.6c0.5-1.1,0.8-2.6,0.8-4.6c0-3.1-0.6-5.2-1.7-6.2c0.7-0.6,1.4-1,2.2-1c0.8,0,1.6,0.4,2.3,1.1
					c0.7-0.7,1.5-1.1,2.3-1.1c0.8,0,1.5,0.3,2.2,1l-0.6,1.5c-0.7,1.7-1,3.7-1,5.8c0,2.9,0.5,5.1,1.6,6.5c-1,1.4-1.5,3.5-1.5,6.4
					c0,2.8,0.5,5.3,1.5,7.4c-0.6,0.6-1.3,1-2.1,1c-0.8,0-1.5-0.4-2.2-1.1c-0.7,0.7-1.4,1.1-2.2,1.1c-0.8,0-1.5-0.3-2.1-1
					c1-1.1,1.4-2.5,1.4-4c0-1.7-0.6-3.3-1.7-4.7l-4.5-5.8c-0.9,1.8-1.3,3.9-1.3,6.5c0,2.8,0.6,5.4,1.7,8c-0.7,0.6-1.4,1-2.2,1
					c-0.8,0-1.6-0.4-2.3-1.1c-0.7,0.7-1.5,1.1-2.3,1.1c-0.8,0-1.5-0.3-2.2-1c1-2.2,1.5-4.6,1.5-7.4c0-2.9-0.5-5-1.5-6.4
					c1.1-1.5,1.6-3.6,1.6-6.5c0-2.1-0.3-4.1-1-5.8l-0.6-1.5c0.7-0.6,1.4-1,2.2-1c0.8,0,1.6,0.4,2.3,1.1c0.7-0.7,1.5-1.1,2.3-1.1
					c0.8,0,1.5,0.3,2.2,1c-0.4,0.8-0.6,1.6-0.6,2.4c0,1,0.3,1.9,0.9,2.7L476.7,338.6z"/>
			</g>
			<g id="must_1_">
				<g id="trad_shadow_1_">
					<path fill="#0D0D0D" d="M416.4,386.3c6.2-2.4,12.5,4.7,6.6,9c-11.4,4.9-28.3-24.5-45.6-8.8c-17.3-15.7-34.2,13.7-45.6,8.8
						c-6-4.3,0.3-11.4,6.6-9c-3.9-6-17.3-1.1-13.2,11.6c3.3,9.9,23.4,19.4,52.3,0.9c28.9,18.5,49,9,52.3-0.9
						C433.7,385.2,420.3,380.3,416.4,386.3z"/>
				</g>
				<path fill="#FCFCFC" d="M417.3,381.9c6.2-2.4,12.5,4.7,6.6,9c-11.4,4.9-28.3-24.5-45.6-8.8c-17.3-15.7-34.2,13.7-45.6,8.8
					c-6-4.3,0.3-11.4,6.6-9c-3.9-6-17.3-1.1-13.2,11.6c3.3,9.9,23.4,19.4,52.3,0.9c28.9,18.5,49,9,52.3-0.9
					C434.6,380.8,421.2,375.9,417.3,381.9z"/>
				<g>
					<defs>
						<path id="SVGID_1_" d="M417.3,381.9c6.2-2.4,12.5,4.7,6.6,9c-11.4,4.9-28.3-24.5-45.6-8.8c-17.3-15.7-34.2,13.7-45.6,8.8
							c-6-4.3,0.3-11.4,6.6-9c-3.9-6-17.3-1.1-13.2,11.6c3.3,9.9,23.4,19.4,52.3,0.9c28.9,18.5,49,9,52.3-0.9
							C434.6,380.8,421.2,375.9,417.3,381.9z"/>
					</defs>
					<clipPath id="SVGID_2_">
						<use xlink:href="#SVGID_1_"  overflow="visible"/>
					</clipPath>
					<g clip-path="url(#SVGID_2_)">
						<g>
							<polygon fill-rule="evenodd" clip-rule="evenodd" fill="#B0102D" points="248.6,425.1 238.7,425.1 297.3,354.3 307.3,354.3 
															"/>
							<polygon fill-rule="evenodd" clip-rule="evenodd" fill="#B0102D" points="285.4,425.1 275.5,425.1 334.1,354.3 344,354.3 
															"/>
							<polygon fill-rule="evenodd" clip-rule="evenodd" fill="#B0102D" points="322.1,425.1 312.2,425.1 370.8,354.3 380.7,354.3 
															"/>
							<polygon fill-rule="evenodd" clip-rule="evenodd" fill="#B0102D" points="358.8,425.1 348.9,425.1 407.5,354.3 417.5,354.3 
															"/>
							<polygon fill-rule="evenodd" clip-rule="evenodd" fill="#B0102D" points="395.6,425.1 385.7,425.1 444.3,354.3 454.2,354.3 
															"/>
							<polygon fill-rule="evenodd" clip-rule="evenodd" fill="#B0102D" points="432.3,425.1 422.4,425.1 481,354.3 490.9,354.3 
															"/>
							<polygon fill-rule="evenodd" clip-rule="evenodd" fill="#B0102D" points="469,425.1 459.1,425.1 517.7,354.3 527.6,354.3 
															"/>
						</g>
						<g>
							<polygon fill-rule="evenodd" clip-rule="evenodd" fill="#1C4752" points="266.5,425.1 256.6,425.1 315.2,354.3 325.1,354.3 
															"/>
							<polygon fill-rule="evenodd" clip-rule="evenodd" fill="#1C4752" points="303.2,425.1 293.3,425.1 351.9,354.3 361.8,354.3 
															"/>
							<polygon fill-rule="evenodd" clip-rule="evenodd" fill="#1C4752" points="340,425.1 330.1,425.1 388.7,354.3 398.6,354.3 
															"/>
							<polygon fill-rule="evenodd" clip-rule="evenodd" fill="#1C4752" points="376.7,425.1 366.8,425.1 425.4,354.3 435.3,354.3 
															"/>
							<polygon fill-rule="evenodd" clip-rule="evenodd" fill="#1C4752" points="413.4,425.1 403.5,425.1 462.1,354.3 472,354.3 
															"/>
							<polygon fill-rule="evenodd" clip-rule="evenodd" fill="#1C4752" points="450.2,425.1 440.3,425.1 498.9,354.3 508.8,354.3 
															"/>
							<polygon fill-rule="evenodd" clip-rule="evenodd" fill="#1C4752" points="486.9,425.1 477,425.1 535.6,354.3 545.5,354.3 
															"/>
						</g>
					</g>
				</g>
			</g>
		</g>
		<g id="its_decor">
			<path fill="#333335" d="M411,305.7c0.5-0.7,1-1.4,1.2-2.2c-0.1,0-0.3,0.1-0.4,0.1c-1.3,0.1-2.4-1.4-2.5-3.3
				c-0.1-1.9,0.8-3.5,2-3.6c1.3-0.1,2.4,1.4,2.5,3.3c0,0.2,0,0.3,0,0.5c0,1.5-0.3,3-1,4.3c-0.7,1.4-1.9,2.5-3.2,3.4
				c4.5-0.4,9,0,13.4,0.6c4.5,0.5,8.9,1.2,13.4,2c4.5,0.7,8.9,1.5,13.4,2.3c2.1,0.4,4.1,0.7,6.2,1c1.9,0.3,3.7,0.4,5.6,0.3
				c1.1-0.1,2.2-0.2,3.3-0.5c0.5-0.1,1-0.3,1.5-0.6c0.2-0.1,0.3-0.2,0.4-0.4c0-0.1,0.1-0.3-0.1-0.3c0,0-0.2,0.1-0.3,0.1
				c-0.1,0-0.2,0-0.2,0c-0.2-0.1-0.4-0.2-0.6-0.4c-0.2-0.3-0.4-0.7-0.1-1c0.6-0.6,1.5,0.4,1.7,0.9c0.4,1-0.8,1.6-1.6,1.8
				c-1.1,0.3-2.3,0.4-3.4,0.5c-1.1,0.1-2.2,0.1-3.2,0c1.4,0.2,2.8,0.4,4.2,0.6c2.2,0.3,4.4,0.5,6.7,0.6c2.2,0.1,4.5,0.2,6.7-0.1
				c1-0.1,2.1-0.3,3.1-0.7c0.9-0.4,1.7-0.9,2.2-1.7c0.6-0.8,0.8-1.7,0.7-2.7c-0.1-0.9-0.6-1.8-1.1-2.6c-1.1-1.6-2.8-2.9-4.4-4
				c-1.8-1.1-3.7-2.1-5.6-2.9c-2-0.8-4.1-1.5-6.2-2c-2.1-0.5-4.3-0.9-6.4-0.9c-1,0-2.1,0-3.1,0.4c-0.3,0.1-0.7,0.3-0.9,0.7
				c-0.2,0.4-0.1,0.9,0,1.3c0.1,0.2,0.2,0.5,0.3,0.7c0.1,0.2,0.2,0.5,0.3,0.6c0.3,0.3,0.7,0.5,1.1,0.6c0.7,0.2,1.5,0.2,2.3,0.3
				c0.7,0,1.5,0.1,2.1,0.5c0.7,0.5,1.3,1.2,1.6,2c0.2,0.7,0.1,1.4-0.4,1.9c-0.5,0.6-1.2,1-2,1.1c-0.8,0.1-1.5-0.3-2.1-0.7
				c-0.4-0.3-0.8-0.6-1.3-0.9c-0.4-0.3-0.8-0.6-1.2-1c-1.4-1.3-2.8-3-3.2-4.9c-0.2-0.9-0.1-1.9,0.5-2.7c0.6-0.8,1.5-1.3,2.5-1.5
				c2-0.5,4.1-0.2,6.1,0.2c4.2,0.9,8.3,2.5,12.1,4.5c1.9,1,3.7,2.1,5.3,3.4c1.5,1.2,3,2.6,3.8,4.3c0.4,0.9,0.6,1.9,0.5,2.9
				c-0.2,0.9-0.6,1.8-1.3,2.5c-1.3,1.5-3.6,2-5.5,2.2c-2.2,0.3-4.5,0.3-6.7,0.2c-2.2-0.1-4.4-0.3-6.7-0.5c-4.5-0.5-8.9-1.1-13.4-1.8
				c-4.5-0.7-8.9-1.4-13.4-2.1c-4.5-0.7-8.9-1.4-13.4-1.9c-4.5-0.5-9-1-13.5-0.9c-0.5,0-1.1,0-1.6,0.1c-0.3,0-0.5,0-0.8,0.1
				c-0.1,0-0.5,0.1-0.5,0c0,0,0-0.2-0.1-0.2c0-0.1-0.1-0.2-0.1-0.4c0-0.1-0.1-0.3-0.1-0.4C408.1,308.3,409.8,307.2,411,305.7z"/>
			<path fill="#333335" d="M345.3,305.7c-0.5-0.7-1-1.4-1.2-2.2c0.1,0,0.3,0.1,0.4,0.1c1.3,0.1,2.4-1.4,2.5-3.3
				c0.1-1.9-0.8-3.5-2-3.6s-2.4,1.4-2.5,3.3c0,0.2,0,0.3,0,0.5c0,1.5,0.3,3,1,4.3c0.7,1.4,1.9,2.5,3.2,3.4c-4.5-0.4-9,0-13.4,0.6
				c-4.5,0.5-8.9,1.2-13.4,2c-4.5,0.7-8.9,1.5-13.4,2.3c-2.1,0.4-4.1,0.7-6.2,1c-1.9,0.3-3.7,0.4-5.6,0.3c-1.1-0.1-2.2-0.2-3.3-0.5
				c-0.5-0.1-1-0.3-1.5-0.6c-0.2-0.1-0.3-0.2-0.4-0.4c0-0.1-0.1-0.3,0.1-0.3c0,0,0.2,0.1,0.3,0.1c0.1,0,0.2,0,0.2,0
				c0.2-0.1,0.4-0.2,0.6-0.4c0.2-0.3,0.4-0.7,0.1-1c-0.6-0.6-1.5,0.4-1.7,0.9c-0.4,1,0.8,1.6,1.6,1.8c1.1,0.3,2.3,0.4,3.4,0.5
				c1.1,0.1,2.2,0.1,3.2,0c-1.4,0.2-2.8,0.4-4.2,0.6c-2.2,0.3-4.4,0.5-6.7,0.6c-2.2,0.1-4.5,0.2-6.7-0.1c-1-0.1-2.1-0.3-3.1-0.7
				c-0.9-0.4-1.7-0.9-2.2-1.7c-0.6-0.8-0.8-1.7-0.7-2.7c0.1-0.9,0.6-1.8,1.1-2.6c1.1-1.6,2.8-2.9,4.4-4c1.8-1.1,3.7-2.1,5.6-2.9
				c2-0.8,4.1-1.5,6.2-2c2.1-0.5,4.3-0.9,6.4-0.9c1,0,2.1,0,3.1,0.4c0.3,0.1,0.7,0.3,0.9,0.7c0.2,0.4,0.1,0.9,0,1.3
				c-0.1,0.2-0.2,0.5-0.3,0.7c-0.1,0.2-0.2,0.5-0.3,0.6c-0.3,0.3-0.7,0.5-1.1,0.6c-0.7,0.2-1.5,0.2-2.3,0.3c-0.7,0-1.5,0.1-2.1,0.5
				c-0.7,0.5-1.3,1.2-1.6,2c-0.2,0.7-0.1,1.4,0.4,1.9c0.5,0.6,1.2,1,2,1.1c0.8,0.1,1.5-0.3,2.1-0.7c0.4-0.3,0.8-0.6,1.3-0.9
				c0.4-0.3,0.8-0.6,1.2-1c1.4-1.3,2.8-3,3.2-4.9c0.2-0.9,0.1-1.9-0.5-2.7c-0.6-0.8-1.5-1.3-2.5-1.5c-2-0.5-4.1-0.2-6.1,0.2
				c-4.2,0.9-8.3,2.5-12.1,4.5c-1.9,1-3.7,2.1-5.3,3.4c-1.5,1.2-3,2.6-3.8,4.3c-0.4,0.9-0.6,1.9-0.5,2.9c0.2,0.9,0.6,1.8,1.3,2.5
				c1.3,1.5,3.6,2,5.5,2.2c2.2,0.3,4.5,0.3,6.7,0.2c2.2-0.1,4.4-0.3,6.7-0.5c4.5-0.5,8.9-1.1,13.4-1.8c4.5-0.7,8.9-1.4,13.4-2.1
				c4.5-0.7,8.9-1.4,13.4-1.9c4.5-0.5,9-1,13.5-0.9c0.5,0,1.1,0,1.6,0.1c0.3,0,0.5,0,0.8,0.1c0.1,0,0.5,0.1,0.5,0c0,0,0-0.2,0.1-0.2
				c0-0.1,0.1-0.2,0.1-0.4c0-0.1,0.1-0.3,0.1-0.4C348.2,308.3,346.4,307.2,345.3,305.7z"/>
		</g>
		<g id="its">
			<path d="M368.3,308.3c-0.1,0.2-0.2,0.5-0.4,0.8c-0.1,0.3-0.3,0.6-0.4,1c-0.1,0.3-0.2,0.7-0.2,1c0,0.3,0,0.6,0.1,0.8
				c0.1,0.2,0.2,0.3,0.4,0.4c0.2,0.1,0.4,0.1,0.7,0c0.3-0.1,0.7-0.3,1.1-0.7c0.5-0.4,0.9-0.8,1.4-1.3c0.5-0.5,0.9-0.9,1.3-1.4
				c0.4-0.4,0.6-0.8,0.8-1v1.6c-0.1,0.2-0.3,0.4-0.6,0.8c-0.3,0.3-0.6,0.7-1,1.1c-0.4,0.4-0.7,0.8-1.1,1.1c-0.4,0.4-0.7,0.6-0.9,0.9
				c-0.6,0.6-1.2,1-1.8,1.2c-0.6,0.3-1.2,0.3-1.8,0.3c-0.4,0-0.7-0.2-1-0.4c-0.3-0.2-0.5-0.5-0.6-0.8c-0.2-0.4-0.3-0.9-0.3-1.4
				c0-0.5,0-1,0.1-1.6c0.1-0.5,0.2-1.1,0.4-1.6c0.2-0.5,0.4-1.1,0.6-1.5c0.5-1,0.9-1.8,1.2-2.6c0.3-0.7,0.6-1.3,0.8-1.8
				c0.3-0.5,0.4-0.8,0.4-0.8c0.1-0.2,0.2-0.4,0.3-0.5c0-0.1,0.1-0.2,0.2-0.2c0.1,0,0.1-0.1,0.2-0.1c0.1,0,0.3,0,0.5,0h2.2
				c0.3,0,0.5,0.1,0.5,0.2c0,0.1-0.1,0.3-0.2,0.5L368.3,308.3z M371.2,295.7c0.3-0.1,0.7-0.1,1,0.1c0.3,0.1,0.5,0.3,0.6,0.7
				c0.1,0.4,0.2,0.8,0.1,1.2c-0.1,0.4-0.2,0.9-0.5,1.3c-0.2,0.4-0.5,0.8-0.8,1.1c-0.3,0.3-0.7,0.5-1.1,0.5c-0.6,0-1.1-0.1-1.4-0.5
				c-0.1-0.2-0.2-0.5-0.2-0.8c0-0.4,0.1-0.8,0.3-1.2c0.2-0.4,0.5-0.9,0.9-1.3C370.4,296.1,370.8,295.8,371.2,295.7z"/>
			<path d="M379.6,301.6c0.1,0,0.3,0,0.6,0.1c0.2,0,0.4,0,0.5,0.1c0.4,0.1,0.6,0.2,0.7,0.4s0.1,0.3,0.1,0.5c0,0.2,0,0.4-0.1,0.6
				c0,0.2-0.2,0.4-0.4,0.5c-0.4,0.1-0.9,0.2-1.5,0.2c-0.6,0-1.1,0-1.6,0l-0.9,1.8c-0.3,0.5-0.5,1.1-0.8,1.7
				c-0.3,0.6-0.5,1.1-0.7,1.7c-0.2,0.5-0.3,1-0.4,1.4c-0.1,0.4-0.1,0.7,0,0.9c0.1,0.3,0.4,0.5,0.7,0.6c0.3,0.1,0.7,0,1-0.1
				c0.3-0.1,0.6-0.3,1-0.7c0.4-0.3,0.8-0.7,1.2-1.2c0.4-0.4,0.8-0.8,1.1-1.3c0.4-0.4,0.6-0.8,0.9-1v1.6c-0.3,0.3-0.6,0.8-1.1,1.4
				c-0.5,0.6-1,1.1-1.7,1.7c-0.8,0.7-1.6,1.3-2.4,1.6c-0.8,0.4-1.6,0.5-2.3,0.4c-0.3,0-0.7-0.2-1-0.3c-0.3-0.2-0.6-0.5-0.8-1
				c-0.2-0.4-0.3-0.9-0.2-1.4c0-0.5,0.1-1.1,0.3-1.7c0.2-0.6,0.4-1.2,0.6-1.7c0.2-0.6,0.4-1.1,0.6-1.5l1.2-3c-0.2,0-0.5,0-0.7-0.1
				c-0.3,0-0.5-0.2-0.7-0.5c-0.1-0.1-0.1-0.3-0.1-0.5c0-0.2,0.1-0.4,0.1-0.6c0.1-0.2,0.2-0.4,0.3-0.5c0.1-0.1,0.3-0.2,0.5-0.3
				c0.4,0,0.8-0.1,1.1-0.1c0.3,0,0.6,0,0.9-0.1c0-0.1,0.1-0.2,0.3-0.4c0.1-0.2,0.3-0.5,0.5-0.8c0.2-0.3,0.4-0.6,0.6-0.9
				c0.2-0.3,0.4-0.6,0.6-0.9c0.2-0.3,0.3-0.5,0.5-0.7c0.1-0.2,0.3-0.4,0.4-0.6c0.1-0.2,0.3-0.4,0.4-0.6c0.2-0.2,0.3-0.5,0.6-0.8
				c0.3-0.4,0.5-0.7,0.7-0.9c0.2-0.2,0.3-0.3,0.5-0.4c0.2-0.1,0.4-0.1,0.6-0.1c0.2,0,0.6,0,1,0c0.3,0,0.6,0,0.8,0
				c0.2,0,0.4,0.2,0.5,0.5c0,0.2-0.1,0.5-0.5,1.1c-0.4,0.5-0.9,1.3-1.5,2.3c-0.3,0.4-0.5,0.9-0.8,1.3c-0.2,0.4-0.5,0.7-0.7,1.1
				C379.9,301,379.7,301.3,379.6,301.6z"/>
			<path d="M389.4,299.6c0,0.1,0,0.4,0,0.6c0,0.3-0.2,0.5-0.3,0.7c-0.1,0.1-0.2,0.2-0.3,0.3c0,0-0.2,0.2-0.4,0.4
				c-0.1,0.1-0.2,0.2-0.2,0.4c0,0.1-0.1,0.2-0.1,0.4c-0.1,0.4-0.1,0.8-0.1,1.2c0.1,0.5,0.2,0.9,0.3,1.4c0.1,0.5,0.1,0.9,0.2,1.3
				c0.1,0.4,0.1,0.8,0.1,1.4c0,1.6-0.1,3-0.4,4.3c0.2-0.1,0.5-0.3,0.9-0.7c0.4-0.3,0.7-0.7,1.1-1.1c0.4-0.4,0.8-0.8,1.1-1.2
				c0.4-0.4,0.6-0.8,0.8-1v1.6c-1.7,2.1-3.2,3.6-4.5,4.4c-1.3,0.9-2.6,1.1-3.9,0.8c-0.5-0.1-1-0.4-1.5-0.7c-0.5-0.3-0.9-0.8-1.1-1.3
				c-0.1-0.3-0.3-0.7-0.3-1.2c-0.1-0.5-0.1-1-0.1-1.5c0-0.5,0-1.1,0.1-1.6c0-0.5,0.1-1,0.2-1.3c0.1,0,0.3-0.1,0.4-0.3
				c0.1-0.1,0.3-0.2,0.4-0.3c0.4-0.5,0.8-1,1.3-1.4c0.4-0.4,0.7-0.8,1.1-1.3c0.4-0.4,0.7-0.8,1.1-1.2c0.2-0.2,0.4-0.4,0.6-0.7
				c0.2-0.3,0.4-0.5,0.6-0.8c0.2-0.3,0.4-0.5,0.6-0.8c0.2-0.2,0.4-0.5,0.6-0.7c0.2-0.2,0.4-0.3,0.6-0.4c0.2-0.1,0.4-0.1,0.7-0.1
				C389.1,299.2,389.3,299.3,389.4,299.6z M382.9,307.1c0.2,0.6,0.2,1.3,0,1.9c-0.2,0.6-0.5,1-1,1.2c0,0.3,0.1,0.6,0.3,1
				c0.1,0.4,0.4,0.6,0.9,0.8c0.4,0.1,0.7,0.2,1.1,0.1c0.4-0.1,0.7-0.3,1-0.6c0.5-0.4,0.8-1,1-1.7c0.2-0.7,0.3-1.4,0.3-2.1
				c0-0.8-0.1-1.5-0.2-2.2c-0.1-0.7-0.2-1.2-0.3-1.6c-0.7,0.6-1.3,1.1-1.7,1.7C383.7,305.9,383.3,306.5,382.9,307.1z"/>
		</g>
		<g id="its_not">
			<g id="_its_not_1_">
				<path fill="#FFFFFF" d="M202.3,283.4c-0.6,0.6-1.3,0.9-2.1,0.9c-0.7,0-1.4-0.3-2-0.8c0.9-1.8,1.3-3.9,1.3-6.3
					c0-2.5-0.4-4.3-1.3-5.4c0.9-1.2,1.3-3,1.3-5.4c0-2.4-0.4-4.5-1.3-6.3c0.6-0.5,1.3-0.8,2-0.8c0.7,0,1.4,0.3,2.1,0.9
					c0.7-0.6,1.4-0.9,2.1-0.9c0.7,0,1.4,0.3,2,0.8c-0.9,1.8-1.3,3.9-1.3,6.3c0,2.5,0.4,4.3,1.3,5.4c-0.9,1.2-1.3,3-1.3,5.4
					c0,2.4,0.4,4.5,1.3,6.3c-0.6,0.5-1.3,0.8-2,0.8C203.6,284.3,202.9,284,202.3,283.4z"/>
				<path fill="#FFFFFF" d="M226,265c0,0.7-0.2,1.3-0.7,1.7c-1.9-1-3.6-1.5-4.8-1.5c-0.6,0-1.1,0.1-1.5,0.3
					c-0.1,2.8,0.3,4.8,1.3,6.1c-0.9,1.2-1.3,3-1.3,5.5c0,2.4,0.4,4.5,1.3,6.4c-0.6,0.5-1.3,0.8-2,0.8c-0.7,0-1.4-0.3-2.1-0.9
					c-0.7,0.6-1.4,0.9-2.1,0.9c-0.7,0-1.4-0.3-2-0.8c0.9-1.9,1.3-4,1.3-6.4c0-2.5-0.4-4.3-1.3-5.5c0.9-1.3,1.4-3.2,1.3-5.9
					c-0.3-0.3-0.9-0.5-1.7-0.5c-1.3,0-2.9,0.5-4.8,1.5c-0.4-0.5-0.7-1-0.7-1.7c0-0.7,0.2-1.5,0.7-2.3c-0.4-0.4-0.6-1-0.6-1.7
					c0-0.6,0.2-1.3,0.6-1.8c1.3,0.6,2.9,0.9,4.6,0.9c1.6,0,3.1-0.3,4.7-0.9c1.5,0.6,3.1,0.9,4.6,0.9c1.7,0,3.3-0.3,4.6-0.9
					c0.4,0.6,0.6,1.2,0.6,1.8c0,0.7-0.2,1.2-0.6,1.7C225.8,263.5,226,264.2,226,265z"/>
				<path fill="#FFFFFF" d="M237.5,266.3c-1.2-2.2-2.6-3.4-4.2-3.4c-0.8,0-1.5,0.3-2,0.8c-0.5,0.5-0.8,1.2-0.8,1.9
					c0,0.7,0.3,1.4,0.8,2c0.7,0.6,1.5,0.9,2.3,0.9c0.5,0,0.9-0.1,1.3-0.3c0.2,0.6,0.7,1.3,1.6,2c0.4,0.3,0.8,0.6,1.3,0.9
					c2.4,1.3,3.6,3.3,3.6,5.9c0,1.9-0.7,3.6-2.1,5c-1.6,1.5-3.7,2.3-6.3,2.3c-1.3,0-2.7-0.2-4.1-0.6c-0.3-0.1-0.8-0.3-1.4-0.6
					c-0.5-0.3-0.9-0.4-1.3-0.4c-0.6,0-1.2,0.3-1.9,0.8c0-0.2-0.1-0.5-0.1-0.7c0-1.2,0.4-2.1,1.3-2.6c-0.3-0.4-0.4-0.8-0.4-1.4
					c0-0.8,0.2-1.6,0.6-2.5c0.8,1.4,1.8,2.4,3.2,3.2c1.2,0.6,2.4,1,3.6,1c1,0,1.9-0.2,2.6-0.7c0.7-0.4,1-1,1-1.8
					c0-0.8-0.4-1.6-1.1-2.4c-0.7-0.6-1.6-0.9-2.7-0.9c-0.5,0-1,0.1-1.5,0.2c-0.1-1.5-0.7-2.4-1.9-2.8c-2.3-1.3-3.4-3.2-3.4-5.6
					c0-1.9,0.7-3.6,2-5c1.4-1.5,3.2-2.3,5.2-2.3c1.2,0,2.4,0.3,3.6,0.9c0.3,0.2,0.5,0.3,0.8,0.5c0.3,0.1,0.6,0.2,0.9,0.2
					c0.3,0,0.8,0,1.5-0.1c0,0.2,0.1,0.4,0.1,0.6c0,0.8-0.3,1.5-1,2.2C238.6,264.5,238.3,265.4,237.5,266.3z"/>
				<path fill="#FFFFFF" d="M265.8,269.2c0.5-0.9,0.7-2.3,0.7-3.9c0-2.6-0.5-4.4-1.4-5.3c0.6-0.5,1.2-0.8,1.9-0.8
					c0.7,0,1.3,0.3,1.9,0.9c0.6-0.6,1.3-0.9,1.9-0.9c0.7,0,1.3,0.3,1.9,0.8l-0.5,1.3c-0.6,1.5-0.9,3.1-0.9,4.9
					c0,2.5,0.5,4.3,1.4,5.6c-0.9,1.2-1.3,3-1.3,5.4c0,2.4,0.4,4.5,1.3,6.3c-0.5,0.5-1.1,0.8-1.8,0.8c-0.7,0-1.3-0.3-1.9-0.9
					c-0.6,0.6-1.2,0.9-1.9,0.9c-0.6,0-1.2-0.3-1.8-0.8c0.8-1,1.2-2.1,1.2-3.4c0-1.4-0.5-2.8-1.5-4l-3.8-4.9
					c-0.7,1.5-1.1,3.4-1.1,5.5c0,2.3,0.5,4.6,1.4,6.8c-0.6,0.5-1.2,0.8-1.9,0.8c-0.7,0-1.3-0.3-1.9-0.9c-0.6,0.6-1.3,0.9-2,0.9
					c-0.7,0-1.3-0.3-1.9-0.8c0.9-1.8,1.3-3.9,1.3-6.3c0-2.5-0.4-4.3-1.3-5.4c0.9-1.2,1.4-3.1,1.4-5.6c0-1.8-0.3-3.4-0.8-4.9L254,260
					c0.6-0.5,1.2-0.8,1.9-0.8c0.7,0,1.4,0.3,2,0.9c0.6-0.6,1.3-0.9,1.9-0.9c0.7,0,1.3,0.3,1.9,0.8c-0.3,0.7-0.5,1.4-0.5,2
					c0,0.9,0.3,1.6,0.8,2.3L265.8,269.2z"/>
				<path fill="#FFFFFF" d="M285.3,283.3c-1.1,0.5-2.3,0.8-3.8,0.9c-1.5-0.1-2.8-0.4-3.8-0.8c-2.6-1.2-3.8-3.3-3.8-6.4v-2.9
					c-0.1-1.3-0.5-2.2-1.3-2.5c0.5-0.3,0.9-0.8,1.1-1.5c0.1-0.3,0.1-0.7,0.2-1v-2.7c0-3,1.3-5,3.8-6.3c1.1-0.5,2.3-0.8,3.8-0.9
					c1.5,0.1,2.8,0.4,3.8,0.9c2.6,1.2,3.8,3.3,3.8,6.3v2.7c0.1,1.3,0.5,2.2,1.3,2.5c-0.5,0.3-0.9,0.8-1.1,1.5
					c-0.1,0.3-0.1,0.7-0.2,1v2.9C289.2,280,287.9,282.1,285.3,283.3z M284.2,274.2c-0.1-1.3-0.5-2.2-1.3-2.5
					c0.5-0.3,0.9-0.8,1.1-1.5c0.1-0.3,0.1-0.7,0.2-1v-2.6c0-0.9-0.3-1.6-0.8-2.2c-0.5-0.5-1.1-0.8-1.8-0.8c-0.7,0-1.3,0.3-1.8,0.8
					c-0.5,0.5-0.8,1.2-0.8,2.2v2.6c0.1,1.3,0.5,2.2,1.3,2.5c-0.5,0.3-0.9,0.8-1.1,1.5c-0.1,0.3-0.1,0.7-0.2,1v2.6
					c0,0.9,0.3,1.7,0.8,2.2c0.5,0.5,1.1,0.8,1.8,0.8c0.7,0,1.3-0.3,1.8-0.8c0.5-0.5,0.8-1.2,0.8-2.2V274.2z"/>
				<path fill="#FFFFFF" d="M308.7,265c0,0.7-0.2,1.3-0.7,1.7c-1.9-1-3.6-1.5-4.8-1.5c-0.6,0-1.1,0.1-1.5,0.3
					c-0.1,2.8,0.3,4.8,1.3,6.1c-0.9,1.2-1.3,3-1.3,5.5c0,2.4,0.4,4.5,1.3,6.4c-0.6,0.5-1.3,0.8-2,0.8c-0.7,0-1.4-0.3-2.1-0.9
					c-0.7,0.6-1.4,0.9-2.1,0.9c-0.7,0-1.4-0.3-2-0.8c0.9-1.9,1.3-4,1.3-6.4c0-2.5-0.4-4.3-1.3-5.5c0.9-1.3,1.4-3.2,1.3-5.9
					c-0.3-0.3-0.9-0.5-1.7-0.5c-1.3,0-2.9,0.5-4.8,1.5c-0.4-0.5-0.7-1-0.7-1.7c0-0.7,0.2-1.5,0.7-2.3c-0.4-0.4-0.6-1-0.6-1.7
					c0-0.6,0.2-1.3,0.6-1.8c1.3,0.6,2.9,0.9,4.6,0.9c1.6,0,3.1-0.3,4.7-0.9c1.5,0.6,3.1,0.9,4.6,0.9c1.7,0,3.3-0.3,4.6-0.9
					c0.4,0.6,0.6,1.2,0.6,1.8c0,0.7-0.2,1.2-0.6,1.7C308.5,263.5,308.7,264.2,308.7,265z"/>
				<path fill="#FFFFFF" d="M336.8,269c0.1,1.3,0.5,2.2,1.3,2.6c-0.5,0.3-0.9,0.8-1.1,1.5c-0.1,0.3-0.1,0.7-0.2,1.1v2.8
					c0,0.3,0,0.6,0,0.9c0,2.7-1.2,4.6-3.7,5.6c-1,0.4-2.3,0.7-3.7,0.8c-0.4,0-0.7,0-1,0c-2.8,0-4.7-1-5.8-3
					c-0.5-0.8-0.7-1.8-0.8-2.9c0.1-1.3-0.1-2.2-0.7-2.7c0.4-0.4,0.8-0.7,1.4-0.7c0.5,0,1,0.2,1.5,0.5c0.4-0.7,1.1-1.1,2.1-1.1
					c0.8,0,1.3,0.2,1.6,0.5c-0.6,0.9-0.9,1.8-0.9,2.6c0,0.7,0.2,1.3,0.6,1.7c0.4,0.4,0.9,0.6,1.5,0.6h0.2c1.1,0,1.8-0.3,2.2-0.8
					c0.3-0.4,0.4-1.2,0.4-2.2v-2.6c-0.1-1.3-0.5-2.2-1.3-2.6c0.5-0.3,0.9-0.8,1.1-1.5c0.1-0.3,0.1-0.7,0.2-1.1v-2.6
					c0-1.9-0.2-3.2-0.7-4.1c-0.2-0.4-0.8-1.2-1.9-2.2c0.9-0.5,1.7-0.8,2.4-0.8c0.7,0,1.4,0.3,2.2,0.8c0.7-0.6,1.5-0.9,2.3-0.9
					c0.8,0,1.4,0.3,2,0.8c-0.8,0.8-1.2,2.9-1.2,6.3V269z"/>
				<path fill="#FFFFFF" d="M351,283.3c-1.1,0.5-2.3,0.8-3.8,1c-1.5-0.1-2.8-0.4-3.9-0.9c-2.6-1.2-3.9-3.3-3.9-6.4v-2.9
					c-0.1-1.3-0.5-2.2-1.3-2.6c0.5-0.3,0.9-0.8,1.1-1.5c0.1-0.3,0.1-0.7,0.2-1.1v-2.7c-0.1-2.6-0.6-4.6-1.6-6.2
					c0.8-0.6,1.5-0.9,2.4-0.9c0.7,0,1.4,0.3,1.9,0.8c0.7-0.5,1.4-0.8,2.1-0.8c0.7,0,1.3,0.3,1.9,0.8c-0.9,1.8-1.4,3.9-1.4,6.4v2.6
					c0,1.3,0.5,2.2,1.3,2.6c-0.5,0.3-0.9,0.8-1.1,1.5c-0.1,0.3-0.2,0.7-0.2,1.1v2.6c0,0.9,0.3,1.7,0.8,2.2c0.5,0.5,1.1,0.7,1.8,0.7
					c0.7,0,1.3-0.2,1.8-0.7c0.5-0.6,0.8-1.3,0.8-2.2v-2.6c-0.1-1.3-0.5-2.2-1.3-2.6c0.5-0.3,0.9-0.8,1.1-1.5
					c0.1-0.3,0.1-0.7,0.2-1.1v-2.6c0-2.5-0.5-4.6-1.4-6.4c0.6-0.5,1.2-0.8,1.9-0.8c0.7,0,1.4,0.3,2.1,0.8c0.5-0.5,1-0.8,1.7-0.8
					c0.7,0,1.5,0.3,2.2,0.9c-0.6,1-1,2.4-1.2,4c-0.1,0.7-0.2,1.4-0.2,2.2v2.7c0.1,1.3,0.5,2.2,1.3,2.6c-0.5,0.3-0.9,0.8-1.1,1.5
					c-0.1,0.3-0.2,0.7-0.2,1.1v2.9C354.9,280,353.6,282.1,351,283.3z"/>
				<path fill="#FFFFFF" d="M367.6,266.3c-1.2-2.2-2.6-3.4-4.2-3.4c-0.8,0-1.5,0.3-2,0.8c-0.5,0.5-0.8,1.2-0.8,1.9
					c0,0.7,0.3,1.4,0.8,2c0.7,0.6,1.5,0.9,2.3,0.9c0.5,0,0.9-0.1,1.3-0.3c0.2,0.6,0.7,1.3,1.6,2c0.4,0.3,0.8,0.6,1.3,0.9
					c2.4,1.3,3.6,3.3,3.6,5.9c0,1.9-0.7,3.6-2.1,5c-1.6,1.5-3.7,2.3-6.3,2.3c-1.3,0-2.7-0.2-4.1-0.6c-0.3-0.1-0.8-0.3-1.4-0.6
					c-0.5-0.3-0.9-0.4-1.3-0.4c-0.6,0-1.2,0.3-1.9,0.8c0-0.2-0.1-0.5-0.1-0.7c0-1.2,0.4-2.1,1.3-2.6c-0.3-0.4-0.4-0.8-0.4-1.4
					c0-0.8,0.2-1.6,0.6-2.5c0.8,1.4,1.8,2.4,3.2,3.2c1.2,0.6,2.4,1,3.6,1c1,0,1.9-0.2,2.6-0.7c0.7-0.4,1-1,1-1.8
					c0-0.8-0.4-1.6-1.1-2.4c-0.7-0.6-1.6-0.9-2.7-0.9c-0.5,0-1,0.1-1.5,0.2c-0.1-1.5-0.7-2.4-1.9-2.8c-2.3-1.3-3.4-3.2-3.4-5.6
					c0-1.9,0.7-3.6,2-5c1.4-1.5,3.2-2.3,5.2-2.3c1.2,0,2.4,0.3,3.6,0.9c0.3,0.2,0.5,0.3,0.8,0.5c0.3,0.1,0.6,0.2,0.9,0.2
					c0.3,0,0.8,0,1.5-0.1c0,0.2,0.1,0.4,0.1,0.6c0,0.8-0.3,1.5-1,2.2C368.8,264.5,368.4,265.4,367.6,266.3z"/>
				<path fill="#FFFFFF" d="M389.2,265c0,0.7-0.2,1.3-0.7,1.7c-1.9-1-3.6-1.5-4.8-1.5c-0.6,0-1.1,0.1-1.5,0.3
					c-0.1,2.8,0.3,4.8,1.3,6.1c-0.9,1.2-1.3,3-1.3,5.5c0,2.4,0.4,4.5,1.3,6.4c-0.6,0.5-1.3,0.8-2,0.8c-0.7,0-1.4-0.3-2.1-0.9
					c-0.7,0.6-1.4,0.9-2.1,0.9c-0.7,0-1.4-0.3-2-0.8c0.9-1.9,1.3-4,1.3-6.4c0-2.5-0.4-4.3-1.3-5.5c0.9-1.3,1.4-3.2,1.3-5.9
					c-0.3-0.3-0.9-0.5-1.7-0.5c-1.3,0-2.9,0.5-4.8,1.5c-0.4-0.5-0.7-1-0.7-1.7c0-0.7,0.2-1.5,0.7-2.3c-0.4-0.4-0.6-1-0.6-1.7
					c0-0.6,0.2-1.3,0.6-1.8c1.3,0.6,2.9,0.9,4.6,0.9c1.6,0,3.1-0.3,4.7-0.9c1.5,0.6,3.1,0.9,4.6,0.9c1.7,0,3.3-0.3,4.6-0.9
					c0.4,0.6,0.6,1.2,0.6,1.8c0,0.7-0.2,1.2-0.6,1.7C388.9,263.5,389.2,264.2,389.2,265z"/>
				<path fill="#FFFFFF" d="M417.5,284.3c-0.7,0-1.1-0.2-1.3-0.6c0.5-1.1,0.8-2.2,0.8-3.3c0-1.4-0.4-2.5-1.1-3.4
					c-0.8-0.9-1.7-1.3-2.9-1.3c-1.2,0-2.1,0.4-2.9,1.3c-0.7,0.9-1.1,2-1.1,3.4c0,1.1,0.3,2.2,0.8,3.3c-0.2,0.4-0.6,0.6-1.3,0.6
					c-0.7,0-1.6-0.2-2.6-0.6c-0.4,0.4-1,0.6-1.7,0.6c-0.8,0-1.7-0.3-2.6-0.8c3-3,4.5-6.4,4.5-10.1c0-0.7-0.1-1.2-0.2-1.7
					c2.5-3.1,3.8-6.2,3.8-9.3c0-1.1-0.2-1.9-0.6-2.5c0.6-0.5,1.2-0.8,1.9-0.8c0.7,0,1.4,0.3,2,0.9c0.6-0.6,1.3-0.9,1.9-0.9
					c0.7,0,1.4,0.3,1.9,0.8c-0.4,0.6-0.6,1.4-0.6,2.5c0,3.1,1.3,6.2,3.8,9.3c-0.1,0.5-0.2,1.1-0.2,1.7c0,3.7,1.5,7,4.5,10.1
					c-0.9,0.5-1.8,0.8-2.6,0.8c-0.7,0-1.3-0.2-1.7-0.6C419.1,284.1,418.3,284.3,417.5,284.3z M413,267.9c-0.8,1.4-1.3,2.9-1.3,4.4
					c0.5-0.2,0.9-0.3,1.3-0.3c0.3,0,0.8,0.1,1.3,0.3C414.3,270.8,413.8,269.3,413,267.9z"/>
				<path fill="#FFFFFF" d="M448.3,263.8c-0.2-1.9-0.6-3.2-1.3-3.8c0.6-0.5,1.2-0.8,2-0.8c0.7,0,1.4,0.3,2.1,0.9
					c0.7-0.6,1.4-0.9,2.1-0.9c0.7,0,1.4,0.3,2,0.8c-0.9,1.8-1.3,3.9-1.3,6.3c0,2.5,0.4,4.3,1.3,5.4c-0.9,1.2-1.3,3-1.3,5.4
					c0,2.4,0.4,4.5,1.3,6.3c-0.6,0.5-1.3,0.8-2,0.8c-0.7,0-1.4-0.3-2.1-0.9c-0.6,0.6-1.3,0.9-2.1,0.9c-0.7,0-1.4-0.3-2-0.8
					c0.7-0.7,1.1-1.9,1.3-3.8c0-0.5,0.1-1.8,0.1-3.9c0-1.2-0.4-2-1.3-2.4c-0.3-0.1-0.6-0.1-0.9-0.1c-0.3,0-0.6,0-0.9,0.1
					c-0.9,0.3-1.3,1.1-1.3,2.4c0,2.1,0,3.4,0.1,3.9c0.2,1.9,0.6,3.2,1.3,3.8c-0.6,0.5-1.3,0.8-2,0.8c-0.7,0-1.4-0.3-2.1-0.9
					c-0.7,0.6-1.3,0.9-2.1,0.9c-0.7,0-1.4-0.3-2-0.8c0.9-1.8,1.3-3.9,1.3-6.3c0-2.5-0.4-4.3-1.3-5.4c0.9-1.2,1.3-3,1.3-5.4
					c0-2.4-0.4-4.5-1.3-6.3c0.6-0.5,1.3-0.8,2-0.8c0.7,0,1.4,0.3,2.1,0.9c0.7-0.6,1.4-0.9,2.1-0.9c0.7,0,1.4,0.3,2,0.8
					c-0.7,0.7-1.1,1.9-1.3,3.8c0,0.5-0.1,1.8-0.1,3.9c0,1.2,0.4,2,1.3,2.4c0.4,0.1,0.7,0.1,0.9,0.1c0.3,0,0.6,0,0.9-0.1
					c0.9-0.3,1.3-1.1,1.3-2.4C448.4,265.6,448.4,264.3,448.3,263.8z"/>
				<path fill="#FFFFFF" d="M471.1,284.3c-0.7,0-1.1-0.2-1.3-0.6c0.5-1.1,0.8-2.2,0.8-3.3c0-1.4-0.4-2.5-1.1-3.4
					c-0.8-0.9-1.7-1.3-2.9-1.3c-1.2,0-2.1,0.4-2.9,1.3c-0.7,0.9-1.1,2-1.1,3.4c0,1.1,0.3,2.2,0.8,3.3c-0.2,0.4-0.6,0.6-1.3,0.6
					c-0.7,0-1.6-0.2-2.6-0.6c-0.4,0.4-1,0.6-1.7,0.6c-0.8,0-1.7-0.3-2.6-0.8c3-3,4.5-6.4,4.5-10.1c0-0.7-0.1-1.2-0.2-1.7
					c2.5-3.1,3.8-6.2,3.8-9.3c0-1.1-0.2-1.9-0.6-2.5c0.6-0.5,1.2-0.8,1.9-0.8c0.7,0,1.4,0.3,2,0.9c0.6-0.6,1.3-0.9,1.9-0.9
					c0.7,0,1.4,0.3,1.9,0.8c-0.4,0.6-0.6,1.4-0.6,2.5c0,3.1,1.3,6.2,3.8,9.3c-0.1,0.5-0.2,1.1-0.2,1.7c0,3.7,1.5,7,4.5,10.1
					c-0.9,0.5-1.8,0.8-2.6,0.8c-0.7,0-1.3-0.2-1.7-0.6C472.7,284.1,471.8,284.3,471.1,284.3z M466.6,267.9c-0.8,1.4-1.3,2.9-1.3,4.4
					c0.5-0.2,0.9-0.3,1.3-0.3s0.8,0.1,1.3,0.3C467.8,270.8,467.4,269.3,466.6,267.9z"/>
				<path fill="#FFFFFF" d="M481.4,283.4c-0.7,0.6-1.3,0.9-2.1,0.9c-0.7,0-1.4-0.3-2-0.8c0.9-1.8,1.3-3.9,1.3-6.3
					c0-2.5-0.4-4.3-1.3-5.4c0.9-1.2,1.3-3,1.3-5.4c0-2.4-0.4-4.5-1.3-6.3c0.6-0.5,1.3-0.8,2-0.8c0.7,0,1.4,0.3,2.1,0.9
					c0.7-0.6,1.4-0.9,2.1-0.9c0.7,0,1.4,0.3,2,0.8c-0.9,1.8-1.3,3.9-1.3,6.3c0,2.5,0.4,4.3,1.3,5.4c-0.9,1.2-1.3,3-1.3,5.4
					c0,2.4,0.4,4.5,1.3,6.3c-0.6,0.5-1.3,0.8-2,0.8C482.8,284.3,482.1,284,481.4,283.4z"/>
				<path fill="#FFFFFF" d="M502,284.3c-1.8,0-3.4-0.7-5-2c0.6-0.9,1-1.7,1-2.5c0-0.9-0.5-2-1.4-3.3c0.3-0.4,0.5-0.9,0.5-1.4
					c0-0.6-0.3-1.2-0.8-1.7c-0.5-0.5-1.2-0.7-1.8-0.7c-0.7,0-1.2,0.3-1.7,0.8c-0.5,0.6-0.8,1.6-0.8,2.9c0,3.2,0.6,5.5,1.9,6.8
					c-0.6,0.5-1.3,0.8-2,0.8c-0.8,0-1.5-0.3-2.2-0.9c-0.7,0.6-1.5,0.9-2.3,0.9c-0.8,0-1.4-0.3-2-0.8c0.8-1.8,1.3-3.9,1.3-6.2
					c0-2.4-0.4-4.2-1.3-5.3c0.8-1.2,1.3-2.9,1.3-5.4c0-2.3-0.4-4.4-1.3-6.2c0.6-0.5,1.3-0.8,2-0.8c0.8,0,1.5,0.3,2.3,0.9
					c1.4-0.7,3-1,4.8-1c2,0,3.7,0.4,5.2,1.3c1.5,0.9,2.3,2,2.3,3.3c0,1.3,0.4,2.2,1.2,2.6c-0.5,0.3-0.9,0.8-1.1,1.5
					c-0.1,0.3-0.1,0.7-0.2,1c-0.1,1.2-0.9,2.1-2.3,2.8c0.9,0.4,1.5,0.9,1.9,1.6c0.1,0.3,0.2,0.6,0.3,0.9c0,1,0.4,1.6,1.2,1.9
					c0,0,0.1,0.5,0.2,1.4c0.1,1.1,0.3,2.1,0.6,2.9c0.4,1.3,1.1,2.3,1.9,3.1C504.4,284,503.2,284.3,502,284.3z M496.7,265.3
					c0-0.5-0.2-0.9-0.6-1.2c-0.4-0.3-0.9-0.5-1.5-0.5c-0.7,0-1.3,0.3-1.8,0.8c-0.5,0.6-0.8,1.5-0.8,2.6c0,1.1,0.3,2,0.8,2.5
					c0.5,0.5,1,0.8,1.8,0.8c0.6,0,1.1-0.2,1.5-0.5c0.4-0.3,0.6-0.7,0.6-1.2c0-0.5-0.3-1-0.8-1.6
					C496.4,266.4,496.7,265.8,496.7,265.3z"/>
				<path fill="#FFFFFF" d="M514.6,274.5c1,0,1.7,0.4,2.1,1.1c0.5-0.3,1-0.5,1.4-0.5c0.5,0,1,0.2,1.4,0.6c-0.6,0.5-0.8,1.4-0.7,2.7
					c-0.1,1.1-0.4,2.1-0.8,2.9c-1.1,1.9-3,2.9-5.8,2.9c-0.3,0-0.6,0-1,0c-1.4-0.1-2.6-0.4-3.6-0.8c-2.4-1-3.6-2.9-3.6-5.6
					c0-0.3,0-0.6,0-0.9v-2.7c0-1.3-0.5-2.2-1.2-2.5c0.5-0.3,0.9-0.8,1.1-1.5c0.1-0.3,0.1-0.7,0.1-1v-2.7c0-3,1.2-5.1,3.6-6.3
					c1-0.5,2.2-0.8,3.6-0.9c0.4,0,0.7,0,1,0c2.8,0,4.7,1,5.8,2.9c0.4,0.8,0.7,1.8,0.8,2.9c-0.1,1.3,0.1,2.2,0.7,2.7
					c-0.4,0.4-0.8,0.6-1.4,0.6c-0.5,0-1-0.2-1.4-0.5c-0.4,0.7-1.1,1.1-2.1,1.1c-0.8,0-1.3-0.1-1.6-0.4c0.6-0.9,0.9-1.8,0.9-2.6
					c0-0.7-0.2-1.3-0.6-1.7c-0.4-0.4-0.9-0.6-1.5-0.6h-0.1c-1,0-1.7,0.3-2.1,0.8c-0.3,0.4-0.4,1.2-0.4,2.2v2.6
					c0,1.3,0.5,2.2,1.2,2.5c-0.5,0.3-0.9,0.8-1.1,1.5c-0.1,0.3-0.2,0.7-0.2,1v2.6c0,1,0.1,1.8,0.4,2.2c0.4,0.6,1.1,0.8,2.1,0.8h0.1
					c0.6,0,1.1-0.2,1.5-0.6c0.4-0.4,0.6-1,0.6-1.7c0-0.8-0.3-1.7-0.9-2.6C513.3,274.7,513.8,274.5,514.6,274.5z"/>
				<path fill="#FFFFFF" d="M531.2,283.3c-1.1,0.5-2.3,0.8-3.8,1c-1.5-0.1-2.8-0.4-3.9-0.9c-2.6-1.2-3.9-3.3-3.9-6.4v-2.9
					c-0.1-1.3-0.5-2.2-1.3-2.6c0.5-0.3,0.9-0.8,1.1-1.5c0.1-0.3,0.1-0.7,0.2-1.1v-2.7c-0.1-2.6-0.6-4.6-1.6-6.2
					c0.8-0.6,1.5-0.9,2.4-0.9c0.7,0,1.4,0.3,1.9,0.8c0.7-0.5,1.4-0.8,2.1-0.8c0.7,0,1.3,0.3,1.9,0.8c-0.9,1.8-1.4,3.9-1.4,6.4v2.6
					c0,1.3,0.5,2.2,1.3,2.6c-0.5,0.3-0.9,0.8-1.1,1.5c-0.1,0.3-0.2,0.7-0.2,1.1v2.6c0,0.9,0.3,1.7,0.8,2.2c0.5,0.5,1.1,0.7,1.8,0.7
					c0.7,0,1.3-0.2,1.8-0.7c0.5-0.6,0.8-1.3,0.8-2.2v-2.6c-0.1-1.3-0.5-2.2-1.3-2.6c0.5-0.3,0.9-0.8,1.1-1.5
					c0.1-0.3,0.1-0.7,0.2-1.1v-2.6c0-2.5-0.5-4.6-1.4-6.4c0.6-0.5,1.2-0.8,1.9-0.8c0.7,0,1.4,0.3,2.1,0.8c0.5-0.5,1-0.8,1.7-0.8
					c0.7,0,1.5,0.3,2.2,0.9c-0.6,1-1,2.4-1.2,4c-0.1,0.7-0.2,1.4-0.2,2.2v2.7c0.1,1.3,0.5,2.2,1.3,2.6c-0.5,0.3-0.9,0.8-1.1,1.5
					c-0.1,0.3-0.2,0.7-0.2,1.1v2.9C535.1,280,533.8,282.1,531.2,283.3z"/>
				<path fill="#FFFFFF" d="M556.1,265c0,0.7-0.2,1.3-0.7,1.7c-1.9-1-3.6-1.5-4.8-1.5c-0.6,0-1.1,0.1-1.5,0.3
					c-0.1,2.8,0.3,4.8,1.3,6.1c-0.9,1.2-1.3,3-1.3,5.5c0,2.4,0.4,4.5,1.3,6.4c-0.6,0.5-1.3,0.8-2,0.8c-0.7,0-1.4-0.3-2.1-0.9
					c-0.7,0.6-1.4,0.9-2.1,0.9c-0.7,0-1.4-0.3-2-0.8c0.9-1.9,1.3-4,1.3-6.4c0-2.5-0.4-4.3-1.3-5.5c0.9-1.3,1.4-3.2,1.3-5.9
					c-0.3-0.3-0.9-0.5-1.7-0.5c-1.3,0-2.9,0.5-4.8,1.5c-0.4-0.5-0.7-1-0.7-1.7c0-0.7,0.2-1.5,0.7-2.3c-0.4-0.4-0.6-1-0.6-1.7
					c0-0.6,0.2-1.3,0.6-1.8c1.3,0.6,2.9,0.9,4.6,0.9c1.6,0,3.1-0.3,4.7-0.9c1.5,0.6,3.1,0.9,4.6,0.9c1.7,0,3.3-0.3,4.6-0.9
					c0.4,0.6,0.6,1.2,0.6,1.8c0,0.7-0.2,1.2-0.6,1.7C555.9,263.5,556.1,264.2,556.1,265z"/>
			</g>
			<g id="its_not_1_">
				<path d="M203.2,282.1c-0.6,0.6-1.3,0.9-2.1,0.9c-0.7,0-1.4-0.3-2-0.8c0.9-1.8,1.3-3.9,1.3-6.3c0-2.5-0.4-4.3-1.3-5.4
					c0.9-1.2,1.3-3,1.3-5.4c0-2.4-0.4-4.5-1.3-6.3c0.6-0.5,1.3-0.8,2-0.8c0.7,0,1.4,0.3,2.1,0.9c0.7-0.6,1.4-0.9,2.1-0.9
					c0.7,0,1.4,0.3,2,0.8c-0.9,1.8-1.3,3.9-1.3,6.3c0,2.5,0.4,4.3,1.3,5.4c-0.9,1.2-1.3,3-1.3,5.4c0,2.4,0.4,4.5,1.3,6.3
					c-0.6,0.5-1.3,0.8-2,0.8C204.6,283,203.9,282.7,203.2,282.1z"/>
				<path d="M227,263.6c0,0.7-0.2,1.3-0.7,1.7c-1.9-1-3.6-1.5-4.8-1.5c-0.6,0-1.1,0.1-1.5,0.3c-0.1,2.8,0.3,4.8,1.3,6.1
					c-0.9,1.2-1.3,3-1.3,5.5c0,2.4,0.4,4.5,1.3,6.4c-0.6,0.5-1.3,0.8-2,0.8c-0.7,0-1.4-0.3-2.1-0.9c-0.7,0.6-1.4,0.9-2.1,0.9
					c-0.7,0-1.4-0.3-2-0.8c0.9-1.9,1.3-4,1.3-6.4c0-2.5-0.4-4.3-1.3-5.5c0.9-1.3,1.4-3.2,1.3-5.9c-0.3-0.3-0.9-0.5-1.7-0.5
					c-1.3,0-2.9,0.5-4.8,1.5c-0.4-0.5-0.7-1-0.7-1.7c0-0.7,0.2-1.5,0.7-2.3c-0.4-0.4-0.6-1-0.6-1.7c0-0.6,0.2-1.3,0.6-1.8
					c1.3,0.6,2.9,0.9,4.6,0.9c1.6,0,3.1-0.3,4.7-0.9c1.5,0.6,3.1,0.9,4.6,0.9c1.7,0,3.3-0.3,4.6-0.9c0.4,0.6,0.6,1.2,0.6,1.8
					c0,0.7-0.2,1.2-0.6,1.7C226.8,262.1,227,262.9,227,263.6z"/>
				<path d="M238.5,265c-1.2-2.2-2.6-3.4-4.2-3.4c-0.8,0-1.5,0.3-2,0.8c-0.5,0.5-0.8,1.2-0.8,1.9c0,0.7,0.3,1.4,0.8,2
					c0.7,0.6,1.5,0.9,2.3,0.9c0.5,0,0.9-0.1,1.3-0.3c0.2,0.6,0.7,1.3,1.6,2c0.4,0.3,0.8,0.6,1.3,0.9c2.4,1.3,3.6,3.3,3.6,5.9
					c0,1.9-0.7,3.6-2.1,5c-1.6,1.5-3.7,2.3-6.3,2.3c-1.3,0-2.7-0.2-4.1-0.6c-0.3-0.1-0.8-0.3-1.4-0.6c-0.5-0.3-0.9-0.4-1.3-0.4
					c-0.6,0-1.2,0.3-1.9,0.8c0-0.2-0.1-0.5-0.1-0.7c0-1.2,0.4-2.1,1.3-2.6c-0.3-0.4-0.4-0.8-0.4-1.4c0-0.8,0.2-1.6,0.6-2.5
					c0.8,1.4,1.8,2.4,3.2,3.2c1.2,0.6,2.4,1,3.6,1c1,0,1.9-0.2,2.6-0.7c0.7-0.4,1-1,1-1.8c0-0.8-0.4-1.6-1.1-2.4
					c-0.7-0.6-1.6-0.9-2.7-0.9c-0.5,0-1,0.1-1.5,0.2c-0.1-1.5-0.7-2.4-1.9-2.8c-2.3-1.3-3.4-3.2-3.4-5.6c0-1.9,0.7-3.6,2-5
					c1.4-1.5,3.2-2.3,5.2-2.3c1.2,0,2.4,0.3,3.6,0.9c0.3,0.2,0.5,0.3,0.8,0.5c0.3,0.1,0.6,0.2,0.9,0.2c0.3,0,0.8,0,1.5-0.1
					c0,0.2,0.1,0.4,0.1,0.6c0,0.8-0.3,1.5-1,2.2C239.6,263.2,239.2,264.1,238.5,265z"/>
				<path d="M266.8,267.9c0.5-0.9,0.7-2.3,0.7-3.9c0-2.6-0.5-4.4-1.4-5.3c0.6-0.5,1.2-0.8,1.9-0.8c0.7,0,1.3,0.3,1.9,0.9
					c0.6-0.6,1.3-0.9,1.9-0.9c0.7,0,1.3,0.3,1.9,0.8l-0.5,1.3c-0.6,1.5-0.9,3.1-0.9,4.9c0,2.5,0.5,4.3,1.4,5.6
					c-0.9,1.2-1.3,3-1.3,5.4c0,2.4,0.4,4.5,1.3,6.3c-0.5,0.5-1.1,0.8-1.8,0.8c-0.7,0-1.3-0.3-1.9-0.9c-0.6,0.6-1.2,0.9-1.9,0.9
					c-0.6,0-1.2-0.3-1.8-0.8c0.8-1,1.2-2.1,1.2-3.4c0-1.4-0.5-2.8-1.5-4l-3.8-4.9c-0.7,1.5-1.1,3.4-1.1,5.5c0,2.3,0.5,4.6,1.4,6.8
					c-0.6,0.5-1.2,0.8-1.9,0.8c-0.7,0-1.3-0.3-1.9-0.9c-0.6,0.6-1.3,0.9-2,0.9c-0.7,0-1.3-0.3-1.9-0.8c0.9-1.8,1.3-3.9,1.3-6.3
					c0-2.5-0.4-4.3-1.3-5.4c0.9-1.2,1.4-3.1,1.4-5.6c0-1.8-0.3-3.4-0.8-4.9l-0.5-1.3c0.6-0.5,1.2-0.8,1.9-0.8c0.7,0,1.4,0.3,2,0.9
					c0.6-0.6,1.3-0.9,1.9-0.9c0.7,0,1.3,0.3,1.9,0.8c-0.3,0.7-0.5,1.4-0.5,2c0,0.9,0.3,1.6,0.8,2.3L266.8,267.9z"/>
				<path d="M286.3,282c-1.1,0.5-2.3,0.8-3.8,0.9c-1.5-0.1-2.8-0.4-3.8-0.8c-2.6-1.2-3.8-3.3-3.8-6.4v-2.9c-0.1-1.3-0.5-2.2-1.3-2.5
					c0.5-0.3,0.9-0.8,1.1-1.5c0.1-0.3,0.1-0.7,0.2-1v-2.7c0-3,1.3-5,3.8-6.3c1.1-0.5,2.3-0.8,3.8-0.9c1.5,0.1,2.8,0.4,3.8,0.9
					c2.6,1.2,3.8,3.3,3.8,6.3v2.7c0.1,1.3,0.5,2.2,1.3,2.5c-0.5,0.3-0.9,0.8-1.1,1.5c-0.1,0.3-0.1,0.7-0.2,1v2.9
					C290.1,278.7,288.9,280.8,286.3,282z M285.2,272.9c-0.1-1.3-0.5-2.2-1.3-2.5c0.5-0.3,0.9-0.8,1.1-1.5c0.1-0.3,0.1-0.7,0.2-1
					v-2.6c0-0.9-0.3-1.6-0.8-2.2c-0.5-0.5-1.1-0.8-1.8-0.8c-0.7,0-1.3,0.3-1.8,0.8c-0.5,0.5-0.8,1.2-0.8,2.2v2.6
					c0.1,1.3,0.5,2.2,1.3,2.5c-0.5,0.3-0.9,0.8-1.1,1.5c-0.1,0.3-0.1,0.7-0.2,1v2.6c0,0.9,0.3,1.7,0.8,2.2c0.5,0.5,1.1,0.8,1.8,0.8
					c0.7,0,1.3-0.3,1.8-0.8s0.8-1.2,0.8-2.2V272.9z"/>
				<path d="M309.7,263.6c0,0.7-0.2,1.3-0.7,1.7c-1.9-1-3.6-1.5-4.8-1.5c-0.6,0-1.1,0.1-1.5,0.3c-0.1,2.8,0.3,4.8,1.3,6.1
					c-0.9,1.2-1.3,3-1.3,5.5c0,2.4,0.4,4.5,1.3,6.4c-0.6,0.5-1.3,0.8-2,0.8c-0.7,0-1.4-0.3-2.1-0.9c-0.7,0.6-1.4,0.9-2.1,0.9
					c-0.7,0-1.4-0.3-2-0.8c0.9-1.9,1.3-4,1.3-6.4c0-2.5-0.4-4.3-1.3-5.5c0.9-1.3,1.4-3.2,1.3-5.9c-0.3-0.3-0.9-0.5-1.7-0.5
					c-1.3,0-2.9,0.5-4.8,1.5c-0.4-0.5-0.7-1-0.7-1.7c0-0.7,0.2-1.5,0.7-2.3c-0.4-0.4-0.6-1-0.6-1.7c0-0.6,0.2-1.3,0.6-1.8
					c1.3,0.6,2.9,0.9,4.6,0.9c1.6,0,3.1-0.3,4.7-0.9c1.5,0.6,3.1,0.9,4.6,0.9c1.7,0,3.3-0.3,4.6-0.9c0.4,0.6,0.6,1.2,0.6,1.8
					c0,0.7-0.2,1.2-0.6,1.7C309.4,262.1,309.7,262.9,309.7,263.6z"/>
				<path d="M337.8,267.7c0.1,1.3,0.5,2.2,1.3,2.6c-0.5,0.3-0.9,0.8-1.1,1.5c-0.1,0.3-0.1,0.7-0.2,1.1v2.8c0,0.3,0,0.6,0,0.9
					c0,2.7-1.2,4.6-3.7,5.6c-1,0.4-2.3,0.7-3.7,0.8c-0.4,0-0.7,0-1,0c-2.8,0-4.7-1-5.8-3c-0.5-0.8-0.7-1.8-0.8-2.9
					c0.1-1.3-0.1-2.2-0.7-2.7c0.4-0.4,0.8-0.7,1.4-0.7c0.5,0,1,0.2,1.5,0.5c0.4-0.7,1.1-1.1,2.1-1.1c0.8,0,1.3,0.2,1.6,0.5
					c-0.6,0.9-0.9,1.8-0.9,2.6c0,0.7,0.2,1.3,0.6,1.7c0.4,0.4,0.9,0.6,1.5,0.6h0.2c1.1,0,1.8-0.3,2.2-0.8c0.3-0.4,0.4-1.2,0.4-2.2
					v-2.6c-0.1-1.3-0.5-2.2-1.3-2.6c0.5-0.3,0.9-0.8,1.1-1.5c0.1-0.3,0.1-0.7,0.2-1.1v-2.6c0-1.9-0.2-3.2-0.7-4.1
					c-0.2-0.4-0.8-1.2-1.9-2.2c0.9-0.5,1.7-0.8,2.4-0.8c0.7,0,1.4,0.3,2.2,0.8c0.7-0.6,1.5-0.9,2.3-0.9c0.8,0,1.4,0.3,2,0.8
					c-0.8,0.8-1.2,2.9-1.2,6.3V267.7z"/>
				<path d="M352,282c-1.1,0.5-2.3,0.8-3.8,1c-1.5-0.1-2.8-0.4-3.9-0.9c-2.6-1.2-3.9-3.3-3.9-6.4v-2.9c-0.1-1.3-0.5-2.2-1.3-2.6
					c0.5-0.3,0.9-0.8,1.1-1.5c0.1-0.3,0.1-0.7,0.2-1.1v-2.7c-0.1-2.6-0.6-4.6-1.6-6.2c0.8-0.6,1.5-0.9,2.4-0.9
					c0.7,0,1.4,0.3,1.9,0.8c0.7-0.5,1.4-0.8,2.1-0.8c0.7,0,1.3,0.3,1.9,0.8c-0.9,1.8-1.4,3.9-1.4,6.4v2.6c0,1.3,0.5,2.2,1.3,2.6
					c-0.5,0.3-0.9,0.8-1.1,1.5c-0.1,0.3-0.2,0.7-0.2,1.1v2.6c0,0.9,0.3,1.7,0.8,2.2c0.5,0.5,1.1,0.7,1.8,0.7c0.7,0,1.3-0.2,1.8-0.7
					c0.5-0.6,0.8-1.3,0.8-2.2v-2.6c-0.1-1.3-0.5-2.2-1.3-2.6c0.5-0.3,0.9-0.8,1.1-1.5c0.1-0.3,0.1-0.7,0.2-1.1V265
					c0-2.5-0.5-4.6-1.4-6.4c0.6-0.5,1.2-0.8,1.9-0.8c0.7,0,1.4,0.3,2.1,0.8c0.5-0.5,1-0.8,1.7-0.8c0.7,0,1.5,0.3,2.2,0.9
					c-0.6,1-1,2.4-1.2,4c-0.1,0.7-0.2,1.4-0.2,2.2v2.7c0.1,1.3,0.5,2.2,1.3,2.6c-0.5,0.3-0.9,0.8-1.1,1.5c-0.1,0.3-0.2,0.7-0.2,1.1
					v2.9C355.8,278.6,354.5,280.8,352,282z"/>
				<path d="M368.6,265c-1.2-2.2-2.6-3.4-4.2-3.4c-0.8,0-1.5,0.3-2,0.8c-0.5,0.5-0.8,1.2-0.8,1.9c0,0.7,0.3,1.4,0.8,2
					c0.7,0.6,1.5,0.9,2.3,0.9c0.5,0,0.9-0.1,1.3-0.3c0.2,0.6,0.7,1.3,1.6,2c0.4,0.3,0.8,0.6,1.3,0.9c2.4,1.3,3.6,3.3,3.6,5.9
					c0,1.9-0.7,3.6-2.1,5c-1.6,1.5-3.7,2.3-6.3,2.3c-1.3,0-2.7-0.2-4.1-0.6c-0.3-0.1-0.8-0.3-1.4-0.6c-0.5-0.3-0.9-0.4-1.3-0.4
					c-0.6,0-1.2,0.3-1.9,0.8c0-0.2-0.1-0.5-0.1-0.7c0-1.2,0.4-2.1,1.3-2.6c-0.3-0.4-0.4-0.8-0.4-1.4c0-0.8,0.2-1.6,0.6-2.5
					c0.8,1.4,1.8,2.4,3.2,3.2c1.2,0.6,2.4,1,3.6,1c1,0,1.9-0.2,2.6-0.7c0.7-0.4,1-1,1-1.8c0-0.8-0.4-1.6-1.1-2.4
					c-0.7-0.6-1.6-0.9-2.7-0.9c-0.5,0-1,0.1-1.5,0.2c-0.1-1.5-0.7-2.4-1.9-2.8c-2.3-1.3-3.4-3.2-3.4-5.6c0-1.9,0.7-3.6,2-5
					c1.4-1.5,3.2-2.3,5.2-2.3c1.2,0,2.4,0.3,3.6,0.9c0.3,0.2,0.5,0.3,0.8,0.5c0.3,0.1,0.6,0.2,0.9,0.2c0.3,0,0.8,0,1.5-0.1
					c0,0.2,0.1,0.4,0.1,0.6c0,0.8-0.3,1.5-1,2.2C369.7,263.2,369.4,264.1,368.6,265z"/>
				<path d="M390.1,263.6c0,0.7-0.2,1.3-0.7,1.7c-1.9-1-3.6-1.5-4.8-1.5c-0.6,0-1.1,0.1-1.5,0.3c-0.1,2.8,0.3,4.8,1.3,6.1
					c-0.9,1.2-1.3,3-1.3,5.5c0,2.4,0.4,4.5,1.3,6.4c-0.6,0.5-1.3,0.8-2,0.8c-0.7,0-1.4-0.3-2.1-0.9c-0.7,0.6-1.4,0.9-2.1,0.9
					c-0.7,0-1.4-0.3-2-0.8c0.9-1.9,1.3-4,1.3-6.4c0-2.5-0.4-4.3-1.3-5.5c0.9-1.3,1.4-3.2,1.3-5.9c-0.3-0.3-0.9-0.5-1.7-0.5
					c-1.3,0-2.9,0.5-4.8,1.5c-0.4-0.5-0.7-1-0.7-1.7c0-0.7,0.2-1.5,0.7-2.3c-0.4-0.4-0.6-1-0.6-1.7c0-0.6,0.2-1.3,0.6-1.8
					c1.3,0.6,2.9,0.9,4.6,0.9c1.6,0,3.1-0.3,4.7-0.9c1.5,0.6,3.1,0.9,4.6,0.9c1.7,0,3.3-0.3,4.6-0.9c0.4,0.6,0.6,1.2,0.6,1.8
					c0,0.7-0.2,1.2-0.6,1.7C389.9,262.1,390.1,262.9,390.1,263.6z"/>
				<path d="M418.5,283c-0.7,0-1.1-0.2-1.3-0.6c0.5-1.1,0.8-2.2,0.8-3.3c0-1.4-0.4-2.5-1.1-3.4c-0.8-0.9-1.7-1.3-2.9-1.3
					c-1.2,0-2.1,0.4-2.9,1.3c-0.7,0.9-1.1,2-1.1,3.4c0,1.1,0.3,2.2,0.8,3.3c-0.2,0.4-0.6,0.6-1.3,0.6c-0.7,0-1.6-0.2-2.6-0.6
					c-0.4,0.4-1,0.6-1.7,0.6c-0.8,0-1.7-0.3-2.6-0.8c3-3,4.5-6.4,4.5-10.1c0-0.7-0.1-1.2-0.2-1.7c2.5-3.1,3.8-6.2,3.8-9.3
					c0-1.1-0.2-1.9-0.6-2.5c0.6-0.5,1.2-0.8,1.9-0.8c0.7,0,1.4,0.3,2,0.9c0.6-0.6,1.3-0.9,1.9-0.9c0.7,0,1.4,0.3,1.9,0.8
					c-0.4,0.6-0.6,1.4-0.6,2.5c0,3.1,1.3,6.2,3.8,9.3c-0.1,0.5-0.2,1.1-0.2,1.7c0,3.7,1.5,7,4.5,10.1c-0.9,0.5-1.8,0.8-2.6,0.8
					c-0.7,0-1.3-0.2-1.7-0.6C420.1,282.8,419.2,283,418.5,283z M414,266.6c-0.8,1.4-1.3,2.9-1.3,4.4c0.5-0.2,0.9-0.3,1.3-0.3
					c0.3,0,0.8,0.1,1.3,0.3C415.2,269.5,414.8,268,414,266.6z"/>
				<path d="M449.3,262.5c-0.2-1.9-0.6-3.2-1.3-3.8c0.6-0.5,1.2-0.8,2-0.8c0.7,0,1.4,0.3,2.1,0.9c0.7-0.6,1.4-0.9,2.1-0.9
					c0.7,0,1.4,0.3,2,0.8c-0.9,1.8-1.3,3.9-1.3,6.3c0,2.5,0.4,4.3,1.3,5.4c-0.9,1.2-1.3,3-1.3,5.4c0,2.4,0.4,4.5,1.3,6.3
					c-0.6,0.5-1.3,0.8-2,0.8c-0.7,0-1.4-0.3-2.1-0.9c-0.6,0.6-1.3,0.9-2.1,0.9c-0.7,0-1.4-0.3-2-0.8c0.7-0.7,1.1-1.9,1.3-3.8
					c0-0.5,0.1-1.8,0.1-3.9c0-1.2-0.4-2-1.3-2.4c-0.3-0.1-0.6-0.1-0.9-0.1c-0.3,0-0.6,0-0.9,0.1c-0.9,0.3-1.3,1.1-1.3,2.4
					c0,2.1,0,3.4,0.1,3.9c0.2,1.9,0.6,3.2,1.3,3.8c-0.6,0.5-1.3,0.8-2,0.8c-0.7,0-1.4-0.3-2.1-0.9c-0.7,0.6-1.3,0.9-2.1,0.9
					c-0.7,0-1.4-0.3-2-0.8c0.9-1.8,1.3-3.9,1.3-6.3c0-2.5-0.4-4.3-1.3-5.4c0.9-1.2,1.3-3,1.3-5.4c0-2.4-0.4-4.5-1.3-6.3
					c0.6-0.5,1.3-0.8,2-0.8c0.7,0,1.4,0.3,2.1,0.9c0.7-0.6,1.4-0.9,2.1-0.9c0.7,0,1.4,0.3,2,0.8c-0.7,0.7-1.1,1.9-1.3,3.8
					c0,0.5-0.1,1.8-0.1,3.9c0,1.2,0.4,2,1.3,2.4c0.4,0.1,0.7,0.1,0.9,0.1c0.3,0,0.6,0,0.9-0.1c0.9-0.3,1.3-1.1,1.3-2.4
					C449.4,264.3,449.3,263,449.3,262.5z"/>
				<path d="M472.1,283c-0.7,0-1.1-0.2-1.3-0.6c0.5-1.1,0.8-2.2,0.8-3.3c0-1.4-0.4-2.5-1.1-3.4c-0.8-0.9-1.7-1.3-2.9-1.3
					c-1.2,0-2.1,0.4-2.9,1.3c-0.7,0.9-1.1,2-1.1,3.4c0,1.1,0.3,2.2,0.8,3.3c-0.2,0.4-0.6,0.6-1.3,0.6c-0.7,0-1.6-0.2-2.6-0.6
					c-0.4,0.4-1,0.6-1.7,0.6c-0.8,0-1.7-0.3-2.6-0.8c3-3,4.5-6.4,4.5-10.1c0-0.7-0.1-1.2-0.2-1.7c2.5-3.1,3.8-6.2,3.8-9.3
					c0-1.1-0.2-1.9-0.6-2.5c0.6-0.5,1.2-0.8,1.9-0.8c0.7,0,1.4,0.3,2,0.9c0.6-0.6,1.3-0.9,1.9-0.9c0.7,0,1.4,0.3,1.9,0.8
					c-0.4,0.6-0.6,1.4-0.6,2.5c0,3.1,1.3,6.2,3.8,9.3c-0.1,0.5-0.2,1.1-0.2,1.7c0,3.7,1.5,7,4.5,10.1c-0.9,0.5-1.8,0.8-2.6,0.8
					c-0.7,0-1.3-0.2-1.7-0.6C473.7,282.8,472.8,283,472.1,283z M467.5,266.6c-0.8,1.4-1.3,2.9-1.3,4.4c0.5-0.2,0.9-0.3,1.3-0.3
					c0.3,0,0.8,0.1,1.3,0.3C468.8,269.5,468.4,268,467.5,266.6z"/>
				<path d="M482.4,282.1c-0.7,0.6-1.3,0.9-2.1,0.9c-0.7,0-1.4-0.3-2-0.8c0.9-1.8,1.3-3.9,1.3-6.3c0-2.5-0.4-4.3-1.3-5.4
					c0.9-1.2,1.3-3,1.3-5.4c0-2.4-0.4-4.5-1.3-6.3c0.6-0.5,1.3-0.8,2-0.8c0.7,0,1.4,0.3,2.1,0.9c0.7-0.6,1.4-0.9,2.1-0.9
					c0.7,0,1.4,0.3,2,0.8c-0.9,1.8-1.3,3.9-1.3,6.3c0,2.5,0.4,4.3,1.3,5.4c-0.9,1.2-1.3,3-1.3,5.4c0,2.4,0.4,4.5,1.3,6.3
					c-0.6,0.5-1.3,0.8-2,0.8C483.7,283,483,282.7,482.4,282.1z"/>
				<path d="M503,283c-1.8,0-3.4-0.7-5-2c0.6-0.9,1-1.7,1-2.5c0-0.9-0.5-2-1.4-3.3c0.3-0.4,0.5-0.9,0.5-1.4c0-0.6-0.3-1.2-0.8-1.7
					c-0.5-0.5-1.2-0.7-1.8-0.7c-0.7,0-1.2,0.3-1.7,0.8c-0.5,0.6-0.8,1.6-0.8,2.9c0,3.2,0.6,5.5,1.9,6.8c-0.6,0.5-1.3,0.8-2,0.8
					c-0.8,0-1.5-0.3-2.2-0.9c-0.7,0.6-1.5,0.9-2.3,0.9c-0.8,0-1.4-0.3-2-0.8c0.8-1.8,1.3-3.9,1.3-6.2c0-2.4-0.4-4.2-1.3-5.3
					c0.8-1.2,1.3-2.9,1.3-5.4c0-2.3-0.4-4.4-1.3-6.2c0.6-0.5,1.3-0.8,2-0.8c0.8,0,1.5,0.3,2.3,0.9c1.4-0.7,3-1,4.8-1
					c2,0,3.7,0.4,5.2,1.3c1.5,0.9,2.3,2,2.3,3.3c0,1.3,0.4,2.2,1.2,2.6c-0.5,0.3-0.9,0.8-1.1,1.5c-0.1,0.3-0.1,0.7-0.2,1
					c-0.1,1.2-0.9,2.1-2.3,2.8c0.9,0.4,1.5,0.9,1.9,1.6c0.1,0.3,0.2,0.6,0.3,0.9c0,1,0.4,1.6,1.2,1.9c0,0,0.1,0.5,0.2,1.4
					c0.1,1.1,0.3,2.1,0.6,2.9c0.4,1.3,1.1,2.3,1.9,3.1C505.3,282.7,504.2,283,503,283z M497.6,264c0-0.5-0.2-0.9-0.6-1.2
					c-0.4-0.3-0.9-0.5-1.5-0.5c-0.7,0-1.3,0.3-1.8,0.8c-0.5,0.6-0.8,1.5-0.8,2.6c0,1.1,0.3,2,0.8,2.5c0.5,0.5,1,0.8,1.8,0.8
					c0.6,0,1.1-0.2,1.5-0.5c0.4-0.3,0.6-0.7,0.6-1.2c0-0.5-0.3-1-0.8-1.6C497.4,265,497.6,264.5,497.6,264z"/>
				<path d="M515.5,273.2c1,0,1.7,0.4,2.1,1.1c0.5-0.3,1-0.5,1.4-0.5c0.5,0,1,0.2,1.4,0.6c-0.6,0.5-0.8,1.4-0.7,2.7
					c-0.1,1.1-0.4,2.1-0.8,2.9c-1.1,1.9-3,2.9-5.8,2.9c-0.3,0-0.6,0-1,0c-1.4-0.1-2.6-0.4-3.6-0.8c-2.4-1-3.6-2.9-3.6-5.6
					c0-0.3,0-0.6,0-0.9v-2.7c0-1.3-0.5-2.2-1.2-2.5c0.5-0.3,0.9-0.8,1.1-1.5c0.1-0.3,0.1-0.7,0.1-1v-2.7c0-3,1.2-5.1,3.6-6.3
					c1-0.5,2.2-0.8,3.6-0.9c0.4,0,0.7,0,1,0c2.8,0,4.7,1,5.8,2.9c0.4,0.8,0.7,1.8,0.8,2.9c-0.1,1.3,0.1,2.2,0.7,2.7
					c-0.4,0.4-0.8,0.6-1.4,0.6c-0.5,0-1-0.2-1.4-0.5c-0.4,0.7-1.1,1.1-2.1,1.1c-0.8,0-1.3-0.1-1.6-0.4c0.6-0.9,0.9-1.8,0.9-2.6
					c0-0.7-0.2-1.3-0.6-1.7c-0.4-0.4-0.9-0.6-1.5-0.6h-0.1c-1,0-1.7,0.3-2.1,0.8c-0.3,0.4-0.4,1.2-0.4,2.2v2.6
					c0,1.3,0.5,2.2,1.2,2.5c-0.5,0.3-0.9,0.8-1.1,1.5c-0.1,0.3-0.2,0.7-0.2,1v2.6c0,1,0.1,1.8,0.4,2.2c0.4,0.6,1.1,0.8,2.1,0.8h0.1
					c0.6,0,1.1-0.2,1.5-0.6c0.4-0.4,0.6-1,0.6-1.7c0-0.8-0.3-1.7-0.9-2.6C514.2,273.4,514.8,273.2,515.5,273.2z"/>
				<path d="M532.2,282c-1.1,0.5-2.3,0.8-3.8,1c-1.5-0.1-2.8-0.4-3.9-0.9c-2.6-1.2-3.9-3.3-3.9-6.4v-2.9c-0.1-1.3-0.5-2.2-1.3-2.6
					c0.5-0.3,0.9-0.8,1.1-1.5c0.1-0.3,0.1-0.7,0.2-1.1v-2.7c-0.1-2.6-0.6-4.6-1.6-6.2c0.8-0.6,1.5-0.9,2.4-0.9
					c0.7,0,1.4,0.3,1.9,0.8c0.7-0.5,1.4-0.8,2.1-0.8c0.7,0,1.3,0.3,1.9,0.8c-0.9,1.8-1.4,3.9-1.4,6.4v2.6c0,1.3,0.5,2.2,1.3,2.6
					c-0.5,0.3-0.9,0.8-1.1,1.5c-0.1,0.3-0.2,0.7-0.2,1.1v2.6c0,0.9,0.3,1.7,0.8,2.2c0.5,0.5,1.1,0.7,1.8,0.7c0.7,0,1.3-0.2,1.8-0.7
					c0.5-0.6,0.8-1.3,0.8-2.2v-2.6c-0.1-1.3-0.5-2.2-1.3-2.6c0.5-0.3,0.9-0.8,1.1-1.5c0.1-0.3,0.1-0.7,0.2-1.1V265
					c0-2.5-0.5-4.6-1.4-6.4c0.6-0.5,1.2-0.8,1.9-0.8c0.7,0,1.4,0.3,2.1,0.8c0.5-0.5,1-0.8,1.7-0.8c0.7,0,1.5,0.3,2.2,0.9
					c-0.6,1-1,2.4-1.2,4c-0.1,0.7-0.2,1.4-0.2,2.2v2.7c0.1,1.3,0.5,2.2,1.3,2.6c-0.5,0.3-0.9,0.8-1.1,1.5c-0.1,0.3-0.2,0.7-0.2,1.1
					v2.9C536.1,278.6,534.7,280.8,532.2,282z"/>
				<path d="M557.1,263.6c0,0.7-0.2,1.3-0.7,1.7c-1.9-1-3.6-1.5-4.8-1.5c-0.6,0-1.1,0.1-1.5,0.3c-0.1,2.8,0.3,4.8,1.3,6.1
					c-0.9,1.2-1.3,3-1.3,5.5c0,2.4,0.4,4.5,1.3,6.4c-0.6,0.5-1.3,0.8-2,0.8c-0.7,0-1.4-0.3-2.1-0.9c-0.7,0.6-1.4,0.9-2.1,0.9
					c-0.7,0-1.4-0.3-2-0.8c0.9-1.9,1.3-4,1.3-6.4c0-2.5-0.4-4.3-1.3-5.5c0.9-1.3,1.4-3.2,1.3-5.9c-0.3-0.3-0.9-0.5-1.7-0.5
					c-1.3,0-2.9,0.5-4.8,1.5c-0.4-0.5-0.7-1-0.7-1.7c0-0.7,0.2-1.5,0.7-2.3c-0.4-0.4-0.6-1-0.6-1.7c0-0.6,0.2-1.3,0.6-1.8
					c1.3,0.6,2.9,0.9,4.6,0.9c1.6,0,3.1-0.3,4.7-0.9c1.5,0.6,3.1,0.9,4.6,0.9c1.7,0,3.3-0.3,4.6-0.9c0.4,0.6,0.6,1.2,0.6,1.8
					c0,0.7-0.2,1.2-0.6,1.7C556.8,262.1,557.1,262.9,557.1,263.6z"/>
			</g>
		</g>
	</g>
</g>
</svg>
