<?xml version="1.0" encoding="utf-8"?>
<!-- Generator: Adobe Illustrator 18.1.1, SVG Export Plug-In . SVG Version: 6.00 Build 0)  -->
<!DOCTYPE svg PUBLIC "-//W3C//DTD SVG 1.1//EN" "http://www.w3.org/Graphics/SVG/1.1/DTD/svg11.dtd">
<svg version="1.1" xmlns="http://www.w3.org/2000/svg" xmlns:xlink="http://www.w3.org/1999/xlink" x="0px" y="0px"
	 viewBox="0 0 1440 778" enable-background="new 0 0 1440 778" xml:space="preserve">
<g id="Layer_2">
	<rect y="-0.1" fill="#EBEBEB" width="1440" height="778"/>
	<g>
		<polygon fill="#EFEFEF" points="801.5,778.3 1440,88.2 1440,0.3 1438.2,0.3 718.3,778.3 		"/>
		<polygon fill="#EFEFEF" points="1390,778.3 1440,778.3 1440,724 		"/>
		<polygon fill="#EFEFEF" points="633.6,778.3 1353.5,0.3 1270.3,0.3 550.4,778.3 		"/>
		<polygon fill="#EFEFEF" points="465.6,778.3 1185.6,0.3 1102.4,0.3 382.4,778.3 		"/>
		<polygon fill="#EFEFEF" points="1440,361.1 1054.2,778.3 1137.4,778.3 1440,451 		"/>
		<polygon fill="#EFEFEF" points="1440,179.7 886.2,778.3 969.5,778.3 1440,269.6 		"/>
		<polygon fill="#EFEFEF" points="1440,542.6 1222.1,778.3 1305.3,778.3 1440,632.5 		"/>
		<polygon fill="#EFEFEF" points="262.7,0.3 0,284.6 0,374.5 345.9,0.3 		"/>
		<polygon fill="#EFEFEF" points="430.6,0.3 0,466.1 0,556 513.8,0.3 		"/>
		<polygon fill="#EFEFEF" points="598.5,0.3 0,647.5 0,737.4 681.7,0.3 		"/>
		<polygon fill="#EFEFEF" points="94.9,0.3 0,103.2 0,193.1 178,0.3 		"/>
		<polygon fill="#EFEFEF" points="297.7,778.3 1017.6,0.3 934.4,0.3 214.5,778.3 		"/>
		<polygon fill="#EFEFEF" points="129.7,778.3 849.7,0.3 766.5,0.3 46.5,778.3 		"/>
	</g>
	<g display="none">
		<g id="base" display="inline">
			<g>
				<rect x="239.8" y="580.7" fill-rule="evenodd" clip-rule="evenodd" fill="#F2F2F2" width="125.8" height="94.3"/>
			</g>
		</g>
		<g id="shade" display="inline">
			<g>
				<rect x="334.2" y="643.6" fill-rule="evenodd" clip-rule="evenodd" fill="#E8E8E8" width="31.5" height="31.4"/>
			</g>
		</g>
		<g id="tint" display="inline">
			<g>
				<rect x="334.2" y="612.1" fill-rule="evenodd" clip-rule="evenodd" fill="#FCFCFC" width="31.5" height="31.4"/>
			</g>
		</g>
		<g id="tone" display="inline">
			<g>
				<rect x="334.2" y="580.7" fill-rule="evenodd" clip-rule="evenodd" fill="#F2F2F2" width="31.5" height="31.4"/>
			</g>
		</g>
		<g id="base_7_" display="inline">
			<g>
				<rect x="239.8" y="462.1" fill-rule="evenodd" clip-rule="evenodd" fill="#202021" width="125.8" height="94.3"/>
			</g>
		</g>
		<g id="shade_7_" display="inline">
			<g>
				<rect x="334.2" y="524.9" fill-rule="evenodd" clip-rule="evenodd" fill="#0D0D0D" width="31.5" height="31.4"/>
			</g>
		</g>
		<g id="tint_7_" display="inline">
			<g>
				<rect x="334.2" y="493.5" fill-rule="evenodd" clip-rule="evenodd" fill="#333335" width="31.5" height="31.4"/>
			</g>
		</g>
		<g id="tone_7_" display="inline">
			<g>
				<rect x="334.2" y="462.1" fill-rule="evenodd" clip-rule="evenodd" fill="#202021" width="31.5" height="31.4"/>
			</g>
		</g>
		<g id="base_5_" display="inline">
			<g>
				<rect x="236.8" y="340" fill-rule="evenodd" clip-rule="evenodd" fill="#8C0D24" width="125.8" height="94.3"/>
			</g>
		</g>
		<g id="shade_5_" display="inline">
			<g>
				<rect x="331.2" y="402.8" fill-rule="evenodd" clip-rule="evenodd" fill="#680A1B" width="31.5" height="31.4"/>
			</g>
		</g>
		<g id="tint_5_" display="inline">
			<g>
				<rect x="331.2" y="371.4" fill-rule="evenodd" clip-rule="evenodd" fill="#B0102D" width="31.5" height="31.4"/>
			</g>
		</g>
		<g id="tone_5_" display="inline">
			<g>
				<rect x="331.2" y="340" fill-rule="evenodd" clip-rule="evenodd" fill="#51484A" width="31.5" height="31.4"/>
			</g>
		</g>
		<g id="base_3_" display="inline">
			<g>
				<rect x="236.8" y="226" fill-rule="evenodd" clip-rule="evenodd" fill="#26616F" width="125.8" height="94.3"/>
			</g>
		</g>
		<g id="shade_3_" display="inline">
			<g>
				<rect x="331.2" y="288.8" fill-rule="evenodd" clip-rule="evenodd" fill="#1C4752" width="31.5" height="31.4"/>
			</g>
		</g>
		<g id="tint_3_" display="inline">
			<g>
				<rect x="331.2" y="257.4" fill-rule="evenodd" clip-rule="evenodd" fill="#307B8C" width="31.5" height="31.4"/>
			</g>
		</g>
		<g id="tone_3_" display="inline">
			<g>
				<rect x="331.2" y="226" fill-rule="evenodd" clip-rule="evenodd" fill="#484C4D" width="31.5" height="31.4"/>
			</g>
		</g>
		<g id="base_4_" display="inline">
			<g>
				<rect x="236.8" y="112.1" fill-rule="evenodd" clip-rule="evenodd" fill="#59473C" width="125.8" height="94.3"/>
			</g>
		</g>
		<g id="shade_4_" display="inline">
			<g>
				<rect x="331.2" y="175" fill-rule="evenodd" clip-rule="evenodd" fill="#42342C" width="31.5" height="31.4"/>
			</g>
		</g>
		<g id="tint_4_" display="inline">
			<g>
				<rect x="331.2" y="143.5" fill-rule="evenodd" clip-rule="evenodd" fill="#705A4C" width="31.5" height="31.4"/>
			</g>
		</g>
		<g id="tone_4_" display="inline">
			<g>
				<rect x="331.2" y="112.1" fill-rule="evenodd" clip-rule="evenodd" fill="#4E4A47" width="31.5" height="31.4"/>
			</g>
		</g>
	</g>
</g>
<g id="logo">
	<g id="left">
		<circle cx="384.3" cy="400.3" r="4.3"/>
		<circle cx="358.4" cy="400.3" r="3.3"/>
		<circle cx="338.1" cy="400.3" r="1.7"/>
		<g>
			<line fill="none" stroke="#000000" stroke-width="4" stroke-miterlimit="10" x1="404.4" y1="400.4" x2="1040.8" y2="400.4"/>
			<line fill="none" stroke="#000000" stroke-width="3.4" stroke-miterlimit="10" x1="451.7" y1="435.7" x2="993.6" y2="435.7"/>
			<line fill="none" stroke="#000000" stroke-width="2.8" stroke-miterlimit="10" x1="498.9" y1="471.1" x2="946.4" y2="471.1"/>
			<line fill="none" stroke="#000000" stroke-width="2.2" stroke-miterlimit="10" x1="546.1" y1="506.4" x2="899.1" y2="506.4"/>
			<line fill="none" stroke="#000000" stroke-width="1.6" stroke-miterlimit="10" x1="593.3" y1="541.8" x2="851.9" y2="541.8"/>
			<line fill="none" stroke="#000000" stroke-miterlimit="10" x1="640.6" y1="577.1" x2="804.7" y2="577.1"/>
		</g>
		<g id="right">
			<circle cx="1055.7" cy="400.3" r="4.3"/>
			<circle cx="1081.6" cy="400.3" r="3.3"/>
			<circle cx="1101.9" cy="400.3" r="1.7"/>
		</g>
	</g>
	<g id="orn_2_">
		<g>
			<g>
				<path d="M722.3,200.9c-58.1,0-105.4,47.3-105.4,105.4s47.3,105.4,105.4,105.4s105.4-47.3,105.4-105.4S780.4,200.9,722.3,200.9z
					 M722.3,408.2c-56.2,0-101.8-45.6-101.8-101.8S666,204.5,722.3,204.5s101.8,45.6,101.8,101.8S778.5,408.2,722.3,408.2z"/>
			</g>
			<path d="M722.3,386.6c-44.2,0-80.2-36-80.2-80.2c0-44.2,36-80.2,80.2-80.2s80.2,36,80.2,80.2
				C802.5,350.6,766.5,386.6,722.3,386.6z"/>
		</g>
		<path d="M722.3,204.5c-56.2,0-101.8,45.6-101.8,101.8S666,408.2,722.3,408.2s101.8-45.6,101.8-101.8S778.5,204.5,722.3,204.5z
			 M722.3,397.4c-50.2,0-91-40.8-91-91c0-50.2,40.8-91,91-91s91,40.8,91,91C813.3,356.5,772.5,397.4,722.3,397.4z"/>
		<path d="M621.9,333.5c-5.1-10.3-11.4-20-18.1-29.3c-2.4-3.4-5.5-6.2-9.5-7.6c-4.1-1.4-8.8-0.9-12.2,2c-3.4,2.9-4.6,7.5-4.2,11.8
			c0.5,4.9,3,9.7,6.7,12.9c3.2,2.9,7.6,4.7,11.9,4.3c1-0.1,2-0.4,3-0.7c0.5-0.2,1.9-0.9,2.1-1.1c0.3-0.2,1.4-0.4,1.5-0.4
			c0.1,0.1,0.9,0.7,1.2,0.9c0.5,0.4,1.1,0.9,1.6,1.4c1,0.9,2,1.9,3,2.9c1.9,1.9,3.6,4,5.2,6.2c1.4,1.9,2.8,3.9,3.9,6
			c2.7,5.4,5,11,6.5,16.8c1,3.9,1.5,7.9,1.5,11.9c-0.3,3-0.9,5.9-2,8.8c-0.5,1.5-1.2,2.9-2.1,4.3c-0.1,0.1-0.1,0.1-0.2,0.2
			c-0.8,0.6-1.6,1.3-2.6,1.8c-1,0.5-2,1-3.1,1.3c-1.1,0.3-2.3,0.6-3.4,0.7c-2.3,0.2-4.7,0-6.8-0.7c-1-0.3-2-0.7-2.9-1.2
			c-0.9-0.5-1.6-1-2.3-1.6c-0.7-0.6-1.2-1.1-1.7-1.6c-0.1-0.1-0.2-0.2-0.2-0.3c1.8-0.2,3.3-1.8,3.3-3.9c0-2.2-1.6-3.9-3.5-3.9
			s-3.5,1.8-3.5,3.9c0,1.1,0.4,2.2,1.1,2.9c0.2,0.2,0.3,0.5,0.6,0.8c0.4,0.4,0.8,1,1.3,1.5c0.5,0.5,1.2,1.1,1.9,1.7
			c0.8,0.6,1.6,1.1,2.6,1.6c1,0.5,2,0.9,3.1,1.2c2.2,0.6,4.7,0.8,7.2,0.4c2.4-0.3,4.8-1.1,6.8-2.1c0.3-0.2,0.7-0.4,1-0.6
			c-1.7,2.2-3.7,4.1-6,5.7c-4.7,3.1-10.4,4.6-16,4.8c-6.4,0.3-12.7-1-18.7-3.1c4.1-2.8,6.3-7.5,5.9-12.4c-0.4-4.8-3-9.2-7-11.9
			c-3.9-2.7-9-3.7-13.6-2.4c-4.5,1.3-8.1,4.9-9.3,9.5c-1.2,4.4-0.1,9.3,2.6,12.9c3,4.1,7.9,6.4,12.5,8.2c11.6,4.4,25.3,5.4,37,0.9
			c4.7-1.8,9.1-4.8,12.4-8.8c-0.8,1.2-1.7,2.3-2.7,3.4c-8,8.9-19.7,13.8-31.1,16.7c-12.6,3.2-25.7,4.4-38.6,4.4
			c-13,0-25.9-1.2-38.7-3.6c-6.3-1.2-12.6-2.7-18.7-4.6c-5.8-1.8-11.6-4-16.8-7.1c-4.3-2.6-10.8-7.2-9.4-13.1
			c0.1-0.6,0.3-1.2,0.6-1.7c0.7-1.1,2-1.8,3.2-2.3c2.8-1.1,5.9-1.4,8.9-1.6c6.4-0.5,12.8-0.2,19.2,0.2c6.3,0.3,12.6,0.8,18.8,1.1
			c5.9,0.3,11.9,0.6,17.8,0.3c2.9-0.2,5.8-0.4,8.6-1.3c2.5-0.8,5.1-2.4,4.8-5.4c-0.3-2.8-2.5-5.3-4.3-7.3c-1.3-1.4-3.2-3.6-5.3-2.4
			c-2.3,1.3-1.1,4.6,0.7,5.8c0.9,0.6,2.1,0.8,3,0.3c1.2-0.6,1.5-2,1.2-3.2c1.1,1.3,2.2,2.6,3.1,4.1c0.8,1.4,1.5,3.2,0.8,4.7
			c-0.6,1.4-2.2,2.2-3.5,2.7c-1.6,0.6-3.2,0.9-4.9,1.1c-6.2,0.8-12.5,0.5-18.7,0.2c-6.6-0.3-13.2-0.8-19.7-1.3
			c-6.7-0.4-13.5-0.9-20.3-0.6c-3.2,0.1-6.5,0.4-9.6,1.3c-1.5,0.5-3,1.1-4.1,2.2c-0.8,0.9-1.2,2-1.5,3.1c0-0.1,0-0.1,0,0.2
			c0,0.1,0,0.1,0,0.1c-0.8,5.9,4.5,10.3,8.9,13.2c5.1,3.3,10.8,5.7,16.5,7.7c6.1,2.1,12.3,3.8,18.6,5.1c12.7,2.7,25.6,4.2,38.5,4.6
			c13,0.4,26.1-0.3,38.9-2.9c11.8-2.4,23.9-6.5,33.2-14.4c4.3-3.7,8-8.2,10.4-13.4c2.6-5.5,3.7-11.5,3.6-17.5
			C631.7,356.3,627.3,344.4,621.9,333.5z"/>
		<path d="M822,333.5c5.1-10.3,11.4-20,18.1-29.3c2.4-3.4,5.5-6.2,9.5-7.6c4.1-1.4,8.8-0.9,12.2,2c3.4,2.9,4.6,7.5,4.2,11.8
			c-0.5,4.9-3,9.7-6.7,12.9c-3.2,2.9-7.6,4.7-11.9,4.3c-1-0.1-2-0.4-3-0.7c-0.5-0.2-1.9-0.9-2.1-1.1c-0.3-0.2-1.4-0.4-1.5-0.4
			c-0.1,0.1-0.9,0.7-1.2,0.9c-0.5,0.4-1.1,0.9-1.6,1.4c-1,0.9-2,1.9-3,2.9c-1.9,1.9-3.6,4-5.2,6.2c-1.4,1.9-2.8,3.9-3.9,6
			c-2.7,5.4-5,11-6.5,16.8c-1,3.9-1.5,7.9-1.5,11.9c0.3,3,0.9,5.9,2,8.8c0.5,1.5,1.2,2.9,2.1,4.3c0.1,0.1,0.1,0.1,0.2,0.2
			c0.8,0.6,1.6,1.3,2.6,1.8c1,0.5,2,1,3.1,1.3c1.1,0.3,2.3,0.6,3.4,0.7c2.3,0.2,4.7,0,6.8-0.7c1-0.3,2-0.7,2.9-1.2
			c0.9-0.5,1.6-1,2.3-1.6c0.7-0.6,1.2-1.1,1.7-1.6c0.1-0.1,0.2-0.2,0.2-0.3c-1.8-0.2-3.3-1.8-3.3-3.9c0-2.2,1.6-3.9,3.5-3.9
			s3.5,1.8,3.5,3.9c0,1.1-0.4,2.2-1.1,2.9c-0.2,0.2-0.3,0.5-0.6,0.8c-0.4,0.4-0.8,1-1.3,1.5c-0.5,0.5-1.2,1.1-1.9,1.7
			c-0.8,0.6-1.6,1.1-2.6,1.6c-1,0.5-2,0.9-3.1,1.2c-2.2,0.6-4.7,0.8-7.2,0.4c-2.4-0.3-4.8-1.1-6.8-2.1c-0.3-0.2-0.7-0.4-1-0.6
			c1.7,2.2,3.7,4.1,6,5.7c4.7,3.1,10.4,4.6,16,4.8c6.4,0.3,12.7-1,18.7-3.1c-4.1-2.8-6.3-7.5-5.9-12.4c0.4-4.8,3-9.2,7-11.9
			c3.9-2.7,9-3.7,13.6-2.4c4.5,1.3,8.1,4.9,9.3,9.5c1.2,4.4,0.1,9.3-2.6,12.9c-3,4.1-7.9,6.4-12.5,8.2c-11.6,4.4-25.3,5.4-37,0.9
			c-4.7-1.8-9.1-4.8-12.4-8.8c0.8,1.2,1.7,2.3,2.7,3.4c8,8.9,19.7,13.8,31.1,16.7c12.6,3.2,25.7,4.4,38.6,4.4
			c13,0,25.9-1.2,38.7-3.6c6.3-1.2,12.6-2.7,18.7-4.6c5.8-1.8,11.6-4,16.8-7.1c4.3-2.6,10.8-7.2,9.4-13.1c-0.1-0.6-0.3-1.2-0.6-1.7
			c-0.7-1.1-2-1.8-3.2-2.3c-2.8-1.1-5.9-1.4-8.9-1.6c-6.4-0.5-12.8-0.2-19.2,0.2c-6.3,0.3-12.6,0.8-18.8,1.1
			c-5.9,0.3-11.9,0.6-17.8,0.3c-2.9-0.2-5.8-0.4-8.6-1.3c-2.5-0.8-5.1-2.4-4.8-5.4c0.3-2.8,2.5-5.3,4.3-7.3c1.3-1.4,3.2-3.6,5.3-2.4
			c2.3,1.3,1.1,4.6-0.7,5.8c-0.9,0.6-2.1,0.8-3,0.3c-1.2-0.6-1.5-2-1.2-3.2c-1.1,1.3-2.2,2.6-3.1,4.1c-0.8,1.4-1.5,3.2-0.8,4.7
			c0.6,1.4,2.2,2.2,3.5,2.7c1.6,0.6,3.2,0.9,4.9,1.1c6.2,0.8,12.5,0.5,18.7,0.2c6.6-0.3,13.2-0.8,19.7-1.3
			c6.7-0.4,13.5-0.9,20.3-0.6c3.2,0.1,6.5,0.4,9.6,1.3c1.5,0.5,3,1.1,4.1,2.2c0.8,0.9,1.2,2,1.5,3.1c0-0.1,0-0.1,0,0.2
			c0,0.1,0,0.1,0,0.1c0.8,5.9-4.5,10.3-8.9,13.2c-5.1,3.3-10.8,5.7-16.5,7.7c-6.1,2.1-12.3,3.8-18.6,5.1
			c-12.7,2.7-25.6,4.2-38.5,4.6c-13,0.4-26.1-0.3-38.9-2.9c-11.8-2.4-23.9-6.5-33.2-14.4c-4.3-3.7-8-8.2-10.4-13.4
			c-2.6-5.5-3.7-11.5-3.6-17.5C812.2,356.3,816.6,344.4,822,333.5z"/>
	</g>
	<g id="ribbon_3_">
		<polygon fill="#202021" points="628.3,442.4 506.7,442.4 518.6,473.4 506.7,502.3 628.3,502.3 		"/>
		<polygon fill="#0D0D0D" points="550.4,412 628.2,440.6 628.2,502.1 550.4,473.8 		"/>
		<polygon fill="#202021" points="829.2,442.4 950.8,442.4 939,473.4 950.8,502.3 829.2,502.3 		"/>
		<polygon fill="#0D0D0D" points="907.1,412 829.4,440.6 829.4,502.1 907.1,473.8 		"/>
		<path fill="#333335" d="M907.3,473.8c0,0-120.4-13.2-178.4-13.2c-58,0-178.4,13.2-178.4,13.2V412c0,0,109.8-13.2,178.4-13.2
			S907.3,412,907.3,412V473.8z"/>
	</g>
	<polygon fill="#333335" points="768,552.5 682,552.5 672,535.8 682,515.5 768,515.5 778,535.8 	"/>
	<polygon fill="#333335" points="789.7,506.6 660,506.6 665,488.3 660,469.6 789.7,469.6 784.7,488.3 	"/>
	<g id="logo_1_">
		<circle fill="#FFFFFF" cx="721.9" cy="305.8" r="84.7"/>
		<circle cx="721.9" cy="305.8" r="80.1"/>
		<circle fill="#FFFFFF" cx="721.9" cy="305.8" r="57.6"/>
		<circle cx="721.9" cy="305.8" r="53.4"/>
		<g>
			<path fill="#FFFFFF" d="M667.2,270c0,0.3,0.1,0.7,0.5,1c0.1,0.1,0.3,0.3,0.5,0.4l0.2,0.1c0.7,0.5,1,1.3,1.1,2.2
				c0,1-0.2,1.9-0.7,2.9c-0.5,0.9-1.2,1.6-2,2.2c0.1,0.5,0,1-0.2,1.4c-0.2,0.4-0.5,0.7-1,0.8c-0.7-0.9-1.6-1.7-2.8-2.4
				c-1.3-0.7-2.3-1-3.1-0.9c-0.4-0.8-1.1-1.5-2.4-2.2c-1.2-0.7-2.4-1-3.5-1.1c-0.1-0.5-0.1-0.9,0.2-1.3c0.2-0.4,0.6-0.7,1.1-0.9
				c0.1-0.9,0.3-1.8,0.8-2.7c0.6-1,1.3-1.8,2.2-2.3c0.9-0.5,1.6-0.6,2.3-0.2c0.7,0.4,1.2,0.4,1.6,0.1c0,0.3,0.2,0.7,0.5,1
				c0.1,0.1,0.3,0.3,0.5,0.4c0.6,0.4,0.8,1,0.8,2c0.5-0.4,0.9-0.6,1.4-0.6c0.2,0,0.3,0,0.5,0.1C666.2,270.2,666.7,270.3,667.2,270z
				 M659.6,270.1c-0.3-0.1-0.5-0.2-0.8,0c-0.3,0.1-0.5,0.3-0.7,0.6c-0.2,0.4-0.2,0.7-0.1,1.1c0.1,0.4,0.5,0.8,1.1,1.1
				c0.6,0.3,1.1,0.4,1.5,0.3c0.4-0.1,0.7-0.3,0.9-0.7c0.2-0.3,0.2-0.6,0.2-0.9c0-0.3-0.2-0.5-0.5-0.7c-0.3-0.1-0.6-0.2-1-0.1
				C660,270.5,659.8,270.3,659.6,270.1z M665.7,276.1c0.4-0.1,0.8-0.3,1-0.7c0.2-0.3,0.2-0.6,0.1-1c-0.1-0.3-0.3-0.6-0.5-0.7
				c-0.3-0.2-0.7-0.2-1.2-0.1c-0.2-0.4-0.4-0.8-0.7-0.9c-0.3-0.2-0.6-0.2-0.9-0.1c-0.3,0.1-0.6,0.3-0.7,0.6
				c-0.2,0.4-0.2,0.8-0.1,1.2c0.2,0.5,0.6,0.9,1.3,1.3C664.6,276.1,665.2,276.2,665.7,276.1z"/>
			<path fill="#FFFFFF" d="M677.7,264.1c-0.3,0.3-0.5,0.4-0.8,0.3c-0.3-0.7-0.7-1.2-1.2-1.6c-0.6-0.5-1.2-0.8-1.9-0.8
				c-0.7,0-1.2,0.2-1.7,0.7c-0.5,0.5-0.6,1.1-0.5,1.8c0.1,0.7,0.4,1.3,1,1.8c0.5,0.4,1.1,0.7,1.8,1c0.1,0.2,0,0.5-0.2,0.8
				c-0.3,0.3-0.7,0.6-1.3,0.9c0,0.4-0.1,0.7-0.4,1c-0.3,0.4-0.8,0.7-1.4,0.9c-0.2-2.5-1.1-4.4-2.7-5.9c-0.3-0.3-0.6-0.5-0.8-0.6
				c-0.4-2.3-1.3-4.1-2.6-5.2c-0.5-0.4-0.9-0.7-1.3-0.7c0-0.5,0.1-0.9,0.4-1.2c0.3-0.3,0.7-0.5,1.2-0.5c0-0.5,0.1-0.9,0.4-1.2
				c0.3-0.3,0.6-0.5,1.1-0.5c0.1,0.4,0.4,0.8,0.9,1.2c1.4,1.2,3.2,1.8,5.5,1.9c0.2,0.2,0.4,0.5,0.7,0.7c1.6,1.4,3.7,2,6.2,1.9
				c-0.1,0.6-0.4,1.1-0.7,1.5c-0.3,0.3-0.6,0.5-0.9,0.5C678.2,263.3,678,263.8,677.7,264.1z M668.7,259.8c0.3,0.9,0.8,1.7,1.4,2.2
				c0.1-0.3,0.2-0.5,0.3-0.7c0.1-0.1,0.3-0.3,0.6-0.4C670.5,260.3,669.7,260,668.7,259.8z"/>
			<path fill="#FFFFFF" d="M690.2,253.8c-0.9,0.6-1.9,0.8-3.1,0.7c0-0.6-0.1-1.1-0.4-1.5c-0.3-0.4-0.9-0.8-1.8-1.1
				c0-0.3-0.1-0.6-0.2-0.8c-0.2-0.3-0.5-0.5-1-0.5c-0.4-0.1-0.8,0-1.1,0.3c-0.3,0.2-0.5,0.5-0.5,1c0,0.5,0.2,1,0.6,1.7
				c1.1,1.6,2.1,2.4,3.1,2.6c-0.1,0.4-0.3,0.8-0.7,1c-0.4,0.3-0.8,0.4-1.4,0.3c-0.2,0.5-0.4,0.9-0.8,1.2c-0.4,0.2-0.8,0.3-1.2,0.3
				c-0.2-1.2-0.7-2.3-1.5-3.4c-0.8-1.2-1.6-1.9-2.4-2.2c0-0.8-0.4-1.8-1.2-3c-0.8-1.1-1.7-2-2.7-2.6c0.1-0.5,0.3-0.8,0.7-1.1
				c0.4-0.3,0.8-0.4,1.4-0.3c0.5-0.8,1.1-1.5,2-2.1c1-0.7,1.9-1,2.9-1.1c1-0.1,1.8,0.2,2.2,0.8c0.5,0.6,0.9,0.9,1.4,0.8
				c-0.2,0.3-0.2,0.7,0,1.1c0.1,0.2,0.2,0.4,0.3,0.6c0.3,0.6,0.3,1.3-0.2,2.1c0.5-0.1,1-0.1,1.4,0.1c0.2,0.1,0.3,0.2,0.4,0.4
				c0.3,0.5,0.7,0.7,1.2,0.5c0,0,0.2,0.2,0.6,0.6c0.4,0.5,0.9,0.9,1.3,1.2c0.6,0.5,1.3,0.8,1.9,0.9
				C691.3,252.9,690.8,253.5,690.2,253.8z M681.4,246.5c-0.2-0.2-0.4-0.4-0.7-0.4c-0.3,0-0.6,0.1-0.9,0.2c-0.3,0.2-0.5,0.6-0.6,0.9
				c-0.1,0.5,0.1,1,0.5,1.5c0.4,0.5,0.8,0.9,1.2,1c0.4,0.1,0.8,0,1.1-0.2c0.3-0.2,0.5-0.4,0.5-0.7c0.1-0.3,0.1-0.6-0.1-0.8
				c-0.2-0.3-0.5-0.4-0.9-0.5C681.6,247.1,681.5,246.7,681.4,246.5z"/>
			<path fill="#FFFFFF" d="M702.3,243.4c-0.2,0.2-0.3,0.6-0.3,1c0,0.2,0.1,0.4,0.1,0.6l0.1,0.2c0.2,0.8,0,1.6-0.6,2.4
				c-0.6,0.8-1.4,1.3-2.4,1.8c-1,0.4-1.9,0.5-2.9,0.5c-0.3,0.5-0.6,0.8-1,1c-0.4,0.2-0.8,0.2-1.3,0c0.1-1.2-0.2-2.4-0.7-3.6
				c-0.5-1.3-1.1-2.2-1.8-2.6c0.2-0.8,0-1.9-0.5-3.2c-0.5-1.3-1.2-2.3-2-3.1c0.2-0.4,0.5-0.7,0.9-0.9c0.4-0.2,0.9-0.2,1.4,0
				c0.6-0.7,1.4-1.2,2.4-1.6c1.1-0.4,2.1-0.6,3.1-0.4c1,0.1,1.7,0.6,2,1.3c0.3,0.7,0.7,1.1,1.2,1.1c-0.2,0.3-0.3,0.6-0.2,1.1
				c0,0.2,0.1,0.4,0.1,0.6c0.2,0.7,0,1.3-0.6,2c0.6,0,1.1,0.2,1.4,0.4c0.1,0.1,0.2,0.2,0.3,0.4C701.4,243,701.8,243.3,702.3,243.4z
				 M696.3,238.7c-0.1-0.3-0.3-0.5-0.6-0.5c-0.3-0.1-0.6-0.1-0.9,0.1c-0.4,0.1-0.6,0.4-0.8,0.8c-0.2,0.4-0.1,1,0.1,1.6
				c0.2,0.6,0.6,1,1,1.2c0.4,0.2,0.7,0.2,1.1,0c0.3-0.1,0.5-0.3,0.7-0.6c0.2-0.3,0.2-0.5,0.1-0.8c-0.1-0.3-0.4-0.5-0.8-0.7
				C696.4,239.3,696.4,239,696.3,238.7z M697.3,247.2c0.4,0.2,0.8,0.2,1.2,0.1c0.3-0.1,0.6-0.3,0.7-0.6c0.2-0.3,0.2-0.6,0.1-0.9
				c-0.1-0.3-0.4-0.6-0.8-0.8c0.1-0.5,0.2-0.8,0-1.2c-0.1-0.3-0.3-0.5-0.7-0.6c-0.3-0.1-0.6-0.1-1,0c-0.4,0.2-0.7,0.4-0.8,0.9
				c-0.2,0.5-0.1,1.1,0.2,1.8C696.5,246.4,696.8,246.9,697.3,247.2z"/>
			<path fill="#FFFFFF" d="M710.7,239.4c-0.4,0.1-0.8,0.3-1,0.6c-0.3,0.3-0.3,0.8-0.2,1.3l0.2,1c0.2,0.9,0.7,1.3,1.7,1.2
				c0.5-0.1,1-0.3,1.4-0.6c0.4-0.3,0.7-0.7,0.7-1.1c0.6,0.3,0.9,0.7,1,1.4c0.1,0.3,0.1,0.6,0,1c0.3,0.1,0.4,0.4,0.5,1.1
				c-0.3-0.1-0.8-0.1-1.3,0c-0.3,0.1-0.6,0.2-0.9,0.3c-0.3,0.1-0.6,0.3-0.9,0.4c-0.4,0.2-0.7,0.3-1,0.3c-0.6,0.1-1.3,0-2-0.2
				c-0.4,0.4-0.8,0.7-1.2,0.8c-0.4,0.1-0.9,0-1.3-0.3c0.3-1.1,0.3-2.4,0.1-3.7c-0.3-1.4-0.7-2.4-1.3-3c0.4-0.7,0.4-1.8,0.2-3.2
				c-0.2-1.3-0.7-2.5-1.4-3.5c0.3-0.4,0.7-0.6,1.1-0.7c0.4-0.1,0.9,0,1.4,0.3c0.6-0.5,1.2-0.8,1.8-0.9c0.3-0.1,0.7-0.1,1.1,0
				c0.3,0,0.7,0.1,1,0.1c0.3,0,0.7,0,1-0.1c0.5-0.1,0.9-0.2,1.2-0.5c0.2,0.6,0.2,1-0.1,1.2c0.2,0.3,0.3,0.6,0.3,0.9
				c0.1,0.6,0,1.2-0.5,1.7c-0.2-0.3-0.5-0.6-1.1-0.8c-0.5-0.2-1-0.2-1.5-0.1c-1,0.2-1.4,0.7-1.2,1.7l0.2,1c0.1,0.5,0.3,0.8,0.6,1.1
				c0.3,0.2,0.7,0.3,1.2,0.2c0.7-0.1,1.3-0.5,1.8-1.2c0.1,0.2,0.2,0.3,0.2,0.5c0.1,0.4,0,0.8-0.3,1.1c0.4,0.2,0.6,0.6,0.6,1
				c0,0.2,0,0.4,0,0.6C712.1,239.4,711.4,239.2,710.7,239.4z"/>
			<path fill="#FFFFFF" d="M727.5,245.2c-1,0-2-0.5-2.9-1.3c0.4-0.5,0.6-1,0.6-1.4c0-0.5-0.2-1.2-0.8-2c0.2-0.2,0.3-0.5,0.3-0.8
				c0-0.4-0.1-0.7-0.4-1c-0.3-0.3-0.7-0.4-1-0.5c-0.4,0-0.7,0.1-1,0.5c-0.3,0.4-0.5,0.9-0.5,1.7c-0.1,1.9,0.3,3.2,1,4
				c-0.4,0.3-0.7,0.4-1.2,0.4c-0.5,0-0.9-0.2-1.3-0.6c-0.4,0.3-0.9,0.5-1.3,0.5c-0.4,0-0.8-0.2-1.2-0.5c0.5-1,0.8-2.2,0.9-3.6
				c0.1-1.4-0.2-2.5-0.6-3.1c0.5-0.7,0.8-1.7,0.8-3.1c0-1.4-0.2-2.6-0.6-3.6c0.4-0.3,0.8-0.5,1.2-0.4c0.5,0,0.9,0.2,1.3,0.6
				c0.8-0.4,1.8-0.5,2.8-0.5c1.2,0,2.2,0.3,3,0.8c0.9,0.6,1.3,1.2,1.3,2c0,0.8,0.2,1.3,0.7,1.5c-0.3,0.1-0.5,0.4-0.7,0.9
				c-0.1,0.2-0.1,0.4-0.1,0.6c-0.1,0.7-0.5,1.2-1.4,1.6c0.5,0.2,0.9,0.6,1,1c0.1,0.2,0.1,0.4,0.1,0.5c0,0.6,0.2,1,0.7,1.2
				c0,0,0.1,0.3,0.1,0.8c0,0.7,0.1,1.2,0.3,1.7c0.2,0.7,0.6,1.4,1,1.9C728.9,245.1,728.2,245.2,727.5,245.2z M724.8,234
				c0-0.3-0.1-0.5-0.3-0.7c-0.2-0.2-0.5-0.3-0.9-0.3c-0.4,0-0.8,0.1-1,0.4c-0.3,0.3-0.5,0.8-0.5,1.5c0,0.6,0.1,1.1,0.4,1.5
				c0.3,0.3,0.6,0.5,1,0.5c0.3,0,0.6-0.1,0.9-0.3c0.3-0.2,0.4-0.4,0.4-0.7c0-0.3-0.1-0.6-0.4-0.9C724.6,234.6,724.8,234.3,724.8,234
				z"/>
			<path fill="#FFFFFF" d="M754.2,242.2c-0.1-1.5-0.5-2.4-1.4-2.8c-0.4-0.2-0.8-0.2-1.3-0.1c-0.4,0.1-0.7,0.4-0.9,0.8
				c-0.2,0.4-0.2,0.8-0.1,1.2c0.2,0.5,0.6,0.8,1,1c0.3,0.1,0.5,0.2,0.8,0.2c-0.1,0.4,0,0.9,0.3,1.5c0.1,0.2,0.3,0.5,0.5,0.8
				c0.9,1.3,1.1,2.6,0.4,4c-0.5,1-1.3,1.7-2.4,2.1c-1.2,0.4-2.5,0.3-3.9-0.4c-0.7-0.3-1.4-0.8-2-1.3c-0.1-0.1-0.3-0.3-0.6-0.7
				c-0.2-0.3-0.4-0.4-0.6-0.5c-0.3-0.1-0.7-0.2-1.2-0.1c0-0.1,0.1-0.3,0.1-0.4c0.3-0.7,0.8-1,1.4-1.1c-0.1-0.3,0-0.5,0.1-0.8
				c0.2-0.4,0.5-0.8,0.9-1.1c0.1,0.9,0.4,1.7,0.9,2.5c0.4,0.6,1,1.1,1.7,1.4c0.5,0.3,1,0.3,1.5,0.3c0.5-0.1,0.8-0.3,1-0.7
				c0.2-0.4,0.2-0.9,0-1.6c-0.2-0.5-0.6-0.9-1.2-1.1c-0.3-0.1-0.6-0.2-0.9-0.3c0.3-0.8,0.2-1.5-0.3-2c-0.9-1.2-1-2.5-0.4-3.8
				c0.5-1,1.2-1.7,2.3-2.2c1.1-0.4,2.3-0.4,3.3,0.1c0.6,0.3,1.2,0.7,1.7,1.4c0.1,0.2,0.2,0.3,0.3,0.4c0.1,0.1,0.2,0.3,0.4,0.3
				c0.2,0.1,0.4,0.2,0.8,0.3c0,0.1-0.1,0.2-0.1,0.3c-0.2,0.4-0.5,0.7-1.1,0.9C755.3,241.6,754.9,242,754.2,242.2z"/>
			<path fill="#FFFFFF" d="M766.6,248.4c0.6-0.9,0.8-1.7,0.8-2.2c0.5,0,0.9,0.1,1.2,0.3c0.3,0.3,0.6,0.6,0.6,1.2
				c0.5,0,1,0.1,1.3,0.3c0.3,0.3,0.6,0.6,0.6,1.1c-1.1,0.6-2,1.4-2.8,2.5c-0.9,1.1-1.3,2.1-1.3,3c-0.8,0.2-1.6,0.9-2.5,2.1
				c-0.8,1.1-1.4,2.2-1.6,3.4c-0.5,0-0.9-0.1-1.2-0.3c-0.3-0.3-0.5-0.6-0.6-1.2c-0.5,0.1-0.9-0.1-1.3-0.3c-0.3-0.3-0.5-0.6-0.6-1.1
				c0.5-0.1,1.2-0.5,1.9-1.3c0.2-0.2,0.7-0.8,1.4-1.8c0.4-0.6,0.5-1.1,0.2-1.6c-0.1-0.2-0.3-0.3-0.4-0.4c-0.1-0.1-0.3-0.2-0.5-0.3
				c-0.5-0.1-1,0.1-1.4,0.6c-0.8,1-1.2,1.6-1.4,1.8c-0.6,0.9-0.9,1.7-0.8,2.2c-0.5,0-0.9-0.1-1.2-0.3c-0.3-0.3-0.6-0.6-0.7-1.2
				c-0.5,0.1-0.9-0.1-1.3-0.3c-0.3-0.3-0.5-0.6-0.6-1.1c1.1-0.6,2-1.4,2.8-2.5c0.9-1.1,1.3-2.1,1.3-3c0.8-0.2,1.6-0.9,2.5-2.1
				c0.8-1.1,1.4-2.2,1.6-3.4c0.5,0,0.9,0.1,1.2,0.3c0.3,0.3,0.6,0.6,0.6,1.2c0.5,0,1,0.1,1.3,0.3c0.3,0.3,0.5,0.6,0.6,1.1
				c-0.5,0.1-1.2,0.5-1.9,1.3c-0.2,0.2-0.7,0.8-1.4,1.8c-0.4,0.6-0.5,1.1-0.2,1.5c0.1,0.2,0.3,0.3,0.4,0.4c0.1,0.1,0.3,0.2,0.5,0.3
				c0.5,0.2,1-0.1,1.4-0.6C765.9,249.3,766.4,248.6,766.6,248.4z"/>
			<path fill="#FFFFFF" d="M769.9,267.6c-0.6-0.3-1.2-0.7-1.9-1.3c-0.5-0.7-0.9-1.4-1.1-2c-0.4-1.6,0-3,1.4-4.1l1.3-1.1
				c0.6-0.5,0.8-1,0.7-1.5c0.3,0.1,0.7,0.1,1.1-0.1c0.2-0.1,0.3-0.2,0.5-0.3l1.2-1c1.3-1.1,2.7-1.3,4.2-0.7c0.6,0.3,1.2,0.7,1.9,1.4
				c0.5,0.7,0.8,1.4,1,2.1c0.4,1.6,0,3-1.4,4.1l-1.2,1c-0.6,0.5-0.8,1-0.7,1.5c-0.3-0.1-0.7-0.1-1.1,0.1c-0.2,0.1-0.3,0.2-0.5,0.3
				l-1.3,1.1C772.8,268,771.4,268.2,769.9,267.6z M773.5,263.6c0.6-0.5,0.8-1,0.7-1.5c0.3,0.1,0.7,0.1,1.1-0.1
				c0.2-0.1,0.3-0.2,0.5-0.3l1.1-1c0.4-0.3,0.6-0.7,0.7-1.2c0-0.4-0.1-0.8-0.3-1.1c-0.3-0.3-0.6-0.5-1-0.5c-0.4,0-0.8,0.1-1.3,0.5
				l-1.2,1c-0.6,0.5-0.8,1-0.7,1.5c-0.3-0.1-0.7-0.1-1.1,0.1c-0.2,0.1-0.3,0.2-0.5,0.3l-1.2,1c-0.4,0.4-0.7,0.7-0.7,1.2
				c0,0.4,0.1,0.8,0.3,1.1c0.3,0.3,0.6,0.5,1,0.5c0.4,0,0.8-0.1,1.3-0.5L773.5,263.6z"/>
			<path fill="#FFFFFF" d="M773.6,273.5c-0.2-0.4-0.2-0.8-0.1-1.3c1.2-0.1,2.4-0.4,3.6-1.1c1.3-0.7,2.1-1.4,2.4-2.1
				c0.8,0.1,1.9-0.1,3.1-0.8c1.2-0.6,2.2-1.4,2.9-2.4c0.4,0.2,0.8,0.4,1,0.8c0.2,0.4,0.3,0.9,0.2,1.4c0.8,0.6,1.4,1.3,1.9,2.2
				c0.6,1,0.8,2.1,0.8,3.1c0,1-0.4,1.7-1.1,2.1c-0.7,0.4-1,0.8-1,1.3c-0.3-0.2-0.6-0.2-1.1-0.1c-0.2,0-0.4,0.1-0.6,0.2
				c-1.2,0.6-2.1,0.6-2.8-0.1c-0.6-0.3-1.2-1-1.7-2c-0.5-0.9-1-1.3-1.5-1.3c-0.2,0-0.6,0.2-1.2,0.5c-1.3,0.7-2.1,1.5-2.5,2.5
				c-0.4-0.2-0.8-0.4-1-0.8c-0.2-0.4-0.2-0.8-0.1-1.4C774.1,274.2,773.8,273.9,773.6,273.5z M785.9,273.2c0.3-0.1,0.4-0.4,0.5-0.7
				c0-0.3,0-0.6-0.2-0.9c-0.2-0.4-0.5-0.6-0.9-0.7c-0.5-0.1-1,0-1.6,0.3c-0.6,0.3-0.9,0.7-1.1,1.1c-0.1,0.4-0.1,0.7,0.1,1.1
				c0.2,0.3,0.4,0.5,0.7,0.6c0.3,0.1,0.6,0.1,0.8,0c0.3-0.1,0.5-0.4,0.6-0.8C785.3,273.4,785.6,273.4,785.9,273.2z"/>
		</g>
		<g>
			<path fill="#FFFFFF" d="M667,358.5c-0.3-0.3-0.3-0.6-0.2-0.8c0.7-0.2,1.3-0.5,1.8-1c0.6-0.5,0.9-1.1,1-1.8
				c0.1-0.7-0.1-1.3-0.5-1.8c-0.5-0.5-1-0.7-1.7-0.7c-0.7,0-1.3,0.3-1.9,0.8c-0.5,0.4-0.9,1-1.1,1.6c-0.3,0.1-0.5,0-0.8-0.3
				c-0.3-0.3-0.5-0.8-0.7-1.4c-0.4,0-0.7-0.2-0.9-0.5c-0.3-0.4-0.6-0.8-0.7-1.4c2.5,0.1,4.5-0.5,6.1-2c0.3-0.3,0.5-0.5,0.7-0.7
				c2.3-0.1,4.2-0.8,5.5-2c0.5-0.4,0.8-0.8,0.9-1.2c0.5,0,0.8,0.2,1.1,0.5c0.3,0.3,0.4,0.7,0.4,1.2c0.5,0,0.9,0.2,1.2,0.5
				c0.3,0.3,0.4,0.7,0.4,1.2c-0.4,0.1-0.8,0.3-1.3,0.7c-1.3,1.2-2.2,3-2.5,5.3c-0.2,0.1-0.5,0.3-0.8,0.6c-1.6,1.4-2.4,3.4-2.6,5.9
				c-0.6-0.2-1.1-0.5-1.4-0.8c-0.3-0.3-0.4-0.6-0.4-1C667.7,359.1,667.3,358.8,667,358.5z M672.3,350.1c-1,0.2-1.7,0.6-2.4,1.2
				c0.3,0.1,0.5,0.3,0.6,0.4c0.1,0.1,0.2,0.4,0.3,0.7C671.5,351.8,672,351,672.3,350.1z"/>
			<path fill="#FFFFFF" d="M685.4,362.3c0.5-0.3,1.1-0.9,1.6-1.7c0.8-1.3,1.2-2.3,1-3c0.5-0.1,0.8,0,1.2,0.2
				c0.3,0.2,0.5,0.6,0.7,1.1c0.5-0.1,0.9,0,1.2,0.2c0.3,0.2,0.5,0.5,0.6,1l-0.6,0.5c-0.8,0.5-1.4,1.2-2,2.1
				c-0.8,1.2-1.2,2.2-1.1,3.1c-0.8,0.3-1.6,1-2.4,2.2c-0.8,1.2-1.2,2.3-1.4,3.5c-0.4,0.1-0.8,0-1.1-0.2c-0.3-0.2-0.5-0.6-0.6-1.1
				c-0.5,0.1-0.9,0.1-1.2-0.2c-0.3-0.2-0.5-0.5-0.6-1c0.7-0.2,1.3-0.6,1.7-1.3c0.5-0.7,0.7-1.5,0.6-2.4l-0.3-3.6
				c-0.8,0.5-1.6,1.3-2.3,2.3c-0.8,1.1-1.3,2.4-1.5,3.8c-0.5,0.1-0.8,0-1.2-0.2c-0.3-0.2-0.6-0.6-0.7-1.1c-0.5,0.1-0.9,0-1.3-0.2
				c-0.3-0.2-0.5-0.5-0.6-1c1-0.6,1.9-1.5,2.7-2.7c0.8-1.2,1.2-2.2,1.1-3.1c0.8-0.3,1.7-1.1,2.5-2.3c0.6-0.9,1-1.8,1.2-2.7l0.2-0.8
				c0.5-0.1,0.8,0,1.2,0.2c0.3,0.2,0.6,0.6,0.7,1.1c0.5-0.1,0.9,0,1.2,0.2c0.3,0.2,0.5,0.5,0.6,1c-0.4,0.2-0.7,0.5-0.9,0.8
				c-0.3,0.4-0.4,0.9-0.4,1.4L685.4,362.3z"/>
			<path fill="#FFFFFF" d="M701.9,371.7c-0.3,0-0.6,0.2-0.9,0.6c-0.1,0.2-0.2,0.3-0.3,0.6l-1.1,2.9c-0.4,0.7-1.1,1.2-2,1.4
				c-0.9,0.2-1.9,0.1-2.9-0.3c-1-0.4-1.8-0.9-2.5-1.6c-0.5,0.2-1,0.2-1.4,0c-0.4-0.2-0.7-0.4-1-0.9c0.8-0.8,1.5-1.9,2-3.1
				c0.5-1.3,0.6-2.4,0.4-3.2c0.7-0.5,1.3-1.3,1.8-2.7c0.5-1.3,0.7-2.5,0.6-3.7c0.4-0.2,0.9-0.2,1.3,0c0.4,0.2,0.8,0.5,1,1
				c0.9-0.1,1.9,0.1,2.8,0.4c1.1,0.4,2,1,2.6,1.8c0.6,0.8,0.8,1.5,0.5,2.3l-1.1,2.9C701.5,370.8,701.6,371.4,701.9,371.7z
				 M699.6,367.4c0.2-0.5,0.2-0.9,0-1.3c-0.2-0.3-0.4-0.6-0.8-0.7c-0.4-0.1-0.7-0.2-1-0.1c-0.4,0.1-0.6,0.4-0.7,0.7l-0.7,1.9
				c-0.2,0.7-0.2,1.3,0.2,1.7c-0.3,0-0.6,0.2-0.9,0.6c-0.1,0.2-0.2,0.3-0.3,0.6l-0.9,2.3c-0.1,0.4-0.1,0.7,0.1,1
				c0.2,0.3,0.5,0.5,0.8,0.7c0.4,0.1,0.7,0.1,1.1,0c0.4-0.1,0.6-0.5,0.8-1l0.7-2c0.3-0.7,0.2-1.3-0.1-1.7c0.3,0,0.6-0.2,0.9-0.6
				c0.1-0.2,0.2-0.4,0.3-0.6L699.6,367.4z"/>
			<path fill="#FFFFFF" d="M725.7,371.3c-0.7-1.3-1.5-1.9-2.5-1.9c-0.5,0-0.9,0.2-1.2,0.5c-0.3,0.3-0.5,0.7-0.5,1.1
				c0,0.4,0.2,0.8,0.5,1.1c0.4,0.3,0.9,0.5,1.4,0.5c0.3,0,0.5-0.1,0.8-0.2c0.1,0.4,0.4,0.8,1,1.2c0.2,0.2,0.5,0.3,0.8,0.5
				c1.4,0.7,2.1,1.9,2.2,3.4c0,1.1-0.4,2.1-1.2,2.9c-0.9,0.9-2.1,1.4-3.6,1.4c-0.8,0-1.6-0.1-2.4-0.3c-0.2,0-0.5-0.2-0.8-0.3
				c-0.3-0.1-0.5-0.2-0.8-0.2c-0.3,0-0.7,0.2-1.1,0.5c0-0.1,0-0.3,0-0.4c0-0.7,0.2-1.2,0.7-1.6c-0.2-0.2-0.2-0.5-0.3-0.8
				c0-0.4,0.1-0.9,0.3-1.4c0.5,0.8,1.1,1.4,1.9,1.8c0.7,0.4,1.4,0.5,2.1,0.5c0.6,0,1.1-0.2,1.5-0.4c0.4-0.3,0.6-0.6,0.6-1
				c0-0.4-0.2-0.9-0.7-1.4c-0.4-0.3-0.9-0.5-1.6-0.5c-0.3,0-0.6,0.1-0.9,0.1c-0.1-0.9-0.5-1.4-1.1-1.6c-1.3-0.7-2-1.8-2.1-3.2
				c0-1.1,0.4-2.1,1.1-3c0.8-0.9,1.8-1.4,3-1.4c0.7,0,1.4,0.1,2.1,0.5c0.2,0.1,0.3,0.2,0.5,0.3c0.1,0.1,0.3,0.1,0.5,0.1
				c0.2,0,0.5,0,0.9-0.1c0,0.1,0,0.2,0,0.3c0,0.5-0.2,0.9-0.5,1.3C726.3,370.2,726.1,370.8,725.7,371.3z"/>
			<path fill="#FFFFFF" d="M737.5,368c-0.4-1-0.8-1.7-1.2-2c0.3-0.4,0.6-0.6,1-0.7c0.4-0.1,0.9,0,1.3,0.2c0.3-0.4,0.6-0.7,1.1-0.8
				c0.4-0.1,0.8,0,1.3,0.2c-0.2,1.2-0.2,2.4,0.1,3.8c0.3,1.4,0.8,2.4,1.5,2.9c-0.3,0.8-0.3,1.9,0,3.3c0.3,1.3,0.9,2.5,1.6,3.4
				c-0.3,0.4-0.6,0.6-1,0.7c-0.4,0.1-0.8,0-1.3-0.2c-0.3,0.4-0.6,0.7-1.1,0.8c-0.4,0.1-0.8,0-1.2-0.2c0.3-0.5,0.4-1.3,0.2-2.3
				c0-0.3-0.2-1-0.5-2.2c-0.2-0.7-0.5-1.1-1.1-1.2c-0.2,0-0.4,0-0.5,0.1c-0.1,0-0.3,0.1-0.5,0.2c-0.4,0.3-0.6,0.8-0.4,1.5
				c0.3,1.2,0.5,1.9,0.6,2.2c0.4,1,0.8,1.7,1.2,2c-0.3,0.4-0.6,0.6-1,0.7c-0.4,0.1-0.9,0-1.3-0.2c-0.3,0.4-0.6,0.7-1.1,0.8
				c-0.4,0.1-0.8,0-1.2-0.2c0.2-1.2,0.2-2.4-0.1-3.8c-0.3-1.4-0.8-2.4-1.5-2.9c0.3-0.8,0.3-1.9,0-3.3c-0.3-1.3-0.9-2.5-1.6-3.4
				c0.3-0.4,0.6-0.6,1-0.7c0.4-0.1,0.9,0,1.3,0.2c0.3-0.4,0.7-0.7,1.1-0.8c0.4-0.1,0.8,0,1.2,0.2c-0.3,0.5-0.4,1.3-0.2,2.3
				c0,0.3,0.2,1,0.5,2.2c0.2,0.7,0.5,1.1,1.1,1.2c0.2,0,0.4,0,0.5-0.1c0.2,0,0.3-0.1,0.5-0.2c0.5-0.3,0.6-0.8,0.4-1.5
				C737.8,369,737.6,368.3,737.5,368z"/>
			<path fill="#FFFFFF" d="M759.2,372.2c-0.3,0.2-0.6,0.2-0.9,0c0-0.7-0.2-1.4-0.5-1.9c-0.4-0.7-0.9-1.2-1.5-1.4
				c-0.6-0.2-1.2-0.2-1.8,0.1c-0.6,0.3-1,0.8-1.1,1.5c-0.1,0.7,0,1.3,0.3,2c0.3,0.6,0.7,1.1,1.3,1.5c0,0.3-0.2,0.5-0.5,0.7
				c-0.4,0.2-0.9,0.3-1.5,0.4c-0.1,0.3-0.3,0.6-0.7,0.8c-0.4,0.2-1,0.3-1.6,0.3c0.7-2.4,0.6-4.5-0.4-6.4c-0.2-0.3-0.4-0.6-0.6-0.9
				c0.5-2.3,0.3-4.2-0.6-5.8c-0.3-0.6-0.6-0.9-1-1.1c0.2-0.4,0.4-0.8,0.8-0.9c0.4-0.2,0.8-0.2,1.3-0.1c0.1-0.5,0.4-0.8,0.8-1
				c0.4-0.2,0.8-0.2,1.2-0.1c0,0.4,0.1,0.9,0.4,1.4c0.8,1.6,2.3,2.8,4.5,3.8c0.1,0.3,0.2,0.6,0.4,0.9c1,1.9,2.7,3.2,5.1,4
				c-0.3,0.5-0.7,0.9-1.1,1.1c-0.4,0.2-0.7,0.2-1,0.1C760,371.6,759.6,372,759.2,372.2z M752.4,364.9c0,1,0.1,1.8,0.5,2.6
				c0.2-0.3,0.4-0.4,0.6-0.5c0.2-0.1,0.4-0.1,0.7-0.2C753.9,366.1,753.3,365.4,752.4,364.9z"/>
			<path fill="#FFFFFF" d="M768.6,365.9c-0.3,0.3-0.7,0.4-1.2,0.5c-0.1-0.5-0.3-1-0.7-1.5c-0.7-0.8-1.6-1.5-2.9-2.1
				c-1.2-0.5-2-0.7-2.5-0.6c-0.3-0.4-0.5-0.8-0.8-1.1c-0.6-0.7-1.3-1.3-2.1-1.7c-0.7-0.4-1.7-0.7-2.9-1c0.1-0.6,0.3-1,0.7-1.3
				c0.4-0.3,0.8-0.4,1.4-0.3c0.1-0.6,0.3-1,0.6-1.3c0.3-0.3,0.7-0.4,1-0.4c0.1,0.6,0.4,1.2,0.8,1.7c0.8,1,1.8,1.5,2.9,1.7
				c0.1,0.3,0.3,0.7,0.6,1.1c0.3,0.4,0.8,0.8,1.3,1.1c0.5,0.3,0.9,0.5,1.3,0.5c0-0.4,0-0.9-0.3-1.4c-0.2-0.5-0.5-1-0.8-1.5
				c-0.3-0.4-0.6-0.7-0.9-0.8c0.1-1.1-0.2-2.2-1-3.2c-0.4-0.5-0.9-0.9-1.5-1.2c0-0.3,0.2-0.6,0.6-0.9c0.4-0.3,0.9-0.4,1.4-0.4
				c0.1-0.6,0.3-1,0.6-1.3c0.4-0.3,0.9-0.4,1.5-0.4c0,1.3,0.1,2.3,0.4,3c0.2,0.9,0.7,1.7,1.2,2.4c0.3,0.3,0.6,0.6,0.9,1
				c-0.3,0.5-0.3,1.4,0,2.6c0.3,1.3,0.8,2.4,1.5,3.2c0.4,0.5,0.9,0.8,1.4,1c-0.2,0.5-0.4,0.8-0.7,1.1c-0.3,0.3-0.7,0.4-1.1,0.3
				C769.1,365.3,769,365.6,768.6,365.9z"/>
			<path fill="#FFFFFF" d="M776.9,348.3c-0.3,0.4-0.4,0.7-0.4,1.1c0,0.4,0.3,0.8,0.7,1.1l0.8,0.6c0.7,0.6,1.4,0.5,2-0.3
				c0.3-0.4,0.5-0.9,0.6-1.4c0.1-0.5,0-1-0.2-1.3c0.6-0.2,1.2-0.1,1.7,0.3c0.3,0.2,0.5,0.4,0.6,0.7c0.2-0.1,0.6,0,1.1,0.5
				c-0.3,0.1-0.7,0.4-1,0.8c-0.2,0.3-0.4,0.5-0.5,0.8c-0.1,0.3-0.3,0.6-0.4,0.9c-0.2,0.4-0.3,0.7-0.5,0.9c-0.4,0.5-0.9,0.9-1.7,1.2
				c0,0.6-0.1,1-0.4,1.4c-0.3,0.3-0.6,0.6-1.1,0.6c-0.5-1.1-1.3-2-2.4-2.9c-1.1-0.9-2.1-1.3-2.9-1.4c-0.2-0.8-0.9-1.7-2-2.5
				c-1.1-0.8-2.2-1.4-3.3-1.7c0-0.5,0.1-0.9,0.4-1.2c0.3-0.4,0.7-0.6,1.2-0.7c0.1-0.8,0.4-1.4,0.7-1.9c0.2-0.2,0.4-0.5,0.8-0.7
				c0.3-0.2,0.5-0.4,0.8-0.6c0.3-0.2,0.5-0.4,0.7-0.7c0.3-0.4,0.5-0.8,0.6-1.1c0.5,0.4,0.8,0.7,0.7,0.9c0.3,0.1,0.6,0.2,0.8,0.4
				c0.5,0.4,0.8,0.9,0.7,1.6c-0.4-0.1-0.8-0.1-1.3,0.1c-0.5,0.2-0.9,0.5-1.2,0.9c-0.6,0.8-0.5,1.4,0.2,2l0.8,0.6
				c0.4,0.3,0.8,0.4,1.2,0.4c0.4-0.1,0.7-0.3,1-0.6c0.5-0.6,0.6-1.3,0.5-2.1c0.2,0,0.4,0.1,0.5,0.3c0.3,0.3,0.5,0.6,0.6,1
				c0.4-0.1,0.8,0,1.1,0.3c0.2,0.1,0.3,0.3,0.4,0.4C778,347.4,777.4,347.7,776.9,348.3z"/>
		</g>
		<g>
			<path fill="#FFFFFF" d="M683.7,317c-0.6,0-1.1-0.2-1.5-0.7c0.4-1.3,0.6-2.5,0.6-3.4c0-1.2-0.5-2.6-1.5-4.1
				c0.2-0.6,0.4-1.1,0.4-1.7c0-0.6-0.2-1.4-0.6-2.2c-0.2-0.4-0.8-1.4-1.7-3v8.7c0.1,2.7,0.5,4.6,1.3,5.7c-0.6,0.5-1.1,0.7-1.8,0.7
				c-0.6,0-1.1-0.2-1.7-0.7c-0.4,0.5-0.9,0.7-1.4,0.7c-0.6,0-1.1-0.2-1.6-0.7c0.8-1.6,1.1-3.5,1.1-5.6c0-2.2-0.4-3.8-1.1-4.8
				c0.8-1.1,1.2-2.7,1.2-4.9c0-1.6-0.2-3-0.7-4.3l-0.4-1.1c0.9-0.4,1.7-0.7,2.5-0.7c0.7,0,1.4,0.2,2.3,0.6c0.7-0.4,1.5-0.6,2.4-0.6
				c0.6,0,1.2,0.1,1.7,0.2c0.5,0.1,0.8,0.3,0.9,0.4c-0.5,0.8-0.7,1.8-0.7,3c0,1.5,0.2,2.7,0.6,3.5l1.3,3.9l1.3-3.9
				c0.4-0.8,0.6-2,0.6-3.5c0-1.3-0.2-2.3-0.7-3c0.1-0.1,0.4-0.3,0.9-0.4c0.6-0.2,1.1-0.2,1.7-0.2c0.9,0,1.7,0.2,2.4,0.6
				c0.8-0.4,1.6-0.6,2.3-0.6c0.8,0,1.6,0.2,2.5,0.7l-0.4,1.1c-0.5,1.3-0.7,2.8-0.7,4.3c0,2.2,0.4,3.8,1.2,4.9
				c-0.8,1-1.1,2.6-1.1,4.8c0,2.1,0.4,3.9,1.1,5.6c-0.5,0.5-1.1,0.7-1.6,0.7c-0.5,0-1-0.2-1.4-0.7c-0.5,0.5-1.1,0.7-1.7,0.7
				c-0.6,0-1.2-0.2-1.8-0.7c0.6-0.8,0.9-1.9,1.1-3.5c0.1-0.7,0.1-1.4,0.2-2.2v-8.7c-0.9,1.6-1.5,2.6-1.7,3c-0.4,0.8-0.6,1.6-0.6,2.2
				c0,0.5,0.1,1.1,0.4,1.7c-1,1.6-1.5,2.9-1.5,4.1c0,1,0.2,2.1,0.7,3.4c-0.5,0.5-1,0.7-1.6,0.7c-0.5,0-1-0.2-1.4-0.7
				C684.7,316.8,684.2,317,683.7,317z"/>
			<path fill="#FFFFFF" d="M707.5,316.3c-0.8,0.4-1.7,0.6-2.8,0.7c-1.1-0.1-2-0.3-2.8-0.6c-1.9-0.9-2.8-2.4-2.8-4.7v-2.1
				c0-1-0.4-1.6-0.9-1.9c0.4-0.2,0.7-0.6,0.8-1.1c0.1-0.2,0.1-0.5,0.1-0.8v-2c0-2.2,0.9-3.7,2.8-4.6c0.8-0.4,1.7-0.6,2.8-0.7
				c1.1,0.1,2,0.3,2.8,0.7c1.9,0.9,2.8,2.5,2.8,4.6v2c0,1,0.4,1.6,0.9,1.9c-0.4,0.2-0.7,0.6-0.8,1.1c-0.1,0.2-0.1,0.5-0.1,0.8v2.1
				C710.3,313.9,709.3,315.4,707.5,316.3z M706.6,309.6c0-1-0.4-1.6-0.9-1.9c0.4-0.2,0.7-0.6,0.8-1.1c0.1-0.2,0.1-0.5,0.1-0.8V304
				c0-0.7-0.2-1.2-0.6-1.6c-0.4-0.4-0.8-0.6-1.3-0.6c-0.5,0-0.9,0.2-1.3,0.6c-0.4,0.4-0.6,0.9-0.6,1.6v1.9c0,1,0.4,1.6,0.9,1.9
				c-0.4,0.2-0.7,0.6-0.8,1.1c-0.1,0.2-0.1,0.5-0.1,0.8v1.9c0,0.7,0.2,1.2,0.6,1.6c0.4,0.4,0.8,0.6,1.3,0.6c0.5,0,0.9-0.2,1.3-0.6
				c0.4-0.4,0.6-0.9,0.6-1.6V309.6z"/>
			<path fill="#FFFFFF" d="M722.1,316.3c-0.8,0.4-1.7,0.6-2.8,0.7c-1.1-0.1-2-0.3-2.8-0.6c-1.9-0.9-2.8-2.4-2.8-4.7v-2.1
				c0-1-0.4-1.6-0.9-1.9c0.4-0.2,0.7-0.6,0.8-1.1c0.1-0.2,0.1-0.5,0.1-0.8v-2c0-2.2,0.9-3.7,2.8-4.6c0.8-0.4,1.7-0.6,2.8-0.7
				c1.1,0.1,2,0.3,2.8,0.7c1.9,0.9,2.8,2.5,2.8,4.6v2c0,1,0.4,1.6,0.9,1.9c-0.4,0.2-0.7,0.6-0.8,1.1c-0.1,0.2-0.1,0.5-0.1,0.8v2.1
				C724.9,313.9,724,315.4,722.1,316.3z M721.2,309.6c0-1-0.4-1.6-0.9-1.9c0.4-0.2,0.7-0.6,0.8-1.1c0.1-0.2,0.1-0.5,0.1-0.8V304
				c0-0.7-0.2-1.2-0.6-1.6c-0.4-0.4-0.8-0.6-1.3-0.6c-0.5,0-0.9,0.2-1.3,0.6c-0.4,0.4-0.6,0.9-0.6,1.6v1.9c0,1,0.4,1.6,0.9,1.9
				c-0.4,0.2-0.7,0.6-0.8,1.1c-0.1,0.2-0.1,0.5-0.1,0.8v1.9c0,0.7,0.2,1.2,0.6,1.6c0.4,0.4,0.8,0.6,1.3,0.6c0.5,0,0.9-0.2,1.3-0.6
				c0.4-0.4,0.6-0.9,0.6-1.6V309.6z"/>
			<path fill="#FFFFFF" d="M736,303.8c-0.8-1.7-1.9-2.5-3.1-2.5c-0.6,0-1.1,0.2-1.5,0.6c-0.4,0.4-0.6,0.8-0.6,1.4
				c0,0.5,0.2,1,0.6,1.5c0.5,0.4,1.1,0.6,1.7,0.6c0.4,0,0.7-0.1,1-0.2c0.1,0.5,0.5,1,1.2,1.5c0.3,0.2,0.6,0.4,1,0.6
				c1.8,1,2.6,2.4,2.6,4.4c0,1.4-0.5,2.7-1.5,3.7c-1.2,1.1-2.7,1.7-4.6,1.7c-1,0-2-0.1-3-0.4c-0.2-0.1-0.6-0.2-1-0.5
				c-0.4-0.2-0.7-0.3-0.9-0.3c-0.4,0-0.9,0.2-1.4,0.6c0-0.2,0-0.3,0-0.5c0-0.9,0.3-1.6,1-1.9c-0.2-0.3-0.3-0.6-0.3-1
				c0-0.6,0.2-1.2,0.5-1.8c0.6,1,1.3,1.8,2.3,2.3c0.8,0.5,1.7,0.7,2.7,0.7c0.8,0,1.4-0.2,1.9-0.5c0.5-0.3,0.8-0.8,0.8-1.3
				c0-0.6-0.3-1.1-0.8-1.8c-0.5-0.4-1.2-0.7-2-0.7c-0.4,0-0.8,0.1-1.1,0.2c-0.1-1.1-0.5-1.8-1.4-2.1c-1.7-1-2.5-2.3-2.5-4.1
				c0-1.4,0.5-2.6,1.5-3.7c1.1-1.1,2.3-1.7,3.8-1.7c0.9,0,1.8,0.2,2.6,0.6c0.2,0.1,0.4,0.2,0.6,0.3c0.2,0.1,0.4,0.2,0.7,0.2
				c0.2,0,0.6,0,1.1-0.1c0,0.1,0,0.3,0,0.4c0,0.6-0.2,1.1-0.7,1.6C736.8,302.4,736.5,303.2,736,303.8z"/>
			<path fill="#FFFFFF" d="M747,308.7c-0.6,0-1,0.2-1.4,0.5c-0.4,0.4-0.6,0.9-0.6,1.5v1.3c0,1.2,0.6,1.8,1.9,1.8
				c0.6,0,1.3-0.2,1.9-0.5c0.6-0.3,1-0.7,1.1-1.2c0.6,0.5,1,1.1,1,1.9c0,0.4-0.1,0.8-0.2,1.2c0.3,0.1,0.4,0.6,0.3,1.4
				c-0.4-0.2-0.9-0.3-1.6-0.3c-0.4,0-0.8,0-1.2,0.1c-0.4,0.1-0.8,0.2-1.2,0.3c-0.5,0.1-0.9,0.2-1.3,0.2c-0.8,0-1.6-0.2-2.5-0.7
				c-0.5,0.4-1.1,0.7-1.7,0.7c-0.6,0-1.1-0.2-1.5-0.6c0.6-1.3,0.9-2.9,0.9-4.6c0-1.8-0.3-3.1-0.9-4c0.6-0.8,0.9-2.2,0.9-4
				c0-1.7-0.3-3.3-0.9-4.6c0.4-0.4,0.9-0.6,1.5-0.6c0.6,0,1.1,0.2,1.7,0.7c0.8-0.5,1.7-0.7,2.5-0.7c0.4,0,0.8,0.1,1.3,0.2
				c0.4,0.1,0.8,0.2,1.2,0.3c0.4,0.1,0.8,0.1,1.2,0.1c0.6,0,1.1-0.1,1.6-0.3c0.1,0.8,0,1.3-0.3,1.4c0.2,0.4,0.2,0.8,0.2,1.2
				c0,0.8-0.3,1.5-1,1.9c-0.2-0.4-0.5-0.8-1.1-1.2c-0.6-0.3-1.2-0.5-1.9-0.5c-1.2,0-1.9,0.6-1.9,1.8v1.3c0,0.6,0.2,1.1,0.6,1.5
				c0.4,0.3,0.9,0.5,1.4,0.5c0.9,0,1.8-0.4,2.5-1.1c0.1,0.2,0.1,0.5,0.1,0.7c0,0.5-0.2,1-0.6,1.3c0.4,0.4,0.6,0.8,0.6,1.3
				c0,0.3,0,0.5-0.1,0.7C748.7,309.1,747.9,308.7,747,308.7z"/>
			<path fill="#FFFFFF" d="M767.2,303.8c-0.8-1.7-1.9-2.5-3.1-2.5c-0.6,0-1.1,0.2-1.5,0.6c-0.4,0.4-0.6,0.8-0.6,1.4
				c0,0.5,0.2,1,0.6,1.5c0.5,0.4,1.1,0.6,1.7,0.6c0.4,0,0.7-0.1,1-0.2c0.1,0.5,0.5,1,1.2,1.5c0.3,0.2,0.6,0.4,1,0.6
				c1.8,1,2.6,2.4,2.6,4.4c0,1.4-0.5,2.7-1.6,3.7c-1.2,1.1-2.7,1.7-4.6,1.7c-1,0-2-0.1-3-0.4c-0.2-0.1-0.6-0.2-1-0.5
				c-0.4-0.2-0.7-0.3-0.9-0.3c-0.4,0-0.9,0.2-1.4,0.6c0-0.2,0-0.3,0-0.5c0-0.9,0.3-1.6,1-1.9c-0.2-0.3-0.3-0.6-0.3-1
				c0-0.6,0.2-1.2,0.5-1.8c0.6,1,1.3,1.8,2.3,2.3c0.8,0.5,1.7,0.7,2.7,0.7c0.8,0,1.4-0.2,1.9-0.5c0.5-0.3,0.8-0.8,0.8-1.3
				c0-0.6-0.3-1.1-0.8-1.8c-0.5-0.4-1.2-0.7-2-0.7c-0.4,0-0.8,0.1-1.1,0.2c-0.1-1.1-0.5-1.8-1.4-2.1c-1.7-1-2.5-2.3-2.5-4.1
				c0-1.4,0.5-2.6,1.5-3.7c1.1-1.1,2.3-1.7,3.8-1.7c0.9,0,1.8,0.2,2.6,0.6c0.2,0.1,0.4,0.2,0.6,0.3c0.2,0.1,0.4,0.2,0.7,0.2
				c0.2,0,0.6,0,1.1-0.1c0,0.1,0,0.3,0,0.4c0,0.6-0.2,1.1-0.7,1.6C768,302.4,767.8,303.2,767.2,303.8z"/>
		</g>
		<g>
			<path fill-rule="evenodd" clip-rule="evenodd" fill="#FFFFFF" d="M707.6,255.8c0.1,0,0.1,0,0.2,0c0.7,0.3-0.3,1.7,0.7,1.8
				c0.5,0.1,0.9,0,1.2,0c0.8,0,0.7-0.9,1.1-1.3c0.5-0.1,0.2,0.6,0.5,0.7c0.6,0,0.2-1,0.8-1c0.3,0.3,0.1,1.1,0.5,1.3
				c0.9,0.1,0.8-0.8,1.5-1c0.1,0.2,0.1,0.4,0.3,0.5c0.5,0.1,0.7-0.2,1.1-0.2c0,0.4-0.1,0.4,0,0.7c0.5,0.1,0.6-0.4,0.9-0.1
				c-0.2,1-0.6,1.7-1.4,2.2c-1,0.7-2.7,0.8-2.8,1.7c-0.1,0.8,1.1,1.4,0.9,2.6c0.7,0.5,2.3,0.5,2.6-0.3c-0.4-1.2-1.5-1.8-1.5-3.4
				c1.1,0.4,0.9,2.1,2.5,2c0.9-0.8-0.6-2.7,0.6-3.1c0.4,0.1,0.1,0.4,0.1,0.6c0.1,1.3,0.9,3.1,2.1,2.8c0.8-0.2,0.6-1.2,1-1.9
				c0.9,0.1,0.3,1.2,0.3,1.8c1.8-0.4,1.4-3,2-4.6c0.8,0,0.3,1.4,0.6,1.9c1.8,0.2,0.9-2.2,2.4-2.3c0.3,0.4-0.4,0.8,0,1.2
				c1,0.1,0.7-1,1.4-1.1c0.2,0.1,0,0.3,0.1,0.5c0.2,0.3,0.3-0.4,0.8,0.1c0.1-0.2,0.2-0.5,0.5-0.4c0,1.1-0.5,2.2-1.1,2.9
				c-1.4,1.8-5,3.5-7.8,3.8c-0.4,0-0.7,0.5-1.1,0.6c-0.8,0.3-1.7,0.2-2.5,0.4c0.1,0.4,0.6,1,1.2,1.3c1,0.6,2.8,0.4,4.2,1
				c0.9,0.4,1.8,0.9,2.6,1c2,0.3,4.3-0.6,6.2-0.3c2.4,0.3,3.7,2.6,4.3,4.7c0.1,0.4-0.4,0.2-0.5,0.4c-0.1,1.5-0.8,2.4-0.4,3.8
				c0.3,1,1.3,1.8,1.3,2.8c0,0.5-0.3,1-0.4,1.6c-0.3,1.9,0.1,3.9,0,6.2c-0.5,0.4-0.7,1-0.9,1.6c-0.7,0.1-1.5,0.2-2.1,0
				c0.2-0.5,0.5-0.8,0.8-1.1c1.5-3.1,1.1-8.9-1.3-10.8c-0.3,1.6,0.9,1.4-0.1,4.3c-0.7,2.7-2.3,4.5-3,7.2c-0.5,0.1-0.4,0.8-0.7,1
				c-0.6,0.1-1.3,0.3-1.9,0.1c0-0.6,0.5-1,0.9-1.5c0.8-1.1,1.5-2.4,2-4c0.6-1.8,1.4-5.2-0.2-6.9c-1.6-1.7-3.3,1.9-6.9,0
				c-1,2.7-0.4,7.1,0.1,9.9c-0.3,0.5-0.9,0.7-0.9,1.5c-0.5,0.2-1.4,0.4-1.8,0c0.1-0.6,0.7-0.9,0.9-1.4c0.7-1.8,0-4.6-0.4-6.4
				c-0.9,1.7-0.7,4.6-0.8,7c-0.5,0.4-1,0.7-1.2,1.4c-0.6,0-1.6,0.3-2-0.1c0.3-0.7,0.9-0.8,1.2-1.3c1.4-2.3,0.5-5.5,0.3-8.3
				c-0.1-0.7,0.1-1.5,0-2.2c-0.3-1.8-2.4-3.2-2.9-5c-0.5,0.3-0.6,0.7-1.1,0.9c-2-0.6-0.9-4-2-5.6c-0.7,0-0.1,0.1-0.6,0.1
				c-1.5-0.2-1.9-2.9-0.6-3.7c0.8,0.1,1.1,0.6,2,0.3c-0.4-0.7-1.5-0.7-2.6-0.7c-1.2-1.7-4-2.5-4-5c0.8,0.2,0.6,1.3,1.4,1.5
				c0.4-1.1-1.1-2.4-0.1-3.4c0.5,0.4,0.4,1.5,0.7,2C707.6,258.7,707.3,256.9,707.6,255.8z"/>
		</g>
		<g>
			<path fill-rule="evenodd" clip-rule="evenodd" fill="#FFFFFF" d="M662,304.1c-0.1,0.3-4.2,2-6,2.8c1.7,0.8,5.9,2.5,6,2.8
				c-0.7,0-5.6-1.5-7.4-2.1c-1.6,0.7-5.9,2.6-6,2.9c-0.2,0.4,0,0.9-0.2,1.1c-0.2,0.6-1,1.2-1.9,1c-0.7-0.1-1.1-0.8-1.1-1.4
				c0-1.2,1.3-1.7,2.4-1.4c0.2,0.1,0.4,0.2,0.6,0.2c0.5,0,3.1-1.8,3.8-2.1c0.2-0.3,0.3-0.7,0.5-1c-0.3-1-1.5-1.6-2.4-2.1
				c-0.3-0.2-1.9-1.1-2.1-1.1c-0.4,0-0.7,0.4-1,0.4c-0.6,0.1-1.2-0.2-1.5-0.7c-0.1-0.3-0.1-0.6-0.2-0.9c-0.3-0.7-1.7-0.9-1.6-2.1
				c0,0,0.1-0.1,0.1,0c0.5,0.6,0.7,1.5,1.6,1.5c0.5,0,0.8-0.5,1.3-0.5c0.5,0,1.2,0.3,1.4,0.9c0.1,0.2-0.1,0.6,0.1,0.9
				c0.1,0.4,4.5,2.4,6.2,3.1C656.4,305.7,661.4,304.1,662,304.1z M645.9,302.4c-0.3,1.6,2.2,1.9,2.2,0.3c0-0.7-0.6-1.1-1.3-1
				C646.3,301.8,646,302.1,645.9,302.4z M654.2,306.7c0-0.2,0.5-0.1,0.4-0.2C654.4,306.4,654.1,306.8,654.2,306.7z M654.4,307.2
				c-0.2-0.1,0.3-0.4,0.4-0.5c0,0-0.1,0-0.1-0.1c-0.1,0-0.1,0-0.1-0.1c-0.1,0.3-0.3,0.4-0.5,0.5
				C654.2,307.2,654.5,307.4,654.4,307.2z M654.9,307c0-0.1,0-0.2-0.1-0.1C654.9,306.9,654.9,307.1,654.9,307z M654.7,307.3
				c0-0.1,0.2-0.3,0.1-0.2C654.8,307.2,654.5,307.3,654.7,307.3z M645.7,311.2c0,1.8,3,1.3,2.6-0.5c-0.1-0.4-0.5-0.8-1.3-0.7
				C646.3,310.1,645.8,310.4,645.7,311.2z"/>
		</g>
		<g>
			<path fill-rule="evenodd" clip-rule="evenodd" fill="#FFFFFF" d="M782.6,304.1c0.1,0.3,4,2,5.7,2.8c-1.6,0.8-5.6,2.5-5.7,2.8
				c0.6,0,5.3-1.5,7-2.1c1.5,0.7,5.5,2.6,5.7,2.9c0.2,0.4,0,0.9,0.2,1.1c0.2,0.6,0.9,1.2,1.8,1c0.6-0.1,1-0.8,1-1.4
				c0-1.2-1.3-1.7-2.3-1.4c-0.1,0.1-0.3,0.2-0.6,0.2c-0.5,0-2.9-1.8-3.6-2.1c-0.2-0.3-0.3-0.7-0.5-1c0.3-1,1.4-1.6,2.3-2.1
				c0.3-0.2,1.8-1.1,2-1.1c0.4,0,0.6,0.4,0.9,0.4c0.6,0.1,1.2-0.2,1.4-0.7c0.1-0.3,0.1-0.6,0.2-0.9c0.3-0.7,1.6-0.9,1.5-2.1
				c0,0-0.1-0.1-0.1,0c-0.4,0.6-0.6,1.5-1.5,1.5c-0.4,0-0.8-0.5-1.2-0.5c-0.5,0-1.1,0.3-1.3,0.9c-0.1,0.2,0.1,0.6,0,0.9
				c-0.1,0.4-4.2,2.4-5.9,3.1C787.9,305.7,783.2,304.1,782.6,304.1z M797.8,302.4c0.3,1.6-2.1,1.9-2.1,0.3c0-0.7,0.5-1.1,1.2-1
				C797.5,301.8,797.8,302.1,797.8,302.4z M789.9,306.7c0-0.2-0.5-0.1-0.4-0.2C789.8,306.4,790.1,306.8,789.9,306.7z M789.7,307.2
				c0.2-0.1-0.3-0.4-0.4-0.5c0,0,0.1,0,0.1-0.1c0.1,0,0.1,0,0.1-0.1c0.1,0.3,0.3,0.4,0.5,0.5C790,307.2,789.7,307.4,789.7,307.2z
				 M789.3,307c0-0.1,0-0.2,0.1-0.1C789.3,306.9,789.3,307.1,789.3,307z M789.5,307.3c0-0.1-0.2-0.3-0.1-0.2
				C789.4,307.2,789.7,307.3,789.5,307.3z M798,311.2c0,1.8-2.8,1.3-2.4-0.5c0.1-0.4,0.5-0.8,1.2-0.7
				C797.4,310.1,798,310.4,798,311.2z"/>
		</g>
		<rect x="668.4" y="288.5" fill-rule="evenodd" clip-rule="evenodd" fill="#FFFFFF" width="106.7" height="4.2"/>
		<polygon fill-rule="evenodd" clip-rule="evenodd" points="761.1,295.2 750.8,295.2 748.3,287.6 763.5,287.6 		"/>
		<rect x="668.4" y="319.2" fill-rule="evenodd" clip-rule="evenodd" fill="#FFFFFF" width="106.7" height="4.2"/>
		<g>
			<path d="M710.6,327.6l-21.5,16.3c0,0,0,0,0.1,0l21.6-16.4C710.7,327.6,710.6,327.6,710.6,327.6z"/>
			<path d="M741.5,330.9L726.9,342c0,0,0,0,0.1,0L741.5,330.9C741.5,330.9,741.5,330.9,741.5,330.9z"/>
			<path fill="#FFFFFF" d="M701.5,332.2c-1.5,0.9-3.3,1.9-5.3,2.9c-1.9,0.9-4.5,2.4-6.4,1.6c-0.5-0.2-0.9-0.7-1.1-1.2l-4.1,3.1
				c0.8,2.4,2.5,4.1,4.6,5.3l21.5-16.3C707.5,328.4,704.4,330.5,701.5,332.2z"/>
			<path fill="#9C0001" d="M690.1,328.4c-3.6,0-5.9,3.7-6,6.7c0,1.2,0.1,2.3,0.4,3.3c0,0,0,0.1,0,0.1l4.1-3.1c0,0,0-0.1-0.1-0.1
				c-0.7-1.9,0.1-4.9,2-5.5c1.1-0.4,1.7-0.1,3.3,0.3C693.5,328.7,691.5,328.4,690.1,328.4z"/>
			<path fill="#FFFFFF" d="M729.8,327.2c-3.4,0.2-5.2,1.6-7.9,2.9c-0.4-0.3-0.9-0.7-1.4-1l-22.5,17.1c4.8,0.3,9.8-0.6,14.1-2
				l22-16.7C732.7,327.3,731.3,327.1,729.8,327.2z"/>
			<path fill="#0A4569" d="M720.3,329.1c-2.1-1.2-4.6-2.1-7.6-1.9c-0.7,0.1-1.4,0.2-2,0.4L689.1,344c1,0.6,2,1,3.1,1.3
				c1.7,0.5,3.6,0.8,5.5,1c0.1,0,0.1,0,0.2,0l22.5-17.1C720.4,329.1,720.4,329.1,720.3,329.1z"/>
			<path fill="#9C0001" d="M734.2,327.6c-0.1,0-0.1,0-0.2,0l-22,16.7c0.1,0,0.3-0.1,0.4-0.1c1.9-0.6,3.6-1.4,5-2.1
				c1.8-0.9,3.3-2.1,4.8-3.1c1.4,1.1,2.9,2.1,4.7,3l14.6-11.1C739.3,329.5,736.9,328.2,734.2,327.6z"/>
			<path fill="#FFFFFF" d="M747.9,335c-0.4-0.2-0.7-0.4-1-0.6c-1.8-1.1-3.5-2.3-5.4-3.5L726.9,342c2.3,1.2,4.9,2.3,7.8,3L747.9,335z
				"/>
			<path fill="#FFFFFF" d="M755.5,327.9c-2.8-0.6-4.7,0.9-5.2,2.6c1.3-1.4,3-1.3,4.3-0.5l2.1-1.6
				C756.3,328.1,755.9,327.9,755.5,327.9z"/>
			<path fill="#FFFFFF" d="M747.7,346.1c3.6-0.3,7.8-1.7,10-3.8c1.8-1.7,3.3-5,3-8.1l-15.8,12C745.8,346.2,746.7,346.2,747.7,346.1z
				"/>
			<path fill="#0A4569" d="M760.7,334.2c0-0.2,0-0.3-0.1-0.5c-0.3-2-2-4.3-3.9-5.4c0,0,0,0,0,0l-2.1,1.6c0,0,0,0,0,0
				c1.4,0.9,2.2,2.8,1.6,5c-2.2,2.7-5.5,1.6-8.2,0.1c0,0,0,0,0,0l-13.2,10c0,0,0,0,0.1,0c3.1,0.8,6.5,1.3,10.1,1.2c0,0,0.1,0,0.1,0
				L760.7,334.2C760.7,334.2,760.7,334.2,760.7,334.2z"/>
		</g>
		<g id="lmXyGe_1_">
			<g>
				<path fill-rule="evenodd" clip-rule="evenodd" fill="#FFFFFF" d="M758.2,287c-0.1,0.3,0,0.7-0.2,1c-0.5,0.2-0.7-0.1-1.1,0
					c-0.4,1.1-1.7,1.7-2.2,2.8c0.4-0.2-0.1,0.5-0.1,0.2c0.1,0,0.1-0.1,0-0.1c-0.4,0.4,0.1,0.6-0.5,0.4c0,0.4,0,0.7-0.2,0.3
					c-0.4,0.2,0,0.3-0.1,0.6c-0.8,0.5-1.4,1.7-2.2,2c0.6-0.7,1.8-1.6,2-2.2c-0.6,0.9-2.1,1.9-2.7,2.6c-0.2,0.3,0.2,0.4-0.3,0.5
					c0,0,0,0.1,0,0.1c0.3,0.3,0.4,0.9,0.9,0.9c1.5-1.4,3-2.8,4.2-4.4c0-0.4-0.3-0.3-0.3-0.6c0.5-0.3,0.7-0.8,1.4-1
					c1.1,3.3-0.6,6.2,0,9c0.1,0.4,0.1,1,0.5,1.2c0,0,0.1,0,0.1,0c2-1.9,1.3-7.9,0.5-11.4c0.4-0.3,0.6-0.8,0.8-1.3
					c-0.1-0.2,0-0.5-0.2-0.5C758.4,287,758.3,287,758.2,287z M751.5,294.3C750.9,295,751.1,294.2,751.5,294.3L751.5,294.3z
					 M751.2,295.6c1.2-1.5,2.3-3,4-4.2C754.2,292.9,752.5,294.6,751.2,295.6z"/>
			</g>
		</g>
	</g>
	<rect x="1171.4" y="77.2" fill="#26616F" width="153.2" height="51.4"/>
	<g>
		<path fill="#FCFCFC" d="M1208.2,106.7h2.7c0,1.1,1.5,1.3,2.1,1.3c0.4,0,0.9-0.1,0.9-0.7c0-0.6-1.5-0.7-3-1.2
			c-1.4-0.5-2.7-1.3-2.7-3.2c0-2.1,2.1-2.9,3.5-2.9c1.4,0,2.6,0.7,3,1.6l0.2-1.3h2.5v3.6h-2.6c0-0.8-1-1.5-2.1-1.5
			c-0.4,0-0.8,0.2-0.8,0.7c0,0.6,1.2,0.8,2.5,1.2c1.5,0.5,3.2,1.1,3.2,3.2c0,1.9-1.8,3-3.7,3c-1.4,0-2.6-0.7-3.1-1.5l-0.2,1.2h-2.5
			V106.7z"/>
		<path fill="#FCFCFC" d="M1228.7,108.9c-1.5,1.3-3.1,1.8-5.2,1.8c-2.5,0-5.3-1.6-5.3-5.5c0-3.3,2.4-5.3,5.4-5.3
			c2.4,0,4.2,1.2,4.8,2.9c0.2,0.7,0.5,2.3,0,3.4h-6.3c0.1,0.5,0.4,1.7,2.1,1.7c0.7,0,1.7-0.1,2.8-1L1228.7,108.9z M1225.2,104.3
			c0-0.8-0.2-1.6-1.5-1.6c-1.2,0-1.5,1.1-1.5,1.6H1225.2z"/>
		<path fill="#FCFCFC" d="M1229.5,110.3v-2.6h0.9v-4.8h-0.9v-2.6h3.8l0.6,1.3c0.5-1,1-1.8,3.1-1.8v3.6c-1.8,0-2.8,0.5-2.8,2.2v2.1h1
			v2.6H1229.5z"/>
		<path fill="#FCFCFC" d="M1244,107.1c0-0.4,0.3-1.4,0.6-2.2l1-2h-1.1v-2.6h5.2v2.6h-1l-3.5,7.5h-3.1l-3.7-7.5h-0.9v-2.6h6.1v2.6h-1
			l0.9,2.1C1243.6,105.7,1243.8,106.6,1244,107.1L1244,107.1z"/>
		<path fill="#FCFCFC" d="M1250.2,110.3v-2.6h0.8v-4.8h-0.8v-2.6h4.7v7.4h1v2.6H1250.2z M1252.9,95.3c1.4,0,2.2,1.1,2.2,2.1
			c0,1.1-0.8,2-2.2,2c-1.3,0-2.2-1.1-2.2-2C1250.7,96.4,1251.5,95.3,1252.9,95.3z"/>
		<path fill="#FCFCFC" d="M1263.5,104.8c0-1-0.3-2.1-1.3-2.1c-1.2,0-1.8,1.3-1.8,2.6s0.8,2.4,2.1,2.4c1.1,0,1.8-0.4,2.4-1.1l1.8,2.1
			c-0.9,1-2.8,2.1-4.9,2.1c-3,0-5.5-1.8-5.5-5.4c0-3.6,2.4-5.2,5-5.2c1.4,0,2.2,0.7,2.5,1.1l0.3-1h2.4v4.5H1263.5z"/>
		<path fill="#FCFCFC" d="M1277.6,108.9c-1.5,1.3-3.1,1.8-5.2,1.8c-2.5,0-5.3-1.6-5.3-5.5c0-3.3,2.4-5.3,5.4-5.3
			c2.4,0,4.2,1.2,4.8,2.9c0.2,0.7,0.5,2.3,0,3.4h-6.3c0.1,0.5,0.4,1.7,2.1,1.7c0.7,0,1.7-0.1,2.8-1L1277.6,108.9z M1274.1,104.3
			c0-0.8-0.2-1.6-1.5-1.6c-1.2,0-1.5,1.1-1.5,1.6H1274.1z"/>
		<path fill="#FCFCFC" d="M1278.2,106.7h2.7c0,1.1,1.5,1.3,2.1,1.3c0.4,0,0.9-0.1,0.9-0.7c0-0.6-1.5-0.7-3-1.2
			c-1.4-0.5-2.7-1.3-2.7-3.2c0-2.1,2.1-2.9,3.5-2.9c1.4,0,2.6,0.7,3,1.6l0.2-1.3h2.5v3.6h-2.6c0-0.8-1-1.5-2.1-1.5
			c-0.4,0-0.8,0.2-0.8,0.7c0,0.6,1.2,0.8,2.5,1.2c1.5,0.5,3.2,1.1,3.2,3.2c0,1.9-1.8,3-3.7,3c-1.4,0-2.6-0.7-3.1-1.5l-0.2,1.2h-2.5
			V106.7z"/>
	</g>
	<path fill="none" stroke="#26616F" stroke-width="5" stroke-linecap="round" stroke-linejoin="round" stroke-miterlimit="10" d="
		M688.7,693.2l31.3,23.3l31.3-23.3"/>
</g>
<g id="orn">
	<g id="_x32_0_2_">
		<g>
			<path fill="#307B8C" d="M702.9,529.8c1.7-1.9,3.8-3,6.2-3c3.2,0,5.7,2,5.7,5.3c0,2.8-1.3,3.7-3.8,5.4c-1.2,0.7-3,2.3-3.6,3.2h4.2
				v-1.9h4v5.1h-13v-3.5c1.3-2.2,2-2.9,3.5-4.1c1.7-1.5,4.2-2.5,4.2-4c0-1.2-0.9-1.6-2-1.6c-1.3,0-2.2,1.1-3,1.8L702.9,529.8z"/>
			<path fill="#307B8C" d="M716.6,535.3c0-5.1,2.8-8.6,6.8-8.6c4.7,0,6.9,3.5,6.9,8.8c0,5.3-2.4,8.6-6.8,8.6
				C719.5,544.1,716.6,541.2,716.6,535.3z M725.4,535.5c0-2.9-0.9-4.9-2.1-4.9c-0.9,0-2,1.8-2,4.8c0,3.1,1.2,5,2.1,5
				C724.6,540.4,725.4,538.4,725.4,535.5z"/>
			<path fill="#307B8C" d="M731.2,530.2c1.4-0.7,2.4-1.1,4.2-3.1h4.3v13.6h2.2v3.2h-9.6v-3.2h2.4v-8.9l-2.4,1.1L731.2,530.2z"/>
			<path fill="#307B8C" d="M743.3,529.8c1.7-1.9,3.8-3,6.2-3c3.2,0,5.7,2,5.7,5.3c0,2.8-1.3,3.7-3.8,5.4c-1.2,0.7-3,2.3-3.6,3.2h4.2
				v-1.9h4v5.1h-13v-3.5c1.3-2.2,2-2.9,3.5-4.1c1.7-1.5,4.2-2.5,4.2-4c0-1.2-0.9-1.6-2-1.6c-1.3,0-2.2,1.1-3,1.8L743.3,529.8z"/>
		</g>
		<g>
			<path fill="#FFFFFF" d="M700.6,528.6c1.7-1.9,3.8-3,6.2-3c3.2,0,5.7,2,5.7,5.3c0,2.8-1.3,3.7-3.8,5.4c-1.2,0.7-3,2.3-3.6,3.2h4.2
				v-1.9h4v5.1h-13v-3.5c1.3-2.2,2-2.9,3.5-4.1c1.7-1.5,4.2-2.5,4.2-4c0-1.2-0.9-1.6-2-1.6c-1.3,0-2.2,1.1-3,1.8L700.6,528.6z"/>
			<path fill="#FFFFFF" d="M714.3,534.2c0-5.1,2.8-8.6,6.8-8.6c4.7,0,6.9,3.5,6.9,8.8c0,5.3-2.4,8.6-6.8,8.6
				C717.2,543,714.3,540.1,714.3,534.2z M723.1,534.4c0-2.9-0.9-4.9-2.1-4.9c-0.9,0-2,1.8-2,4.8c0,3.1,1.2,5,2.1,5
				C722.3,539.3,723.1,537.3,723.1,534.4z"/>
			<path fill="#FFFFFF" d="M728.9,529.1c1.4-0.7,2.4-1.1,4.2-3.1h4.3v13.6h2.2v3.2H730v-3.2h2.4v-8.9l-2.4,1.1L728.9,529.1z"/>
			<path fill="#FFFFFF" d="M741,528.6c1.7-1.9,3.8-3,6.2-3c3.2,0,5.7,2,5.7,5.3c0,2.8-1.3,3.7-3.8,5.4c-1.2,0.7-3,2.3-3.6,3.2h4.2
				v-1.9h4v5.1h-13v-3.5c1.3-2.2,2-2.9,3.5-4.1c1.7-1.5,4.2-2.5,4.2-4c0-1.2-0.9-1.6-2-1.6c-1.3,0-2.2,1.1-3,1.8L741,528.6z"/>
		</g>
	</g>
	<g id="since_2_">
		<g>
			<path fill="#FFFFFF" d="M707.9,484.5c0,0.1,0,0.4,0,0.6c0,0.3-0.2,0.5-0.3,0.7c-0.1,0.1-0.2,0.2-0.3,0.3s-0.2,0.2-0.4,0.4
				c-0.1,0.1-0.2,0.2-0.2,0.4s-0.1,0.2-0.1,0.4c-0.1,0.4-0.1,0.8-0.1,1.2c0.1,0.4,0.2,0.9,0.3,1.4c0.1,0.5,0.1,0.9,0.2,1.3
				c0.1,0.4,0.1,0.8,0.1,1.3c0,1.6-0.1,3-0.4,4.2c0.2-0.1,0.5-0.3,0.9-0.7c0.4-0.3,0.7-0.7,1.1-1.1c0.4-0.4,0.8-0.8,1.1-1.2
				c0.4-0.4,0.6-0.7,0.8-1v1.6c-1.7,2.1-3.1,3.5-4.4,4.4s-2.6,1.1-3.9,0.8c-0.5-0.1-1-0.4-1.5-0.7c-0.5-0.3-0.8-0.8-1.1-1.3
				c-0.1-0.3-0.3-0.7-0.3-1.2c-0.1-0.5-0.1-1-0.1-1.5c0-0.5,0-1,0.1-1.6c0-0.5,0.1-1,0.2-1.3c0.1,0,0.3-0.1,0.4-0.3
				c0.1-0.1,0.3-0.2,0.4-0.3c0.4-0.5,0.8-0.9,1.3-1.4c0.4-0.4,0.7-0.8,1.1-1.3s0.7-0.8,1-1.2c0.2-0.2,0.4-0.4,0.6-0.7
				c0.2-0.3,0.4-0.5,0.6-0.7c0.2-0.3,0.4-0.5,0.6-0.8c0.2-0.2,0.4-0.5,0.6-0.7c0.2-0.2,0.4-0.3,0.6-0.4c0.2-0.1,0.4-0.1,0.7-0.1
				S707.8,484.2,707.9,484.5z M701.5,491.8c0.2,0.6,0.2,1.2,0,1.8c-0.2,0.6-0.5,1-1,1.2c0,0.3,0.1,0.6,0.3,0.9s0.4,0.6,0.9,0.8
				c0.4,0.1,0.7,0.2,1.1,0.1c0.4-0.1,0.7-0.3,1-0.6c0.5-0.4,0.8-1,1-1.7c0.2-0.7,0.3-1.4,0.3-2.1c0-0.7-0.1-1.5-0.2-2.1
				s-0.2-1.2-0.3-1.6c-0.7,0.6-1.2,1.1-1.7,1.6C702.3,490.7,701.9,491.3,701.5,491.8z"/>
			<path fill="#FFFFFF" d="M713.7,493c-0.1,0.2-0.2,0.4-0.4,0.8c-0.1,0.3-0.3,0.6-0.4,1c-0.1,0.3-0.2,0.6-0.2,1c0,0.3,0,0.6,0.1,0.8
				c0.1,0.2,0.2,0.3,0.4,0.4s0.4,0.1,0.7,0c0.3-0.1,0.7-0.3,1.1-0.7c0.5-0.4,0.9-0.8,1.4-1.3c0.5-0.5,0.9-0.9,1.3-1.3
				s0.6-0.7,0.8-0.9v1.6c-0.1,0.2-0.3,0.4-0.6,0.7c-0.3,0.3-0.6,0.7-1,1.1c-0.4,0.4-0.7,0.8-1.1,1.1c-0.4,0.3-0.7,0.6-0.9,0.8
				c-0.6,0.6-1.2,1-1.8,1.2c-0.6,0.3-1.2,0.3-1.8,0.3c-0.4,0-0.7-0.2-1-0.4c-0.3-0.2-0.5-0.5-0.6-0.8c-0.2-0.4-0.3-0.9-0.3-1.3
				c0-0.5,0-1,0.1-1.5c0.1-0.5,0.2-1.1,0.4-1.6c0.2-0.5,0.4-1,0.6-1.5c0.5-0.9,0.9-1.8,1.2-2.6c0.3-0.6,0.6-1.2,0.8-1.8
				c0.3-0.5,0.4-0.8,0.4-0.8c0.1-0.2,0.2-0.4,0.3-0.5c0-0.1,0.1-0.2,0.2-0.2c0.1,0,0.1-0.1,0.2-0.1c0.1,0,0.3,0,0.5,0h2.2
				c0.3,0,0.5,0.1,0.5,0.2c0,0.1-0.1,0.3-0.2,0.5L713.7,493z M716.5,480.7c0.3-0.1,0.7-0.1,1,0.1c0.3,0.1,0.5,0.3,0.6,0.7
				c0.1,0.4,0.1,0.8,0.1,1.2c-0.1,0.4-0.2,0.9-0.5,1.3c-0.2,0.4-0.5,0.8-0.8,1s-0.7,0.4-1.1,0.5c-0.6,0-1.1-0.1-1.3-0.5
				c-0.1-0.2-0.2-0.5-0.2-0.8c0-0.4,0.1-0.8,0.3-1.2c0.2-0.4,0.5-0.9,0.8-1.3C715.8,481,716.2,480.8,716.5,480.7z"/>
			<path fill="#FFFFFF" d="M724.5,487.2c0.1,0,0.2,0,0.4-0.1s0.5-0.2,0.8-0.3c0.3-0.1,0.7-0.2,1.1-0.2c0.4,0,0.9,0,1.4,0.2
				c0.3,0.1,0.6,0.3,0.8,0.5c0.2,0.2,0.3,0.6,0.3,1c0,0.1-0.1,0.3-0.2,0.5c-0.1,0.2-0.2,0.5-0.4,0.8s-0.3,0.6-0.5,0.9
				c-0.2,0.3-0.3,0.6-0.5,0.9l-0.3,0.5c-0.5,0.7-0.8,1.4-1.2,2.1c-0.3,0.6-0.6,1.2-0.7,1.5c-0.1,0.4-0.1,0.8,0,1.1
				c0.1,0.3,0.4,0.5,0.9,0.5c0.3,0,0.6-0.2,1.1-0.5c0.4-0.3,0.9-0.7,1.3-1.1c0.5-0.4,0.9-0.9,1.3-1.4c0.4-0.5,0.8-0.9,1-1.3v1.5
				c-0.4,0.6-0.9,1.2-1.5,1.9c-0.6,0.7-1.3,1.3-2,1.8s-1.4,1-2.1,1.3c-0.7,0.3-1.4,0.4-2,0.2c-0.4-0.1-0.7-0.3-1-0.5
				c-0.3-0.2-0.6-0.5-0.8-1c-0.2-0.4-0.2-0.9-0.1-1.4c0.1-0.5,0.3-1.1,0.5-1.7s0.6-1.2,0.9-1.8c0.3-0.6,0.7-1.2,1-1.8
				c0-0.1,0.1-0.2,0.2-0.3s0.1-0.2,0.2-0.3c0.1-0.1,0.1-0.3,0.2-0.4c0.1-0.1,0.1-0.2,0.1-0.3c0-0.1-0.1-0.1-0.1-0.2
				c-0.1,0-0.2-0.1-0.3-0.1c-0.1,0-0.2,0-0.3,0c-0.1,0-0.2,0.1-0.3,0.1c-0.1,0-0.2,0.1-0.5,0.3c-0.2,0.2-0.4,0.4-0.5,0.6
				s-0.4,0.5-0.6,0.9c-0.3,0.4-0.6,0.8-0.9,1.3c-0.3,0.5-0.6,1-1,1.6c-0.2,0.3-0.4,0.7-0.6,1.1c-0.2,0.4-0.4,0.8-0.6,1.2l-0.6,1.3
				c-0.1,0.2-0.3,0.4-0.3,0.6c-0.1,0.1-0.2,0.3-0.2,0.3c-0.1,0.1-0.2,0.1-0.3,0.1s-0.3,0-0.6,0c-0.7,0-1.3,0-1.6-0.1
				s-0.5-0.3-0.4-0.5c0.1-0.3,0.2-0.7,0.5-1.3s0.6-1.3,0.9-2.1l4-8c0.3-0.5,0.5-0.8,0.6-0.8c0.1-0.1,0.3-0.1,0.6-0.1h1.5
				c0.4,0,0.7,0.1,0.8,0.3C724.3,486.8,724.4,487,724.5,487.2z"/>
			<path fill="#FFFFFF" d="M738.6,488.3c0-0.1-0.1-0.3-0.2-0.3c-0.1-0.1-0.3-0.1-0.5,0c-0.1,0-0.2,0.1-0.4,0.2
				c-0.2,0.1-0.3,0.2-0.3,0.3c-0.4,0.4-0.8,0.9-1.2,1.5c-0.4,0.6-0.7,1.2-0.9,1.9c-0.3,0.6-0.4,1.3-0.6,1.9
				c-0.1,0.6-0.2,1.1-0.2,1.5c0,0.3,0.1,0.7,0.3,1.1c0.2,0.4,0.5,0.7,0.8,0.8c0.6,0.4,1.2,0.4,1.9,0.2c0.7-0.2,1.4-0.6,2.1-1.1
				c0.7-0.5,1.4-1.1,2-1.8s1.1-1.3,1.5-1.9v1.6c-0.3,0.5-0.8,1-1.4,1.7c-0.6,0.6-1.2,1.2-1.9,1.8c-0.7,0.5-1.4,1-2.2,1.3
				c-0.8,0.3-1.5,0.5-2.2,0.4c-0.7-0.1-1.5-0.4-2.1-0.9c-0.7-0.5-1.2-1.1-1.5-1.9c-0.3-0.6-0.4-1.3-0.5-2c0-0.7,0-1.4,0.2-2
				c0.2-0.7,0.4-1.3,0.6-1.9c0.3-0.6,0.5-1.1,0.8-1.6c0.6-1,1.3-1.8,2.2-2.4c0.8-0.7,1.7-1,2.6-1c0.2,0,0.4,0,0.7,0
				c0.3,0,0.6,0.1,1,0.2s0.7,0.2,1.1,0.4c0.4,0.2,0.7,0.5,0.9,0.8c0.3,0.4,0.4,0.9,0.3,1.5c-0.1,0.6-0.2,1-0.4,1.4
				c-0.2,0.5-0.4,0.8-0.6,1.1c-0.2,0.3-0.6,0.4-1.1,0.5c-0.3,0-0.6,0-0.9,0c-0.3,0-0.5-0.2-0.7-0.4c-0.2-0.2-0.3-0.4-0.3-0.6
				c0-0.2,0.1-0.5,0.2-0.7c0.1-0.3,0.2-0.6,0.4-1S738.6,488.4,738.6,488.3z"/>
			<path fill="#FFFFFF" d="M745.6,494.6c-0.1,0.2-0.2,0.4-0.3,0.5c0,0.1-0.1,0.3-0.1,0.5c0,0.5,0.2,0.8,0.5,1.1
				c0.3,0.2,0.6,0.4,0.9,0.6c0.4,0.2,0.7,0.2,1.1,0.2c1-0.1,2-0.6,3.1-1.5s2.1-2,3.1-3.3v1.6c-0.6,0.8-1.3,1.5-1.9,2.2
				c-0.6,0.7-1.2,1.3-1.9,1.7s-1.3,0.8-1.9,1.1c-0.7,0.3-1.4,0.3-2.2,0.2c-0.6-0.1-1.3-0.3-1.9-0.7c-0.6-0.4-1.1-0.9-1.5-1.7
				c-0.5-1.1-0.6-2.3-0.3-3.6s0.8-2.6,1.6-4c0.6-1,1.2-1.7,1.9-2.3s1.5-0.9,2.3-1c0.5,0,1,0,1.6,0.2s1.1,0.6,1.5,1.1
				c0.4,0.5,0.6,1,0.6,1.6c0,0.6-0.1,1.2-0.3,1.8c-0.1,0.4-0.3,0.8-0.5,1.2c-0.2,0.4-0.5,0.8-0.8,1.1c-0.3,0.4-0.6,0.7-1,1
				c-0.4,0.3-0.8,0.5-1.2,0.7c-0.1,0.1-0.3,0.1-0.6,0.1c-0.2,0-0.5,0-0.7,0c-0.2,0-0.5-0.1-0.7-0.1S745.7,494.7,745.6,494.6z
				 M746.3,491.5c-0.1,0.4-0.1,0.7,0,0.8c0.1,0.2,0.2,0.3,0.4,0.3c0.2,0,0.4,0.1,0.5,0.1c0.1,0,0.3-0.1,0.5-0.2
				c0.6-0.3,1-0.8,1.3-1.5s0.5-1.2,0.5-1.7c0-0.1,0-0.3,0-0.5s-0.2-0.4-0.4-0.5c-0.1,0-0.2-0.1-0.4-0.1c-0.2,0-0.4,0-0.6,0.1
				c-0.2,0.1-0.4,0.3-0.6,0.6s-0.4,0.6-0.6,1c-0.2,0.3-0.3,0.6-0.4,0.9C746.4,491.2,746.3,491.4,746.3,491.5z"/>
		</g>
		<g>
			<path fill="#FFFFFF" d="M692.3,498.3c-1.3,0-2.4-0.5-3.2-1.4l0.7-0.7c0.7,0.8,1.6,1.1,2.7,1.1c2.5-0.2,5.6-2.6,8.7-6.8l0.8,0.6
				c-4.2,5.7-7.4,7-9.4,7.2C692.5,498.3,692.4,498.3,692.3,498.3z"/>
		</g>
	</g>
	<g id="fam_2_">
		<g>
			<path fill="#B0102D" d="M628.8,418.2v8h-6.4V423H617v6.3h6.8v4.8H617v4.6h3.7v4.8h-13.4v-4.8h2.2V423h-2.2v-4.8H628.8z"/>
			<path fill="#B0102D" d="M630.6,426.9c1.4-0.9,4.5-2.6,7.8-2.6c4.3,0,9.8,1.6,9.8,7.4v7h2.2v4.6h-7.7l-0.9-1.6
				c-1.3,1.8-3.6,2.3-4.9,2.3c-3.4,0-7.1-1.8-7.1-6c0-4.1,3.4-6.6,7.5-6.6c2.1,0,3.4,1,3.6,1.3v-1.3c0-1.6-1.5-2-3.4-2
				c-2.1,0-4,0.9-5.4,1.7L630.6,426.9z M640.9,436.8c-0.1-0.2-0.6-1-2.1-1c-1.4,0-2.1,0.8-2.1,1.9c0,1,0.8,1.7,1.9,1.7
				c1.1,0,2-0.6,2.3-1.2V436.8z"/>
			<path fill="#B0102D" d="M651.9,443.4v-4.7h1.5v-8.5h-1.5v-4.8h6.8l0.8,2.1c0.6-0.7,2.2-2.6,4.5-2.6c3.6,0,4.8,1.7,5.4,2.6
				c1.1-1.3,2.8-2.6,5.3-2.6c5.8,0,6.7,4.2,6.7,8.6v5h1.8v4.9H674v-8.8c0-1.7,0.3-4.5-1.4-4.5c-1.5,0-1.9,1.1-1.9,2.6v5.8h2.2v4.8
				h-9.3v-9.2c0-2.9-0.1-4.1-1.5-4.1c-1.2,0-1.6,0.7-1.6,2.2v6.4h2.2v4.7H651.9z"/>
			<path fill="#B0102D" d="M684.5,443.4v-4.7h1.5v-8.6h-1.5v-4.7h8.4v13.3h1.7v4.7H684.5z M689.4,416.4c2.5,0,4,2,4,3.7
				c0,2-1.4,3.6-4,3.6c-2.3,0-3.9-1.9-3.9-3.6C685.5,418.5,686.9,416.4,689.4,416.4z"/>
			<path fill="#B0102D" d="M696.4,443.4v-4.7h1.5V421h-1.5v-4.6h8.4v22.3h2.1v4.7H696.4z"/>
			<path fill="#B0102D" d="M719.6,429.9v-4.6h9.1v4.5H727l-6.8,16.6c-1,2.2-2.5,5.1-7.7,5.1c-1.9-0.1-3.3-0.9-4.4-1.8l2.7-4.2
				c0.6,0.5,1.3,1.1,2.1,1.2c1.1,0.2,1.9-0.8,2.3-1.9l0.5-1.5l-7-13.3h-1.5v-4.6h11.1v4.6h-1.7l2.3,5.6l2.3-5.6H719.6z"/>
			<path fill="#B0102D" d="M737.7,434.3c0-6,4.9-9.4,9.9-9.4c5.7,0.1,9.9,3.5,10,9.5c0.1,6-4.4,9.4-9.8,9.4
				C742.6,443.8,737.7,440.7,737.7,434.3z M750.2,434.4c0-2.7-0.9-4.8-2.6-4.8c-1.4,0-2.5,2.1-2.5,4.7c0,3,1.2,4.9,2.7,4.9
				C749.3,439.2,750.2,437.1,750.2,434.4z"/>
			<path fill="#B0102D" d="M768.2,437.9c0.1-1.5,0.4-4.9,1.5-8.5l1.2-4h6.7l1.4,4.7c0.9,2.8,1.4,6.6,1.5,7.8h0.1
				c0.1-1.2,0.4-3.8,1-5.7l0.6-2.1h-1.5v-4.7h8.8v4.7h-1.5l-4.2,13.3h-7.6l-2.5-8.1l-2.6,8.1h-7.4l-4.1-13.3H758v-4.7h9.7v4.7h-1.2
				l0.8,2.6C767.8,434.4,768.1,436.8,768.2,437.9L768.2,437.9z"/>
			<path fill="#B0102D" d="M790.3,443.4v-4.7h1.5v-8.6h-1.5v-4.7h7.7l0.8,2.2c1.2-1.7,2.9-2.9,5.1-2.9c5.6,0,6.5,4.1,6.5,7.9v6h1.7
				v4.7h-9.1v-9.8c0-1.2,0.1-3.3-2-3.3c-1.8,0-2.3,1.8-2.3,3.3v5.1h2.6v4.7H790.3z"/>
			<path fill="#B0102D" d="M831.7,440.9c-2.7,2.3-5.5,3.1-9.3,3.1c-4.5,0-9.5-2.8-9.5-9.8c0-5.9,4.2-9.4,9.7-9.4
				c4.3,0,7.6,2.2,8.6,5.2c0.4,1.3,0.8,4,0.1,6.1h-11.3c0.2,1,0.7,3,3.7,3c1.2,0,3.1-0.1,5-1.7L831.7,440.9z M825.4,432.6
				c0-1.4-0.4-2.9-2.7-2.9c-2.2,0-2.7,2-2.8,2.9H825.4z"/>
			<path fill="#B0102D" d="M843.8,421.1v-4.7h9v22.3h1.7v4.7h-8.4l-0.6-1.3c-0.5,0.4-2.1,1.7-4.5,1.7c-5.1,0-8.4-4.5-8.4-9.5
				c0-5.6,3.9-9.2,8.4-9.2c2.6,0,3.9,0.9,4.5,1.4v-5.3H843.8z M842.9,438.6c1.4,0,2.7-1.8,2.6-4.6c0-2.4-1.2-4.3-2.6-4.3
				c-1.5,0-2.6,1.8-2.6,4.5C840.3,436.4,841.3,438.6,842.9,438.6z"/>
		</g>
		<g>
			<path fill="#FFFFFF" d="M629.8,417.3v8h-6.4V422H618v6.3h6.8v4.8H618v4.6h3.7v4.8h-13.4v-4.8h2.2V422h-2.2v-4.8H629.8z"/>
			<path fill="#FFFFFF" d="M631.6,425.9c1.4-0.9,4.5-2.6,7.8-2.6c4.3,0,9.8,1.6,9.8,7.4v7h2.2v4.6h-7.7l-0.9-1.6
				c-1.3,1.8-3.6,2.3-4.9,2.3c-3.4,0-7.1-1.8-7.1-6c0-4.1,3.4-6.6,7.5-6.6c2.1,0,3.4,1,3.6,1.3v-1.3c0-1.6-1.5-2-3.4-2
				c-2.1,0-4,0.9-5.4,1.7L631.6,425.9z M641.9,435.9c-0.1-0.2-0.6-1-2.1-1c-1.4,0-2.1,0.8-2.1,1.9c0,1,0.8,1.7,1.9,1.7
				c1.1,0,2-0.6,2.3-1.2V435.9z"/>
			<path fill="#FFFFFF" d="M652.8,442.4v-4.7h1.5v-8.5h-1.5v-4.8h6.8l0.8,2.1c0.6-0.7,2.2-2.6,4.5-2.6c3.6,0,4.8,1.7,5.4,2.6
				c1.1-1.3,2.8-2.6,5.3-2.6c5.8,0,6.7,4.2,6.7,8.6v5h1.8v4.9h-9.1v-8.8c0-1.7,0.3-4.5-1.4-4.5c-1.5,0-1.9,1.1-1.9,2.6v5.8h2.2v4.8
				h-9.3v-9.2c0-2.9-0.1-4.1-1.5-4.1c-1.2,0-1.6,0.7-1.6,2.2v6.4h2.2v4.7H652.8z"/>
			<path fill="#FFFFFF" d="M685.5,442.4v-4.7h1.5v-8.6h-1.5v-4.7h8.4v13.3h1.7v4.7H685.5z M690.4,415.5c2.5,0,4,2,4,3.7
				c0,2-1.4,3.6-4,3.6c-2.3,0-3.9-1.9-3.9-3.6C686.5,417.5,687.9,415.5,690.4,415.5z"/>
			<path fill="#FFFFFF" d="M697.4,442.4v-4.7h1.5v-17.6h-1.5v-4.6h8.4v22.3h2.1v4.7H697.4z"/>
			<path fill="#FFFFFF" d="M720.5,429v-4.6h9.1v4.5h-1.7l-6.8,16.6c-1,2.2-2.5,5.1-7.7,5.1c-1.9-0.1-3.3-0.9-4.4-1.8l2.7-4.2
				c0.6,0.5,1.3,1.1,2.1,1.2c1.1,0.2,1.9-0.8,2.3-1.9l0.5-1.5l-7-13.3h-1.5v-4.6h11.1v4.6h-1.7l2.3,5.6l2.3-5.6H720.5z"/>
			<path fill="#FFFFFF" d="M738.7,433.3c0-6,4.9-9.4,9.9-9.4c5.7,0.1,9.9,3.5,10,9.5c0.1,6-4.4,9.4-9.8,9.4
				C743.6,442.9,738.6,439.7,738.7,433.3z M751.2,433.5c0-2.7-0.9-4.8-2.6-4.8c-1.4,0-2.5,2.1-2.5,4.7c0,3,1.2,4.9,2.7,4.9
				C750.3,438.3,751.2,436.2,751.2,433.5z"/>
			<path fill="#FFFFFF" d="M769.2,436.9c0.1-1.5,0.4-4.9,1.5-8.5l1.2-4h6.7l1.4,4.7c0.9,2.8,1.4,6.6,1.5,7.8h0.1
				c0.1-1.2,0.4-3.8,1-5.7l0.6-2.1h-1.5v-4.7h8.8v4.7h-1.5l-4.2,13.3h-7.6l-2.5-8.1l-2.6,8.1h-7.4l-4.1-13.3H759v-4.7h9.7v4.7h-1.2
				l0.8,2.6C768.7,433.4,769.1,435.9,769.2,436.9L769.2,436.9z"/>
			<path fill="#FFFFFF" d="M791.3,442.4v-4.7h1.5v-8.6h-1.5v-4.7h7.7l0.8,2.2c1.2-1.7,2.9-2.9,5.1-2.9c5.6,0,6.5,4.1,6.5,7.9v6h1.7
				v4.7H804v-9.8c0-1.2,0.1-3.3-2-3.3c-1.8,0-2.3,1.8-2.3,3.3v5.1h2.6v4.7H791.3z"/>
			<path fill="#FFFFFF" d="M832.6,439.9c-2.7,2.3-5.5,3.1-9.3,3.1c-4.5,0-9.5-2.8-9.5-9.8c0-5.9,4.2-9.4,9.7-9.4
				c4.3,0,7.6,2.2,8.6,5.2c0.4,1.3,0.8,4,0.1,6.1h-11.3c0.2,1,0.7,3,3.7,3c1.2,0,3.1-0.1,5-1.7L832.6,439.9z M826.4,431.6
				c0-1.4-0.4-2.9-2.7-2.9c-2.2,0-2.7,2-2.8,2.9H826.4z"/>
			<path fill="#FFFFFF" d="M844.8,420.1v-4.7h9v22.3h1.7v4.7H847l-0.6-1.3c-0.5,0.4-2.1,1.7-4.5,1.7c-5.1,0-8.4-4.5-8.4-9.5
				c0-5.6,3.9-9.2,8.4-9.2c2.6,0,3.9,0.9,4.5,1.4v-5.3H844.8z M843.9,437.7c1.4,0,2.7-1.8,2.6-4.6c0-2.4-1.2-4.3-2.6-4.3
				c-1.5,0-2.6,1.8-2.6,4.5C841.3,435.4,842.3,437.7,843.9,437.7z"/>
		</g>
	</g>
</g>
</svg>
