<?xml version="1.0" encoding="utf-8"?>
<!-- Generator: Adobe Illustrator 18.1.1, SVG Export Plug-In . SVG Version: 6.00 Build 0)  -->
<!DOCTYPE svg PUBLIC "-//W3C//DTD SVG 1.1//EN" "http://www.w3.org/Graphics/SVG/1.1/DTD/svg11.dtd">
<svg version="1.1" id="Layer_1" xmlns="http://www.w3.org/2000/svg" xmlns:xlink="http://www.w3.org/1999/xlink" x="0px" y="0px"
	 viewBox="0 0 720 129.6" enable-background="new 0 0 720 129.6" xml:space="preserve">
<g>
	<g>
		<ellipse cx="45" cy="40.9" rx="4" ry="3.9"/>
		<ellipse cx="20.7" cy="40.9" rx="3.1" ry="3"/>
		<ellipse cx="1.6" cy="40.9" rx="1.6" ry="1.6"/>
		<g>
			<line fill="none" stroke="#000000" stroke-width="3.9409" stroke-miterlimit="10" x1="63.8" y1="41" x2="661.1" y2="41"/>
			<line fill="none" stroke="#000000" stroke-width="2.9557" stroke-miterlimit="10" x1="137.7" y1="65.3" x2="587.2" y2="65.3"/>
			<line fill="none" stroke="#000000" stroke-width="1.9705" stroke-miterlimit="10" x1="211.6" y1="89.6" x2="513.3" y2="89.6"/>
			<line fill="none" stroke="#000000" stroke-width="0.9852" stroke-miterlimit="10" x1="285.5" y1="113.9" x2="439.4" y2="113.9"/>
		</g>
		<g id="right">
			<ellipse cx="675" cy="40.9" rx="4" ry="3.9"/>
			<ellipse cx="699.3" cy="40.9" rx="3.1" ry="3"/>
			<ellipse cx="718.4" cy="40.9" rx="1.6" ry="1.6"/>
		</g>
	</g>
	<g>
		<g>
			<g id="ribbon_1_">
				<polygon fill="#202021" points="265.7,39.3 151.6,39.3 162.7,67.2 151.6,93.3 265.7,93.3 				"/>
				<polygon fill="#0D0D0D" points="192.6,11.9 265.6,37.7 265.6,93.2 192.6,67.6 				"/>
				<polygon fill="#202021" points="454.3,39.3 568.4,39.3 557.3,67.2 568.4,93.3 454.3,93.3 				"/>
				<polygon fill="#0D0D0D" points="527.4,11.9 454.4,37.7 454.4,93.2 527.4,67.6 				"/>
				<path fill="#333335" d="M527.5,67.6c0,0-113-11.9-167.4-11.9S192.6,67.6,192.6,67.6V11.9c0,0,103.1-11.9,167.4-11.9
					s167.4,11.9,167.4,11.9V67.6z"/>
			</g>
			<polygon fill="#333335" points="396.8,129.6 316.1,129.6 306.7,114.6 316.1,96.2 396.8,96.2 406.2,114.6 			"/>
			<polygon fill="#333335" points="417.2,93.6 295.5,93.6 300.2,77.1 295.5,60.2 417.2,60.2 412.5,77.1 			"/>
		</g>
		<g>
			<g id="_x32_0_2_">
				<g>
					<path fill="#307B8C" d="M335.7,110.9c1.6-1.8,3.6-2.8,5.9-2.8c3,0,5.4,1.9,5.4,4.9c0,2.6-1.2,3.5-3.6,5c-1.1,0.7-2.9,2.1-3.4,3
						h4v-1.8h3.8v4.8h-12.2v-3.3c1.2-2,1.8-2.7,3.3-3.8c1.6-1.4,4-2.4,4-3.8c0-1.1-0.9-1.5-1.9-1.5c-1.2,0-2.1,1-2.8,1.7
						L335.7,110.9z"/>
					<path fill="#307B8C" d="M348.6,116.1c0-4.8,2.6-8.1,6.4-8.1c4.4,0,6.5,3.3,6.5,8.2c0,5-2.3,8.1-6.4,8.1
						C351.3,124.3,348.6,121.7,348.6,116.1z M356.9,116.3c0-2.7-0.9-4.6-2-4.6c-0.8,0-1.9,1.7-1.9,4.5c0,2.9,1.1,4.7,2,4.7
						C356.1,120.9,356.9,119,356.9,116.3z"/>
					<path fill="#307B8C" d="M362.3,111.3c1.3-0.6,2.3-1,3.9-3h4v12.7h2.1v3h-9v-3h2.3v-8.4l-2.3,1.1L362.3,111.3z"/>
					<path fill="#307B8C" d="M373.7,110.9c1.6-1.8,3.6-2.8,5.9-2.8c3,0,5.4,1.9,5.4,4.9c0,2.6-1.2,3.5-3.6,5c-1.1,0.7-2.9,2.1-3.4,3
						h4v-1.8h3.8v4.8h-12.2v-3.3c1.2-2,1.8-2.7,3.3-3.8c1.6-1.4,4-2.4,4-3.8c0-1.1-0.9-1.5-1.9-1.5c-1.2,0-2.1,1-2.8,1.7
						L373.7,110.9z"/>
				</g>
				<g>
					<path fill="#FFFFFF" d="M333.5,109.8c1.6-1.8,3.6-2.8,5.9-2.8c3,0,5.4,1.9,5.4,4.9c0,2.6-1.2,3.5-3.6,5c-1.1,0.7-2.9,2.1-3.4,3
						h4v-1.8h3.8v4.8h-12.2v-3.3c1.2-2,1.8-2.7,3.3-3.8c1.6-1.4,4-2.4,4-3.8c0-1.1-0.9-1.5-1.9-1.5c-1.2,0-2.1,1-2.8,1.7
						L333.5,109.8z"/>
					<path fill="#FFFFFF" d="M346.4,115.1c0-4.8,2.6-8.1,6.4-8.1c4.4,0,6.5,3.3,6.5,8.2c0,5-2.3,8.1-6.4,8.1
						C349.1,123.3,346.4,120.6,346.4,115.1z M354.7,115.2c0-2.7-0.9-4.6-2-4.6c-0.8,0-1.9,1.7-1.9,4.5c0,2.9,1.1,4.7,2,4.7
						C353.9,119.8,354.7,118,354.7,115.2z"/>
					<path fill="#FFFFFF" d="M360.1,110.2c1.3-0.6,2.3-1,3.9-3h4V120h2.1v3h-9v-3h2.3v-8.4l-2.3,1.1L360.1,110.2z"/>
					<path fill="#FFFFFF" d="M371.5,109.8c1.6-1.8,3.6-2.8,5.9-2.8c3,0,5.4,1.9,5.4,4.9c0,2.6-1.2,3.5-3.6,5c-1.1,0.7-2.9,2.1-3.4,3
						h4v-1.8h3.8v4.8h-12.2v-3.3c1.2-2,1.8-2.7,3.3-3.8c1.6-1.4,4-2.4,4-3.8c0-1.1-0.9-1.5-1.9-1.5c-1.2,0-2.1,1-2.8,1.7
						L371.5,109.8z"/>
				</g>
			</g>
			<g id="since_2_">
				<g>
					<path fill="#FFFFFF" d="M340.4,74c0,0.1,0,0.3,0,0.6c0,0.3-0.1,0.5-0.3,0.7c-0.1,0.1-0.2,0.2-0.2,0.2c0,0-0.2,0.2-0.3,0.4
						c-0.1,0.1-0.2,0.2-0.2,0.3c0,0.1-0.1,0.2-0.1,0.3c-0.1,0.3-0.1,0.7-0.1,1.1c0.1,0.4,0.1,0.9,0.2,1.3c0.1,0.5,0.1,0.9,0.2,1.2
						c0.1,0.4,0.1,0.8,0.1,1.3c0,1.5-0.1,2.8-0.4,3.9c0.2-0.1,0.5-0.3,0.8-0.6c0.3-0.3,0.7-0.6,1-1c0.4-0.4,0.7-0.7,1-1.1
						c0.3-0.4,0.6-0.7,0.8-1v1.5c-1.6,1.9-2.9,3.3-4.2,4.1c-1.2,0.8-2.4,1-3.6,0.7c-0.5-0.1-1-0.4-1.4-0.7c-0.4-0.3-0.8-0.7-1-1.2
						c-0.1-0.3-0.2-0.7-0.3-1.1c-0.1-0.4-0.1-0.9-0.1-1.4c0-0.5,0-1,0.1-1.5c0-0.5,0.1-0.9,0.2-1.2c0.1,0,0.3-0.1,0.4-0.2
						c0.1-0.1,0.2-0.2,0.3-0.3c0.4-0.4,0.8-0.9,1.2-1.3c0.3-0.4,0.7-0.8,1-1.2c0.4-0.4,0.7-0.8,1-1.1c0.2-0.2,0.4-0.4,0.5-0.6
						c0.2-0.2,0.3-0.5,0.5-0.7c0.2-0.2,0.4-0.5,0.6-0.7c0.2-0.2,0.4-0.4,0.5-0.6c0.2-0.2,0.4-0.3,0.5-0.4c0.2-0.1,0.4-0.1,0.6-0.1
						C340.1,73.6,340.3,73.8,340.4,74z M334.4,80.9c0.2,0.6,0.2,1.2,0,1.7c-0.2,0.6-0.5,0.9-0.9,1.1c0,0.2,0.1,0.5,0.3,0.9
						c0.1,0.3,0.4,0.6,0.9,0.7c0.3,0.1,0.7,0.2,1,0.1c0.3-0.1,0.7-0.3,0.9-0.5c0.4-0.4,0.7-0.9,0.9-1.6c0.2-0.6,0.3-1.3,0.3-2
						c0-0.7-0.1-1.4-0.2-2c-0.1-0.6-0.2-1.1-0.3-1.5c-0.6,0.5-1.2,1-1.6,1.5C335.2,79.9,334.8,80.4,334.4,80.9z"/>
					<path fill="#FFFFFF" d="M345.8,82c-0.1,0.2-0.2,0.4-0.3,0.7c-0.1,0.3-0.3,0.6-0.4,0.9c-0.1,0.3-0.2,0.6-0.2,0.9
						c0,0.3,0,0.5,0.1,0.7c0.1,0.2,0.2,0.3,0.4,0.4c0.2,0.1,0.4,0.1,0.6,0c0.3-0.1,0.6-0.3,1-0.6c0.4-0.4,0.9-0.8,1.3-1.2
						c0.4-0.4,0.8-0.9,1.2-1.3c0.4-0.4,0.6-0.7,0.7-0.9v1.5c-0.1,0.2-0.3,0.4-0.5,0.7c-0.3,0.3-0.6,0.6-0.9,1c-0.3,0.4-0.7,0.7-1,1
						c-0.3,0.3-0.6,0.6-0.8,0.8c-0.6,0.5-1.1,0.9-1.7,1.1c-0.5,0.2-1.1,0.3-1.7,0.3c-0.3,0-0.6-0.2-0.9-0.4
						c-0.3-0.2-0.4-0.5-0.6-0.7c-0.2-0.4-0.2-0.8-0.3-1.3c0-0.5,0-0.9,0.1-1.4c0.1-0.5,0.2-1,0.4-1.5c0.2-0.5,0.4-1,0.6-1.4
						c0.4-0.9,0.8-1.7,1.1-2.4c0.3-0.6,0.5-1.2,0.8-1.7c0.2-0.5,0.4-0.8,0.4-0.8c0.1-0.2,0.2-0.3,0.2-0.4c0-0.1,0.1-0.2,0.2-0.2
						c0.1,0,0.1-0.1,0.2-0.1c0.1,0,0.3,0,0.4,0h2c0.3,0,0.4,0.1,0.4,0.2c0,0.1-0.1,0.3-0.2,0.5L345.8,82z M348.5,70.5
						c0.3-0.1,0.6-0.1,0.9,0.1c0.3,0.1,0.5,0.3,0.6,0.6c0.1,0.3,0.1,0.7,0.1,1.1c-0.1,0.4-0.2,0.8-0.4,1.2c-0.2,0.4-0.5,0.7-0.8,1
						c-0.3,0.3-0.7,0.4-1,0.4c-0.6,0-1-0.1-1.3-0.5c-0.1-0.2-0.2-0.4-0.2-0.8c0-0.4,0.1-0.7,0.3-1.1c0.2-0.4,0.4-0.8,0.8-1.2
						C347.8,70.8,348.2,70.6,348.5,70.5z"/>
					<path fill="#FFFFFF" d="M356,76.5c0.1,0,0.2,0,0.4-0.1c0.2-0.1,0.4-0.2,0.7-0.3c0.3-0.1,0.7-0.2,1.1-0.2c0.4,0,0.9,0,1.4,0.2
						c0.3,0.1,0.6,0.2,0.8,0.4c0.2,0.2,0.3,0.5,0.3,0.9c0,0.1-0.1,0.3-0.2,0.5c-0.1,0.2-0.2,0.5-0.4,0.7c-0.1,0.3-0.3,0.6-0.5,0.8
						c-0.2,0.3-0.3,0.6-0.5,0.8l-0.3,0.5c-0.4,0.7-0.8,1.4-1.1,2c-0.3,0.6-0.5,1.1-0.7,1.5c-0.1,0.4-0.1,0.7,0,1.1
						c0.1,0.3,0.4,0.5,0.8,0.4c0.3,0,0.6-0.2,1-0.5c0.4-0.3,0.8-0.6,1.3-1.1c0.4-0.4,0.8-0.8,1.2-1.3c0.4-0.5,0.7-0.8,1-1.2v1.5
						c-0.4,0.5-0.8,1.1-1.4,1.7c-0.6,0.6-1.2,1.2-1.8,1.7c-0.7,0.5-1.3,0.9-2,1.2c-0.7,0.3-1.3,0.3-1.8,0.2
						c-0.3-0.1-0.7-0.3-0.9-0.5c-0.3-0.2-0.5-0.5-0.7-0.9c-0.2-0.4-0.2-0.8-0.1-1.3c0.1-0.5,0.3-1,0.5-1.6s0.5-1.1,0.8-1.7
						c0.3-0.6,0.6-1.1,1-1.7c0-0.1,0.1-0.1,0.2-0.2c0.1-0.1,0.1-0.2,0.2-0.3c0.1-0.1,0.1-0.2,0.2-0.4c0.1-0.1,0.1-0.2,0.1-0.3
						c0-0.1-0.1-0.1-0.1-0.2c-0.1,0-0.1-0.1-0.2-0.1c-0.1,0-0.2,0-0.2,0c-0.1,0-0.2,0.1-0.3,0.1c-0.1,0-0.2,0.1-0.4,0.3
						c-0.2,0.2-0.3,0.4-0.5,0.6s-0.4,0.5-0.6,0.8c-0.2,0.3-0.5,0.7-0.8,1.2c-0.3,0.5-0.6,1-0.9,1.5c-0.2,0.3-0.4,0.7-0.6,1
						c-0.2,0.4-0.4,0.7-0.6,1.1l-0.6,1.2c-0.1,0.2-0.2,0.4-0.3,0.5c-0.1,0.1-0.1,0.2-0.2,0.3c-0.1,0.1-0.2,0.1-0.3,0.1
						c-0.1,0-0.3,0-0.5,0c-0.7,0-1.2,0-1.5-0.1c-0.3-0.1-0.5-0.2-0.4-0.5c0.1-0.2,0.2-0.7,0.5-1.3c0.2-0.6,0.5-1.2,0.9-1.9l3.8-7.5
						c0.2-0.4,0.4-0.7,0.6-0.8c0.1-0.1,0.3-0.1,0.5-0.1h1.5c0.4,0,0.6,0.1,0.7,0.3C355.8,76.2,355.9,76.4,356,76.5z"/>
					<path fill="#FFFFFF" d="M369.2,77.6c0-0.1-0.1-0.2-0.2-0.3c-0.1-0.1-0.3-0.1-0.4,0c-0.1,0-0.2,0.1-0.4,0.2
						c-0.1,0.1-0.2,0.2-0.3,0.3c-0.4,0.4-0.8,0.9-1.1,1.4c-0.3,0.6-0.6,1.1-0.9,1.8c-0.2,0.6-0.4,1.2-0.5,1.8
						c-0.1,0.6-0.2,1.1-0.2,1.4c0,0.3,0.1,0.6,0.3,1c0.2,0.4,0.4,0.6,0.7,0.8c0.5,0.3,1.1,0.4,1.8,0.2c0.7-0.2,1.3-0.5,2-1
						c0.7-0.5,1.3-1,1.9-1.7c0.6-0.6,1.1-1.2,1.5-1.8v1.5c-0.3,0.5-0.7,1-1.3,1.6c-0.6,0.6-1.2,1.1-1.8,1.7
						c-0.7,0.5-1.3,0.9-2.1,1.3c-0.7,0.3-1.4,0.4-2.1,0.4c-0.7-0.1-1.4-0.4-2-0.8c-0.6-0.4-1.1-1-1.5-1.8c-0.3-0.6-0.4-1.2-0.4-1.8
						c0-0.6,0-1.3,0.2-1.9c0.1-0.6,0.3-1.2,0.6-1.8c0.2-0.6,0.5-1,0.8-1.5c0.6-0.9,1.3-1.7,2-2.3c0.8-0.6,1.6-0.9,2.5-1
						c0.2,0,0.4,0,0.7,0c0.3,0,0.6,0.1,0.9,0.2s0.7,0.2,1,0.4c0.3,0.2,0.6,0.4,0.9,0.7c0.3,0.4,0.4,0.9,0.3,1.4
						c-0.1,0.5-0.2,1-0.4,1.4c-0.2,0.4-0.4,0.8-0.6,1c-0.2,0.2-0.5,0.4-1,0.5c-0.3,0-0.5,0-0.8,0c-0.3,0-0.5-0.2-0.7-0.3
						c-0.2-0.2-0.3-0.3-0.2-0.6c0-0.2,0.1-0.4,0.2-0.7c0.1-0.3,0.2-0.6,0.3-0.9C369.1,77.9,369.2,77.7,369.2,77.6z"/>
					<path fill="#FFFFFF" d="M375.8,83.5c-0.1,0.2-0.2,0.4-0.3,0.5c0,0.1-0.1,0.3-0.1,0.5c0,0.4,0.1,0.8,0.4,1
						c0.2,0.2,0.5,0.4,0.9,0.6c0.3,0.2,0.7,0.2,1,0.2c0.9-0.1,1.9-0.6,2.9-1.5c1-0.9,2-1.9,2.9-3.1v1.5c-0.6,0.7-1.2,1.4-1.8,2
						c-0.6,0.6-1.2,1.2-1.7,1.6c-0.6,0.5-1.2,0.8-1.8,1c-0.6,0.2-1.3,0.3-2.1,0.2c-0.6-0.1-1.2-0.3-1.8-0.7
						c-0.6-0.3-1.1-0.9-1.4-1.6c-0.5-1.1-0.6-2.2-0.3-3.4c0.3-1.2,0.8-2.5,1.5-3.8c0.5-0.9,1.1-1.6,1.8-2.2c0.7-0.6,1.4-0.9,2.2-0.9
						c0.4,0,1,0,1.5,0.2s1,0.5,1.4,1.1c0.4,0.5,0.6,1,0.6,1.5c0,0.5-0.1,1.1-0.3,1.7c-0.1,0.4-0.3,0.7-0.5,1.1
						c-0.2,0.4-0.4,0.7-0.7,1.1c-0.3,0.3-0.6,0.6-0.9,0.9c-0.3,0.3-0.7,0.5-1.1,0.6c-0.1,0.1-0.3,0.1-0.5,0.1c-0.2,0-0.4,0-0.7,0
						c-0.2,0-0.4-0.1-0.7-0.1S375.9,83.7,375.8,83.5z M376.4,80.6c-0.1,0.4-0.1,0.6,0,0.8c0.1,0.2,0.2,0.3,0.4,0.3
						c0.2,0,0.3,0.1,0.5,0.1c0.1,0,0.3-0.1,0.5-0.2c0.5-0.3,0.9-0.8,1.2-1.4c0.3-0.6,0.4-1.1,0.5-1.6c0-0.1,0-0.3,0-0.5
						c0-0.2-0.2-0.3-0.4-0.5c-0.1,0-0.2-0.1-0.4-0.1c-0.2,0-0.3,0-0.5,0.1c-0.2,0.1-0.4,0.3-0.6,0.6c-0.2,0.3-0.4,0.6-0.5,0.9
						c-0.2,0.3-0.3,0.6-0.4,0.9C376.5,80.4,376.5,80.5,376.4,80.6z"/>
				</g>
				<g>
					<path fill="#FFFFFF" d="M325.7,87c-1.2,0-2.2-0.4-3-1.3l0.7-0.6c0.7,0.7,1.5,1.1,2.6,1c2.4-0.1,5.3-2.4,8.2-6.3l0.8,0.6
						c-3.9,5.3-7,6.6-8.9,6.7C325.9,87,325.8,87,325.7,87z"/>
				</g>
			</g>
			<g id="fam_2_">
				<g>
					<path fill="#B0102D" d="M266.2,15.6v7.5h-6v-3h-5.1v5.9h6.4v4.5h-6.4v4.3h3.4v4.5H246v-4.5h2.1V20.1H246v-4.5H266.2z"/>
					<path fill="#B0102D" d="M267.9,23.7c1.4-0.8,4.3-2.4,7.4-2.4c4.1,0,9.2,1.5,9.2,7v6.6h2v4.3h-7.2l-0.8-1.5
						c-1.2,1.7-3.3,2.2-4.6,2.2c-3.2,0-6.7-1.7-6.7-5.6c0-3.8,3.2-6.2,7-6.2c2,0,3.2,1,3.3,1.2V28c0-1.5-1.4-1.9-3.2-1.9
						c-2,0-3.7,0.8-5,1.6L267.9,23.7z M277.6,33.1c-0.1-0.2-0.6-1-2-1c-1.4,0-2,0.7-2,1.8c0,0.9,0.8,1.6,1.8,1.6
						c1,0,1.9-0.6,2.2-1.1V33.1z"/>
					<path fill="#B0102D" d="M287.8,39.2v-4.4h1.4v-8h-1.4v-4.5h6.4l0.7,2c0.5-0.6,2.1-2.5,4.2-2.5c3.4,0,4.5,1.6,5,2.4
						c1-1.2,2.6-2.4,5-2.4c5.5,0,6.3,4,6.3,8.1v4.7h1.7v4.6h-8.6v-8.3c0-1.6,0.3-4.2-1.3-4.2c-1.5,0-1.8,1-1.8,2.5v5.5h2v4.5h-8.7
						v-8.6c0-2.7-0.1-3.9-1.4-3.9c-1.1,0-1.5,0.6-1.5,2v6h2v4.4H287.8z"/>
					<path fill="#B0102D" d="M318.5,39.2v-4.4h1.4v-8.1h-1.4v-4.4h7.8v12.5h1.6v4.4H318.5z M323.1,13.9c2.3,0,3.7,1.9,3.7,3.4
						c0,1.9-1.3,3.4-3.7,3.4c-2.1,0-3.6-1.8-3.6-3.4C319.4,15.8,320.7,13.9,323.1,13.9z"/>
					<path fill="#B0102D" d="M329.6,39.2v-4.4h1.5V18.2h-1.4v-4.4h7.8v20.9h2v4.4H329.6z"/>
					<path fill="#B0102D" d="M351.4,26.6v-4.3h8.6v4.2h-1.6l-6.4,15.6c-1,2.1-2.4,4.8-7.3,4.8c-1.8-0.1-3.1-0.8-4.1-1.7l2.5-4
						c0.6,0.5,1.3,1,2,1.1c1,0.2,1.8-0.8,2.2-1.8l0.5-1.4l-6.6-12.5h-1.4v-4.3h10.4v4.3h-1.6l2.2,5.3l2.2-5.3H351.4z"/>
					<path fill="#B0102D" d="M368.4,30.7c0-5.6,4.6-8.8,9.3-8.8c5.3,0.1,9.3,3.3,9.4,8.9c0.1,5.6-4.1,8.8-9.2,8.8
						C373,39.6,368.3,36.7,368.4,30.7z M380.1,30.8c0-2.5-0.9-4.5-2.5-4.5c-1.3,0-2.3,2-2.3,4.4c0,2.8,1.1,4.6,2.5,4.6
						C379.3,35.3,380.1,33.4,380.1,30.8z"/>
					<path fill="#B0102D" d="M397,34c0.1-1.4,0.4-4.6,1.4-7.9l1.1-3.8h6.2l1.3,4.4c0.8,2.6,1.3,6.1,1.5,7.3h0.1
						c0.1-1.1,0.4-3.5,0.9-5.3l0.6-2h-1.4v-4.4h8.2v4.4h-1.4l-4,12.5h-7.1l-2.3-7.6l-2.4,7.6h-7l-3.8-12.5h-1.5v-4.4h9.1v4.4h-1.1
						l0.7,2.5C396.6,30.8,396.9,33.1,397,34L397,34z"/>
					<path fill="#B0102D" d="M417.7,39.2v-4.4h1.4v-8.1h-1.4v-4.4h7.2l0.8,2.1c1.1-1.6,2.7-2.7,4.8-2.7c5.2,0,6.1,3.9,6.1,7.4v5.6
						h1.6v4.4h-8.5V30c0-1.1,0.1-3.1-1.9-3.1c-1.7,0-2.1,1.7-2.1,3.1v4.8h2.4v4.4H417.7z"/>
					<path fill="#B0102D" d="M456.6,36.9c-2.5,2.2-5.2,2.9-8.7,2.9c-4.2,0-8.9-2.7-8.9-9.2c0-5.5,4-8.8,9.1-8.8c4,0,7.1,2.1,8.1,4.9
						c0.4,1.2,0.8,3.8,0.1,5.7h-10.6c0.2,0.9,0.6,2.8,3.5,2.8c1.1,0,2.9-0.1,4.7-1.6L456.6,36.9z M450.7,29.1c0-1.3-0.3-2.7-2.5-2.7
						c-2.1,0-2.5,1.9-2.6,2.7H450.7z"/>
					<path fill="#B0102D" d="M467.9,18.3v-4.4h8.4v20.9h1.6v4.4h-7.9l-0.6-1.3c-0.4,0.4-1.9,1.6-4.3,1.6c-4.8,0-7.8-4.2-7.8-8.9
						c0-5.3,3.7-8.6,7.8-8.6c2.4,0,3.6,0.9,4.3,1.3v-5H467.9z M467.1,34.7c1.3,0,2.5-1.7,2.4-4.3c0-2.3-1.1-4.1-2.4-4.1
						c-1.4,0-2.4,1.7-2.4,4.2C464.7,32.6,465.6,34.7,467.1,34.7z"/>
				</g>
				<g>
					<path fill="#FFFFFF" d="M267.1,14.7v7.5h-6v-3H256V25h6.4v4.5H256v4.3h3.4v4.5h-12.6v-4.5h2.1V19.2h-2.1v-4.5H267.1z"/>
					<path fill="#FFFFFF" d="M268.8,22.8c1.4-0.8,4.3-2.4,7.4-2.4c4.1,0,9.2,1.5,9.2,7V34h2v4.3h-7.2l-0.8-1.5
						c-1.2,1.7-3.3,2.2-4.6,2.2c-3.2,0-6.7-1.7-6.7-5.6c0-3.8,3.2-6.2,7-6.2c2,0,3.2,1,3.3,1.2v-1.2c0-1.5-1.4-1.9-3.2-1.9
						c-2,0-3.7,0.8-5,1.6L268.8,22.8z M278.5,32.2c-0.1-0.2-0.6-1-2-1c-1.4,0-2,0.7-2,1.8c0,0.9,0.8,1.6,1.8,1.6
						c1,0,1.9-0.6,2.2-1.1V32.2z"/>
					<path fill="#FFFFFF" d="M288.7,38.3v-4.4h1.4v-8h-1.4v-4.5h6.4l0.7,2c0.5-0.6,2.1-2.5,4.2-2.5c3.4,0,4.5,1.6,5,2.4
						c1-1.2,2.6-2.4,5-2.4c5.5,0,6.3,4,6.3,8.1v4.7h1.7v4.6h-8.6V30c0-1.6,0.3-4.2-1.3-4.2c-1.5,0-1.8,1-1.8,2.5v5.5h2v4.5h-8.7
						v-8.6c0-2.7-0.1-3.9-1.4-3.9c-1.1,0-1.5,0.6-1.5,2v6h2v4.4H288.7z"/>
					<path fill="#FFFFFF" d="M319.4,38.3v-4.4h1.4v-8.1h-1.4v-4.4h7.8v12.5h1.6v4.4H319.4z M324,13c2.3,0,3.7,1.9,3.7,3.4
						c0,1.9-1.3,3.4-3.7,3.4c-2.1,0-3.6-1.8-3.6-3.4C320.3,14.9,321.6,13,324,13z"/>
					<path fill="#FFFFFF" d="M330.5,38.3v-4.4h1.5V17.3h-1.4V13h7.8v20.9h2v4.4H330.5z"/>
					<path fill="#FFFFFF" d="M352.3,25.7v-4.3h8.6v4.2h-1.6l-6.4,15.6c-1,2.1-2.4,4.8-7.3,4.8c-1.8-0.1-3.1-0.8-4.1-1.7l2.5-4
						c0.6,0.5,1.3,1,2,1.1c1,0.2,1.8-0.8,2.2-1.8l0.5-1.4L342,25.7h-1.4v-4.3H351v4.3h-1.6l2.2,5.3l2.2-5.3H352.3z"/>
					<path fill="#FFFFFF" d="M369.3,29.8c0-5.6,4.6-8.8,9.3-8.8c5.3,0.1,9.3,3.3,9.4,8.9c0.1,5.6-4.1,8.8-9.2,8.8
						C373.9,38.7,369.2,35.8,369.3,29.8z M381,29.9c0-2.5-0.9-4.5-2.5-4.5c-1.3,0-2.3,2-2.3,4.4c0,2.8,1.1,4.6,2.5,4.6
						C380.2,34.4,381,32.5,381,29.9z"/>
					<path fill="#FFFFFF" d="M397.9,33.1c0.1-1.4,0.4-4.6,1.4-7.9l1.1-3.8h6.2l1.3,4.4c0.8,2.6,1.3,6.1,1.5,7.3h0.1
						c0.1-1.1,0.4-3.5,0.9-5.3l0.6-2h-1.4v-4.4h8.2v4.4h-1.4l-4,12.5h-7.1l-2.3-7.6l-2.4,7.6h-7l-3.8-12.5h-1.5v-4.4h9.1v4.4h-1.1
						l0.7,2.5C397.5,29.9,397.8,32.2,397.9,33.1L397.9,33.1z"/>
					<path fill="#FFFFFF" d="M418.6,38.3v-4.4h1.4v-8.1h-1.4v-4.4h7.2l0.8,2.1c1.1-1.6,2.7-2.7,4.8-2.7c5.2,0,6.1,3.9,6.1,7.4v5.6
						h1.6v4.4h-8.5v-9.2c0-1.1,0.1-3.1-1.9-3.1c-1.7,0-2.1,1.7-2.1,3.1v4.8h2.4v4.4H418.6z"/>
					<path fill="#FFFFFF" d="M457.5,36c-2.5,2.2-5.2,2.9-8.7,2.9c-4.2,0-8.9-2.7-8.9-9.2c0-5.5,4-8.8,9.1-8.8c4,0,7.1,2.1,8.1,4.9
						c0.4,1.2,0.8,3.8,0.1,5.7h-10.6c0.2,0.9,0.6,2.8,3.5,2.8c1.1,0,2.9-0.1,4.7-1.6L457.5,36z M451.6,28.2c0-1.3-0.3-2.7-2.5-2.7
						c-2.1,0-2.5,1.9-2.6,2.7H451.6z"/>
					<path fill="#FFFFFF" d="M468.8,17.4V13h8.4v20.9h1.6v4.4H471l-0.6-1.3c-0.4,0.4-1.9,1.6-4.3,1.6c-4.8,0-7.8-4.2-7.8-8.9
						c0-5.3,3.7-8.6,7.8-8.6c2.4,0,3.6,0.9,4.3,1.3v-5H468.8z M468,33.8c1.3,0,2.5-1.7,2.4-4.3c0-2.3-1.1-4.1-2.4-4.1
						c-1.4,0-2.4,1.7-2.4,4.2C465.6,31.7,466.5,33.8,468,33.8z"/>
				</g>
			</g>
		</g>
	</g>
</g>
</svg>
