<?xml version="1.0" encoding="utf-8"?>
<!-- Generator: Adobe Illustrator 18.1.1, SVG Export Plug-In . SVG Version: 6.00 Build 0)  -->
<!DOCTYPE svg PUBLIC "-//W3C//DTD SVG 1.1//EN" "http://www.w3.org/Graphics/SVG/1.1/DTD/svg11.dtd">
<svg version="1.1" id="Layer_1" xmlns="http://www.w3.org/2000/svg" xmlns:xlink="http://www.w3.org/1999/xlink" x="0px" y="0px"
	 viewBox="0 0 44.5 65" enable-background="new 0 0 44.5 65" xml:space="preserve">
<path id="sisc" fill-rule="evenodd" clip-rule="evenodd" fill="#F2F2F2" d="M23.6,21.5c-2.8-6.3-8.8-21.2-10-21.5
	c-0.1,2.3,5.6,20.2,7.7,26.8c-2.4,6.2-9.7,21.8-11.1,22.3c-1.1,0.4-2.3-0.1-3.1,0.2c-2.2,0.7-3.4,3-3.3,4.9c0.1,1.7,1.8,3,1.8,4.7
	c0,3.3-3.1,4-5.3,5.7c-0.2,0-0.1,0.2,0,0.4c4.5,0.2,5-4.8,7.6-5.9c1.2-0.5,2.4-0.3,3.3-0.8c1.5-0.8,2.7-3,2.3-5.3
	c-0.2-1.1-1.6-1.9-1.6-3.5c0-0.7,3.4-6.3,4.1-7.4c2-3.3,4-7.7,7.6-8.6c1.2,0.6,2.3,1.2,3.5,1.8c1.3,2.4,7.6,11.7,7.7,13.5
	c0,0.9-0.4,1.6-0.6,2.2c-1.2,3.8,0.5,8.5,4.9,8.6c2.2,0,4.6-1.5,5.1-3.9c0.6-3.3-1.3-6-3.5-6.8c-1-0.4-2.5,0.1-4.1-0.6
	c-1.1-0.5-8.3-15.9-10.6-21.5c2.2-6.4,7.7-24.2,7.6-26.6C32.5,0.3,26.5,15.3,23.6,21.5z M7.7,57.9c-1.3-0.2-2.4-1.3-2.7-3.3
	c-0.4-2.5,1-4.5,3.7-4.5C14.6,50,13.4,59.1,7.7,57.9z M39.2,58.4c-2.8,0-4-2.1-4.3-4.7c-0.3-2.7,1-4.2,2.5-4.5
	C43.9,47.8,45.7,58.5,39.2,58.4z M25.3,26.8c0,0.9-0.7,1.6-1.6,1.6s-1.6-0.7-1.6-1.6c0-0.9,0.7-1.6,1.6-1.6S25.3,25.9,25.3,26.8z"/>
</svg>
