<?xml version="1.0" encoding="utf-8"?>
<!-- Generator: Adobe Illustrator 18.1.1, SVG Export Plug-In . SVG Version: 6.00 Build 0)  -->
<!DOCTYPE svg PUBLIC "-//W3C//DTD SVG 1.1//EN" "http://www.w3.org/Graphics/SVG/1.1/DTD/svg11.dtd">
<svg version="1.1" id="Layer_1" xmlns="http://www.w3.org/2000/svg" xmlns:xlink="http://www.w3.org/1999/xlink" x="0px" y="0px"
	 viewBox="0 0 50.4 72" enable-background="new 0 0 50.4 72" xml:space="preserve">
<g>
	<path fill="#F2F2F2" d="M37.5,41.2c1.8-0.7,3.7,1.4,1.9,2.6c-3.4,1.4-8.4-7.2-13.5-2.6c-5.1-4.6-10.1,4-13.5,2.6
		c-1.8-1.3,0.1-3.3,1.9-2.6c-1.1-1.8-5.1-0.3-3.9,3.4c1,2.9,6.9,5.7,15.4,0.3c8.5,5.4,14.5,2.6,15.4-0.3
		C42.6,40.9,38.7,39.5,37.5,41.2z"/>
	<g>
		<path fill="#F2F2F2" d="M12.7,17.5c0.3-14.9,21.5,8.6,30.7,3.6c3-1.6,4.6-6.8,4.6-6.8C27.5-10.1,10.3,2.5,10.3,10.1L12.7,17.5z"/>
		<path fill="#F2F2F2" d="M45.2,32.9c0.8-3.4-1-10-1-10s3.5-7.4,4.8-6.8c4.2,6.1-1.7,15.7-2.1,19.3c0,0.2-0.3,0.2-0.3,0.1L45.2,32.9
			z"/>
		<path fill="#F2F2F2" d="M8.9,10.6C1.1,10.8-4.3,23.3,4.8,36.5L6,38c-0.6-11.9,1.3-20.3,5-20.3C11,17.7,11.6,10.8,8.9,10.6z"/>
	</g>
	<g>
		<path fill="#F2F2F2" d="M44.1,48.6c-0.7,0.8-11.7,7.9-12.3,8.2c-3.3,1.3-3.8,0.7-5.2,1c-1.4-0.3-1.7,0.3-5-1
			C21,56.5,9.2,49.4,8.5,48.6C6.5,45.8,9,41.1,5,35.5v16.8C6,63.2,22.9,69.1,26.2,72C29.6,69.1,47,63.2,47,52.3V35.5
			C44,41.1,46.2,45.8,44.1,48.6z"/>
	</g>
</g>
</svg>
