<?xml version="1.0" encoding="utf-8"?>
<!-- Generator: Adobe Illustrator 18.1.1, SVG Export Plug-In . SVG Version: 6.00 Build 0)  -->
<!DOCTYPE svg PUBLIC "-//W3C//DTD SVG 1.1//EN" "http://www.w3.org/Graphics/SVG/1.1/DTD/svg11.dtd">
<svg version="1.1" id="Layer_1" xmlns="http://www.w3.org/2000/svg" xmlns:xlink="http://www.w3.org/1999/xlink" x="0px" y="0px"
	 viewBox="0 0 72 50.4" enable-background="new 0 0 72 50.4" xml:space="preserve">
<path id="sisc" fill-rule="evenodd" clip-rule="evenodd" fill="#F2F2F2" d="M48.2,26.8c7-3.2,23.5-10.1,23.8-11.4
	c-2.5-0.1-22.4,6.3-29.6,8.8C35.4,21.4,18.1,13,17.6,11.5c-0.4-1.2,0.1-2.6-0.2-3.6c-0.8-2.5-3.3-3.8-5.4-3.8c-1.9,0.1-3.3,2-5.2,2
	c-3.7,0-4.4-3.5-6.3-6c0-0.3-0.2-0.1-0.4,0c-0.2,5.1,5.3,5.7,6.5,8.7c0.5,1.3,0.3,2.7,0.9,3.8c0.9,1.7,3.3,3.1,5.8,2.7
	c1.2-0.2,2.2-1.8,3.9-1.8c0.8,0,7,3.9,8.2,4.7c3.6,2.2,8.5,4.5,9.6,8.7c-0.6,1.3-1.3,2.7-1.9,4c-2.7,1.5-13,8.7-14.9,8.7
	c-0.9,0-1.8-0.5-2.4-0.7c-4.2-1.4-9.5,0.6-9.5,5.6c0,2.5,1.7,5.3,4.3,5.8c3.6,0.7,6.6-1.5,7.6-4c0.5-1.2-0.1-2.9,0.6-4.7
	c0.5-1.2,17.6-9.4,23.8-12.1c7.1,2.5,26.9,8.8,29.5,8.6C71.7,36.9,55,30,48.2,26.8z M7.8,8.6c0.3-1.4,1.5-2.8,3.7-3.1
	c2.7-0.4,5,1.2,5,4.2C16.6,16.4,6.6,15.1,7.8,8.6z M7.3,44.5c0-3.2,2.3-4.6,5.2-4.9c3-0.3,4.6,1.2,5,2.9C19,49.8,7.2,52,7.3,44.5z
	 M42.3,28.7c-1,0-1.8-0.8-1.8-1.8s0.8-1.8,1.8-1.8c1,0,1.8,0.8,1.8,1.8S43.3,28.7,42.3,28.7z"/>
</svg>
