<?xml version="1.0" encoding="utf-8"?>
<!-- Generator: Adobe Illustrator 18.1.1, SVG Export Plug-In . SVG Version: 6.00 Build 0)  -->
<!DOCTYPE svg PUBLIC "-//W3C//DTD SVG 1.1//EN" "http://www.w3.org/Graphics/SVG/1.1/DTD/svg11.dtd">
<svg version="1.1" id="Layer_1" xmlns="http://www.w3.org/2000/svg" xmlns:xlink="http://www.w3.org/1999/xlink" x="0px" y="0px"
	 viewBox="0 0 1080 360" enable-background="new 0 0 1080 360" xml:space="preserve">
<g>
	<path fill="#F2F2F2" d="M1040.3,1c0,0.1,0,0.1,0,0.2c0,21.1,16.9,38.3,37.6,38.3c0.3,0,0.7,0,1.1,0v282.4c-0.4,0-0.7,0-1.1,0
		c-20.3,0-37,16.6-37.6,37.1H38.7c-0.6-20.6-17.3-37.1-37.6-37.1c0,0,0,0,0,0V39.5c0,0,0,0,0,0c20.8,0,37.6-17.2,37.6-38.3
		c0-0.1,0-0.1,0-0.2H1040.3 M1041.3,0H37.6c0,0.4,0,0.8,0,1.2c0,20.6-16.4,37.3-36.6,37.3c-0.4,0-0.7,0-1,0v284.4c0.3,0,0.7,0,1,0
		c20.2,0,36.5,16.6,36.6,37.1h1003.6c0.1-20.5,16.4-37.1,36.6-37.1c0.7,0,1.4,0,2.1,0.1V38.4c-0.7,0-1.4,0.1-2.1,0.1
		c-20.2,0-36.6-16.7-36.6-37.3C1041.3,0.8,1041.3,0.4,1041.3,0L1041.3,0z"/>
</g>
</svg>
