<?xml version="1.0" encoding="utf-8"?>
<!-- Generator: Adobe Illustrator 18.1.1, SVG Export Plug-In . SVG Version: 6.00 Build 0)  -->
<!DOCTYPE svg PUBLIC "-//W3C//DTD SVG 1.1//EN" "http://www.w3.org/Graphics/SVG/1.1/DTD/svg11.dtd">
<svg version="1.1" id="Layer_1" xmlns="http://www.w3.org/2000/svg" xmlns:xlink="http://www.w3.org/1999/xlink" x="0px" y="0px"
	 viewBox="0 0 500 378.4" enable-background="new 0 0 500 378.4" xml:space="preserve">
<g>
	<path d="M126,174.4c2.6-148.5,212.8,85.2,303.8,35.5c29.9-16.3,46.1-67.3,46.1-67.3C272.6-100.8,102.7,25,102.7,100.5L126,174.4z"
		/>
	<path d="M447.8,327.7c8.3-34-10.2-99.3-10.2-99.3s34.4-73.3,47.3-67.4c41.2,61-16.5,155.9-21.1,191.8c-0.2,1.8-2.7,2.3-3.5,0.6
		L447.8,327.7z"/>
	<path d="M88.8,105.5c-78.1,1.6-131.6,126.9-41.4,258.1L60,378.7c-5.5-118.1,12.4-202.6,49.4-202.6
		C109.4,176.1,115,107.3,88.8,105.5z"/>
</g>
</svg>
