<?xml version="1.0" encoding="utf-8"?>
<!-- Generator: Adobe Illustrator 18.1.1, SVG Export Plug-In . SVG Version: 6.00 Build 0)  -->
<!DOCTYPE svg PUBLIC "-//W3C//DTD SVG 1.1//EN" "http://www.w3.org/Graphics/SVG/1.1/DTD/svg11.dtd">
<svg version="1.1" id="Layer_1" xmlns="http://www.w3.org/2000/svg" xmlns:xlink="http://www.w3.org/1999/xlink" x="0px" y="0px"
	 viewBox="0 0 240 352" enable-background="new 0 0 240 352" xml:space="preserve">
<path fill-rule="evenodd" clip-rule="evenodd" d="M123.2,51.5c8-12.8,8.2-26.9,7.5-41c-3.6-4.6-6.6-12.5-11.4-9.8
	c-2,1.4-4.1,2.8-6.1,4.3c0.8,8.9,8.5,19,5.6,27.3c-10.9,11.5-18.5,4.3-28.6,11.1c0.6,33.6-28.1,95.8-28.1,95.8L17.9,240.1
	c-4.6,5.7-12.4,25-15.1,34.6C1.3,279.9,4,282,5,283.8l0.4,1.7l0,0c-0.2,1.1-1.7,2.4-5.5,4.6c0.7,1,1.4,2,2.1,3
	c10.9,3.5,19.6,18.5,32,13.2c23.5-52.5,46-105.2,60.9-159c-3.4-10.2-9.8-4.8-13.6-12.8c9.7-13.4,10.7-28.2,26-40.6
	c63.1,74.1,50.2,165.2,95.3,232.4c6.3,9.4,13.1,23.7,27.1,25.7c1-0.7,2-1.5,3.1-2.2C265,278.5,181.1,131.7,123.2,51.5z M86.7,150.2
	c0,3-2.5,5.5-5.5,5.5s-5.5-2.5-5.5-5.5c0-3,2.5-5.5,5.5-5.5S86.7,147.1,86.7,150.2z"/>
</svg>
