<?xml version="1.0" encoding="utf-8"?>
<!-- Generator: Adobe Illustrator 18.1.1, SVG Export Plug-In . SVG Version: 6.00 Build 0)  -->
<!DOCTYPE svg PUBLIC "-//W3C//DTD SVG 1.1//EN" "http://www.w3.org/Graphics/SVG/1.1/DTD/svg11.dtd">
<svg version="1.1" xmlns="http://www.w3.org/2000/svg" xmlns:xlink="http://www.w3.org/1999/xlink" x="0px" y="0px"
	 viewBox="0 0 1440 778" enable-background="new 0 0 1440 778" xml:space="preserve">
<g id="Layer_1">
	
		<image display="none" overflow="visible" width="1920" height="1080" id="ref" xlink:href="../../../../../Pictures/Screenshots/Screenshot (11).png"  transform="matrix(1.453 0 0 1.453 -889.3823 -539.8277)">
	</image>
	
		<image display="none" overflow="visible" opacity="0.75" width="7848" height="3128" id="pic" xlink:href="../../location photos/Photo Jan 25, 4 25 18 PM.jpg"  transform="matrix(0.3828 0 0 0.3828 -691.8026 57.0948)">
	</image>
	<rect id="bg" y="-1" display="none" fill="#C1C1C1" width="1440" height="780"/>
</g>
<g id="bg_1_" display="none">
	<g id="clouds" display="inline">
		<path id="c3_2_" fill="#FFFFFF" d="M667.2,118.5h105.7c1.1,0,1.5-1.4,0.5-2l-3.2-1.8c-0.5-0.3-0.7-1-0.4-1.5
			c13.3-20.5-16.8-29.2-26.1-16.1c-0.4,0.7-0.8,0.6-0.7-0.1c4.4-32.6-36.6-35.7-40.7-2.6c-0.1,0.5-0.6,0.8-1.1,0.8
			c-2.9-0.2-12.4-0.2-16.6,6c-3.6,5.4-2.8,10-2.1,12.1c0.2,0.6-0.2,1.3-0.9,1.4l-14.6,1.8C665.7,116.5,665.8,118.5,667.2,118.5z"/>
		<path id="c2_2_" fill="#FFFFFF" d="M26.2,154.5h166.5c1.7,0,2.3-2.3,0.8-3.1l-5.1-2.9c-0.8-0.5-1.1-1.6-0.6-2.4
			c21-32.2-26.5-46.1-41.1-25.4c-0.6,1-1.3,0.9-1.2-0.2c7-51.3-57.7-56.3-64.1-4.2c-0.1,0.8-0.9,1.3-1.7,1.3
			c-4.6-0.2-19.6-0.3-26.2,9.5c-5.7,8.4-4.4,15.7-3.3,19c0.3,1-0.3,2.1-1.4,2.2L26,151.2C23.9,151.5,24.1,154.5,26.2,154.5z"/>
		<path id="c1_2_" fill="#FFFFFF" d="M72.2,291.9H338c2.7,0,3.7-3.6,1.3-5l-8.1-4.6c-1.3-0.8-1.8-2.5-0.9-3.8
			c33.6-51.5-42.2-73.6-65.6-40.6c-1,1.6-2.1,1.4-1.9-0.3c11.2-81.9-92.2-89.8-102.3-6.6c-0.2,1.3-1.4,2.1-2.7,2
			c-7.3-0.4-31.3-0.4-41.8,15.1c-9.1,13.5-7.1,25.1-5.3,30.4c0.5,1.6-0.5,3.3-2.2,3.5l-36.6,4.6C68.5,287,68.8,291.9,72.2,291.9z"/>
	</g>
</g>
<g id="base" display="none">
	<g id="sidewalk" display="inline">
		<polygon fill="#FFFFFF" points="318.6,695.6 350,667 216.3,667 163.6,667 157.3,667 65.2,707 65.4,707 60.2,709 86.7,709 
			126.7,709 303.9,709 316.5,697.5 		"/>
		<polygon fill="#FFFFFF" points="356.7,667 323.5,697.2 321.4,699.1 310.6,709 530.1,709 534.1,698.1 534.8,696.1 545.4,667 		"/>
		<polygon fill="#FFFFFF" points="750.9,696.7 740.1,667 550.5,667 539.7,696.7 539,698.6 535.2,709 755.4,709 751.6,698.6 		"/>
		<polygon fill="#FFFFFF" points="950.6,697.2 917.5,667 745.2,667 755.9,696.1 756.6,698.1 760.6,709 963.6,709 952.7,699.1 		"/>
		<polygon fill="#FFFFFF" points="1142.1,697.7 1085.9,667 924.2,667 955.6,695.6 957.6,697.5 970.2,709 1162.6,709 		"/>
	</g>
	<g id="side_walk" display="inline">
		<polygon fill="#FFFFFF" points="237,627 163,662 301.9,662 346.9,627 		"/>
		<polygon fill="#FFFFFF" points="324.2,586 248,621 353.7,621 400.1,586 		"/>
		<polygon fill="#FFFFFF" points="444.5,551 473.5,529 444.7,529 397.1,551 		"/>
		<polygon fill="#FFFFFF" points="390.8,554 332.1,582 404.9,582 440.7,554 		"/>
	</g>
	<path id="main_tower" display="inline" fill="#B1B1B1" d="M538.4,242c0.4-0.9,0.3-2.1-0.8-3.3c0,0,0,0,0,0
		c-2.3-1.5-4.7,0.1-4.7,2.3l0,1c0,0.1,0,0.1-0.1,0.1L392,298.6h38.1v363.2h55.4V556.9c0-26.7,25.5-41.9,53.2-41.9
		c27.7,0,53.2,14.2,53.2,41.9v104.9h55.4V298.6h37.6L538.4,242L538.4,242z"/>
	<g id="barber_pat_1_" display="inline">
		<g id="barber_pat">
			<polygon fill="#9C0001" points="413.2,435 402,435 402,443.4 			"/>
			<polygon fill="#0A4569" points="422,447.8 422,439 402,453.9 402,462.6 			"/>
			<g>
				<polygon fill="#9C0001" points="422,466.9 422,458.2 402,473 402,481.8 				"/>
				<polygon fill="#0A4569" points="408.4,487 422,487 422,477.4 				"/>
			</g>
		</g>
		<path fill="#A1A1A1" d="M401.9,434h20.3c0-2-4.7-3.7-10.1-3.7S401.9,432,401.9,434z"/>
		<path fill="#A1A1A1" d="M401.9,489h20.3c0,1-4.7,3.7-10.1,3.7S401.9,490,401.9,489z"/>
		<circle fill="#A1A1A1" cx="412" cy="418" r="10.2"/>
	</g>
	<g id="balcony" display="inline">
		<rect x="497.5" y="399.4" fill="#A1A1A1" width="82.3" height="30.9"/>
		<polygon fill="#A1A1A1" points="557.3,442.2 520,442.2 497.5,432.4 579.8,432.4 		"/>
		<polygon fill="#A1A1A1" points="557.3,333.8 520,333.8 497.5,343.6 579.8,343.6 		"/>
		<path fill="#A1A1A1" d="M497,372v17.9v5.6v2.4h10v-3h62v3h10v-2.6V372H497z M513,390.8c0,1.2-1,2.2-2.2,2.2h-2.7
			c-1.2,0-2.2-1-2.2-2.2v-14.7c0-1.2,1-2.2,2.2-2.2h2.7c1.2,0,2.2,1,2.2,2.2V390.8z M527,390.8c0,1.2-1,2.2-2.2,2.2h-2.7
			c-1.2,0-2.2-1-2.2-2.2v-14.7c0-1.2,1-2.2,2.2-2.2h2.7c1.2,0,2.2,1,2.2,2.2V390.8z M542,390.8c0,1.2-1,2.2-2.2,2.2h-2.7
			c-1.2,0-2.2-1-2.2-2.2v-14.7c0-1.2,1-2.2,2.2-2.2h2.7c1.2,0,2.2,1,2.2,2.2V390.8z M556,390.8c0,1.2-1,2.2-2.2,2.2h-2.7
			c-1.2,0-2.2-1-2.2-2.2v-14.7c0-1.2,1-2.2,2.2-2.2h2.7c1.2,0,2.2,1,2.2,2.2V390.8z M570,390.8c0,1.2-1,2.2-2.2,2.2h-2.7
			c-1.2,0-2.2-1-2.2-2.2v-14.7c0-1.2,1-2.2,2.2-2.2h2.7c1.2,0,2.2,1,2.2,2.2V390.8z"/>
	</g>
	<polygon display="inline" fill="#FFFFFF" points="1095.5,667 1307.4,667 1406.8,709 1172.9,709 	"/>
	<g display="inline">
		<polygon fill="#FFFFFF" points="1225.4,627 1299.4,662 1141.1,662 1087,627 		"/>
		<polygon fill="#FFFFFF" points="1138.3,586 1214.4,621 1078.8,621 1022.6,586 		"/>
		<g>
			<polygon fill="#FFFFFF" points="1004,551 1065.3,551 1017.7,529 1004,529 			"/>
		</g>
		<g>
			<polygon fill="#FFFFFF" points="1071.7,554 1004,554 1004,573.5 1017.1,582 1130.3,582 			"/>
		</g>
	</g>
	<polygon display="inline" fill="#B1B1B1" points="976.2,470 809.1,470 802.8,463 630.8,463 637,499.4 637,508 835.7,508 1004,508 
		1004,499.4 	"/>
	<polygon display="inline" fill="#FFFFFF" points="1004,526.3 1013.3,526.3 1004,521.8 	"/>
	<path display="inline" fill="#B1B1B1" d="M1015.3,662l-11.3-16.1V511H646v143h1v8H1015.3z M839,529h143v75H839V529z M669,529h143
		v75H669V529z"/>
	<g id="Moose" display="inline">
		<g>
			<path fill="#FFFFFF" d="M489.4,483.6c-0.6,0-1.1-0.2-1.6-0.7c0.5-1.4,0.7-2.6,0.7-3.7c0-1.3-0.5-2.7-1.6-4.4
				c0.3-0.6,0.4-1.2,0.4-1.8c0-0.7-0.2-1.5-0.6-2.4c-0.2-0.5-0.8-1.5-1.8-3.2v9.3c0.1,2.9,0.5,4.9,1.4,6.1c-0.6,0.5-1.2,0.7-1.9,0.7
				c-0.6,0-1.2-0.2-1.8-0.7c-0.5,0.5-1,0.7-1.5,0.7c-0.6,0-1.2-0.3-1.7-0.8c0.8-1.7,1.2-3.7,1.2-5.9c0-2.3-0.4-4-1.2-5.1
				c0.8-1.1,1.3-2.9,1.3-5.2c0-1.7-0.3-3.2-0.8-4.6l-0.5-1.2c0.9-0.5,1.8-0.7,2.6-0.7c0.7,0,1.5,0.2,2.4,0.7
				c0.7-0.5,1.6-0.7,2.6-0.7c0.6,0,1.2,0.1,1.9,0.3c0.5,0.1,0.8,0.3,1,0.4c-0.5,0.8-0.7,1.9-0.7,3.2c0,1.6,0.2,2.9,0.6,3.8l1.4,4.2
				l1.4-4.2c0.4-0.9,0.6-2.1,0.6-3.8c0-1.3-0.2-2.4-0.7-3.2c0.1-0.1,0.4-0.3,0.9-0.4c0.6-0.2,1.2-0.3,1.9-0.3c1,0,1.9,0.2,2.6,0.7
				c0.9-0.5,1.7-0.7,2.4-0.7c0.8,0,1.7,0.2,2.6,0.7l-0.5,1.2c-0.5,1.4-0.8,2.9-0.8,4.6c0,2.3,0.4,4.1,1.3,5.2
				c-0.8,1.1-1.2,2.8-1.2,5.1c0,2.2,0.4,4.2,1.2,5.9c-0.6,0.5-1.1,0.8-1.7,0.8c-0.5,0-1.1-0.2-1.5-0.7c-0.6,0.5-1.2,0.7-1.8,0.7
				c-0.7,0-1.3-0.2-1.9-0.7c0.6-0.8,1-2.1,1.2-3.8c0.1-0.7,0.2-1.5,0.2-2.3v-9.3c-1,1.7-1.6,2.7-1.8,3.2c-0.4,0.9-0.6,1.7-0.6,2.4
				c0,0.5,0.1,1.1,0.4,1.8c-1.1,1.7-1.6,3.1-1.6,4.4c0,1,0.2,2.2,0.7,3.7c-0.5,0.5-1.1,0.7-1.7,0.7c-0.5,0-1.1-0.2-1.5-0.7
				C490.5,483.4,490,483.6,489.4,483.6z"/>
			<path fill="#FFFFFF" d="M516.8,482.8c-1,0.5-2.2,0.8-3.6,0.9c-1.4-0.1-2.6-0.3-3.6-0.8c-2.4-1.1-3.6-3.1-3.6-6v-2.7
				c-0.1-1.2-0.5-2-1.2-2.4c0.5-0.2,0.8-0.7,1.1-1.4c0.1-0.3,0.1-0.6,0.1-1v-2.6c0-2.8,1.2-4.7,3.6-5.9c1-0.5,2.2-0.8,3.6-0.9
				c1.4,0.1,2.6,0.4,3.6,0.9c2.4,1.2,3.6,3.1,3.6,5.9v2.6c0.1,1.2,0.5,2,1.2,2.4c-0.5,0.2-0.8,0.7-1.1,1.4c-0.1,0.3-0.1,0.6-0.1,1
				v2.7C520.3,479.6,519.1,481.6,516.8,482.8z M515.7,474.2c-0.1-1.2-0.5-2-1.2-2.4c0.5-0.2,0.9-0.7,1.1-1.4c0.1-0.3,0.1-0.6,0.1-1
				V467c0-0.9-0.2-1.5-0.7-2c-0.5-0.5-1-0.7-1.7-0.7c-0.6,0-1.2,0.2-1.7,0.7c-0.5,0.5-0.7,1.2-0.7,2v2.4c0.1,1.2,0.5,2,1.2,2.4
				c-0.5,0.2-0.9,0.7-1.1,1.4c-0.1,0.3-0.1,0.6-0.1,1v2.4c0,0.9,0.2,1.6,0.7,2c0.5,0.5,1,0.7,1.7,0.7c0.6,0,1.2-0.2,1.7-0.7
				c0.5-0.5,0.7-1.2,0.7-2V474.2z"/>
			<path fill="#FFFFFF" d="M535.4,482.8c-1,0.5-2.2,0.8-3.6,0.9c-1.4-0.1-2.6-0.3-3.6-0.8c-2.4-1.1-3.6-3.1-3.6-6v-2.7
				c-0.1-1.2-0.5-2-1.2-2.4c0.5-0.2,0.8-0.7,1.1-1.4c0.1-0.3,0.1-0.6,0.1-1v-2.6c0-2.8,1.2-4.7,3.6-5.9c1-0.5,2.2-0.8,3.6-0.9
				c1.4,0.1,2.6,0.4,3.6,0.9c2.4,1.2,3.6,3.1,3.6,5.9v2.6c0.1,1.2,0.5,2,1.2,2.4c-0.5,0.2-0.8,0.7-1.1,1.4c-0.1,0.3-0.1,0.6-0.1,1
				v2.7C539,479.6,537.8,481.6,535.4,482.8z M534.3,474.2c-0.1-1.2-0.5-2-1.2-2.4c0.5-0.2,0.9-0.7,1.1-1.4c0.1-0.3,0.1-0.6,0.1-1
				V467c0-0.9-0.2-1.5-0.7-2c-0.5-0.5-1-0.7-1.7-0.7c-0.6,0-1.2,0.2-1.6,0.7c-0.5,0.5-0.7,1.2-0.7,2v2.4c0.1,1.2,0.5,2,1.2,2.4
				c-0.5,0.2-0.9,0.7-1.1,1.4c-0.1,0.3-0.1,0.6-0.1,1v2.4c0,0.9,0.2,1.6,0.7,2c0.5,0.5,1,0.7,1.6,0.7c0.6,0,1.2-0.2,1.7-0.7
				c0.5-0.5,0.7-1.2,0.7-2V474.2z"/>
			<path fill="#FFFFFF" d="M553,466.8c-1.1-2.1-2.4-3.2-4-3.2c-0.7,0-1.4,0.2-1.9,0.7c-0.5,0.5-0.8,1.1-0.8,1.8
				c0,0.6,0.2,1.3,0.7,1.9c0.6,0.5,1.4,0.8,2.2,0.8c0.5,0,0.9-0.1,1.2-0.3c0.2,0.6,0.7,1.2,1.5,1.9c0.4,0.3,0.8,0.5,1.2,0.8
				c2.2,1.2,3.4,3.1,3.4,5.6c0,1.8-0.7,3.4-2,4.7c-1.5,1.4-3.4,2.1-5.9,2.1c-1.2,0-2.5-0.2-3.9-0.6c-0.3-0.1-0.7-0.3-1.3-0.6
				c-0.5-0.2-0.9-0.4-1.2-0.4c-0.5,0-1.1,0.2-1.8,0.7c0-0.2-0.1-0.4-0.1-0.6c0-1.2,0.4-2,1.2-2.5c-0.3-0.3-0.4-0.8-0.4-1.3
				c0-0.7,0.2-1.5,0.6-2.3c0.7,1.3,1.7,2.3,3,3c1.1,0.6,2.2,0.9,3.4,0.9c1,0,1.8-0.2,2.4-0.6c0.6-0.4,1-1,1-1.7
				c0-0.7-0.4-1.5-1.1-2.3c-0.7-0.6-1.5-0.9-2.5-0.9c-0.5,0-1,0.1-1.4,0.2c-0.1-1.4-0.7-2.3-1.7-2.7c-2.1-1.2-3.2-3-3.2-5.2
				c0-1.8,0.6-3.3,1.9-4.7c1.4-1.4,3-2.2,4.9-2.2c1.1,0,2.2,0.3,3.4,0.8c0.3,0.2,0.5,0.3,0.7,0.4c0.2,0.1,0.5,0.2,0.9,0.2
				c0.3,0,0.8,0,1.4-0.1c0,0.2,0.1,0.4,0.1,0.5c0,0.7-0.3,1.4-0.9,2.1C554.1,465.1,553.7,466,553,466.8z"/>
			<path fill="#FFFFFF" d="M567.1,473c-0.7,0-1.3,0.2-1.8,0.6c-0.5,0.5-0.7,1.1-0.7,1.9v1.7c0,1.5,0.8,2.3,2.4,2.3
				c0.8,0,1.6-0.2,2.4-0.6c0.8-0.4,1.3-0.9,1.5-1.5c0.8,0.6,1.2,1.4,1.2,2.5c0,0.5-0.1,1-0.3,1.5c0.4,0.2,0.5,0.8,0.4,1.8
				c-0.5-0.3-1.2-0.4-2-0.4c-0.5,0-1,0.1-1.6,0.2c-0.5,0.1-1,0.3-1.5,0.4c-0.6,0.2-1.2,0.2-1.7,0.2c-1,0-2-0.3-3.1-0.9
				c-0.7,0.6-1.4,0.9-2.1,0.9c-0.7,0-1.3-0.3-1.9-0.8c0.8-1.7,1.2-3.7,1.2-5.9c0-2.3-0.4-4-1.2-5.1c0.8-1.1,1.2-2.8,1.2-5.1
				c0-2.2-0.4-4.2-1.2-5.9c0.6-0.5,1.2-0.8,1.9-0.8c0.7,0,1.4,0.3,2.1,0.9c1.1-0.6,2.1-0.9,3.1-0.9c0.5,0,1.1,0.1,1.7,0.2
				c0.5,0.2,1,0.3,1.5,0.4c0.5,0.1,1,0.2,1.6,0.2c0.8,0,1.5-0.1,2-0.4c0.1,1,0,1.6-0.4,1.8c0.2,0.5,0.3,1,0.3,1.5
				c0,1-0.4,1.9-1.2,2.5c-0.2-0.6-0.7-1.1-1.5-1.5c-0.8-0.4-1.6-0.6-2.4-0.6c-1.6,0-2.4,0.8-2.4,2.3v1.7c0,0.8,0.2,1.4,0.7,1.9
				c0.5,0.4,1.1,0.7,1.8,0.7c1.2,0,2.2-0.5,3.2-1.4c0.1,0.3,0.2,0.6,0.2,0.9c0,0.6-0.2,1.2-0.7,1.7c0.5,0.5,0.7,1.1,0.7,1.7
				c0,0.3-0.1,0.6-0.2,0.9C569.3,473.5,568.2,473,567.1,473z"/>
			<path fill="#FFFFFF" d="M593.6,466.8c-1.1-2.1-2.4-3.2-4-3.2c-0.7,0-1.4,0.2-1.9,0.7c-0.5,0.5-0.8,1.1-0.8,1.8
				c0,0.6,0.2,1.3,0.7,1.9c0.6,0.5,1.4,0.8,2.1,0.8c0.5,0,0.9-0.1,1.2-0.3c0.2,0.6,0.7,1.2,1.5,1.9c0.4,0.3,0.8,0.5,1.2,0.8
				c2.2,1.2,3.4,3.1,3.4,5.6c0,1.8-0.7,3.4-2,4.7c-1.5,1.4-3.4,2.1-5.9,2.1c-1.2,0-2.5-0.2-3.9-0.6c-0.3-0.1-0.7-0.3-1.3-0.6
				c-0.5-0.2-0.9-0.4-1.2-0.4c-0.5,0-1.1,0.2-1.8,0.7c0-0.2-0.1-0.4-0.1-0.6c0-1.2,0.4-2,1.2-2.5c-0.3-0.3-0.4-0.8-0.4-1.3
				c0-0.7,0.2-1.5,0.6-2.3c0.7,1.3,1.7,2.3,3,3c1.1,0.6,2.2,0.9,3.4,0.9c1,0,1.8-0.2,2.4-0.6c0.6-0.4,1-1,1-1.7
				c0-0.7-0.4-1.5-1.1-2.3c-0.7-0.6-1.5-0.9-2.5-0.9c-0.5,0-1,0.1-1.4,0.2c-0.1-1.4-0.7-2.3-1.7-2.7c-2.1-1.2-3.2-3-3.2-5.2
				c0-1.8,0.6-3.3,1.9-4.7c1.4-1.4,3-2.2,4.9-2.2c1.1,0,2.2,0.3,3.4,0.8c0.3,0.2,0.5,0.3,0.7,0.4c0.2,0.1,0.5,0.2,0.9,0.2
				c0.3,0,0.8,0,1.4-0.1c0,0.2,0.1,0.4,0.1,0.5c0,0.7-0.3,1.4-0.9,2.1C594.7,465.1,594.3,466,593.6,466.8z"/>
			<path fill="#FFFFFF" d="M485.6,494.3c-0.2,0.1-0.3,0.3-0.4,0.5c0,0.1,0,0.2-0.1,0.4v0.1c-0.1,0.5-0.4,0.9-0.9,1.2
				c-0.5,0.3-1.1,0.5-1.8,0.5c-0.6,0-1.2-0.1-1.8-0.4c-0.3,0.2-0.5,0.3-0.8,0.3c-0.3,0-0.5-0.1-0.7-0.3c0.3-0.7,0.4-1.4,0.4-2.2
				c0-0.9-0.1-1.5-0.4-1.9c0.3-0.4,0.4-1,0.4-1.9c0-0.8-0.1-1.6-0.4-2.2c0.2-0.2,0.5-0.3,0.7-0.3c0.3,0,0.5,0.1,0.8,0.3
				c0.5-0.2,1.1-0.4,1.7-0.4c0.7,0,1.3,0.2,1.9,0.5c0.5,0.3,0.8,0.7,0.8,1.2c0,0.5,0.2,0.8,0.4,0.9c-0.2,0.1-0.3,0.3-0.4,0.5
				c0,0.1,0,0.2-0.1,0.4c0,0.4-0.3,0.8-0.8,1c0.3,0.1,0.6,0.3,0.7,0.5c0.1,0.1,0.1,0.2,0.1,0.3C485.2,493.9,485.3,494.2,485.6,494.3
				z M483.3,490.3c0-0.2-0.1-0.3-0.2-0.4c-0.2-0.1-0.3-0.2-0.5-0.2c-0.2,0-0.5,0.1-0.6,0.3c-0.2,0.2-0.3,0.5-0.3,0.9
				c0,0.4,0.1,0.7,0.3,0.9c0.2,0.2,0.4,0.3,0.6,0.3c0.2,0,0.4-0.1,0.5-0.2c0.2-0.1,0.2-0.3,0.2-0.4c0-0.2-0.1-0.4-0.3-0.6
				C483.2,490.7,483.3,490.5,483.3,490.3z M481.9,495.4c0.2,0.2,0.4,0.3,0.7,0.3c0.2,0,0.4-0.1,0.5-0.2c0.2-0.1,0.2-0.3,0.2-0.5
				c0-0.2-0.1-0.4-0.3-0.7c0.2-0.2,0.3-0.4,0.3-0.7c0-0.2-0.1-0.4-0.2-0.5c-0.2-0.1-0.3-0.2-0.5-0.2c-0.3,0-0.5,0.1-0.7,0.3
				c-0.2,0.2-0.3,0.6-0.3,1.1C481.6,494.8,481.7,495.1,481.9,495.4z"/>
			<path fill="#FFFFFF" d="M491,497.1c-0.2,0-0.4-0.1-0.5-0.2c0.2-0.4,0.3-0.8,0.3-1.2c0-0.5-0.1-0.9-0.4-1.2
				c-0.3-0.3-0.6-0.5-1-0.5c-0.4,0-0.8,0.2-1,0.5c-0.3,0.3-0.4,0.7-0.4,1.2c0,0.4,0.1,0.8,0.3,1.2c-0.1,0.1-0.2,0.2-0.5,0.2
				c-0.3,0-0.6-0.1-0.9-0.2c-0.2,0.1-0.4,0.2-0.6,0.2c-0.3,0-0.6-0.1-0.9-0.3c1.1-1.1,1.6-2.3,1.6-3.6c0-0.2,0-0.4-0.1-0.6
				c0.9-1.1,1.4-2.2,1.4-3.3c0-0.4-0.1-0.7-0.2-0.9c0.2-0.2,0.4-0.3,0.7-0.3c0.3,0,0.5,0.1,0.7,0.3c0.2-0.2,0.4-0.3,0.7-0.3
				c0.3,0,0.5,0.1,0.7,0.3c-0.1,0.2-0.2,0.5-0.2,0.9c0,1.1,0.5,2.2,1.4,3.3c0,0.2-0.1,0.4-0.1,0.6c0,1.3,0.5,2.5,1.6,3.6
				c-0.3,0.2-0.6,0.3-0.9,0.3c-0.2,0-0.4-0.1-0.6-0.2C491.6,497,491.2,497.1,491,497.1z M489.4,491.2c-0.3,0.5-0.4,1-0.4,1.6
				c0.2-0.1,0.3-0.1,0.4-0.1c0.1,0,0.3,0,0.4,0.1C489.8,492.3,489.7,491.8,489.4,491.2z"/>
			<path fill="#FFFFFF" d="M500,497.1c-0.6,0-1.2-0.2-1.8-0.7c0.2-0.3,0.3-0.6,0.3-0.9c0-0.3-0.2-0.7-0.5-1.2
				c0.1-0.2,0.2-0.3,0.2-0.5c0-0.2-0.1-0.4-0.3-0.6c-0.2-0.2-0.4-0.3-0.6-0.3c-0.2,0-0.4,0.1-0.6,0.3c-0.2,0.2-0.3,0.6-0.3,1
				c0,1.2,0.2,2,0.7,2.4c-0.2,0.2-0.4,0.3-0.7,0.3c-0.3,0-0.5-0.1-0.8-0.3c-0.3,0.2-0.5,0.3-0.8,0.3c-0.3,0-0.5-0.1-0.7-0.3
				c0.3-0.7,0.4-1.4,0.4-2.2c0-0.9-0.1-1.5-0.4-1.9c0.3-0.4,0.4-1,0.4-1.9c0-0.8-0.1-1.6-0.4-2.2c0.2-0.2,0.4-0.3,0.7-0.3
				c0.3,0,0.5,0.1,0.8,0.3c0.5-0.2,1.1-0.4,1.7-0.4c0.7,0,1.3,0.1,1.9,0.4c0.5,0.3,0.8,0.7,0.8,1.2c0,0.5,0.2,0.8,0.4,0.9
				c-0.2,0.1-0.3,0.3-0.4,0.5c0,0.1,0,0.2-0.1,0.4c0,0.4-0.3,0.8-0.8,1c0.3,0.1,0.5,0.3,0.7,0.6c0.1,0.1,0.1,0.2,0.1,0.3
				c0,0.4,0.1,0.6,0.4,0.7c0,0,0,0.2,0.1,0.5c0,0.4,0.1,0.8,0.2,1c0.2,0.4,0.4,0.8,0.7,1.1C500.8,497,500.4,497.1,500,497.1z
				 M498.1,490.3c0-0.2-0.1-0.3-0.2-0.4c-0.1-0.1-0.3-0.2-0.5-0.2c-0.3,0-0.5,0.1-0.6,0.3c-0.2,0.2-0.3,0.5-0.3,0.9
				c0,0.4,0.1,0.7,0.3,0.9c0.2,0.2,0.4,0.3,0.6,0.3c0.2,0,0.4-0.1,0.5-0.2c0.1-0.1,0.2-0.3,0.2-0.4c0-0.2-0.1-0.4-0.3-0.6
				C498,490.7,498.1,490.5,498.1,490.3z"/>
			<path fill="#FFFFFF" d="M508.3,494.3c-0.2,0.1-0.3,0.3-0.4,0.5c0,0.1,0,0.2-0.1,0.4v0.1c-0.1,0.5-0.4,0.9-0.9,1.2
				c-0.5,0.3-1.1,0.5-1.8,0.5c-0.6,0-1.2-0.1-1.8-0.4c-0.3,0.2-0.5,0.3-0.8,0.3c-0.3,0-0.5-0.1-0.7-0.3c0.3-0.7,0.4-1.4,0.4-2.2
				c0-0.9-0.1-1.5-0.4-1.9c0.3-0.4,0.4-1,0.4-1.9c0-0.8-0.1-1.6-0.4-2.2c0.2-0.2,0.5-0.3,0.7-0.3c0.3,0,0.5,0.1,0.8,0.3
				c0.5-0.2,1.1-0.4,1.7-0.4c0.7,0,1.3,0.2,1.9,0.5c0.5,0.3,0.8,0.7,0.8,1.2c0,0.5,0.2,0.8,0.4,0.9c-0.2,0.1-0.3,0.3-0.4,0.5
				c0,0.1,0,0.2-0.1,0.4c0,0.4-0.3,0.8-0.8,1c0.3,0.1,0.6,0.3,0.7,0.5c0.1,0.1,0.1,0.2,0.1,0.3C507.8,493.9,508,494.2,508.3,494.3z
				 M506,490.3c0-0.2-0.1-0.3-0.2-0.4c-0.2-0.1-0.3-0.2-0.5-0.2c-0.2,0-0.5,0.1-0.6,0.3c-0.2,0.2-0.3,0.5-0.3,0.9
				c0,0.4,0.1,0.7,0.3,0.9c0.2,0.2,0.4,0.3,0.6,0.3c0.2,0,0.4-0.1,0.5-0.2c0.2-0.1,0.2-0.3,0.2-0.4c0-0.2-0.1-0.4-0.3-0.6
				C505.9,490.7,506,490.5,506,490.3z M504.6,495.4c0.2,0.2,0.4,0.3,0.6,0.3c0.2,0,0.4-0.1,0.5-0.2c0.2-0.1,0.2-0.3,0.2-0.5
				c0-0.2-0.1-0.4-0.3-0.7c0.2-0.2,0.3-0.4,0.3-0.7c0-0.2-0.1-0.4-0.2-0.5c-0.2-0.1-0.3-0.2-0.5-0.2c-0.3,0-0.5,0.1-0.6,0.3
				c-0.2,0.2-0.3,0.6-0.3,1.1C504.3,494.8,504.4,495.1,504.6,495.4z"/>
			<path fill="#FFFFFF" d="M512.2,493c-0.3,0-0.5,0.1-0.7,0.2c-0.2,0.2-0.3,0.4-0.3,0.7v0.6c0,0.6,0.3,0.9,0.9,0.9
				c0.3,0,0.6-0.1,0.9-0.2c0.3-0.2,0.5-0.3,0.6-0.6c0.3,0.2,0.5,0.5,0.5,0.9c0,0.2,0,0.4-0.1,0.6c0.1,0.1,0.2,0.3,0.2,0.7
				c-0.2-0.1-0.4-0.2-0.8-0.2c-0.2,0-0.4,0-0.6,0.1c-0.2,0-0.4,0.1-0.6,0.2c-0.2,0.1-0.5,0.1-0.6,0.1c-0.4,0-0.8-0.1-1.2-0.4
				c-0.3,0.2-0.5,0.3-0.8,0.3c-0.3,0-0.5-0.1-0.7-0.3c0.3-0.6,0.5-1.4,0.5-2.2c0-0.9-0.2-1.5-0.5-1.9c0.3-0.4,0.5-1.1,0.5-1.9
				c0-0.8-0.2-1.6-0.5-2.2c0.2-0.2,0.5-0.3,0.7-0.3c0.3,0,0.5,0.1,0.8,0.3c0.4-0.2,0.8-0.4,1.2-0.4c0.2,0,0.4,0,0.6,0.1
				c0.2,0.1,0.4,0.1,0.6,0.2c0.2,0,0.4,0.1,0.6,0.1c0.3,0,0.6-0.1,0.8-0.2c0,0.4,0,0.6-0.2,0.7c0.1,0.2,0.1,0.4,0.1,0.6
				c0,0.4-0.2,0.7-0.5,0.9c-0.1-0.2-0.3-0.4-0.6-0.6c-0.3-0.2-0.6-0.2-0.9-0.2c-0.6,0-0.9,0.3-0.9,0.9v0.6c0,0.3,0.1,0.5,0.3,0.7
				c0.2,0.2,0.4,0.3,0.7,0.3c0.4,0,0.9-0.2,1.2-0.5c0,0.1,0.1,0.2,0.1,0.3c0,0.2-0.1,0.5-0.3,0.6c0.2,0.2,0.3,0.4,0.3,0.6
				c0,0.1,0,0.2-0.1,0.3C513,493.2,512.6,493,512.2,493z"/>
			<path fill="#FFFFFF" d="M520.8,497.1c-0.6,0-1.2-0.2-1.8-0.7c0.2-0.3,0.3-0.6,0.3-0.9c0-0.3-0.2-0.7-0.5-1.2
				c0.1-0.2,0.2-0.3,0.2-0.5c0-0.2-0.1-0.4-0.3-0.6c-0.2-0.2-0.4-0.3-0.7-0.3c-0.2,0-0.4,0.1-0.6,0.3c-0.2,0.2-0.3,0.6-0.3,1
				c0,1.2,0.2,2,0.7,2.4c-0.2,0.2-0.4,0.3-0.7,0.3c-0.3,0-0.5-0.1-0.8-0.3c-0.3,0.2-0.5,0.3-0.8,0.3c-0.3,0-0.5-0.1-0.7-0.3
				c0.3-0.7,0.4-1.4,0.4-2.2c0-0.9-0.1-1.5-0.4-1.9c0.3-0.4,0.4-1,0.4-1.9c0-0.8-0.1-1.6-0.4-2.2c0.2-0.2,0.4-0.3,0.7-0.3
				c0.3,0,0.5,0.1,0.8,0.3c0.5-0.2,1.1-0.4,1.7-0.4c0.7,0,1.3,0.1,1.9,0.4c0.5,0.3,0.8,0.7,0.8,1.2c0,0.5,0.2,0.8,0.4,0.9
				c-0.2,0.1-0.3,0.3-0.4,0.5c0,0.1,0,0.2-0.1,0.4c0,0.4-0.3,0.8-0.8,1c0.3,0.1,0.5,0.3,0.7,0.6c0.1,0.1,0.1,0.2,0.1,0.3
				c0,0.4,0.1,0.6,0.4,0.7c0,0,0,0.2,0.1,0.5c0,0.4,0.1,0.8,0.2,1c0.2,0.4,0.4,0.8,0.7,1.1C521.6,497,521.2,497.1,520.8,497.1z
				 M518.9,490.3c0-0.2-0.1-0.3-0.2-0.4c-0.1-0.1-0.3-0.2-0.5-0.2c-0.3,0-0.5,0.1-0.6,0.3c-0.2,0.2-0.3,0.5-0.3,0.9
				c0,0.4,0.1,0.7,0.3,0.9c0.2,0.2,0.4,0.3,0.6,0.3c0.2,0,0.4-0.1,0.5-0.2c0.1-0.1,0.2-0.3,0.2-0.4c0-0.2-0.1-0.4-0.3-0.6
				C518.8,490.7,518.9,490.5,518.9,490.3z"/>
			<path fill="#FFFFFF" d="M529.6,490.7c-0.4-0.8-0.9-1.2-1.5-1.2c-0.3,0-0.5,0.1-0.7,0.3c-0.2,0.2-0.3,0.4-0.3,0.7
				c0,0.2,0.1,0.5,0.3,0.7c0.2,0.2,0.5,0.3,0.8,0.3c0.2,0,0.3,0,0.5-0.1c0.1,0.2,0.3,0.5,0.6,0.7c0.1,0.1,0.3,0.2,0.5,0.3
				c0.9,0.5,1.3,1.2,1.3,2.1c0,0.7-0.3,1.3-0.8,1.8c-0.6,0.5-1.3,0.8-2.2,0.8c-0.5,0-1-0.1-1.5-0.2c-0.1,0-0.3-0.1-0.5-0.2
				c-0.2-0.1-0.3-0.1-0.5-0.1c-0.2,0-0.4,0.1-0.7,0.3c0-0.1,0-0.2,0-0.2c0-0.4,0.2-0.8,0.5-0.9c-0.1-0.1-0.1-0.3-0.1-0.5
				c0-0.3,0.1-0.6,0.2-0.9c0.3,0.5,0.7,0.9,1.1,1.1c0.4,0.2,0.8,0.3,1.3,0.3c0.4,0,0.7-0.1,0.9-0.2c0.2-0.2,0.4-0.4,0.4-0.6
				c0-0.3-0.1-0.6-0.4-0.9c-0.3-0.2-0.6-0.3-1-0.3c-0.2,0-0.4,0-0.5,0.1c0-0.5-0.3-0.9-0.7-1c-0.8-0.5-1.2-1.1-1.2-2
				c0-0.7,0.2-1.3,0.7-1.8c0.5-0.5,1.1-0.8,1.9-0.8c0.4,0,0.9,0.1,1.3,0.3c0.1,0.1,0.2,0.1,0.3,0.2c0.1,0.1,0.2,0.1,0.3,0.1
				c0.1,0,0.3,0,0.5,0c0,0.1,0,0.1,0,0.2c0,0.3-0.1,0.5-0.3,0.8C530,490,529.9,490.4,529.6,490.7z"/>
			<path fill="#FFFFFF" d="M535.5,489.8c-0.1-0.7-0.2-1.1-0.4-1.4c0.2-0.2,0.4-0.3,0.7-0.3s0.5,0.1,0.7,0.3c0.2-0.2,0.5-0.3,0.7-0.3
				c0.3,0,0.5,0.1,0.7,0.3c-0.3,0.7-0.5,1.4-0.5,2.3c0,0.9,0.2,1.5,0.5,1.9c-0.3,0.4-0.5,1.1-0.5,1.9c0,0.8,0.2,1.6,0.5,2.3
				c-0.2,0.2-0.5,0.3-0.7,0.3c-0.3,0-0.5-0.1-0.7-0.3c-0.2,0.2-0.5,0.3-0.7,0.3s-0.5-0.1-0.7-0.3c0.2-0.2,0.4-0.7,0.4-1.4
				c0-0.2,0-0.6,0-1.4c0-0.4-0.2-0.7-0.5-0.8c-0.1,0-0.2,0-0.3,0c-0.1,0-0.2,0-0.3,0c-0.3,0.1-0.5,0.4-0.5,0.8c0,0.8,0,1.2,0,1.4
				c0.1,0.7,0.2,1.1,0.4,1.4c-0.2,0.2-0.5,0.3-0.7,0.3c-0.3,0-0.5-0.1-0.8-0.3c-0.2,0.2-0.5,0.3-0.7,0.3c-0.3,0-0.5-0.1-0.7-0.3
				c0.3-0.7,0.5-1.4,0.5-2.3c0-0.9-0.2-1.5-0.5-1.9c0.3-0.4,0.5-1.1,0.5-1.9c0-0.8-0.2-1.6-0.5-2.3c0.2-0.2,0.5-0.3,0.7-0.3
				c0.3,0,0.5,0.1,0.7,0.3c0.2-0.2,0.5-0.3,0.8-0.3c0.3,0,0.5,0.1,0.7,0.3c-0.2,0.2-0.4,0.7-0.4,1.4c0,0.2,0,0.6,0,1.4
				c0,0.4,0.2,0.7,0.5,0.8c0.1,0,0.2,0,0.3,0c0.1,0,0.2,0,0.3,0c0.3-0.1,0.5-0.4,0.5-0.8C535.6,490.4,535.5,490,535.5,489.8z"/>
			<path fill="#FFFFFF" d="M543.3,496.7c-0.4,0.2-0.8,0.3-1.4,0.3c-0.5,0-1-0.1-1.4-0.3c-0.9-0.4-1.4-1.2-1.4-2.3v-1
				c0-0.5-0.2-0.8-0.5-0.9c0.2-0.1,0.3-0.3,0.4-0.5c0-0.1,0-0.2,0.1-0.4v-1c0-1.1,0.5-1.8,1.4-2.2c0.4-0.2,0.8-0.3,1.4-0.3
				c0.5,0,1,0.2,1.4,0.3c0.9,0.4,1.4,1.2,1.4,2.2v1c0,0.5,0.2,0.8,0.5,0.9c-0.2,0.1-0.3,0.3-0.4,0.5c0,0.1,0,0.2-0.1,0.4v1
				C544.7,495.6,544.2,496.3,543.3,496.7z M542.9,493.5c0-0.5-0.2-0.8-0.5-0.9c0.2-0.1,0.3-0.3,0.4-0.5c0-0.1,0-0.2,0.1-0.4v-0.9
				c0-0.3-0.1-0.6-0.3-0.8c-0.2-0.2-0.4-0.3-0.6-0.3c-0.2,0-0.4,0.1-0.6,0.3c-0.2,0.2-0.3,0.4-0.3,0.8v0.9c0,0.5,0.2,0.8,0.5,0.9
				c-0.2,0.1-0.3,0.3-0.4,0.5c0,0.1,0,0.2-0.1,0.4v0.9c0,0.3,0.1,0.6,0.3,0.8c0.2,0.2,0.4,0.3,0.6,0.3c0.2,0,0.5-0.1,0.6-0.3
				c0.2-0.2,0.3-0.4,0.3-0.8V493.5z"/>
			<path fill="#FFFFFF" d="M546.6,497.1c-0.3,0-0.5-0.1-0.7-0.3c0.3-0.7,0.5-1.4,0.5-2.2c0-0.9-0.2-1.5-0.5-1.9
				c0.3-0.4,0.5-1.1,0.5-1.9c0-0.8-0.2-1.6-0.5-2.2c0.2-0.2,0.5-0.3,0.7-0.3c0.3,0,0.5,0.1,0.8,0.3c0.5-0.2,1.1-0.4,1.7-0.4
				c0.7,0,1.4,0.2,1.9,0.5c0.5,0.3,0.8,0.7,0.8,1.2c0,0.5,0.2,0.8,0.4,0.9c-0.2,0.1-0.3,0.3-0.4,0.5c0,0.1,0,0.2-0.1,0.4
				c0,0.8-0.3,1.3-0.8,1.5c-0.3,0.2-0.9,0.4-1.5,0.4c-0.6,0-1,0.1-1.2,0.4c-0.1,0.1-0.1,0.4-0.1,0.8c0,0.9,0.2,1.6,0.6,2.1
				c-0.2,0.2-0.4,0.3-0.7,0.3c-0.3,0-0.5-0.1-0.8-0.3C547.1,497,546.8,497.1,546.6,497.1z M549.9,490.3c0-0.2-0.1-0.3-0.2-0.5
				c-0.2-0.1-0.3-0.2-0.5-0.2c-0.3,0-0.5,0.1-0.6,0.3c-0.2,0.2-0.3,0.5-0.3,0.9c0,0.4,0.1,0.7,0.3,0.9c0.2,0.2,0.4,0.3,0.6,0.3
				c0.2,0,0.4-0.1,0.5-0.2c0.2-0.1,0.2-0.3,0.2-0.4c0-0.2-0.1-0.4-0.3-0.6C549.8,490.7,549.9,490.5,549.9,490.3z"/>
			<path fill="#FFFFFF" d="M556.2,494.9c-0.1,0-0.2,0-0.2,0c0-0.2,0-0.3-0.1-0.5c-0.1-0.2-0.2-0.3-0.3-0.4c-0.1-0.1-0.3-0.1-0.4,0
				c-0.2,0.1-0.3,0.2-0.3,0.3c-0.1,0.2,0,0.3,0,0.5c0.1,0.1,0.1,0.3,0.3,0.4c0,0.1,0,0.1-0.1,0.2c-0.1,0-0.2,0.1-0.4,0.1
				c0,0.1-0.1,0.1-0.2,0.2c-0.1,0-0.2,0.1-0.4,0c0.2-0.6,0.3-1.1,0.1-1.6c0-0.1-0.1-0.2-0.1-0.2c0.2-0.5,0.2-1,0-1.4
				c-0.1-0.1-0.1-0.2-0.2-0.3c0-0.1,0.1-0.2,0.2-0.2c0.1,0,0.2,0,0.3,0c0-0.1,0.1-0.2,0.2-0.2c0.1,0,0.2,0,0.3,0
				c0,0.1,0,0.2,0.1,0.4c0.2,0.4,0.5,0.7,1,1c0,0.1,0,0.1,0.1,0.2c0.2,0.5,0.6,0.8,1.1,1.1c-0.1,0.1-0.2,0.2-0.3,0.2
				c-0.1,0-0.2,0-0.3,0C556.4,494.8,556.3,494.8,556.2,494.9z M554.7,493c0,0.2,0,0.4,0.1,0.6c0.1-0.1,0.1-0.1,0.1-0.1
				c0,0,0.1,0,0.2,0C555.1,493.3,554.9,493.1,554.7,493z"/>
			<path fill="#FFFFFF" d="M558.1,491.8c0-0.1,0-0.3-0.1-0.6c-0.1-0.3-0.3-0.6-0.5-0.6c0-0.1,0.1-0.2,0.2-0.2c0.1,0,0.2,0,0.3,0
				c0-0.1,0.1-0.2,0.2-0.2c0.1,0,0.2,0,0.3,0l0,0.2c0,0.2,0.1,0.5,0.1,0.7c0.1,0.3,0.3,0.5,0.5,0.7c-0.1,0.2,0,0.5,0.1,0.8
				c0.1,0.3,0.3,0.6,0.5,0.8c0,0.1-0.1,0.2-0.2,0.2c-0.1,0-0.2,0-0.3,0c0,0.1-0.1,0.2-0.2,0.2c-0.1,0-0.2,0-0.3,0
				c0.1-0.2,0-0.3,0-0.5c-0.1-0.2-0.2-0.3-0.4-0.4l-0.8-0.4c0,0.2,0,0.5,0.2,0.8c0.1,0.3,0.3,0.6,0.6,0.8c0,0.1-0.1,0.2-0.2,0.2
				c-0.1,0-0.2,0-0.3,0c-0.1,0.1-0.1,0.2-0.2,0.2c-0.1,0-0.2,0-0.3,0c0-0.3,0-0.6-0.2-0.9c-0.1-0.3-0.3-0.5-0.5-0.6
				c0.1-0.2,0-0.5-0.1-0.8c-0.1-0.2-0.2-0.4-0.4-0.6l-0.1-0.1c0-0.1,0.1-0.2,0.2-0.2c0.1,0,0.2,0,0.3,0c0-0.1,0.1-0.2,0.2-0.2
				c0.1,0,0.2,0,0.3,0c0,0.1,0,0.2,0,0.3c0,0.1,0.1,0.2,0.2,0.3L558.1,491.8z"/>
			<path fill="#FFFFFF" d="M561.7,490.7c-0.1,0.1-0.1,0.1-0.1,0.3c0,0,0,0.1,0,0.1l0.3,0.7c0,0.2,0,0.4-0.1,0.6
				c-0.1,0.2-0.3,0.3-0.6,0.4c-0.2,0.1-0.5,0.1-0.7,0.1c-0.1,0.1-0.1,0.2-0.2,0.2c-0.1,0-0.2,0-0.3,0c0-0.3,0-0.6-0.2-0.9
				c-0.1-0.3-0.3-0.5-0.5-0.6c0-0.2,0-0.5-0.1-0.8c-0.1-0.3-0.3-0.6-0.5-0.7c0-0.1,0.1-0.2,0.2-0.2c0.1,0,0.2,0,0.3,0
				c0.2-0.2,0.3-0.3,0.6-0.4c0.3-0.1,0.5-0.1,0.8-0.1c0.2,0,0.4,0.1,0.5,0.3l0.3,0.7C561.5,490.6,561.6,490.7,561.7,490.7z
				 M560.6,490.3c0-0.1-0.1-0.2-0.2-0.2c-0.1,0-0.2,0-0.3,0c-0.1,0-0.2,0.1-0.2,0.2c0,0.1,0,0.2,0,0.2l0.2,0.4
				c0.1,0.2,0.2,0.3,0.3,0.3c-0.1,0.1-0.1,0.1-0.1,0.3c0,0,0,0.1,0,0.1l0.2,0.6c0,0.1,0.1,0.1,0.2,0.2c0.1,0,0.2,0,0.3,0
				c0.1,0,0.2-0.1,0.2-0.2c0-0.1,0-0.2,0-0.3l-0.2-0.5c-0.1-0.2-0.2-0.3-0.3-0.3c0.1-0.1,0.1-0.1,0.1-0.3c0,0,0-0.1,0-0.1
				L560.6,490.3z"/>
			<path fill="#FFFFFF" d="M568.5,490.7c-0.4-0.8-0.9-1.2-1.5-1.2c-0.3,0-0.5,0.1-0.7,0.3c-0.2,0.2-0.3,0.4-0.3,0.7
				c0,0.2,0.1,0.5,0.3,0.7c0.2,0.2,0.5,0.3,0.8,0.3c0.2,0,0.3,0,0.5-0.1c0.1,0.2,0.3,0.5,0.6,0.7c0.1,0.1,0.3,0.2,0.5,0.3
				c0.9,0.5,1.3,1.2,1.3,2.1c0,0.7-0.3,1.3-0.8,1.8c-0.6,0.5-1.3,0.8-2.2,0.8c-0.5,0-1-0.1-1.5-0.2c-0.1,0-0.3-0.1-0.5-0.2
				c-0.2-0.1-0.3-0.1-0.5-0.1c-0.2,0-0.4,0.1-0.7,0.3c0-0.1,0-0.2,0-0.2c0-0.4,0.2-0.8,0.5-0.9c-0.1-0.1-0.1-0.3-0.1-0.5
				c0-0.3,0.1-0.6,0.2-0.9c0.3,0.5,0.7,0.9,1.1,1.1c0.4,0.2,0.8,0.3,1.3,0.3c0.4,0,0.7-0.1,0.9-0.2c0.2-0.2,0.4-0.4,0.4-0.6
				c0-0.3-0.1-0.6-0.4-0.9c-0.3-0.2-0.6-0.3-1-0.3c-0.2,0-0.4,0-0.5,0.1c0-0.5-0.3-0.9-0.7-1c-0.8-0.5-1.2-1.1-1.2-2
				c0-0.7,0.2-1.3,0.7-1.8c0.5-0.5,1.1-0.8,1.9-0.8c0.4,0,0.9,0.1,1.3,0.3c0.1,0.1,0.2,0.1,0.3,0.2c0.1,0.1,0.2,0.1,0.3,0.1
				c0.1,0,0.3,0,0.5,0c0,0.1,0,0.1,0,0.2c0,0.3-0.1,0.5-0.3,0.8C568.9,490,568.7,490.4,568.5,490.7z"/>
			<path fill="#FFFFFF" d="M574.4,489.8c-0.1-0.7-0.2-1.1-0.4-1.4c0.2-0.2,0.4-0.3,0.7-0.3c0.3,0,0.5,0.1,0.7,0.3
				c0.2-0.2,0.5-0.3,0.7-0.3c0.3,0,0.5,0.1,0.7,0.3c-0.3,0.7-0.5,1.4-0.5,2.3c0,0.9,0.2,1.5,0.5,1.9c-0.3,0.4-0.5,1.1-0.5,1.9
				c0,0.8,0.2,1.6,0.5,2.3c-0.2,0.2-0.5,0.3-0.7,0.3c-0.3,0-0.5-0.1-0.7-0.3c-0.2,0.2-0.5,0.3-0.7,0.3c-0.3,0-0.5-0.1-0.7-0.3
				c0.2-0.2,0.4-0.7,0.4-1.4c0-0.2,0-0.6,0-1.4c0-0.4-0.2-0.7-0.5-0.8c-0.1,0-0.2,0-0.3,0c-0.1,0-0.2,0-0.3,0
				c-0.3,0.1-0.5,0.4-0.5,0.8c0,0.8,0,1.2,0,1.4c0.1,0.7,0.2,1.1,0.4,1.4c-0.2,0.2-0.5,0.3-0.7,0.3c-0.3,0-0.5-0.1-0.8-0.3
				c-0.2,0.2-0.5,0.3-0.7,0.3c-0.3,0-0.5-0.1-0.7-0.3c0.3-0.7,0.5-1.4,0.5-2.3c0-0.9-0.2-1.5-0.5-1.9c0.3-0.4,0.5-1.1,0.5-1.9
				c0-0.8-0.2-1.6-0.5-2.3c0.2-0.2,0.5-0.3,0.7-0.3c0.3,0,0.5,0.1,0.7,0.3c0.2-0.2,0.5-0.3,0.8-0.3c0.3,0,0.5,0.1,0.7,0.3
				c-0.2,0.2-0.4,0.7-0.4,1.4c0,0.2,0,0.6,0,1.4c0,0.4,0.2,0.7,0.5,0.8c0.1,0,0.2,0,0.3,0c0.1,0,0.2,0,0.3,0
				c0.3-0.1,0.5-0.4,0.5-0.8C574.4,490.4,574.4,490,574.4,489.8z"/>
			<path fill="#FFFFFF" d="M583.4,497.1c-0.2,0-0.4-0.1-0.5-0.2c0.2-0.4,0.3-0.8,0.3-1.2c0-0.5-0.1-0.9-0.4-1.2
				c-0.3-0.3-0.6-0.5-1-0.5c-0.4,0-0.8,0.2-1,0.5c-0.3,0.3-0.4,0.7-0.4,1.2c0,0.4,0.1,0.8,0.3,1.2c-0.1,0.1-0.2,0.2-0.5,0.2
				c-0.3,0-0.6-0.1-0.9-0.2c-0.2,0.1-0.4,0.2-0.6,0.2c-0.3,0-0.6-0.1-0.9-0.3c1.1-1.1,1.6-2.3,1.6-3.6c0-0.2,0-0.4-0.1-0.6
				c0.9-1.1,1.4-2.2,1.4-3.3c0-0.4-0.1-0.7-0.2-0.9c0.2-0.2,0.4-0.3,0.7-0.3c0.3,0,0.5,0.1,0.7,0.3c0.2-0.2,0.4-0.3,0.7-0.3
				c0.3,0,0.5,0.1,0.7,0.3c-0.1,0.2-0.2,0.5-0.2,0.9c0,1.1,0.5,2.2,1.4,3.3c0,0.2-0.1,0.4-0.1,0.6c0,1.3,0.5,2.5,1.6,3.6
				c-0.3,0.2-0.7,0.3-0.9,0.3c-0.2,0-0.4-0.1-0.6-0.2C584,497,583.6,497.1,583.4,497.1z M581.8,491.2c-0.3,0.5-0.4,1-0.4,1.6
				c0.2-0.1,0.3-0.1,0.4-0.1s0.3,0,0.4,0.1C582.2,492.3,582.1,491.8,581.8,491.2z"/>
			<path fill="#FFFFFF" d="M587.6,497.1c-0.2,0-0.5-0.1-0.7-0.2c0.2-0.3,0.3-0.6,0.3-1c0-0.6-0.2-1.3-0.6-2.1
				c-0.3-0.7-0.7-1.1-1-1.2c0-0.3,0.1-0.6,0.1-0.8c0-0.6-0.1-1.1-0.3-1.6c-0.2-0.4-0.5-1-1-1.6c0.3-0.2,0.6-0.4,0.9-0.4
				c0.3,0,0.5,0.1,0.8,0.4c0.2-0.2,0.5-0.4,0.8-0.4c0.3,0,0.5,0.1,0.6,0.2c-0.2,0.3-0.3,0.7-0.3,1.1c0,0.8,0.2,1.4,0.7,1.9
				c-0.1,0.2-0.1,0.4-0.1,0.7c0,0.3,0.1,0.7,0.2,1c0.1,0.3,0.3,0.6,0.4,0.8c0.2-0.2,0.3-0.4,0.4-0.8c0.1-0.3,0.2-0.7,0.2-1
				c0-0.3,0-0.5-0.1-0.7c0.5-0.5,0.7-1.1,0.7-1.9c0-0.4-0.1-0.8-0.3-1.1c0.1-0.1,0.4-0.2,0.6-0.2c0.3,0,0.6,0.1,0.8,0.4
				c0.2-0.2,0.5-0.4,0.8-0.4c0.3,0,0.6,0.1,0.9,0.4c-0.5,0.6-0.8,1.1-1,1.6c-0.2,0.5-0.3,1.1-0.3,1.6c0,0.3,0,0.5,0.1,0.8
				c-0.3,0.1-0.6,0.5-1,1.2c-0.4,0.8-0.5,1.5-0.5,2.1c0,0.4,0.1,0.7,0.3,1c-0.3,0.1-0.5,0.2-0.8,0.2c-0.3,0-0.5-0.1-0.7-0.3
				C588,497,587.8,497.1,587.6,497.1z"/>
			<path fill="#FFFFFF" d="M596.1,493c-0.3,0-0.5,0.1-0.7,0.2c-0.2,0.2-0.3,0.4-0.3,0.7v0.6c0,0.6,0.3,0.9,0.9,0.9
				c0.3,0,0.6-0.1,0.9-0.2c0.3-0.2,0.5-0.3,0.6-0.6c0.3,0.2,0.5,0.5,0.5,0.9c0,0.2,0,0.4-0.1,0.6c0.1,0.1,0.2,0.3,0.2,0.7
				c-0.2-0.1-0.4-0.2-0.8-0.2c-0.2,0-0.4,0-0.6,0.1c-0.2,0-0.4,0.1-0.6,0.2c-0.2,0.1-0.5,0.1-0.6,0.1c-0.4,0-0.8-0.1-1.2-0.4
				c-0.3,0.2-0.5,0.3-0.8,0.3c-0.3,0-0.5-0.1-0.7-0.3c0.3-0.6,0.5-1.4,0.5-2.2c0-0.9-0.2-1.5-0.5-1.9c0.3-0.4,0.5-1.1,0.5-1.9
				c0-0.8-0.2-1.6-0.5-2.2c0.2-0.2,0.5-0.3,0.7-0.3c0.3,0,0.5,0.1,0.8,0.3c0.4-0.2,0.8-0.4,1.2-0.4c0.2,0,0.4,0,0.6,0.1
				c0.2,0.1,0.4,0.1,0.6,0.2c0.2,0,0.4,0.1,0.6,0.1c0.3,0,0.6-0.1,0.8-0.2c0,0.4,0,0.6-0.2,0.7c0.1,0.2,0.1,0.4,0.1,0.6
				c0,0.4-0.2,0.7-0.5,0.9c-0.1-0.2-0.3-0.4-0.6-0.6c-0.3-0.2-0.6-0.2-0.9-0.2c-0.6,0-0.9,0.3-0.9,0.9v0.6c0,0.3,0.1,0.5,0.3,0.7
				c0.2,0.2,0.4,0.3,0.7,0.3c0.4,0,0.9-0.2,1.2-0.5c0,0.1,0.1,0.2,0.1,0.3c0,0.2-0.1,0.5-0.3,0.6c0.2,0.2,0.3,0.4,0.3,0.6
				c0,0.1,0,0.2-0.1,0.3C597,493.2,596.6,493,596.1,493z"/>
		</g>
		<g id="lmXyGe_1_">
			<g>
				<path fill="#FFFFFF" d="M579.2,448c-0.1,0.4,0,0.9-0.2,1.2c-0.6,0.3-0.8-0.1-1.3,0c-0.5,1.4-2,2.1-2.7,3.4
					c0.4-0.2-0.1,0.7-0.1,0.2c0.1,0,0.2-0.2,0-0.2c-0.5,0.5,0.1,0.8-0.6,0.5c0,0.5,0,0.8-0.2,0.4c-0.5,0.3,0.1,0.3-0.2,0.7
					c-0.9,0.7-1.7,2.1-2.6,2.4c0.8-0.8,2.2-1.9,2.4-2.6c-0.8,1.1-2.6,2.3-3.3,3.2c-0.3,0.4,0.2,0.5-0.4,0.6c0,0.1,0,0.1,0,0.2
					c0.4,0.3,0.5,1.1,1.1,1.1c1.8-1.7,3.6-3.4,5.1-5.4c0-0.5-0.3-0.4-0.3-0.7c0.6-0.4,0.9-1,1.7-1.2c1.3,4-0.7,7.4,0,10.9
					c0.1,0.5,0.1,1.2,0.7,1.5c0.1,0,0.1,0,0.2,0c2.5-2.3,1.5-9.6,0.6-13.7c0.5-0.4,0.8-0.9,1-1.5c-0.1-0.2-0.1-0.6-0.3-0.6
					C579.4,448,579.3,448,579.2,448z M571.1,456.8C570.3,457.7,570.6,456.7,571.1,456.8L571.1,456.8z M570.8,458.3
					c1.4-1.8,2.8-3.6,4.8-5.1C574.4,455.1,572.3,457.1,570.8,458.3z"/>
			</g>
		</g>
	</g>
	<text transform="matrix(1 0 0 1 400.2499 215.8998)" display="inline" fill="#FFFFFF" font-family="'Lobster1.4'" font-size="85">Eastlake</text>
	<g id="banner" display="inline">
		<rect x="380.7" y="142.8" fill="none" stroke="#B1B1B1" stroke-width="3" stroke-miterlimit="10" width="312.5" height="89.3"/>
		<polyline fill="none" stroke="#B1B1B1" stroke-width="3" stroke-miterlimit="10" points="644.3,230.9 644.3,238.2 725,238.2 
			725,176.2 692.5,176.2 		"/>
		<polyline fill="none" stroke="#B1B1B1" stroke-width="3" stroke-miterlimit="10" points="427.8,230.9 427.8,238.2 347.1,238.2 
			347.1,176.2 379.6,176.2 		"/>
	</g>
</g>
<g id="foreground">
	<g id="lamp" display="none">
		<path display="inline" fill="#909090" d="M135.2,495.5l-20.6,3.3c-1,0.2-1.5-1.1-0.8-1.7l9.6-7.6c0.1-0.1,0.2-0.1,0.4-0.2
			l11.3-2.8c0.2,0,0.3,0,0.5,0l10.3,2.8c0.1,0,0.2,0.1,0.3,0.2l10.2,7.6c0.8,0.6,0.3,1.9-0.7,1.7l-20.2-3.3
			C135.4,495.5,135.3,495.5,135.2,495.5z"/>
		<path display="inline" fill="#909090" d="M145.7,535.2c0.9-0.2,1.6-0.9,1.9-1.7l10.8-29.5c0.6-1.6-0.4-3.4-2.2-3.7l-20.4-3.3
			c-0.3,0-0.6,0-0.9,0l-20.6,3.3c-1.7,0.3-2.8,2.1-2.2,3.7l11.1,29.5c0.3,0.8,1,1.5,1.9,1.7l4.7,1.3c0.4,17.2,2,135.2-2.2,157.7
			c-5.1,2.2-8.5,5.9-8.5,7c0,1.6,7.3,2.9,16.3,2.9s16.3-1.3,16.3-2.9c0-1.1-3.5-4.9-8.7-7.1c-4.6-22.5-2.7-140.2-2.2-157.5
			L145.7,535.2z M139,505.7c0-1.7,1.4-3,3.1-2.8l6.7,1c1.7,0.3,2.7,2,2.2,3.6l-6.8,21.1c-0.3,0.9-0.9,1.6-1.8,1.9
			c-1.8,0.5-3.4-0.9-3.4-2.7V505.7z M128.8,530.6L128.8,530.6c-0.9-0.3-1.5-1-1.8-1.9l-6.8-21.1c-0.5-1.6,0.6-3.4,2.3-3.6l6.6-1
			c1.7-0.3,3,1.1,3,2.8v22.2C132,529.7,130.5,531.1,128.8,530.6z"/>
	</g>
	<g id="cicyle" display="none">
		<g display="inline">
			<g>
				<g>
					<path fill="#909090" d="M971,631h-3v-23h3V631z M970,631h1v-23h-1V631z"/>
				</g>
				<g>
					<path fill="#909090" d="M973,632.1l-3-1l7.1-22.4l3,1L973,632.1z M970.8,630.7l1.8,0.6l6.7-21.2l-1.8-0.6L970.8,630.7z"/>
				</g>
				<g>
					<path fill="#909090" d="M973.9,633l-2.6-1.8l13.3-19.4l2.6,1.8L973.9,633z M972.2,631l1.5,1.1l12.6-18.3l-1.5-1.1L972.2,631z"
						/>
				</g>
				<g>
					<path fill="#909090" d="M974.4,634.1l-2-2.5l18.3-14.7l2,2.5L974.4,634.1z M973.3,631.8l1.2,1.5l17.3-13.9l-1.2-1.5
						L973.3,631.8z"/>
				</g>
				<g>
					<path fill="#909090" d="M974.6,635.3l-1.2-2.9l21.8-8.8l1.2,2.9L974.6,635.3z M974.2,632.8l0.7,1.7l20.6-8.3l-0.7-1.7
						L974.2,632.8z"/>
				</g>
				<g>
					<path fill="#909090" d="M974.4,636.6l-0.2-3.2l23.5-1.8l0.2,3.2L974.4,636.6z M974.8,634l0.1,1.9l22.2-1.7l-0.1-1.9L974.8,634z
						"/>
				</g>
				<g>
					<path fill="#909090" d="M996.7,643.1l-22.9-5.4l0.7-3.1l22.9,5.4L996.7,643.1z M974.6,637.3l21.6,5.1l0.4-1.8l-21.6-5.1
						L974.6,637.3z"/>
				</g>
				<g>
					<path fill="#909090" d="M993.2,650.5l-20.3-11.9l1.6-2.7l20.3,11.9L993.2,650.5z M973.8,638.4l19.2,11.2l0.9-1.6l-19.2-11.2
						L973.8,638.4z"/>
				</g>
				<g>
					<path fill="#909090" d="M987.9,656.5l-16-17.2l2.3-2.2l16,17.2L987.9,656.5z M972.8,639.3l15.1,16.3l1.4-1.3L974.1,638
						L972.8,639.3z"/>
				</g>
				<g>
					<path fill="#909090" d="M981,660.6l-10.4-21.1l2.8-1.4l10.4,21.1L981,660.6z M971.5,639.8l9.8,20l1.7-0.8l-9.8-20L971.5,639.8z
						"/>
				</g>
				<g>
					<path fill="#909090" d="M973,662.7l-3.6-23.2l3.1-0.5l3.6,23.2L973,662.7z M970.2,640l3.4,22l1.8-0.3l-3.4-22L970.2,640z"/>
				</g>
				<g>
					<path fill="#909090" d="M967.7,662.7l-3.1-0.5l3.6-23.2l3.1,0.5L967.7,662.7z M965.3,661.6l1.8,0.3l3.4-22l-1.8-0.3
						L965.3,661.6z"/>
				</g>
				<g>
					<path fill="#909090" d="M959.7,660.6l-2.8-1.4l10.4-21.1l2.8,1.4L959.7,660.6z M957.7,659l1.7,0.8l9.8-20l-1.7-0.8L957.7,659z"
						/>
				</g>
				<g>
					<path fill="#909090" d="M952.8,656.5l-2.3-2.2l16-17.2l2.3,2.2L952.8,656.5z M951.4,654.3l1.4,1.3l15.1-16.3l-1.4-1.3
						L951.4,654.3z"/>
				</g>
				<g>
					<path fill="#909090" d="M947.5,650.5l-1.6-2.7l20.3-11.9l1.6,2.7L947.5,650.5z M946.8,648l0.9,1.6l19.2-11.2l-0.9-1.6
						L946.8,648z"/>
				</g>
				<g>
					<path fill="#909090" d="M944,643.1l-0.7-3.1l22.9-5.4l0.7,3.1L944,643.1z M944.1,640.5l0.4,1.8l21.6-5.1l-0.4-1.8L944.1,640.5z
						"/>
				</g>
				<g>
					<path fill="#909090" d="M966.3,636.6l-23.5-1.8l0.2-3.2l23.5,1.8L966.3,636.6z M943.6,634.2l22.2,1.7l0.1-1.9l-22.2-1.7
						L943.6,634.2z"/>
				</g>
				<g>
					<path fill="#909090" d="M966.1,635.3l-21.8-8.8l1.2-2.9l21.8,8.8L966.1,635.3z M945.2,626.2l20.6,8.3l0.7-1.7l-20.6-8.3
						L945.2,626.2z"/>
				</g>
				<g>
					<path fill="#909090" d="M966.3,634.1L948,619.4l2-2.5l18.3,14.7L966.3,634.1z M948.9,619.3l17.3,13.9l1.2-1.5l-17.3-13.9
						L948.9,619.3z"/>
				</g>
				<g>
					<path fill="#909090" d="M966.9,633l-13.3-19.4l2.6-1.8l13.3,19.4L966.9,633z M954.4,613.8l12.6,18.3l1.5-1.1l-12.6-18.3
						L954.4,613.8z"/>
				</g>
				<g>
					<path fill="#909090" d="M967.7,632.1l-7.1-22.4l3-1l7.1,22.4L967.7,632.1z M961.4,610.1l6.7,21.2l1.8-0.6l-6.7-21.2
						L961.4,610.1z"/>
				</g>
				<g>
					<path fill="#909090" d="M971,631h-3v-23h3V631z M970,631h1v-23h-1V631z"/>
				</g>
			</g>
			<g>
				<path fill="#909090" d="M970.4,609.1c3.5,0,7,0.7,10.2,2.1c3.1,1.3,5.9,3.2,8.3,5.6s4.3,5.2,5.6,8.3c1.4,3.2,2.1,6.7,2.1,10.2
					c0,3.5-0.7,7-2.1,10.2c-1.3,3.1-3.2,5.9-5.6,8.3s-5.2,4.3-8.3,5.6c-3.2,1.4-6.7,2.1-10.2,2.1s-7-0.7-10.2-2.1
					c-3.1-1.3-5.9-3.2-8.3-5.6c-2.4-2.4-4.3-5.2-5.6-8.3c-1.4-3.2-2.1-6.7-2.1-10.2c0-3.5,0.7-7,2.1-10.2c1.3-3.1,3.2-5.9,5.6-8.3
					c2.4-2.4,5.2-4.3,8.3-5.6C963.4,609.8,966.8,609.1,970.4,609.1 M970.4,608.2c-15,0-27.1,12.1-27.1,27.1s12.1,27.1,27.1,27.1
					s27.1-12.1,27.1-27.1S985.3,608.2,970.4,608.2L970.4,608.2z"/>
				<path fill="#909090" d="M970.4,608.9c3.6,0,7,0.7,10.3,2.1c3.1,1.3,6,3.2,8.4,5.7c2.4,2.4,4.3,5.3,5.7,8.4
					c1.4,3.3,2.1,6.7,2.1,10.3s-0.7,7-2.1,10.3c-1.3,3.1-3.2,6-5.7,8.4c-2.4,2.4-5.3,4.3-8.4,5.7c-3.3,1.4-6.7,2.1-10.3,2.1
					s-7-0.7-10.3-2.1c-3.1-1.3-6-3.2-8.4-5.7c-2.4-2.4-4.3-5.3-5.7-8.4c-1.4-3.3-2.1-6.7-2.1-10.3s0.7-7,2.1-10.3
					c1.3-3.1,3.2-6,5.7-8.4c2.4-2.4,5.3-4.3,8.4-5.7C963.3,609.6,966.8,608.9,970.4,608.9 M970.4,608.2c-15,0-27.1,12.1-27.1,27.1
					s12.1,27.1,27.1,27.1s27.1-12.1,27.1-27.1S985.3,608.2,970.4,608.2L970.4,608.2z"/>
				<path fill="#909090" d="M970.4,608.2c15,0,27.1,12.1,27.1,27.1s-12.1,27.1-27.1,27.1s-27.1-12.1-27.1-27.1
					S955.4,608.2,970.4,608.2 M970.4,606.9c-3.8,0-7.5,0.8-11,2.2c-3.4,1.4-6.4,3.5-9,6.1c-2.6,2.6-4.7,5.6-6.1,9
					c-1.5,3.5-2.2,7.2-2.2,11c0,3.8,0.8,7.5,2.2,11c1.4,3.4,3.5,6.4,6.1,9c2.6,2.6,5.6,4.7,9,6.1c3.5,1.5,7.2,2.2,11,2.2
					c3.8,0,7.5-0.8,11-2.2c3.4-1.4,6.4-3.5,9-6.1c2.6-2.6,4.7-5.6,6.1-9c1.5-3.5,2.2-7.2,2.2-11c0-3.8-0.8-7.5-2.2-11
					c-1.4-3.4-3.5-6.4-6.1-9c-2.6-2.6-5.6-4.7-9-6.1C977.9,607.7,974.2,606.9,970.4,606.9L970.4,606.9z"/>
			</g>
		</g>
		<g id="wheel_1_" display="inline">
			<g>
				<g>
					<path fill="#909090" d="M1016,650h-1v-10h1V650z M1015,650h1v-8h-1V650z"/>
				</g>
				<g>
					<path fill="#909090" d="M1017.2,650.6l-1.3-0.4l2.8-8.8l1.3,0.4L1017.2,650.6z M1016.4,649.9l0.6,0.2l2.6-8.1l-0.6-0.2
						L1016.4,649.9z"/>
				</g>
				<g>
					<path fill="#909090" d="M1017.5,650.9l-1.1-0.8l5.3-7.6l1.1,0.8L1017.5,650.9z M1016.9,650l0.5,0.3l4.8-7l-0.5-0.3L1016.9,650z
						"/>
				</g>
				<g>
					<path fill="#909090" d="M1017.7,651.4l-0.9-1.1l7.2-5.8l0.9,1.1L1017.7,651.4z M1017.4,650.4l0.4,0.5l6.6-5.3l-0.4-0.5
						L1017.4,650.4z"/>
				</g>
				<g>
					<path fill="#909090" d="M1017.7,651.8l-0.5-1.3l8.6-3.4l0.5,1.3L1017.7,651.8z M1017.7,650.8l0.2,0.5l7.9-3.2l-0.2-0.5
						L1017.7,650.8z"/>
				</g>
				<g>
					<path fill="#909090" d="M1017.6,652.3l-0.1-1.4l9.2-0.7l0.1,1.4L1017.6,652.3z M1017.9,651.3l0,0.6l8.4-0.7l0-0.6L1017.9,651.3
						z"/>
				</g>
				<g>
					<path fill="#909090" d="M1026.4,654.8l-9-2.1l0.3-1.3l9,2.1L1026.4,654.8z M1017.8,652.4l8.3,1.9l0.1-0.6l-8.3-1.9
						L1017.8,652.4z"/>
				</g>
				<g>
					<path fill="#909090" d="M1025,657.7l-8-4.7l0.7-1.2l8,4.7L1025,657.7z M1017.5,652.9l7.3,4.3l0.3-0.5l-7.3-4.3L1017.5,652.9z"
						/>
				</g>
				<g>
					<path fill="#909090" d="M1022.9,660l-6.3-6.8l1-0.9l6.3,6.8L1022.9,660z M1017.1,653.3l5.8,6.2l0.4-0.4l-5.8-6.2L1017.1,653.3z
						"/>
				</g>
				<g>
					<path fill="#909090" d="M1020.2,661.6l-4.1-8.3l1.2-0.6l4.1,8.3L1020.2,661.6z M1016.6,653.5l3.7,7.6l0.5-0.3l-3.7-7.6
						L1016.6,653.5z"/>
				</g>
				<g>
					<path fill="#909090" d="M1017.1,662.4l-1.4-9.2l1.4-0.2l1.4,9.2L1017.1,662.4z M1016.1,653.6l1.3,8.4l0.6-0.1l-1.3-8.4
						L1016.1,653.6z"/>
				</g>
				<g>
					<path fill="#909090" d="M1015.1,662.4l-1.4-0.2l1.4-9.2l1.4,0.2L1015.1,662.4z M1014.2,661.9l0.6,0.1l1.3-8.4l-0.6-0.1
						L1014.2,661.9z"/>
				</g>
				<g>
					<path fill="#909090" d="M1012,661.6l-1.2-0.6l4.1-8.3l1.2,0.6L1012,661.6z M1011.3,660.9l0.5,0.3l3.7-7.6l-0.5-0.3
						L1011.3,660.9z"/>
				</g>
				<g>
					<path fill="#909090" d="M1009.3,660l-1-0.9l6.3-6.8l1,0.9L1009.3,660z M1008.9,659.1l0.4,0.4l5.8-6.2l-0.4-0.4L1008.9,659.1z"
						/>
				</g>
				<g>
					<path fill="#909090" d="M1007.2,657.7l-0.7-1.2l8-4.7l0.7,1.2L1007.2,657.7z M1007.1,656.7l0.3,0.5l7.3-4.3l-0.3-0.5
						L1007.1,656.7z"/>
				</g>
				<g>
					<path fill="#909090" d="M1005.8,654.8l-0.3-1.3l9-2.1l0.3,1.3L1005.8,654.8z M1006,653.8l0.1,0.6l8.3-1.9l-0.1-0.6L1006,653.8z
						"/>
				</g>
				<g>
					<path fill="#909090" d="M1014.6,652.3l-9.2-0.7l0.1-1.4l9.2,0.7L1014.6,652.3z M1005.8,651.2l8.4,0.7l0-0.6l-8.4-0.7
						L1005.8,651.2z"/>
				</g>
				<g>
					<path fill="#909090" d="M1014.5,651.8l-8.6-3.4l0.5-1.3l8.6,3.4L1014.5,651.8z M1006.4,648.2l7.9,3.2l0.2-0.5l-7.9-3.2
						L1006.4,648.2z"/>
				</g>
				<g>
					<path fill="#909090" d="M1014.5,651.4l-7.2-5.8l0.9-1.1l7.2,5.8L1014.5,651.4z M1007.9,645.5l6.6,5.3l0.4-0.5l-6.6-5.3
						L1007.9,645.5z"/>
				</g>
				<g>
					<path fill="#909090" d="M1014.7,650.9l-5.3-7.6l1.1-0.8l5.3,7.6L1014.7,650.9z M1010,643.4l4.8,7l0.5-0.3l-4.8-7L1010,643.4z"
						/>
				</g>
				<g>
					<path fill="#909090" d="M1015,650.6l-2.8-8.8l1.3-0.4l2.8,8.8L1015,650.6z M1012.7,642l2.6,8.1l0.6-0.2l-2.6-8.1L1012.7,642z"
						/>
				</g>
				<g>
					<path fill="#909090" d="M1016,650h-1v-10h1V650z M1015,650h1v-8h-1V650z"/>
				</g>
			</g>
			<g>
				<path fill="#909090" d="M1016.1,642.1c5.3,0,9.6,4.3,9.6,9.6s-4.3,9.6-9.6,9.6c-5.3,0-9.6-4.3-9.6-9.6
					S1010.8,642.1,1016.1,642.1 M1016.1,641.2c-5.8,0-10.5,4.7-10.5,10.5s4.7,10.5,10.5,10.5c5.8,0,10.5-4.7,10.5-10.5
					S1021.9,641.2,1016.1,641.2L1016.1,641.2z"/>
				<path fill="#909090" d="M1016.1,641.9c5.4,0,9.9,4.4,9.9,9.9s-4.4,9.9-9.9,9.9s-9.9-4.4-9.9-9.9S1010.7,641.9,1016.1,641.9
					 M1016.1,641.2c-5.8,0-10.5,4.7-10.5,10.5s4.7,10.5,10.5,10.5c5.8,0,10.5-4.7,10.5-10.5S1021.9,641.2,1016.1,641.2L1016.1,641.2
					z"/>
				<path fill="#909090" d="M1016.1,641.2c5.8,0,10.5,4.7,10.5,10.5s-4.7,10.5-10.5,10.5c-5.8,0-10.5-4.7-10.5-10.5
					S1010.3,641.2,1016.1,641.2 M1016.1,639.9c-6.5,0-11.8,5.3-11.8,11.8c0,6.5,5.3,11.8,11.8,11.8c6.5,0,11.8-5.3,11.8-11.8
					C1027.9,645.2,1022.6,639.9,1016.1,639.9L1016.1,639.9z"/>
			</g>
		</g>
		<path display="inline" fill="#909090" d="M1018,652h-0.9c0-8,0-14.6-0.7-21.7c-0.8-8.1-1.9-14.7-4.4-20c-2.9-6-7-10.7-12-14.1
			v-2.9l3.3,1.9c1.8,0.9,3.7-0.1,3.7-1.7v-6c0-1.1-1.4-1.6-2.9-1.6h-11.7c-2.6,0-3.7,2.4-1.5,3.5l5.1,2.4v2.8
			c-7-3.1-14.1-4.7-23.5-4.9c-0.1-1.1-1.1-2-2.2-2c-1.2,0-2.3,1-2.3,2.2v7.2c0,0.4,0.1,0.7,0.3,1.7H968v34.8c0,0.4-0.3,0.9-0.3,1.5
			c0,1.4,1.2,2.5,2.6,2.5s1.9-1.1,1.9-2.5c0-0.6-0.1-1.1-1.1-1.5V599h1.3c0.2-1-0.3-1.3-0.3-1.7v-5.5c19,0.3,31.2,6.6,37.3,19.3
			c5.5,11.5,5.7,26.2,5.7,40.4c0,0.1,0,0.2,0,0.2c0,0.5,0.9,1,1.5,1c0.5,0,1.5-0.4,1.5-1C1018,651.7,1018,652,1018,652z"/>
	</g>
	<g id="mr">
		<path id="right_hand" fill="#909090" d="M405.5,621c-0.7,0.2-2.1,0.6-2.1,0.6s-1.3,2.1-1.3,2.8c0,0.6-0.1,2.1,0,2.7
			c0.1,0.5,0.9,1.9,1.3,2.2c0.3,0.2,0.9,0.7,1,0.8c0.2,0.1,0.6-0.2,0.6-0.2s0.3,0.1,0.4-0.1c0.1-0.1,0.3-0.4,0.3-0.4s0.3,0,0.4-0.2
			s0.7-0.7-0.4-2.1c0,0-0.1-0.1-0.1-0.4s0.5-0.8,0.5-1c0.1-0.1,0.5-1.3,0.7-1.4s0.4-0.5,0.4-0.9c0-0.4,0.5-0.6,0.6-0.8
			s0-0.4,0.1-0.5s-0.3-0.4-0.3-0.5C407.1,621.1,406.2,620.8,405.5,621z"/>
		<path id="left_hand" fill="#909090" d="M443.1,623.5c2,1,4.8,1.2,5.2,0.8c0,0,0.7,1.1,0.7,1.8c0,0.3-0.2,0.7-0.3,1
			c-0.1,0.2-0.5,1.9-0.8,2.1c-0.3,0.3-2.1,2.1-2.5,2.1c-0.4,0-0.6-0.7-0.5-0.8c0.1-0.1-0.6,0.3-0.5-0.5c0.1-0.5,0.3-0.7,0.3-0.7
			s-0.2-0.2-0.4-0.5c-0.2-0.3-0.2-1.1-0.3-1.4s-0.2-0.5-0.3-1.1C443.6,626.2,443,624.8,443.1,623.5z"/>
		<path id="lower_body" fill="#909090" d="M437,643.5c-0.5-3.9,3.4-13.5,1.6-13.4c-1.8,0.2-23-1.3-23-1.3c-3,11.8,5.7,31.2,8,34.2
			c1,1.3,1.8,4.2,2.4,7.1c-0.1,0.5-0.3,1.2-0.5,1.7c-0.4,0.9-1,2.3-0.8,3.1c0.2,0.9,0.6,1.3,1,1.5c0.2,0.1,0.9,0,1.4,0
			c0.1,1,0.2,1.6,0.2,1.6s0.2,0.1,0.6,0.2c-1.6,2.1-2.6,4.7-2.2,5.8c0.4,1.2,1.5,1.6,2.6,1.7c1.4,0.2,4.2,0.3,5.1-1
			c0.9-1.3,1-2.4,1.2-4.1c0.1-0.5,0.2-0.9,0.3-1.2c0.4-0.2,0.6-0.5,0.7-0.9c0.5-3.5,0.5-4.8,0.5-4.8
			C435.9,672.2,437.5,647.5,437,643.5z"/>
		<g id="upper_body_1_">
			<path id="upper_body" fill="#909090" d="M415.5,619.3c0.1,1.7-1.6,6.6-0.7,8c0.8,1.5,4,8.5,3.8,8.5c-3.3,0.1,17.2-5.3,17.8-4.5
				c0,0,1.2,5.7,3.9,6.8l-0.8-9.2c-0.4-6.1,0.5-15.7,0.5-15.7s1.2,2.6,1.5,4.3c0.3,1.7,0.5,3,0.7,4.5c0.2,0.9,0.8,1.4,1.3,1.7
				c1.5,0.7,3.6,0.8,4.5,0.2c0.9-0.5,0.5-3.5,0.5-4.9c0-0.7-0.3-1.8-0.5-2.9c-0.2-1-4.1-17.4-4.6-19.3c-0.5-1.7-2.6-7.7-3.4-9.7
				c-0.7-2-8.8-5.3-9.9-6c-1.4-1-3.3-2.4-2.5-4.1c0.4-0.8,0.5-1.9,0.5-3l0,0c0.8-1.4-0.3-3.6-0.5-4.6c-0.1-1-1.9-2.8-2.4-3.3
				s-1.2-1.1-3.7-1.4c-2.5-0.2-4.9,0.9-5.9,1c-1,0.2-0.9,0.5-1.5,0.6c-0.3,0.1-0.5,0-0.7-0.1c-0.1-0.1-0.3-0.1-0.5,0l0,0
				c-0.1,0.1-0.2,0.1-0.2,0.1c-0.2,0-0.6,0-0.9,0c-0.5,0,0.2,0.5,0.2,0.5l0,0c0,0-0.3,0.3-0.8,0.3c-0.5,0.1,0.2,0.8,0.2,0.8
				s-0.7,0,0,0.8c0.7,0.8,0,3.1,1.6,4.8l0,0c0.1,0.2,0.3,0.5,0.5,0.6c0.5,0.4-1,2.3-1.1,2.5c-0.1,0.5,0.5,1.1,0.8,1.1
				s-0.4,0.8,0.9,1.3c0,0,0.1,0.7,0.1,1c0,0.4,0,2.7,0.9,2.9c0.6,0.2,2.1,0.2,2.1,0.2s-0.4,0.5-0.5,0.6c-0.8,0.6-3.6,2.8-3.8,3.3
				c-0.2,0.6-2,5.8-2,6.8c0,1-4.9,19-5.7,20.7c-0.4,0.8-2.3,6.4-1.8,6.7c0.5,0.3,2.9-1.6,4.4,0c1.5,1.6,1.5-0.7,2.4-2
				c1.2-1.6,4.2-8.1,4.4-8.4s1.2,0,1.1,2C415.4,614.9,415.4,617.6,415.5,619.3z"/>
			<path id="shirt" fill="#FFFFFF" d="M417,583.1c0,0,1.4,2.1,4.7,2.1c3.3-0.1,5.7-6.9,5.7-6.9s-2.8,18.9-5,24.5L417,583.1z"/>
		</g>
		<path id="tie" fill="#909090" d="M418.6,586.2c-0.1,0.4-0.1,0.8-0.2,1c0,0.1,0,0.3,0,0.4l0.3,0.8c0.2,0.4,0.6,0.6,1,0.5
			c0.6-0.2,1.3-0.5,1.6-0.9c0.1-0.2,0.4-0.3,0.6-0.3l0.4,0c0.2,0,0.5,0.1,0.6,0.2c0.3,0.3,1,0.6,1.5,0.8c0.4,0.2,0.9-0.1,1.1-0.5
			l0.3-0.9c0-0.1,0-0.3,0-0.4l-0.2-1c-0.1-0.4-0.6-0.7-1-0.6c-0.6,0.2-1.4,0.4-1.6,0.7c-0.1,0.2-0.4,0.2-0.6,0.3l-0.6,0
			c-0.2,0-0.4,0-0.6-0.2c-0.3-0.3-1.1-0.5-1.7-0.6C419.1,585.5,418.7,585.8,418.6,586.2z"/>
		<path id="cane" fill="#909090" d="M404.9,624.4c-1.4,0-2.4,1.1-2.4,2.5c0,0.5,0.5,0.9,0.5,1.2v51.7v0.2v0.9h2v-0.9l-1-0.2v-50.5
			c1,0,0.5,0.1,0.8,0.1c1.4,0,2.6-1.1,2.6-2.5C407.4,625.5,406.3,624.4,404.9,624.4z"/>
		<path id="hat" fill="#909090" d="M455.4,632.9c-5.1-3.8-10.1-5.7-11.2-4.2c-0.7,0.9,0.3,2.9,2.4,5.2l-2.3,3
			c-1.5,2-1.1,4.9,0.9,6.4l3.1,2.3c2,1.5,4.9,1.1,6.4-0.9l2.3-3c2.8,1.3,5,1.7,5.7,0.8C463.8,640.9,460.5,636.7,455.4,632.9z"/>
	</g>
</g>
<g id="Layer_6" display="none">
	<g id="sign_1_" display="inline">
		<g id="sign">
			<path fill="#B3B3B3" d="M859.6,398.4c-19.1,0-34.6-15.5-34.6-34.6V147.4c0-19.1,15.5-34.6,34.6-34.6h516.1
				c19.1,0,34.6,15.5,34.6,34.6v216.4c0,19.1-15.5,34.6-34.6,34.6H859.6z M1335.9,135.3c-2.6,0-4.8,2.1-4.8,4.8s2.1,4.8,4.8,4.8
				s4.8-2.1,4.8-4.8S1338.5,135.3,1335.9,135.3z M904.6,135.3c-2.6,0-4.8,2.1-4.8,4.8s2.1,4.8,4.8,4.8s4.8-2.1,4.8-4.8
				S907.2,135.3,904.6,135.3z"/>
			<path fill="#CCCCCC" d="M1375.7,117.8c16.3,0,29.6,13.3,29.6,29.6v216.4c0,16.3-13.3,29.6-29.6,29.6H859.6
				c-16.3,0-29.6-13.3-29.6-29.6V147.4c0-16.3,13.3-29.6,29.6-29.6H1375.7 M1335.9,149.8c5.4,0,9.8-4.4,9.8-9.8
				c0-5.4-4.4-9.8-9.8-9.8s-9.8,4.4-9.8,9.8C1326.1,145.4,1330.5,149.8,1335.9,149.8 M904.6,149.8c5.4,0,9.8-4.4,9.8-9.8
				c0-5.4-4.4-9.8-9.8-9.8c-5.4,0-9.8,4.4-9.8,9.8C894.8,145.4,899.2,149.8,904.6,149.8 M1375.7,107.8H859.6
				c-21.8,0-39.6,17.8-39.6,39.6v216.4c0,21.8,17.8,39.6,39.6,39.6h516.1c21.8,0,39.6-17.8,39.6-39.6V147.4
				C1415.3,125.5,1397.5,107.8,1375.7,107.8L1375.7,107.8z"/>
			<path fill="#E6E6E6" d="M1375.7,117.8c16.3,0,29.6,13.3,29.6,29.6v216.4c0,16.3-13.3,29.6-29.6,29.6H859.6
				c-16.3,0-29.6-13.3-29.6-29.6V147.4c0-16.3,13.3-29.6,29.6-29.6H1375.7 M1335.9,149.8c5.4,0,9.8-4.4,9.8-9.8
				c0-5.4-4.4-9.8-9.8-9.8s-9.8,4.4-9.8,9.8C1326.1,145.4,1330.5,149.8,1335.9,149.8 M904.6,149.8c5.4,0,9.8-4.4,9.8-9.8
				c0-5.4-4.4-9.8-9.8-9.8c-5.4,0-9.8,4.4-9.8,9.8C894.8,145.4,899.2,149.8,904.6,149.8 M1375.7,113.8H859.6
				c-18.5,0-33.6,15.1-33.6,33.6v216.4c0,18.5,15.1,33.6,33.6,33.6h516.1c18.5,0,33.6-15.1,33.6-33.6V147.4
				C1409.3,128.8,1394.2,113.8,1375.7,113.8L1375.7,113.8z M1335.9,145.8c-3.2,0-5.8-2.6-5.8-5.8c0-3.2,2.6-5.8,5.8-5.8
				c3.2,0,5.8,2.6,5.8,5.8C1341.6,143.2,1339.1,145.8,1335.9,145.8L1335.9,145.8z M904.6,145.8c-3.2,0-5.8-2.6-5.8-5.8
				c0-3.2,2.6-5.8,5.8-5.8c3.2,0,5.8,2.6,5.8,5.8C910.4,143.2,907.8,145.8,904.6,145.8L904.6,145.8z"/>
		</g>
		<g id="left_rope">
			<path fill="#A1A1A1" d="M908,83.4c-0.2,0-0.3,0.1-0.5,0.2l-6.9,4.1c0,0-0.4,0.1-0.4,0.1l-0.3,0v0c-1,0.7-1.4,3.3-1.4,6.4
				c0,3.6,1.1,6.6,2.3,6.6c0.2,0,0.5-0.3,0.6-0.4l6.9-4.3h0c1,0,1.8-3,1.8-6.3C910.2,86.1,909.2,83.4,908,83.4z"/>
			<path fill="#A1A1A1" d="M908,69.8c-0.2,0-0.3,0.1-0.5,0.2l-6.9,4.1c0,0-0.4,0.1-0.4,0.1l-0.3,0v0c-1,0.7-1.4,3.3-1.4,6.4
				c0,3.6,1.1,6.6,2.3,6.6c0.2,0,0.5,0,0.6-0.2l6.9-4h0c1-1,1.8-3.3,1.8-6.5C910.2,72.8,909.2,69.8,908,69.8z"/>
			<path fill="#A1A1A1" d="M908,96.9c-0.2,0-0.3,0.1-0.5,0.2l-6.9,4.1c0,0-0.4,0.1-0.4,0.1l-0.3,0v0c-1,0.7-1.4,3.3-1.4,6.4
				c0,3.6,1.1,6.6,2.3,6.6c0.2,0,0.5-0.1,0.6-0.2l6.9-4h0c1-1,1.8-3.3,1.8-6.5C910.2,99.9,909.2,96.9,908,96.9z"/>
			<path fill="#A1A1A1" d="M908,110.4c-0.2,0-0.3,0.1-0.5,0.2l-6.9,4.1c0,0-0.4,0.1-0.4,0.1l-0.3,0v0c-1,0.7-1.4,3.3-1.4,6.4
				c0,3.6,1.1,6.6,2.3,6.6c0.2,0,0.5-0.3,0.6-0.5l6.9-4.3h0c1,0,1.8-3,1.8-6.2C910.2,113.1,909.2,110.4,908,110.4z"/>
			<path fill="#A1A1A1" d="M908,123.9c-0.2,0-0.3,0.1-0.5,0.2l-6.9,4.1c0,0-0.4,0.1-0.4,0.1l-0.3,0v0c-1,0.7-1.4,3.3-1.4,6.4
				c0,3.6,1.1,6.6,2.3,6.6c0.2,0,0.5-0.1,0.6-0.2l6.9-4h0c1-1,1.8-3.3,1.8-6.5C910.2,126.9,909.2,123.9,908,123.9z"/>
			<path fill="#A1A1A1" d="M908,15.8c-0.2,0-0.3,0.1-0.5,0.2l-6.9,4.1c0,0-0.4,0.1-0.4,0.1l-0.3,0v0c-1,0.7-1.4,3.3-1.4,6.4
				c0,3.6,1.1,6.6,2.3,6.6c0.2,0,0.5,0,0.6-0.2l6.9-4h0c1-1,1.8-3.3,1.8-6.5C910.2,18.8,909.2,15.8,908,15.8z"/>
			<path fill="#A1A1A1" d="M908,2.3c-0.2,0-0.3,0.1-0.5,0.2l-6.9,4.1c0,0-0.4,0.1-0.4,0.1l-0.3,0v0c-1,0.7-1.4,3.3-1.4,6.4
				c0,3.6,1.1,6.6,2.3,6.6c0.2,0,0.5-0.3,0.6-0.4l6.9-4.2h0c1,0,1.8-3.1,1.8-6.3C910.2,5.1,909.2,2.3,908,2.3z"/>
			<path fill="#A1A1A1" d="M908,29.3c-0.2,0-0.3,0.1-0.5,0.2l-6.9,4.1c0,0-0.4,0.1-0.4,0.1l-0.3,0v0c-1,0.7-1.4,3.3-1.4,6.4
				c0,3.6,1.1,6.6,2.3,6.6c0.2,0,0.5-0.3,0.6-0.4l6.9-4.2h0c1,0,1.8-3.1,1.8-6.3C910.2,32.1,909.2,29.3,908,29.3z"/>
			<path fill="#A1A1A1" d="M908,42.8c-0.2,0-0.3,0.1-0.5,0.2l-6.9,4.1c0,0-0.4,0.1-0.4,0.1l-0.3,0v0c-1,0.7-1.4,3.3-1.4,6.4
				c0,3.6,1.1,6.6,2.3,6.6c0.2,0,0.5,0,0.6-0.2l6.9-4h0c1-1,1.8-3.3,1.8-6.5C910.2,45.8,909.2,42.8,908,42.8z"/>
			<path fill="#A1A1A1" d="M908,56.3c-0.2,0-0.3,0.1-0.5,0.2l-6.9,4.1c0,0-0.4,0.1-0.4,0.1l-0.3,0v0c-1,0.7-1.4,3.3-1.4,6.4
				c0,3.6,1.1,6.6,2.3,6.6c0.2,0,0.5-0.3,0.6-0.4l6.9-4.3h0c1,0,1.8-3.1,1.8-6.3C910.2,59.1,909.2,56.3,908,56.3z"/>
		</g>
		<g id="right_rope">
			<path fill="#A1A1A1" d="M1339.3,77.4c-0.2,0-0.3,0.1-0.5,0.2l-6.9,4.1c0,0-0.5,0.1-0.5,0.1l-0.4,0v0c0,0.7-1.3,3.3-1.3,6.4
				c0,3.6,1.2,6.6,2.4,6.6c0.2,0,0.5-0.3,0.7-0.4l6.9-4.3h0c1,0,1.8-3,1.8-6.3C1341.5,80.1,1340.5,77.4,1339.3,77.4z"/>
			<path fill="#A1A1A1" d="M1339.3,63.9c-0.2,0-0.3,0.1-0.5,0.2l-6.9,4.1c0,0-0.5,0.1-0.5,0.1l-0.4,0v0c0,0.7-1.3,3.3-1.3,6.4
				c0,3.6,1.2,6.6,2.4,6.6c0.2,0,0.5,0,0.7-0.2l6.9-4h0c1-1,1.8-3.3,1.8-6.5C1341.5,66.8,1340.5,63.9,1339.3,63.9z"/>
			<path fill="#A1A1A1" d="M1339.3,90.9c-0.2,0-0.3,0.1-0.5,0.2l-6.9,4.1c0,0-0.5,0.1-0.5,0.1l-0.4,0v0c0,0.7-1.3,3.3-1.3,6.4
				c0,3.6,1.2,6.6,2.4,6.6c0.2,0,0.5-0.1,0.7-0.2l6.9-4h0c1-1,1.8-3.3,1.8-6.5C1341.5,93.9,1340.5,90.9,1339.3,90.9z"/>
			<path fill="#A1A1A1" d="M1339.3,104.4c-0.2,0-0.3,0.1-0.5,0.2l-6.9,4.1c0,0-0.5,0.1-0.5,0.1l-0.4,0v0c0,0.7-1.3,3.3-1.3,6.4
				c0,3.6,1.2,6.6,2.4,6.6c0.2,0,0.5-0.3,0.7-0.5l6.9-4.3h0c1,0,1.8-3,1.8-6.2C1341.5,107.1,1340.5,104.4,1339.3,104.4z"/>
			<path fill="#A1A1A1" d="M1339.3,117.9c-0.2,0-0.3,0.1-0.5,0.2l-6.9,4.1c0,0-0.5,0.1-0.5,0.1l-0.4,0v0c0,0.7-1.3,3.3-1.3,6.4
				c0,3.6,1.2,6.6,2.4,6.6c0.2,0,0.5-0.1,0.7-0.2l6.9-4h0c1-1,1.8-3.3,1.8-6.5C1341.5,120.9,1340.5,117.9,1339.3,117.9z"/>
			<path fill="#A1A1A1" d="M1339.3,9.8c-0.2,0-0.3,0.1-0.5,0.2L1332,14c0,0-0.5,0.1-0.5,0.1l-0.4,0v0c0,0.7-1.3,3.3-1.3,6.4
				c0,3.6,1.2,6.6,2.4,6.6c0.2,0,0.5,0,0.7-0.2l6.9-4h0c1-1,1.8-3.3,1.8-6.5C1341.5,12.8,1340.5,9.8,1339.3,9.8z"/>
			<path fill="#A1A1A1" d="M1339.3,23.3c-0.2,0-0.3,0.1-0.5,0.2l-6.9,4.1c0,0-0.5,0.1-0.5,0.1l-0.4,0v0c0,0.7-1.3,3.3-1.3,6.4
				c0,3.6,1.2,6.6,2.4,6.6c0.2,0,0.5-0.3,0.7-0.4l6.9-4.2h0c1,0,1.8-3.1,1.8-6.3C1341.5,26.1,1340.5,23.3,1339.3,23.3z"/>
			<path fill="#A1A1A1" d="M1339.3,36.8c-0.2,0-0.3,0.1-0.5,0.2l-6.9,4.1c0,0-0.5,0.1-0.5,0.1l-0.4,0v0c0,0.7-1.3,3.3-1.3,6.4
				c0,3.6,1.2,6.6,2.4,6.6c0.2,0,0.5,0,0.7-0.2l6.9-4h0c1-1,1.8-3.3,1.8-6.5C1341.5,39.8,1340.5,36.8,1339.3,36.8z"/>
			<path fill="#A1A1A1" d="M1339.3,50.3c-0.2,0-0.3,0.1-0.5,0.2l-6.9,4.1c0,0-0.5,0.1-0.5,0.1l-0.4,0v0c0,0.7-1.3,3.3-1.3,6.4
				c0,3.6,1.2,6.6,2.4,6.6c0.2,0,0.5-0.3,0.7-0.4l6.9-4.3h0c1,0,1.8-3.1,1.8-6.3C1341.5,53.1,1340.5,50.3,1339.3,50.3z"/>
			<path fill="#A1A1A1" d="M1332.1,136l8.5-5.4c3.1,6.1,3.1,11.8-2.2,12.2S1332.1,136,1332.1,136z"/>
		</g>
	</g>
	<text transform="matrix(1 0 0 1 885.3 212.1779)" display="inline"><tspan x="0" y="0" fill="#FFFFFF" font-family="'Roboto-Light'" font-size="36">1745 Eastlake Pkwy St. 101</tspan><tspan x="0" y="43.2" fill="#FFFFFF" font-family="'Roboto-Light'" font-size="36">Chula Vista, CA 91915</tspan></text>
	
		<text transform="matrix(1 0 0 1 890.3579 325.6027)" display="inline" fill="#FFFFFF" font-family="'Roboto-Light'" font-size="36">(619) 555-1234</text>
	<path display="inline" fill="#A1A1A1" d="M899-1C899-1,899-1,899-1c0,3.7,0.9,6.6,2.1,6.6c0.2,0,0.3-0.3,0.5-0.4l6.8-4.2h0
		c0.5,0,1-0.8,1.3-2H899z"/>
	<path display="inline" fill="#A1A1A1" d="M1334.6-1l-2.6,1.5c0,0-0.5,0.1-0.5,0.1l-0.4,0v0c0,0.7-1.3,3.3-1.3,6.4
		c0,3.6,1.2,6.6,2.4,6.6c0.2,0,0.5-0.3,0.7-0.4l6.9-4.2h0c1,0,1.8-3.1,1.8-6.3c0-1.4-0.1-2.7-0.4-3.7H1334.6z"/>
</g>
</svg>
