<?xml version="1.0" encoding="utf-8"?>
<!-- Generator: Adobe Illustrator 18.1.1, SVG Export Plug-In . SVG Version: 6.00 Build 0)  -->
<!DOCTYPE svg PUBLIC "-//W3C//DTD SVG 1.1//EN" "http://www.w3.org/Graphics/SVG/1.1/DTD/svg11.dtd">
<svg version="1.1" xmlns="http://www.w3.org/2000/svg" xmlns:xlink="http://www.w3.org/1999/xlink" x="0px" y="0px"
	 viewBox="0 0 1440 780.1" enable-background="new 0 0 1440 780.1" xml:space="preserve">
<g id="eastlake" display="none">
	<g id="barber_pat_1_" display="inline">
		<g id="barber_pat">
			<polygon fill="#B0102D" points="376.3,444.5 366.2,444.5 366.2,451.7 			"/>
			<polygon fill="#307B8C" points="383.2,455.1 383.2,448.2 366.2,459.9 366.2,466.8 			"/>
			<g>
				<polygon fill="#B0102D" points="383.2,470.3 383.2,463.4 366.2,475.1 366.2,482 				"/>
				<polygon fill="#307B8C" points="372.5,485.5 383.2,485.5 383.2,478.5 				"/>
			</g>
		</g>
		<path fill="#E8E8E8" d="M366.5,443h16.1c0-2-3.7-2.9-8-2.9C370.3,440.1,366.5,441,366.5,443z"/>
		<path fill="#E8E8E8" d="M366.5,487h16.1c0,0-3.7,2.9-8,2.9C370.3,489.9,366.5,487,366.5,487z"/>
		<circle fill="#E8E8E8" cx="374.6" cy="430" r="8.1"/>
	</g>
	<g id="sw" display="inline">
		<g id="side_walk">
			<polygon fill="#333335" points="217.7,616 151.8,647 275.5,647 315.7,616 			"/>
			<polygon fill="#333335" points="295.4,579 227.6,611 321.7,611 363,579 			"/>
			<polygon fill="#333335" points="402.6,548 428.5,529 402.8,529 360.4,548 			"/>
			<polygon fill="#333335" points="354.7,551 302.4,576 367.3,576 399.2,551 			"/>
		</g>
		<g>
			<polygon fill="#333335" points="290.4,677.3 318.4,652 199.2,652 152.3,652 146.7,652 64.7,687 64.8,687 60.2,689 83.8,689 
				119.5,689 277.4,689 288.6,678.9 			"/>
			<polygon fill="#333335" points="324.3,652 294.8,678.7 292.9,680.3 283.3,689 478.9,689 482.4,679.3 483,677.7 492.5,652 			"/>
			<polygon fill="#333335" points="675.6,678.2 666,652 497.1,652 487.4,678.2 486.8,679.8 483.4,689 679.6,689 676.3,679.8 			"/>
			<polygon fill="#333335" points="853.6,678.7 824,652 670.5,652 680,677.7 680.6,679.4 684.2,689 865.1,689 855.4,680.3 			"/>
			<polygon fill="#333335" points="1024.1,679.2 974.1,652 830,652 857.9,677.2 859.8,678.9 871,689 1042.4,689 			"/>
			<polygon fill="#333335" points="982.7,652 1171.5,652 1260,689 1051.6,689 			"/>
		</g>
		<g>
			<polygon fill="#333335" points="1098.4,616 1164.3,647 1023.2,647 975.1,616 			"/>
			<polygon fill="#333335" points="1020.7,579 1088.5,611 967.7,611 917.7,579 			"/>
			<g>
				<polygon fill="#333335" points="901,548 955.7,548 913.3,529 901,529 				"/>
			</g>
			<g>
				<polygon fill="#333335" points="961.4,551 901,551 901,568.3 912.7,576 1013.7,576 				"/>
			</g>
		</g>
	</g>
	<g id="side_building" display="inline">
		<g id="barba">
			<path id="barber" fill="#202021" d="M656.5,557.7c-0.5,0.4-0.5,0.9-0.4,1.1s0,0.7,0.1,1c0.2,0.2,0.3,0.6,0.5,0.6
				c0,0-0.2,1.6-0.2,1.6l1,0.7c0,0,0.5-2.2,0.4-2.5c-0.1-0.3,0.7-0.7,1.9-0.2c1.3,0.5,1.8-1.1,3.1-1.1c1.3,0,2.3,0.1,2.3,0.1
				s0,0.3,0,0.4c0,0.1,0.5,0.2,0.5,0.2l2.9,1.2c0,0,0.4,0.6,0.9,0.6c0,0.2,0.3,0.8,1.1,0.9c0,0,0.4,2,1.7,2.3c0,0-1.7-0.2-2.2,1.2
				c0,0-1.3-0.2-1.9,1.2c-0.6,1.4-3,3.8-3,3.8s-4.3-1.1-4.7-1s0.2-1.7,0.3-2.2c0,0,0-0.8-0.3-1.1c-0.3-0.2-2.7-2.7-4.3-2
				c-1-0.7-1.8-0.7-3.4-0.6c0,0-1.1-1.1-2.9,0c-1.9,1-5.1,6-2.4,10.9c0,0,0.5,0.4,0.4,0.4c-0.1,0-0.4,0.2-0.7,0.6
				c-0.3,0.5-0.5,3.6-0.3,4.1s0.7,1.3,0.9,1.4c0.2,0.1,3.9,0.7,3.9,0.7s1.6-0.4,1.5-0.7c-0.1-0.4,1.1,0.8,1.8-0.2l10.3,7.8
				c0,0,1.2,2.6,2.2,4c0.3,0.3,1.1,14.8,4.4,13.7c0,0,11.4,0.5,12.3-0.2c0,0-1.1-2.2-0.8-3.4c0.3-1.2-0.1-2.2,0.6-0.8
				c0.7,1.5,1.9,3.1,3.1,2.6c1.2-0.6,5.4-3.8,7.4-3.2s2.8,0.1,2.8-0.1s1.9-2.8,4.2-2.8c2.3,0,4.1-1.7,4.4-2.8
				c0.3-1.1,1.1-5.7,1.1-6.5s8.5,11.1,8.5,11.1l0.8-0.2l1-1l-0.8-1.8c0,0,2.6-6,2.6-6.3c0.1-0.3-2-1.5-2-1.5s0.5-1.7,0.2-2.9
				c-0.6-1.9-3.5,0.6-3.5,0.6s-3.4-6.9-3.9-8c-0.5-1.1-1-4.5-8-3.6c0,0,0-2.1-3.1-1.9c-1.3-1.9-2.2-1.5-2.2-1.5l-6.4,1
				c0,0-4.1,1.7-4.5,1.6s0.1-4.5,0.1-4.5s0.3-5.8-4.1-9.9c0,0-1.3-0.4-1.4-0.7c-0.1-0.2,0-0.4-0.5-0.4c0,0-0.5-1.7-0.2-2.3
				c0.4-0.6,0.8-5.9-1.4-7s-1.3-1.4-3.8-1.4c-2.6,0-5,2.8-5,2.8s-0.6,0-0.8,0.4c-0.2,0.4-1.3,2-1,2.8c0.3,0.8,0.6,0.7,0.6,0.7
				s-0.3,0.6-0.1,0.7c0.1,0.1-1.6,0-1.8-0.3s-0.5,0.6-0.5,0.6s-2-0.5-2.5-0.5c-0.5,0.1-2.1,0.2-2.8,0.1c-0.7-0.1-1.3,0.4-1.9,0.3
				c-0.6-0.1-0.8,0.5-1.9,0.7c0,0-2-3.6-1.9-4c0,0-0.4,0.1-0.7,0.1C654.3,553.6,655.7,556.8,656.5,557.7z"/>
			<g id="acent">
				<path fill="#FFFFFF" d="M667,568.5c1,1.2,2.4,3.5,3,3.9c1,0.7-0.7,0.8-0.7,0.8s-3.9-2.5-3.7-3.1
					C665.9,569.5,667,568.5,667,568.5z"/>
				<path fill="#FFFFFF" d="M680,559.4c0,0-2.7,4.3-7.2,5c0,0-0.6,0.1-0.6,0.1s7-4.7,7.4-5.7C680,557.7,680,559.4,680,559.4z"/>
			</g>
		</g>
		<path id="side" fill="#333335" d="M889.2,649l11.8-14.2V515H582v127h1v7H889.2z M754,531h127v66H754V531z M603,531h127v66H603V531
			z"/>
		<g id="reflection">
			<linearGradient id="SVGID_1_" gradientUnits="userSpaceOnUse" x1="818.0372" y1="536" x2="818.0372" y2="587.2078">
				<stop  offset="0" style="stop-color:#E8E8E8"/>
				<stop  offset="0.4279" style="stop-color:#979999"/>
				<stop  offset="0.6741" style="stop-color:#6E7171"/>
				<stop  offset="0.8801" style="stop-color:#525657"/>
				<stop  offset="1" style="stop-color:#484C4D"/>
			</linearGradient>
			<polygon opacity="0.35" fill="url(#SVGID_1_)" points="764.4,591 817.3,591 871.7,536 816.6,536 			"/>
			<linearGradient id="SVGID_2_" gradientUnits="userSpaceOnUse" x1="664.0372" y1="536" x2="664.0372" y2="587.2078">
				<stop  offset="0" style="stop-color:#E8E8E8"/>
				<stop  offset="0.4279" style="stop-color:#979999"/>
				<stop  offset="0.6741" style="stop-color:#6E7171"/>
				<stop  offset="0.8801" style="stop-color:#525657"/>
				<stop  offset="1" style="stop-color:#484C4D"/>
			</linearGradient>
			<polygon opacity="0.35" fill="url(#SVGID_2_)" points="610.4,591 663.3,591 717.7,536 662.6,536 			"/>
		</g>
		<polygon id="roofs" fill="#202021" points="876.3,482 727.4,482 721.8,476 568.6,476 574,508.2 574,516 751.2,516 901,516 
			901,508.2 		"/>
		<g id="lads">
			<g id="sign">
				<path fill="#E8E8E8" d="M851.9,557c2.7,0,3.8-1.8,3.8-3.2c0-1.5-1.2-3-3.5-3.1c-3.1-0.1-2.6,2.2-2.3,2.4c0.6,0.5,1-0.2,0.9-0.5
					c-0.1-0.3-0.1-1,0.4-1.3c1.3-0.9,4.2,0.3,4.2,2.6c0,1.8-1.8,2.4-3.3,2.5c0.5-0.3,0.7-0.9,0.7-1.1c0-0.3,0-1.1-1-1.5
					c-1.2-0.4-1.9,1-1.1,1.4c1.3,0.6,1.3-0.4,1.1-0.7c-0.2-0.2-0.6,0-0.6-0.3c0.1-0.2,1.4,0,1.2,0.9c-0.2,1-1.7,1.1-2.7,1
					c-2.7-0.6-5.3-2.1-10.4-1.8c2.2-2.1,0.4-3.3-0.8-3.6c-1.2-0.3-1.8,1-1,1.1c3.2,0.7,1.1,2.2,0.3,2.7c-3.5-3.9-8.7-6.3-14.7-6.3
					c-5.9,0-11.3,2.5-14.7,6.4c-0.8-0.4-3.1-2,0.2-2.8c0.8-0.2,0.3-1.5-1-1.1c-1.2,0.3-3,1.5-0.8,3.6c-5.1-0.3-7.7,1.2-10.4,1.8
					c-1,0.1-2.5,0-2.7-1c-0.2-0.9,1.1-1.2,1.2-0.9s-0.3,0-0.6,0.3c-0.2,0.2-0.2,1.3,1.1,0.7c0.8-0.4,0.1-1.8-1.1-1.4
					c-1,0.4-1,1.2-1,1.5c0,0.2,0.2,0.9,0.7,1.1c-1.5-0.1-3.3-0.8-3.3-2.5c0-2.3,2.9-3.5,4.2-2.6c0.5,0.3,0.5,1,0.4,1.3
					c-0.1,0.3,0.3,1.1,0.9,0.5c0.3-0.3,0.8-2.5-2.3-2.4c-2.3,0.1-3.5,1.5-3.5,3c0,1.4,1.1,3.2,3.8,3.2H778v17h28.5
					c3.2,5,9.4,8.9,16.6,8.9s13.4-3.9,16.6-8.9H868v-17H851.9z M851,557.1c0.1,0,0.1-0.1,0.2-0.1h-10.3c0.9,0,2.1-0.8,3.2-0.5
					c-3.4-2-5-0.6-4.3,0.4c0.1,0.1,0.1,0.1,0.2,0.1h-0.4c-0.4,0-0.8-1.2-1.3-1.8C843.5,554.6,845.8,556.7,851,557.1z M795,557.1
					c5.2-0.4,7.5-2.4,12.8-1.8c0,0,0-0.1,0.1-0.1c-0.5,0.6-0.9,1.8-1.3,1.8H806c0.1,0,0.2,0,0.2-0.1c0.7-0.9-0.9-2.4-4.3-0.4
					c1.1-0.3,2.3,0.5,3.2,0.5h-10.3C794.9,557,794.9,557.1,795,557.1z M779,573v-15h27.1c-0.1,0-0.2,0-0.4,1H780v12.6
					c0,0,21.6,0.3,25.6,0.2c0.1,0.3,0.3,0.1,0.5,1.1H779z M823,581.5c-10,0-18.1-7.3-18.1-16.2c0-8.9,8.1-16.1,18.1-16.1
					c7.4,0,13.7,3.8,16.6,9.8h0c0,0,0-0.1,0-0.1c1,2,1.5,4.2,1.5,6.5C841.2,574.3,833,581.5,823,581.5z M867,573h-27
					c0.1-1,0.3-0.7,0.4-1c4.1,0.1,25.6-0.2,25.6-0.2V559h-25.6c-0.1-1-0.3-1-0.4-1h27V573z"/>
				<ellipse fill="#E8E8E8" cx="823" cy="565.3" rx="16.7" ry="14.8"/>
			</g>
			<g id="content">
				<g id="est">
					<text transform="matrix(1 0 0 1 782.9639 569.584)" fill="#484C4D" font-family="'Mohave-Bold'" font-size="10.2105">EST</text>
					<g id="colon">
						<circle fill="#484C4D" cx="799" cy="562.9" r="0.9"/>
						<circle fill="#484C4D" cx="799" cy="567.5" r="0.9"/>
					</g>
				</g>
				<text transform="matrix(1 0 0 1 844.1904 569.0332)" fill="#484C4D" font-family="'Mohave-Bold'" font-size="10.2105">2012</text>
				<path id="SVGID_x5F_3_x5F_" fill="none" d="M810.5,563.9c5.2-5.2,19.6-5.2,24.7,0"/>
				<text>				<textPath  xlink:href="#SVGID_x5F_3_x5F_" startOffset="25.244%">
<tspan  fill="#484C4D" font-family="'Mohave-Bold'" font-size="7.9415" letter-spacing="75">lads</tspan>				</textPath>
</text>
				<g>
					<path id="SVGID_x5F_4_x5F_" fill="none" d="M803,570.5c9.5,9.5,30.3,9.8,40.1,0"/>
					<text>					<textPath  xlink:href="#SVGID_x5F_4_x5F_" startOffset="25.537%">
<tspan  fill="#484C4D" font-family="'Mohave-Bold'" font-size="7.9415" letter-spacing="75">GENTS</tspan>					</textPath>
</text>
				</g>
				<g id="_x26_">
					<g>
						
							<text transform="matrix(1 0 0 1 821.0352 568.5079)" fill="#484C4D" font-family="'HelveticaNeue-CondensedBold'" font-size="7.9415">&amp;</text>
					</g>
					<rect x="828.4" y="565.2" fill="#484C4D" width="8.1" height="0.2"/>
					<rect x="810.1" y="565.2" fill="#484C4D" width="8.1" height="0.2"/>
				</g>
			</g>
		</g>
	</g>
	<path display="inline" fill="#202021" d="M439,517v131.9l14-5c0-8.1,0-74.3,0-83.7c0-14,12.4-26,33.7-26c21.3,0,33.8,11.6,33.8,26
		c0,9.4,0,75.5,0,83.7l13.5,5V517H439z"/>
	<g id="main_tower_1_" display="inline">
		<polygon fill="#202021" points="583.2,325 583.2,337.7 616.7,325.3 		"/>
		<polygon fill="#202021" points="390.4,325 390.4,337.7 355.8,325.3 		"/>
		<path id="main_tower" fill="#333335" d="M486.3,274.9c0.3-0.8,0.3-1.8-0.7-2.9c0,0,0,0,0,0c-2-1.3-4.1,0.1-4.1,2l0,0.9
			c0,0.1,0,0.1-0.1,0.1l-125.5,50.3h33.9v323.4l49.4,0.1v-93.5c0-23.8,22.7-37.3,47.4-37.3c24.7,0,47.4,12.6,47.4,37.3v93.5h49.4
			V325.3h33.5L486.3,274.9L486.3,274.9z"/>
	</g>
	<g id="balcony" display="inline">
		<rect x="449.8" y="415.2" fill="#202021" width="73.3" height="27.5"/>
		<polygon fill="#202021" points="503.1,453.3 469.9,453.3 449.8,444.6 523.1,444.6 		"/>
		<polygon fill="#202021" points="503.1,356.7 469.9,356.7 449.8,365.5 523.1,365.5 		"/>
		<path fill="#202021" d="M449,391v15.7v5v2.2h9v-3h56v3h8v-2.4V391H449z M463,408.1c0,1.1-0.9,1.9-1.9,1.9h-2.1
			c-1.1,0-1.9-0.9-1.9-1.9v-13.1c0-1.1,0.9-1.9,1.9-1.9h2.1c1.1,0,1.9,0.9,1.9,1.9V408.1z M476,408.1c0,1.1-0.9,1.9-1.9,1.9h-2.1
			c-1.1,0-1.9-0.9-1.9-1.9v-13.1c0-1.1,0.9-1.9,1.9-1.9h2.1c1.1,0,1.9,0.9,1.9,1.9V408.1z M489,408.1c0,1.1-0.9,1.9-1.9,1.9h-2.1
			c-1.1,0-1.9-0.9-1.9-1.9v-13.1c0-1.1,0.9-1.9,1.9-1.9h2.1c1.1,0,1.9,0.9,1.9,1.9V408.1z M502,408.1c0,1.1-0.9,1.9-1.9,1.9h-2.1
			c-1.1,0-1.9-0.9-1.9-1.9v-13.1c0-1.1,0.9-1.9,1.9-1.9h2.1c1.1,0,1.9,0.9,1.9,1.9V408.1z M514,408.1c0,1.1-0.9,1.9-1.9,1.9h-2.1
			c-1.1,0-1.9-0.9-1.9-1.9v-13.1c0-1.1,0.9-1.9,1.9-1.9h2.1c1.1,0,1.9,0.9,1.9,1.9V408.1z"/>
	</g>
	<g id="Moose_1_" display="inline">
		<g>
			<path fill="#FFFFFF" d="M445.4,495.4c-0.5,0-1.1-0.2-1.5-0.7c0.4-1.3,0.6-2.4,0.6-3.4c0-1.2-0.5-2.5-1.5-4.1
				c0.2-0.6,0.4-1.1,0.4-1.6c0-0.6-0.2-1.4-0.6-2.2c-0.2-0.4-0.8-1.4-1.7-3v8.6c0.1,2.6,0.5,4.5,1.3,5.6c-0.5,0.5-1.1,0.7-1.8,0.7
				c-0.6,0-1.1-0.2-1.6-0.7c-0.4,0.5-0.9,0.7-1.4,0.7c-0.6,0-1.1-0.2-1.6-0.7c0.7-1.6,1.1-3.4,1.1-5.5c0-2.1-0.4-3.7-1.1-4.7
				c0.8-1.1,1.2-2.7,1.2-4.8c0-1.5-0.2-3-0.7-4.3l-0.4-1.1c0.9-0.4,1.7-0.7,2.4-0.7c0.7,0,1.4,0.2,2.3,0.6c0.7-0.4,1.5-0.6,2.4-0.6
				c0.6,0,1.2,0.1,1.7,0.2c0.5,0.1,0.8,0.3,0.9,0.4c-0.5,0.7-0.7,1.7-0.7,3c0,1.5,0.2,2.7,0.6,3.5l1.3,3.8l1.3-3.8
				c0.4-0.8,0.5-2,0.5-3.5c0-1.2-0.2-2.2-0.7-3c0.1-0.1,0.4-0.3,0.9-0.4c0.6-0.2,1.1-0.2,1.7-0.2c0.9,0,1.7,0.2,2.4,0.6
				c0.8-0.4,1.6-0.6,2.3-0.6c0.8,0,1.6,0.2,2.4,0.7l-0.4,1.1c-0.5,1.3-0.7,2.7-0.7,4.3c0,2.2,0.4,3.8,1.2,4.8
				c-0.7,1-1.1,2.6-1.1,4.7c0,2.1,0.4,3.9,1.1,5.5c-0.5,0.5-1,0.7-1.6,0.7c-0.5,0-1-0.2-1.4-0.7c-0.5,0.5-1.1,0.7-1.7,0.7
				c-0.6,0-1.2-0.2-1.8-0.7c0.5-0.7,0.9-1.9,1.1-3.5c0.1-0.7,0.1-1.4,0.2-2.1v-8.6c-0.9,1.5-1.4,2.5-1.7,3c-0.4,0.8-0.6,1.6-0.6,2.2
				c0,0.5,0.1,1.1,0.4,1.6c-1,1.5-1.5,2.9-1.5,4.1c0,0.9,0.2,2.1,0.7,3.4c-0.5,0.5-1,0.7-1.5,0.7c-0.5,0-1-0.2-1.4-0.7
				C446.4,495.2,445.9,495.4,445.4,495.4z"/>
			<path fill="#FFFFFF" d="M470.6,494.6c-0.9,0.4-2,0.7-3.3,0.8c-1.3-0.1-2.4-0.3-3.3-0.7c-2.2-1-3.3-2.9-3.3-5.5v-2.5
				c-0.1-1.1-0.4-1.9-1.1-2.2c0.5-0.2,0.8-0.7,1-1.3c0.1-0.3,0.1-0.6,0.1-0.9V480c0-2.6,1.1-4.4,3.3-5.4c0.9-0.4,2-0.7,3.3-0.8
				c1.3,0.1,2.4,0.4,3.3,0.8c2.2,1.1,3.3,2.9,3.3,5.4v2.4c0.1,1.1,0.4,1.9,1.1,2.2c-0.5,0.2-0.8,0.7-1,1.3c-0.1,0.3-0.1,0.6-0.1,0.9
				v2.5C473.9,491.8,472.8,493.6,470.6,494.6z M469.6,486.7c-0.1-1.1-0.4-1.9-1.1-2.2c0.5-0.2,0.8-0.7,1-1.3
				c0.1-0.3,0.1-0.6,0.1-0.9v-2.2c0-0.8-0.2-1.4-0.7-1.9c-0.4-0.5-1-0.7-1.5-0.7c-0.6,0-1.1,0.2-1.5,0.7c-0.4,0.5-0.7,1.1-0.7,1.9
				v2.2c0.1,1.1,0.4,1.9,1.1,2.2c-0.5,0.2-0.8,0.7-1,1.3c-0.1,0.3-0.1,0.6-0.1,0.9v2.2c0,0.8,0.2,1.4,0.7,1.9
				c0.4,0.4,0.9,0.7,1.5,0.7c0.6,0,1.1-0.2,1.5-0.7c0.4-0.4,0.7-1.1,0.7-1.9V486.7z"/>
			<path fill="#FFFFFF" d="M487.8,494.6c-0.9,0.4-2,0.7-3.3,0.8c-1.3-0.1-2.4-0.3-3.3-0.7c-2.2-1-3.3-2.9-3.3-5.5v-2.5
				c-0.1-1.1-0.4-1.9-1.1-2.2c0.5-0.2,0.8-0.7,1-1.3c0.1-0.3,0.1-0.6,0.1-0.9V480c0-2.6,1.1-4.4,3.3-5.4c0.9-0.4,2-0.7,3.3-0.8
				c1.3,0.1,2.4,0.4,3.3,0.8c2.2,1.1,3.3,2.9,3.3,5.4v2.4c0.1,1.1,0.4,1.9,1.1,2.2c-0.5,0.2-0.8,0.7-1,1.3c-0.1,0.3-0.1,0.6-0.1,0.9
				v2.5C491.1,491.8,490,493.6,487.8,494.6z M486.8,486.7c-0.1-1.1-0.4-1.9-1.1-2.2c0.5-0.2,0.8-0.7,1-1.3c0.1-0.3,0.1-0.6,0.1-0.9
				v-2.2c0-0.8-0.2-1.4-0.7-1.9c-0.4-0.5-1-0.7-1.5-0.7c-0.6,0-1.1,0.2-1.5,0.7c-0.4,0.5-0.7,1.1-0.7,1.9v2.2
				c0.1,1.1,0.4,1.9,1.1,2.2c-0.5,0.2-0.8,0.7-1,1.3c-0.1,0.3-0.1,0.6-0.1,0.9v2.2c0,0.8,0.2,1.4,0.7,1.9c0.4,0.4,0.9,0.7,1.5,0.7
				c0.6,0,1.1-0.2,1.5-0.7c0.4-0.4,0.7-1.1,0.7-1.9V486.7z"/>
			<path fill="#FFFFFF" d="M504.1,479.9c-1-1.9-2.2-2.9-3.7-2.9c-0.7,0-1.3,0.2-1.7,0.7c-0.5,0.5-0.7,1-0.7,1.6
				c0,0.6,0.2,1.2,0.7,1.7c0.6,0.5,1.3,0.8,2,0.8c0.4,0,0.8-0.1,1.1-0.2c0.1,0.6,0.6,1.2,1.4,1.8c0.3,0.3,0.7,0.5,1.1,0.8
				c2.1,1.1,3.1,2.8,3.1,5.1c0,1.7-0.6,3.1-1.8,4.3c-1.4,1.3-3.2,2-5.4,2c-1.1,0-2.3-0.2-3.6-0.5c-0.3-0.1-0.7-0.3-1.2-0.5
				c-0.4-0.2-0.8-0.3-1.1-0.3c-0.5,0-1,0.2-1.7,0.7c0-0.2-0.1-0.4-0.1-0.6c0-1.1,0.4-1.8,1.1-2.3c-0.2-0.3-0.4-0.7-0.4-1.2
				c0-0.7,0.2-1.4,0.5-2.1c0.7,1.2,1.6,2.1,2.7,2.7c1,0.6,2,0.8,3.1,0.8c0.9,0,1.6-0.2,2.2-0.6c0.6-0.4,0.9-0.9,0.9-1.5
				c0-0.7-0.3-1.3-1-2.1c-0.6-0.5-1.4-0.8-2.3-0.8c-0.5,0-0.9,0.1-1.3,0.2c-0.1-1.3-0.6-2.1-1.6-2.4c-2-1.1-2.9-2.7-2.9-4.8
				c0-1.6,0.6-3.1,1.8-4.3c1.2-1.3,2.8-2,4.5-2c1,0,2.1,0.3,3.1,0.8c0.2,0.1,0.5,0.3,0.7,0.4c0.2,0.1,0.5,0.2,0.8,0.2
				c0.3,0,0.7,0,1.3-0.1c0,0.2,0.1,0.3,0.1,0.5c0,0.7-0.3,1.3-0.8,1.9C505,478.3,504.7,479.1,504.1,479.9z"/>
			<path fill="#FFFFFF" d="M517,485.7c-0.7,0-1.2,0.2-1.7,0.6c-0.5,0.4-0.7,1-0.7,1.8v1.5c0,1.4,0.7,2.1,2.2,2.1
				c0.7,0,1.5-0.2,2.2-0.6c0.7-0.4,1.2-0.8,1.3-1.4c0.8,0.6,1.1,1.3,1.1,2.3c0,0.5-0.1,1-0.3,1.4c0.4,0.2,0.5,0.7,0.4,1.7
				c-0.5-0.3-1.1-0.4-1.8-0.4c-0.5,0-1,0.1-1.4,0.2c-0.5,0.1-0.9,0.2-1.4,0.4c-0.6,0.1-1.1,0.2-1.6,0.2c-0.9,0-1.9-0.3-2.9-0.9
				c-0.6,0.5-1.3,0.8-2,0.8c-0.7,0-1.2-0.2-1.8-0.7c0.7-1.6,1.1-3.4,1.1-5.4c0-2.1-0.4-3.7-1.1-4.7c0.7-1,1.1-2.6,1.1-4.7
				c0-2-0.4-3.8-1.1-5.4c0.5-0.5,1.1-0.7,1.8-0.7c0.7,0,1.3,0.3,2,0.8c1-0.6,2-0.9,2.9-0.9c0.5,0,1,0.1,1.6,0.2
				c0.5,0.1,0.9,0.3,1.4,0.4c0.5,0.1,1,0.2,1.4,0.2c0.7,0,1.4-0.1,1.8-0.4c0.1,1,0,1.5-0.4,1.7c0.2,0.4,0.3,0.9,0.3,1.4
				c0,1-0.4,1.7-1.1,2.3c-0.2-0.5-0.6-1-1.3-1.4c-0.7-0.4-1.4-0.6-2.2-0.6c-1.5,0-2.2,0.7-2.2,2.1v1.5c0,0.7,0.2,1.3,0.7,1.7
				c0.4,0.4,1,0.6,1.7,0.6c1.1,0,2.1-0.4,3-1.3c0.1,0.3,0.2,0.5,0.2,0.8c0,0.6-0.2,1.1-0.7,1.6c0.5,0.5,0.7,1,0.7,1.6
				c0,0.3-0.1,0.6-0.2,0.8C519.1,486.1,518.1,485.7,517,485.7z"/>
			<path fill="#FFFFFF" d="M541.5,479.9c-1-1.9-2.2-2.9-3.7-2.9c-0.7,0-1.3,0.2-1.7,0.7c-0.5,0.5-0.7,1-0.7,1.6
				c0,0.6,0.2,1.2,0.7,1.7c0.6,0.5,1.3,0.8,2,0.8c0.4,0,0.8-0.1,1.1-0.2c0.1,0.6,0.6,1.2,1.4,1.8c0.3,0.3,0.7,0.5,1.1,0.8
				c2.1,1.1,3.1,2.8,3.1,5.1c0,1.7-0.6,3.1-1.8,4.3c-1.4,1.3-3.2,2-5.4,2c-1.1,0-2.3-0.2-3.6-0.5c-0.3-0.1-0.7-0.3-1.2-0.5
				c-0.4-0.2-0.8-0.3-1.1-0.3c-0.5,0-1,0.2-1.7,0.7c0-0.2-0.1-0.4-0.1-0.6c0-1.1,0.4-1.8,1.1-2.3c-0.2-0.3-0.4-0.7-0.4-1.2
				c0-0.7,0.2-1.4,0.5-2.1c0.7,1.2,1.6,2.1,2.7,2.7c1,0.6,2,0.8,3.1,0.8c0.9,0,1.6-0.2,2.2-0.6c0.6-0.4,0.9-0.9,0.9-1.5
				c0-0.7-0.3-1.3-1-2.1c-0.6-0.5-1.4-0.8-2.3-0.8c-0.5,0-0.9,0.1-1.3,0.2c-0.1-1.3-0.6-2.1-1.6-2.4c-2-1.1-2.9-2.7-2.9-4.8
				c0-1.6,0.6-3.1,1.8-4.3c1.3-1.3,2.8-2,4.5-2c1,0,2.1,0.3,3.1,0.8c0.2,0.1,0.5,0.3,0.7,0.4c0.2,0.1,0.5,0.2,0.8,0.2
				c0.3,0,0.7,0,1.3-0.1c0,0.2,0.1,0.3,0.1,0.5c0,0.7-0.3,1.3-0.8,1.9C542.5,478.3,542.2,479.1,541.5,479.9z"/>
		</g>
		<g id="lmXyGe_2_">
			<g>
				<path fill="#FFFFFF" d="M528.2,462.6c-0.1,0.3,0,0.8-0.2,1.1c-0.6,0.3-0.7-0.1-1.2,0c-0.5,1.3-1.9,1.9-2.5,3.1
					c0.4-0.2-0.1,0.6-0.1,0.2c0.1,0,0.1-0.2,0-0.1c-0.4,0.4,0.1,0.7-0.5,0.4c0,0.4,0,0.8-0.2,0.3c-0.5,0.2,0.1,0.3-0.2,0.6
					c-0.9,0.6-1.6,1.9-2.4,2.2c0.7-0.7,2-1.8,2.2-2.4c-0.7,1-2.4,2.1-3,2.9c-0.3,0.3,0.2,0.5-0.3,0.5c0,0,0,0.1,0,0.1
					c0.3,0.3,0.4,1,1,1c1.7-1.6,3.3-3.2,4.7-4.9c0-0.4-0.3-0.3-0.3-0.7c0.6-0.3,0.8-0.9,1.6-1.1c1.2,3.7-0.7,6.9,0,10
					c0.1,0.4,0.1,1.1,0.6,1.4c0,0,0.1,0,0.1,0c2.3-2.1,1.4-8.8,0.5-12.7c0.5-0.3,0.7-0.9,0.9-1.4c-0.1-0.2-0.1-0.6-0.3-0.5
					C528.4,462.6,528.3,462.6,528.2,462.6z M520.7,470.7C520,471.5,520.2,470.6,520.7,470.7L520.7,470.7z M520.4,472.1
					c1.3-1.7,2.6-3.4,4.4-4.7C523.8,469.1,521.9,471,520.4,472.1z"/>
			</g>
		</g>
	</g>
	<g id="foreground_1_" display="inline">
		<g id="lamp_1_">
			<path fill="#202021" d="M132.3,490.1l-18.4,3c-0.9,0.1-1.4-1-0.7-1.5l8.6-6.8c0.1-0.1,0.2-0.1,0.3-0.2l10.1-2.5
				c0.1,0,0.3,0,0.4,0l9.2,2.5c0.1,0,0.2,0.1,0.3,0.1l9.1,6.8c0.7,0.5,0.2,1.7-0.7,1.5l-18-2.9C132.5,490.1,132.4,490.1,132.3,490.1
				z"/>
			<path fill="#202021" d="M141.7,525.5c0.8-0.2,1.4-0.8,1.7-1.5l9.7-26.3c0.5-1.5-0.4-3.1-1.9-3.3l-18.2-3c-0.3,0-0.5,0-0.8,0
				l-18.4,3c-1.6,0.3-2.5,1.9-1.9,3.3l9.9,26.2c0.3,0.7,0.9,1.3,1.7,1.5l4.2,1.2c0.4,15.3,1.8,120.5-2,140.5c-4.5,2-7.6,5.3-7.6,6.3
				c0,1.4,6.5,2.6,14.6,2.6s14.6-1.2,14.6-2.6c0-1-3.2-4.4-7.8-6.3c-4.1-20-2.4-125-1.9-140.3L141.7,525.5z M135,499.2
				c0-1.5,1.6-2.7,3.1-2.5l6.1,0.9c1.5,0.2,2.5,1.8,2.1,3.2l-6,18.8c-0.3,0.8-1.1,1.4-2,1.7c-1.6,0.4-3.4-0.8-3.4-2.4V499.2z
				 M126.4,521.4l0.2,0c-0.8-0.2-1.4-0.8-1.6-1.6l-6-18.8c-0.5-1.5,0.5-3,2-3.2l5.6-0.9c1.5-0.2,2.4,0.9,2.4,2.5v19.8
				C129,520.6,127.9,521.8,126.4,521.4z"/>
		</g>
		<g id="cicyle_1_">
			<g>
				<g>
					<g>
						<path fill="#202021" d="M878,622h-2v-20h2V622z M877,622h1v-20h-1V622z"/>
					</g>
					<g>
						<path fill="#202021" d="M880.1,623.4l-2.7-0.8l6.3-20l2.7,0.8L880.1,623.4z M878.1,622.1l1.6,0.5l6-18.9l-1.6-0.5L878.1,622.1
							z"/>
					</g>
					<g>
						<path fill="#202021" d="M880.8,624.2l-2.3-1.6l11.9-17.3l2.3,1.6L880.8,624.2z M879.3,622.4l1.4,0.9l11.2-16.3l-1.4-0.9
							L879.3,622.4z"/>
					</g>
					<g>
						<path fill="#202021" d="M881.3,625.2l-1.8-2.2l16.3-13.1l1.8,2.2L881.3,625.2z M880.3,623.1l1,1.3l15.4-12.4l-1-1.3
							L880.3,623.1z"/>
					</g>
					<g>
						<path fill="#202021" d="M881.4,626.3l-1-2.6l19.5-7.8l1,2.6L881.4,626.3z M881.1,624l0.6,1.5l18.4-7.4l-0.6-1.5L881.1,624z"/>
					</g>
					<g>
						<path fill="#202021" d="M881.2,627.4l-0.2-2.8l20.9-1.6l0.2,2.8L881.2,627.4z M881.6,625.1l0.1,1.7l19.7-1.5l-0.1-1.7
							L881.6,625.1z"/>
					</g>
					<g>
						<path fill="#202021" d="M901.1,633.2l-20.4-4.8l0.6-2.7l20.4,4.8L901.1,633.2z M881.4,628l19.3,4.5l0.4-1.6l-19.3-4.5
							L881.4,628z"/>
					</g>
					<g>
						<path fill="#202021" d="M898,639.8L880,629.2l1.4-2.4l18.1,10.6L898,639.8z M880.8,629l17.1,10l0.8-1.4l-17.1-10L880.8,629z"
							/>
					</g>
					<g>
						<path fill="#202021" d="M893.3,645.1L879,629.8l2.1-1.9l14.3,15.3L893.3,645.1z M879.8,629.8l13.5,14.5l1.2-1.1L881,628.7
							L879.8,629.8z"/>
					</g>
					<g>
						<path fill="#202021" d="M887.2,648.8l-9.2-18.8l2.5-1.2l9.2,18.8L887.2,648.8z M878.7,630.3l8.7,17.8l1.5-0.7l-8.7-17.8
							L878.7,630.3z"/>
					</g>
					<g>
						<path fill="#202021" d="M880,650.6l-3.2-20.7l2.8-0.4l3.2,20.7L880,650.6z M877.5,630.4l3,19.6l1.6-0.3l-3-19.6L877.5,630.4z"
							/>
					</g>
					<g>
						<path fill="#202021" d="M875.3,650.6l-2.8-0.4l3.2-20.7l2.8,0.4L875.3,650.6z M873.2,649.7l1.6,0.3l3-19.6l-1.6-0.3
							L873.2,649.7z"/>
					</g>
					<g>
						<path fill="#202021" d="M868.2,648.8l-2.5-1.2l9.2-18.8l2.5,1.2L868.2,648.8z M866.4,647.3l1.5,0.7l8.7-17.8l-1.5-0.7
							L866.4,647.3z"/>
					</g>
					<g>
						<path fill="#202021" d="M862.1,645.1l-2.1-1.9l14.3-15.3l2.1,1.9L862.1,645.1z M860.8,643.2l1.2,1.1l13.5-14.5l-1.2-1.1
							L860.8,643.2z"/>
					</g>
					<g>
						<path fill="#202021" d="M857.3,639.8l-1.4-2.4l18.1-10.6l1.4,2.4L857.3,639.8z M856.7,637.6l0.8,1.4l17.1-10l-0.8-1.4
							L856.7,637.6z"/>
					</g>
					<g>
						<path fill="#202021" d="M854.2,633.2l-0.6-2.7l20.4-4.8l0.6,2.7L854.2,633.2z M854.3,630.9l0.4,1.6l19.3-4.5l-0.4-1.6
							L854.3,630.9z"/>
					</g>
					<g>
						<path fill="#202021" d="M874.1,627.4l-20.9-1.6l0.2-2.8l20.9,1.6L874.1,627.4z M853.8,625.2l19.7,1.5l0.1-1.7l-19.7-1.5
							L853.8,625.2z"/>
					</g>
					<g>
						<path fill="#202021" d="M873.9,626.3l-19.5-7.8l1-2.6l19.5,7.8L873.9,626.3z M855.2,618.1l18.4,7.4l0.6-1.5l-18.4-7.4
							L855.2,618.1z"/>
					</g>
					<g>
						<path fill="#202021" d="M874.1,625.2l-16.3-13.1l1.8-2.2l16.3,13.1L874.1,625.2z M858.5,612l15.4,12.4l1-1.3l-15.4-12.4
							L858.5,612z"/>
					</g>
					<g>
						<path fill="#202021" d="M874.5,624.2l-11.9-17.3l2.3-1.6l11.9,17.3L874.5,624.2z M863.5,607.1l11.2,16.3l1.4-0.9l-11.2-16.3
							L863.5,607.1z"/>
					</g>
					<g>
						<path fill="#202021" d="M875.3,623.4l-6.3-20l2.7-0.8l6.3,20L875.3,623.4z M869.7,603.7l6,18.9l1.6-0.5l-6-18.9L869.7,603.7z"
							/>
					</g>
					<g>
						<path fill="#202021" d="M878,622h-2v-20h2V622z M877,622h1v-20h-1V622z"/>
					</g>
				</g>
				<g>
					<path fill="#202021" d="M877.7,602.9c3.1,0,6.2,0.6,9.1,1.8c2.8,1.2,5.3,2.9,7.4,5c2.1,2.1,3.8,4.6,5,7.4
						c1.2,2.9,1.8,5.9,1.8,9.1s-0.6,6.2-1.8,9.1c-1.2,2.8-2.9,5.3-5,7.4c-2.1,2.1-4.6,3.8-7.4,5c-2.9,1.2-5.9,1.8-9.1,1.8
						s-6.2-0.6-9.1-1.8c-2.8-1.2-5.3-2.9-7.4-5c-2.1-2.1-3.8-4.6-5-7.4c-1.2-2.9-1.8-5.9-1.8-9.1s0.6-6.2,1.8-9.1
						c1.2-2.8,2.9-5.3,5-7.4c2.1-2.1,4.6-3.8,7.4-5C871.5,603.5,874.5,602.9,877.7,602.9 M877.7,602.1c-13.3,0-24.1,10.8-24.1,24.1
						s10.8,24.1,24.1,24.1s24.1-10.8,24.1-24.1S891,602.1,877.7,602.1L877.7,602.1z"/>
					<path fill="#202021" d="M877.7,602.7c3.2,0,6.3,0.6,9.2,1.9c2.8,1.2,5.3,2.9,7.5,5c2.2,2.2,3.9,4.7,5,7.5
						c1.2,2.9,1.9,6,1.9,9.2c0,3.2-0.6,6.3-1.9,9.2c-1.2,2.8-2.9,5.3-5,7.5c-2.2,2.2-4.7,3.9-7.5,5c-2.9,1.2-6,1.9-9.2,1.9
						c-3.2,0-6.3-0.6-9.2-1.9c-2.8-1.2-5.3-2.9-7.5-5c-2.2-2.2-3.9-4.7-5-7.5c-1.2-2.9-1.9-6-1.9-9.2c0-3.2,0.6-6.3,1.9-9.2
						c1.2-2.8,2.9-5.3,5-7.5c2.2-2.2,4.7-3.9,7.5-5C871.4,603.3,874.5,602.7,877.7,602.7 M877.7,602.1c-13.3,0-24.1,10.8-24.1,24.1
						s10.8,24.1,24.1,24.1s24.1-10.8,24.1-24.1S891,602.1,877.7,602.1L877.7,602.1z"/>
					<path fill="#202021" d="M877.7,602.1c13.3,0,24.1,10.8,24.1,24.1s-10.8,24.1-24.1,24.1s-24.1-10.8-24.1-24.1
						S864.3,602.1,877.7,602.1 M877.7,601c-3.4,0-6.7,0.7-9.8,2c-3,1.3-5.7,3.1-8,5.4s-4.1,5-5.4,8c-1.3,3.1-2,6.4-2,9.8
						c0,3.4,0.7,6.7,2,9.8c1.3,3,3.1,5.7,5.4,8c2.3,2.3,5,4.1,8,5.4c3.1,1.3,6.4,2,9.8,2c3.4,0,6.7-0.7,9.8-2c3-1.3,5.7-3.1,8-5.4
						c2.3-2.3,4.1-5,5.4-8c1.3-3.1,2-6.4,2-9.8c0-3.4-0.7-6.7-2-9.8c-1.3-3-3.1-5.7-5.4-8c-2.3-2.3-5-4.1-8-5.4
						C884.4,601.6,881.1,601,877.7,601L877.7,601z"/>
				</g>
			</g>
			<g id="wheel_2_">
				<g>
					<g>
						<path fill="#202021" d="M918,639h-1v-9h1V639z M917,639h1v-7h-1V639z"/>
					</g>
					<g>
						<path fill="#202021" d="M919.4,639.8l-1.2-0.4l2.5-7.9l1.2,0.4L919.4,639.8z M918.7,639.2l0.5,0.2l2.3-7.2l-0.5-0.2
							L918.7,639.2z"/>
					</g>
					<g>
						<path fill="#202021" d="M919.6,640.1l-1-0.7l4.7-6.8l1,0.7L919.6,640.1z M919.1,639.4l0.4,0.3l4.3-6.2l-0.4-0.3L919.1,639.4z"
							/>
					</g>
					<g>
						<path fill="#202021" d="M919.8,640.5l-0.8-1l6.4-5.2l0.8,1L919.8,640.5z M919.5,639.6l0.3,0.4l5.9-4.7l-0.3-0.4L919.5,639.6z"
							/>
					</g>
					<g>
						<path fill="#202021" d="M919.8,640.9l-0.5-1.1l7.7-3.1l0.5,1.1L919.8,640.9z M919.8,640l0.2,0.5l7-2.8l-0.2-0.5L919.8,640z"/>
					</g>
					<g>
						<path fill="#202021" d="M919.7,641.4l-0.1-1.2l8.2-0.6l0.1,1.2L919.7,641.4z M920,640.5l0,0.5l7.5-0.6l0-0.5L920,640.5z"/>
					</g>
					<g>
						<path fill="#202021" d="M927.6,643.6l-8-1.9l0.3-1.2l8,1.9L927.6,643.6z M920,641.5l7.4,1.7l0.1-0.5l-7.4-1.7L920,641.5z"/>
					</g>
					<g>
						<path fill="#202021" d="M926.3,646.2l-7.1-4.2l0.6-1.1l7.1,4.2L926.3,646.2z M919.7,641.9l6.5,3.8l0.3-0.4l-6.5-3.8
							L919.7,641.9z"/>
					</g>
					<g>
						<path fill="#202021" d="M924.5,648.3l-5.6-6l0.9-0.8l5.6,6L924.5,648.3z M919.3,642.2l5.1,5.5l0.4-0.4l-5.1-5.5L919.3,642.2z"
							/>
					</g>
					<g>
						<path fill="#202021" d="M922.1,649.7l-3.6-7.4l1.1-0.5l3.6,7.4L922.1,649.7z M918.9,642.4l3.3,6.8l0.5-0.2l-3.3-6.8
							L918.9,642.4z"/>
					</g>
					<g>
						<path fill="#202021" d="M919.3,650.4l-1.3-8.2l1.2-0.2l1.3,8.2L919.3,650.4z M918.4,642.5l1.2,7.5l0.5-0.1l-1.2-7.5
							L918.4,642.5z"/>
					</g>
					<g>
						<path fill="#202021" d="M917.6,650.4l-1.2-0.2l1.3-8.2l1.2,0.2L917.6,650.4z M916.7,649.9l0.5,0.1l1.2-7.5l-0.5-0.1
							L916.7,649.9z"/>
					</g>
					<g>
						<path fill="#202021" d="M914.8,649.7l-1.1-0.5l3.6-7.4l1.1,0.5L914.8,649.7z M914.1,649l0.5,0.2l3.3-6.8l-0.5-0.2L914.1,649z"
							/>
					</g>
					<g>
						<path fill="#202021" d="M912.4,648.3l-0.9-0.8l5.6-6l0.9,0.8L912.4,648.3z M912,647.4l0.4,0.4l5.1-5.5l-0.4-0.4L912,647.4z"/>
					</g>
					<g>
						<path fill="#202021" d="M910.5,646.2l-0.6-1.1l7.1-4.2l0.6,1.1L910.5,646.2z M910.4,645.3l0.3,0.4l6.5-3.8l-0.3-0.4
							L910.4,645.3z"/>
					</g>
					<g>
						<path fill="#202021" d="M909.3,643.6l-0.3-1.2l8-1.9l0.3,1.2L909.3,643.6z M909.4,642.7l0.1,0.5l7.4-1.7l-0.1-0.5L909.4,642.7
							z"/>
					</g>
					<g>
						<path fill="#202021" d="M917.1,641.4l-8.2-0.6l0.1-1.2l8.2,0.6L917.1,641.4z M909.2,640.4l7.5,0.6l0-0.5l-7.5-0.6L909.2,640.4
							z"/>
					</g>
					<g>
						<path fill="#202021" d="M917,640.9l-7.7-3.1l0.5-1.1l7.7,3.1L917,640.9z M909.8,637.7l7,2.8l0.2-0.5l-7-2.8L909.8,637.7z"/>
					</g>
					<g>
						<path fill="#202021" d="M917,640.5l-6.4-5.2l0.8-1l6.4,5.2L917,640.5z M911.1,635.3l5.9,4.7l0.3-0.4l-5.9-4.7L911.1,635.3z"/>
					</g>
					<g>
						<path fill="#202021" d="M917.2,640.1l-4.7-6.8l1-0.7l4.7,6.8L917.2,640.1z M913,633.4l4.3,6.2l0.4-0.3l-4.3-6.2L913,633.4z"/>
					</g>
					<g>
						<path fill="#202021" d="M917.4,639.8l-2.5-7.9l1.2-0.4l2.5,7.9L917.4,639.8z M915.4,632.2l2.3,7.2l0.5-0.2l-2.3-7.2
							L915.4,632.2z"/>
					</g>
					<g>
						<path fill="#202021" d="M918,639h-1v-9h1V639z M917,639h1v-7h-1V639z"/>
					</g>
				</g>
				<g>
					<path fill="#202021" d="M918.4,632.3c4.7,0,8.5,3.8,8.5,8.5s-3.8,8.5-8.5,8.5s-8.5-3.8-8.5-8.5S913.7,632.3,918.4,632.3
						 M918.4,631.5c-5.2,0-9.4,4.2-9.4,9.4s4.2,9.4,9.4,9.4s9.4-4.2,9.4-9.4S923.6,631.5,918.4,631.5L918.4,631.5z"/>
					<path fill="#202021" d="M918.4,632.1c4.8,0,8.8,3.9,8.8,8.8s-3.9,8.8-8.8,8.8s-8.8-3.9-8.8-8.8S913.6,632.1,918.4,632.1
						 M918.4,631.5c-5.2,0-9.4,4.2-9.4,9.4s4.2,9.4,9.4,9.4s9.4-4.2,9.4-9.4S923.6,631.5,918.4,631.5L918.4,631.5z"/>
					<path fill="#202021" d="M918.4,631.5c5.2,0,9.4,4.2,9.4,9.4s-4.2,9.4-9.4,9.4s-9.4-4.2-9.4-9.4S913.3,631.5,918.4,631.5
						 M918.4,630.3c-5.8,0-10.5,4.7-10.5,10.5c0,5.8,4.7,10.5,10.5,10.5c5.8,0,10.5-4.7,10.5-10.5
						C928.9,635.1,924.2,630.3,918.4,630.3L918.4,630.3z"/>
				</g>
			</g>
			<path fill="#202021" d="M920,641h-0.7c0-7,0-13-0.6-19.3c-0.7-7.2-1.7-13.1-4-17.8c-2.6-5.4-5.7-9.5-10.7-12.5v-2.6l2.8,1.7
				c1.6,0.8,3.2,0,3.2-1.5v-5.3c0-1-0.9-1.7-2.2-1.7h-10.4c-2.4,0-3.1,2.3-1.1,3.2l4.8,2.3v2.5c-7-2.8-12.8-4.2-21.2-4.4
				c-0.1-1-0.9-1.8-1.9-1.8c-1.1,0-1.9,0.9-1.9,2v6.5c0,0.3-0.3,0.6-0.2,1.6h0.2v30.9c0,0.4-0.5,0.8-0.5,1.3c0,1.2,1,2.2,2.2,2.2
				s1.5-1,1.5-2.2c0-0.5-0.2-0.9-1.2-1.3V594h1.4c0.1-1-0.4-1.3-0.4-1.6v-4.9c17,0.3,27.9,5.9,33.3,17.2c4.9,10.2,5.1,23.4,5.1,36
				c0,0.1,0,0.1,0,0.2c0,0.5,0.8,0.9,1.3,0.9s1.3-0.4,1.3-0.9C920,640.9,920,641,920,641z"/>
		</g>
		<g id="mr_1_">
			<path id="right_hand_1_" fill="#202021" d="M339.4,620.4c-0.6,0.1-1.9,0.5-1.9,0.5s-1.1,1.9-1.2,2.5c0,0.5-0.1,1.9,0,2.4
				c0.1,0.5,0.8,1.7,1.1,1.9c0.3,0.2,0.8,0.6,0.9,0.8c0.2,0.1,0.6-0.1,0.6-0.1s0.2,0,0.4,0c0.1-0.1,0.3-0.3,0.3-0.3s0.3,0,0.3-0.1
				c0.1-0.1,0.6-0.6-0.4-1.9c0,0-0.1-0.1-0.1-0.3c0-0.2,0.4-0.8,0.5-0.9c0.1-0.1,0.5-1.1,0.6-1.3s0.4-0.5,0.4-0.8s0.5-0.6,0.5-0.7
				c0-0.1,0-0.4,0.1-0.4c0,0-0.3-0.4-0.3-0.5C340.8,620.5,340,620.2,339.4,620.4z"/>
			<path id="left_hand_1_" fill="#202021" d="M372.9,622.6c1.8,0.9,4.3,1.1,4.6,0.7c0,0,0.6,1,0.6,1.6c0,0.3-0.2,0.6-0.3,0.9
				c-0.1,0.2-0.5,1.7-0.7,1.9c-0.3,0.2-1.9,1.9-2.3,1.9s-0.5-0.7-0.4-0.7c0-0.1-0.6,0.3-0.5-0.5c0.1-0.5,0.3-0.6,0.3-0.6
				s-0.2-0.2-0.4-0.4c-0.2-0.3-0.2-1-0.3-1.3c-0.1-0.3-0.2-0.5-0.3-1C373.3,625,372.8,623.8,372.9,622.6z"/>
			<path id="lower_body_1_" fill="#202021" d="M367.4,640.5c-0.5-3.5,3-12.1,1.5-11.9c-1.6,0.2-20.4-1.1-20.4-1.1
				c-2.7,10.5,5.1,27.8,7.2,30.5c0.9,1.2,1.6,3.8,2.2,6.4c-0.1,0.5-0.3,1.1-0.5,1.5c-0.3,0.8-0.9,2-0.7,2.8c0.2,0.8,0.6,1.2,0.9,1.3
				c0.2,0.1,0.8,0,1.2,0c0.1,0.9,0.2,1.5,0.2,1.5s0.2,0.1,0.5,0.2c-1.4,1.9-2.3,4.2-1.9,5.2c0.4,1,1.4,1.4,2.3,1.5
				c1.2,0.2,3.7,0.3,4.6-0.9s0.9-2.2,1-3.6c0.1-0.5,0.2-0.8,0.3-1.1c0.3-0.2,0.6-0.4,0.6-0.8c0.4-3.1,0.4-4.3,0.4-4.3
				C366.5,666,367.9,644,367.4,640.5z"/>
			<g id="upper_body_2_">
				<path id="upper_body_3_" fill="#202021" d="M347.9,618.5c0.1,1.5-1.4,5.8-0.7,7.1c0.8,1.3,3.5,7.6,3.4,7.6
					c-2.9,0.1,15.4-4.7,15.9-4c0,0,1.1,5.1,3.5,6l-0.7-8.2c-0.4-5.4,0.4-14,0.4-14s1.1,2.4,1.4,3.8c0.3,1.5,0.4,2.6,0.7,4
					c0.1,0.8,0.7,1.3,1.2,1.5c1.3,0.6,3.2,0.7,4,0.2c0.8-0.5,0.4-3.1,0.4-4.4c0-0.6-0.3-1.6-0.5-2.6c-0.2-0.9-3.6-15.5-4.1-17.2
					c-0.4-1.5-2.4-6.9-3-8.6s-7.8-4.7-8.8-5.4c-1.3-0.9-2.9-2.1-2.3-3.6c0.3-0.7,0.4-1.7,0.5-2.7l0,0c0.8-1.2-0.3-3.2-0.4-4.1
					c-0.1-0.9-1.7-2.5-2.2-3c-0.5-0.5-1.1-1-3.3-1.2c-2.3-0.2-4.3,0.8-5.2,0.9c-0.9,0.1-0.8,0.4-1.4,0.6c-0.3,0.1-0.5,0-0.6-0.1
					c-0.1-0.1-0.3-0.1-0.4,0l0,0c-0.1,0.1-0.1,0.1-0.2,0.1c-0.2,0-0.5,0-0.8,0c-0.4,0,0.2,0.4,0.2,0.4v0c0,0-0.3,0.2-0.7,0.3
					c-0.4,0.1,0.1,0.7,0.1,0.7s-0.7,0,0,0.7s0,2.7,1.4,4.3l0,0c0.1,0.2,0.3,0.4,0.5,0.6c0.4,0.3-0.9,2-1,2.3c-0.1,0.4,0.4,1,0.7,1
					s-0.4,0.7,0.8,1.1c0,0,0.1,0.6,0.1,0.9c0,0.3,0,2.4,0.8,2.6c0.5,0.2,1.9,0.2,1.9,0.2s-0.3,0.5-0.5,0.6c-0.7,0.6-3.2,2.5-3.4,3
					c-0.2,0.5-1.8,5.2-1.8,6.1s-4.4,16.9-5.1,18.5c-0.4,0.7-2,5.7-1.6,6s2.6-1.4,3.9,0s1.3-0.6,2.2-1.7c1-1.4,3.7-7.2,3.9-7.5
					c0.2-0.3,1,0,1,1.7C347.8,614.6,347.8,617,347.9,618.5z"/>
				<path id="shirt_1_" fill="#FFFFFF" d="M349.7,586.6c0,0,1.3,1.9,4.2,1.8c2.9-0.1,5.1-6.1,5.1-6.1s-2.5,16.8-4.5,21.8
					L349.7,586.6z"/>
			</g>
			<path id="tie_1_" fill="#202021" d="M351.1,589.4c-0.1,0.3-0.1,0.7-0.2,0.9c0,0.1,0,0.2,0,0.4l0.3,0.7c0.1,0.4,0.5,0.5,0.9,0.4
				c0.5-0.2,1.2-0.5,1.4-0.8c0.1-0.2,0.3-0.3,0.5-0.3l0.3,0c0.2,0,0.4,0.1,0.6,0.2c0.3,0.3,0.9,0.5,1.4,0.7c0.4,0.2,0.8-0.1,0.9-0.5
				l0.2-0.8c0-0.1,0-0.2,0-0.4l-0.2-0.9c-0.1-0.4-0.5-0.6-0.9-0.5c-0.5,0.2-1.2,0.4-1.5,0.6c-0.1,0.1-0.3,0.2-0.5,0.2l-0.5,0
				c-0.2,0-0.4,0-0.5-0.2c-0.3-0.2-1-0.5-1.5-0.6C351.5,588.7,351.1,589,351.1,589.4z"/>
			<path id="cane_1_" fill="#202021" d="M338.8,623.4c-1.2,0-2.2,1-2.2,2.2c0,0.4,0.3,0.8,0.3,1.1v46.1v0.2v1h2v-1l-1-0.2v-45
				c1,0,0.5,0.1,0.7,0.1c1.2,0,2.3-1,2.3-2.2S340.1,623.4,338.8,623.4z"/>
			<path id="hat_1_" fill="#202021" d="M383.9,631c-4.6-3.4-9-5.1-10-3.8c-0.6,0.8,0.3,2.6,2.2,4.6l-2,2.7c-1.3,1.8-1,4.3,0.8,5.7
				l2.8,2.1c1.8,1.3,4.3,1,5.7-0.8l2-2.7c2.5,1.2,4.4,1.5,5,0.7C391.3,638.1,388.4,634.3,383.9,631z"/>
		</g>
	</g>
</g>
<g id="base">
	<g id="bg_1_">
		<g id="bd" display="none">
			<rect id="bg" y="0.1" display="inline" fill="#484C4D" width="1440" height="780"/>
			<g display="inline">
				<g id="base_9_">
					<g>
						<rect x="-139.1" y="682.5" fill-rule="evenodd" clip-rule="evenodd" fill="#F2F2F2" width="125.8" height="94.3"/>
					</g>
				</g>
				<g id="shade">
					<g>
						<rect x="-44.7" y="745.3" fill-rule="evenodd" clip-rule="evenodd" fill="#E8E8E8" width="31.5" height="31.4"/>
					</g>
				</g>
				<g id="tint">
					<g>
						<rect x="-44.7" y="713.9" fill-rule="evenodd" clip-rule="evenodd" fill="#FCFCFC" width="31.5" height="31.4"/>
					</g>
				</g>
				<g id="tone">
					<g>
						<rect x="-44.7" y="682.5" fill-rule="evenodd" clip-rule="evenodd" fill="#F2F2F2" width="31.5" height="31.4"/>
					</g>
				</g>
				<g id="base_7_">
					<g>
						<rect x="-139.1" y="563.9" fill-rule="evenodd" clip-rule="evenodd" fill="#202021" width="125.8" height="94.3"/>
					</g>
				</g>
				<g id="shade_7_">
					<g>
						<rect x="-44.7" y="626.7" fill-rule="evenodd" clip-rule="evenodd" fill="#0D0D0D" width="31.5" height="31.4"/>
					</g>
				</g>
				<g id="tint_7_">
					<g>
						<rect x="-44.7" y="595.3" fill-rule="evenodd" clip-rule="evenodd" fill="#333335" width="31.5" height="31.4"/>
					</g>
				</g>
				<g id="tone_7_">
					<g>
						<rect x="-44.7" y="563.9" fill-rule="evenodd" clip-rule="evenodd" fill="#202021" width="31.5" height="31.4"/>
					</g>
				</g>
				<g id="base_5_">
					<g>
						<rect x="-142.1" y="441.8" fill-rule="evenodd" clip-rule="evenodd" fill="#8C0D24" width="125.8" height="94.3"/>
					</g>
				</g>
				<g id="shade_5_">
					<g>
						<rect x="-47.7" y="504.6" fill-rule="evenodd" clip-rule="evenodd" fill="#680A1B" width="31.5" height="31.4"/>
					</g>
				</g>
				<g id="tint_5_">
					<g>
						<rect x="-47.7" y="473.2" fill-rule="evenodd" clip-rule="evenodd" fill="#B0102D" width="31.5" height="31.4"/>
					</g>
				</g>
				<g id="tone_5_">
					<g>
						<rect x="-47.7" y="441.8" fill-rule="evenodd" clip-rule="evenodd" fill="#51484A" width="31.5" height="31.4"/>
					</g>
				</g>
				<g id="base_3_">
					<g>
						<rect x="-142.1" y="327.7" fill-rule="evenodd" clip-rule="evenodd" fill="#26616F" width="125.8" height="94.3"/>
					</g>
				</g>
				<g id="shade_3_">
					<g>
						<rect x="-47.7" y="390.6" fill-rule="evenodd" clip-rule="evenodd" fill="#1C4752" width="31.5" height="31.4"/>
					</g>
				</g>
				<g id="tint_3_">
					<g>
						<rect x="-47.7" y="359.2" fill-rule="evenodd" clip-rule="evenodd" fill="#307B8C" width="31.5" height="31.4"/>
					</g>
				</g>
				<g id="tone_3_">
					<g>
						<rect x="-47.7" y="327.7" fill-rule="evenodd" clip-rule="evenodd" fill="#484C4D" width="31.5" height="31.4"/>
					</g>
				</g>
				<g id="base_4_">
					<g>
						<rect x="-142.1" y="213.9" fill-rule="evenodd" clip-rule="evenodd" fill="#59473C" width="125.8" height="94.3"/>
					</g>
				</g>
				<g id="shade_4_">
					<g>
						<rect x="-47.7" y="276.7" fill-rule="evenodd" clip-rule="evenodd" fill="#42342C" width="31.5" height="31.4"/>
					</g>
				</g>
				<g id="tint_4_">
					<g>
						<rect x="-47.7" y="245.3" fill-rule="evenodd" clip-rule="evenodd" fill="#705A4C" width="31.5" height="31.4"/>
					</g>
				</g>
				<g id="tone_4_">
					<g>
						<rect x="-47.7" y="213.9" fill-rule="evenodd" clip-rule="evenodd" fill="#4E4A47" width="31.5" height="31.4"/>
					</g>
				</g>
			</g>
			
				<image overflow="visible" width="7848" height="3128" id="eastlake_1_" xlink:href="../../../resources/location photos/eastlake/Photo Jan 25, 4 25 18 PM.jpg"  transform="matrix(0.1391 0 0 0.1391 -672.2188 972.7529)">
			</image>
			
				<image overflow="visible" width="6792" height="3094" id="Chula_Vista" xlink:href="../../../resources/location photos/chula vista/Photo Feb 07, 5 02 25 PM.jpg"  transform="matrix(0.2272 0 0 0.2272 -37.6453 65.8823)">
			</image>
		</g>
		<g id="clouds" display="none">
			<path id="c3_2_" display="inline" fill="#FFFFFF" d="M632.6,281.1h130.3c1.3,0,1.8-1.8,0.6-2.4l-4-2.2c-0.7-0.4-0.9-1.2-0.5-1.8
				c16.4-25.2-20.7-36.1-32.2-19.9c-0.5,0.8-1,0.7-0.9-0.2c5.5-40.2-45.2-44-50.1-3.3c-0.1,0.6-0.7,1-1.3,1
				c-3.6-0.2-15.3-0.2-20.5,7.4c-4.5,6.6-3.5,12.3-2.6,14.9c0.3,0.8-0.3,1.6-1.1,1.7l-17.9,2.2C630.8,278.7,631,281.1,632.6,281.1z"
				/>
			<path id="c2_2_" display="inline" fill="#FFFFFF" d="M390.5,124h135c1.4,0,1.9-1.8,0.7-2.5l-4.1-2.3c-0.7-0.4-0.9-1.3-0.5-1.9
				c17-26.1-21.4-37.4-33.3-20.6c-0.5,0.8-1.1,0.7-0.9-0.2c5.7-41.6-46.8-45.6-52-3.4c-0.1,0.6-0.7,1.1-1.4,1
				c-3.7-0.2-15.9-0.2-21.3,7.7c-4.6,6.8-3.6,12.7-2.7,15.4c0.3,0.8-0.3,1.7-1.1,1.8l-18.6,2.3C388.6,121.5,388.8,124,390.5,124z"/>
			<path id="c1_2_" display="inline" fill="#FFFFFF" d="M73.9,257.2h238.9c2.5,0,3.3-3.3,1.2-4.5l-7.3-4.1c-1.2-0.7-1.6-2.2-0.8-3.4
				c30.2-46.3-38-66.1-59-36.5c-0.9,1.5-1.9,1.3-1.7-0.3c10.1-73.7-82.8-80.7-92-6c-0.1,1.1-1.3,1.9-2.4,1.8
				c-6.6-0.4-28.1-0.4-37.6,13.6c-8.2,12.1-6.3,22.5-4.7,27.3c0.5,1.4-0.5,3-2,3.1l-32.9,4.1C70.6,252.8,70.9,257.2,73.9,257.2z"/>
		</g>
		<g id="color" display="none">
			<rect x="-5.9" y="-100.8" display="inline" fill="#4D5051" width="123.1" height="90.3"/>
			<rect x="129.5" y="-100.8" display="inline" fill="#575959" width="123.1" height="90.3"/>
			<rect x="266.2" y="-100.8" display="inline" fill="#484C4D" width="123.1" height="90.3"/>
		</g>
		<g id="cinema" display="none">
			<polygon display="inline" fill="#575959" points="149,107 149,168 240,168 240,152 271,152 271,168 362,168 362,107 			"/>
			<g display="inline">
				<polyline fill="#484C4D" points="236,113 236,98 275,98 275,113 236,113 				"/>
				<polyline fill="#575959" points="243,113 243,84 268,84 268,113 243,113 				"/>
				<polyline fill="#4D5051" points="248.8,113.4 248.8,54.3 261.9,54.3 261.9,113.4 248.8,113.4 				"/>
			</g>
			<g display="inline">
				<path fill="#484C4D" d="M171.5,153.1c0,0-0.2-8.8-0.2-8.8c66.2-6.1,103.7-6.3,167.7,0c0,0,0,8.8,0,8.8
					C275,147.1,237.7,147.1,171.5,153.1z"/>
				<path fill="#484C4D" d="M165.1,145.2c0,0,0-9.5,0-9.5c71.6-6.6,111.9-6.8,181.9,0c0,0,0,9.5,0,9.5
					C277,138.7,236.7,138.7,165.1,145.2z"/>
				<path fill="#484C4D" d="M158.6,136.2c0,0,0.1-10.2,0.1-10.2c76.9-7.1,118.3-7.3,195.3,0c0,0,0,10.2,0,10.2
					C277,129.2,235.5,129.2,158.6,136.2z"/>
				<path fill="#484C4D" d="M150.4,126.8c0,0-0.1-11.1-0.1-11.1c83-7.7,129.7-7.8,210.7,0c0,0,0,11.1,0,11.1
					C280,119.2,233.4,119.2,150.4,126.8z"/>
			</g>
			<path id="SVGID_x5F_5_x5F_" display="inline" fill="none" d="M162.6,138.8c56.2-7.1,132.4-6.8,187.2,0"/>
			<text display="inline">			<textPath  xlink:href="#SVGID_x5F_5_x5F_" startOffset="10.1563%">
<tspan  fill="#5A5A5A" font-family="'InnercityRegular'" font-size="16" letter-spacing="773.1">CINEMA</tspan>			</textPath>
</text>
		</g>
	</g>
	<g id="sw_1_">
		<g id="left_2_">
			<polygon fill="#333335" points="84,587.1 9.9,623 84,623 			"/>
			<polygon fill="#333335" points="0,630 0,683 39.9,683 106.7,630 			"/>
			<polygon fill="#333335" points="0,689 0,712.8 30.2,689 			"/>
		</g>
		<g>
			<polygon display="none" fill="#333335" points="-8.9,723.3 31.5,687 -140.8,687 -208.7,687 -216.9,687 -335.5,738 -335.3,738 
				-342,740 -307.9,740 -256.3,740 -27.8,740 -11.6,725.5 			"/>
			<polygon fill="#333335" points="548.4,724.7 534.4,687 290.1,687 276.1,724.7 275.2,726.9 270.3,740 554.2,740 549.3,726.9 			
				"/>
			<polygon fill="#333335" points="805.9,725.4 763.1,687 541,687 554.8,724 555.7,726.2 560.8,740 822.5,740 808.6,727.6 			"/>
			<polygon fill="#333335" points="1052.7,726 980.2,687 771.7,687 812.2,723.3 814.9,725.5 831.1,740 1079.1,740 			"/>
			<polygon fill="#333335" points="992.6,687 1265.8,687 1393.9,740 1092.3,740 			"/>
		</g>
		<g id="right_2_">
			<polygon fill="#333335" points="904,513.5 904,535 953.7,535 			"/>
			<polygon fill="#333335" points="904,577 1037.5,577 961.8,540 904,540 			"/>
			<polygon fill="#333335" points="1047.7,581 904,581 904,583.9 971,627 1145.8,627 			"/>
			<polygon fill="#333335" points="1160.1,633 1255.5,679 1051.4,679 981.7,633 			"/>
		</g>
	</g>
	<g id="left_building">
		<polygon id="depth_1_" fill="#202021" points="154.6,680.7 168.7,674.3 168.7,459.2 370.6,459.2 370.6,672.9 385.7,680.6 
			385.8,366.1 154.6,366.1 		"/>
		<polygon fill="#333335" points="84,223.6 84,680.7 154.6,680.7 154.6,449.3 385.7,449.3 385.7,680.6 456.2,680.6 456.2,223.6 		
			"/>
		<g id="top">
			<g id="roof_1_">
				<path fill="#202021" d="M80.8,222.9v9.9c0,0,0.9,0,0.9,0c-1.4,10.9,2.8,12.7,2.8,12.7h-3.8v5.6h378.1v-5.6h-3.1
					c0,0,2.6-5.2,1.4-12.7c0.1,0,1.7,0,1.7,0v-9.9H80.8z"/>
			</g>
			<polygon fill="#333335" points="80.8,222.9 77.2,218.6 461.4,218.6 458.8,222.9 			"/>
			<path fill="#202021" d="M77,207.4h384.5c0.8,0,1.5,0.7,1.5,1.5v8.2c0,0.8-0.7,1.5-1.5,1.5H77c-0.8,0-1.5-0.7-1.5-1.5v-8.2
				C75.4,208.1,76.1,207.4,77,207.4z"/>
		</g>
		<rect x="261" y="549.9" fill="#333335" width="99.5" height="124.4"/>
		<rect x="261" y="465.3" fill="#333335" width="99.5" height="78.6"/>
		<rect x="179" y="465" fill="#333335" width="70" height="208"/>
	</g>
	<g id="main_building_1_">
		<g id="front">
			<rect x="485.6" y="464.6" fill="#333335" width="125.4" height="205.2"/>
			<rect x="744.6" y="464.6" fill="#333335" width="54" height="205.2"/>
			<rect x="614.3" y="464.5" fill="#333335" width="125.6" height="56.5"/>
			<g id="left">
				<rect id="out_1_" x="614.3" y="526.2" fill="#333335" width="61.2" height="143.6"/>
				<rect id="in_1_" x="624.5" y="535.2" fill="#484C4D" width="40.9" height="124.1"/>
			</g>
			<g id="right">
				<rect id="out" x="678.7" y="526.2" fill="#333335" width="61.2" height="143.6"/>
				<rect id="in" x="688" y="535.2" fill="#484C4D" width="42.3" height="124.1"/>
			</g>
			<g id="handles">
				<rect x="694.2" y="572.6" fill="#333335" width="4" height="22.8"/>
				<rect x="656.9" y="572.6" fill="#333335" width="4" height="22.8"/>
			</g>
			<g id="barber_stipe">
				<g id="right_1_">
					<rect x="744.8" y="606.3" fill="#B0102D" width="53.6" height="9.5"/>
					<rect x="744.8" y="621.6" fill="#E8E8E8" width="53.6" height="9.5"/>
					<rect x="744.8" y="637" fill="#307B8C" width="53.6" height="9.5"/>
				</g>
				<g id="left_1_">
					<rect x="485.5" y="606.3" fill="#B0102D" width="125.4" height="9.5"/>
					<rect x="485.5" y="621.6" fill="#E8E8E8" width="125.4" height="9.5"/>
					<rect x="485.5" y="637" fill="#307B8C" width="125.4" height="9.5"/>
				</g>
			</g>
		</g>
		<g id="main_building">
			<polygon id="walls" fill="#333335" points="466.1,450.6 818.7,450.6 818.7,680.5 903.4,680.5 903.4,378.6 385.7,378.6 
				385.7,680.5 466.1,680.5 			"/>
			<polygon id="depth" fill="#202021" points="466.1,680.6 480.2,674.2 480.2,460.5 803.6,460.5 803.6,672.8 818.7,680.5 
				818.8,450.6 466.1,450.6 			"/>
		</g>
		<g id="Moose_2_">
			<g>
				<path fill="#FFFFFF" d="M618,441.6c-0.8,0-1.5-0.3-2.1-1c0.6-1.8,0.9-3.4,0.9-4.7c0-1.7-0.7-3.6-2.1-5.7
					c0.3-0.8,0.5-1.6,0.5-2.3c0-0.9-0.3-1.9-0.8-3.1c-0.3-0.6-1.1-2-2.3-4.2v12.1c0.1,3.7,0.7,6.4,1.8,7.9c-0.8,0.6-1.6,1-2.5,1
					c-0.8,0-1.6-0.3-2.3-1c-0.6,0.6-1.3,1-2,1c-0.8,0-1.5-0.3-2.3-1c1-2.3,1.6-4.8,1.6-7.7c0-3-0.5-5.2-1.6-6.6
					c1.1-1.5,1.6-3.8,1.6-6.8c0-2.2-0.3-4.2-1-6l-0.6-1.5c1.2-0.6,2.3-0.9,3.4-0.9c0.9,0,2,0.3,3.2,0.9c0.9-0.6,2.1-0.9,3.4-0.9
					c0.8,0,1.6,0.1,2.4,0.3c0.7,0.2,1.1,0.4,1.3,0.5c-0.6,1-1,2.4-1,4.2c0,2.1,0.3,3.8,0.8,4.9l1.8,5.4l1.8-5.4
					c0.5-1.1,0.8-2.8,0.8-4.9c0-1.7-0.3-3.1-0.9-4.2c0.2-0.2,0.6-0.4,1.2-0.5c0.8-0.2,1.6-0.3,2.4-0.3c1.3,0,2.4,0.3,3.4,0.9
					c1.2-0.6,2.2-0.9,3.2-0.9c1.1,0,2.2,0.3,3.4,0.9l-0.6,1.5c-0.7,1.8-1,3.8-1,6c0,3,0.5,5.3,1.6,6.8c-1,1.4-1.6,3.6-1.6,6.6
					c0,2.9,0.5,5.5,1.6,7.7c-0.7,0.7-1.5,1-2.3,1c-0.7,0-1.4-0.3-2-1c-0.7,0.6-1.5,1-2.3,1c-0.9,0-1.7-0.3-2.5-1
					c0.8-1,1.3-2.7,1.6-4.9c0.1-0.9,0.2-1.9,0.2-3v-12.1c-1.2,2.2-2,3.6-2.3,4.2c-0.6,1.2-0.8,2.2-0.8,3.1c0,0.7,0.2,1.5,0.5,2.3
					c-1.4,2.2-2.1,4.1-2.1,5.7c0,1.3,0.3,2.9,0.9,4.7c-0.7,0.6-1.4,1-2.2,1c-0.7,0-1.4-0.3-2-1C619.4,441.2,618.7,441.6,618,441.6z"
					/>
				<path fill="#FFFFFF" d="M653.5,440.4c-1.3,0.6-2.8,1-4.6,1.1c-1.8-0.1-3.4-0.4-4.7-1c-3.1-1.5-4.7-4-4.7-7.8v-3.5
					c-0.1-1.6-0.6-2.6-1.6-3.1c0.6-0.3,1.1-0.9,1.4-1.8c0.1-0.4,0.2-0.8,0.2-1.3v-3.3c0-3.6,1.6-6.1,4.7-7.7c1.3-0.6,2.9-1,4.7-1.1
					c1.8,0.2,3.4,0.5,4.7,1.1c3.1,1.5,4.7,4.1,4.7,7.7v3.3c0.1,1.6,0.6,2.6,1.6,3.1c-0.6,0.3-1.1,0.9-1.4,1.8
					c-0.1,0.4-0.2,0.8-0.2,1.3v3.5C658.2,436.4,656.6,438.9,653.5,440.4z M652.1,429.3c-0.1-1.6-0.6-2.6-1.6-3.1
					c0.7-0.3,1.1-0.9,1.4-1.8c0.1-0.4,0.2-0.8,0.2-1.3v-3.1c0-1.1-0.3-2-0.9-2.6c-0.6-0.6-1.3-1-2.2-1c-0.8,0-1.5,0.3-2.1,1
					c-0.6,0.6-0.9,1.5-0.9,2.6v3.1c0.1,1.6,0.6,2.6,1.6,3.1c-0.7,0.3-1.1,0.9-1.4,1.8c-0.1,0.4-0.2,0.8-0.2,1.3v3.1
					c0,1.1,0.3,2,0.9,2.7c0.6,0.6,1.3,0.9,2.1,0.9c0.8,0,1.6-0.3,2.2-0.9c0.6-0.6,0.9-1.5,0.9-2.7V429.3z"/>
				<path fill="#FFFFFF" d="M677.7,440.4c-1.3,0.6-2.8,1-4.6,1.1c-1.8-0.1-3.4-0.4-4.7-1c-3.1-1.5-4.7-4-4.7-7.8v-3.5
					c-0.1-1.6-0.6-2.6-1.6-3.1c0.6-0.3,1.1-0.9,1.4-1.8c0.1-0.4,0.2-0.8,0.2-1.3v-3.3c0-3.6,1.6-6.1,4.7-7.7c1.3-0.6,2.9-1,4.7-1.1
					c1.8,0.2,3.4,0.5,4.7,1.1c3.1,1.5,4.7,4.1,4.7,7.7v3.3c0.1,1.6,0.6,2.6,1.6,3.1c-0.6,0.3-1.1,0.9-1.4,1.8
					c-0.1,0.4-0.2,0.8-0.2,1.3v3.5C682.3,436.4,680.8,438.9,677.7,440.4z M676.3,429.3c-0.1-1.6-0.6-2.6-1.6-3.1
					c0.7-0.3,1.1-0.9,1.4-1.8c0.1-0.4,0.2-0.8,0.2-1.3v-3.1c0-1.1-0.3-2-0.9-2.6c-0.6-0.6-1.3-1-2.2-1c-0.8,0-1.5,0.3-2.1,1
					c-0.6,0.6-0.9,1.5-0.9,2.6v3.1c0.1,1.6,0.6,2.6,1.6,3.1c-0.7,0.3-1.1,0.9-1.4,1.8c-0.1,0.4-0.2,0.8-0.2,1.3v3.1
					c0,1.1,0.3,2,0.9,2.7c0.6,0.6,1.3,0.9,2.1,0.9c0.8,0,1.6-0.3,2.2-0.9c0.6-0.6,0.9-1.5,0.9-2.7V429.3z"/>
				<path fill="#FFFFFF" d="M700.6,419.6c-1.4-2.7-3.1-4.1-5.2-4.1c-1,0-1.8,0.3-2.5,1c-0.7,0.6-1,1.4-1,2.3c0,0.8,0.3,1.6,1,2.4
					c0.8,0.7,1.8,1.1,2.8,1.1c0.6,0,1.1-0.1,1.6-0.3c0.2,0.8,0.9,1.6,2,2.5c0.5,0.4,1,0.7,1.6,1.1c2.9,1.6,4.4,4,4.4,7.2
					c0,2.4-0.9,4.4-2.6,6.1c-1.9,1.8-4.5,2.8-7.6,2.8c-1.6,0-3.3-0.2-5-0.7c-0.4-0.1-0.9-0.4-1.7-0.8c-0.6-0.3-1.1-0.5-1.6-0.5
					c-0.7,0-1.5,0.3-2.3,0.9c-0.1-0.3-0.1-0.6-0.1-0.8c0-1.5,0.5-2.6,1.6-3.2c-0.3-0.4-0.5-1-0.5-1.7c0-0.9,0.3-1.9,0.8-3
					c0.9,1.7,2.2,3,3.9,3.9c1.4,0.8,2.9,1.2,4.4,1.2c1.3,0,2.3-0.3,3.1-0.8c0.8-0.5,1.2-1.3,1.2-2.1c0-0.9-0.5-1.9-1.4-2.9
					c-0.9-0.7-2-1.1-3.3-1.1c-0.7,0-1.3,0.1-1.8,0.3c-0.1-1.8-0.9-3-2.3-3.4c-2.8-1.6-4.1-3.8-4.1-6.8c0-2.3,0.8-4.3,2.5-6.1
					c1.8-1.9,3.9-2.8,6.4-2.8c1.5,0,2.9,0.4,4.4,1.1c0.3,0.2,0.7,0.4,1,0.6c0.3,0.2,0.7,0.3,1.1,0.3c0.4,0,1-0.1,1.8-0.2
					c0,0.2,0.1,0.5,0.1,0.7c0,0.9-0.4,1.8-1.2,2.7C702,417.4,701.5,418.6,700.6,419.6z"/>
				<path fill="#FFFFFF" d="M718.8,427.8c-0.9,0-1.7,0.3-2.3,0.8c-0.6,0.6-1,1.4-1,2.5v2.2c0,2,1,3,3.1,3c1,0,2.1-0.3,3.1-0.8
					c1-0.5,1.6-1.2,1.9-1.9c1.1,0.8,1.6,1.9,1.6,3.2c0,0.7-0.1,1.3-0.4,2c0.5,0.2,0.7,1,0.6,2.4c-0.7-0.4-1.5-0.5-2.6-0.5
					c-0.7,0-1.4,0.1-2,0.2c-0.7,0.2-1.3,0.3-2,0.5c-0.8,0.2-1.5,0.3-2.2,0.3c-1.3,0-2.7-0.4-4.1-1.2c-0.9,0.7-1.8,1.1-2.8,1.1
					c-0.9,0-1.7-0.3-2.5-1c1-2.2,1.6-4.8,1.6-7.6c0-3-0.5-5.2-1.6-6.6c1-1.4,1.6-3.6,1.6-6.6c0-2.9-0.5-5.4-1.6-7.6
					c0.7-0.7,1.6-1,2.5-1c0.9,0,1.9,0.4,2.8,1.1c1.4-0.8,2.8-1.2,4.1-1.2c0.6,0,1.4,0.1,2.2,0.3c0.7,0.2,1.3,0.4,2,0.5
					c0.7,0.2,1.3,0.2,2,0.2c1,0,1.9-0.2,2.6-0.5c0.1,1.4-0.1,2.1-0.6,2.4c0.3,0.6,0.4,1.3,0.4,2c0,1.4-0.5,2.4-1.6,3.2
					c-0.3-0.7-0.9-1.4-1.9-1.9c-1-0.5-2-0.8-3.1-0.8c-2,0-3.1,1-3.1,3v2.2c0,1,0.3,1.9,0.9,2.4c0.6,0.6,1.4,0.9,2.4,0.9
					c1.5,0,2.9-0.6,4.2-1.9c0.2,0.4,0.2,0.8,0.2,1.2c0,0.8-0.3,1.6-1,2.2c0.6,0.6,1,1.4,1,2.2c0,0.4-0.1,0.8-0.2,1.2
					C721.7,428.4,720.4,427.8,718.8,427.8z"/>
				<path fill="#FFFFFF" d="M753.3,419.6c-1.4-2.7-3.1-4.1-5.2-4.1c-1,0-1.8,0.3-2.4,1c-0.7,0.6-1,1.4-1,2.3c0,0.8,0.3,1.6,1,2.4
					c0.8,0.7,1.8,1.1,2.8,1.1c0.6,0,1.1-0.1,1.6-0.3c0.2,0.8,0.9,1.6,2,2.5c0.5,0.4,1,0.7,1.6,1.1c2.9,1.6,4.4,4,4.4,7.2
					c0,2.4-0.9,4.4-2.6,6.1c-1.9,1.8-4.5,2.8-7.6,2.8c-1.6,0-3.3-0.2-5-0.7c-0.4-0.1-0.9-0.4-1.7-0.8c-0.6-0.3-1.1-0.5-1.6-0.5
					c-0.7,0-1.5,0.3-2.3,0.9c-0.1-0.3-0.1-0.6-0.1-0.8c0-1.5,0.5-2.6,1.6-3.2c-0.3-0.4-0.5-1-0.5-1.7c0-0.9,0.3-1.9,0.8-3
					c0.9,1.7,2.2,3,3.9,3.9c1.4,0.8,2.9,1.2,4.4,1.2c1.2,0,2.3-0.3,3.1-0.8c0.8-0.5,1.2-1.3,1.2-2.1c0-0.9-0.5-1.9-1.4-2.9
					c-0.9-0.7-2-1.1-3.3-1.1c-0.7,0-1.3,0.1-1.8,0.3c-0.1-1.8-0.9-3-2.3-3.4c-2.8-1.6-4.1-3.8-4.1-6.8c0-2.3,0.8-4.3,2.5-6.1
					c1.8-1.9,3.9-2.8,6.4-2.8c1.5,0,2.9,0.4,4.4,1.1c0.3,0.2,0.7,0.4,1,0.6c0.3,0.2,0.7,0.3,1.1,0.3c0.4,0,1-0.1,1.8-0.2
					c0.1,0.2,0.1,0.5,0.1,0.7c0,0.9-0.4,1.8-1.2,2.7C754.7,417.4,754.2,418.6,753.3,419.6z"/>
			</g>
			<g id="lmXyGe_1_">
				<g>
					<path fill="#FFFFFF" d="M734.6,395.3c-0.1,0.5,0,1.2-0.3,1.5c-0.8,0.4-1.1-0.2-1.7,0c-0.7,1.8-2.6,2.7-3.5,4.4
						c0.6-0.2-0.1,0.8-0.2,0.2c0.1,0,0.2-0.2,0-0.2c-0.6,0.6,0.2,1-0.7,0.6c0,0.6,0,1.1-0.3,0.5c-0.6,0.3,0.1,0.5-0.2,0.9
						c-1.2,0.9-2.3,2.7-3.4,3.1c1-1.1,2.9-2.5,3.1-3.4c-1,1.4-3.3,3-4.2,4.1c-0.4,0.5,0.3,0.6-0.5,0.7c0,0.1,0,0.1,0,0.2
						c0.5,0.4,0.6,1.4,1.4,1.4c2.4-2.2,4.7-4.5,6.6-7c0-0.6-0.4-0.5-0.4-1c0.8-0.5,1.2-1.2,2.2-1.6c1.7,5.2-0.9,9.7-0.1,14.1
						c0.1,0.6,0.2,1.5,0.9,1.9c0.1,0,0.1,0,0.2,0c3.2-3,2-12.4,0.7-17.9c0.7-0.5,1-1.2,1.3-2c-0.1-0.3-0.1-0.8-0.4-0.8
						C734.8,395.3,734.7,395.3,734.6,395.3z M724,406.7C723.1,407.8,723.4,406.5,724,406.7L724,406.7z M723.6,408.7
						c1.8-2.4,3.7-4.7,6.2-6.7C728.4,404.5,725.7,407.2,723.6,408.7z"/>
				</g>
			</g>
		</g>
		<g id="roof">
			<polygon fill="#202021" points="450.4,350.4 450.4,360.3 454.6,360.3 454.6,373 450.4,373 450.4,378.6 903.4,378.6 903.4,373 
				899.2,373 899.2,360.3 902,360.3 902,350.4 			"/>
			<polygon fill="#333335" points="455,350.4 450.9,344.9 902.1,344.9 899.2,350.4 			"/>
			<polygon fill="#202021" points="451,344.8 901.9,344.8 905.4,337.9 901.9,330.8 639.1,295.4 504,295.4 451.7,330.7 447.7,337.7 
							"/>
		</g>
	</g>
</g>
<g id="foreground">
	<path id="tree_2_" fill="#202021" d="M971.2,201.3l20.7-10.2l-21.2,8.6l15-8.3l-15.9,6.7l7.1-5.7l-9.2,5.3l2.7-2.4l1.1-0.3
		l-0.9,0.2l3.8-3.4l-6,3.5l-1.6,0.3l2.4-2.2l2.6-0.9l-2.1,0.5l2.7-1.2l-6.1,2l-2.9,0.7l8.7-4.6l0.1,0l0,0l1.8-1l-7.4,2.5l-1.9,0.5
		l12.2-6.8l-11.8,4.6l13.3-7.3l-12,4.1l14.4-6.9l-13.9,5l15.7-7.2l-15.2,6.1l16.8-9.4l-17.8,8.6l20.5-12.5l-22,11.5l17.7-12.3
		c0,0-19.2,11.7-19,11.3c0.2-0.4,15.9-13,15.9-13L961,181l13.7-12.8l-15.1,11.9l-1,0.6L970,169l-13.6,12.8l8-10.6l-10.8,11.5l2.4-4
		l0.1,0l-0.1,0l3.1-5.2l-4.3,5.2l-1.9,0l0.5-0.9l2.9-2l-2.3,0.8l0.2-0.5l-0.5,0.6l-2.5,0.8l5.4-3.5l-6.1,2.4l6-4.9l-5.5,2.6l4.9-4.5
		l-5.3,3.2l4.8-5.1l-5.7,4.3l5.7-6.2l-6.7,5.5l7.3-8l-9.2,7.9l9.2-9.9l-11.8,10.1l8.1-8.1l-6.7,5.9l7.2-9.4l-8.7,8.9l5.6-7l-6.3,5.9
		l5.6-7.3l-7.1,6.7l6.7-8.1l-7.4,7.1l7.3-8.8l-8.1,8.5l7.5-9.8l-8.6,9.7l6.4-9.4l-7.3,8.9l5.2-9l-6.3,8.3l5.3-11.5l-6.8,11l5.8-13.9
		l-6.9,13.8l5.2-17.4l-6,17l4.2-18.3l-5.6,18.2l3.7-18.6l-4.8,18.2l2.6-19.3l-3.7,19.2l1.6-18.4l-2.6,18.3l0.3-17.4l-1.9,17.5
		l-0.4-17.4l-1,17.6l-1.7-16.5l0.1,16.6l-2-15.3l0.7,15.7l-2.9-14.4l1.8,14.6l-3.8-13.6l2.7,14.1l-4.8-12.7l4,12.5l-6.3-11.9
		l5.3,12.4l-6.2-10l6.1,12l-7.8-12.4l7.7,15.1l-3.4-5.3l-2.3-5.2l0.8,2.9l-2.1-3.2l-0.8-2l0.5,1.6l-1.9-2.8l2.1,3.6l3.4,10.8
		l-6.7-12.4l5.6,12.6l-8.2-11.8l6.4,11.9l-7.4-9.6l5.8,10.6l-4.4-5.9l1.9,6l-1.3-1.3l-1.3-6.1l-0.1,4.5l-1.3-6.9l0.2,5.4l-2.2-6.9
		l1.1,7.2l-2.9-7.6l1.2,7.2l-2.9-8.7l1.5,7.3l-3.5-6.7l2.8,7.6l-4.2-7.2l3.2,8l-5.3-8.2l4.2,8.7l-5.6-8.6l4.8,9.4l-7.6-10.9
		l6.4,11.8l-7.2-9.4l6.5,9.7l-7.4-8.6l6.9,9.7l-9.8-9.8l9.1,10.8l-10.2-8.6l10.3,9.9l-10.4-6.5l10.1,7.6l-9-5l8.2,5.9l-8.8-4.1
		l9,5.3l-8.7-3l8.5,4.4l-7.8-2.8l8,4.1l-8.5-2.8l5.7,3l-7.3-2l7.6,2.8l-7.2-1.8l7,3.1l-5.9-1.7l6.3,3.3l-5.4-1.5l5.9,3.3l-6.2-2.3
		l6.5,4.6l-11.7-5.8l5.5,4.9l-3.9-1.3l3.8,3.7l-5-2.3l3.5,3.2l-6.4-3.4l5.3,4.3l-7.2-4.1l6.1,5.4l-9.6-5.9l7.9,6.5l-10.9-6.8
		l8.4,7.7l-8.9-4.8l7.7,5.4l-12.3-5.3l11.5,6.6l-11.9-3.9l10.8,5.6l-10.9-2.9l9.2,4.8l-9.3-2.5l8.2,4l-7.5-1.1l5.9,2.8l-7.9-0.1
		l7.5,1.8l-5.2,0.7l5.8,1l-13.7,2.1l12.7-0.1l-15.8,3.2l15.3-0.5l-16.7,3L869,212l-19.9,3.9l19.8-2.1l-20.9,4.7l21.2-3.3l-17.3,4.9
		l18-3.8l-13.8,5l14.5-3.5l-3.5,1.7c-1.8,0.4-3.1,0.6-3.1,0.6c0,0,0.9-0.1,2.1-0.2l-5.6,2.7l8.3-2.9c0.5,0,1.1-0.1,1.6-0.1l-3.9,3.3
		c-0.4,0.2-0.7,0.3-0.9,0.3c0.1,0,0.4-0.1,0.7-0.2l-1.5,1.3l3-1.7c1.1-0.3,2.5-0.6,3.9-0.9l-1.4,1.8c-2.4,1.1-4.6,2.1-4.6,2.1
		l3.8-1.1l-0.5,0.6l0.8-0.7l6.6-1.9l-11,5.6l11.9-4.6l-10.6,7.9l10.9-7.1l-9.5,8.8l10.6-8.3l-9,10.7l9.8-10.1l-6.9,10.4l-6.4,0.6
		l6.1-0.1l-0.6,1l0.7-1l2.7-0.1l-0.9,1.7l-11.9,2.4l11.4-1.4L873,240l0.7-1.1l2.5-0.3l-0.8,1.8l-13.7,4.2l16.2-3.7l-0.4,1.2l0.5-1.2
		l2.7-0.6l-0.2,0.8l-13.3,5.4l13-4.2l0,0.1l0-0.1l2.6-0.8l0,0.3l-13,5.4l12.9-4.7l-0.1,0.5l-12.4,6.6l15.2-6.7l-11.9,6.5l13-4.9
		l-9.3,5.3l6.9-2.6c-6.8,3.9-11.6,6.9-11.6,6.9l19.3-9l1.1-0.2l-17.1,10.6l20.3-10.9l-19.5,14.3l19.3-13.6l-14.5,14.2l15.9-12.9
		l-13.7,13.3l13.6-11.9l-13.3,14l16.2-14.6l-17.8,21.3l15.4-15.9l-10.1,12.4l6.7-6.3l-8.4,12.4l8.4-9.4l-8.6,12.3l9-9l-8.9,11
		l8.4-7.8l-10.9,12.3l11.9-11.7L884.5,283l9.2-9.5l-4.1,5.7l5.2-4.4l-6.9,10.1l8.2-8.4l-6.5,10.1l8-8.9l-6.1,10.1l5.4-7.4l0.2,0.6
		l-2.9,5.5l3.6-5.1l1,0.4l-1.3,4.4l2.3-4.5l0.4,0.1l-0.1,1l1.2-1.3l0.6-0.3l1.7-1.1c-0.7,3-2,5.4-2,9c0,11.8,5.8,11.7,7.1,15.8
		c1.5,4.9,6,8,7.1,12.4c1.1,4.6,3.4,348,0.1,356c-3.8,8.9,23.1,9,19.2,0c-3.4-7.9-3.8-351.4-2.9-356c0.9-4.5,6.1-7.7,7.1-12.4
		c0.9-4.1,7.1-3.8,7.1-15.8c0-3.9-1.6-6.1-2.3-8.9l1.5,1l0.6,0.3l1.2,1.3l-0.1-1l0.4-0.1l2.3,4.5l-1.3-4.4l1-0.4l3.6,5.1l-2.9-5.5
		l0.2-0.6l5.4,7.4l-6.1-10.1l8,8.9l-6.5-10.1l8.2,8.4l-6.9-10.1l5.2,4.4l-4.1-5.7l9.2,9.5L952,269.1l11.9,11.7L953,268.5l8.4,7.8
		l-7.6-9.3l0-0.3l2.5,2.5l0.1,0.3l0-0.3l5.1,5.1l-5.2-7.4l-0.1-1.1l5,5.6l-3.1-4.5l-0.5-3.4l1.3,1.2l1.5,2.4l-1.3-4.3l1.5,1.6
		l2.7,4.2l-1.4-2.9l3,3.1l-3.6-4.3l-1.9-3.8l4.2,4l-2.4-4.5l2.1,1.9l-2.5-2.6l-0.2-0.3l5.3,4.2l-5.7-6.4l3.5,3l-5.8-5.6l-0.5-0.5
		l4.4,2.5l4,3.2l-2.4-2.3l9.2,5.2l-8.8-6.9l4.2,1.6l2.5,1.8l-2.3-1.7l3.4,1.3l-4.5-2.1l-0.8-0.6l6.8,2.8l-9.8-6.3l10,4.5l-3-1.9
		l1.1,0.6l-8.1-5l8.5,2.5l-1.3-0.9l4.2,2c0,0-3.4-2.1-8.4-5.1l11.3,5.1l-12.3-8.8l9.6,5.7l-7-6.3l10.2,7.7l-9.7-9.2l9.7,7.1
		l-8.4-8.3l7.2,4.7l-5.7-5.8l9.3,4.9l-8.2-6.2l14.5,7.6l-13.7-9.5l13.2,7.7l-11.7-9l10.7,6.2l-10.2-8.6l8.8,5.8l-8.3-6.9l8.3,5.5
		l-8.3-6.9l7.3,4.4l-6.1-4.9l7.1,2.1l-6.3-2.9l12.3,3l-11.9-4.1l6.6,1.1l-7.4-2.7l11.7,1.7l-10.6-3.6l8.6,1.7l-8.7-3.8l5.6,1.7
		l-5.5-4.4l12.7,3.9l-12.3-5.2l9.3,2.5l-9.7-4.8l8.7,2l-10-3.9l10.1,1.5l-9-3.5l3.8-1.3l-4-0.2l6-2l-8.5,1.2l12.2-4.9l-14.5,4.1
		l16.5-7.5l-18.9,6.9l13.1-6.6l-15,5.7l10.5-4.6l-10,3.1l15.8-6.3l-14.2,4.4l19.5-8.3l-18.9,6.1l20-9.1L971.2,201.3z M869.2,221.9
		l4.3-2.4l-0.9,1.1C871.5,221.1,870.3,221.5,869.2,221.9z M871.3,223.1l1.8-1.6c1.9-0.4,3.4-0.8,3.4-0.8
		C876.6,220.7,873.9,221.9,871.3,223.1z M875,219.7l0.7-0.6c0.7-0.1,1.2-0.1,1.2-0.1S876.1,219.3,875,219.7z M885.1,226.9l-1.3,7.8
		l-1.3,0.1L885.1,226.9z M881.5,237.9l1.8-0.2l0,0.3l-1.9,0.6L881.5,237.9z M879.7,236.8l0.3-0.7l1.7,0l-0.1,0.4L879.7,236.8z
		 M882.7,239.6l1.2-0.4v0l-1.4,0.7L882.7,239.6z M884.8,240.8L884.8,240.8l-2,0.9l0.1-0.3L884.8,240.8z M883.7,237.9l0-0.2l0.9-0.1
		L883.7,237.9z M883.1,236l-1.2,0.3l-0.2-0.3L883.1,236L883.1,236z M884,226.9l-2,8l-1.5,0.1L884,226.9z M882.8,226.8l-2.9,8.3
		l-1.6,0.2L882.8,226.8z M879.5,236.1l-0.3,0.8l-2.1,0.4l0.6-1.2L879.5,236.1z M881.6,226.2l-4,9.1l-1.8,0.2L881.6,226.2z
		 M872.7,235.7l7.6-9.7l-4.9,9.4L872.7,235.7z M874.3,237.9l1.1-1.7l1.9,0l-0.6,1.3L874.3,237.9z M875.4,240.4l1-1.8l2.3-0.3
		l-0.4,1.2L875.4,240.4z M878.5,239.4l0.5-1.2l2.2-0.3l-0.2,0.7L878.5,239.4z M880.6,241l0.3-0.8l2.2-0.5l-0.1,0.4L880.6,241z
		 M884.7,241.7l-2.1,1.1l0.1-0.5l2-0.7L884.7,241.7z M884.7,241.7l0-0.1l0.6-0.2L884.7,241.7z M884.9,240.9L884.9,240.9l0.5-0.2
		L884.9,240.9z M885.6,233.1l-1,1l1.6-7L885.6,233.1z M886.9,231.6l-0.7,0.7l0.9-5.3L886.9,231.6z M888,230.6l0.5-3.8l0.2,3.1
		L888,230.6z M890.2,228.3l0.1-1.8l0.2,1.5L890.2,228.3z M891.8,226.5l0-0.1L891.8,226.5L891.8,226.5z M912.4,159.6l2,3.5l1.6,6
		L912.4,159.6z M943.9,188.2l0.8-1.2l1.1-1.1L943.9,188.2z M950,184.7l2.4-4.8l2.1-0.7L950,184.7z M953.2,262.5l-0.4-0.6l0.4,0.5
		L953.2,262.5z M952.4,265.3l1.2,1.2l0,0.3L952.4,265.3z M954.2,263.9l0-0.4l0.9,1.1l0.3,1.1L954.2,263.9z M958.3,263.8l-0.9-1.1
		l-0.1-0.4L958.3,263.8z M957.4,265.8l-1.4-2l-0.1-1.6L957.4,265.8z M956.8,199.2l-0.4,0l0.9-0.3L956.8,199.2z M965.8,255.6l0.8,0.5
		l-3.5-1.6L965.8,255.6z M961.1,196.9l-1.1,0.2l7-3l1.4-0.5L961.1,196.9z M965.1,197.1l0.5-0.5l0.6-0.2L965.1,197.1z M967.5,195.8
		l-0.8,0.1l1.2-0.4L967.5,195.8z"/>
	<g id="mr_man_2_">
		<path fill="#202021" d="M597.8,700.5l-0.6-0.5c0,0-0.4-0.8-1.2-0.9c-0.9-0.1-1.9,0.1-3.2,0.1c-1.9-1-3.4-2.5-4.4-3.8
			c0,0,1.8-0.2,2.9-1.2c0,0-2.9-13.2-3.7-18.4c-0.8-5.3-1.8-13.9-1.7-13.9c3.3-1.5,3.9,2.8,10.8,0.1c-0.5-2.5-10.1-32-10.1-32
			c2.3-1.7,5.9,0.7,5.6-0.1s-0.8-5.4-0.8-5.4c-0.7-2.9-1.9-11.7-1.6-13c0.4-1.3-1.1-9.3-1.1-9.3s1.2-5.8-0.5-10.2
			c-1.6-4.4-1.1-11.2-2.3-12.9s-12.5-4.3-12.7-5c-0.2-0.7-0.8-1.2-0.8-1.2c-0.4-0.9-0.6-1.8-0.6-1.8l0.1-1.8c0,0,1-0.5,2-1.8
			c1-1.3,0.4-3.4,0.4-3.4c6.9-2.1,2.9-5.3-0.6-6.3c-0.1,0-0.5-4.4-0.5-4.3c-6.4-6.6-12.9-2.3-13.8-0.1c0,0-0.3,6.7-0.2,6.8
			c-1,0.1-3.1-0.8-3.7-0.7c-0.6,0.1-0.4,1-0.4,1.3c0,0.3,0.4,0.8,3.4,1.7l0.2,0.8c0,0,0.5,0.5,0.1,2.3c-0.4,1.8,0.5,2.2,0.9,4.5
			c0.3,1.8,1.4,3.3,1.4,3.3l-1.8,1.6l-12.1,5.4c-2.4,1.7-1,4.1-1.5,5.8c-0.7,2.4-1.3,7.3-2.8,10.3c-1.3,2.6-1.3,5.1-2.5,7.1
			c-1,1.6,0,4.6,0,4.6s-1,2.2-0.4,4.4c1,3.5,4,14.7,4,14.7l0.8-0.6c0,0,0.9,1.3,1.5,1.9c0.7,0.6,1.4,0.8,1.4,0.8
			c0.3,5.7-3.9,30-4.3,31.7c2.9,3.5,8.4,2.2,8.4,2.2s1.6,4.4,0.3,12.2c-1.3,7.7,0.8,21.5,0.8,21.5c0,0.4,0.1,3.4,0.2,4
			c0.1,0.7,1,2.2,1,2.2c8.5,2,10.1-0.2,10.1-0.2l-0.3-0.6c0,0,0.2-0.5-0.9-1.4c-1.1-0.9-2.5-5.3-2.5-5.3s0.9-0.2,0.9-0.2
			c1.5-1.9,1.6-26.1,1.6-29.2s0.6-4.9,1.4-5.6s7.2-1.2,8.4-0.2c1.2,1,2.5,6.4,2.5,10.8c0,4.4,3.3,13,3.1,16.2
			c-0.2,3.2,0.8,6.9,0.7,8.1s0.3,1.4,0.3,1.4l0.1,0.1l-0.5,4.4l-0.2,0.7c0-0.2-0.1,1,0.5,1.4c0.5,0.3,7.3,0.7,7.3,0.7l0.1-0.9
			l2.1,1.1C599.5,704.1,597.8,700.5,597.8,700.5z M549.9,615.7c-0.4,0.4-1.3-1.9-1.3-1.9c0.5-1.5,0.5-2.1,0.7-2.6
			c0.2-0.5-0.3-2-0.3-3c0-1,0.4-2.6,0.8-3.9c0.4-1.3,0.6-1.6,0.6-1.6s0.3,3.7,0.2,4.9C550.5,609.8,551.2,614.2,549.9,615.7z"/>
		<path fill="#202021" d="M587.8,630.1c0.8-0.7,4.1,0.1,4.4,0.4c0.3,0.3,2.8,3.2,3,3.6c0.2,0.3,1.1,2.8,1,3.9
			c-0.1,1.1-0.3,3-1.7,3.8c-1.4,0.8-1.1,0.1-1.1,0.1s-0.7,0.4-1.3,0.3c-0.5-0.1-0.2-0.9,0.2-1.1c0.4-0.3,1-0.9,1-0.9
			s-0.1-0.1-0.1-0.9c0-1.3-1.1-1.7-1.5-1c0,0,0.2,0.3,0.3,1.1c0,0.7-0.1,1.7-0.6,1.4c-0.6-0.5-0.7-2.6-1.4-3.5s-1.3-1.8-1.8-3.5
			C588,633,587.1,630.8,587.8,630.1z"/>
		<path fill="#FFFFFF" d="M561.1,573.3c0,0,2,3.7,4,4.1c2.4,0.4,6.3-5.7,6.7-6.3c0,0-1.2,5.6-2.2,7.8c-0.8,1.7,0,37.7,0,37.7
			l-2.7,0.1c0,0-3.5-36.6-3.8-37.6L561.1,573.3z"/>
		<polygon fill="#202021" points="566.6,582.1 566.7,578.4 565.6,577.4 564.5,578.5 565.1,582.1 565.8,601.2 567.3,603.8 
			568.9,601.1 		"/>
	</g>
	
		<image display="none" overflow="visible" width="1920" height="1080" xlink:href="../../../../../Pictures/Screenshots/Screenshot (12).png"  transform="matrix(0.5606 0 0 0.5606 -121.4988 836.1597)">
	</image>
	<polygon fill="#333335" points="40.1,687 0,723 0,740 263.7,740 268.9,725.9 269.8,724 283.5,687 	"/>
</g>
<g id="side_banners" display="none">
	<polygon display="inline" fill="#4D97B2" points="977.7,173.9 1440,173.9 1440,61.7 977.7,61.7 1022.5,116.5 	"/>
	<polygon display="inline" fill="#B0102D" points="977.7,456.2 1440,456.2 1440,207.1 977.7,207.1 1022.5,331.7 	"/>
	<text transform="matrix(1 0 0 1 1069.28 154.3986)" display="inline" fill="#59473C" font-family="'Lobster1.4'" font-size="72">Chula Vista</text>
	<text transform="matrix(1 0 0 1 1074.6667 151.2814)" display="inline" fill="#FFFFFF" font-family="'Lobster1.4'" font-size="72">Chula Vista</text>
</g>
</svg>
