<?xml version="1.0" encoding="utf-8"?>
<!-- Generator: Adobe Illustrator 18.1.1, SVG Export Plug-In . SVG Version: 6.00 Build 0)  -->
<!DOCTYPE svg PUBLIC "-//W3C//DTD SVG 1.1//EN" "http://www.w3.org/Graphics/SVG/1.1/DTD/svg11.dtd">
<svg version="1.1" xmlns="http://www.w3.org/2000/svg" xmlns:xlink="http://www.w3.org/1999/xlink" x="0px" y="0px"
	 viewBox="0 0 1440 780.1" enable-background="new 0 0 1440 780.1" xml:space="preserve">
<g id="Layer_1">
	
		<image display="none" overflow="visible" opacity="0.75" width="7848" height="3128" id="pic" xlink:href="../../../resources/location photos/eastlake/Photo Jan 25, 4 25 18 PM.jpg"  transform="matrix(0.1005 0 0 0.1005 297.456 305.8739)">
	</image>
	<rect id="bg" y="0.1" fill="#484C4D" width="1440" height="780"/>
	<g display="none">
		<g id="base_9_" display="inline">
			<g>
				<rect x="-139.1" y="682.5" fill-rule="evenodd" clip-rule="evenodd" fill="#F2F2F2" width="125.8" height="94.3"/>
			</g>
		</g>
		<g id="shade" display="inline">
			<g>
				<rect x="-44.7" y="745.3" fill-rule="evenodd" clip-rule="evenodd" fill="#E8E8E8" width="31.5" height="31.4"/>
			</g>
		</g>
		<g id="tint" display="inline">
			<g>
				<rect x="-44.7" y="713.9" fill-rule="evenodd" clip-rule="evenodd" fill="#FCFCFC" width="31.5" height="31.4"/>
			</g>
		</g>
		<g id="tone" display="inline">
			<g>
				<rect x="-44.7" y="682.5" fill-rule="evenodd" clip-rule="evenodd" fill="#F2F2F2" width="31.5" height="31.4"/>
			</g>
		</g>
		<g id="base_7_" display="inline">
			<g>
				<rect x="-139.1" y="563.9" fill-rule="evenodd" clip-rule="evenodd" fill="#202021" width="125.8" height="94.3"/>
			</g>
		</g>
		<g id="shade_7_" display="inline">
			<g>
				<rect x="-44.7" y="626.7" fill-rule="evenodd" clip-rule="evenodd" fill="#0D0D0D" width="31.5" height="31.4"/>
			</g>
		</g>
		<g id="tint_7_" display="inline">
			<g>
				<rect x="-44.7" y="595.3" fill-rule="evenodd" clip-rule="evenodd" fill="#333335" width="31.5" height="31.4"/>
			</g>
		</g>
		<g id="tone_7_" display="inline">
			<g>
				<rect x="-44.7" y="563.9" fill-rule="evenodd" clip-rule="evenodd" fill="#202021" width="31.5" height="31.4"/>
			</g>
		</g>
		<g id="base_5_" display="inline">
			<g>
				<rect x="-142.1" y="441.8" fill-rule="evenodd" clip-rule="evenodd" fill="#8C0D24" width="125.8" height="94.3"/>
			</g>
		</g>
		<g id="shade_5_" display="inline">
			<g>
				<rect x="-47.7" y="504.6" fill-rule="evenodd" clip-rule="evenodd" fill="#680A1B" width="31.5" height="31.4"/>
			</g>
		</g>
		<g id="tint_5_" display="inline">
			<g>
				<rect x="-47.7" y="473.2" fill-rule="evenodd" clip-rule="evenodd" fill="#B0102D" width="31.5" height="31.4"/>
			</g>
		</g>
		<g id="tone_5_" display="inline">
			<g>
				<rect x="-47.7" y="441.8" fill-rule="evenodd" clip-rule="evenodd" fill="#51484A" width="31.5" height="31.4"/>
			</g>
		</g>
		<g id="base_3_" display="inline">
			<g>
				<rect x="-142.1" y="327.7" fill-rule="evenodd" clip-rule="evenodd" fill="#26616F" width="125.8" height="94.3"/>
			</g>
		</g>
		<g id="shade_3_" display="inline">
			<g>
				<rect x="-47.7" y="390.6" fill-rule="evenodd" clip-rule="evenodd" fill="#1C4752" width="31.5" height="31.4"/>
			</g>
		</g>
		<g id="tint_3_" display="inline">
			<g>
				<rect x="-47.7" y="359.2" fill-rule="evenodd" clip-rule="evenodd" fill="#307B8C" width="31.5" height="31.4"/>
			</g>
		</g>
		<g id="tone_3_" display="inline">
			<g>
				<rect x="-47.7" y="327.7" fill-rule="evenodd" clip-rule="evenodd" fill="#484C4D" width="31.5" height="31.4"/>
			</g>
		</g>
		<g id="base_4_" display="inline">
			<g>
				<rect x="-142.1" y="213.9" fill-rule="evenodd" clip-rule="evenodd" fill="#59473C" width="125.8" height="94.3"/>
			</g>
		</g>
		<g id="shade_4_" display="inline">
			<g>
				<rect x="-47.7" y="276.7" fill-rule="evenodd" clip-rule="evenodd" fill="#42342C" width="31.5" height="31.4"/>
			</g>
		</g>
		<g id="tint_4_" display="inline">
			<g>
				<rect x="-47.7" y="245.3" fill-rule="evenodd" clip-rule="evenodd" fill="#705A4C" width="31.5" height="31.4"/>
			</g>
		</g>
		<g id="tone_4_" display="inline">
			<g>
				<rect x="-47.7" y="213.9" fill-rule="evenodd" clip-rule="evenodd" fill="#4E4A47" width="31.5" height="31.4"/>
			</g>
		</g>
	</g>
	
		<image display="none" overflow="visible" width="7848" height="3128" xlink:href="../../../resources/location photos/eastlake/Photo Jan 25, 4 25 18 PM.jpg"  transform="matrix(0.1391 0 0 0.1391 -672.2188 972.7529)">
	</image>
</g>
<g id="bg_1_" display="none">
	<g id="clouds" display="inline">
		<path id="c3_2_" fill="#FFFFFF" d="M632.6,281.1h130.3c1.3,0,1.8-1.8,0.6-2.4l-4-2.2c-0.7-0.4-0.9-1.2-0.5-1.8
			c16.4-25.2-20.7-36.1-32.2-19.9c-0.5,0.8-1,0.7-0.9-0.2c5.5-40.2-45.2-44-50.1-3.3c-0.1,0.6-0.7,1-1.3,1
			c-3.6-0.2-15.3-0.2-20.5,7.4c-4.5,6.6-3.5,12.3-2.6,14.9c0.3,0.8-0.3,1.6-1.1,1.7l-17.9,2.2C630.8,278.7,631,281.1,632.6,281.1z"
			/>
		<path id="c2_2_" fill="#FFFFFF" d="M390.5,124h135c1.4,0,1.9-1.8,0.7-2.5l-4.1-2.3c-0.7-0.4-0.9-1.3-0.5-1.9
			c17-26.1-21.4-37.4-33.3-20.6c-0.5,0.8-1.1,0.7-0.9-0.2c5.7-41.6-46.8-45.6-52-3.4c-0.1,0.6-0.7,1.1-1.4,1
			c-3.7-0.2-15.9-0.2-21.3,7.7c-4.6,6.8-3.6,12.7-2.7,15.4c0.3,0.8-0.3,1.7-1.1,1.8l-18.6,2.3C388.6,121.5,388.8,124,390.5,124z"/>
		<path id="c1_2_" fill="#FFFFFF" d="M73.9,257.2h238.9c2.5,0,3.3-3.3,1.2-4.5l-7.3-4.1c-1.2-0.7-1.6-2.2-0.8-3.4
			c30.2-46.3-38-66.1-59-36.5c-0.9,1.5-1.9,1.3-1.7-0.3c10.1-73.7-82.8-80.7-92-6c-0.1,1.1-1.3,1.9-2.4,1.8
			c-6.6-0.4-28.1-0.4-37.6,13.6c-8.2,12.1-6.3,22.5-4.7,27.3c0.5,1.4-0.5,3-2,3.1l-32.9,4.1C70.6,252.8,70.9,257.2,73.9,257.2z"/>
	</g>
</g>
<g id="base">
	<g id="barber_pat_1_">
		<g id="barber_pat">
			<polygon fill="#B0102D" points="376.3,444.5 366.2,444.5 366.2,451.7 			"/>
			<polygon fill="#307B8C" points="383.2,455.1 383.2,448.2 366.2,459.9 366.2,466.8 			"/>
			<g>
				<polygon fill="#B0102D" points="383.2,470.3 383.2,463.4 366.2,475.1 366.2,482 				"/>
				<polygon fill="#307B8C" points="372.5,485.5 383.2,485.5 383.2,478.5 				"/>
			</g>
		</g>
		<path fill="#E8E8E8" d="M366.5,443h16.1c0-2-3.7-2.9-8-2.9C370.3,440.1,366.5,441,366.5,443z"/>
		<path fill="#E8E8E8" d="M366.5,487h16.1c0,0-3.7,2.9-8,2.9C370.3,489.9,366.5,487,366.5,487z"/>
		<circle fill="#E8E8E8" cx="374.6" cy="430" r="8.1"/>
	</g>
	<g id="sw">
		<g id="side_walk">
			<polygon fill="#333335" points="217.7,616 151.8,647 275.5,647 315.7,616 			"/>
			<polygon fill="#333335" points="295.4,579 227.6,611 321.7,611 363,579 			"/>
			<polygon fill="#333335" points="402.6,548 428.5,529 402.8,529 360.4,548 			"/>
			<polygon fill="#333335" points="354.7,551 302.4,576 367.3,576 399.2,551 			"/>
		</g>
		<g>
			<polygon fill="#333335" points="290.4,677.3 318.4,652 199.2,652 152.3,652 146.7,652 64.7,687 64.8,687 60.2,689 83.8,689 
				119.5,689 277.4,689 288.6,678.9 			"/>
			<polygon fill="#333335" points="324.3,652 294.8,678.7 292.9,680.3 283.3,689 478.9,689 482.4,679.3 483,677.7 492.5,652 			"/>
			<polygon fill="#333335" points="675.6,678.2 666,652 497.1,652 487.4,678.2 486.8,679.8 483.4,689 679.6,689 676.3,679.8 			"/>
			<polygon fill="#333335" points="853.6,678.7 824,652 670.5,652 680,677.7 680.6,679.4 684.2,689 865.1,689 855.4,680.3 			"/>
			<polygon fill="#333335" points="1024.1,679.2 974.1,652 830,652 857.9,677.2 859.8,678.9 871,689 1042.4,689 			"/>
			<polygon fill="#333335" points="982.7,652 1171.5,652 1260,689 1051.6,689 			"/>
		</g>
		<g>
			<polygon fill="#333335" points="1098.4,616 1164.3,647 1023.2,647 975.1,616 			"/>
			<polygon fill="#333335" points="1020.7,579 1088.5,611 967.7,611 917.7,579 			"/>
			<g>
				<polygon fill="#333335" points="901,548 955.7,548 913.3,529 901,529 				"/>
			</g>
			<g>
				<polygon fill="#333335" points="961.4,551 901,551 901,568.3 912.7,576 1013.7,576 				"/>
			</g>
		</g>
	</g>
	<g id="side_building">
		<g id="barba">
			<path id="barber" fill="#202021" d="M656.5,557.7c-0.5,0.4-0.5,0.9-0.4,1.1s0,0.7,0.1,1c0.2,0.2,0.3,0.6,0.5,0.6
				c0,0-0.2,1.6-0.2,1.6l1,0.7c0,0,0.5-2.2,0.4-2.5c-0.1-0.3,0.7-0.7,1.9-0.2c1.3,0.5,1.8-1.1,3.1-1.1c1.3,0,2.3,0.1,2.3,0.1
				s0,0.3,0,0.4c0,0.1,0.5,0.2,0.5,0.2l2.9,1.2c0,0,0.4,0.6,0.9,0.6c0,0.2,0.3,0.8,1.1,0.9c0,0,0.4,2,1.7,2.3c0,0-1.7-0.2-2.2,1.2
				c0,0-1.3-0.2-1.9,1.2c-0.6,1.4-3,3.8-3,3.8s-4.3-1.1-4.7-1s0.2-1.7,0.3-2.2c0,0,0-0.8-0.3-1.1c-0.3-0.2-2.7-2.7-4.3-2
				c-1-0.7-1.8-0.7-3.4-0.6c0,0-1.1-1.1-2.9,0c-1.9,1-5.1,6-2.4,10.9c0,0,0.5,0.4,0.4,0.4c-0.1,0-0.4,0.2-0.7,0.6
				c-0.3,0.5-0.5,3.6-0.3,4.1s0.7,1.3,0.9,1.4c0.2,0.1,3.9,0.7,3.9,0.7s1.6-0.4,1.5-0.7c-0.1-0.4,1.1,0.8,1.8-0.2l10.3,7.8
				c0,0,1.2,2.6,2.2,4c0.3,0.3,1.1,14.8,4.4,13.7c0,0,11.4,0.5,12.3-0.2c0,0-1.1-2.2-0.8-3.4c0.3-1.2-0.1-2.2,0.6-0.8
				c0.7,1.5,1.9,3.1,3.1,2.6c1.2-0.6,5.4-3.8,7.4-3.2s2.8,0.1,2.8-0.1s1.9-2.8,4.2-2.8c2.3,0,4.1-1.7,4.4-2.8
				c0.3-1.1,1.1-5.7,1.1-6.5s8.5,11.1,8.5,11.1l0.8-0.2l1-1l-0.8-1.8c0,0,2.6-6,2.6-6.3c0.1-0.3-2-1.5-2-1.5s0.5-1.7,0.2-2.9
				c-0.6-1.9-3.5,0.6-3.5,0.6s-3.4-6.9-3.9-8c-0.5-1.1-1-4.5-8-3.6c0,0,0-2.1-3.1-1.9c-1.3-1.9-2.2-1.5-2.2-1.5l-6.4,1
				c0,0-4.1,1.7-4.5,1.6s0.1-4.5,0.1-4.5s0.3-5.8-4.1-9.9c0,0-1.3-0.4-1.4-0.7c-0.1-0.2,0-0.4-0.5-0.4c0,0-0.5-1.7-0.2-2.3
				c0.4-0.6,0.8-5.9-1.4-7s-1.3-1.4-3.8-1.4c-2.6,0-5,2.8-5,2.8s-0.6,0-0.8,0.4c-0.2,0.4-1.3,2-1,2.8c0.3,0.8,0.6,0.7,0.6,0.7
				s-0.3,0.6-0.1,0.7c0.1,0.1-1.6,0-1.8-0.3s-0.5,0.6-0.5,0.6s-2-0.5-2.5-0.5c-0.5,0.1-2.1,0.2-2.8,0.1c-0.7-0.1-1.3,0.4-1.9,0.3
				c-0.6-0.1-0.8,0.5-1.9,0.7c0,0-2-3.6-1.9-4c0,0-0.4,0.1-0.7,0.1C654.3,553.6,655.7,556.8,656.5,557.7z"/>
			<g id="acent">
				<path fill="#FFFFFF" d="M667,568.5c1,1.2,2.4,3.5,3,3.9c1,0.7-0.7,0.8-0.7,0.8s-3.9-2.5-3.7-3.1
					C665.9,569.5,667,568.5,667,568.5z"/>
				<path fill="#FFFFFF" d="M680,559.4c0,0-2.7,4.3-7.2,5c0,0-0.6,0.1-0.6,0.1s7-4.7,7.4-5.7C680,557.7,680,559.4,680,559.4z"/>
			</g>
		</g>
		<path id="side" fill="#333335" d="M889.2,649l11.8-14.2V515H582v127h1v7H889.2z M754,531h127v66H754V531z M603,531h127v66H603V531
			z"/>
		<g id="reflection">
			<linearGradient id="SVGID_1_" gradientUnits="userSpaceOnUse" x1="818.0372" y1="536" x2="818.0372" y2="587.2078">
				<stop  offset="0" style="stop-color:#E8E8E8"/>
				<stop  offset="0.4279" style="stop-color:#979999"/>
				<stop  offset="0.6741" style="stop-color:#6E7171"/>
				<stop  offset="0.8801" style="stop-color:#525657"/>
				<stop  offset="1" style="stop-color:#484C4D"/>
			</linearGradient>
			<polygon opacity="0.35" fill="url(#SVGID_1_)" points="764.4,591 817.3,591 871.7,536 816.6,536 			"/>
			<linearGradient id="SVGID_2_" gradientUnits="userSpaceOnUse" x1="664.0372" y1="536" x2="664.0372" y2="587.2078">
				<stop  offset="0" style="stop-color:#E8E8E8"/>
				<stop  offset="0.4279" style="stop-color:#979999"/>
				<stop  offset="0.6741" style="stop-color:#6E7171"/>
				<stop  offset="0.8801" style="stop-color:#525657"/>
				<stop  offset="1" style="stop-color:#484C4D"/>
			</linearGradient>
			<polygon opacity="0.35" fill="url(#SVGID_2_)" points="610.4,591 663.3,591 717.7,536 662.6,536 			"/>
		</g>
		<polygon id="roofs" fill="#202021" points="876.3,482 727.4,482 721.8,476 568.6,476 574,508.2 574,516 751.2,516 901,516 
			901,508.2 		"/>
		<g id="lads">
			<g id="sign">
				<path fill="#E8E8E8" d="M851.9,557c2.7,0,3.8-1.8,3.8-3.2c0-1.5-1.2-3-3.5-3.1c-3.1-0.1-2.6,2.2-2.3,2.4c0.6,0.5,1-0.2,0.9-0.5
					c-0.1-0.3-0.1-1,0.4-1.3c1.3-0.9,4.2,0.3,4.2,2.6c0,1.8-1.8,2.4-3.3,2.5c0.5-0.3,0.7-0.9,0.7-1.1c0-0.3,0-1.1-1-1.5
					c-1.2-0.4-1.9,1-1.1,1.4c1.3,0.6,1.3-0.4,1.1-0.7c-0.2-0.2-0.6,0-0.6-0.3c0.1-0.2,1.4,0,1.2,0.9c-0.2,1-1.7,1.1-2.7,1
					c-2.7-0.6-5.3-2.1-10.4-1.8c2.2-2.1,0.4-3.3-0.8-3.6c-1.2-0.3-1.8,1-1,1.1c3.2,0.7,1.1,2.2,0.3,2.7c-3.5-3.9-8.7-6.3-14.7-6.3
					c-5.9,0-11.3,2.5-14.7,6.4c-0.8-0.4-3.1-2,0.2-2.8c0.8-0.2,0.3-1.5-1-1.1c-1.2,0.3-3,1.5-0.8,3.6c-5.1-0.3-7.7,1.2-10.4,1.8
					c-1,0.1-2.5,0-2.7-1c-0.2-0.9,1.1-1.2,1.2-0.9s-0.3,0-0.6,0.3c-0.2,0.2-0.2,1.3,1.1,0.7c0.8-0.4,0.1-1.8-1.1-1.4
					c-1,0.4-1,1.2-1,1.5c0,0.2,0.2,0.9,0.7,1.1c-1.5-0.1-3.3-0.8-3.3-2.5c0-2.3,2.9-3.5,4.2-2.6c0.5,0.3,0.5,1,0.4,1.3
					c-0.1,0.3,0.3,1.1,0.9,0.5c0.3-0.3,0.8-2.5-2.3-2.4c-2.3,0.1-3.5,1.5-3.5,3c0,1.4,1.1,3.2,3.8,3.2H778v17h28.5
					c3.2,5,9.4,8.9,16.6,8.9s13.4-3.9,16.6-8.9H868v-17H851.9z M851,557.1c0.1,0,0.1-0.1,0.2-0.1h-10.3c0.9,0,2.1-0.8,3.2-0.5
					c-3.4-2-5-0.6-4.3,0.4c0.1,0.1,0.1,0.1,0.2,0.1h-0.4c-0.4,0-0.8-1.2-1.3-1.8C843.5,554.6,845.8,556.7,851,557.1z M795,557.1
					c5.2-0.4,7.5-2.4,12.8-1.8c0,0,0-0.1,0.1-0.1c-0.5,0.6-0.9,1.8-1.3,1.8H806c0.1,0,0.2,0,0.2-0.1c0.7-0.9-0.9-2.4-4.3-0.4
					c1.1-0.3,2.3,0.5,3.2,0.5h-10.3C794.9,557,794.9,557.1,795,557.1z M779,573v-15h27.1c-0.1,0-0.2,0-0.4,1H780v12.6
					c0,0,21.6,0.3,25.6,0.2c0.1,0.3,0.3,0.1,0.5,1.1H779z M823,581.5c-10,0-18.1-7.3-18.1-16.2c0-8.9,8.1-16.1,18.1-16.1
					c7.4,0,13.7,3.8,16.6,9.8h0c0,0,0-0.1,0-0.1c1,2,1.5,4.2,1.5,6.5C841.2,574.3,833,581.5,823,581.5z M867,573h-27
					c0.1-1,0.3-0.7,0.4-1c4.1,0.1,25.6-0.2,25.6-0.2V559h-25.6c-0.1-1-0.3-1-0.4-1h27V573z"/>
				<ellipse fill="#E8E8E8" cx="823" cy="565.3" rx="16.7" ry="14.8"/>
			</g>
			<g id="content">
				<g id="est">
					<g>
						<path fill="#484C4D" d="M786.6,561.2v1h-2.2v2.8h1.9v1h-1.9v2.6h2.2v1h-3.2v-8.3H786.6z"/>
						<path fill="#484C4D" d="M789.1,564.2c0,0.4,0.4,0.7,0.9,0.7c0.9,0.1,1.8,0.7,1.8,1.7v1.2c0,1-0.8,1.8-1.9,1.8
							c-1,0-1.9-0.8-1.9-1.8V567h1v0.8c0,0.4,0.4,0.8,0.9,0.8c0.5,0,0.9-0.4,0.9-0.8v-1.2c0-0.4-0.4-0.7-0.9-0.7
							c-1,0-1.9-0.7-1.9-1.7V563c0-1,0.8-1.8,1.9-1.8c1,0,1.9,0.8,1.9,1.8v0.8h-1V563c0-0.4-0.4-0.8-0.9-0.8c-0.5,0-0.9,0.4-0.9,0.8
							V564.2z"/>
						<path fill="#484C4D" d="M795.6,569.6h-1v-7.4h-1.3v-1h3.6v1h-1.3V569.6z"/>
					</g>
					<g id="colon">
						<g>
							<circle fill="#484C4D" cx="799" cy="562.9" r="0.9"/>
						</g>
						<g>
							<circle fill="#484C4D" cx="799" cy="567.5" r="0.9"/>
						</g>
					</g>
				</g>
				<g>
					<path fill="#484C4D" d="M845.7,563.7h-1v-1.3c0-1,0.8-1.7,1.8-1.7c1,0,1.8,0.8,1.8,1.7c0,1.2,0,1.2,0,1.5
						c0,1.3-0.8,1.8-1.5,2.3c-0.7,0.4-1.3,1.1-1.2,1.9h2.8v1h-3.8v-0.7c0-1.2,0.2-2,1.3-2.7c0.8-0.5,1.4-0.9,1.4-1.7l0-1.5
						c0-0.4-0.4-0.7-0.8-0.7c-0.4,0-0.8,0.3-0.8,0.7V563.7z"/>
					<path fill="#484C4D" d="M850.1,567.1v-4.5c0-1.1,1-2,2.1-2c1.1,0,2.1,0.9,2.1,2v4.5c0,1.1-1,2-2.1,2
						C851.1,569.1,850.1,568.3,850.1,567.1z M851.1,562.7v4.1l1.8-4.8c-0.2-0.2-0.5-0.3-0.7-0.3
						C851.6,561.7,851.1,562.1,851.1,562.7z M853.3,567.1v-3.4l-1.6,4.3c0.2,0.1,0.4,0.1,0.6,0.1
						C852.8,568.2,853.3,567.7,853.3,567.1z"/>
					<path fill="#484C4D" d="M857,569v-6.5c-0.4,0.1-0.8,0.1-1.2,0.1v-1h0.3c0.4,0,0.9,0,0.9-0.4v-0.5h1v8.3H857z"/>
					<path fill="#484C4D" d="M860.6,563.7h-1v-1.3c0-1,0.8-1.7,1.8-1.7c1,0,1.8,0.8,1.8,1.7c0,1.2,0,1.2,0,1.5
						c0,1.3-0.8,1.8-1.5,2.3c-0.7,0.4-1.3,1.1-1.2,1.9h2.8v1h-3.8v-0.7c0-1.2,0.2-2,1.3-2.7c0.8-0.5,1.4-0.9,1.4-1.7l0-1.5
						c0-0.4-0.4-0.7-0.8-0.7c-0.4,0-0.8,0.3-0.8,0.7V563.7z"/>
				</g>
				<g>
					<path fill="#484C4D" d="M818.2,560.3l-2.1,0.5l-1.5-6.3l0.7-0.2l1.3,5.6l1.3-0.3L818.2,560.3z"/>
					<path fill="#484C4D" d="M821.5,560l-0.3-0.9l-1.1,0.1l-0.1,1l-0.9,0.1l0.8-6.6l0.7-0.1l1.9,6.4L821.5,560z M821,558.3l-0.7-2.5
						c-0.1,0.8-0.2,1.6-0.3,2.6L821,558.3z"/>
					<path fill="#484C4D" d="M823.3,559.9l0.4-6.5l1.4,0.1c0.7,0,1.3,0.6,1.3,1.4l-0.3,3.9c-0.1,0.8-0.7,1.3-1.5,1.2L823.3,559.9z
						 M824.5,554.3l-0.3,5l0.6,0c0.3,0,0.6-0.2,0.6-0.5l0.3-3.9c0-0.3-0.3-0.6-0.6-0.6L824.5,554.3z"/>
					<path fill="#484C4D" d="M828.8,556.4c-0.1,0.3,0.2,0.6,0.6,0.7c0.7,0.2,1.3,0.9,1.1,1.6l-0.2,0.9c-0.2,0.7-1,1.2-1.7,1
						c-0.8-0.2-1.3-0.9-1.1-1.7l0.1-0.6l0.7,0.2l-0.1,0.6c-0.1,0.3,0.2,0.7,0.5,0.8s0.7-0.1,0.8-0.5l0.2-0.9
						c0.1-0.3-0.2-0.6-0.6-0.7c-0.8-0.2-1.3-0.9-1.1-1.6l0.2-0.9c0.2-0.7,0.9-1.2,1.7-1c0.8,0.2,1.3,0.9,1.1,1.7l-0.1,0.6l-0.7-0.2
						l0.1-0.6c0.1-0.3-0.2-0.7-0.5-0.8c-0.4-0.1-0.7,0.1-0.8,0.4L828.8,556.4z"/>
				</g>
				<g>
					<path fill="#484C4D" d="M813.1,575l1-3.7c0.2-0.7,1.1-1.1,1.9-0.9c0.8,0.2,1.3,1,1.1,1.7l-0.2,0.9l-0.7-0.2l0.2-0.9
						c0.1-0.3-0.2-0.7-0.5-0.8c-0.4-0.1-0.9,0-1,0.4l-1,3.7c-0.1,0.3,0.3,0.7,0.7,0.8c0.3,0.1,0.7,0,0.8-0.4l0.4-1.5l-0.8-0.2
						l0.2-0.7l1.5,0.4l-0.6,2.2c-0.2,0.7-1,1.1-1.8,0.9C813.5,576.4,812.9,575.7,813.1,575z"/>
					<path fill="#484C4D" d="M820.8,571.2l-0.1,0.8l-1.7-0.2l-0.3,2.2l1.5,0.2l-0.1,0.8l-1.5-0.2l-0.3,2l1.7,0.2l-0.1,0.8l-2.5-0.3
						l0.8-6.4L820.8,571.2z"/>
					<path fill="#484C4D" d="M822.5,577.7l-0.8,0l0-6.5l0.8,0l1.4,4.1l0-4.1l0.8,0l0,6.5l-0.7,0l-1.5-4.3L822.5,577.7z"/>
					<path fill="#484C4D" d="M828.2,577.3l-0.8,0.1l-0.8-5.7l-1,0.1l-0.1-0.8l2.8-0.4l0.1,0.8l-1,0.1L828.2,577.3z"/>
					<path fill="#484C4D" d="M830.5,572.7c0.1,0.3,0.5,0.4,0.8,0.4c0.7-0.1,1.5,0.1,1.7,0.9l0.2,0.9c0.2,0.7-0.3,1.5-1,1.7
						c-0.8,0.2-1.6-0.2-1.8-0.9l-0.2-0.6l0.7-0.2l0.2,0.6c0.1,0.3,0.5,0.5,0.8,0.4c0.4-0.1,0.6-0.5,0.5-0.8l-0.2-0.9
						c-0.1-0.3-0.5-0.5-0.8-0.4c-0.7,0.2-1.5-0.1-1.7-0.9l-0.3-0.9c-0.2-0.7,0.3-1.5,1-1.7c0.8-0.2,1.6,0.2,1.8,0.9l0.2,0.6
						l-0.7,0.2l-0.2-0.6c-0.1-0.3-0.5-0.5-0.8-0.4c-0.4,0.1-0.6,0.5-0.5,0.8L830.5,572.7z"/>
				</g>
				<g id="_x26_">
					<g>
						<path fill="#484C4D" d="M824.4,566.6c0.1-0.1,0.1-0.3,0.1-0.4c0-0.2,0.1-0.3,0.1-0.4h1c0,0.3-0.1,0.6-0.2,0.9
							s-0.2,0.5-0.4,0.8l0.7,1h-1.2l-0.3-0.4c-0.1,0.2-0.3,0.3-0.6,0.4c-0.2,0.1-0.5,0.1-0.8,0.1c-0.4,0-0.6-0.1-0.9-0.2
							s-0.4-0.2-0.5-0.4s-0.2-0.3-0.3-0.5c0-0.2-0.1-0.4-0.1-0.5c0-0.3,0.1-0.6,0.3-0.9c0.2-0.3,0.5-0.5,0.8-0.7l-0.2-0.3
							c-0.1-0.1-0.1-0.2-0.2-0.3c0-0.1-0.1-0.2-0.1-0.3c0-0.1,0-0.2-0.1-0.2c0-0.1,0-0.2,0-0.2c0-0.2,0-0.4,0.1-0.5s0.2-0.3,0.3-0.4
							c0.1-0.1,0.3-0.2,0.5-0.2c0.2-0.1,0.4-0.1,0.6-0.1c0.2,0,0.5,0,0.6,0.1c0.2,0.1,0.3,0.1,0.4,0.3s0.2,0.2,0.3,0.4
							s0.1,0.3,0.1,0.5c0,0.3-0.1,0.5-0.2,0.8c-0.2,0.2-0.4,0.5-0.7,0.7L824.4,566.6z M822.8,566c-0.2,0.2-0.4,0.3-0.5,0.5
							c-0.1,0.1-0.1,0.3-0.1,0.5c0,0.1,0,0.2,0.1,0.3c0,0.1,0.1,0.2,0.2,0.2s0.1,0.1,0.3,0.2s0.2,0.1,0.3,0.1c0.3,0,0.5-0.1,0.7-0.4
							L822.8,566z M822.6,564c0,0.2,0.1,0.4,0.3,0.6l0.1,0.2l0.2-0.2c0.1-0.1,0.2-0.2,0.3-0.3s0.1-0.2,0.1-0.3c0-0.2,0-0.3-0.1-0.4
							c-0.1-0.1-0.2-0.1-0.4-0.1c-0.1,0-0.3,0-0.3,0.1C822.7,563.7,822.6,563.9,822.6,564z"/>
					</g>
					<g>
						<rect x="828.4" y="565.2" fill="#484C4D" width="8.1" height="0.2"/>
					</g>
					<g>
						<rect x="810.1" y="565.2" fill="#484C4D" width="8.1" height="0.2"/>
					</g>
				</g>
			</g>
		</g>
	</g>
	<path fill="#202021" d="M439,517v131.9l14-5c0-8.1,0-74.3,0-83.7c0-14,12.4-26,33.7-26c21.3,0,33.8,11.6,33.8,26
		c0,9.4,0,75.5,0,83.7l13.5,5V517H439z"/>
	<g id="main_tower_1_">
		<polygon fill="#202021" points="583.2,325 583.2,337.7 616.7,325.3 		"/>
		<polygon fill="#202021" points="390.4,325 390.4,337.7 355.8,325.3 		"/>
		<path id="main_tower" fill="#333335" d="M486.3,274.9c0.3-0.8,0.3-1.8-0.7-2.9c0,0,0,0,0,0c-2-1.3-4.1,0.1-4.1,2l0,0.9
			c0,0.1,0,0.1-0.1,0.1l-125.5,50.3h33.9v323.4l49.4,0.1v-93.5c0-23.8,22.7-37.3,47.4-37.3c24.7,0,47.4,12.6,47.4,37.3v93.5h49.4
			V325.3h33.5L486.3,274.9L486.3,274.9z"/>
	</g>
	<g id="balcony">
		<rect x="449.8" y="415.2" fill="#202021" width="73.3" height="27.5"/>
		<polygon fill="#202021" points="503.1,453.3 469.9,453.3 449.8,444.6 523.1,444.6 		"/>
		<polygon fill="#202021" points="503.1,356.7 469.9,356.7 449.8,365.5 523.1,365.5 		"/>
		<path fill="#202021" d="M449,391v15.7v5v2.2h9v-3h56v3h8v-2.4V391H449z M463,408.1c0,1.1-0.9,1.9-1.9,1.9h-2.1
			c-1.1,0-1.9-0.9-1.9-1.9v-13.1c0-1.1,0.9-1.9,1.9-1.9h2.1c1.1,0,1.9,0.9,1.9,1.9V408.1z M476,408.1c0,1.1-0.9,1.9-1.9,1.9h-2.1
			c-1.1,0-1.9-0.9-1.9-1.9v-13.1c0-1.1,0.9-1.9,1.9-1.9h2.1c1.1,0,1.9,0.9,1.9,1.9V408.1z M489,408.1c0,1.1-0.9,1.9-1.9,1.9h-2.1
			c-1.1,0-1.9-0.9-1.9-1.9v-13.1c0-1.1,0.9-1.9,1.9-1.9h2.1c1.1,0,1.9,0.9,1.9,1.9V408.1z M502,408.1c0,1.1-0.9,1.9-1.9,1.9h-2.1
			c-1.1,0-1.9-0.9-1.9-1.9v-13.1c0-1.1,0.9-1.9,1.9-1.9h2.1c1.1,0,1.9,0.9,1.9,1.9V408.1z M514,408.1c0,1.1-0.9,1.9-1.9,1.9h-2.1
			c-1.1,0-1.9-0.9-1.9-1.9v-13.1c0-1.1,0.9-1.9,1.9-1.9h2.1c1.1,0,1.9,0.9,1.9,1.9V408.1z"/>
	</g>
	<g id="Moose_1_">
		<g>
			<path fill="#FFFFFF" d="M445.4,495.4c-0.5,0-1.1-0.2-1.5-0.7c0.4-1.3,0.6-2.4,0.6-3.4c0-1.2-0.5-2.5-1.5-4.1
				c0.2-0.6,0.4-1.1,0.4-1.6c0-0.6-0.2-1.4-0.6-2.2c-0.2-0.4-0.8-1.4-1.7-3v8.6c0.1,2.6,0.5,4.5,1.3,5.6c-0.5,0.5-1.1,0.7-1.8,0.7
				c-0.6,0-1.1-0.2-1.6-0.7c-0.4,0.5-0.9,0.7-1.4,0.7c-0.6,0-1.1-0.2-1.6-0.7c0.7-1.6,1.1-3.4,1.1-5.5c0-2.1-0.4-3.7-1.1-4.7
				c0.8-1.1,1.2-2.7,1.2-4.8c0-1.5-0.2-3-0.7-4.3l-0.4-1.1c0.9-0.4,1.7-0.7,2.4-0.7c0.7,0,1.4,0.2,2.3,0.6c0.7-0.4,1.5-0.6,2.4-0.6
				c0.6,0,1.2,0.1,1.7,0.2c0.5,0.1,0.8,0.3,0.9,0.4c-0.5,0.7-0.7,1.7-0.7,3c0,1.5,0.2,2.7,0.6,3.5l1.3,3.8l1.3-3.8
				c0.4-0.8,0.5-2,0.5-3.5c0-1.2-0.2-2.2-0.7-3c0.1-0.1,0.4-0.3,0.9-0.4c0.6-0.2,1.1-0.2,1.7-0.2c0.9,0,1.7,0.2,2.4,0.6
				c0.8-0.4,1.6-0.6,2.3-0.6c0.8,0,1.6,0.2,2.4,0.7l-0.4,1.1c-0.5,1.3-0.7,2.7-0.7,4.3c0,2.2,0.4,3.8,1.2,4.8
				c-0.7,1-1.1,2.6-1.1,4.7c0,2.1,0.4,3.9,1.1,5.5c-0.5,0.5-1,0.7-1.6,0.7c-0.5,0-1-0.2-1.4-0.7c-0.5,0.5-1.1,0.7-1.7,0.7
				c-0.6,0-1.2-0.2-1.8-0.7c0.5-0.7,0.9-1.9,1.1-3.5c0.1-0.7,0.1-1.4,0.2-2.1v-8.6c-0.9,1.5-1.4,2.5-1.7,3c-0.4,0.8-0.6,1.6-0.6,2.2
				c0,0.5,0.1,1.1,0.4,1.6c-1,1.5-1.5,2.9-1.5,4.1c0,0.9,0.2,2.1,0.7,3.4c-0.5,0.5-1,0.7-1.5,0.7c-0.5,0-1-0.2-1.4-0.7
				C446.4,495.2,445.9,495.4,445.4,495.4z"/>
			<path fill="#FFFFFF" d="M470.6,494.6c-0.9,0.4-2,0.7-3.3,0.8c-1.3-0.1-2.4-0.3-3.3-0.7c-2.2-1-3.3-2.9-3.3-5.5v-2.5
				c-0.1-1.1-0.4-1.9-1.1-2.2c0.5-0.2,0.8-0.7,1-1.3c0.1-0.3,0.1-0.6,0.1-0.9V480c0-2.6,1.1-4.4,3.3-5.4c0.9-0.4,2-0.7,3.3-0.8
				c1.3,0.1,2.4,0.4,3.3,0.8c2.2,1.1,3.3,2.9,3.3,5.4v2.4c0.1,1.1,0.4,1.9,1.1,2.2c-0.5,0.2-0.8,0.7-1,1.3c-0.1,0.3-0.1,0.6-0.1,0.9
				v2.5C473.9,491.8,472.8,493.6,470.6,494.6z M469.6,486.7c-0.1-1.1-0.4-1.9-1.1-2.2c0.5-0.2,0.8-0.7,1-1.3
				c0.1-0.3,0.1-0.6,0.1-0.9v-2.2c0-0.8-0.2-1.4-0.7-1.9c-0.4-0.5-1-0.7-1.5-0.7c-0.6,0-1.1,0.2-1.5,0.7c-0.4,0.5-0.7,1.1-0.7,1.9
				v2.2c0.1,1.1,0.4,1.9,1.1,2.2c-0.5,0.2-0.8,0.7-1,1.3c-0.1,0.3-0.1,0.6-0.1,0.9v2.2c0,0.8,0.2,1.4,0.7,1.9
				c0.4,0.4,0.9,0.7,1.5,0.7c0.6,0,1.1-0.2,1.5-0.7c0.4-0.4,0.7-1.1,0.7-1.9V486.7z"/>
			<path fill="#FFFFFF" d="M487.8,494.6c-0.9,0.4-2,0.7-3.3,0.8c-1.3-0.1-2.4-0.3-3.3-0.7c-2.2-1-3.3-2.9-3.3-5.5v-2.5
				c-0.1-1.1-0.4-1.9-1.1-2.2c0.5-0.2,0.8-0.7,1-1.3c0.1-0.3,0.1-0.6,0.1-0.9V480c0-2.6,1.1-4.4,3.3-5.4c0.9-0.4,2-0.7,3.3-0.8
				c1.3,0.1,2.4,0.4,3.3,0.8c2.2,1.1,3.3,2.9,3.3,5.4v2.4c0.1,1.1,0.4,1.9,1.1,2.2c-0.5,0.2-0.8,0.7-1,1.3c-0.1,0.3-0.1,0.6-0.1,0.9
				v2.5C491.1,491.8,490,493.6,487.8,494.6z M486.8,486.7c-0.1-1.1-0.4-1.9-1.1-2.2c0.5-0.2,0.8-0.7,1-1.3c0.1-0.3,0.1-0.6,0.1-0.9
				v-2.2c0-0.8-0.2-1.4-0.7-1.9c-0.4-0.5-1-0.7-1.5-0.7c-0.6,0-1.1,0.2-1.5,0.7c-0.4,0.5-0.7,1.1-0.7,1.9v2.2
				c0.1,1.1,0.4,1.9,1.1,2.2c-0.5,0.2-0.8,0.7-1,1.3c-0.1,0.3-0.1,0.6-0.1,0.9v2.2c0,0.8,0.2,1.4,0.7,1.9c0.4,0.4,0.9,0.7,1.5,0.7
				c0.6,0,1.1-0.2,1.5-0.7c0.4-0.4,0.7-1.1,0.7-1.9V486.7z"/>
			<path fill="#FFFFFF" d="M504.1,479.9c-1-1.9-2.2-2.9-3.7-2.9c-0.7,0-1.3,0.2-1.7,0.7c-0.5,0.5-0.7,1-0.7,1.6
				c0,0.6,0.2,1.2,0.7,1.7c0.6,0.5,1.3,0.8,2,0.8c0.4,0,0.8-0.1,1.1-0.2c0.1,0.6,0.6,1.2,1.4,1.8c0.3,0.3,0.7,0.5,1.1,0.8
				c2.1,1.1,3.1,2.8,3.1,5.1c0,1.7-0.6,3.1-1.8,4.3c-1.4,1.3-3.2,2-5.4,2c-1.1,0-2.3-0.2-3.6-0.5c-0.3-0.1-0.7-0.3-1.2-0.5
				c-0.4-0.2-0.8-0.3-1.1-0.3c-0.5,0-1,0.2-1.7,0.7c0-0.2-0.1-0.4-0.1-0.6c0-1.1,0.4-1.8,1.1-2.3c-0.2-0.3-0.4-0.7-0.4-1.2
				c0-0.7,0.2-1.4,0.5-2.1c0.7,1.2,1.6,2.1,2.7,2.7c1,0.6,2,0.8,3.1,0.8c0.9,0,1.6-0.2,2.2-0.6c0.6-0.4,0.9-0.9,0.9-1.5
				c0-0.7-0.3-1.3-1-2.1c-0.6-0.5-1.4-0.8-2.3-0.8c-0.5,0-0.9,0.1-1.3,0.2c-0.1-1.3-0.6-2.1-1.6-2.4c-2-1.1-2.9-2.7-2.9-4.8
				c0-1.6,0.6-3.1,1.8-4.3c1.2-1.3,2.8-2,4.5-2c1,0,2.1,0.3,3.1,0.8c0.2,0.1,0.5,0.3,0.7,0.4c0.2,0.1,0.5,0.2,0.8,0.2
				c0.3,0,0.7,0,1.3-0.1c0,0.2,0.1,0.3,0.1,0.5c0,0.7-0.3,1.3-0.8,1.9C505,478.3,504.7,479.1,504.1,479.9z"/>
			<path fill="#FFFFFF" d="M517,485.7c-0.7,0-1.2,0.2-1.7,0.6c-0.5,0.4-0.7,1-0.7,1.8v1.5c0,1.4,0.7,2.1,2.2,2.1
				c0.7,0,1.5-0.2,2.2-0.6c0.7-0.4,1.2-0.8,1.3-1.4c0.8,0.6,1.1,1.3,1.1,2.3c0,0.5-0.1,1-0.3,1.4c0.4,0.2,0.5,0.7,0.4,1.7
				c-0.5-0.3-1.1-0.4-1.8-0.4c-0.5,0-1,0.1-1.4,0.2c-0.5,0.1-0.9,0.2-1.4,0.4c-0.6,0.1-1.1,0.2-1.6,0.2c-0.9,0-1.9-0.3-2.9-0.9
				c-0.6,0.5-1.3,0.8-2,0.8c-0.7,0-1.2-0.2-1.8-0.7c0.7-1.6,1.1-3.4,1.1-5.4c0-2.1-0.4-3.7-1.1-4.7c0.7-1,1.1-2.6,1.1-4.7
				c0-2-0.4-3.8-1.1-5.4c0.5-0.5,1.1-0.7,1.8-0.7c0.7,0,1.3,0.3,2,0.8c1-0.6,2-0.9,2.9-0.9c0.5,0,1,0.1,1.6,0.2
				c0.5,0.1,0.9,0.3,1.4,0.4c0.5,0.1,1,0.2,1.4,0.2c0.7,0,1.4-0.1,1.8-0.4c0.1,1,0,1.5-0.4,1.7c0.2,0.4,0.3,0.9,0.3,1.4
				c0,1-0.4,1.7-1.1,2.3c-0.2-0.5-0.6-1-1.3-1.4c-0.7-0.4-1.4-0.6-2.2-0.6c-1.5,0-2.2,0.7-2.2,2.1v1.5c0,0.7,0.2,1.3,0.7,1.7
				c0.4,0.4,1,0.6,1.7,0.6c1.1,0,2.1-0.4,3-1.3c0.1,0.3,0.2,0.5,0.2,0.8c0,0.6-0.2,1.1-0.7,1.6c0.5,0.5,0.7,1,0.7,1.6
				c0,0.3-0.1,0.6-0.2,0.8C519.1,486.1,518.1,485.7,517,485.7z"/>
			<path fill="#FFFFFF" d="M541.5,479.9c-1-1.9-2.2-2.9-3.7-2.9c-0.7,0-1.3,0.2-1.7,0.7c-0.5,0.5-0.7,1-0.7,1.6
				c0,0.6,0.2,1.2,0.7,1.7c0.6,0.5,1.3,0.8,2,0.8c0.4,0,0.8-0.1,1.1-0.2c0.1,0.6,0.6,1.2,1.4,1.8c0.3,0.3,0.7,0.5,1.1,0.8
				c2.1,1.1,3.1,2.8,3.1,5.1c0,1.7-0.6,3.1-1.8,4.3c-1.4,1.3-3.2,2-5.4,2c-1.1,0-2.3-0.2-3.6-0.5c-0.3-0.1-0.7-0.3-1.2-0.5
				c-0.4-0.2-0.8-0.3-1.1-0.3c-0.5,0-1,0.2-1.7,0.7c0-0.2-0.1-0.4-0.1-0.6c0-1.1,0.4-1.8,1.1-2.3c-0.2-0.3-0.4-0.7-0.4-1.2
				c0-0.7,0.2-1.4,0.5-2.1c0.7,1.2,1.6,2.1,2.7,2.7c1,0.6,2,0.8,3.1,0.8c0.9,0,1.6-0.2,2.2-0.6c0.6-0.4,0.9-0.9,0.9-1.5
				c0-0.7-0.3-1.3-1-2.1c-0.6-0.5-1.4-0.8-2.3-0.8c-0.5,0-0.9,0.1-1.3,0.2c-0.1-1.3-0.6-2.1-1.6-2.4c-2-1.1-2.9-2.7-2.9-4.8
				c0-1.6,0.6-3.1,1.8-4.3c1.3-1.3,2.8-2,4.5-2c1,0,2.1,0.3,3.1,0.8c0.2,0.1,0.5,0.3,0.7,0.4c0.2,0.1,0.5,0.2,0.8,0.2
				c0.3,0,0.7,0,1.3-0.1c0,0.2,0.1,0.3,0.1,0.5c0,0.7-0.3,1.3-0.8,1.9C542.5,478.3,542.2,479.1,541.5,479.9z"/>
		</g>
		<g id="lmXyGe_2_">
			<g>
				<path fill="#FFFFFF" d="M528.2,462.6c-0.1,0.3,0,0.8-0.2,1.1c-0.6,0.3-0.7-0.1-1.2,0c-0.5,1.3-1.9,1.9-2.5,3.1
					c0.4-0.2-0.1,0.6-0.1,0.2c0.1,0,0.1-0.2,0-0.1c-0.4,0.4,0.1,0.7-0.5,0.4c0,0.4,0,0.8-0.2,0.3c-0.5,0.2,0.1,0.3-0.2,0.6
					c-0.9,0.6-1.6,1.9-2.4,2.2c0.7-0.7,2-1.8,2.2-2.4c-0.7,1-2.4,2.1-3,2.9c-0.3,0.3,0.2,0.5-0.3,0.5c0,0,0,0.1,0,0.1
					c0.3,0.3,0.4,1,1,1c1.7-1.6,3.3-3.2,4.7-4.9c0-0.4-0.3-0.3-0.3-0.7c0.6-0.3,0.8-0.9,1.6-1.1c1.2,3.7-0.7,6.9,0,10
					c0.1,0.4,0.1,1.1,0.6,1.4c0,0,0.1,0,0.1,0c2.3-2.1,1.4-8.8,0.5-12.7c0.5-0.3,0.7-0.9,0.9-1.4c-0.1-0.2-0.1-0.6-0.3-0.5
					C528.4,462.6,528.3,462.6,528.2,462.6z M520.7,470.7C520,471.5,520.2,470.6,520.7,470.7L520.7,470.7z M520.4,472.1
					c1.3-1.7,2.6-3.4,4.4-4.7C523.8,469.1,521.9,471,520.4,472.1z"/>
			</g>
		</g>
	</g>
</g>
<g id="foreground">
	<g id="lamp_1_">
		<path fill="#202021" d="M132.3,490.1l-18.4,3c-0.9,0.1-1.4-1-0.7-1.5l8.6-6.8c0.1-0.1,0.2-0.1,0.3-0.2l10.1-2.5c0.1,0,0.3,0,0.4,0
			l9.2,2.5c0.1,0,0.2,0.1,0.3,0.1l9.1,6.8c0.7,0.5,0.2,1.7-0.7,1.5l-18-2.9C132.5,490.1,132.4,490.1,132.3,490.1z"/>
		<path fill="#202021" d="M141.7,525.5c0.8-0.2,1.4-0.8,1.7-1.5l9.7-26.3c0.5-1.5-0.4-3.1-1.9-3.3l-18.2-3c-0.3,0-0.5,0-0.8,0
			l-18.4,3c-1.6,0.3-2.5,1.9-1.9,3.3l9.9,26.2c0.3,0.7,0.9,1.3,1.7,1.5l4.2,1.2c0.4,15.3,1.8,120.5-2,140.5c-4.5,2-7.6,5.3-7.6,6.3
			c0,1.4,6.5,2.6,14.6,2.6s14.6-1.2,14.6-2.6c0-1-3.2-4.4-7.8-6.3c-4.1-20-2.4-125-1.9-140.3L141.7,525.5z M135,499.2
			c0-1.5,1.6-2.7,3.1-2.5l6.1,0.9c1.5,0.2,2.5,1.8,2.1,3.2l-6,18.8c-0.3,0.8-1.1,1.4-2,1.7c-1.6,0.4-3.4-0.8-3.4-2.4V499.2z
			 M126.4,521.4l0.2,0c-0.8-0.2-1.4-0.8-1.6-1.6l-6-18.8c-0.5-1.5,0.5-3,2-3.2l5.6-0.9c1.5-0.2,2.4,0.9,2.4,2.5v19.8
			C129,520.6,127.9,521.8,126.4,521.4z"/>
	</g>
	<g id="cicyle_1_">
		<g>
			<g>
				<g>
					<path fill="#202021" d="M878,622h-2v-20h2V622z M877,622h1v-20h-1V622z"/>
				</g>
				<g>
					<path fill="#202021" d="M880.1,623.4l-2.7-0.8l6.3-20l2.7,0.8L880.1,623.4z M878.1,622.1l1.6,0.5l6-18.9l-1.6-0.5L878.1,622.1z
						"/>
				</g>
				<g>
					<path fill="#202021" d="M880.8,624.2l-2.3-1.6l11.9-17.3l2.3,1.6L880.8,624.2z M879.3,622.4l1.4,0.9l11.2-16.3l-1.4-0.9
						L879.3,622.4z"/>
				</g>
				<g>
					<path fill="#202021" d="M881.3,625.2l-1.8-2.2l16.3-13.1l1.8,2.2L881.3,625.2z M880.3,623.1l1,1.3l15.4-12.4l-1-1.3
						L880.3,623.1z"/>
				</g>
				<g>
					<path fill="#202021" d="M881.4,626.3l-1-2.6l19.5-7.8l1,2.6L881.4,626.3z M881.1,624l0.6,1.5l18.4-7.4l-0.6-1.5L881.1,624z"/>
				</g>
				<g>
					<path fill="#202021" d="M881.2,627.4l-0.2-2.8l20.9-1.6l0.2,2.8L881.2,627.4z M881.6,625.1l0.1,1.7l19.7-1.5l-0.1-1.7
						L881.6,625.1z"/>
				</g>
				<g>
					<path fill="#202021" d="M901.1,633.2l-20.4-4.8l0.6-2.7l20.4,4.8L901.1,633.2z M881.4,628l19.3,4.5l0.4-1.6l-19.3-4.5
						L881.4,628z"/>
				</g>
				<g>
					<path fill="#202021" d="M898,639.8L880,629.2l1.4-2.4l18.1,10.6L898,639.8z M880.8,629l17.1,10l0.8-1.4l-17.1-10L880.8,629z"/>
				</g>
				<g>
					<path fill="#202021" d="M893.3,645.1L879,629.8l2.1-1.9l14.3,15.3L893.3,645.1z M879.8,629.8l13.5,14.5l1.2-1.1L881,628.7
						L879.8,629.8z"/>
				</g>
				<g>
					<path fill="#202021" d="M887.2,648.8l-9.2-18.8l2.5-1.2l9.2,18.8L887.2,648.8z M878.7,630.3l8.7,17.8l1.5-0.7l-8.7-17.8
						L878.7,630.3z"/>
				</g>
				<g>
					<path fill="#202021" d="M880,650.6l-3.2-20.7l2.8-0.4l3.2,20.7L880,650.6z M877.5,630.4l3,19.6l1.6-0.3l-3-19.6L877.5,630.4z"
						/>
				</g>
				<g>
					<path fill="#202021" d="M875.3,650.6l-2.8-0.4l3.2-20.7l2.8,0.4L875.3,650.6z M873.2,649.7l1.6,0.3l3-19.6l-1.6-0.3
						L873.2,649.7z"/>
				</g>
				<g>
					<path fill="#202021" d="M868.2,648.8l-2.5-1.2l9.2-18.8l2.5,1.2L868.2,648.8z M866.4,647.3l1.5,0.7l8.7-17.8l-1.5-0.7
						L866.4,647.3z"/>
				</g>
				<g>
					<path fill="#202021" d="M862.1,645.1l-2.1-1.9l14.3-15.3l2.1,1.9L862.1,645.1z M860.8,643.2l1.2,1.1l13.5-14.5l-1.2-1.1
						L860.8,643.2z"/>
				</g>
				<g>
					<path fill="#202021" d="M857.3,639.8l-1.4-2.4l18.1-10.6l1.4,2.4L857.3,639.8z M856.7,637.6l0.8,1.4l17.1-10l-0.8-1.4
						L856.7,637.6z"/>
				</g>
				<g>
					<path fill="#202021" d="M854.2,633.2l-0.6-2.7l20.4-4.8l0.6,2.7L854.2,633.2z M854.3,630.9l0.4,1.6l19.3-4.5l-0.4-1.6
						L854.3,630.9z"/>
				</g>
				<g>
					<path fill="#202021" d="M874.1,627.4l-20.9-1.6l0.2-2.8l20.9,1.6L874.1,627.4z M853.8,625.2l19.7,1.5l0.1-1.7l-19.7-1.5
						L853.8,625.2z"/>
				</g>
				<g>
					<path fill="#202021" d="M873.9,626.3l-19.5-7.8l1-2.6l19.5,7.8L873.9,626.3z M855.2,618.1l18.4,7.4l0.6-1.5l-18.4-7.4
						L855.2,618.1z"/>
				</g>
				<g>
					<path fill="#202021" d="M874.1,625.2l-16.3-13.1l1.8-2.2l16.3,13.1L874.1,625.2z M858.5,612l15.4,12.4l1-1.3l-15.4-12.4
						L858.5,612z"/>
				</g>
				<g>
					<path fill="#202021" d="M874.5,624.2l-11.9-17.3l2.3-1.6l11.9,17.3L874.5,624.2z M863.5,607.1l11.2,16.3l1.4-0.9l-11.2-16.3
						L863.5,607.1z"/>
				</g>
				<g>
					<path fill="#202021" d="M875.3,623.4l-6.3-20l2.7-0.8l6.3,20L875.3,623.4z M869.7,603.7l6,18.9l1.6-0.5l-6-18.9L869.7,603.7z"
						/>
				</g>
				<g>
					<path fill="#202021" d="M878,622h-2v-20h2V622z M877,622h1v-20h-1V622z"/>
				</g>
			</g>
			<g>
				<path fill="#202021" d="M877.7,602.9c3.1,0,6.2,0.6,9.1,1.8c2.8,1.2,5.3,2.9,7.4,5c2.1,2.1,3.8,4.6,5,7.4
					c1.2,2.9,1.8,5.9,1.8,9.1s-0.6,6.2-1.8,9.1c-1.2,2.8-2.9,5.3-5,7.4c-2.1,2.1-4.6,3.8-7.4,5c-2.9,1.2-5.9,1.8-9.1,1.8
					s-6.2-0.6-9.1-1.8c-2.8-1.2-5.3-2.9-7.4-5c-2.1-2.1-3.8-4.6-5-7.4c-1.2-2.9-1.8-5.9-1.8-9.1s0.6-6.2,1.8-9.1
					c1.2-2.8,2.9-5.3,5-7.4c2.1-2.1,4.6-3.8,7.4-5C871.5,603.5,874.5,602.9,877.7,602.9 M877.7,602.1c-13.3,0-24.1,10.8-24.1,24.1
					s10.8,24.1,24.1,24.1s24.1-10.8,24.1-24.1S891,602.1,877.7,602.1L877.7,602.1z"/>
				<path fill="#202021" d="M877.7,602.7c3.2,0,6.3,0.6,9.2,1.9c2.8,1.2,5.3,2.9,7.5,5c2.2,2.2,3.9,4.7,5,7.5c1.2,2.9,1.9,6,1.9,9.2
					c0,3.2-0.6,6.3-1.9,9.2c-1.2,2.8-2.9,5.3-5,7.5c-2.2,2.2-4.7,3.9-7.5,5c-2.9,1.2-6,1.9-9.2,1.9c-3.2,0-6.3-0.6-9.2-1.9
					c-2.8-1.2-5.3-2.9-7.5-5c-2.2-2.2-3.9-4.7-5-7.5c-1.2-2.9-1.9-6-1.9-9.2c0-3.2,0.6-6.3,1.9-9.2c1.2-2.8,2.9-5.3,5-7.5
					c2.2-2.2,4.7-3.9,7.5-5C871.4,603.3,874.5,602.7,877.7,602.7 M877.7,602.1c-13.3,0-24.1,10.8-24.1,24.1s10.8,24.1,24.1,24.1
					s24.1-10.8,24.1-24.1S891,602.1,877.7,602.1L877.7,602.1z"/>
				<path fill="#202021" d="M877.7,602.1c13.3,0,24.1,10.8,24.1,24.1s-10.8,24.1-24.1,24.1s-24.1-10.8-24.1-24.1
					S864.3,602.1,877.7,602.1 M877.7,601c-3.4,0-6.7,0.7-9.8,2c-3,1.3-5.7,3.1-8,5.4s-4.1,5-5.4,8c-1.3,3.1-2,6.4-2,9.8
					c0,3.4,0.7,6.7,2,9.8c1.3,3,3.1,5.7,5.4,8c2.3,2.3,5,4.1,8,5.4c3.1,1.3,6.4,2,9.8,2c3.4,0,6.7-0.7,9.8-2c3-1.3,5.7-3.1,8-5.4
					c2.3-2.3,4.1-5,5.4-8c1.3-3.1,2-6.4,2-9.8c0-3.4-0.7-6.7-2-9.8c-1.3-3-3.1-5.7-5.4-8c-2.3-2.3-5-4.1-8-5.4
					C884.4,601.6,881.1,601,877.7,601L877.7,601z"/>
			</g>
		</g>
		<g id="wheel_2_">
			<g>
				<g>
					<path fill="#202021" d="M918,639h-1v-9h1V639z M917,639h1v-7h-1V639z"/>
				</g>
				<g>
					<path fill="#202021" d="M919.4,639.8l-1.2-0.4l2.5-7.9l1.2,0.4L919.4,639.8z M918.7,639.2l0.5,0.2l2.3-7.2l-0.5-0.2
						L918.7,639.2z"/>
				</g>
				<g>
					<path fill="#202021" d="M919.6,640.1l-1-0.7l4.7-6.8l1,0.7L919.6,640.1z M919.1,639.4l0.4,0.3l4.3-6.2l-0.4-0.3L919.1,639.4z"
						/>
				</g>
				<g>
					<path fill="#202021" d="M919.8,640.5l-0.8-1l6.4-5.2l0.8,1L919.8,640.5z M919.5,639.6l0.3,0.4l5.9-4.7l-0.3-0.4L919.5,639.6z"
						/>
				</g>
				<g>
					<path fill="#202021" d="M919.8,640.9l-0.5-1.1l7.7-3.1l0.5,1.1L919.8,640.9z M919.8,640l0.2,0.5l7-2.8l-0.2-0.5L919.8,640z"/>
				</g>
				<g>
					<path fill="#202021" d="M919.7,641.4l-0.1-1.2l8.2-0.6l0.1,1.2L919.7,641.4z M920,640.5l0,0.5l7.5-0.6l0-0.5L920,640.5z"/>
				</g>
				<g>
					<path fill="#202021" d="M927.6,643.6l-8-1.9l0.3-1.2l8,1.9L927.6,643.6z M920,641.5l7.4,1.7l0.1-0.5l-7.4-1.7L920,641.5z"/>
				</g>
				<g>
					<path fill="#202021" d="M926.3,646.2l-7.1-4.2l0.6-1.1l7.1,4.2L926.3,646.2z M919.7,641.9l6.5,3.8l0.3-0.4l-6.5-3.8
						L919.7,641.9z"/>
				</g>
				<g>
					<path fill="#202021" d="M924.5,648.3l-5.6-6l0.9-0.8l5.6,6L924.5,648.3z M919.3,642.2l5.1,5.5l0.4-0.4l-5.1-5.5L919.3,642.2z"
						/>
				</g>
				<g>
					<path fill="#202021" d="M922.1,649.7l-3.6-7.4l1.1-0.5l3.6,7.4L922.1,649.7z M918.9,642.4l3.3,6.8l0.5-0.2l-3.3-6.8
						L918.9,642.4z"/>
				</g>
				<g>
					<path fill="#202021" d="M919.3,650.4l-1.3-8.2l1.2-0.2l1.3,8.2L919.3,650.4z M918.4,642.5l1.2,7.5l0.5-0.1l-1.2-7.5
						L918.4,642.5z"/>
				</g>
				<g>
					<path fill="#202021" d="M917.6,650.4l-1.2-0.2l1.3-8.2l1.2,0.2L917.6,650.4z M916.7,649.9l0.5,0.1l1.2-7.5l-0.5-0.1
						L916.7,649.9z"/>
				</g>
				<g>
					<path fill="#202021" d="M914.8,649.7l-1.1-0.5l3.6-7.4l1.1,0.5L914.8,649.7z M914.1,649l0.5,0.2l3.3-6.8l-0.5-0.2L914.1,649z"
						/>
				</g>
				<g>
					<path fill="#202021" d="M912.4,648.3l-0.9-0.8l5.6-6l0.9,0.8L912.4,648.3z M912,647.4l0.4,0.4l5.1-5.5l-0.4-0.4L912,647.4z"/>
				</g>
				<g>
					<path fill="#202021" d="M910.5,646.2l-0.6-1.1l7.1-4.2l0.6,1.1L910.5,646.2z M910.4,645.3l0.3,0.4l6.5-3.8l-0.3-0.4
						L910.4,645.3z"/>
				</g>
				<g>
					<path fill="#202021" d="M909.3,643.6l-0.3-1.2l8-1.9l0.3,1.2L909.3,643.6z M909.4,642.7l0.1,0.5l7.4-1.7l-0.1-0.5L909.4,642.7z
						"/>
				</g>
				<g>
					<path fill="#202021" d="M917.1,641.4l-8.2-0.6l0.1-1.2l8.2,0.6L917.1,641.4z M909.2,640.4l7.5,0.6l0-0.5l-7.5-0.6L909.2,640.4z
						"/>
				</g>
				<g>
					<path fill="#202021" d="M917,640.9l-7.7-3.1l0.5-1.1l7.7,3.1L917,640.9z M909.8,637.7l7,2.8l0.2-0.5l-7-2.8L909.8,637.7z"/>
				</g>
				<g>
					<path fill="#202021" d="M917,640.5l-6.4-5.2l0.8-1l6.4,5.2L917,640.5z M911.1,635.3l5.9,4.7l0.3-0.4l-5.9-4.7L911.1,635.3z"/>
				</g>
				<g>
					<path fill="#202021" d="M917.2,640.1l-4.7-6.8l1-0.7l4.7,6.8L917.2,640.1z M913,633.4l4.3,6.2l0.4-0.3l-4.3-6.2L913,633.4z"/>
				</g>
				<g>
					<path fill="#202021" d="M917.4,639.8l-2.5-7.9l1.2-0.4l2.5,7.9L917.4,639.8z M915.4,632.2l2.3,7.2l0.5-0.2l-2.3-7.2
						L915.4,632.2z"/>
				</g>
				<g>
					<path fill="#202021" d="M918,639h-1v-9h1V639z M917,639h1v-7h-1V639z"/>
				</g>
			</g>
			<g>
				<path fill="#202021" d="M918.4,632.3c4.7,0,8.5,3.8,8.5,8.5s-3.8,8.5-8.5,8.5s-8.5-3.8-8.5-8.5S913.7,632.3,918.4,632.3
					 M918.4,631.5c-5.2,0-9.4,4.2-9.4,9.4s4.2,9.4,9.4,9.4s9.4-4.2,9.4-9.4S923.6,631.5,918.4,631.5L918.4,631.5z"/>
				<path fill="#202021" d="M918.4,632.1c4.8,0,8.8,3.9,8.8,8.8s-3.9,8.8-8.8,8.8s-8.8-3.9-8.8-8.8S913.6,632.1,918.4,632.1
					 M918.4,631.5c-5.2,0-9.4,4.2-9.4,9.4s4.2,9.4,9.4,9.4s9.4-4.2,9.4-9.4S923.6,631.5,918.4,631.5L918.4,631.5z"/>
				<path fill="#202021" d="M918.4,631.5c5.2,0,9.4,4.2,9.4,9.4s-4.2,9.4-9.4,9.4s-9.4-4.2-9.4-9.4S913.3,631.5,918.4,631.5
					 M918.4,630.3c-5.8,0-10.5,4.7-10.5,10.5c0,5.8,4.7,10.5,10.5,10.5c5.8,0,10.5-4.7,10.5-10.5
					C928.9,635.1,924.2,630.3,918.4,630.3L918.4,630.3z"/>
			</g>
		</g>
		<path fill="#202021" d="M920,641h-0.7c0-7,0-13-0.6-19.3c-0.7-7.2-1.7-13.1-4-17.8c-2.6-5.4-5.7-9.5-10.7-12.5v-2.6l2.8,1.7
			c1.6,0.8,3.2,0,3.2-1.5v-5.3c0-1-0.9-1.7-2.2-1.7h-10.4c-2.4,0-3.1,2.3-1.1,3.2l4.8,2.3v2.5c-7-2.8-12.8-4.2-21.2-4.4
			c-0.1-1-0.9-1.8-1.9-1.8c-1.1,0-1.9,0.9-1.9,2v6.5c0,0.3-0.3,0.6-0.2,1.6h0.2v30.9c0,0.4-0.5,0.8-0.5,1.3c0,1.2,1,2.2,2.2,2.2
			s1.5-1,1.5-2.2c0-0.5-0.2-0.9-1.2-1.3V594h1.4c0.1-1-0.4-1.3-0.4-1.6v-4.9c17,0.3,27.9,5.9,33.3,17.2c4.9,10.2,5.1,23.4,5.1,36
			c0,0.1,0,0.1,0,0.2c0,0.5,0.8,0.9,1.3,0.9s1.3-0.4,1.3-0.9C920,640.9,920,641,920,641z"/>
	</g>
	<g id="mr_1_">
		<path id="right_hand_1_" fill="#202021" d="M339.4,620.4c-0.6,0.1-1.9,0.5-1.9,0.5s-1.1,1.9-1.2,2.5c0,0.5-0.1,1.9,0,2.4
			c0.1,0.5,0.8,1.7,1.1,1.9c0.3,0.2,0.8,0.6,0.9,0.8c0.2,0.1,0.6-0.1,0.6-0.1s0.2,0,0.4,0c0.1-0.1,0.3-0.3,0.3-0.3s0.3,0,0.3-0.1
			c0.1-0.1,0.6-0.6-0.4-1.9c0,0-0.1-0.1-0.1-0.3c0-0.2,0.4-0.8,0.5-0.9c0.1-0.1,0.5-1.1,0.6-1.3s0.4-0.5,0.4-0.8s0.5-0.6,0.5-0.7
			c0-0.1,0-0.4,0.1-0.4c0,0-0.3-0.4-0.3-0.5C340.8,620.5,340,620.2,339.4,620.4z"/>
		<path id="left_hand_1_" fill="#202021" d="M372.9,622.6c1.8,0.9,4.3,1.1,4.6,0.7c0,0,0.6,1,0.6,1.6c0,0.3-0.2,0.6-0.3,0.9
			c-0.1,0.2-0.5,1.7-0.7,1.9c-0.3,0.2-1.9,1.9-2.3,1.9s-0.5-0.7-0.4-0.7c0-0.1-0.6,0.3-0.5-0.5c0.1-0.5,0.3-0.6,0.3-0.6
			s-0.2-0.2-0.4-0.4c-0.2-0.3-0.2-1-0.3-1.3c-0.1-0.3-0.2-0.5-0.3-1C373.3,625,372.8,623.8,372.9,622.6z"/>
		<path id="lower_body_1_" fill="#202021" d="M367.4,640.5c-0.5-3.5,3-12.1,1.5-11.9c-1.6,0.2-20.4-1.1-20.4-1.1
			c-2.7,10.5,5.1,27.8,7.2,30.5c0.9,1.2,1.6,3.8,2.2,6.4c-0.1,0.5-0.3,1.1-0.5,1.5c-0.3,0.8-0.9,2-0.7,2.8c0.2,0.8,0.6,1.2,0.9,1.3
			c0.2,0.1,0.8,0,1.2,0c0.1,0.9,0.2,1.5,0.2,1.5s0.2,0.1,0.5,0.2c-1.4,1.9-2.3,4.2-1.9,5.2c0.4,1,1.4,1.4,2.3,1.5
			c1.2,0.2,3.7,0.3,4.6-0.9s0.9-2.2,1-3.6c0.1-0.5,0.2-0.8,0.3-1.1c0.3-0.2,0.6-0.4,0.6-0.8c0.4-3.1,0.4-4.3,0.4-4.3
			C366.5,666,367.9,644,367.4,640.5z"/>
		<g id="upper_body_2_">
			<path id="upper_body_3_" fill="#202021" d="M347.9,618.5c0.1,1.5-1.4,5.8-0.7,7.1c0.8,1.3,3.5,7.6,3.4,7.6
				c-2.9,0.1,15.4-4.7,15.9-4c0,0,1.1,5.1,3.5,6l-0.7-8.2c-0.4-5.4,0.4-14,0.4-14s1.1,2.4,1.4,3.8c0.3,1.5,0.4,2.6,0.7,4
				c0.1,0.8,0.7,1.3,1.2,1.5c1.3,0.6,3.2,0.7,4,0.2c0.8-0.5,0.4-3.1,0.4-4.4c0-0.6-0.3-1.6-0.5-2.6c-0.2-0.9-3.6-15.5-4.1-17.2
				c-0.4-1.5-2.4-6.9-3-8.6s-7.8-4.7-8.8-5.4c-1.3-0.9-2.9-2.1-2.3-3.6c0.3-0.7,0.4-1.7,0.5-2.7l0,0c0.8-1.2-0.3-3.2-0.4-4.1
				c-0.1-0.9-1.7-2.5-2.2-3c-0.5-0.5-1.1-1-3.3-1.2c-2.3-0.2-4.3,0.8-5.2,0.9c-0.9,0.1-0.8,0.4-1.4,0.6c-0.3,0.1-0.5,0-0.6-0.1
				c-0.1-0.1-0.3-0.1-0.4,0l0,0c-0.1,0.1-0.1,0.1-0.2,0.1c-0.2,0-0.5,0-0.8,0c-0.4,0,0.2,0.4,0.2,0.4v0c0,0-0.3,0.2-0.7,0.3
				c-0.4,0.1,0.1,0.7,0.1,0.7s-0.7,0,0,0.7s0,2.7,1.4,4.3l0,0c0.1,0.2,0.3,0.4,0.5,0.6c0.4,0.3-0.9,2-1,2.3c-0.1,0.4,0.4,1,0.7,1
				s-0.4,0.7,0.8,1.1c0,0,0.1,0.6,0.1,0.9c0,0.3,0,2.4,0.8,2.6c0.5,0.2,1.9,0.2,1.9,0.2s-0.3,0.5-0.5,0.6c-0.7,0.6-3.2,2.5-3.4,3
				c-0.2,0.5-1.8,5.2-1.8,6.1s-4.4,16.9-5.1,18.5c-0.4,0.7-2,5.7-1.6,6s2.6-1.4,3.9,0s1.3-0.6,2.2-1.7c1-1.4,3.7-7.2,3.9-7.5
				c0.2-0.3,1,0,1,1.7C347.8,614.6,347.8,617,347.9,618.5z"/>
			<path id="shirt_1_" fill="#FFFFFF" d="M349.7,586.6c0,0,1.3,1.9,4.2,1.8c2.9-0.1,5.1-6.1,5.1-6.1s-2.5,16.8-4.5,21.8L349.7,586.6
				z"/>
		</g>
		<path id="tie_1_" fill="#202021" d="M351.1,589.4c-0.1,0.3-0.1,0.7-0.2,0.9c0,0.1,0,0.2,0,0.4l0.3,0.7c0.1,0.4,0.5,0.5,0.9,0.4
			c0.5-0.2,1.2-0.5,1.4-0.8c0.1-0.2,0.3-0.3,0.5-0.3l0.3,0c0.2,0,0.4,0.1,0.6,0.2c0.3,0.3,0.9,0.5,1.4,0.7c0.4,0.2,0.8-0.1,0.9-0.5
			l0.2-0.8c0-0.1,0-0.2,0-0.4l-0.2-0.9c-0.1-0.4-0.5-0.6-0.9-0.5c-0.5,0.2-1.2,0.4-1.5,0.6c-0.1,0.1-0.3,0.2-0.5,0.2l-0.5,0
			c-0.2,0-0.4,0-0.5-0.2c-0.3-0.2-1-0.5-1.5-0.6C351.5,588.7,351.1,589,351.1,589.4z"/>
		<path id="cane_1_" fill="#202021" d="M338.8,623.4c-1.2,0-2.2,1-2.2,2.2c0,0.4,0.3,0.8,0.3,1.1v46.1v0.2v1h2v-1l-1-0.2v-45
			c1,0,0.5,0.1,0.7,0.1c1.2,0,2.3-1,2.3-2.2S340.1,623.4,338.8,623.4z"/>
		<path id="hat_1_" fill="#202021" d="M383.9,631c-4.6-3.4-9-5.1-10-3.8c-0.6,0.8,0.3,2.6,2.2,4.6l-2,2.7c-1.3,1.8-1,4.3,0.8,5.7
			l2.8,2.1c1.8,1.3,4.3,1,5.7-0.8l2-2.7c2.5,1.2,4.4,1.5,5,0.7C391.3,638.1,388.4,634.3,383.9,631z"/>
	</g>
</g>
<g id="Layer_6" display="none">
	<polygon display="inline" fill="#4D97B2" points="977.7,173.9 1440,173.9 1440,61.7 977.7,61.7 1022.5,116.5 	"/>
	<polygon display="inline" fill="#B0102D" points="977.7,456.2 1440,456.2 1440,207.1 977.7,207.1 1022.5,331.7 	"/>
	
		<text transform="matrix(1 0 0 1 1069.28 154.3986)" display="inline" fill="#59473C" font-family="'Lobster1.4'" font-size="96.203">Eastlake</text>
	
		<text transform="matrix(1 0 0 1 1074.6667 151.2814)" display="inline" fill="#FFFFFF" font-family="'Lobster1.4'" font-size="96.203">Eastlake</text>
</g>
</svg>
