<?xml version="1.0" encoding="utf-8"?>
<!-- Generator: Adobe Illustrator 18.1.1, SVG Export Plug-In . SVG Version: 6.00 Build 0)  -->
<!DOCTYPE svg PUBLIC "-//W3C//DTD SVG 1.1//EN" "http://www.w3.org/Graphics/SVG/1.1/DTD/svg11.dtd">
<svg version="1.1" id="Layer_1" xmlns="http://www.w3.org/2000/svg" xmlns:xlink="http://www.w3.org/1999/xlink" x="0px" y="0px"
	 viewBox="0 0 50 50" enable-background="new 0 0 50 50" xml:space="preserve">
<circle fill="#307B8C" cx="25" cy="25" r="25"/>
<g display="none">
	<g display="inline">
		<path fill="#333335" d="M12.1,20c0.2-0.2,0.4-0.3,0.7-0.3c0.3,0,0.5,0.1,0.8,0.3c-0.2,0.6-0.3,1.2-0.3,1.7c0,0.6,0.2,1.2,0.7,2
			c-0.1,0.3-0.2,0.6-0.2,0.8c0,0.3,0.1,0.7,0.3,1.1c0.1,0.2,0.4,0.7,0.8,1.5v-4.2c0-0.4,0-0.7-0.1-1.1c-0.1-0.8-0.3-1.3-0.5-1.7
			c0.3-0.2,0.6-0.3,0.9-0.3c0.3,0,0.6,0.1,0.8,0.3c0.2-0.2,0.4-0.3,0.7-0.3c0.3,0,0.5,0.1,0.8,0.3c-0.4,0.8-0.5,1.7-0.5,2.7
			c0,1,0.2,1.8,0.5,2.3c-0.4,0.5-0.6,1.3-0.6,2.4c0,0.8,0.1,1.5,0.4,2.1l0.2,0.5c-0.4,0.2-0.8,0.3-1.2,0.3c-0.3,0-0.7-0.1-1.1-0.3
			c-0.3,0.2-0.7,0.3-1.2,0.3c-0.3,0-0.6,0-0.8-0.1c-0.2-0.1-0.4-0.1-0.4-0.2c0.2-0.4,0.3-0.8,0.3-1.5c0-0.7-0.1-1.3-0.3-1.7L12.1,25
			l-0.6,1.9c-0.2,0.4-0.3,1-0.3,1.7c0,0.6,0.1,1.1,0.3,1.5c-0.1,0.1-0.2,0.1-0.4,0.2c-0.3,0.1-0.6,0.1-0.8,0.1
			c-0.5,0-0.8-0.1-1.2-0.3c-0.4,0.2-0.8,0.3-1.1,0.3c-0.4,0-0.8-0.1-1.2-0.3L7,29.5c0.2-0.6,0.4-1.3,0.4-2.1c0-1.1-0.2-1.8-0.6-2.4
			c0.4-0.5,0.5-1.3,0.5-2.3c0-1-0.2-1.9-0.5-2.7c0.2-0.2,0.5-0.3,0.8-0.3c0.2,0,0.5,0.1,0.7,0.3c0.2-0.2,0.5-0.3,0.8-0.3
			c0.3,0,0.6,0.1,0.9,0.3c-0.4,0.5-0.6,1.5-0.6,2.8V27c0.4-0.8,0.7-1.2,0.8-1.5c0.2-0.4,0.3-0.8,0.3-1.1c0-0.2-0.1-0.5-0.2-0.8
			c0.5-0.8,0.7-1.4,0.7-2c0-0.5-0.1-1-0.3-1.7c0.2-0.2,0.5-0.3,0.7-0.3C11.7,19.7,11.9,19.8,12.1,20z"/>
	</g>
	<g display="inline">
		<path fill="#333335" d="M23.9,22.1v1c0,0.1,0,0.2,0.1,0.4c0.1,0.3,0.2,0.4,0.4,0.5c-0.3,0.1-0.4,0.4-0.4,0.9v0.9
			c0,1-0.4,1.7-1.3,2.1c-0.4,0.2-0.8,0.3-1.3,0.3c-0.5,0-0.9-0.1-1.3-0.3c-0.9-0.4-1.3-1.1-1.3-2.1v-0.9c0-0.1,0-0.2-0.1-0.4
			c-0.1-0.3-0.2-0.4-0.4-0.5c0.3-0.1,0.4-0.4,0.4-0.9v-1c0-1,0.4-1.8,1.3-2.2c0.4-0.2,0.8-0.3,1.3-0.3c0.5,0,0.9,0.1,1.3,0.3
			C23.5,20.4,23.9,21.1,23.9,22.1z M22.2,22.2c0-0.3-0.1-0.6-0.3-0.7c-0.2-0.2-0.4-0.3-0.6-0.3c-0.2,0-0.4,0.1-0.6,0.3
			c-0.2,0.2-0.3,0.4-0.3,0.7v0.9c0,0.1,0,0.2,0.1,0.4c0.1,0.3,0.2,0.4,0.4,0.5c-0.3,0.1-0.4,0.4-0.4,0.9v0.9c0,0.3,0.1,0.6,0.3,0.7
			c0.2,0.2,0.4,0.3,0.6,0.3c0.2,0,0.4-0.1,0.6-0.3c0.2-0.2,0.3-0.4,0.3-0.7v-0.9c0-0.1,0-0.2-0.1-0.4C22.1,24.2,22,24,21.8,24
			c0.3-0.1,0.4-0.4,0.4-0.9V22.2z"/>
		<path fill="#333335" d="M30.7,22.1v1c0,0.1,0,0.2,0.1,0.4c0.1,0.3,0.2,0.4,0.4,0.5c-0.3,0.1-0.4,0.4-0.4,0.9v0.9
			c0,1-0.4,1.7-1.3,2.1c-0.4,0.2-0.8,0.3-1.3,0.3c-0.5,0-0.9-0.1-1.3-0.3c-0.9-0.4-1.3-1.1-1.3-2.1v-0.9c0-0.1,0-0.2-0.1-0.4
			C25.3,24.2,25.2,24,25,24c0.3-0.1,0.4-0.4,0.4-0.9v-1c0-1,0.4-1.8,1.3-2.2c0.4-0.2,0.8-0.3,1.3-0.3c0.5,0,0.9,0.1,1.3,0.3
			C30.2,20.4,30.7,21.1,30.7,22.1z M29,22.2c0-0.3-0.1-0.6-0.3-0.7c-0.2-0.2-0.4-0.3-0.6-0.3c-0.2,0-0.4,0.1-0.6,0.3
			c-0.2,0.2-0.3,0.4-0.3,0.7v0.9c0,0.1,0,0.2,0.1,0.4c0.1,0.3,0.2,0.4,0.4,0.5c-0.3,0.1-0.4,0.4-0.4,0.9v0.9c0,0.3,0.1,0.6,0.3,0.7
			c0.2,0.2,0.4,0.3,0.6,0.3c0.2,0,0.4-0.1,0.6-0.3c0.2-0.2,0.3-0.4,0.3-0.7v-0.9c0-0.1,0-0.2-0.1-0.4c-0.1-0.3-0.2-0.4-0.4-0.5
			c0.3-0.1,0.4-0.4,0.4-0.9V22.2z"/>
		<path fill="#333335" d="M36.7,26.8c0.2,0.2,0.3,0.5,0.3,0.8c0,0.1,0,0.1,0,0.2c-0.2,0-0.4,0-0.5,0c-0.1,0-0.2,0-0.3,0.1
			c-0.1,0-0.2,0.1-0.3,0.2c-0.4,0.2-0.8,0.3-1.2,0.3c-0.7,0-1.3-0.3-1.8-0.8c-0.5-0.5-0.7-1.1-0.7-1.7c0-0.8,0.4-1.4,1.2-1.9
			c0.4-0.1,0.6-0.5,0.6-1c0.2,0,0.3,0.1,0.5,0.1c0.4,0,0.7-0.1,0.9-0.3c0.3-0.3,0.4-0.6,0.4-0.8c0-0.2-0.1-0.4-0.3-0.6
			c-0.2-0.1-0.5-0.2-0.9-0.2c-0.4,0-0.8,0.1-1.2,0.3c-0.5,0.2-0.8,0.6-1.1,1.1c-0.1-0.3-0.2-0.6-0.2-0.8c0-0.2,0-0.4,0.1-0.5
			c-0.3-0.2-0.4-0.5-0.4-0.9c0-0.1,0-0.2,0-0.2c0.2,0.2,0.5,0.3,0.6,0.3c0.1,0,0.3,0,0.4-0.1c0.2-0.1,0.4-0.2,0.5-0.2
			c0.5-0.1,1-0.2,1.4-0.2c0.9,0,1.6,0.3,2.1,0.8c0.5,0.5,0.7,1,0.7,1.7c0,0.9-0.4,1.6-1.2,2c-0.2,0.1-0.3,0.2-0.4,0.3
			c-0.3,0.2-0.5,0.5-0.5,0.7c-0.1-0.1-0.3-0.1-0.4-0.1c-0.3,0-0.5,0.1-0.8,0.3c-0.2,0.2-0.3,0.4-0.3,0.7c0,0.2,0.1,0.5,0.3,0.6
			c0.2,0.2,0.4,0.3,0.7,0.3c0.6,0,1-0.4,1.4-1.1C36.5,26.1,36.7,26.4,36.7,26.8z"/>
		<path fill="#333335" d="M42.5,23c0,0.1,0.1,0.2,0.1,0.3c0,0.2-0.1,0.4-0.3,0.6c0.2,0.2,0.3,0.4,0.3,0.6c0,0.1,0,0.2-0.1,0.3
			c-0.3-0.3-0.7-0.5-1.2-0.5c-0.3,0-0.5,0.1-0.7,0.2c-0.2,0.2-0.3,0.4-0.3,0.7v0.6c0,0.6,0.3,0.8,0.9,0.8c0.3,0,0.6-0.1,0.9-0.2
			c0.3-0.2,0.5-0.3,0.5-0.5c0.3,0.2,0.4,0.5,0.4,0.9c0,0.2,0,0.4-0.1,0.5c0.1,0.1,0.2,0.3,0.2,0.7c-0.2-0.1-0.4-0.1-0.7-0.1
			c-0.2,0-0.4,0-0.6,0.1c-0.2,0-0.4,0.1-0.6,0.1c-0.2,0.1-0.4,0.1-0.6,0.1c-0.4,0-0.7-0.1-1.1-0.3c-0.2,0.2-0.5,0.3-0.8,0.3
			c-0.3,0-0.5-0.1-0.7-0.3c0.3-0.6,0.4-1.3,0.4-2.1c0-0.8-0.1-1.4-0.4-1.8c0.3-0.4,0.4-1,0.4-1.8c0-0.8-0.1-1.5-0.4-2.1
			c0.2-0.2,0.4-0.3,0.7-0.3c0.3,0,0.5,0.1,0.8,0.3c0.4-0.2,0.8-0.3,1.1-0.3c0.2,0,0.4,0,0.6,0.1c0.2,0.1,0.4,0.1,0.6,0.1
			c0.2,0,0.4,0.1,0.6,0.1c0.3,0,0.5,0,0.7-0.1c0,0.4,0,0.6-0.2,0.7c0.1,0.2,0.1,0.4,0.1,0.5c0,0.4-0.1,0.7-0.4,0.9
			c-0.1-0.2-0.2-0.4-0.5-0.5c-0.3-0.2-0.6-0.2-0.9-0.2c-0.6,0-0.9,0.3-0.9,0.8v0.6c0,0.3,0.1,0.5,0.3,0.7c0.2,0.1,0.4,0.2,0.7,0.2
			C41.8,23.5,42.2,23.3,42.5,23z"/>
	</g>
</g>
<g>
	<path fill="#FFFFFF" d="M13,30.6c-0.3,0-0.5-0.1-0.8-0.3c0.2-0.7,0.3-1.3,0.3-1.7c0-0.6-0.3-1.3-0.8-2.1c0.1-0.3,0.2-0.6,0.2-0.8
		c0-0.3-0.1-0.7-0.3-1.1c-0.1-0.2-0.4-0.7-0.9-1.5v4.4c0,1.4,0.2,2.3,0.7,2.9c-0.3,0.2-0.6,0.3-0.9,0.3c-0.3,0-0.6-0.1-0.8-0.3
		c-0.2,0.2-0.5,0.3-0.7,0.3c-0.3,0-0.6-0.1-0.8-0.4c0.4-0.8,0.6-1.8,0.6-2.8c0-1.1-0.2-1.9-0.6-2.4c0.4-0.5,0.6-1.4,0.6-2.5
		c0-0.8-0.1-1.5-0.4-2.2l-0.2-0.6c0.4-0.2,0.9-0.3,1.2-0.3c0.3,0,0.7,0.1,1.2,0.3c0.3-0.2,0.8-0.3,1.2-0.3c0.3,0,0.6,0,0.9,0.1
		c0.2,0.1,0.4,0.1,0.5,0.2c-0.2,0.4-0.3,0.9-0.3,1.5c0,0.8,0.1,1.4,0.3,1.8l0.7,2l0.7-2c0.2-0.4,0.3-1,0.3-1.8
		c0-0.6-0.1-1.1-0.3-1.5c0.1-0.1,0.2-0.1,0.4-0.2c0.3-0.1,0.6-0.1,0.9-0.1c0.5,0,0.9,0.1,1.2,0.3c0.4-0.2,0.8-0.3,1.2-0.3
		c0.4,0,0.8,0.1,1.2,0.3l-0.2,0.6c-0.3,0.7-0.4,1.4-0.4,2.2c0,1.1,0.2,1.9,0.6,2.5c-0.4,0.5-0.6,1.3-0.6,2.4c0,1.1,0.2,2,0.6,2.8
		c-0.3,0.2-0.5,0.4-0.8,0.4c-0.3,0-0.5-0.1-0.7-0.3c-0.3,0.2-0.6,0.3-0.9,0.3c-0.3,0-0.6-0.1-0.9-0.3c0.3-0.4,0.5-1,0.6-1.8
		c0-0.3,0.1-0.7,0.1-1.1v-4.4c-0.5,0.8-0.7,1.3-0.9,1.5c-0.2,0.4-0.3,0.8-0.3,1.1c0,0.3,0.1,0.5,0.2,0.8c-0.5,0.8-0.8,1.5-0.8,2.1
		c0,0.5,0.1,1.1,0.3,1.7c-0.3,0.2-0.5,0.3-0.8,0.3c-0.3,0-0.5-0.1-0.7-0.3C13.5,30.5,13.3,30.6,13,30.6z"/>
	<path fill="#FFFFFF" d="M23.9,26.3c-0.3,0-0.5,0.1-0.7,0.3c-0.2,0.2-0.3,0.5-0.3,0.8V28c0,0.6,0.3,0.9,1,0.9c0.3,0,0.7-0.1,1-0.3
		c0.3-0.2,0.5-0.4,0.6-0.6c0.3,0.2,0.5,0.6,0.5,1c0,0.2,0,0.4-0.1,0.6c0.2,0.1,0.2,0.3,0.2,0.7c-0.2-0.1-0.5-0.2-0.8-0.2
		c-0.2,0-0.4,0-0.6,0.1s-0.4,0.1-0.6,0.2c-0.3,0.1-0.5,0.1-0.7,0.1c-0.4,0-0.8-0.1-1.3-0.4c-0.3,0.2-0.6,0.3-0.9,0.3
		c-0.3,0-0.5-0.1-0.8-0.3c0.3-0.7,0.5-1.5,0.5-2.4c0-0.9-0.2-1.6-0.5-2.1c0.3-0.4,0.5-1.1,0.5-2.1c0-0.9-0.2-1.7-0.5-2.4
		c0.2-0.2,0.5-0.3,0.8-0.3c0.3,0,0.6,0.1,0.9,0.3c0.4-0.3,0.9-0.4,1.3-0.4c0.2,0,0.4,0,0.7,0.1c0.2,0.1,0.4,0.1,0.6,0.2
		s0.4,0.1,0.6,0.1c0.3,0,0.6-0.1,0.8-0.2c0,0.4,0,0.7-0.2,0.7c0.1,0.2,0.1,0.4,0.1,0.6c0,0.4-0.2,0.8-0.5,1
		c-0.1-0.2-0.3-0.4-0.6-0.6c-0.3-0.2-0.6-0.3-1-0.3c-0.6,0-1,0.3-1,0.9v0.7c0,0.3,0.1,0.6,0.3,0.8c0.2,0.2,0.4,0.3,0.7,0.3
		c0.5,0,0.9-0.2,1.3-0.6c0,0.1,0.1,0.2,0.1,0.4c0,0.3-0.1,0.5-0.3,0.7c0.2,0.2,0.3,0.4,0.3,0.7c0,0.1,0,0.3-0.1,0.4
		C24.8,26.5,24.4,26.3,23.9,26.3z"/>
	<path fill="#FFFFFF" d="M31.3,24.8c0.2-0.4,0.3-0.9,0.3-1.5c0-1-0.2-1.7-0.5-2c0.2-0.2,0.5-0.3,0.7-0.3c0.3,0,0.5,0.1,0.7,0.3
		c0.2-0.2,0.5-0.3,0.7-0.3c0.3,0,0.5,0.1,0.7,0.3l-0.2,0.5c-0.2,0.6-0.3,1.2-0.3,1.9c0,0.9,0.2,1.7,0.5,2.1
		c-0.3,0.4-0.5,1.1-0.5,2.1c0,0.9,0.2,1.7,0.5,2.4c-0.2,0.2-0.4,0.3-0.7,0.3c-0.3,0-0.5-0.1-0.7-0.3c-0.2,0.2-0.5,0.3-0.7,0.3
		s-0.5-0.1-0.7-0.3c0.3-0.4,0.5-0.8,0.5-1.3c0-0.6-0.2-1.1-0.6-1.5l-1.5-1.9c-0.3,0.6-0.4,1.3-0.4,2.1c0,0.9,0.2,1.8,0.5,2.6
		c-0.2,0.2-0.5,0.3-0.7,0.3c-0.3,0-0.5-0.1-0.7-0.3c-0.2,0.2-0.5,0.3-0.8,0.3c-0.3,0-0.5-0.1-0.7-0.3c0.3-0.7,0.5-1.5,0.5-2.4
		c0-0.9-0.2-1.6-0.5-2.1c0.3-0.5,0.5-1.2,0.5-2.1c0-0.7-0.1-1.3-0.3-1.9l-0.2-0.5c0.2-0.2,0.5-0.3,0.7-0.3c0.3,0,0.5,0.1,0.8,0.3
		c0.2-0.2,0.5-0.3,0.7-0.3c0.3,0,0.5,0.1,0.7,0.3c-0.1,0.3-0.2,0.5-0.2,0.8c0,0.3,0.1,0.6,0.3,0.9L31.3,24.8z"/>
	<path fill="#FFFFFF" d="M39.8,30.2c-0.4,0.2-0.9,0.3-1.5,0.4c-0.6,0-1.1-0.1-1.5-0.3c-1-0.5-1.5-1.3-1.5-2.5v-1.1
		c0-0.5-0.2-0.8-0.5-1c0.2-0.1,0.4-0.3,0.4-0.6c0-0.1,0.1-0.3,0.1-0.4v-1c0-1-0.2-1.8-0.6-2.4c0.3-0.2,0.6-0.3,0.9-0.3
		c0.3,0,0.5,0.1,0.7,0.3c0.3-0.2,0.5-0.3,0.8-0.3c0.3,0,0.5,0.1,0.7,0.3c-0.4,0.7-0.5,1.5-0.5,2.4v1c0,0.5,0.2,0.8,0.5,1
		c-0.2,0.1-0.4,0.3-0.4,0.6c0,0.1-0.1,0.3-0.1,0.4v1c0,0.4,0.1,0.6,0.3,0.9c0.2,0.2,0.4,0.3,0.7,0.3c0.3,0,0.5-0.1,0.7-0.3
		c0.2-0.2,0.3-0.5,0.3-0.9v-1c0-0.5-0.2-0.8-0.5-1c0.2-0.1,0.4-0.3,0.4-0.6c0-0.1,0.1-0.3,0.1-0.4v-1c0-1-0.2-1.8-0.5-2.4
		c0.2-0.2,0.5-0.3,0.7-0.3c0.3,0,0.5,0.1,0.8,0.3c0.2-0.2,0.4-0.3,0.6-0.3c0.3,0,0.6,0.1,0.8,0.3c-0.2,0.4-0.4,0.9-0.5,1.5
		c0,0.3-0.1,0.5-0.1,0.8v1c0,0.5,0.2,0.8,0.5,1c-0.2,0.1-0.4,0.3-0.4,0.6c0,0.1-0.1,0.3-0.1,0.4v1.1C41.3,28.9,40.8,29.8,39.8,30.2z
		"/>
</g>
</svg>
