<?xml version="1.0" encoding="utf-8"?>
<!-- Generator: Adobe Illustrator 18.1.1, SVG Export Plug-In . SVG Version: 6.00 Build 0)  -->
<!DOCTYPE svg PUBLIC "-//W3C//DTD SVG 1.1//EN" "http://www.w3.org/Graphics/SVG/1.1/DTD/svg11.dtd">
<svg version="1.1" id="Layer_1" xmlns="http://www.w3.org/2000/svg" xmlns:xlink="http://www.w3.org/1999/xlink" x="0px" y="0px"
	 viewBox="0 0 50 50" enable-background="new 0 0 50 50" xml:space="preserve">
<circle fill="#FFFFFF" cx="25" cy="25" r="25"/>
<g>
	<g>
		<path fill="#333335" d="M11.4,30.3c-0.3,0-0.5-0.1-0.7-0.3c0.2-0.6,0.3-1.2,0.3-1.7c0-0.6-0.2-1.2-0.7-2c0.1-0.3,0.2-0.6,0.2-0.8
			c0-0.3-0.1-0.7-0.3-1.1C10,24.3,9.8,23.8,9.3,23v4.2c0,1.3,0.2,2.2,0.6,2.8c-0.3,0.2-0.6,0.3-0.9,0.3c-0.3,0-0.6-0.1-0.8-0.3
			c-0.2,0.2-0.4,0.3-0.7,0.3c-0.3,0-0.5-0.1-0.8-0.3c0.4-0.8,0.5-1.7,0.5-2.7c0-1-0.2-1.8-0.5-2.3c0.4-0.5,0.6-1.3,0.6-2.4
			c0-0.8-0.1-1.5-0.4-2.1L6.8,20c0.4-0.2,0.8-0.3,1.2-0.3c0.3,0,0.7,0.1,1.1,0.3c0.3-0.2,0.7-0.3,1.2-0.3c0.3,0,0.6,0,0.8,0.1
			c0.2,0.1,0.4,0.1,0.4,0.2c-0.2,0.4-0.3,0.8-0.3,1.5c0,0.7,0.1,1.3,0.3,1.7l0.6,1.9l0.6-1.9c0.2-0.4,0.3-1,0.3-1.7
			c0-0.6-0.1-1.1-0.3-1.5c0.1-0.1,0.2-0.1,0.4-0.2c0.3-0.1,0.6-0.1,0.8-0.1c0.5,0,0.8,0.1,1.2,0.3c0.4-0.2,0.8-0.3,1.1-0.3
			c0.4,0,0.8,0.1,1.2,0.3l-0.2,0.5c-0.2,0.6-0.4,1.3-0.4,2.1c0,1.1,0.2,1.8,0.6,2.4c-0.4,0.5-0.5,1.3-0.5,2.3c0,1,0.2,1.9,0.5,2.7
			c-0.2,0.2-0.5,0.3-0.8,0.3c-0.2,0-0.5-0.1-0.7-0.3c-0.3,0.2-0.5,0.3-0.8,0.3c-0.3,0-0.6-0.1-0.9-0.3c0.3-0.4,0.4-0.9,0.5-1.7
			c0-0.3,0.1-0.7,0.1-1.1V23c-0.4,0.8-0.7,1.2-0.8,1.5c-0.2,0.4-0.3,0.8-0.3,1.1c0,0.2,0.1,0.5,0.2,0.8c-0.5,0.8-0.7,1.4-0.7,2
			c0,0.5,0.1,1,0.3,1.7c-0.2,0.2-0.5,0.3-0.8,0.3c-0.2,0-0.5-0.1-0.7-0.3C11.9,30.2,11.7,30.3,11.4,30.3z"/>
	</g>
	<g>
		<path fill="#333335" d="M22.6,30c-0.4,0.2-0.8,0.3-1.3,0.3c-0.5,0-0.9-0.1-1.3-0.3c-0.9-0.4-1.3-1.1-1.3-2.2v-1
			c0-0.4-0.2-0.7-0.4-0.9c0.2-0.1,0.3-0.3,0.4-0.5c0-0.1,0-0.2,0.1-0.4v-0.9c0-1,0.4-1.7,1.3-2.1c0.4-0.2,0.8-0.3,1.3-0.3
			c0.5,0,0.9,0.1,1.3,0.3c0.9,0.4,1.3,1.1,1.3,2.1v0.9c0,0.4,0.2,0.7,0.4,0.9c-0.2,0.1-0.3,0.3-0.4,0.5c0,0.1,0,0.2-0.1,0.4v1
			C23.9,28.9,23.5,29.6,22.6,30z M22.2,26.9c0-0.4-0.2-0.7-0.4-0.9c0.2-0.1,0.3-0.3,0.4-0.5c0-0.1,0-0.2,0.1-0.4v-0.9
			c0-0.3-0.1-0.6-0.3-0.7c-0.2-0.2-0.4-0.3-0.6-0.3c-0.2,0-0.4,0.1-0.6,0.3c-0.2,0.2-0.3,0.4-0.3,0.7v0.9c0,0.4,0.2,0.7,0.4,0.9
			c-0.2,0.1-0.3,0.3-0.4,0.5c0,0.1,0,0.2-0.1,0.4v0.9c0,0.3,0.1,0.6,0.3,0.7c0.2,0.2,0.4,0.3,0.6,0.3c0.2,0,0.4-0.1,0.6-0.3
			c0.2-0.2,0.3-0.4,0.3-0.7V26.9z"/>
		<path fill="#333335" d="M29.4,30c-0.4,0.2-0.8,0.3-1.3,0.3c-0.5,0-0.9-0.1-1.3-0.3c-0.9-0.4-1.3-1.1-1.3-2.2v-1
			c0-0.4-0.2-0.7-0.4-0.9c0.2-0.1,0.3-0.3,0.4-0.5c0-0.1,0-0.2,0.1-0.4v-0.9c0-1,0.4-1.7,1.3-2.1c0.4-0.2,0.8-0.3,1.3-0.3
			c0.5,0,0.9,0.1,1.3,0.3c0.9,0.4,1.3,1.1,1.3,2.1v0.9c0,0.4,0.2,0.7,0.4,0.9c-0.2,0.1-0.3,0.3-0.4,0.5c0,0.1,0,0.2-0.1,0.4v1
			C30.7,28.9,30.2,29.6,29.4,30z M29,26.9c0-0.4-0.2-0.7-0.4-0.9c0.2-0.1,0.3-0.3,0.4-0.5c0-0.1,0-0.2,0.1-0.4v-0.9
			c0-0.3-0.1-0.6-0.3-0.7c-0.2-0.2-0.4-0.3-0.6-0.3c-0.2,0-0.4,0.1-0.6,0.3c-0.2,0.2-0.3,0.4-0.3,0.7v0.9c0,0.4,0.2,0.7,0.4,0.9
			c-0.2,0.1-0.3,0.3-0.4,0.5c0,0.1,0,0.2-0.1,0.4v0.9c0,0.3,0.1,0.6,0.3,0.7c0.2,0.2,0.4,0.3,0.6,0.3c0.2,0,0.4-0.1,0.6-0.3
			c0.2-0.2,0.3-0.4,0.3-0.7V26.9z"/>
		<path fill="#333335" d="M36.3,24.2c-0.4-0.8-0.9-1.1-1.4-1.1c-0.3,0-0.5,0.1-0.7,0.3c-0.2,0.2-0.3,0.4-0.3,0.6
			c0,0.2,0.1,0.5,0.3,0.7c0.2,0.2,0.5,0.3,0.8,0.3c0.2,0,0.3,0,0.4-0.1c0.1,0.2,0.2,0.5,0.5,0.7c0.1,0.1,0.3,0.2,0.4,0.3
			c0.8,0.4,1.2,1.1,1.2,2c0,0.7-0.2,1.2-0.7,1.7c-0.5,0.5-1.2,0.8-2.1,0.8c-0.4,0-0.9-0.1-1.4-0.2c-0.1,0-0.3-0.1-0.5-0.2
			c-0.2-0.1-0.3-0.1-0.4-0.1c-0.2,0-0.4,0.1-0.6,0.3c0-0.1,0-0.2,0-0.2c0-0.4,0.1-0.7,0.4-0.9c-0.1-0.1-0.1-0.3-0.1-0.5
			c0-0.3,0.1-0.5,0.2-0.8c0.3,0.5,0.6,0.8,1.1,1.1c0.4,0.2,0.8,0.3,1.2,0.3c0.3,0,0.6-0.1,0.9-0.2c0.2-0.1,0.3-0.3,0.3-0.6
			c0-0.3-0.1-0.5-0.4-0.8c-0.2-0.2-0.5-0.3-0.9-0.3c-0.2,0-0.4,0-0.5,0.1c0-0.5-0.2-0.8-0.6-1c-0.8-0.4-1.2-1.1-1.2-1.9
			c0-0.6,0.2-1.2,0.7-1.7c0.5-0.5,1.1-0.8,1.8-0.8c0.4,0,0.8,0.1,1.2,0.3c0.1,0.1,0.2,0.1,0.3,0.2c0.1,0,0.2,0.1,0.3,0.1
			c0.1,0,0.3,0,0.5,0c0,0.1,0,0.1,0,0.2c0,0.3-0.1,0.5-0.3,0.8C36.7,23.6,36.5,23.9,36.3,24.2z"/>
		<path fill="#333335" d="M41.4,26.5c-0.3,0-0.5,0.1-0.7,0.2c-0.2,0.2-0.3,0.4-0.3,0.7V28c0,0.6,0.3,0.8,0.9,0.8
			c0.3,0,0.6-0.1,0.9-0.2c0.3-0.2,0.5-0.3,0.5-0.5c0.3,0.2,0.4,0.5,0.4,0.9c0,0.2,0,0.4-0.1,0.5c0.1,0.1,0.2,0.3,0.2,0.7
			C43,30.1,42.8,30,42.5,30c-0.2,0-0.4,0-0.6,0.1c-0.2,0-0.4,0.1-0.6,0.1c-0.2,0.1-0.4,0.1-0.6,0.1c-0.4,0-0.7-0.1-1.1-0.3
			c-0.2,0.2-0.5,0.3-0.8,0.3c-0.3,0-0.5-0.1-0.7-0.3c0.3-0.6,0.4-1.3,0.4-2.1c0-0.8-0.1-1.4-0.4-1.8c0.3-0.4,0.4-1,0.4-1.8
			c0-0.8-0.1-1.5-0.4-2.1c0.2-0.2,0.4-0.3,0.7-0.3c0.3,0,0.5,0.1,0.8,0.3c0.4-0.2,0.8-0.3,1.1-0.3c0.2,0,0.4,0,0.6,0.1
			c0.2,0.1,0.4,0.1,0.6,0.1c0.2,0,0.4,0.1,0.6,0.1c0.3,0,0.5-0.1,0.7-0.1c0,0.4,0,0.6-0.2,0.7c0.1,0.2,0.1,0.4,0.1,0.5
			c0,0.4-0.1,0.7-0.4,0.9c-0.1-0.2-0.2-0.4-0.5-0.5c-0.3-0.2-0.6-0.2-0.9-0.2c-0.6,0-0.9,0.3-0.9,0.8v0.6c0,0.3,0.1,0.5,0.3,0.7
			c0.2,0.2,0.4,0.2,0.7,0.2c0.4,0,0.8-0.2,1.2-0.5c0,0.1,0.1,0.2,0.1,0.3c0,0.2-0.1,0.4-0.3,0.6c0.2,0.2,0.3,0.4,0.3,0.6
			c0,0.1,0,0.2-0.1,0.3C42.2,26.7,41.8,26.5,41.4,26.5z"/>
	</g>
</g>
</svg>
