<?xml version="1.0" encoding="utf-8"?>
<!-- Generator: Adobe Illustrator 18.1.1, SVG Export Plug-In . SVG Version: 6.00 Build 0)  -->
<!DOCTYPE svg PUBLIC "-//W3C//DTD SVG 1.1//EN" "http://www.w3.org/Graphics/SVG/1.1/DTD/svg11.dtd">
<svg version="1.1" id="Layer_1" xmlns="http://www.w3.org/2000/svg" xmlns:xlink="http://www.w3.org/1999/xlink" x="0px" y="0px"
	 viewBox="0 0 50 50" enable-background="new 0 0 50 50" xml:space="preserve">
<circle fill="#F2F2F2" cx="25" cy="25" r="25"/>
<g display="none">
	<g display="inline">
		<path fill="#333335" d="M12.1,20c0.2-0.2,0.4-0.3,0.7-0.3c0.3,0,0.5,0.1,0.8,0.3c-0.2,0.6-0.3,1.2-0.3,1.7c0,0.6,0.2,1.2,0.7,2
			c-0.1,0.3-0.2,0.6-0.2,0.8c0,0.3,0.1,0.7,0.3,1.1c0.1,0.2,0.4,0.7,0.8,1.5v-4.2c0-0.4,0-0.7-0.1-1.1c-0.1-0.8-0.3-1.3-0.5-1.7
			c0.3-0.2,0.6-0.3,0.9-0.3c0.3,0,0.6,0.1,0.8,0.3c0.2-0.2,0.4-0.3,0.7-0.3c0.3,0,0.5,0.1,0.8,0.3c-0.4,0.8-0.5,1.7-0.5,2.7
			c0,1,0.2,1.8,0.5,2.3c-0.4,0.5-0.6,1.3-0.6,2.4c0,0.8,0.1,1.5,0.4,2.1l0.2,0.5c-0.4,0.2-0.8,0.3-1.2,0.3c-0.3,0-0.7-0.1-1.1-0.3
			c-0.3,0.2-0.7,0.3-1.2,0.3c-0.3,0-0.6,0-0.8-0.1c-0.2-0.1-0.4-0.1-0.4-0.2c0.2-0.4,0.3-0.8,0.3-1.5c0-0.7-0.1-1.3-0.3-1.7L12.1,25
			l-0.6,1.9c-0.2,0.4-0.3,1-0.3,1.7c0,0.6,0.1,1.1,0.3,1.5c-0.1,0.1-0.2,0.1-0.4,0.2c-0.3,0.1-0.6,0.1-0.8,0.1
			c-0.5,0-0.8-0.1-1.2-0.3c-0.4,0.2-0.8,0.3-1.1,0.3c-0.4,0-0.8-0.1-1.2-0.3L7,29.5c0.2-0.6,0.4-1.3,0.4-2.1c0-1.1-0.2-1.8-0.6-2.4
			c0.4-0.5,0.5-1.3,0.5-2.3c0-1-0.2-1.9-0.5-2.7c0.2-0.2,0.5-0.3,0.8-0.3c0.2,0,0.5,0.1,0.7,0.3c0.2-0.2,0.5-0.3,0.8-0.3
			c0.3,0,0.6,0.1,0.9,0.3c-0.4,0.5-0.6,1.5-0.6,2.8V27c0.4-0.8,0.7-1.2,0.8-1.5c0.2-0.4,0.3-0.8,0.3-1.1c0-0.2-0.1-0.5-0.2-0.8
			c0.5-0.8,0.7-1.4,0.7-2c0-0.5-0.1-1-0.3-1.7c0.2-0.2,0.5-0.3,0.7-0.3C11.7,19.7,11.9,19.8,12.1,20z"/>
	</g>
	<g display="inline">
		<path fill="#333335" d="M23.9,22.1v1c0,0.1,0,0.2,0.1,0.4c0.1,0.3,0.2,0.4,0.4,0.5c-0.3,0.1-0.4,0.4-0.4,0.9v0.9
			c0,1-0.4,1.7-1.3,2.1c-0.4,0.2-0.8,0.3-1.3,0.3c-0.5,0-0.9-0.1-1.3-0.3c-0.9-0.4-1.3-1.1-1.3-2.1v-0.9c0-0.1,0-0.2-0.1-0.4
			c-0.1-0.3-0.2-0.4-0.4-0.5c0.3-0.1,0.4-0.4,0.4-0.9v-1c0-1,0.4-1.8,1.3-2.2c0.4-0.2,0.8-0.3,1.3-0.3c0.5,0,0.9,0.1,1.3,0.3
			C23.5,20.4,23.9,21.1,23.9,22.1z M22.2,22.2c0-0.3-0.1-0.6-0.3-0.7c-0.2-0.2-0.4-0.3-0.6-0.3c-0.2,0-0.4,0.1-0.6,0.3
			c-0.2,0.2-0.3,0.4-0.3,0.7v0.9c0,0.1,0,0.2,0.1,0.4c0.1,0.3,0.2,0.4,0.4,0.5c-0.3,0.1-0.4,0.4-0.4,0.9v0.9c0,0.3,0.1,0.6,0.3,0.7
			c0.2,0.2,0.4,0.3,0.6,0.3c0.2,0,0.4-0.1,0.6-0.3c0.2-0.2,0.3-0.4,0.3-0.7v-0.9c0-0.1,0-0.2-0.1-0.4C22.1,24.2,22,24,21.8,24
			c0.3-0.1,0.4-0.4,0.4-0.9V22.2z"/>
		<path fill="#333335" d="M30.7,22.1v1c0,0.1,0,0.2,0.1,0.4c0.1,0.3,0.2,0.4,0.4,0.5c-0.3,0.1-0.4,0.4-0.4,0.9v0.9
			c0,1-0.4,1.7-1.3,2.1c-0.4,0.2-0.8,0.3-1.3,0.3c-0.5,0-0.9-0.1-1.3-0.3c-0.9-0.4-1.3-1.1-1.3-2.1v-0.9c0-0.1,0-0.2-0.1-0.4
			C25.3,24.2,25.2,24,25,24c0.3-0.1,0.4-0.4,0.4-0.9v-1c0-1,0.4-1.8,1.3-2.2c0.4-0.2,0.8-0.3,1.3-0.3c0.5,0,0.9,0.1,1.3,0.3
			C30.2,20.4,30.7,21.1,30.7,22.1z M29,22.2c0-0.3-0.1-0.6-0.3-0.7c-0.2-0.2-0.4-0.3-0.6-0.3c-0.2,0-0.4,0.1-0.6,0.3
			c-0.2,0.2-0.3,0.4-0.3,0.7v0.9c0,0.1,0,0.2,0.1,0.4c0.1,0.3,0.2,0.4,0.4,0.5c-0.3,0.1-0.4,0.4-0.4,0.9v0.9c0,0.3,0.1,0.6,0.3,0.7
			c0.2,0.2,0.4,0.3,0.6,0.3c0.2,0,0.4-0.1,0.6-0.3c0.2-0.2,0.3-0.4,0.3-0.7v-0.9c0-0.1,0-0.2-0.1-0.4c-0.1-0.3-0.2-0.4-0.4-0.5
			c0.3-0.1,0.4-0.4,0.4-0.9V22.2z"/>
		<path fill="#333335" d="M36.7,26.8c0.2,0.2,0.3,0.5,0.3,0.8c0,0.1,0,0.1,0,0.2c-0.2,0-0.4,0-0.5,0c-0.1,0-0.2,0-0.3,0.1
			c-0.1,0-0.2,0.1-0.3,0.2c-0.4,0.2-0.8,0.3-1.2,0.3c-0.7,0-1.3-0.3-1.8-0.8c-0.5-0.5-0.7-1.1-0.7-1.7c0-0.8,0.4-1.4,1.2-1.9
			c0.4-0.1,0.6-0.5,0.6-1c0.2,0,0.3,0.1,0.5,0.1c0.4,0,0.7-0.1,0.9-0.3c0.3-0.3,0.4-0.6,0.4-0.8c0-0.2-0.1-0.4-0.3-0.6
			c-0.2-0.1-0.5-0.2-0.9-0.2c-0.4,0-0.8,0.1-1.2,0.3c-0.5,0.2-0.8,0.6-1.1,1.1c-0.1-0.3-0.2-0.6-0.2-0.8c0-0.2,0-0.4,0.1-0.5
			c-0.3-0.2-0.4-0.5-0.4-0.9c0-0.1,0-0.2,0-0.2c0.2,0.2,0.5,0.3,0.6,0.3c0.1,0,0.3,0,0.4-0.1c0.2-0.1,0.4-0.2,0.5-0.2
			c0.5-0.1,1-0.2,1.4-0.2c0.9,0,1.6,0.3,2.1,0.8c0.5,0.5,0.7,1,0.7,1.7c0,0.9-0.4,1.6-1.2,2c-0.2,0.1-0.3,0.2-0.4,0.3
			c-0.3,0.2-0.5,0.5-0.5,0.7c-0.1-0.1-0.3-0.1-0.4-0.1c-0.3,0-0.5,0.1-0.8,0.3c-0.2,0.2-0.3,0.4-0.3,0.7c0,0.2,0.1,0.5,0.3,0.6
			c0.2,0.2,0.4,0.3,0.7,0.3c0.6,0,1-0.4,1.4-1.1C36.5,26.1,36.7,26.4,36.7,26.8z"/>
		<path fill="#333335" d="M42.5,23c0,0.1,0.1,0.2,0.1,0.3c0,0.2-0.1,0.4-0.3,0.6c0.2,0.2,0.3,0.4,0.3,0.6c0,0.1,0,0.2-0.1,0.3
			c-0.3-0.3-0.7-0.5-1.2-0.5c-0.3,0-0.5,0.1-0.7,0.2c-0.2,0.2-0.3,0.4-0.3,0.7v0.6c0,0.6,0.3,0.8,0.9,0.8c0.3,0,0.6-0.1,0.9-0.2
			c0.3-0.2,0.5-0.3,0.5-0.5c0.3,0.2,0.4,0.5,0.4,0.9c0,0.2,0,0.4-0.1,0.5c0.1,0.1,0.2,0.3,0.2,0.7c-0.2-0.1-0.4-0.1-0.7-0.1
			c-0.2,0-0.4,0-0.6,0.1c-0.2,0-0.4,0.1-0.6,0.1c-0.2,0.1-0.4,0.1-0.6,0.1c-0.4,0-0.7-0.1-1.1-0.3c-0.2,0.2-0.5,0.3-0.8,0.3
			c-0.3,0-0.5-0.1-0.7-0.3c0.3-0.6,0.4-1.3,0.4-2.1c0-0.8-0.1-1.4-0.4-1.8c0.3-0.4,0.4-1,0.4-1.8c0-0.8-0.1-1.5-0.4-2.1
			c0.2-0.2,0.4-0.3,0.7-0.3c0.3,0,0.5,0.1,0.8,0.3c0.4-0.2,0.8-0.3,1.1-0.3c0.2,0,0.4,0,0.6,0.1c0.2,0.1,0.4,0.1,0.6,0.1
			c0.2,0,0.4,0.1,0.6,0.1c0.3,0,0.5,0,0.7-0.1c0,0.4,0,0.6-0.2,0.7c0.1,0.2,0.1,0.4,0.1,0.5c0,0.4-0.1,0.7-0.4,0.9
			c-0.1-0.2-0.2-0.4-0.5-0.5c-0.3-0.2-0.6-0.2-0.9-0.2c-0.6,0-0.9,0.3-0.9,0.8v0.6c0,0.3,0.1,0.5,0.3,0.7c0.2,0.1,0.4,0.2,0.7,0.2
			C41.8,23.5,42.2,23.3,42.5,23z"/>
	</g>
</g>
<g>
	<path fill="#FFFFFF" d="M-39.9,39.8c-0.2,0-0.4-0.1-0.6-0.3c0.2-0.5,0.3-1,0.3-1.4c0-0.5-0.2-1.1-0.6-1.7c0.1-0.2,0.1-0.5,0.1-0.7
		c0-0.3-0.1-0.6-0.3-0.9c-0.1-0.2-0.3-0.6-0.7-1.2v3.6c0,1.1,0.2,1.9,0.5,2.4c-0.2,0.2-0.5,0.3-0.7,0.3c-0.2,0-0.5-0.1-0.7-0.3
		c-0.2,0.2-0.4,0.3-0.6,0.3c-0.2,0-0.5-0.1-0.7-0.3c0.3-0.7,0.5-1.4,0.5-2.3c0-0.9-0.2-1.6-0.5-2c0.3-0.4,0.5-1.1,0.5-2
		c0-0.6-0.1-1.2-0.3-1.8l-0.2-0.5c0.4-0.2,0.7-0.3,1-0.3c0.3,0,0.6,0.1,0.9,0.3c0.3-0.2,0.6-0.3,1-0.3c0.2,0,0.5,0,0.7,0.1
		c0.2,0.1,0.3,0.1,0.4,0.2c-0.2,0.3-0.3,0.7-0.3,1.2c0,0.6,0.1,1.1,0.2,1.5l0.5,1.6l0.5-1.6c0.2-0.3,0.2-0.8,0.2-1.5
		c0-0.5-0.1-0.9-0.3-1.2c0-0.1,0.2-0.1,0.4-0.2c0.2-0.1,0.5-0.1,0.7-0.1c0.4,0,0.7,0.1,1,0.3c0.3-0.2,0.7-0.3,0.9-0.3
		c0.3,0,0.7,0.1,1,0.3l-0.2,0.5c-0.2,0.5-0.3,1.1-0.3,1.8c0,0.9,0.2,1.6,0.5,2c-0.3,0.4-0.5,1.1-0.5,2c0,0.9,0.2,1.6,0.5,2.3
		c-0.2,0.2-0.4,0.3-0.7,0.3c-0.2,0-0.4-0.1-0.6-0.3c-0.2,0.2-0.5,0.3-0.7,0.3c-0.3,0-0.5-0.1-0.7-0.3c0.2-0.3,0.4-0.8,0.5-1.5
		c0-0.3,0.1-0.6,0.1-0.9v-3.6c-0.4,0.6-0.6,1.1-0.7,1.2c-0.2,0.3-0.3,0.7-0.3,0.9c0,0.2,0,0.4,0.1,0.7c-0.4,0.6-0.6,1.2-0.6,1.7
		c0,0.4,0.1,0.9,0.3,1.4c-0.2,0.2-0.4,0.3-0.6,0.3c-0.2,0-0.4-0.1-0.6-0.3C-39.5,39.7-39.7,39.8-39.9,39.8z"/>
	<path fill="#FFFFFF" d="M-30.5,35.7c-0.3,0-0.5,0.1-0.7,0.2c-0.2,0.2-0.3,0.4-0.3,0.7v0.6c0,0.6,0.3,0.9,0.9,0.9
		c0.3,0,0.6-0.1,0.9-0.2c0.3-0.2,0.5-0.4,0.6-0.6c0.3,0.2,0.5,0.6,0.5,1c0,0.2,0,0.4-0.1,0.6c0.2,0.1,0.2,0.3,0.2,0.7
		c-0.2-0.1-0.5-0.2-0.8-0.2c-0.2,0-0.4,0-0.6,0.1c-0.2,0-0.4,0.1-0.6,0.2c-0.2,0.1-0.5,0.1-0.6,0.1c-0.4,0-0.8-0.1-1.2-0.4
		c-0.3,0.2-0.5,0.3-0.8,0.3c-0.3,0-0.5-0.1-0.7-0.3c0.3-0.7,0.5-1.4,0.5-2.3c0-0.9-0.2-1.5-0.5-2c0.3-0.4,0.5-1.1,0.5-2
		c0-0.9-0.2-1.6-0.5-2.3c0.2-0.2,0.5-0.3,0.7-0.3c0.3,0,0.6,0.1,0.8,0.3c0.4-0.2,0.8-0.4,1.2-0.4c0.2,0,0.4,0,0.6,0.1
		c0.2,0.1,0.4,0.1,0.6,0.2c0.2,0,0.4,0.1,0.6,0.1c0.3,0,0.6-0.1,0.8-0.2c0,0.4,0,0.6-0.2,0.7c0.1,0.2,0.1,0.4,0.1,0.6
		c0,0.4-0.2,0.7-0.5,1c-0.1-0.2-0.3-0.4-0.6-0.6c-0.3-0.2-0.6-0.2-0.9-0.2c-0.6,0-0.9,0.3-0.9,0.9v0.6c0,0.3,0.1,0.6,0.3,0.7
		c0.2,0.2,0.4,0.3,0.7,0.3c0.5,0,0.9-0.2,1.2-0.6c0,0.1,0.1,0.2,0.1,0.4c0,0.3-0.1,0.5-0.3,0.7c0.2,0.2,0.3,0.4,0.3,0.7
		c0,0.1,0,0.2-0.1,0.4C-29.6,35.9-30,35.7-30.5,35.7z"/>
	<path fill="#FFFFFF" d="M-23.5,34.4c0.2-0.3,0.3-0.8,0.3-1.4c0-0.9-0.2-1.6-0.5-1.9c0.2-0.2,0.4-0.3,0.7-0.3c0.2,0,0.5,0.1,0.7,0.3
		c0.2-0.2,0.5-0.3,0.7-0.3c0.2,0,0.5,0.1,0.7,0.3l-0.2,0.5c-0.2,0.5-0.3,1.1-0.3,1.8c0,0.9,0.2,1.6,0.5,2c-0.3,0.4-0.5,1.1-0.5,2
		c0,0.9,0.2,1.6,0.5,2.3c-0.2,0.2-0.4,0.3-0.6,0.3c-0.2,0-0.5-0.1-0.7-0.3c-0.2,0.2-0.4,0.3-0.7,0.3s-0.5-0.1-0.6-0.3
		c0.3-0.3,0.4-0.8,0.4-1.2c0-0.5-0.2-1-0.5-1.5l-1.4-1.8c-0.3,0.5-0.4,1.2-0.4,2c0,0.9,0.2,1.7,0.5,2.5c-0.2,0.2-0.4,0.3-0.7,0.3
		c-0.3,0-0.5-0.1-0.7-0.3c-0.2,0.2-0.5,0.3-0.7,0.3c-0.2,0-0.5-0.1-0.7-0.3c0.3-0.7,0.5-1.4,0.5-2.3c0-0.9-0.2-1.6-0.5-2
		c0.3-0.4,0.5-1.1,0.5-2c0-0.7-0.1-1.2-0.3-1.8l-0.2-0.5c0.2-0.2,0.4-0.3,0.7-0.3c0.3,0,0.5,0.1,0.7,0.3c0.2-0.2,0.5-0.3,0.7-0.3
		c0.2,0,0.5,0.1,0.7,0.3c-0.1,0.3-0.2,0.5-0.2,0.7c0,0.3,0.1,0.6,0.3,0.8L-23.5,34.4z"/>
	<path fill="#FFFFFF" d="M-15.4,39.5c-0.4,0.2-0.9,0.3-1.4,0.4c-0.5,0-1-0.1-1.4-0.3c-0.9-0.4-1.4-1.2-1.4-2.3v-1
		c0-0.5-0.2-0.8-0.5-0.9c0.2-0.1,0.3-0.3,0.4-0.6c0-0.1,0-0.2,0.1-0.4v-1c0-0.9-0.2-1.7-0.6-2.2c0.3-0.2,0.6-0.3,0.9-0.3
		c0.3,0,0.5,0.1,0.7,0.3c0.2-0.2,0.5-0.3,0.8-0.3c0.3,0,0.5,0.1,0.7,0.3c-0.3,0.6-0.5,1.4-0.5,2.3v0.9c0,0.5,0.2,0.8,0.5,0.9
		c-0.2,0.1-0.3,0.3-0.4,0.5c0,0.1-0.1,0.2-0.1,0.4v0.9c0,0.3,0.1,0.6,0.3,0.8c0.2,0.2,0.4,0.3,0.6,0.3c0.3,0,0.5-0.1,0.6-0.3
		c0.2-0.2,0.3-0.5,0.3-0.8v-0.9c0-0.5-0.2-0.8-0.5-0.9c0.2-0.1,0.3-0.3,0.4-0.6c0-0.1,0.1-0.2,0.1-0.4v-0.9c0-0.9-0.2-1.7-0.5-2.3
		c0.2-0.2,0.4-0.3,0.7-0.3c0.3,0,0.5,0.1,0.8,0.3c0.2-0.2,0.4-0.3,0.6-0.3c0.3,0,0.5,0.1,0.8,0.3c-0.2,0.4-0.4,0.9-0.4,1.4
		c0,0.3-0.1,0.5-0.1,0.8v1c0,0.5,0.2,0.8,0.5,0.9c-0.2,0.1-0.3,0.3-0.4,0.5c0,0.1-0.1,0.2-0.1,0.4v1C-14,38.3-14.5,39-15.4,39.5z"/>
</g>
<path fill-rule="evenodd" clip-rule="evenodd" fill="#FFFFFF" d="M-25.6,19.6c2.3-1,7.9-3.2,8-3.7c-0.9,0-7.5,2-9.9,2.8
	c-2.3-0.9-8.1-3.6-8.2-4.1c-0.1-0.4,0-0.9-0.1-1.2c-0.3-0.8-1.1-1.3-1.8-1.2c-0.6,0-1.1,0.6-1.7,0.7c-1.2,0-1.5-1.2-2.1-2
	c0-0.1-0.1,0-0.1,0c-0.1,1.7,1.8,1.8,2.2,2.8c0.2,0.4,0.1,0.9,0.3,1.2c0.3,0.6,1.1,1,2,0.9c0.4-0.1,0.7-0.6,1.3-0.6
	c0.3,0,2.3,1.3,2.7,1.5c1.2,0.7,2.8,1.5,3.2,2.8c-0.2,0.4-0.4,0.9-0.7,1.3c-0.9,0.5-4.3,2.8-5,2.8c-0.3,0-0.6-0.2-0.8-0.2
	c-1.4-0.4-3.2,0.2-3.2,1.8c0,0.8,0.6,1.7,1.4,1.9c1.2,0.2,2.2-0.5,2.5-1.3c0.2-0.4,0-0.9,0.2-1.5c0.2-0.4,5.9-3,8-3.9
	c2.4,0.8,9,2.9,9.8,2.8C-17.7,22.9-23.3,20.7-25.6,19.6z M-39,13.7c0.1-0.5,0.5-0.9,1.2-1c0.9-0.1,1.7,0.4,1.7,1.4
	C-36.1,16.2-39.5,15.8-39,13.7z M-39.3,25.3c0-1,0.8-1.5,1.7-1.6c1-0.1,1.5,0.4,1.7,0.9C-35.3,27.1-39.3,27.7-39.3,25.3z
	 M-27.5,20.2c-0.3,0-0.6-0.3-0.6-0.6c0-0.3,0.3-0.6,0.6-0.6c0.3,0,0.6,0.3,0.6,0.6S-27.2,20.2-27.5,20.2z"/>
<g>
	<path fill-rule="evenodd" clip-rule="evenodd" fill="#0D0D0D" d="M15.2,6.1c0,0,0.1,0,0.1,0c0.5,0.2-0.2,1.2,0.5,1.2
		c0.4,0.1,0.6,0,0.8,0c0.5,0,0.5-0.6,0.7-0.9c0.3-0.1,0.1,0.4,0.3,0.5c0.4,0,0.1-0.7,0.5-0.7c0.2,0.2,0.1,0.7,0.3,0.9
		c0.6,0.1,0.6-0.6,1-0.7c0.1,0.1,0.1,0.3,0.2,0.3c0.4,0.1,0.4-0.1,0.7-0.1c0,0.3-0.1,0.3,0,0.5c0.3,0.1,0.4-0.3,0.6-0.1
		c-0.2,0.7-0.4,1.1-0.9,1.5c-0.7,0.4-1.8,0.6-1.9,1.2c-0.1,0.5,0.7,1,0.6,1.8c0.4,0.3,1.6,0.3,1.8-0.2c-0.3-0.8-1-1.2-1-2.3
		c0.8,0.3,0.6,1.4,1.7,1.3c0.6-0.6-0.4-1.8,0.4-2.1c0.3,0.1,0.1,0.3,0,0.4c0.1,0.9,0.6,2.1,1.4,1.9c0.6-0.1,0.4-0.8,0.7-1.3
		c0.6,0.1,0.2,0.8,0.2,1.2c1.2-0.3,1-2,1.3-3.1c0.6,0,0.2,0.9,0.4,1.3c1.2,0.1,0.6-1.5,1.6-1.6c0.2,0.2-0.2,0.6,0,0.8
		c0.7,0.1,0.4-0.7,0.9-0.7c0.1,0,0,0.2,0.1,0.3c0.2,0.2,0.2-0.2,0.5,0.1c0.1-0.2,0.2-0.3,0.3-0.3c0,0.7-0.4,1.5-0.7,2
		c-0.9,1.2-3.3,2.3-5.3,2.6c-0.3,0-0.5,0.3-0.7,0.4c-0.6,0.2-1.2,0.1-1.7,0.3c0.1,0.3,0.4,0.7,0.8,0.9c0.7,0.4,1.9,0.3,2.8,0.7
		c0.6,0.2,1.2,0.6,1.8,0.7c1.4,0.2,2.9-0.4,4.2-0.2c1.6,0.2,2.5,1.7,2.9,3.2c0.1,0.3-0.3,0.1-0.3,0.3c-0.1,1-0.5,1.6-0.3,2.6
		c0.2,0.7,0.9,1.2,0.9,1.9c0,0.3-0.2,0.7-0.3,1.1c-0.2,1.3,0.1,2.6,0,4.2c-0.3,0.2-0.5,0.6-0.6,1.1c-0.5,0.1-1,0.2-1.4,0
		c0.1-0.3,0.3-0.5,0.5-0.7c1-2.1,0.7-6-0.9-7.2c-0.2,1.1,0.6,0.9-0.1,2.9c-0.5,1.8-1.6,3-2,4.9c-0.3,0.1-0.3,0.5-0.5,0.7
		c-0.4,0.1-0.9,0.2-1.3,0.1c0-0.4,0.4-0.7,0.6-1c0.6-0.8,1-1.6,1.3-2.7c0.4-1.2,0.9-3.5-0.1-4.7c-1.1-1.1-2.2,1.3-4.7,0
		c-0.7,1.8-0.2,4.8,0.1,6.6c-0.2,0.4-0.6,0.5-0.6,1c-0.3,0.1-0.9,0.3-1.2,0c0.1-0.4,0.5-0.6,0.6-1c0.5-1.2,0-3.1-0.3-4.3
		c-0.6,1.2-0.4,3.1-0.5,4.7c-0.3,0.3-0.7,0.5-0.8,1c-0.4,0-1.1,0.2-1.4-0.1c0.2-0.5,0.6-0.5,0.8-0.9c1-1.5,0.3-3.7,0.2-5.6
		c0-0.5,0.1-1,0-1.5c-0.2-1.2-1.7-2.2-2-3.4c-0.3,0.2-0.4,0.5-0.8,0.6c-1.4-0.4-0.6-2.7-1.3-3.7c-0.4,0-0.1,0.1-0.4,0
		c-1-0.1-1.3-1.9-0.4-2.5c0.6,0.1,0.8,0.4,1.3,0.2c-0.3-0.5-1-0.5-1.8-0.5c-0.8-1.2-2.7-1.6-2.7-3.4c0.5,0.1,0.4,0.9,1,1
		c0.3-0.7-0.7-1.6-0.1-2.3c0.3,0.3,0.2,1,0.5,1.4C15.2,8.1,15,6.9,15.2,6.1z"/>
</g>
<g>
	<path fill="#0D0D0D" d="M15,33.2c-0.1-0.6-0.2-1.1-0.4-1.3c0.2-0.2,0.4-0.3,0.7-0.3c0.2,0,0.5,0.1,0.7,0.3c0.2-0.2,0.5-0.3,0.7-0.3
		c0.2,0,0.5,0.1,0.7,0.3c-0.3,0.6-0.4,1.3-0.4,2.1c0,0.8,0.1,1.4,0.4,1.8c-0.3,0.4-0.4,1-0.4,1.8c0,0.8,0.1,1.5,0.4,2.1
		c-0.2,0.2-0.4,0.3-0.7,0.3c-0.2,0-0.5-0.1-0.7-0.3c-0.2,0.2-0.4,0.3-0.7,0.3c-0.2,0-0.5-0.1-0.7-0.3c0.2-0.2,0.4-0.6,0.4-1.3
		c0-0.2,0-0.6,0-1.3c0-0.4-0.1-0.7-0.4-0.8c-0.1,0-0.2,0-0.3,0c-0.1,0-0.2,0-0.3,0c-0.3,0.1-0.4,0.4-0.4,0.8c0,0.7,0,1.1,0,1.3
		c0.1,0.6,0.2,1.1,0.4,1.3c-0.2,0.2-0.4,0.3-0.7,0.3c-0.2,0-0.5-0.1-0.7-0.3C12.5,39.9,12.2,40,12,40c-0.2,0-0.5-0.1-0.7-0.3
		c0.3-0.6,0.4-1.3,0.4-2.1c0-0.8-0.1-1.4-0.4-1.8c0.3-0.4,0.4-1,0.4-1.8c0-0.8-0.1-1.5-0.4-2.1c0.2-0.2,0.4-0.3,0.7-0.3
		c0.2,0,0.5,0.1,0.7,0.3c0.2-0.2,0.5-0.3,0.7-0.3c0.2,0,0.5,0.1,0.7,0.3c-0.2,0.2-0.4,0.6-0.4,1.3c0,0.2,0,0.6,0,1.3
		c0,0.4,0.1,0.7,0.4,0.8c0.1,0,0.2,0,0.3,0c0.1,0,0.2,0,0.3,0c0.3-0.1,0.4-0.4,0.4-0.8C15.1,33.8,15.1,33.4,15,33.2z"/>
	<path fill="#0D0D0D" d="M22.3,39.7C21.9,39.9,21.5,40,21,40c-0.5,0-0.9-0.1-1.3-0.3c-0.9-0.4-1.3-1.1-1.3-2.1v-1
		c0-0.4-0.2-0.7-0.4-0.8c0.2-0.1,0.3-0.3,0.4-0.5c0-0.1,0-0.2,0.1-0.3v-0.9c0-1,0.4-1.7,1.3-2.1c0.4-0.2,0.8-0.3,1.3-0.3
		c0.5,0,0.9,0.1,1.3,0.3c0.9,0.4,1.3,1.1,1.3,2.1V35c0,0.4,0.2,0.7,0.4,0.8c-0.2,0.1-0.3,0.3-0.4,0.5c0,0.1,0,0.2-0.1,0.3v1
		C23.6,38.6,23.1,39.3,22.3,39.7z M21.9,36.7c0-0.4-0.2-0.7-0.4-0.8c0.2-0.1,0.3-0.3,0.4-0.5c0-0.1,0-0.2,0.1-0.3v-0.9
		c0-0.3-0.1-0.5-0.3-0.7c-0.2-0.2-0.4-0.3-0.6-0.3c-0.2,0-0.4,0.1-0.6,0.3c-0.2,0.2-0.3,0.4-0.3,0.7V35c0,0.4,0.2,0.7,0.4,0.8
		c-0.2,0.1-0.3,0.3-0.4,0.5c0,0.1,0,0.2-0.1,0.3v0.9c0,0.3,0.1,0.6,0.3,0.7c0.2,0.2,0.4,0.3,0.6,0.3c0.2,0,0.4-0.1,0.6-0.3
		c0.2-0.2,0.3-0.4,0.3-0.7V36.7z"/>
	<path fill="#0D0D0D" d="M28.3,40c-0.2,0-0.4-0.1-0.6-0.3c0.2-0.5,0.2-0.9,0.2-1.3c0-0.5-0.2-1-0.6-1.6c0.1-0.2,0.1-0.4,0.1-0.6
		c0-0.2-0.1-0.5-0.2-0.8c-0.1-0.2-0.3-0.5-0.6-1.1v3.3c0,1,0.2,1.7,0.5,2.2c-0.2,0.2-0.4,0.3-0.7,0.3c-0.2,0-0.4-0.1-0.6-0.3
		c-0.2,0.2-0.3,0.3-0.5,0.3c-0.2,0-0.4-0.1-0.6-0.3c0.3-0.6,0.4-1.3,0.4-2.1c0-0.8-0.1-1.4-0.4-1.8c0.3-0.4,0.5-1,0.5-1.9
		c0-0.6-0.1-1.1-0.3-1.6l-0.2-0.4c0.3-0.2,0.6-0.3,0.9-0.3c0.3,0,0.5,0.1,0.9,0.2c0.3-0.2,0.6-0.2,0.9-0.2c0.2,0,0.4,0,0.7,0.1
		c0.2,0,0.3,0.1,0.3,0.1c-0.2,0.3-0.3,0.7-0.3,1.1c0,0.6,0.1,1,0.2,1.3l0.5,1.5l0.5-1.5c0.1-0.3,0.2-0.8,0.2-1.3
		c0-0.5-0.1-0.9-0.3-1.1c0,0,0.2-0.1,0.3-0.1c0.2-0.1,0.4-0.1,0.7-0.1c0.4,0,0.7,0.1,0.9,0.2c0.3-0.2,0.6-0.2,0.9-0.2
		c0.3,0,0.6,0.1,0.9,0.3l-0.2,0.4c-0.2,0.5-0.3,1-0.3,1.6c0,0.8,0.2,1.5,0.5,1.9c-0.3,0.4-0.4,1-0.4,1.8c0,0.8,0.1,1.5,0.4,2.1
		c-0.2,0.2-0.4,0.3-0.6,0.3c-0.2,0-0.4-0.1-0.5-0.3c-0.2,0.2-0.4,0.3-0.6,0.3c-0.2,0-0.5-0.1-0.7-0.3c0.2-0.3,0.4-0.7,0.4-1.3
		c0-0.3,0.1-0.5,0.1-0.8v-3.3c-0.3,0.6-0.6,1-0.6,1.1c-0.2,0.3-0.2,0.6-0.2,0.8c0,0.2,0,0.4,0.1,0.6c-0.4,0.6-0.6,1.1-0.6,1.6
		c0,0.4,0.1,0.8,0.3,1.3c-0.2,0.2-0.4,0.3-0.6,0.3c-0.2,0-0.4-0.1-0.5-0.3C28.7,39.9,28.5,40,28.3,40z"/>
	<path fill="#0D0D0D" d="M36.9,36.2c-0.3,0-0.5,0.1-0.6,0.2c-0.2,0.2-0.3,0.4-0.3,0.7v0.6c0,0.5,0.3,0.8,0.8,0.8
		c0.3,0,0.6-0.1,0.8-0.2c0.3-0.1,0.4-0.3,0.5-0.5c0.3,0.2,0.4,0.5,0.4,0.9c0,0.2,0,0.4-0.1,0.5c0.1,0.1,0.2,0.3,0.2,0.6
		c-0.2-0.1-0.4-0.1-0.7-0.1c-0.2,0-0.4,0-0.6,0.1c-0.2,0-0.4,0.1-0.5,0.1C36.6,40,36.4,40,36.3,40c-0.4,0-0.7-0.1-1.1-0.3
		c-0.2,0.2-0.5,0.3-0.8,0.3c-0.3,0-0.5-0.1-0.7-0.3c0.3-0.6,0.4-1.3,0.4-2.1c0-0.8-0.1-1.4-0.4-1.8c0.3-0.4,0.4-1,0.4-1.8
		c0-0.8-0.1-1.5-0.4-2.1c0.2-0.2,0.4-0.3,0.7-0.3c0.3,0,0.5,0.1,0.8,0.3c0.4-0.2,0.8-0.3,1.1-0.3c0.2,0,0.4,0,0.6,0.1
		c0.2,0.1,0.4,0.1,0.5,0.1c0.2,0,0.4,0.1,0.6,0.1c0.3,0,0.5,0,0.7-0.1c0,0.4,0,0.6-0.2,0.6c0.1,0.2,0.1,0.3,0.1,0.5
		c0,0.4-0.1,0.7-0.4,0.9c-0.1-0.2-0.2-0.4-0.5-0.5c-0.3-0.2-0.6-0.2-0.8-0.2c-0.6,0-0.8,0.3-0.8,0.8v0.6c0,0.3,0.1,0.5,0.3,0.7
		c0.2,0.2,0.4,0.2,0.6,0.2c0.4,0,0.8-0.2,1.1-0.5c0,0.1,0.1,0.2,0.1,0.3c0,0.2-0.1,0.4-0.3,0.6c0.2,0.2,0.3,0.4,0.3,0.6
		c0,0.1,0,0.2-0.1,0.3C37.7,36.4,37.3,36.2,36.9,36.2z"/>
</g>
</svg>
