<?xml version="1.0" encoding="utf-8"?>
<!-- Generator: Adobe Illustrator 18.1.1, SVG Export Plug-In . SVG Version: 6.00 Build 0)  -->
<!DOCTYPE svg PUBLIC "-//W3C//DTD SVG 1.1//EN" "http://www.w3.org/Graphics/SVG/1.1/DTD/svg11.dtd">
<svg version="1.1" id="Layer_1" xmlns="http://www.w3.org/2000/svg" xmlns:xlink="http://www.w3.org/1999/xlink" x="0px" y="0px"
	 viewBox="0 0 50 50" enable-background="new 0 0 50 50" xml:space="preserve">
<circle fill="#307B8C" cx="25" cy="25" r="25"/>
<g>
	<path fill="#FFFFFF" d="M3.4,26.8h1.3c0,0.5,0.8,0.7,1.1,0.7c0.2,0,0.4-0.1,0.4-0.3c0-0.3-0.7-0.3-1.5-0.6
		c-0.7-0.2-1.3-0.7-1.3-1.6c0-1,1-1.4,1.8-1.4c0.7,0,1.3,0.3,1.5,0.8l0.1-0.7H8v1.8H6.7c0-0.4-0.5-0.8-1-0.8c-0.2,0-0.4,0.1-0.4,0.4
		c0,0.3,0.6,0.4,1.2,0.6c0.8,0.3,1.6,0.5,1.6,1.6c0,0.9-0.9,1.5-1.9,1.5c-0.7,0-1.3-0.4-1.5-0.7l-0.1,0.6H3.4V26.8z"/>
	<path fill="#FFFFFF" d="M14.1,28c-0.7,0.6-1.5,0.9-2.6,0.9c-1.2,0-2.6-0.8-2.6-2.7c0-1.6,1.2-2.6,2.7-2.6c1.2,0,2.1,0.6,2.4,1.4
		c0.1,0.3,0.2,1.1,0,1.7h-3.1c0.1,0.3,0.2,0.8,1,0.8c0.3,0,0.9,0,1.4-0.5L14.1,28z M12.3,25.7c0-0.4-0.1-0.8-0.7-0.8
		c-0.6,0-0.8,0.5-0.8,0.8H12.3z"/>
	<path fill="#FFFFFF" d="M15,28.6v-1.3h0.4V25H15v-1.3h1.9l0.3,0.6c0.3-0.5,0.5-0.9,1.5-0.9v1.8c-0.9,0-1.4,0.2-1.4,1.1v1h0.5v1.3
		H15z"/>
	<path fill="#FFFFFF" d="M22.9,27c0-0.2,0.1-0.7,0.3-1.1l0.5-1h-0.5v-1.3h2.6v1.3h-0.5l-1.7,3.7h-1.5l-1.9-3.7h-0.5v-1.3h3v1.3h-0.5
		l0.5,1.1C22.7,26.4,22.8,26.8,22.9,27L22.9,27z"/>
	<path fill="#FFFFFF" d="M26.5,28.6v-1.3h0.4V25h-0.4v-1.3h2.3v3.7h0.5v1.3H26.5z"/>
	<path fill="#FFFFFF" d="M33.6,25.9c0-0.5-0.2-1-0.6-1c-0.6,0-0.9,0.6-0.9,1.3c0,0.6,0.4,1.2,1,1.2c0.5,0,0.9-0.2,1.2-0.6l0.9,1
		c-0.5,0.5-1.4,1-2.4,1c-1.5,0-2.7-0.9-2.7-2.7c0-1.8,1.2-2.6,2.5-2.6c0.7,0,1.1,0.4,1.2,0.6l0.2-0.5h1.2v2.3H33.6z"/>
	<path fill="#FFFFFF" d="M41.1,28c-0.7,0.6-1.5,0.9-2.6,0.9c-1.2,0-2.6-0.8-2.6-2.7c0-1.6,1.2-2.6,2.7-2.6c1.2,0,2.1,0.6,2.4,1.4
		c0.1,0.3,0.2,1.1,0,1.7h-3.1c0.1,0.3,0.2,0.8,1,0.8c0.3,0,0.9,0,1.4-0.5L41.1,28z M39.4,25.7c0-0.4-0.1-0.8-0.7-0.8
		c-0.6,0-0.8,0.5-0.8,0.8H39.4z"/>
	<path fill="#FFFFFF" d="M41.9,26.8h1.3c0,0.5,0.8,0.7,1.1,0.7c0.2,0,0.4-0.1,0.4-0.3c0-0.3-0.7-0.3-1.5-0.6
		C42.6,26.3,42,25.9,42,25c0-1,1-1.4,1.8-1.4c0.7,0,1.3,0.3,1.5,0.8l0.1-0.7h1.2v1.8h-1.3c0-0.4-0.5-0.8-1-0.8
		c-0.2,0-0.4,0.1-0.4,0.4c0,0.3,0.6,0.4,1.2,0.6c0.8,0.3,1.6,0.5,1.6,1.6c0,0.9-0.9,1.5-1.9,1.5c-0.7,0-1.3-0.4-1.5-0.7l-0.1,0.6
		h-1.2V26.8z"/>
	<circle fill="#FFFFFF" cx="27.6" cy="21.8" r="1.2"/>
</g>
</svg>
