<?xml version="1.0" encoding="utf-8"?>
<!-- Generator: Adobe Illustrator 18.1.1, SVG Export Plug-In . SVG Version: 6.00 Build 0)  -->
<!DOCTYPE svg PUBLIC "-//W3C//DTD SVG 1.1//EN" "http://www.w3.org/Graphics/SVG/1.1/DTD/svg11.dtd">
<svg version="1.1" id="Layer_1" xmlns="http://www.w3.org/2000/svg" xmlns:xlink="http://www.w3.org/1999/xlink" x="0px" y="0px"
	 viewBox="0 0 50 50" enable-background="new 0 0 50 50" xml:space="preserve">
<circle fill="#307B8C" cx="25" cy="25" r="25"/>
<g display="none">
	<g display="inline">
		<path fill="#333335" d="M12.1,20c0.2-0.2,0.4-0.3,0.7-0.3c0.3,0,0.5,0.1,0.8,0.3c-0.2,0.6-0.3,1.2-0.3,1.7c0,0.6,0.2,1.2,0.7,2
			c-0.1,0.3-0.2,0.6-0.2,0.8c0,0.3,0.1,0.7,0.3,1.1c0.1,0.2,0.4,0.7,0.8,1.5v-4.2c0-0.4,0-0.7-0.1-1.1c-0.1-0.8-0.3-1.3-0.5-1.7
			c0.3-0.2,0.6-0.3,0.9-0.3c0.3,0,0.6,0.1,0.8,0.3c0.2-0.2,0.4-0.3,0.7-0.3c0.3,0,0.5,0.1,0.8,0.3c-0.4,0.8-0.5,1.7-0.5,2.7
			c0,1,0.2,1.8,0.5,2.3c-0.4,0.5-0.6,1.3-0.6,2.4c0,0.8,0.1,1.5,0.4,2.1l0.2,0.5c-0.4,0.2-0.8,0.3-1.2,0.3c-0.3,0-0.7-0.1-1.1-0.3
			c-0.3,0.2-0.7,0.3-1.2,0.3c-0.3,0-0.6,0-0.8-0.1c-0.2-0.1-0.4-0.1-0.4-0.2c0.2-0.4,0.3-0.8,0.3-1.5c0-0.7-0.1-1.3-0.3-1.7L12.1,25
			l-0.6,1.9c-0.2,0.4-0.3,1-0.3,1.7c0,0.6,0.1,1.1,0.3,1.5c-0.1,0.1-0.2,0.1-0.4,0.2c-0.3,0.1-0.6,0.1-0.8,0.1
			c-0.5,0-0.8-0.1-1.2-0.3c-0.4,0.2-0.8,0.3-1.1,0.3c-0.4,0-0.8-0.1-1.2-0.3L7,29.5c0.2-0.6,0.4-1.3,0.4-2.1c0-1.1-0.2-1.8-0.6-2.4
			c0.4-0.5,0.5-1.3,0.5-2.3c0-1-0.2-1.9-0.5-2.7c0.2-0.2,0.5-0.3,0.8-0.3c0.2,0,0.5,0.1,0.7,0.3c0.2-0.2,0.5-0.3,0.8-0.3
			c0.3,0,0.6,0.1,0.9,0.3c-0.4,0.5-0.6,1.5-0.6,2.8V27c0.4-0.8,0.7-1.2,0.8-1.5c0.2-0.4,0.3-0.8,0.3-1.1c0-0.2-0.1-0.5-0.2-0.8
			c0.5-0.8,0.7-1.4,0.7-2c0-0.5-0.1-1-0.3-1.7c0.2-0.2,0.5-0.3,0.7-0.3C11.7,19.7,11.9,19.8,12.1,20z"/>
	</g>
	<g display="inline">
		<path fill="#333335" d="M23.9,22.1v1c0,0.1,0,0.2,0.1,0.4c0.1,0.3,0.2,0.4,0.4,0.5c-0.3,0.1-0.4,0.4-0.4,0.9v0.9
			c0,1-0.4,1.7-1.3,2.1c-0.4,0.2-0.8,0.3-1.3,0.3c-0.5,0-0.9-0.1-1.3-0.3c-0.9-0.4-1.3-1.1-1.3-2.1v-0.9c0-0.1,0-0.2-0.1-0.4
			c-0.1-0.3-0.2-0.4-0.4-0.5c0.3-0.1,0.4-0.4,0.4-0.9v-1c0-1,0.4-1.8,1.3-2.2c0.4-0.2,0.8-0.3,1.3-0.3c0.5,0,0.9,0.1,1.3,0.3
			C23.5,20.4,23.9,21.1,23.9,22.1z M22.2,22.2c0-0.3-0.1-0.6-0.3-0.7c-0.2-0.2-0.4-0.3-0.6-0.3c-0.2,0-0.4,0.1-0.6,0.3
			c-0.2,0.2-0.3,0.4-0.3,0.7v0.9c0,0.1,0,0.2,0.1,0.4c0.1,0.3,0.2,0.4,0.4,0.5c-0.3,0.1-0.4,0.4-0.4,0.9v0.9c0,0.3,0.1,0.6,0.3,0.7
			c0.2,0.2,0.4,0.3,0.6,0.3c0.2,0,0.4-0.1,0.6-0.3c0.2-0.2,0.3-0.4,0.3-0.7v-0.9c0-0.1,0-0.2-0.1-0.4C22.1,24.2,22,24,21.8,24
			c0.3-0.1,0.4-0.4,0.4-0.9V22.2z"/>
		<path fill="#333335" d="M30.7,22.1v1c0,0.1,0,0.2,0.1,0.4c0.1,0.3,0.2,0.4,0.4,0.5c-0.3,0.1-0.4,0.4-0.4,0.9v0.9
			c0,1-0.4,1.7-1.3,2.1c-0.4,0.2-0.8,0.3-1.3,0.3c-0.5,0-0.9-0.1-1.3-0.3c-0.9-0.4-1.3-1.1-1.3-2.1v-0.9c0-0.1,0-0.2-0.1-0.4
			C25.3,24.2,25.2,24,25,24c0.3-0.1,0.4-0.4,0.4-0.9v-1c0-1,0.4-1.8,1.3-2.2c0.4-0.2,0.8-0.3,1.3-0.3c0.5,0,0.9,0.1,1.3,0.3
			C30.2,20.4,30.7,21.1,30.7,22.1z M29,22.2c0-0.3-0.1-0.6-0.3-0.7c-0.2-0.2-0.4-0.3-0.6-0.3c-0.2,0-0.4,0.1-0.6,0.3
			c-0.2,0.2-0.3,0.4-0.3,0.7v0.9c0,0.1,0,0.2,0.1,0.4c0.1,0.3,0.2,0.4,0.4,0.5c-0.3,0.1-0.4,0.4-0.4,0.9v0.9c0,0.3,0.1,0.6,0.3,0.7
			c0.2,0.2,0.4,0.3,0.6,0.3c0.2,0,0.4-0.1,0.6-0.3c0.2-0.2,0.3-0.4,0.3-0.7v-0.9c0-0.1,0-0.2-0.1-0.4c-0.1-0.3-0.2-0.4-0.4-0.5
			c0.3-0.1,0.4-0.4,0.4-0.9V22.2z"/>
		<path fill="#333335" d="M36.7,26.8c0.2,0.2,0.3,0.5,0.3,0.8c0,0.1,0,0.1,0,0.2c-0.2,0-0.4,0-0.5,0c-0.1,0-0.2,0-0.3,0.1
			c-0.1,0-0.2,0.1-0.3,0.2c-0.4,0.2-0.8,0.3-1.2,0.3c-0.7,0-1.3-0.3-1.8-0.8c-0.5-0.5-0.7-1.1-0.7-1.7c0-0.8,0.4-1.4,1.2-1.9
			c0.4-0.1,0.6-0.5,0.6-1c0.2,0,0.3,0.1,0.5,0.1c0.4,0,0.7-0.1,0.9-0.3c0.3-0.3,0.4-0.6,0.4-0.8c0-0.2-0.1-0.4-0.3-0.6
			c-0.2-0.1-0.5-0.2-0.9-0.2c-0.4,0-0.8,0.1-1.2,0.3c-0.5,0.2-0.8,0.6-1.1,1.1c-0.1-0.3-0.2-0.6-0.2-0.8c0-0.2,0-0.4,0.1-0.5
			c-0.3-0.2-0.4-0.5-0.4-0.9c0-0.1,0-0.2,0-0.2c0.2,0.2,0.5,0.3,0.6,0.3c0.1,0,0.3,0,0.4-0.1c0.2-0.1,0.4-0.2,0.5-0.2
			c0.5-0.1,1-0.2,1.4-0.2c0.9,0,1.6,0.3,2.1,0.8c0.5,0.5,0.7,1,0.7,1.7c0,0.9-0.4,1.6-1.2,2c-0.2,0.1-0.3,0.2-0.4,0.3
			c-0.3,0.2-0.5,0.5-0.5,0.7c-0.1-0.1-0.3-0.1-0.4-0.1c-0.3,0-0.5,0.1-0.8,0.3c-0.2,0.2-0.3,0.4-0.3,0.7c0,0.2,0.1,0.5,0.3,0.6
			c0.2,0.2,0.4,0.3,0.7,0.3c0.6,0,1-0.4,1.4-1.1C36.5,26.1,36.7,26.4,36.7,26.8z"/>
		<path fill="#333335" d="M42.5,23c0,0.1,0.1,0.2,0.1,0.3c0,0.2-0.1,0.4-0.3,0.6c0.2,0.2,0.3,0.4,0.3,0.6c0,0.1,0,0.2-0.1,0.3
			c-0.3-0.3-0.7-0.5-1.2-0.5c-0.3,0-0.5,0.1-0.7,0.2c-0.2,0.2-0.3,0.4-0.3,0.7v0.6c0,0.6,0.3,0.8,0.9,0.8c0.3,0,0.6-0.1,0.9-0.2
			c0.3-0.2,0.5-0.3,0.5-0.5c0.3,0.2,0.4,0.5,0.4,0.9c0,0.2,0,0.4-0.1,0.5c0.1,0.1,0.2,0.3,0.2,0.7c-0.2-0.1-0.4-0.1-0.7-0.1
			c-0.2,0-0.4,0-0.6,0.1c-0.2,0-0.4,0.1-0.6,0.1c-0.2,0.1-0.4,0.1-0.6,0.1c-0.4,0-0.7-0.1-1.1-0.3c-0.2,0.2-0.5,0.3-0.8,0.3
			c-0.3,0-0.5-0.1-0.7-0.3c0.3-0.6,0.4-1.3,0.4-2.1c0-0.8-0.1-1.4-0.4-1.8c0.3-0.4,0.4-1,0.4-1.8c0-0.8-0.1-1.5-0.4-2.1
			c0.2-0.2,0.4-0.3,0.7-0.3c0.3,0,0.5,0.1,0.8,0.3c0.4-0.2,0.8-0.3,1.1-0.3c0.2,0,0.4,0,0.6,0.1c0.2,0.1,0.4,0.1,0.6,0.1
			c0.2,0,0.4,0.1,0.6,0.1c0.3,0,0.5,0,0.7-0.1c0,0.4,0,0.6-0.2,0.7c0.1,0.2,0.1,0.4,0.1,0.5c0,0.4-0.1,0.7-0.4,0.9
			c-0.1-0.2-0.2-0.4-0.5-0.5c-0.3-0.2-0.6-0.2-0.9-0.2c-0.6,0-0.9,0.3-0.9,0.8v0.6c0,0.3,0.1,0.5,0.3,0.7c0.2,0.1,0.4,0.2,0.7,0.2
			C41.8,23.5,42.2,23.3,42.5,23z"/>
	</g>
</g>
<g>
	<path fill="#FFFFFF" d="M13.8,39.1c-0.2,0-0.4-0.1-0.6-0.3c0.2-0.5,0.3-1,0.3-1.4c0-0.5-0.2-1.1-0.6-1.7c0.1-0.2,0.1-0.5,0.1-0.7
		c0-0.3-0.1-0.6-0.3-0.9c-0.1-0.2-0.3-0.6-0.7-1.2v3.6c0,1.1,0.2,1.9,0.5,2.4c-0.2,0.2-0.5,0.3-0.7,0.3c-0.2,0-0.5-0.1-0.7-0.3
		c-0.2,0.2-0.4,0.3-0.6,0.3c-0.2,0-0.5-0.1-0.7-0.3c0.3-0.7,0.5-1.4,0.5-2.3c0-0.9-0.2-1.6-0.5-2c0.3-0.4,0.5-1.1,0.5-2
		c0-0.6-0.1-1.2-0.3-1.8l-0.2-0.5c0.4-0.2,0.7-0.3,1-0.3c0.3,0,0.6,0.1,0.9,0.3c0.3-0.2,0.6-0.3,1-0.3c0.2,0,0.5,0,0.7,0.1
		c0.2,0.1,0.3,0.1,0.4,0.2c-0.2,0.3-0.3,0.7-0.3,1.2c0,0.6,0.1,1.1,0.2,1.5l0.5,1.6l0.5-1.6c0.2-0.3,0.2-0.8,0.2-1.5
		c0-0.5-0.1-0.9-0.3-1.2c0-0.1,0.2-0.1,0.4-0.2c0.2-0.1,0.5-0.1,0.7-0.1c0.4,0,0.7,0.1,1,0.3c0.3-0.2,0.7-0.3,0.9-0.3
		c0.3,0,0.7,0.1,1,0.3l-0.2,0.5c-0.2,0.5-0.3,1.1-0.3,1.8c0,0.9,0.2,1.6,0.5,2c-0.3,0.4-0.5,1.1-0.5,2c0,0.9,0.2,1.6,0.5,2.3
		c-0.2,0.2-0.4,0.3-0.7,0.3c-0.2,0-0.4-0.1-0.6-0.3c-0.2,0.2-0.5,0.3-0.7,0.3c-0.3,0-0.5-0.1-0.7-0.3c0.2-0.3,0.4-0.8,0.5-1.5
		c0-0.3,0.1-0.6,0.1-0.9v-3.6c-0.4,0.6-0.6,1.1-0.7,1.2c-0.2,0.3-0.3,0.7-0.3,0.9c0,0.2,0,0.4,0.1,0.7c-0.4,0.6-0.6,1.2-0.6,1.7
		c0,0.4,0.1,0.9,0.3,1.4c-0.2,0.2-0.4,0.3-0.6,0.3c-0.2,0-0.4-0.1-0.6-0.3C14.2,39,14,39.1,13.8,39.1z"/>
	<path fill="#FFFFFF" d="M23.1,35c-0.3,0-0.5,0.1-0.7,0.2c-0.2,0.2-0.3,0.4-0.3,0.7v0.6c0,0.6,0.3,0.9,0.9,0.9
		c0.3,0,0.6-0.1,0.9-0.2c0.3-0.2,0.5-0.4,0.6-0.6c0.3,0.2,0.5,0.6,0.5,1c0,0.2,0,0.4-0.1,0.6c0.2,0.1,0.2,0.3,0.2,0.7
		c-0.2-0.1-0.5-0.2-0.8-0.2c-0.2,0-0.4,0-0.6,0.1c-0.2,0-0.4,0.1-0.6,0.2c-0.2,0.1-0.5,0.1-0.6,0.1c-0.4,0-0.8-0.1-1.2-0.4
		c-0.3,0.2-0.5,0.3-0.8,0.3c-0.3,0-0.5-0.1-0.7-0.3c0.3-0.7,0.5-1.4,0.5-2.3c0-0.9-0.2-1.5-0.5-2c0.3-0.4,0.5-1.1,0.5-2
		c0-0.9-0.2-1.6-0.5-2.3c0.2-0.2,0.5-0.3,0.7-0.3c0.3,0,0.6,0.1,0.8,0.3c0.4-0.2,0.8-0.4,1.2-0.4c0.2,0,0.4,0,0.6,0.1
		c0.2,0.1,0.4,0.1,0.6,0.2c0.2,0,0.4,0.1,0.6,0.1c0.3,0,0.6-0.1,0.8-0.2c0,0.4,0,0.6-0.2,0.7c0.1,0.2,0.1,0.4,0.1,0.6
		c0,0.4-0.2,0.7-0.5,1c-0.1-0.2-0.3-0.4-0.6-0.6c-0.3-0.2-0.6-0.2-0.9-0.2c-0.6,0-0.9,0.3-0.9,0.9v0.6c0,0.3,0.1,0.6,0.3,0.7
		c0.2,0.2,0.4,0.3,0.7,0.3c0.5,0,0.9-0.2,1.2-0.6c0,0.1,0.1,0.2,0.1,0.4c0,0.3-0.1,0.5-0.3,0.7c0.2,0.2,0.3,0.4,0.3,0.7
		c0,0.1,0,0.2-0.1,0.4C24,35.2,23.6,35,23.1,35z"/>
	<path fill="#FFFFFF" d="M30.1,33.7c0.2-0.3,0.3-0.8,0.3-1.4c0-0.9-0.2-1.6-0.5-1.9c0.2-0.2,0.4-0.3,0.7-0.3c0.2,0,0.5,0.1,0.7,0.3
		c0.2-0.2,0.5-0.3,0.7-0.3c0.2,0,0.5,0.1,0.7,0.3l-0.2,0.5c-0.2,0.5-0.3,1.1-0.3,1.8c0,0.9,0.2,1.6,0.5,2c-0.3,0.4-0.5,1.1-0.5,2
		c0,0.9,0.2,1.6,0.5,2.3c-0.2,0.2-0.4,0.3-0.6,0.3c-0.2,0-0.5-0.1-0.7-0.3c-0.2,0.2-0.4,0.3-0.7,0.3S30.2,39,30,38.8
		c0.3-0.3,0.4-0.8,0.4-1.2c0-0.5-0.2-1-0.5-1.5l-1.4-1.8c-0.3,0.5-0.4,1.2-0.4,2c0,0.9,0.2,1.7,0.5,2.5c-0.2,0.2-0.4,0.3-0.7,0.3
		c-0.3,0-0.5-0.1-0.7-0.3c-0.2,0.2-0.5,0.3-0.7,0.3c-0.2,0-0.5-0.1-0.7-0.3c0.3-0.7,0.5-1.4,0.5-2.3c0-0.9-0.2-1.6-0.5-2
		c0.3-0.4,0.5-1.1,0.5-2c0-0.7-0.1-1.2-0.3-1.8l-0.2-0.5c0.2-0.2,0.4-0.3,0.7-0.3c0.3,0,0.5,0.1,0.7,0.3c0.2-0.2,0.5-0.3,0.7-0.3
		c0.2,0,0.5,0.1,0.7,0.3c-0.1,0.3-0.2,0.5-0.2,0.7c0,0.3,0.1,0.6,0.3,0.8L30.1,33.7z"/>
	<path fill="#FFFFFF" d="M38.2,38.8c-0.4,0.2-0.9,0.3-1.4,0.4c-0.5,0-1-0.1-1.4-0.3c-0.9-0.4-1.4-1.2-1.4-2.3v-1
		c0-0.5-0.2-0.8-0.5-0.9c0.2-0.1,0.3-0.3,0.4-0.6c0-0.1,0-0.2,0.1-0.4v-1c0-0.9-0.2-1.7-0.6-2.2c0.3-0.2,0.6-0.3,0.9-0.3
		c0.3,0,0.5,0.1,0.7,0.3c0.2-0.2,0.5-0.3,0.8-0.3c0.3,0,0.5,0.1,0.7,0.3c-0.3,0.6-0.5,1.4-0.5,2.3v0.9c0,0.5,0.2,0.8,0.5,0.9
		c-0.2,0.1-0.3,0.3-0.4,0.5c0,0.1-0.1,0.2-0.1,0.4v0.9c0,0.3,0.1,0.6,0.3,0.8c0.2,0.2,0.4,0.3,0.6,0.3c0.3,0,0.5-0.1,0.6-0.3
		c0.2-0.2,0.3-0.5,0.3-0.8v-0.9c0-0.5-0.2-0.8-0.5-0.9c0.2-0.1,0.3-0.3,0.4-0.6c0-0.1,0.1-0.2,0.1-0.4v-0.9c0-0.9-0.2-1.7-0.5-2.3
		c0.2-0.2,0.4-0.3,0.7-0.3c0.3,0,0.5,0.1,0.8,0.3c0.2-0.2,0.4-0.3,0.6-0.3c0.3,0,0.5,0.1,0.8,0.3c-0.2,0.4-0.4,0.9-0.4,1.4
		c0,0.3-0.1,0.5-0.1,0.8v1c0,0.5,0.2,0.8,0.5,0.9c-0.2,0.1-0.3,0.3-0.4,0.5c0,0.1-0.1,0.2-0.1,0.4v1C39.6,37.6,39.2,38.3,38.2,38.8z
		"/>
</g>
<path fill-rule="evenodd" clip-rule="evenodd" fill="#FFFFFF" d="M28.1,18.9c2.3-1,7.9-3.2,8-3.7c-0.9,0-7.5,2-9.9,2.8
	c-2.3-0.9-8.1-3.6-8.2-4.1c-0.1-0.4,0-0.9-0.1-1.2c-0.3-0.8-1.1-1.3-1.8-1.2c-0.6,0-1.1,0.6-1.7,0.7c-1.2,0-1.5-1.2-2.1-2
	c0-0.1-0.1,0-0.1,0c-0.1,1.7,1.8,1.8,2.2,2.8c0.2,0.4,0.1,0.9,0.3,1.2c0.3,0.6,1.1,1,2,0.9c0.4-0.1,0.7-0.6,1.3-0.6
	c0.3,0,2.3,1.3,2.7,1.5c1.2,0.7,2.8,1.5,3.2,2.8c-0.2,0.4-0.4,0.9-0.7,1.3c-0.9,0.5-4.3,2.8-5,2.8c-0.3,0-0.6-0.2-0.8-0.2
	C15.8,22.4,14,23,14,24.6c0,0.8,0.6,1.7,1.4,1.9c1.2,0.2,2.2-0.5,2.5-1.3c0.2-0.4,0-0.9,0.2-1.5c0.2-0.4,5.9-3,8-3.9
	c2.4,0.8,9,2.9,9.8,2.8C35.9,22.2,30.3,20,28.1,18.9z M14.6,13c0.1-0.5,0.5-0.9,1.2-1c0.9-0.1,1.7,0.4,1.7,1.4
	C17.5,15.5,14.2,15.1,14.6,13z M14.4,24.6c0-1,0.8-1.5,1.7-1.6c1-0.1,1.5,0.4,1.7,0.9C18.3,26.4,14.4,27,14.4,24.6z M26.1,19.5
	c-0.3,0-0.6-0.3-0.6-0.6c0-0.3,0.3-0.6,0.6-0.6c0.3,0,0.6,0.3,0.6,0.6C26.7,19.3,26.4,19.5,26.1,19.5z"/>
<g>
	<path fill-rule="evenodd" clip-rule="evenodd" fill="#FFFFFF" d="M85.6,7.4c0,0,0.1,0,0.1,0c0.5,0.2-0.2,1.2,0.5,1.2
		c0.4,0.1,0.6,0,0.8,0c0.5,0,0.5-0.6,0.7-0.9c0.3-0.1,0.1,0.4,0.3,0.5c0.4,0,0.1-0.7,0.5-0.7c0.2,0.2,0.1,0.7,0.3,0.9
		c0.6,0.1,0.6-0.6,1-0.7C90.1,7.8,90.1,8,90.2,8c0.4,0.1,0.4-0.1,0.7-0.1c0,0.3-0.1,0.3,0,0.5c0.3,0.1,0.4-0.3,0.6-0.1
		c-0.2,0.7-0.4,1.1-0.9,1.5c-0.7,0.4-1.8,0.6-1.9,1.2c-0.1,0.5,0.7,1,0.6,1.8c0.4,0.3,1.6,0.3,1.8-0.2c-0.3-0.8-1-1.2-1-2.3
		c0.8,0.3,0.6,1.4,1.7,1.3c0.6-0.6-0.4-1.8,0.4-2.1c0.3,0.1,0.1,0.3,0,0.4c0.1,0.9,0.6,2.1,1.4,1.9c0.6-0.1,0.4-0.8,0.7-1.3
		c0.6,0.1,0.2,0.8,0.2,1.2c1.2-0.3,1-2,1.3-3.1c0.6,0,0.2,0.9,0.4,1.3c1.2,0.1,0.6-1.5,1.6-1.6c0.2,0.2-0.2,0.6,0,0.8
		c0.7,0.1,0.4-0.7,0.9-0.7c0.1,0,0,0.2,0.1,0.3c0.2,0.2,0.2-0.2,0.5,0.1c0.1-0.2,0.2-0.3,0.3-0.3c0,0.7-0.4,1.5-0.7,2
		c-0.9,1.2-3.3,2.3-5.3,2.6c-0.3,0-0.5,0.3-0.7,0.4c-0.6,0.2-1.2,0.1-1.7,0.3c0.1,0.3,0.4,0.7,0.8,0.9c0.7,0.4,1.9,0.3,2.8,0.7
		c0.6,0.2,1.2,0.6,1.8,0.7c1.4,0.2,2.9-0.4,4.2-0.2c1.6,0.2,2.5,1.7,2.9,3.2c0.1,0.3-0.3,0.1-0.3,0.3c-0.1,1-0.5,1.6-0.3,2.6
		c0.2,0.7,0.9,1.2,0.9,1.9c0,0.3-0.2,0.7-0.3,1.1c-0.2,1.3,0.1,2.6,0,4.2c-0.3,0.2-0.5,0.6-0.6,1.1c-0.5,0.1-1,0.2-1.4,0
		c0.1-0.3,0.3-0.5,0.5-0.7c1-2.1,0.7-6-0.9-7.2c-0.2,1.1,0.6,0.9-0.1,2.9c-0.5,1.8-1.6,3-2,4.9c-0.3,0.1-0.3,0.5-0.5,0.7
		c-0.4,0.1-0.9,0.2-1.3,0.1c0-0.4,0.4-0.7,0.6-1c0.6-0.8,1-1.6,1.3-2.7c0.4-1.2,0.9-3.5-0.1-4.7c-1.1-1.1-2.2,1.3-4.7,0
		C94.2,24,94.6,27,95,28.8c-0.2,0.4-0.6,0.5-0.6,1c-0.3,0.1-0.9,0.3-1.2,0c0.1-0.4,0.5-0.6,0.6-1c0.5-1.2,0-3.1-0.3-4.3
		c-0.6,1.2-0.4,3.1-0.5,4.7c-0.3,0.3-0.7,0.5-0.8,1c-0.4,0-1.1,0.2-1.4-0.1c0.2-0.5,0.6-0.5,0.8-0.9c1-1.5,0.3-3.7,0.2-5.6
		c0-0.5,0.1-1,0-1.5c-0.2-1.2-1.7-2.2-2-3.4c-0.3,0.2-0.4,0.5-0.8,0.6c-1.4-0.4-0.6-2.7-1.3-3.7c-0.4,0-0.1,0.1-0.4,0
		c-1-0.1-1.3-1.9-0.4-2.5c0.6,0.1,0.8,0.4,1.3,0.2c-0.3-0.5-1-0.5-1.8-0.5c-0.8-1.2-2.7-1.6-2.7-3.4c0.5,0.1,0.4,0.9,1,1
		C85,10,84,9.1,84.6,8.4c0.3,0.3,0.2,1,0.5,1.4C85.7,9.4,85.4,8.1,85.6,7.4z"/>
</g>
<g>
	<path fill="#FFFFFF" d="M86.5,34.6c-0.1-0.6-0.2-1-0.4-1.2c0.2-0.2,0.4-0.3,0.6-0.3s0.5,0.1,0.7,0.3c0.2-0.2,0.4-0.3,0.7-0.3
		c0.2,0,0.4,0.1,0.6,0.3c-0.3,0.6-0.4,1.3-0.4,2c0,0.8,0.1,1.4,0.4,1.7c-0.3,0.4-0.4,0.9-0.4,1.7c0,0.8,0.1,1.4,0.4,2
		c-0.2,0.2-0.4,0.3-0.6,0.3c-0.2,0-0.4-0.1-0.7-0.3c-0.2,0.2-0.4,0.3-0.7,0.3s-0.4-0.1-0.6-0.3c0.2-0.2,0.3-0.6,0.4-1.2
		c0-0.2,0-0.6,0-1.3c0-0.4-0.1-0.6-0.4-0.8c-0.1,0-0.2,0-0.3,0c-0.1,0-0.2,0-0.3,0c-0.3,0.1-0.4,0.4-0.4,0.8c0,0.7,0,1.1,0,1.3
		c0.1,0.6,0.2,1,0.4,1.2c-0.2,0.2-0.4,0.3-0.6,0.3c-0.2,0-0.5-0.1-0.7-0.3c-0.2,0.2-0.4,0.3-0.7,0.3c-0.2,0-0.4-0.1-0.6-0.3
		c0.3-0.6,0.4-1.3,0.4-2c0-0.8-0.1-1.4-0.4-1.7c0.3-0.4,0.4-0.9,0.4-1.7c0-0.8-0.1-1.4-0.4-2c0.2-0.2,0.4-0.3,0.6-0.3
		c0.2,0,0.5,0.1,0.7,0.3c0.2-0.2,0.4-0.3,0.7-0.3c0.2,0,0.4,0.1,0.6,0.3c-0.2,0.2-0.3,0.6-0.4,1.2c0,0.2,0,0.6,0,1.3
		c0,0.4,0.1,0.6,0.4,0.8c0.1,0,0.2,0,0.3,0c0.1,0,0.2,0,0.3,0c0.3-0.1,0.4-0.4,0.4-0.8C86.5,35.2,86.5,34.7,86.5,34.6z"/>
	<path fill="#FFFFFF" d="M93.4,40.8c-0.3,0.2-0.7,0.3-1.2,0.3c-0.5,0-0.9-0.1-1.2-0.3c-0.8-0.4-1.2-1.1-1.2-2v-0.9
		c0-0.4-0.2-0.7-0.4-0.8c0.2-0.1,0.3-0.2,0.4-0.5c0-0.1,0-0.2,0-0.3v-0.9c0-0.9,0.4-1.6,1.2-2c0.3-0.2,0.7-0.3,1.2-0.3
		c0.5,0,0.9,0.1,1.2,0.3c0.8,0.4,1.2,1.1,1.2,2v0.9c0,0.4,0.2,0.7,0.4,0.8c-0.2,0.1-0.3,0.2-0.4,0.5c0,0.1,0,0.2,0,0.3v0.9
		C94.6,39.7,94.2,40.4,93.4,40.8z M93,37.9c0-0.4-0.2-0.7-0.4-0.8c0.2-0.1,0.3-0.2,0.4-0.5c0-0.1,0-0.2,0.1-0.3v-0.8
		c0-0.3-0.1-0.5-0.2-0.7s-0.4-0.3-0.6-0.3c-0.2,0-0.4,0.1-0.6,0.3s-0.2,0.4-0.2,0.7v0.8c0,0.4,0.2,0.7,0.4,0.8
		c-0.2,0.1-0.3,0.2-0.4,0.5c0,0.1,0,0.2-0.1,0.3v0.8c0,0.3,0.1,0.5,0.2,0.7c0.2,0.2,0.3,0.2,0.6,0.2c0.2,0,0.4-0.1,0.6-0.2
		C93,39.2,93,39,93,38.7V37.9z"/>
	<path fill="#FFFFFF" d="M99.1,41.1c-0.2,0-0.4-0.1-0.6-0.3c0.2-0.5,0.2-0.9,0.2-1.2c0-0.4-0.2-0.9-0.5-1.5c0.1-0.2,0.1-0.4,0.1-0.6
		c0-0.2-0.1-0.5-0.2-0.8c-0.1-0.2-0.3-0.5-0.6-1.1v3.2c0,1,0.2,1.7,0.5,2.1c-0.2,0.2-0.4,0.3-0.7,0.3c-0.2,0-0.4-0.1-0.6-0.3
		c-0.2,0.2-0.3,0.3-0.5,0.3c-0.2,0-0.4-0.1-0.6-0.3c0.3-0.6,0.4-1.3,0.4-2c0-0.8-0.1-1.4-0.4-1.7c0.3-0.4,0.4-1,0.4-1.8
		c0-0.6-0.1-1.1-0.3-1.6l-0.2-0.4c0.3-0.2,0.6-0.2,0.9-0.2c0.2,0,0.5,0.1,0.8,0.2c0.2-0.2,0.5-0.2,0.9-0.2c0.2,0,0.4,0,0.6,0.1
		c0.2,0,0.3,0.1,0.3,0.1C99.1,33.6,99,34,99,34.4c0,0.6,0.1,1,0.2,1.3l0.5,1.4l0.5-1.4c0.1-0.3,0.2-0.7,0.2-1.3
		c0-0.5-0.1-0.8-0.2-1.1c0,0,0.1-0.1,0.3-0.1c0.2-0.1,0.4-0.1,0.6-0.1c0.3,0,0.6,0.1,0.9,0.2c0.3-0.2,0.6-0.2,0.8-0.2
		c0.3,0,0.6,0.1,0.9,0.2l-0.2,0.4c-0.2,0.5-0.3,1-0.3,1.6c0,0.8,0.1,1.4,0.4,1.8c-0.3,0.4-0.4,1-0.4,1.7c0,0.8,0.1,1.4,0.4,2
		c-0.2,0.2-0.4,0.3-0.6,0.3c-0.2,0-0.4-0.1-0.5-0.3c-0.2,0.2-0.4,0.3-0.6,0.3c-0.2,0-0.4-0.1-0.6-0.3c0.2-0.3,0.3-0.7,0.4-1.3
		c0-0.2,0.1-0.5,0.1-0.8v-3.2c-0.3,0.6-0.5,0.9-0.6,1.1c-0.1,0.3-0.2,0.6-0.2,0.8c0,0.2,0,0.4,0.1,0.6c-0.4,0.6-0.5,1.1-0.5,1.5
		c0,0.3,0.1,0.8,0.2,1.2c-0.2,0.2-0.4,0.3-0.6,0.3c-0.2,0-0.4-0.1-0.5-0.3C99.5,41,99.3,41.1,99.1,41.1z"/>
	<path fill="#FFFFFF" d="M107.4,37.5c-0.2,0-0.4,0.1-0.6,0.2c-0.2,0.2-0.3,0.4-0.3,0.6v0.6c0,0.5,0.3,0.8,0.8,0.8
		c0.3,0,0.5-0.1,0.8-0.2c0.3-0.1,0.4-0.3,0.5-0.5c0.3,0.2,0.4,0.5,0.4,0.8c0,0.2,0,0.3-0.1,0.5c0.1,0.1,0.2,0.3,0.2,0.6
		c-0.2-0.1-0.4-0.1-0.7-0.1c-0.2,0-0.4,0-0.5,0.1c-0.2,0-0.3,0.1-0.5,0.1c-0.2,0.1-0.4,0.1-0.6,0.1c-0.3,0-0.7-0.1-1.1-0.3
		c-0.2,0.2-0.5,0.3-0.7,0.3c-0.2,0-0.5-0.1-0.7-0.3c0.3-0.6,0.4-1.2,0.4-2c0-0.8-0.1-1.4-0.4-1.7c0.3-0.4,0.4-0.9,0.4-1.7
		c0-0.7-0.1-1.4-0.4-2c0.2-0.2,0.4-0.3,0.7-0.3c0.2,0,0.5,0.1,0.7,0.3c0.4-0.2,0.7-0.3,1.1-0.3c0.2,0,0.4,0,0.6,0.1
		c0.2,0.1,0.3,0.1,0.5,0.1c0.2,0,0.3,0.1,0.5,0.1c0.3,0,0.5,0,0.7-0.1c0,0.4,0,0.6-0.2,0.6c0.1,0.2,0.1,0.3,0.1,0.5
		c0,0.4-0.1,0.6-0.4,0.8c-0.1-0.2-0.2-0.4-0.5-0.5c-0.3-0.1-0.5-0.2-0.8-0.2c-0.5,0-0.8,0.3-0.8,0.8v0.6c0,0.3,0.1,0.5,0.2,0.6
		c0.2,0.2,0.4,0.2,0.6,0.2c0.4,0,0.8-0.2,1.1-0.5c0,0.1,0.1,0.2,0.1,0.3c0,0.2-0.1,0.4-0.3,0.6c0.2,0.2,0.3,0.4,0.3,0.6
		c0,0.1,0,0.2-0.1,0.3C108.1,37.7,107.8,37.5,107.4,37.5z"/>
</g>
</svg>
