<?xml version="1.0" encoding="utf-8"?>
<!-- Generator: Adobe Illustrator 18.1.1, SVG Export Plug-In . SVG Version: 6.00 Build 0)  -->
<!DOCTYPE svg PUBLIC "-//W3C//DTD SVG 1.1//EN" "http://www.w3.org/Graphics/SVG/1.1/DTD/svg11.dtd">
<svg version="1.1" id="Layer_1" xmlns="http://www.w3.org/2000/svg" xmlns:xlink="http://www.w3.org/1999/xlink" x="0px" y="0px"
	 viewBox="0 0 612 792" enable-background="new 0 0 612 792" xml:space="preserve">
<g>
	<g id="blend">
		<g>
			<circle cx="38.1" cy="421.1" r="3.4"/>
			<circle cx="17.5" cy="421.1" r="2.6"/>
			<circle cx="1.3" cy="421.1" r="1.3"/>
		</g>
		<g>
			<circle cx="573.9" cy="421.1" r="3.4"/>
			<circle cx="594.5" cy="421.1" r="2.6"/>
			<circle cx="610.7" cy="421.1" r="1.3"/>
		</g>
		<g>
			<line fill="none" stroke="#000000" stroke-width="4.2463" stroke-miterlimit="10" x1="53.5" y1="421.1" x2="558.7" y2="421.1"/>
			<line fill="none" stroke="#000000" stroke-width="3.6094" stroke-miterlimit="10" x1="101" y1="453.7" x2="511.2" y2="453.7"/>
			<line fill="none" stroke="#000000" stroke-width="2.9724" stroke-miterlimit="10" x1="148.5" y1="486.3" x2="463.7" y2="486.3"/>
			<line fill="none" stroke="#000000" stroke-width="2.3355" stroke-miterlimit="10" x1="196" y1="518.8" x2="416.2" y2="518.8"/>
			<line fill="none" stroke="#000000" stroke-width="1.6985" stroke-miterlimit="10" x1="243.5" y1="551.4" x2="368.7" y2="551.4"/>
			<line fill="none" stroke="#000000" stroke-width="1.0616" stroke-miterlimit="10" x1="291" y1="583.9" x2="321.2" y2="583.9"/>
		</g>
	</g>
	<g id="quote">
		<g id="must">
			<path fill="#0D0D0D" d="M337,529c5-1.9,10.2,3.8,5.3,7.3c-9.2,4-22.9-19.8-36.9-7.1c-14.1-12.7-27.7,11.1-36.9,7.1
				c-4.9-3.5,0.3-9.2,5.3-7.3c-3.1-4.9-14-0.9-10.7,9.4c2.6,8,19,15.8,42.3,0.7c23.4,15,39.7,7.3,42.3-0.7
				C350.9,528.1,340.1,524.2,337,529z"/>
		</g>
		<g id="ribbon_1_">
			<polygon fill="#202021" points="246.3,503.7 160.6,503.7 169,522.2 160.6,539.6 246.3,539.6 			"/>
			<polygon fill="#202021" points="365.9,503.7 451.5,503.7 443.1,522.2 451.5,539.6 365.9,539.6 			"/>
			<polygon fill="#0D0D0D" points="199.9,485.5 246.3,502.6 246.3,539.3 199.9,522.4 			"/>
			<polygon fill="#0D0D0D" points="412.3,485.5 365.9,502.6 365.9,539.3 412.3,522.4 			"/>
			<path fill="#333335" d="M412.3,522.4c0,0-71.6-7.9-106.2-7.9s-106.2,7.9-106.2,7.9v-36.9c0,0,65.3-7.9,106.2-7.9
				s106.2,7.9,106.2,7.9V522.4z"/>
		</g>
		<g id="trad_1_">
			<g>
				<path fill="#0D0D0D" d="M238.7,495.5c0,0.7-0.2,1.2-0.6,1.6c-1.9-1-3.4-1.4-4.6-1.4c-0.6,0-1,0.1-1.4,0.3
					c-0.1,2.6,0.3,4.6,1.2,5.8c-0.8,1.1-1.2,2.8-1.2,5.2c0,2.2,0.4,4.3,1.2,6.1c-0.6,0.5-1.2,0.7-1.9,0.7c-0.7,0-1.3-0.3-1.9-0.9
					c-0.7,0.6-1.3,0.9-2,0.9c-0.7,0-1.3-0.2-1.9-0.7c0.8-1.8,1.2-3.8,1.2-6.1c0-2.4-0.4-4.1-1.2-5.2c0.9-1.2,1.3-3.1,1.2-5.7
					c-0.3-0.3-0.8-0.4-1.6-0.4c-1.2,0-2.8,0.4-4.6,1.4c-0.4-0.4-0.6-1-0.6-1.6s0.2-1.4,0.6-2.2c-0.4-0.4-0.6-0.9-0.6-1.6
					c0-0.6,0.2-1.2,0.6-1.7c1.3,0.6,2.8,0.9,4.3,0.9c1.5,0,3-0.3,4.4-0.9c1.4,0.6,2.9,0.9,4.4,0.9c1.6,0,3.1-0.3,4.4-0.9
					c0.4,0.5,0.6,1.1,0.6,1.7c0,0.7-0.2,1.2-0.6,1.6C238.5,494,238.7,494.8,238.7,495.5z"/>
				<path fill="#0D0D0D" d="M257.3,513.9c-1.7,0-3.3-0.7-4.7-1.9c0.6-0.8,0.9-1.6,0.9-2.4c0-0.9-0.4-1.9-1.3-3.1
					c0.3-0.4,0.4-0.8,0.4-1.3c0-0.6-0.2-1.1-0.7-1.6c-0.5-0.4-1.1-0.7-1.7-0.7c-0.7,0-1.2,0.3-1.6,0.8c-0.4,0.6-0.7,1.6-0.7,2.8
					c0,3.1,0.6,5.2,1.8,6.4c-0.5,0.5-1.2,0.7-1.9,0.7s-1.4-0.3-2.1-0.9c-0.7,0.6-1.4,0.9-2.2,0.9s-1.3-0.2-1.9-0.7
					c0.8-1.7,1.2-3.7,1.2-5.9c0-2.3-0.4-4-1.2-5.1c0.8-1.1,1.2-2.8,1.2-5.1c0-2.2-0.4-4.2-1.2-5.9c0.5-0.5,1.2-0.7,1.9-0.7
					s1.4,0.3,2.2,0.9c1.3-0.7,2.8-1,4.6-1c1.9,0,3.6,0.4,4.9,1.2c1.4,0.8,2.2,1.9,2.2,3.2c0,1.3,0.4,2.1,1.1,2.5
					c-0.5,0.2-0.8,0.7-1,1.4c-0.1,0.3-0.1,0.6-0.1,1c-0.1,1.1-0.8,2-2.2,2.6c0.8,0.4,1.4,0.8,1.8,1.5c0.1,0.3,0.2,0.6,0.2,0.9
					c-0.1,1,0.4,1.6,1.1,1.9c0.1,0,0.1,0.4,0.2,1.3c0.1,1,0.3,2,0.6,2.8c0.4,1.2,1,2.2,1.8,3C259.6,513.6,258.4,513.9,257.3,513.9z
					 M252.2,495.8c0-0.4-0.2-0.8-0.6-1.2c-0.4-0.3-0.9-0.4-1.4-0.4c-0.7,0-1.3,0.2-1.6,0.7c-0.5,0.6-0.7,1.4-0.7,2.5
					s0.2,1.9,0.7,2.4c0.4,0.4,1,0.7,1.6,0.7c0.5,0,1-0.1,1.4-0.4c0.4-0.3,0.6-0.7,0.6-1.2s-0.2-1-0.7-1.5
					C252,496.8,252.2,496.3,252.2,495.8z"/>
				<path fill="#0D0D0D" d="M279.2,513.9c-0.7,0-1-0.2-1.3-0.6c0.5-1,0.7-2.2,0.7-3.1c0-1.3-0.4-2.4-1-3.2c-0.7-0.8-1.6-1.3-2.7-1.3
					c-1.1,0-2,0.4-2.8,1.3c-0.7,0.8-1,1.9-1,3.2c0,1,0.2,2.1,0.7,3.1c-0.1,0.4-0.6,0.6-1.3,0.6s-1.5-0.2-2.5-0.6
					c-0.4,0.4-1,0.6-1.6,0.6c-0.8,0-1.6-0.2-2.5-0.7c2.8-2.9,4.3-6.1,4.3-9.6c0-0.7-0.1-1.2-0.1-1.6c2.4-2.9,3.6-5.9,3.6-8.8
					c0-1-0.1-1.8-0.5-2.4c0.5-0.5,1.2-0.7,1.8-0.7c0.7,0,1.3,0.3,1.9,0.9c0.6-0.6,1.2-0.9,1.9-0.9c0.7,0,1.3,0.2,1.9,0.7
					c-0.4,0.5-0.5,1.3-0.5,2.4c0,2.9,1.2,5.9,3.6,8.8c-0.1,0.4-0.1,1-0.1,1.6c0,3.5,1.4,6.7,4.3,9.6c-0.9,0.5-1.7,0.7-2.5,0.7
					c-0.7,0-1.2-0.2-1.6-0.6C280.7,513.7,279.9,513.9,279.2,513.9z M274.9,498.3c-0.8,1.3-1.2,2.8-1.2,4.2c0.4-0.2,0.9-0.3,1.2-0.3
					c0.3,0,0.7,0.1,1.2,0.3C276.1,501,275.6,499.6,274.9,498.3z"/>
				<path fill="#0D0D0D" d="M305.8,501.9c-0.4,0.2-0.8,0.7-1,1.4c-0.1,0.3-0.1,0.7-0.1,1v5.1c0,1.3-1,2.5-2.2,3.3
					c-1.3,0.8-2.8,1.2-4.6,1.2c-1.6,0-3.2-0.4-4.7-1c-0.7,0.6-1.4,0.9-2.1,0.9c-0.7,0-1.4-0.2-1.9-0.7c0.8-1.7,1.2-3.7,1.2-5.9
					c0-2.3-0.4-4-1.2-5.1c0.8-1.1,1.2-2.8,1.2-5.1c0-2.2-0.4-4.2-1.2-5.9c0.5-0.5,1.2-0.7,1.9-0.7s1.4,0.3,2.1,0.9
					c1.3-0.7,2.9-1,4.6-1c1.9,0,3.5,0.4,4.9,1.3c1.4,0.8,2.1,1.9,2.1,3.1v5.1C304.6,500.7,305.1,501.5,305.8,501.9z M300.1,496.7
					c0-0.8-0.4-1.5-0.8-2c-0.4-0.4-1-0.6-1.7-0.6c-0.6,0-1.3,0.1-1.8,0.5c-0.4,0.4-0.9,0.9-0.9,1.5v3.2c0,1.3,0.6,2.1,1.3,2.5
					c-0.5,0.2-0.9,0.7-1.1,1.4c-0.1,0.3-0.2,0.7-0.2,1v4c0,0.6,0.4,1.1,0.8,1.5c0.4,0.4,1,0.5,1.7,0.5c0.7,0,1.3-0.2,1.9-0.7
					c0.4-0.4,0.8-1.1,0.8-1.9v-3.4c0-1.3-0.5-2.1-1.3-2.5c0.5-0.2,0.9-0.7,1.1-1.4c0.1-0.3,0.1-0.7,0.1-1V496.7z"/>
				<path fill="#0D0D0D" d="M313.1,513c-0.6,0.6-1.3,0.9-1.9,0.9c-0.7,0-1.3-0.2-1.9-0.7c0.8-1.7,1.2-3.7,1.2-6
					c0-2.3-0.4-4.1-1.2-5.2c0.8-1.1,1.2-2.8,1.2-5.2c0-2.2-0.4-4.3-1.2-6c0.6-0.5,1.2-0.7,1.9-0.7c0.7,0,1.3,0.3,1.9,0.9
					c0.7-0.6,1.3-0.9,2-0.9c0.7,0,1.3,0.2,1.9,0.7c-0.8,1.7-1.2,3.7-1.2,6c0,2.3,0.4,4.1,1.2,5.2c-0.8,1.1-1.2,2.8-1.2,5.2
					c0,2.2,0.4,4.3,1.2,6c-0.6,0.5-1.2,0.7-1.9,0.7C314.5,513.9,313.8,513.6,313.1,513z"/>
				<path fill="#0D0D0D" d="M339.5,495.5c0,0.7-0.2,1.2-0.6,1.6c-1.9-1-3.4-1.4-4.6-1.4c-0.6,0-1,0.1-1.4,0.3
					c-0.1,2.6,0.3,4.6,1.2,5.8c-0.8,1.1-1.2,2.8-1.2,5.2c0,2.2,0.4,4.3,1.2,6.1c-0.6,0.5-1.2,0.7-1.9,0.7c-0.7,0-1.3-0.3-1.9-0.9
					c-0.7,0.6-1.3,0.9-2,0.9c-0.7,0-1.3-0.2-1.9-0.7c0.8-1.8,1.2-3.8,1.2-6.1c0-2.4-0.4-4.1-1.2-5.2c0.9-1.2,1.3-3.1,1.2-5.7
					c-0.3-0.3-0.8-0.4-1.6-0.4c-1.2,0-2.8,0.4-4.6,1.4c-0.4-0.4-0.6-1-0.6-1.6s0.2-1.4,0.6-2.2c-0.4-0.4-0.6-0.9-0.6-1.6
					c0-0.6,0.2-1.2,0.6-1.7c1.3,0.6,2.8,0.9,4.3,0.9c1.5,0,3-0.3,4.4-0.9c1.4,0.6,2.9,0.9,4.4,0.9c1.6,0,3.1-0.3,4.4-0.9
					c0.4,0.5,0.6,1.1,0.6,1.7c0,0.7-0.2,1.2-0.6,1.6C339.3,494,339.5,494.8,339.5,495.5z"/>
				<path fill="#0D0D0D" d="M346.2,513c-0.6,0.6-1.3,0.9-1.9,0.9c-0.7,0-1.3-0.2-1.9-0.7c0.8-1.7,1.2-3.7,1.2-6
					c0-2.3-0.4-4.1-1.2-5.2c0.8-1.1,1.2-2.8,1.2-5.2c0-2.2-0.4-4.3-1.2-6c0.6-0.5,1.2-0.7,1.9-0.7c0.7,0,1.3,0.3,1.9,0.9
					c0.7-0.6,1.3-0.9,2-0.9c0.7,0,1.3,0.2,1.9,0.7c-0.8,1.7-1.2,3.7-1.2,6c0,2.3,0.4,4.1,1.2,5.2c-0.8,1.1-1.2,2.8-1.2,5.2
					c0,2.2,0.4,4.3,1.2,6c-0.6,0.5-1.2,0.7-1.9,0.7C347.4,513.9,346.8,513.6,346.2,513z"/>
				<path fill="#0D0D0D" d="M365.9,513c-1,0.4-2.2,0.7-3.7,0.9c-1.4-0.1-2.8-0.4-3.7-0.8c-2.5-1.1-3.7-3.1-3.7-6.1v-2.7
					c0-1.3-0.4-2.1-1.1-2.4c0.5-0.2,0.8-0.7,1-1.4c0.1-0.3,0.1-0.6,0.1-1v-2.6c0-2.8,1.3-4.8,3.7-6c1-0.4,2.2-0.7,3.7-0.9
					c1.4,0.1,2.8,0.4,3.7,0.9c2.5,1.2,3.7,3.1,3.7,6v2.6c0,1.3,0.4,2.1,1.1,2.4c-0.5,0.2-0.8,0.7-1,1.4c-0.1,0.3-0.1,0.6-0.1,1v2.7
					C369.6,509.8,368.3,511.8,365.9,513z M364.4,504.3c0-1.3-0.4-2.1-1.1-2.4c0.5-0.2,0.8-0.7,1-1.4c0.1-0.3,0.1-0.6,0.1-1V497
					c0-0.9-0.1-1.6-0.6-2.1c-0.4-0.5-1-0.7-1.6-0.7s-1.1,0.2-1.6,0.7c-0.4,0.5-0.7,1.2-0.7,2.1v2.5c0,1.3,0.4,2.1,1.2,2.4
					c-0.5,0.2-0.8,0.7-1,1.4c-0.1,0.3-0.1,0.6-0.1,1v2.5c0,0.9,0.2,1.6,0.7,2.1c0.4,0.5,1,0.7,1.6,0.7c0.7,0,1.1-0.2,1.6-0.7
					c0.4-0.5,0.6-1.2,0.6-2.1V504.3z"/>
				<path fill="#0D0D0D" d="M385.3,499.5c0.4-0.9,0.7-2.2,0.7-3.7c0-2.5-0.4-4.2-1.3-5.1c0.5-0.5,1.1-0.7,1.8-0.7s1.3,0.3,1.9,0.9
					c0.6-0.6,1.2-0.9,1.9-0.9s1.2,0.2,1.8,0.7l-0.4,1.2c-0.5,1.4-0.8,3-0.8,4.7c0,2.3,0.4,4.1,1.3,5.3c-0.8,1.1-1.2,2.8-1.2,5.2
					c0,2.2,0.4,4.3,1.2,6c-0.5,0.5-1,0.7-1.6,0.7c-0.7,0-1.3-0.3-1.8-0.9c-0.5,0.6-1.1,0.9-1.8,0.9c-0.6,0-1.2-0.2-1.7-0.7
					c0.7-0.9,1.2-2,1.2-3.3c0-1.3-0.4-2.6-1.4-3.8l-3.7-4.6c-0.7,1.4-1,3.2-1,5.2c0,2.2,0.4,4.4,1.3,6.5c-0.5,0.5-1.1,0.7-1.8,0.7
					c-0.7,0-1.3-0.3-1.9-0.9c-0.6,0.6-1.2,0.9-1.9,0.9c-0.7,0-1.2-0.2-1.8-0.7c0.8-1.7,1.2-3.7,1.2-6c0-2.3-0.4-4.1-1.2-5.2
					c0.8-1.2,1.3-2.9,1.3-5.3c0-1.7-0.3-3.3-0.8-4.7l-0.4-1.2c0.5-0.5,1.1-0.7,1.8-0.7c0.7,0,1.3,0.3,1.9,0.9
					c0.6-0.6,1.2-0.9,1.9-0.9c0.7,0,1.2,0.2,1.8,0.7c-0.3,0.7-0.4,1.3-0.4,1.9c0,0.8,0.2,1.6,0.7,2.2L385.3,499.5z"/>
			</g>
			<g>
				<path fill="#FCFCFC" d="M239.4,491.9c0,0.7-0.2,1.2-0.6,1.6c-1.9-1-3.4-1.4-4.6-1.4c-0.6,0-1,0.1-1.4,0.3
					c-0.1,2.6,0.3,4.6,1.2,5.8c-0.8,1.1-1.2,2.8-1.2,5.2c0,2.2,0.4,4.3,1.2,6.1c-0.6,0.5-1.2,0.7-1.9,0.7c-0.7,0-1.3-0.3-1.9-0.9
					c-0.7,0.6-1.3,0.9-2,0.9c-0.7,0-1.3-0.2-1.9-0.7c0.8-1.8,1.2-3.8,1.2-6.1c0-2.4-0.4-4.1-1.2-5.2c0.9-1.2,1.3-3.1,1.2-5.7
					c-0.3-0.3-0.8-0.4-1.6-0.4c-1.2,0-2.8,0.4-4.6,1.4c-0.4-0.4-0.6-1-0.6-1.6c0-0.7,0.2-1.4,0.6-2.2c-0.4-0.4-0.6-0.9-0.6-1.6
					c0-0.6,0.2-1.2,0.6-1.7c1.3,0.6,2.8,0.9,4.3,0.9c1.5,0,3-0.3,4.4-0.9c1.4,0.6,2.9,0.9,4.4,0.9c1.6,0,3.1-0.3,4.4-0.9
					c0.4,0.5,0.6,1.1,0.6,1.7c0,0.7-0.2,1.2-0.6,1.6C239.1,490.5,239.4,491.3,239.4,491.9z"/>
				<path fill="#FCFCFC" d="M258.1,510.3c-1.7,0-3.3-0.7-4.7-1.9c0.6-0.8,0.9-1.6,0.9-2.4c0-0.9-0.4-1.9-1.3-3.1
					c0.3-0.4,0.4-0.8,0.4-1.3c0-0.6-0.2-1.1-0.7-1.6c-0.5-0.4-1.1-0.7-1.7-0.7c-0.7,0-1.2,0.3-1.6,0.8c-0.4,0.6-0.7,1.6-0.7,2.8
					c0,3.1,0.6,5.2,1.8,6.4c-0.5,0.5-1.2,0.7-1.9,0.7s-1.4-0.3-2.1-0.9c-0.7,0.6-1.4,0.9-2.2,0.9s-1.3-0.2-1.9-0.7
					c0.8-1.7,1.2-3.7,1.2-5.9c0-2.3-0.4-4-1.2-5.1c0.8-1.1,1.2-2.8,1.2-5.1c0-2.2-0.4-4.2-1.2-5.9c0.5-0.5,1.2-0.7,1.9-0.7
					s1.4,0.3,2.2,0.9c1.3-0.7,2.8-1,4.6-1c1.9,0,3.6,0.4,4.9,1.2c1.4,0.8,2.2,1.9,2.2,3.2c0,1.3,0.4,2.1,1.1,2.5
					c-0.5,0.2-0.8,0.7-1,1.4c-0.1,0.3-0.1,0.6-0.1,1c-0.1,1.1-0.8,2-2.2,2.6c0.8,0.4,1.4,0.8,1.8,1.5c0.1,0.3,0.2,0.6,0.2,0.9
					c-0.1,1,0.4,1.6,1.1,1.9c0.1,0,0.1,0.4,0.2,1.3c0.1,1,0.3,2,0.6,2.8c0.4,1.2,1,2.2,1.8,3C260.3,510.1,259.1,510.3,258.1,510.3z
					 M252.9,492.3c0-0.4-0.2-0.8-0.6-1.2c-0.4-0.3-0.9-0.4-1.4-0.4c-0.7,0-1.3,0.2-1.6,0.7c-0.5,0.6-0.7,1.4-0.7,2.5
					c0,1,0.2,1.9,0.7,2.4c0.4,0.4,1,0.7,1.6,0.7c0.5,0,1-0.1,1.4-0.4c0.4-0.3,0.6-0.7,0.6-1.2s-0.2-1-0.7-1.5
					C252.7,493.3,252.9,492.8,252.9,492.3z"/>
				<path fill="#FCFCFC" d="M279.9,510.3c-0.7,0-1-0.2-1.3-0.6c0.5-1,0.7-2.2,0.7-3.1c0-1.3-0.4-2.4-1-3.2c-0.7-0.8-1.6-1.3-2.7-1.3
					c-1.1,0-2,0.4-2.8,1.3c-0.7,0.8-1,1.9-1,3.2c0,1,0.2,2.1,0.7,3.1c-0.1,0.4-0.6,0.6-1.3,0.6s-1.5-0.2-2.5-0.6
					c-0.4,0.4-1,0.6-1.6,0.6c-0.8,0-1.6-0.2-2.5-0.7c2.8-2.9,4.3-6.1,4.3-9.6c0-0.7-0.1-1.2-0.1-1.6c2.4-2.9,3.6-5.9,3.6-8.8
					c0-1-0.1-1.8-0.5-2.4c0.5-0.5,1.2-0.7,1.8-0.7c0.7,0,1.3,0.3,1.9,0.9c0.6-0.6,1.2-0.9,1.9-0.9c0.7,0,1.3,0.2,1.9,0.7
					c-0.4,0.5-0.5,1.3-0.5,2.4c0,2.9,1.2,5.9,3.6,8.8c-0.1,0.4-0.1,1-0.1,1.6c0,3.5,1.4,6.7,4.3,9.6c-0.9,0.5-1.7,0.7-2.5,0.7
					c-0.7,0-1.2-0.2-1.6-0.6C281.4,510.1,280.6,510.3,279.9,510.3z M275.6,494.7c-0.8,1.3-1.2,2.8-1.2,4.2c0.4-0.2,0.9-0.3,1.2-0.3
					c0.3,0,0.7,0.1,1.2,0.3C276.8,497.5,276.4,496.1,275.6,494.7z"/>
				<path fill="#FCFCFC" d="M306.5,498.4c-0.4,0.2-0.8,0.7-1,1.4c-0.1,0.3-0.1,0.7-0.1,1v5.1c0,1.3-1,2.5-2.3,3.3
					c-1.3,0.8-2.8,1.2-4.6,1.2c-1.6,0-3.2-0.4-4.7-1c-0.7,0.6-1.4,0.9-2.1,0.9c-0.7,0-1.4-0.2-1.9-0.7c0.8-1.7,1.2-3.7,1.2-5.9
					c0-2.3-0.4-4-1.2-5.1c0.8-1.1,1.2-2.8,1.2-5.1c0-2.2-0.4-4.2-1.2-5.9c0.5-0.5,1.2-0.7,1.9-0.7s1.4,0.3,2.1,0.9
					c1.3-0.7,2.9-1,4.6-1c1.9,0,3.6,0.4,5,1.3c1.4,0.8,2.1,1.9,2.1,3.1v5.1C305.3,497.2,305.8,498,306.5,498.4z M300.8,493.1
					c0-0.8-0.4-1.5-0.9-2c-0.4-0.4-1-0.6-1.7-0.6c-0.6,0-1.3,0.1-1.8,0.5c-0.4,0.4-0.9,0.9-0.9,1.5v3.2c0,1.3,0.6,2.1,1.3,2.5
					c-0.5,0.2-0.9,0.7-1.1,1.4c-0.1,0.3-0.2,0.7-0.2,1v4c0,0.6,0.4,1.1,0.8,1.5c0.4,0.4,1,0.5,1.7,0.5c0.7,0,1.3-0.2,1.9-0.7
					c0.4-0.4,0.9-1.1,0.9-1.9v-3.4c0-1.3-0.5-2.1-1.3-2.5c0.5-0.2,0.9-0.7,1.1-1.4c0.1-0.3,0.1-0.7,0.1-1V493.1z"/>
				<path fill="#FCFCFC" d="M313.9,509.5c-0.6,0.6-1.3,0.9-1.9,0.9c-0.7,0-1.3-0.2-1.9-0.7c0.8-1.7,1.2-3.7,1.2-6
					c0-2.3-0.4-4.1-1.2-5.2c0.8-1.1,1.2-2.8,1.2-5.2c0-2.2-0.4-4.3-1.2-6c0.6-0.5,1.2-0.7,1.9-0.7c0.7,0,1.3,0.3,1.9,0.9
					c0.7-0.6,1.3-0.9,2-0.9c0.7,0,1.3,0.2,1.9,0.7c-0.8,1.7-1.2,3.7-1.2,6c0,2.3,0.4,4.1,1.2,5.2c-0.8,1.1-1.2,2.8-1.2,5.2
					c0,2.2,0.4,4.3,1.2,6c-0.6,0.5-1.2,0.7-1.9,0.7C315.1,510.3,314.5,510,313.9,509.5z"/>
				<path fill="#FCFCFC" d="M340.2,491.9c0,0.7-0.2,1.2-0.6,1.6c-1.9-1-3.4-1.4-4.6-1.4c-0.6,0-1,0.1-1.4,0.3
					c-0.1,2.6,0.3,4.6,1.2,5.8c-0.8,1.1-1.2,2.8-1.2,5.2c0,2.2,0.4,4.3,1.2,6.1c-0.6,0.5-1.2,0.7-1.9,0.7c-0.7,0-1.3-0.3-1.9-0.9
					c-0.7,0.6-1.3,0.9-2,0.9c-0.7,0-1.3-0.2-1.9-0.7c0.8-1.8,1.2-3.8,1.2-6.1c0-2.4-0.4-4.1-1.2-5.2c0.9-1.2,1.3-3.1,1.2-5.7
					c-0.3-0.3-0.8-0.4-1.6-0.4c-1.2,0-2.8,0.4-4.6,1.4c-0.4-0.4-0.6-1-0.6-1.6c0-0.7,0.2-1.4,0.6-2.2c-0.4-0.4-0.6-0.9-0.6-1.6
					c0-0.6,0.2-1.2,0.6-1.7c1.3,0.6,2.8,0.9,4.3,0.9c1.5,0,3-0.3,4.4-0.9c1.4,0.6,2.9,0.9,4.4,0.9c1.6,0,3.1-0.3,4.4-0.9
					c0.4,0.5,0.6,1.1,0.6,1.7c0,0.7-0.2,1.2-0.6,1.6C340,490.5,340.2,491.3,340.2,491.9z"/>
				<path fill="#FCFCFC" d="M346.8,509.5c-0.6,0.6-1.3,0.9-1.9,0.9s-1.3-0.2-1.9-0.7c0.8-1.7,1.2-3.7,1.2-6c0-2.3-0.4-4.1-1.2-5.2
					c0.8-1.1,1.2-2.8,1.2-5.2c0-2.2-0.4-4.3-1.2-6c0.6-0.5,1.2-0.7,1.9-0.7s1.3,0.3,1.9,0.9c0.7-0.6,1.3-0.9,2-0.9
					c0.7,0,1.3,0.2,1.9,0.7c-0.8,1.7-1.2,3.7-1.2,6c0,2.3,0.4,4.1,1.2,5.2c-0.8,1.1-1.2,2.8-1.2,5.2c0,2.2,0.4,4.3,1.2,6
					c-0.6,0.5-1.2,0.7-1.9,0.7C348.1,510.3,347.4,510,346.8,509.5z"/>
				<path fill="#FCFCFC" d="M366.6,509.4c-1,0.4-2.3,0.7-3.7,0.9c-1.4-0.1-2.7-0.4-3.7-0.8c-2.5-1.1-3.7-3.1-3.7-6.1v-2.7
					c0-1.3-0.4-2.1-1.2-2.4c0.5-0.2,0.8-0.7,1-1.4c0.1-0.3,0.1-0.6,0.1-1v-2.6c0-2.8,1.3-4.8,3.7-6c1-0.4,2.2-0.7,3.7-0.9
					c1.4,0.1,2.8,0.4,3.8,0.9c2.5,1.2,3.8,3.1,3.8,6v2.6c0,1.3,0.4,2.1,1.1,2.4c-0.5,0.2-0.8,0.7-1,1.4c-0.1,0.3-0.1,0.6-0.1,1v2.7
					C370.4,506.3,369,508.2,366.6,509.4z M365.2,500.8c0-1.3-0.4-2.1-1.1-2.4c0.5-0.2,0.8-0.7,1-1.4c0.1-0.3,0.1-0.6,0.1-1v-2.5
					c0-0.9-0.1-1.6-0.6-2.1c-0.4-0.5-1-0.7-1.6-0.7s-1.1,0.2-1.6,0.7c-0.4,0.5-0.6,1.2-0.6,2.1v2.5c0,1.3,0.4,2.1,1.2,2.4
					c-0.5,0.2-0.8,0.7-1,1.4c-0.1,0.3-0.1,0.6-0.1,1v2.5c0,0.9,0.1,1.6,0.7,2.1c0.4,0.5,1,0.7,1.6,0.7c0.7,0,1.1-0.2,1.6-0.7
					c0.4-0.5,0.6-1.2,0.6-2.1L365.2,500.8L365.2,500.8z"/>
				<path fill="#FCFCFC" d="M385.9,496c0.4-0.9,0.7-2.2,0.7-3.7c0-2.5-0.4-4.2-1.3-5.1c0.5-0.5,1.1-0.7,1.8-0.7s1.3,0.3,1.9,0.9
					c0.6-0.6,1.2-0.9,1.9-0.9c0.7,0,1.2,0.2,1.8,0.7l-0.4,1.2c-0.5,1.4-0.8,3-0.8,4.7c0,2.3,0.4,4.1,1.3,5.3
					c-0.8,1.1-1.2,2.8-1.2,5.2c0,2.2,0.4,4.3,1.2,6c-0.5,0.5-1,0.7-1.6,0.7c-0.7,0-1.3-0.3-1.8-0.9c-0.5,0.6-1.1,0.9-1.8,0.9
					c-0.6,0-1.2-0.2-1.7-0.7c0.7-0.9,1.2-2,1.2-3.3c0-1.3-0.4-2.6-1.4-3.8l-3.7-4.6c-0.7,1.4-1,3.2-1,5.2c0,2.2,0.4,4.4,1.3,6.5
					c-0.5,0.5-1.1,0.7-1.8,0.7s-1.3-0.3-1.9-0.9c-0.6,0.6-1.2,0.9-1.9,0.9c-0.7,0-1.2-0.2-1.8-0.7c0.8-1.7,1.2-3.7,1.2-6
					c0-2.3-0.4-4.1-1.2-5.2c0.8-1.2,1.3-2.9,1.3-5.3c0-1.7-0.3-3.3-0.8-4.7l-0.4-1.2c0.5-0.5,1.1-0.7,1.8-0.7c0.7,0,1.3,0.3,1.9,0.9
					c0.6-0.6,1.2-0.9,1.9-0.9s1.2,0.2,1.8,0.7c-0.3,0.7-0.4,1.3-0.4,1.9c0,0.8,0.2,1.6,0.7,2.2L385.9,496z"/>
			</g>
		</g>
		<g id="its_decor">
			<path fill="#333335" d="M332.8,468.6c0.4-0.5,0.7-1.1,1-1.7c-0.1,0.1-0.2,0.1-0.4,0.1c-1,0.1-1.9-1.1-2-2.7
				c-0.1-1.6,0.7-2.8,1.6-2.9c1-0.1,1.9,1.1,2,2.7c0,0.1,0,0.3,0,0.4c0,1.2-0.2,2.4-0.8,3.5c-0.6,1.1-1.5,2-2.5,2.8
				c3.6-0.3,7.3,0,10.8,0.4c3.6,0.4,7.3,1,10.8,1.6c3.6,0.6,7.3,1.3,10.8,1.9c1.6,0.3,3.4,0.6,5,0.8c1.5,0.2,3,0.3,4.6,0.2
				c0.9-0.1,1.8-0.1,2.7-0.4c0.4-0.1,0.8-0.2,1.2-0.4c0.1-0.1,0.3-0.2,0.4-0.4c0-0.1,0.1-0.2-0.1-0.3c0,0-0.1,0.1-0.2,0.1
				s-0.1,0-0.2,0c-0.2-0.1-0.4-0.1-0.4-0.3c-0.2-0.2-0.3-0.6-0.1-0.8c0.5-0.4,1.3,0.4,1.4,0.7c0.4,0.8-0.7,1.3-1.3,1.5
				c-0.9,0.3-1.9,0.4-2.8,0.4c-0.9,0.1-1.7,0.1-2.6,0c1.1,0.1,2.2,0.3,3.4,0.4c1.8,0.2,3.6,0.4,5.4,0.5c1.8,0.1,3.7,0.1,5.5-0.1
				c0.8-0.1,1.7-0.3,2.5-0.6c0.7-0.3,1.3-0.7,1.8-1.4c0.4-0.7,0.7-1.4,0.6-2.2c-0.1-0.7-0.4-1.5-0.9-2.1c-0.9-1.3-2.2-2.3-3.6-3.2
				c-1.4-0.9-3-1.7-4.6-2.3c-1.6-0.7-3.3-1.2-5-1.6c-1.7-0.4-3.4-0.7-5.2-0.7c-0.8,0-1.7,0-2.5,0.3c-0.3,0.1-0.6,0.3-0.7,0.5
				c-0.1,0.3-0.1,0.7,0,1c0.1,0.2,0.1,0.4,0.2,0.5c0.1,0.1,0.1,0.4,0.3,0.5c0.2,0.2,0.6,0.4,0.9,0.4c0.6,0.2,1.3,0.2,1.9,0.2
				c0.6,0,1.2,0.1,1.6,0.4c0.6,0.4,1,1,1.3,1.6c0.1,0.5,0.1,1.1-0.3,1.6c-0.4,0.4-1,0.8-1.6,0.9c-0.6,0.1-1.2-0.2-1.6-0.6
				c-0.4-0.2-0.7-0.5-1-0.7c-0.3-0.2-0.7-0.5-1-0.7c-1.2-1-2.2-2.5-2.5-4c-0.1-0.7-0.1-1.6,0.4-2.2c0.4-0.7,1.2-1,2-1.2
				c1.6-0.4,3.4-0.1,4.9,0.1c3.4,0.7,6.7,2.1,9.8,3.7c1.5,0.8,3,1.7,4.3,2.7c1.3,1,2.5,2.1,3.1,3.5c0.4,0.7,0.5,1.6,0.4,2.3
				s-0.5,1.4-1,2c-1,1.2-2.8,1.6-4.5,1.8c-1.8,0.2-3.6,0.2-5.4,0.1c-1.8-0.1-3.6-0.2-5.4-0.4c-3.6-0.4-7.3-0.9-10.8-1.4
				c-3.6-0.5-7.3-1.1-10.8-1.6c-3.6-0.6-7.3-1.1-10.8-1.5c-3.6-0.4-7.3-0.8-10.9-0.7c-0.4,0-0.9,0-1.3,0.1c-0.2,0-0.4,0.1-0.7,0.1
				c-0.1,0-0.4,0.1-0.4,0l-0.1-0.1c0-0.1-0.1-0.2-0.1-0.3c0-0.1-0.1-0.2-0.1-0.4C330.5,470.7,331.8,469.7,332.8,468.6z"/>
			<path fill="#333335" d="M279.6,468.6c-0.4-0.5-0.7-1.1-1-1.7c0.1,0.1,0.2,0.1,0.4,0.1c1,0.1,1.9-1.1,2-2.7
				c0.1-1.6-0.7-2.8-1.6-2.9c-1-0.1-1.9,1.1-2,2.7c0,0.1,0,0.3,0,0.4c0,1.2,0.2,2.4,0.8,3.5c0.6,1.1,1.5,2,2.5,2.8
				c-3.6-0.3-7.3,0-10.8,0.4c-3.6,0.4-7.3,1-10.8,1.6c-3.6,0.6-7.3,1.3-10.8,1.9c-1.6,0.3-3.4,0.6-5,0.8c-1.5,0.2-3,0.3-4.6,0.2
				c-0.9-0.1-1.8-0.1-2.7-0.4c-0.4-0.1-0.8-0.2-1.2-0.4c-0.1-0.1-0.3-0.2-0.4-0.4c0-0.1-0.1-0.2,0.1-0.3c0,0,0.1,0.1,0.2,0.1
				c0.1,0,0.1,0,0.2,0c0.2-0.1,0.4-0.1,0.4-0.3c0.2-0.2,0.3-0.6,0.1-0.8c-0.5-0.4-1.3,0.4-1.4,0.7c-0.4,0.8,0.7,1.3,1.3,1.5
				c0.9,0.3,1.9,0.4,2.8,0.4c0.9,0.1,1.7,0.1,2.6,0c-1.1,0.1-2.2,0.3-3.4,0.4c-1.8,0.2-3.6,0.4-5.4,0.5c-1.8,0.1-3.7,0.1-5.5-0.1
				c-0.8-0.1-1.7-0.3-2.5-0.6c-0.7-0.3-1.3-0.7-1.8-1.4c-0.4-0.7-0.7-1.4-0.6-2.2s0.4-1.5,0.9-2.1c0.9-1.3,2.2-2.3,3.6-3.2
				c1.4-0.9,3-1.7,4.6-2.3c1.6-0.7,3.3-1.2,5-1.6c1.7-0.4,3.4-0.7,5.2-0.7c0.8,0,1.7,0,2.5,0.3c0.3,0.1,0.6,0.3,0.7,0.5
				c0.1,0.3,0.1,0.7,0,1c-0.1,0.2-0.1,0.4-0.2,0.5c-0.1,0.1-0.1,0.4-0.3,0.5c-0.2,0.2-0.6,0.4-0.9,0.4c-0.6,0.2-1.3,0.2-1.9,0.2
				c-0.6,0-1.2,0.1-1.6,0.4c-0.6,0.4-1,1-1.3,1.6c-0.1,0.5-0.1,1.1,0.3,1.6c0.4,0.4,1,0.8,1.6,0.9c0.6,0.1,1.2-0.2,1.6-0.6
				c0.4-0.2,0.7-0.5,1-0.7c0.3-0.2,0.7-0.5,1-0.7c1.2-1,2.2-2.5,2.5-4c0.1-0.7,0.1-1.6-0.4-2.2c-0.4-0.7-1.2-1-2-1.2
				c-1.6-0.4-3.4-0.1-4.9,0.1c-3.4,0.7-6.7,2.1-9.8,3.7c-1.5,0.8-3,1.7-4.3,2.7c-1.3,1-2.5,2.1-3.1,3.5c-0.4,0.7-0.5,1.6-0.4,2.3
				c0.1,0.7,0.5,1.4,1,2c1,1.2,2.8,1.6,4.5,1.8c1.8,0.2,3.6,0.2,5.4,0.1c1.8-0.1,3.6-0.2,5.4-0.4c3.6-0.4,7.3-0.9,10.8-1.4
				c3.6-0.5,7.3-1.1,10.8-1.6c3.6-0.6,7.3-1.1,10.8-1.5c3.6-0.4,7.3-0.8,10.9-0.7c0.4,0,0.9,0,1.3,0.1c0.2,0,0.4,0.1,0.7,0.1
				c0.1,0,0.4,0.1,0.4,0l0.1-0.1c0-0.1,0.1-0.2,0.1-0.3c0-0.1,0.1-0.2,0.1-0.4C281.9,470.7,280.5,469.7,279.6,468.6z"/>
		</g>
		<g id="its">
			<path d="M298.1,470.6c-0.1,0.1-0.1,0.4-0.3,0.6c-0.1,0.2-0.2,0.5-0.3,0.8c-0.1,0.3-0.1,0.5-0.1,0.8c0,0.2,0,0.4,0.1,0.6
				c0.1,0.1,0.2,0.3,0.4,0.4c0.1,0.1,0.4,0.1,0.6,0c0.2-0.1,0.5-0.2,0.9-0.6c0.4-0.3,0.7-0.7,1.1-1s0.8-0.7,1.1-1.1
				c0.3-0.4,0.7-0.6,0.7-0.7v1.3c0,0.1-0.4,0.4-0.6,0.6c-0.2,0.3-0.5,0.5-0.8,0.9c-0.3,0.3-0.6,0.6-0.9,0.9s-0.5,0.5-0.7,0.7
				c-0.5,0.4-1,0.8-1.5,1c-0.4,0.1-1,0.3-1.5,0.2c-0.3-0.1-0.6-0.1-0.8-0.4s-0.4-0.4-0.5-0.7c-0.1-0.3-0.2-0.7-0.2-1.1
				c0-0.4,0-0.8,0.1-1.3c0.1-0.4,0.2-0.9,0.4-1.3c0.1-0.4,0.3-0.8,0.5-1.3c0.4-0.7,0.7-1.5,1-2.1c0.2-0.5,0.4-1,0.7-1.4
				c0.2-0.4,0.3-0.7,0.3-0.7c0.1-0.1,0.1-0.3,0.2-0.4c0.1-0.1,0.1-0.1,0.1-0.1c0.1-0.1,0.1,0.1,0.2,0.1s0.2,0.1,0.4,0.1h1.8
				c0.2,0,0.4-0.1,0.4,0s-0.1,0.1-0.1,0.3L298.1,470.6z M300.5,460.5c0.3-0.1,0.5-0.1,0.8,0.1c0.2,0.1,0.4,0.3,0.5,0.5
				c0.1,0.3,0.1,0.6,0.1,1c-0.1,0.4-0.1,0.7-0.4,1c-0.1,0.3-0.4,0.6-0.7,0.9c-0.3,0.2-0.6,0.4-0.9,0.4c-0.5,0.1-0.9-0.1-1.1-0.4
				c-0.1-0.1-0.1-0.4-0.1-0.7c0-0.3,0.1-0.7,0.2-1c0.1-0.4,0.4-0.7,0.7-1C299.9,460.8,300.2,460.5,300.5,460.5z"/>
			<path d="M307.3,465.2c0.1,0,0.3,0.1,0.4,0.1c0.2,0,0.3,0.1,0.4,0.1c0.3,0.1,0.4,0.1,0.6,0.3c0.1,0.1,0.1,0.3,0.1,0.4
				s0,0.3-0.1,0.5c-0.1,0.2-0.1,0.3-0.3,0.4c-0.3,0.1-0.7,0.1-1.2,0.1c-0.4,0-0.9,0-1.3,0l-0.7,1.4c-0.2,0.4-0.4,0.9-0.7,1.3
				c-0.2,0.4-0.4,0.9-0.6,1.3c-0.1,0.4-0.3,0.8-0.4,1.2s-0.1,0.6,0,0.7c0.1,0.2,0.3,0.4,0.5,0.4c0.2,0.1,0.5,0,0.8-0.1
				c0.2-0.1,0.5-0.2,0.8-0.5c0.3-0.3,0.7-0.6,1-1c0.3-0.4,0.5-0.7,0.8-1c0.3-0.3,0.6-0.6,0.6-0.8v1.3c0,0.3-0.4,0.7-0.7,1.1
				c-0.4,0.4-0.7,0.9-1.3,1.3c-0.7,0.6-1.3,1-1.9,1.3c-0.7,0.3-1.3,0.4-1.9,0.4c-0.3-0.1-0.5-0.1-0.8-0.3c-0.3-0.1-0.5-0.4-0.7-0.8
				c-0.1-0.3-0.2-0.7-0.2-1.1c0-0.4,0.1-0.9,0.2-1.3c0.1-0.4,0.3-1,0.5-1.4c0.2-0.4,0.4-0.9,0.5-1.2l1-2.5c-0.2,0-0.4,0-0.6-0.1
				c-0.2,0-0.4-0.1-0.5-0.4c-0.1-0.1-0.1-0.2-0.1-0.4s0.1-0.3,0.1-0.5c0.1-0.1,0.1-0.3,0.3-0.4c0.1-0.1,0.2-0.2,0.4-0.2
				c0.3-0.1,0.6-0.1,0.9-0.1c0.2,0,0.5-0.1,0.7-0.1c0.1-0.1,0.1-0.1,0.2-0.4c0.1-0.1,0.2-0.4,0.4-0.6s0.3-0.5,0.5-0.7
				c0.1-0.3,0.3-0.5,0.4-0.7c0.1-0.2,0.3-0.4,0.4-0.6c0.1-0.1,0.2-0.3,0.3-0.5c0.1-0.1,0.2-0.4,0.4-0.5s0.3-0.4,0.4-0.7
				c0.2-0.3,0.4-0.6,0.5-0.7s0.3-0.1,0.4-0.1c0.1-0.1,0.3,0.1,0.5,0.1c0.2,0,0.4,0,0.7,0c0.3,0,0.5-0.1,0.7-0.1
				c0.1,0,0.3,0.1,0.4,0.4c0.1,0.1-0.1,0.4-0.4,0.8c-0.3,0.4-0.7,1-1.2,1.9c-0.2,0.4-0.4,0.7-0.7,1c-0.1,0.3-0.4,0.6-0.6,0.9
				C307.6,464.7,307.4,465,307.3,465.2z"/>
			<path d="M315.2,463.6c0.1,0.1,0.1,0.3,0,0.5c-0.1,0.2-0.1,0.4-0.3,0.6c-0.1,0.1-0.1,0.1-0.2,0.2c-0.1,0.1-0.1,0.1-0.3,0.3
				c-0.1,0.1-0.1,0.2-0.2,0.3c0,0.1-0.1,0.2-0.1,0.3c-0.1,0.3-0.1,0.6-0.1,1c0.1,0.4,0.1,0.7,0.2,1.2c0.1,0.4,0.1,0.7,0.1,1
				c0.1,0.3,0.1,0.7,0.1,1.1c0,1.3-0.1,2.5-0.3,3.4c0.1-0.1,0.4-0.3,0.7-0.5c0.3-0.3,0.6-0.5,0.9-0.9c0.3-0.3,0.5-0.7,0.8-1
				c0.3-0.3,0.6-0.6,0.6-0.8v1.3c-1.5,1.7-2.5,2.9-3.6,3.6c-1,0.7-2.1,0.9-3.1,0.6c-0.4-0.1-0.8-0.3-1.2-0.6c-0.4-0.3-0.7-0.6-0.9-1
				c-0.1-0.2-0.2-0.6-0.3-1c-0.1-0.4-0.1-0.8-0.1-1.3c0-0.4,0-0.9,0.1-1.3c0.1-0.4,0.1-0.8,0.1-1c0.1-0.1,0.2-0.1,0.4-0.2
				c0.1-0.1,0.2-0.1,0.3-0.2c0.3-0.4,0.7-0.7,1-1.1c0.3-0.3,0.6-0.7,0.9-1s0.6-0.7,0.9-1c0.1-0.1,0.3-0.4,0.4-0.5
				c0.1-0.1,0.3-0.4,0.4-0.6s0.4-0.4,0.5-0.7c0.1-0.2,0.3-0.4,0.4-0.5s0.3-0.3,0.4-0.3c0.1-0.1,0.4-0.1,0.5-0.1
				C315,463.3,315.1,463.4,315.2,463.6z M310,469.7c0.1,0.5,0.1,1,0,1.5c-0.1,0.5-0.4,0.8-0.8,1c0.1,0.2,0.1,0.4,0.2,0.7
				c0.1,0.3,0.4,0.5,0.7,0.7c0.3,0.1,0.6,0.1,0.9,0.1c0.3-0.1,0.6-0.2,0.8-0.4c0.4-0.4,0.7-0.8,0.8-1.3c0.1-0.6,0.2-1.1,0.2-1.7
				c0-0.6-0.1-1.2-0.1-1.7c-0.1-0.5-0.1-1-0.3-1.3c-0.5,0.4-1,0.9-1.4,1.3C310.6,468.8,310.3,469.2,310,469.7z"/>
		</g>
		<g>
			<g id="itsw">
				<path fill="#FFFFFF" d="M161,449.1c-0.5,0.5-1.1,0.7-1.6,0.7c-0.6,0-1.1-0.2-1.6-0.7c0.7-1.5,1-3.2,1-5.1c0-2-0.4-3.4-1-4.4
					c0.7-0.9,1-2.4,1-4.4c0-1.9-0.4-3.6-1-5.1c0.5-0.4,1-0.7,1.6-0.7c0.6,0,1.1,0.2,1.6,0.7c0.5-0.5,1.1-0.7,1.7-0.7
					c0.6,0,1.1,0.2,1.6,0.7c-0.7,1.5-1,3.2-1,5.1c0,2,0.4,3.4,1,4.4c-0.7,0.9-1,2.4-1,4.4c0,1.9,0.4,3.6,1,5.1
					c-0.5,0.4-1,0.7-1.6,0.7C162.1,449.9,161.5,449.6,161,449.1z"/>
				<path fill="#FFFFFF" d="M180.2,434.2c0,0.5-0.1,1-0.5,1.4c-1.6-0.8-2.9-1.2-3.9-1.2c-0.5,0-0.9,0.1-1.2,0.3
					c-0.1,2.2,0.3,3.9,1,4.9c-0.7,0.9-1,2.4-1,4.4c0,1.9,0.4,3.7,1,5.2c-0.5,0.4-1,0.7-1.6,0.7c-0.6,0-1.1-0.2-1.6-0.7
					c-0.5,0.5-1.1,0.7-1.7,0.7s-1.1-0.2-1.6-0.7c0.7-1.5,1-3.2,1-5.2c0-2-0.4-3.5-1-4.4c0.7-1,1.1-2.6,1-4.8
					c-0.3-0.3-0.7-0.4-1.3-0.4c-1,0-2.3,0.4-3.9,1.2c-0.4-0.4-0.5-0.8-0.5-1.4s0.1-1.2,0.5-1.9c-0.4-0.4-0.5-0.8-0.5-1.3
					s0.1-1,0.5-1.5c1.1,0.5,2.3,0.7,3.7,0.7c1.3,0,2.5-0.2,3.7-0.7c1.3,0.5,2.5,0.7,3.7,0.7c1.4,0,2.6-0.2,3.7-0.7
					c0.4,0.4,0.5,1,0.5,1.5s-0.1,1-0.5,1.3C179.9,433,180.2,433.6,180.2,434.2z"/>
				<path fill="#FFFFFF" d="M195.4,435.3c-0.9-1.8-2.1-2.7-3.4-2.7c-0.7,0-1.2,0.2-1.6,0.7c-0.4,0.4-0.7,0.9-0.7,1.5
					c0,0.5,0.2,1.1,0.7,1.6c0.5,0.4,1.2,0.7,1.9,0.7c0.4,0,0.7-0.1,1-0.2c0.1,0.5,0.6,1,1.3,1.6c0.3,0.2,0.7,0.4,1,0.7
					c1.9,1,2.9,2.6,2.9,4.8c0,1.6-0.6,2.9-1.7,4c-1.3,1.2-3,1.8-5.1,1.8c-1,0-2.2-0.1-3.4-0.4c-0.2-0.1-0.6-0.2-1.1-0.5
					c-0.4-0.2-0.7-0.3-1-0.3c-0.4,0-1,0.2-1.6,0.6c0-0.1-0.1-0.4-0.1-0.5c0-1,0.4-1.7,1-2.2c-0.2-0.3-0.3-0.7-0.3-1.1
					c0-0.6,0.1-1.3,0.5-2c0.6,1.1,1.5,1.9,2.5,2.5c0.9,0.5,1.9,0.8,2.9,0.8c0.8,0,1.5-0.1,2.1-0.5c0.5-0.4,0.8-0.8,0.8-1.4
					s-0.3-1.3-0.9-1.9c-0.6-0.5-1.3-0.7-2.2-0.7c-0.4,0-0.8,0.1-1.2,0.1c-0.1-1.2-0.6-1.9-1.5-2.3c-1.8-1-2.8-2.5-2.8-4.5
					c0-1.5,0.5-2.9,1.6-4c1.2-1.3,2.5-1.9,4.2-1.9c1,0,1.9,0.2,2.9,0.7c0.2,0.1,0.4,0.3,0.7,0.4c0.2,0.1,0.4,0.1,0.7,0.1
					s0.7,0,1.2-0.1c0,0.1,0.1,0.3,0.1,0.4c0,0.6-0.3,1.2-0.8,1.8C196.4,433.8,196.1,434.6,195.4,435.3z"/>
				<path fill="#FFFFFF" d="M218.3,437.6c0.4-0.7,0.5-1.8,0.5-3.2c0-2.1-0.4-3.6-1.1-4.3c0.4-0.4,1-0.7,1.5-0.7c0.5,0,1,0.2,1.6,0.7
					c0.5-0.5,1-0.7,1.6-0.7s1,0.2,1.5,0.7l-0.4,1c-0.4,1.2-0.7,2.5-0.7,4c0,2,0.4,3.5,1.1,4.5c-0.7,0.9-1,2.4-1,4.4
					c0,1.9,0.4,3.6,1,5.1c-0.4,0.4-0.9,0.7-1.4,0.7c-0.5,0-1-0.2-1.5-0.7c-0.4,0.5-1,0.7-1.5,0.7s-1-0.2-1.4-0.7
					c0.7-0.7,1-1.7,1-2.8c0-1.2-0.4-2.2-1.2-3.3l-3.1-4c-0.6,1.2-0.9,2.7-0.9,4.5c0,1.9,0.4,3.7,1.1,5.5c-0.4,0.4-1,0.7-1.5,0.7
					s-1.1-0.2-1.6-0.7c-0.5,0.5-1,0.7-1.6,0.7s-1-0.2-1.5-0.7c0.7-1.5,1-3.2,1-5.1c0-2-0.4-3.4-1-4.4c0.7-1,1.1-2.5,1.1-4.5
					c0-1.5-0.2-2.8-0.7-4l-0.4-1c0.4-0.4,1-0.7,1.5-0.7s1.1,0.2,1.6,0.7c0.5-0.5,1-0.7,1.6-0.7c0.5,0,1,0.2,1.5,0.7
					c-0.2,0.5-0.4,1.1-0.4,1.6c0,0.7,0.2,1.3,0.7,1.9L218.3,437.6z"/>
				<path fill="#FFFFFF" d="M234.1,449c-0.9,0.4-1.9,0.7-3,0.7c-1.2-0.1-2.1-0.3-3-0.7c-2.1-1-3-2.7-3-5.2v-2.3c0-1-0.5-1.7-1.2-2.1
					c0.4-0.2,0.8-0.6,1-1.2c0.1-0.2,0.1-0.5,0.1-0.8v-2.2c0-2.4,0.9-4.1,3-5.1c0.9-0.4,1.9-0.7,3.1-0.7c1.2,0.1,2.1,0.4,3,0.7
					c2.1,1,3,2.7,3,5.1v2.2c0,1,0.5,1.7,1.1,2.1c-0.4,0.2-0.7,0.6-1,1.2c-0.1,0.2-0.1,0.5-0.1,0.8v2.3
					C237.1,446.4,236.1,448.1,234.1,449z M233.4,441.6c0-1-0.4-1.7-1.1-2.1c0.4-0.2,0.7-0.6,1-1.2c0.1-0.2,0.1-0.5,0.1-0.8v-2.1
					c0-0.7-0.3-1.3-0.7-1.7c-0.4-0.4-0.9-0.7-1.5-0.7c-0.5,0-1.2,0.2-1.6,0.7c-0.4,0.4-0.7,1-0.7,1.7v2.1c0,1,0.5,1.7,1.2,2.1
					c-0.4,0.2-0.8,0.6-1,1.2c-0.1,0.2-0.2,0.5-0.2,0.8v2.1c0,0.7,0.4,1.3,0.7,1.8c0.4,0.4,1,0.6,1.5,0.6s1.1-0.2,1.6-0.6
					c0.4-0.4,0.7-1,0.7-1.8L233.4,441.6L233.4,441.6z"/>
				<path fill="#FFFFFF" d="M253.1,434.2c0,0.5-0.1,1-0.5,1.4c-1.6-0.8-2.9-1.2-3.9-1.2c-0.5,0-0.9,0.1-1.2,0.3
					c-0.1,2.2,0.3,3.9,1,4.9c-0.7,0.9-1,2.4-1,4.4c0,1.9,0.4,3.7,1,5.2c-0.5,0.4-1,0.7-1.6,0.7c-0.6,0-1.1-0.2-1.6-0.7
					c-0.5,0.5-1.1,0.7-1.7,0.7s-1.1-0.2-1.6-0.7c0.7-1.5,1-3.2,1-5.2c0-2-0.4-3.5-1-4.4c0.7-1,1.1-2.6,1-4.8
					c-0.3-0.3-0.7-0.4-1.3-0.4c-1,0-2.3,0.4-3.9,1.2c-0.4-0.4-0.5-0.8-0.5-1.4s0.1-1.2,0.5-1.9c-0.4-0.4-0.5-0.8-0.5-1.3
					s0.1-1,0.5-1.5c1.1,0.5,2.3,0.7,3.7,0.7c1.3,0,2.5-0.2,3.7-0.7c1.3,0.5,2.5,0.7,3.7,0.7c1.4,0,2.6-0.2,3.7-0.7
					c0.4,0.4,0.5,1,0.5,1.5s-0.1,1-0.5,1.3C252.9,433,253.1,433.6,253.1,434.2z"/>
				<path fill="#FFFFFF" d="M276,437.5c0,1.1,0.3,1.8,1,2.1c-0.4,0.2-0.7,0.6-0.8,1.2c-0.1,0.2-0.1,0.5-0.1,0.9v2.2
					c0,0.2-0.1,0.4-0.1,0.7c0,2.2-1,3.7-3,4.6c-0.8,0.4-1.9,0.6-3,0.7c-0.3,0-0.6,0-0.8,0c-2.2,0-3.8-0.8-4.7-2.4
					c-0.4-0.7-0.6-1.4-0.7-2.4c0.1-1-0.1-1.8-0.5-2.2c0.3-0.4,0.7-0.5,1.1-0.5c0.4,0,0.8,0.1,1.2,0.4c0.3-0.6,0.9-0.9,1.7-0.9
					c0.6,0,1,0.1,1.3,0.4c-0.5,0.7-0.7,1.4-0.7,2.1c0,0.5,0.1,1,0.5,1.4s0.7,0.6,1.3,0.6h0.1c0.8,0,1.3-0.3,1.6-0.7
					c0.2-0.4,0.3-1,0.3-1.9v-2.1c0-1.1-0.3-1.8-1-2.1c0.4-0.2,0.7-0.7,0.9-1.3c0.1-0.2,0.1-0.5,0.1-0.9v-2.1c0-1.5-0.1-2.6-0.4-3.4
					c-0.1-0.4-0.6-1-1.5-1.8c0.7-0.4,1.4-0.7,1.9-0.7s1.1,0.2,1.8,0.7c0.6-0.5,1.2-0.7,1.9-0.7c0.6,0,1.3,0.2,1.7,0.7
					c-0.7,0.7-0.9,2.3-0.9,5.1v2.4H276z"/>
				<path fill="#FFFFFF" d="M287.2,449c-0.9,0.4-1.8,0.7-3,0.8c-1.2-0.1-2.1-0.3-2.9-0.7c-2.1-1-3-2.7-3-5.2v-2.3
					c0-1.1-0.5-1.8-1.2-2.1c0.4-0.2,0.8-0.7,1-1.3c0.1-0.2,0.2-0.5,0.2-0.9v-2.2c0-2.1-0.7-3.7-1.5-5c0.6-0.4,1.2-0.7,1.9-0.7
					c0.6,0,1,0.2,1.6,0.7c0.5-0.4,1.1-0.7,1.7-0.7c0.5,0,0.9,0.2,1.4,0.6c-0.7,1.4-1.3,3.1-1.3,5.2v2.1c0,1.1,0.5,1.8,1.2,2.1
					c-0.4,0.2-0.8,0.6-1,1.2c-0.1,0.2-0.2,0.5-0.2,0.9v2.1c0,0.7,0.4,1.3,0.7,1.8c0.4,0.4,1,0.6,1.5,0.6s1.1-0.2,1.5-0.6
					c0.4-0.4,0.7-1,0.7-1.8v-2.1c0-1.1-0.4-1.8-1-2.1c0.4-0.2,0.7-0.7,0.9-1.3c0.1-0.2,0.1-0.5,0.1-0.9V435c0-2-0.4-3.7-1.1-5.2
					c0.4-0.4,1-0.6,1.6-0.6s1.1,0.2,1.6,0.7c0.4-0.4,0.8-0.7,1.3-0.7c0.6,0,1.2,0.2,1.8,0.7c-0.4,0.8-1,1.9-1.1,3.2
					c-0.1,0.5-0.3,1.1-0.3,1.7v2.2c0,1.1,0.5,1.8,1.2,2.1c-0.4,0.2-0.8,0.6-1,1.2c-0.1,0.2-0.2,0.5-0.2,0.9v2.3
					C290.2,446.4,289.3,448.1,287.2,449z"/>
				<path fill="#FFFFFF" d="M300.8,435.3c-0.9-1.8-2.1-2.7-3.4-2.7c-0.7,0-1.2,0.2-1.6,0.7c-0.4,0.4-0.7,0.9-0.7,1.5
					c0,0.5,0.2,1.1,0.7,1.6c0.5,0.4,1.2,0.7,1.9,0.7c0.4,0,0.7-0.1,1-0.2c0.1,0.5,0.6,1,1.3,1.6c0.3,0.2,0.7,0.4,1,0.7
					c1.9,1,2.9,2.6,2.9,4.8c0,1.6-0.6,2.9-1.7,4c-1.3,1.2-3,1.8-5.1,1.8c-1,0-2.2-0.1-3.4-0.4c-0.2-0.1-0.6-0.2-1.1-0.5
					c-0.4-0.2-0.7-0.3-1-0.3c-0.4,0-1,0.2-1.6,0.6c0-0.1-0.1-0.4-0.1-0.5c0-1,0.4-1.7,1-2.2c-0.2-0.3-0.3-0.7-0.3-1.1
					c0-0.6,0.1-1.3,0.5-2c0.6,1.1,1.5,1.9,2.5,2.5c0.9,0.5,1.9,0.8,2.9,0.8c0.8,0,1.5-0.1,2.1-0.5c0.5-0.4,0.8-0.8,0.8-1.4
					s-0.3-1.3-0.9-1.9c-0.6-0.5-1.3-0.7-2.2-0.7c-0.4,0-0.8,0.1-1.2,0.1c-0.1-1.2-0.6-1.9-1.5-2.3c-1.8-1-2.8-2.5-2.8-4.5
					c0-1.5,0.5-2.9,1.6-4c1.2-1.3,2.5-1.9,4.2-1.9c1,0,1.9,0.2,2.9,0.7c0.2,0.1,0.4,0.3,0.7,0.4c0.2,0.1,0.4,0.1,0.7,0.1
					s0.7,0,1.2-0.1c0,0.1,0.1,0.3,0.1,0.4c0,0.6-0.3,1.2-0.8,1.8C301.7,433.8,301.4,434.6,300.8,435.3z"/>
				<path fill="#FFFFFF" d="M318.2,434.2c0,0.5-0.1,1-0.5,1.4c-1.6-0.8-2.9-1.2-3.9-1.2c-0.5,0-0.9,0.1-1.2,0.3
					c-0.1,2.2,0.3,3.9,1,4.9c-0.7,0.9-1,2.4-1,4.4c0,1.9,0.4,3.7,1,5.2c-0.5,0.4-1,0.7-1.6,0.7c-0.6,0-1.1-0.2-1.6-0.7
					c-0.5,0.5-1.1,0.7-1.7,0.7c-0.6,0-1.1-0.2-1.6-0.7c0.7-1.5,1-3.2,1-5.2c0-2-0.4-3.5-1-4.4c0.7-1,1.1-2.6,1-4.8
					c-0.3-0.3-0.7-0.4-1.3-0.4c-1,0-2.3,0.4-3.9,1.2c-0.4-0.4-0.5-0.8-0.5-1.4s0.1-1.2,0.5-1.9c-0.4-0.4-0.5-0.8-0.5-1.3
					s0.1-1,0.5-1.5c1.1,0.5,2.3,0.7,3.7,0.7c1.3,0,2.5-0.2,3.7-0.7c1.3,0.5,2.5,0.7,3.7,0.7c1.4,0,2.6-0.2,3.7-0.7
					c0.4,0.4,0.5,1,0.5,1.5s-0.1,1-0.5,1.3C318.1,433,318.2,433.6,318.2,434.2z"/>
				<path fill="#FFFFFF" d="M341.2,449.9c-0.5,0-0.9-0.1-1-0.5c0.4-0.9,0.7-1.8,0.7-2.7c0-1.1-0.3-2-0.9-2.7c-0.6-0.7-1.3-1-2.3-1
					s-1.7,0.4-2.3,1c-0.6,0.7-0.9,1.6-0.9,2.7c0,0.9,0.2,1.8,0.6,2.7c-0.1,0.4-0.5,0.5-1,0.5c-0.6,0-1.3-0.1-2.1-0.5
					c-0.4,0.4-0.8,0.5-1.3,0.5c-0.7,0-1.4-0.2-2.2-0.7c2.5-2.5,3.7-5.2,3.7-8.2c0-0.5-0.1-1-0.1-1.4c2-2.5,3.1-5,3.1-7.5
					c0-0.9-0.1-1.6-0.4-2c0.4-0.4,1-0.7,1.6-0.7s1.1,0.2,1.6,0.7c0.5-0.5,1-0.7,1.6-0.7c0.6,0,1.1,0.2,1.6,0.7
					c-0.3,0.4-0.4,1.1-0.4,2c0,2.5,1,5,3.1,7.5c-0.1,0.4-0.1,0.8-0.1,1.4c0,3,1.2,5.7,3.7,8.2c-0.7,0.4-1.5,0.7-2.2,0.7
					c-0.5,0-1-0.1-1.3-0.5C342.5,449.6,341.8,449.9,341.2,449.9z M337.5,436.6c-0.7,1.2-1,2.3-1,3.5c0.4-0.1,0.7-0.3,1-0.3
					s0.6,0.1,1,0.3C338.6,438.9,338.2,437.8,337.5,436.6z"/>
				<path fill="#FFFFFF" d="M366.1,433.3c-0.1-1.5-0.4-2.5-1-3.1c0.4-0.4,1-0.7,1.6-0.7c0.6,0,1.1,0.2,1.6,0.7
					c0.5-0.5,1.1-0.7,1.6-0.7c0.6,0,1.1,0.2,1.6,0.7c-0.7,1.5-1,3.2-1,5.1c0,2,0.4,3.4,1,4.4c-0.7,0.9-1,2.4-1,4.4
					c0,1.9,0.4,3.6,1,5.1c-0.5,0.4-1,0.7-1.6,0.7s-1.1-0.2-1.6-0.7c-0.5,0.5-1.1,0.7-1.6,0.7c-0.6,0-1.1-0.2-1.6-0.7
					c0.5-0.5,0.9-1.6,1-3.1c0-0.4,0.1-1.5,0.1-3.2c0-1-0.4-1.6-1-1.9c-0.3-0.1-0.5-0.1-0.7-0.1s-0.4,0-0.7,0.1c-0.7,0.3-1,0.9-1,1.9
					c0,1.7,0,2.8,0.1,3.2c0.1,1.5,0.4,2.5,1,3.1c-0.5,0.4-1,0.7-1.6,0.7c-0.6,0-1.2-0.2-1.7-0.7c-0.5,0.5-1.1,0.7-1.6,0.7
					c-0.6,0-1.1-0.2-1.6-0.7c0.7-1.5,1-3.2,1-5.1c0-2-0.4-3.4-1-4.4c0.7-0.9,1-2.4,1-4.4c0-1.9-0.4-3.6-1-5.1c0.5-0.4,1-0.7,1.6-0.7
					c0.6,0,1.1,0.2,1.6,0.7c0.5-0.5,1.1-0.7,1.7-0.7s1.1,0.2,1.6,0.7c-0.5,0.5-0.9,1.6-1,3.1c0,0.4-0.1,1.5-0.1,3.2
					c0,1,0.4,1.6,1,1.9c0.3,0.1,0.5,0.1,0.7,0.1s0.4,0,0.7-0.1c0.7-0.3,1-0.9,1-1.9C366.2,434.7,366.2,433.6,366.1,433.3z"/>
				<path fill="#FFFFFF" d="M384.6,449.9c-0.5,0-0.9-0.1-1-0.5c0.4-0.9,0.7-1.8,0.7-2.7c0-1.1-0.3-2-0.9-2.7c-0.6-0.7-1.3-1-2.3-1
					s-1.7,0.4-2.3,1c-0.6,0.7-0.9,1.6-0.9,2.7c0,0.9,0.2,1.8,0.6,2.7c-0.1,0.4-0.5,0.5-1,0.5c-0.6,0-1.3-0.1-2.1-0.5
					c-0.4,0.4-0.8,0.5-1.3,0.5c-0.7,0-1.4-0.2-2.2-0.7c2.5-2.5,3.7-5.2,3.7-8.2c0-0.5-0.1-1-0.1-1.4c2-2.5,3.1-5,3.1-7.5
					c0-0.9-0.1-1.6-0.4-2c0.4-0.4,1-0.7,1.6-0.7s1.1,0.2,1.6,0.7c0.5-0.5,1-0.7,1.6-0.7c0.6,0,1.1,0.2,1.6,0.7
					c-0.3,0.4-0.4,1.1-0.4,2c0,2.5,1,5,3.1,7.5c-0.1,0.4-0.1,0.8-0.1,1.4c0,3,1.2,5.7,3.7,8.2c-0.7,0.4-1.5,0.7-2.2,0.7
					c-0.5,0-1-0.1-1.3-0.5C385.8,449.6,385.2,449.9,384.6,449.9z M380.9,436.6c-0.7,1.2-1,2.3-1,3.5c0.4-0.1,0.7-0.3,1-0.3
					c0.3,0,0.6,0.1,1,0.3C381.9,438.9,381.6,437.8,380.9,436.6z"/>
				<path fill="#FFFFFF" d="M392.9,449.1c-0.5,0.5-1.1,0.7-1.6,0.7c-0.6,0-1.1-0.2-1.6-0.7c0.7-1.5,1-3.2,1-5.1c0-2-0.4-3.4-1-4.4
					c0.7-0.9,1-2.4,1-4.4c0-1.9-0.4-3.6-1-5.1c0.5-0.4,1-0.7,1.6-0.7c0.6,0,1.1,0.2,1.6,0.7c0.5-0.5,1.1-0.7,1.7-0.7
					s1.1,0.2,1.6,0.7c-0.7,1.5-1,3.2-1,5.1c0,2,0.4,3.4,1,4.4c-0.7,0.9-1,2.4-1,4.4c0,1.9,0.4,3.6,1,5.1c-0.5,0.4-1,0.7-1.6,0.7
					C394,449.9,393.5,449.6,392.9,449.1z"/>
				<path fill="#FFFFFF" d="M409.6,449.9c-1.4,0-2.8-0.5-4-1.6c0.5-0.7,0.8-1.3,0.8-2c0-0.7-0.4-1.6-1.2-2.7
					c0.2-0.4,0.4-0.7,0.4-1.1c0-0.5-0.2-1-0.7-1.3c-0.4-0.4-0.9-0.6-1.5-0.6c-0.5,0-1,0.2-1.3,0.7c-0.4,0.5-0.6,1.3-0.6,2.4
					c0,2.6,0.5,4.4,1.5,5.5c-0.4,0.4-1,0.7-1.6,0.7s-1.2-0.2-1.8-0.7c-0.6,0.5-1.2,0.7-1.8,0.7c-0.6,0-1.1-0.2-1.6-0.7
					c0.7-1.5,1-3.1,1-5c0-1.9-0.4-3.4-1-4.3c0.7-0.9,1-2.4,1-4.3c0-1.9-0.4-3.6-1-5c0.4-0.4,1-0.7,1.6-0.7s1.3,0.2,1.8,0.7
					c1.1-0.5,2.5-0.8,3.9-0.8c1.6,0,3.1,0.4,4.2,1c1.2,0.7,1.9,1.6,1.9,2.7c0,1,0.4,1.8,1,2.1c-0.4,0.2-0.7,0.6-0.9,1.2
					c-0.1,0.2-0.1,0.5-0.1,0.8c-0.1,1-0.7,1.7-1.8,2.2c0.7,0.3,1.2,0.7,1.5,1.3c0.1,0.2,0.1,0.4,0.2,0.7c0,0.8,0.3,1.3,1,1.6
					c0,0,0.1,0.4,0.1,1.1c0.1,0.9,0.3,1.7,0.4,2.4c0.4,1,0.8,1.9,1.5,2.5C411.5,449.6,410.5,449.9,409.6,449.9z M405.3,434.5
					c0-0.4-0.1-0.7-0.5-1c-0.4-0.3-0.7-0.4-1.2-0.4c-0.6,0-1,0.2-1.4,0.6c-0.4,0.5-0.7,1.2-0.7,2.1c0,0.9,0.2,1.6,0.7,2.1
					c0.4,0.4,0.8,0.6,1.4,0.6c0.4,0,0.8-0.1,1.2-0.4c0.4-0.3,0.5-0.6,0.5-1c0-0.4-0.2-0.8-0.6-1.3
					C405.1,435.4,405.3,434.9,405.3,434.5z"/>
				<path fill="#FFFFFF" d="M419.8,441.9c0.8,0,1.4,0.3,1.7,0.9c0.4-0.2,0.7-0.4,1.2-0.4s0.8,0.1,1.1,0.5c-0.4,0.4-0.7,1.1-0.5,2.2
					c-0.1,0.9-0.3,1.7-0.7,2.3c-0.9,1.6-2.5,2.4-4.7,2.4c-0.2,0-0.5,0-0.8,0c-1.1-0.1-2.2-0.3-2.9-0.7c-1.9-0.8-2.8-2.3-2.8-4.5
					c0-0.2,0.1-0.4,0.1-0.7v-2.2c0-1-0.4-1.7-1.1-2.1c0.4-0.2,0.7-0.6,1-1.2c0.1-0.2,0.1-0.5,0.1-0.8v-2.2c0-2.5,0.9-4.2,2.8-5.2
					c0.8-0.4,1.7-0.7,2.8-0.7c0.3,0,0.5,0,0.8,0c2.2,0,3.8,0.8,4.7,2.4c0.4,0.7,0.6,1.4,0.7,2.3c-0.1,1,0.1,1.8,0.5,2.2
					c-0.3,0.4-0.7,0.5-1.1,0.5c-0.4,0-0.7-0.1-1.2-0.4c-0.3,0.6-0.8,0.9-1.7,0.9c-0.6,0-1-0.1-1.3-0.4c0.4-0.7,0.7-1.4,0.7-2.1
					c0-0.5-0.1-1.1-0.5-1.4c-0.3-0.4-0.7-0.6-1.2-0.6h-0.1c-0.8,0-1.5,0.3-1.8,0.7c-0.2,0.4-0.4,1-0.4,1.9v2.1c0,1,0.4,1.7,1.1,2.1
					c-0.4,0.2-0.7,0.6-0.9,1.2c-0.1,0.2-0.1,0.5-0.1,0.8v2.1c0,0.8,0.2,1.5,0.4,1.8c0.3,0.4,1,0.7,1.8,0.7h0.1
					c0.5,0,0.9-0.2,1.2-0.5c0.3-0.4,0.5-0.8,0.5-1.3c0-0.7-0.2-1.3-0.7-2.1C418.7,442.1,419.1,441.9,419.8,441.9z"/>
				<path fill="#FFFFFF" d="M433,449c-0.9,0.4-1.8,0.7-3,0.8c-1.2-0.1-2.1-0.3-3-0.7c-2.1-1-3-2.7-3-5.2v-2.3c0-1.1-0.5-1.8-1.2-2.1
					c0.4-0.2,0.8-0.7,1-1.3c0.1-0.2,0.1-0.5,0.1-0.9v-2.2c0-2.1-0.6-3.7-1.4-5c0.6-0.4,1.2-0.7,1.9-0.7c0.6,0,1,0.2,1.6,0.7
					c0.5-0.4,1.1-0.7,1.7-0.7c0.5,0,0.9,0.2,1.4,0.6c-0.7,1.4-1.3,3.1-1.3,5.2v2.1c0.7,1.1,0.5,1.8,1.2,2.1c-0.4,0.2-0.8,0.6-1,1.2
					c-0.1,0.2-0.2,0.5-0.2,0.9v2.1c0,0.7,0.4,1.3,0.8,1.8c0.4,0.4,1,0.6,1.5,0.6s1.1-0.2,1.5-0.6c0.4-0.4,0.7-1,0.7-1.8v-2.1
					c0-1.1-0.4-1.8-1-2.1c0.4-0.2,0.7-0.7,0.9-1.3c0.1-0.2,0.1-0.5,0.1-0.9V435c0-2-0.4-3.7-1.1-5.2c0.4-0.4,1-0.6,1.6-0.6
					s1.1,0.2,1.6,0.7c0.4-0.4,0.8-0.7,1.3-0.7c0.6,0,1.2,0.2,1.8,0.7c-0.4,0.8-1,1.9-1.2,3.2c-0.1,0.5,0.4,1.1-0.3,1.7v2.2
					c0.7,1.1,0.6,1.8,1.3,2.1c-0.4,0.2-0.8,0.6-1,1.2c-0.1,0.2,0.5,0.5-0.2,0.9v2.3C436,446.4,435.1,448.1,433,449z"/>
				<path fill="#FFFFFF" d="M453.4,434.2c0,0.5-0.1,1-0.5,1.4c-1.6-0.8-2.9-1.2-3.9-1.2c-0.5,0-0.9,0.1-1.2,0.3
					c-0.1,2.2,0.3,3.9,1,4.9c-0.7,0.9-1,2.4-1,4.4c0,1.9,0.4,3.7,1,5.2c-0.5,0.4-1,0.7-1.6,0.7s-1.1-0.2-1.6-0.7
					c-0.5,0.5-1.1,0.7-1.7,0.7c-0.6,0-1.1-0.2-1.6-0.7c0.7-1.5,1-3.2,1-5.2c0-2-0.4-3.5-1-4.4c0.7-1,1.1-2.6,1-4.8
					c-0.3-0.3-0.7-0.4-1.3-0.4c-1,0-2.3,0.4-3.9,1.2c-0.4-0.4-0.5-0.8-0.5-1.4s0.1-1.2,0.5-1.9c-0.4-0.4-0.5-0.8-0.5-1.3
					s0.1-1,0.5-1.5c1.1,0.5,2.3,0.7,3.7,0.7c1.3,0,2.5-0.2,3.7-0.7c1.3,0.5,2.5,0.7,3.7,0.7c1.4,0,2.6-0.2,3.7-0.7
					c0.4,0.4,0.5,1,0.5,1.5s-0.1,1-0.5,1.3C453.2,433,453.4,433.6,453.4,434.2z"/>
				<g>
					<path fill="#FFFFFF" d="M184.4,426.1h2.9l-3.2,6.6h-1.6L184.4,426.1z"/>
				</g>
			</g>
			<g id="itsb">
				<path d="M161.7,448c-0.5,0.5-1.1,0.7-1.6,0.7c-0.6,0-1.1-0.2-1.6-0.7c0.7-1.5,1-3.2,1-5.1c0-2-0.4-3.4-1-4.4
					c0.7-0.9,1-2.4,1-4.4c0-1.9-0.4-3.6-1-5.1c0.5-0.4,1-0.7,1.6-0.7c0.6,0,1.1,0.2,1.6,0.7c0.5-0.5,1.1-0.7,1.7-0.7
					s1.1,0.2,1.6,0.7c-0.7,1.5-1,3.2-1,5.1c0,2,0.4,3.4,1,4.4c-0.7,0.9-1,2.4-1,4.4c0,1.9,0.4,3.6,1,5.1c-0.5,0.4-1,0.7-1.6,0.7
					C162.8,448.7,162.3,448.5,161.7,448z"/>
				<path d="M180.9,433.1c0,0.5-0.1,1-0.5,1.4c-1.6-0.8-2.9-1.2-3.9-1.2c-0.5,0-0.9,0.1-1.2,0.3c-0.1,2.2,0.3,3.9,1,4.9
					c-0.7,0.9-1,2.4-1,4.4c0,1.9,0.4,3.7,1,5.2c-0.5,0.4-1,0.7-1.6,0.7c-0.6,0-1.1-0.2-1.6-0.7c-0.5,0.5-1.1,0.7-1.7,0.7
					c-0.6,0-1.1-0.2-1.6-0.7c0.7-1.5,1-3.2,1-5.2c0-2-0.4-3.5-1-4.4c0.7-1,1.1-2.6,1-4.8c-0.3-0.3-0.7-0.4-1.3-0.4
					c-1,0-2.3,0.4-3.9,1.2c-0.4-0.4-0.5-0.8-0.5-1.4s0.1-1.2,0.5-1.9c-0.4-0.4-0.5-0.8-0.5-1.3s0.1-1,0.5-1.5
					c1.1,0.5,2.3,0.7,3.7,0.7c1.3,0,2.5-0.2,3.7-0.7c1.3,0.5,2.5,0.7,3.7,0.7c1.4,0,2.6-0.2,3.7-0.7c0.4,0.4,0.5,1,0.5,1.5
					s-0.1,1-0.5,1.3C180.8,431.9,180.9,432.5,180.9,433.1z"/>
				<path d="M196.3,434.2c-0.9-1.8-2.1-2.7-3.4-2.7c-0.7,0-1.2,0.2-1.6,0.7c-0.4,0.4-0.7,0.9-0.7,1.5c0,0.5,0.2,1.1,0.7,1.6
					c0.5,0.4,1.2,0.7,1.9,0.7c0.4,0,0.7-0.1,1-0.2c0.1,0.5,0.6,1,1.3,1.6c0.3,0.2,0.7,0.4,1,0.7c1.9,1,2.9,2.6,2.9,4.8
					c0,1.6-0.6,2.9-1.7,4c-1.3,1.2-3,1.8-5.1,1.8c-1,0-2.2-0.1-3.4-0.4c-0.2-0.1-0.6-0.2-1.1-0.5c-0.4-0.2-0.7-0.3-1-0.3
					c-0.4,0-1,0.2-1.6,0.6c0-0.1-0.1-0.4-0.1-0.5c0-1,0.4-1.7,1-2.2c-0.2-0.3-0.3-0.7-0.3-1.1c0-0.6,0.1-1.3,0.5-2
					c0.6,1.1,1.5,1.9,2.5,2.5c0.9,0.5,1.9,0.8,2.9,0.8c0.8,0,1.5-0.1,2.1-0.5c0.5-0.4,0.8-0.8,0.8-1.4s-0.3-1.3-0.9-1.9
					c-0.6-0.5-1.3-0.7-2.2-0.7c-0.4,0-0.8,0.1-1.2,0.1c-0.1-1.2-0.6-1.9-1.5-2.3c-1.8-1-2.8-2.5-2.8-4.5c0-1.5,0.5-2.9,1.6-4
					c1.2-1.3,2.5-1.9,4.2-1.9c1,0,1.9,0.2,2.9,0.7c0.2,0.1,0.4,0.3,0.7,0.4c0.2,0.1,0.4,0.1,0.7,0.1s0.7,0,1.2-0.1
					c0,0.1,0.1,0.3,0.1,0.4c0,0.6-0.3,1.2-0.8,1.8C197.2,432.7,196.9,433.5,196.3,434.2z"/>
				<path d="M219.2,436.6c0.4-0.7,0.5-1.8,0.5-3.2c0-2.1-0.4-3.6-1.1-4.3c0.4-0.4,1-0.7,1.5-0.7s1,0.2,1.6,0.7
					c0.5-0.5,1-0.7,1.6-0.7c0.5,0,1,0.2,1.5,0.7l-0.4,1c-0.4,1.2-0.7,2.5-0.7,4c0,2,0.4,3.5,1.1,4.5c-0.7,0.9-1,2.4-1,4.4
					c0,1.9,0.4,3.6,1,5.1c-0.4,0.4-0.9,0.7-1.4,0.7c-0.5,0-1-0.2-1.5-0.7c-0.4,0.5-1,0.7-1.5,0.7s-1-0.2-1.4-0.7
					c0.7-0.7,1-1.7,1-2.8c0-1.2-0.4-2.2-1.2-3.3l-3.1-4c-0.6,1.2-0.9,2.7-0.9,4.5c0,1.9,0.4,3.7,1.1,5.5c-0.4,0.4-1,0.7-1.5,0.7
					s-1.1-0.2-1.6-0.7c-0.5,0.5-1,0.7-1.6,0.7s-1-0.2-1.5-0.7c0.7-1.5,1-3.2,1-5.1c0-2-0.4-3.4-1-4.4c0.7-1,1.1-2.5,1.1-4.5
					c0-1.5-0.2-2.8-0.7-4l-0.4-1c0.4-0.4,1-0.7,1.5-0.7s1.1,0.2,1.6,0.7c0.5-0.5,1-0.7,1.6-0.7s1,0.2,1.5,0.7
					c-0.2,0.5-0.4,1.1-0.4,1.6c0,0.7,0.2,1.3,0.7,1.9L219.2,436.6z"/>
				<path d="M234.9,448c-0.9,0.4-1.8,0.7-3,0.7c-1.2-0.1-2.1-0.3-3-0.7c-2.1-1-3-2.7-3-5.2v-2.3c0-1-0.5-1.7-1.1-2.1
					c0.4-0.2,0.7-0.6,1-1.2c0.1-0.2,0.1-0.5,0.1-0.8v-2.2c0-2.4,1-4.1,3-5.1c0.9-0.4,1.9-0.7,3.1-0.7c1.2,0.1,2.1,0.4,2.9,0.7
					c2.1,1,2.9,2.7,2.9,5.1v2.2c0,1,0.5,1.7,1.2,2.1c-0.4,0.2-0.8,0.6-1,1.2c-0.1,0.2-0.2,0.5-0.2,0.8v2.3
					C237.8,445.3,236.9,447,234.9,448z M234.1,440.6c0-1-0.4-1.7-1-2.1c0.4-0.2,0.7-0.6,0.9-1.2c0.1-0.2,0.1-0.5,0.1-0.8v-2.1
					c0-0.7-0.2-1.3-0.7-1.7c-0.4-0.4-0.9-0.7-1.5-0.7c-0.5,0-1.2,0.2-1.6,0.7c-0.4,0.4-0.7,1-0.7,1.7v2.1c0,1,0.5,1.7,1.2,2.1
					c-0.4,0.2-0.8,0.6-1,1.2c-0.1,0.2-0.2,0.5-0.2,0.8v2.1c0,0.7,0.4,1.3,0.7,1.8c0.4,0.4,1,0.6,1.5,0.6c0.5,0,1.1-0.2,1.5-0.6
					c0.4-0.4,0.7-1,0.7-1.8L234.1,440.6L234.1,440.6z"/>
				<path d="M253.8,433.1c0,0.5-0.1,1-0.5,1.4c-1.6-0.8-2.9-1.2-3.9-1.2c-0.5,0-0.9,0.1-1.2,0.3c-0.1,2.2,0.3,3.9,1,4.9
					c-0.7,0.9-1,2.4-1,4.4c0,1.9,0.4,3.7,1,5.2c-0.5,0.4-1,0.7-1.6,0.7c-0.6,0-1.1-0.2-1.6-0.7c-0.5,0.5-1.1,0.7-1.7,0.7
					c-0.6,0-1.1-0.2-1.6-0.7c0.7-1.5,1-3.2,1-5.2c0-2-0.4-3.5-1-4.4c0.7-1,1.1-2.6,1-4.8c-0.3-0.3-0.7-0.4-1.3-0.4
					c-1,0-2.3,0.4-3.9,1.2c-0.4-0.4-0.5-0.8-0.5-1.4s0.1-1.2,0.5-1.9c-0.4-0.4-0.5-0.8-0.5-1.3s0.1-1,0.5-1.5
					c1.1,0.5,2.3,0.7,3.7,0.7c1.3,0,2.5-0.2,3.7-0.7c1.3,0.5,2.5,0.7,3.7,0.7c1.4,0,2.6-0.2,3.7-0.7c0.4,0.4,0.5,1,0.5,1.5
					s-0.1,1-0.5,1.3C253.7,431.9,253.8,432.5,253.8,433.1z"/>
				<path d="M276.7,436.4c0,1.1,0.3,1.8,1,2.1c-0.4,0.2-0.7,0.6-0.9,1.2c-0.1,0.2-0.1,0.5-0.1,0.9v2.2c0,0.2,0,0.4,0,0.7
					c0,2.2-1,3.7-3,4.6c-0.8,0.4-1.9,0.6-3,0.7c-0.3,0-0.6,0-0.8,0c-2.2,0-3.8-0.8-4.7-2.4c-0.4-0.7-0.6-1.4-0.7-2.4
					c0.1-1-0.1-1.8-0.5-2.2c0.3-0.4,0.7-0.5,1.1-0.5c0.4,0,0.8,0.1,1.2,0.4c0.3-0.6,0.9-0.9,1.7-0.9c0.6,0,1,0.1,1.3,0.4
					c-0.5,0.7-0.7,1.4-0.7,2.1c0,0.5,0.1,0.9,0.5,1.2c0.4,0.4,0.7,0.4,1.3,0.4h0.1c0.8,0,1.3-0.1,1.6-0.5c0.2-0.4,0.2-0.7,0.2-1.6
					v-2.1c0-1.1-0.3-1.8-0.9-2.1c0.4-0.2,0.7-0.7,0.8-1.3c0.1-0.2,0.1-0.5,0.1-0.9v-2.1c0-1.5-0.1-2.6-0.4-3.4
					c-0.1-0.4-0.6-1-1.5-1.8c0.7-0.4,1.4-0.7,1.9-0.7c0.5,0,1.1,0.2,1.8,0.7c0.6-0.5,1.2-0.7,1.9-0.7c0.6,0,1.2,0.2,1.7,0.7
					c-0.7,0.7-0.9,2.3-0.9,5.1v2.4H276.7z"/>
				<path d="M287.9,448c-0.9,0.4-1.8,0.7-3,0.8c-1.2-0.1-2.1-0.3-3-0.7c-2.1-1-3-2.7-3-5.2v-2.3c0-1.1-0.5-1.8-1.2-2.1
					c0.4-0.2,0.8-0.7,1-1.3c0.1-0.2,0.2-0.5,0.2-0.9V434c0-2.1-0.6-3.7-1.4-5c0.6-0.4,1.2-0.7,1.9-0.7c0.6,0,1,0.2,1.6,0.7
					c0.5-0.4,1.1-0.7,1.7-0.7c0.5,0,0.9,0.2,1.4,0.6c-0.7,1.4-1.3,3.1-1.3,5.2v2.1c0,1.1,0.5,1.8,1.2,2.1c-0.4,0.2-0.8,0.6-1,1.2
					c-0.1,0.2-0.2,0.5-0.2,0.9v2.1c0,0.7,0.4,1.3,0.8,1.8c0.4,0.4,1,0.6,1.5,0.6s1.1-0.2,1.5-0.6c0.4-0.4,0.7-1,0.7-1.8v-2.1
					c0-1.1-0.4-1.8-1-2.1c0.4-0.2,0.7-0.7,0.9-1.3c0.1-0.2,0.1-0.5,0.1-0.9v-2.1c0-2-0.4-3.7-1.1-5.2c0.4-0.4,1-0.6,1.6-0.6
					c0.6,0,1.1,0.2,1.6,0.7c0.4-0.4,0.8-0.7,1.3-0.7c0.6,0,1.2,0.2,1.8,0.7c-0.4,0.8-1,1.9-1.2,3.2c-0.1,0.5-0.3,1.1-0.3,1.7v2.2
					c0.7,1.1,0.6,1.8,1.3,2.1c-0.4,0.2-0.8,0.6-1,1.2c-0.1,0.2-0.2,0.5-0.2,0.9v2.3C290.9,445.2,290,447,287.9,448z"/>
				<path d="M301.6,434.2c-0.9-1.8-2.1-2.7-3.4-2.7c-0.7,0-1.2,0.2-1.6,0.7c-0.4,0.4-0.7,0.9-0.7,1.5c0,0.5,0.2,1.1,0.7,1.6
					c0.5,0.4,1.2,0.7,1.9,0.7c0.4,0,0.7-0.1,1-0.2c0.1,0.5,0.6,1,1.3,1.6c0.3,0.2,0.7,0.4,1,0.7c1.9,1,2.9,2.6,2.9,4.8
					c0,1.6-0.6,2.9-1.7,4c-1.3,1.2-3,1.8-5.1,1.8c-1,0-2.2-0.1-3.4-0.4c-0.2-0.1-0.6-0.2-1.1-0.5c-0.4-0.2-0.7-0.3-1-0.3
					c-0.4,0-1,0.2-1.6,0.6c0-0.1-0.1-0.4-0.1-0.5c0-1,0.4-1.7,1-2.2c-0.2-0.3-0.3-0.7-0.3-1.1c0-0.6,0.1-1.3,0.5-2
					c0.6,1.1,1.5,1.9,2.5,2.5c0.9,0.5,1.9,0.8,2.9,0.8c0.8,0,1.5-0.1,2.1-0.5c0.5-0.4,0.8-0.8,0.8-1.4s-0.3-1.3-0.9-1.9
					c-0.6-0.5-1.3-0.7-2.2-0.7c-0.4,0-0.8,0.1-1.2,0.1c-0.1-1.2-0.6-1.9-1.5-2.3c-1.8-1-2.8-2.5-2.8-4.5c0-1.5,0.5-2.9,1.6-4
					c1.2-1.3,2.5-1.9,4.2-1.9c1,0,1.9,0.2,2.9,0.7c0.2,0.1,0.4,0.3,0.7,0.4c0.2,0.1,0.4,0.1,0.7,0.1c0.3,0,0.7,0,1.2-0.1
					c0,0.1,0.1,0.3,0.1,0.4c0,0.6-0.3,1.2-0.8,1.8C302.5,432.7,302.2,433.5,301.6,434.2z"/>
				<path d="M319.1,433.1c0,0.5-0.1,1-0.5,1.4c-1.6-0.8-2.9-1.2-3.9-1.2c-0.5,0-0.9,0.1-1.2,0.3c-0.1,2.2,0.3,3.9,1,4.9
					c-0.7,0.9-1,2.4-1,4.4c0,1.9,0.4,3.7,1,5.2c-0.5,0.4-1,0.7-1.6,0.7s-1.1-0.2-1.6-0.7c-0.5,0.5-1.1,0.7-1.7,0.7s-1.1-0.2-1.6-0.7
					c0.7-1.5,1-3.2,1-5.2c0-2-0.4-3.5-1-4.4c0.7-1,1.1-2.6,1-4.8c-0.3-0.3-0.7-0.4-1.3-0.4c-1,0-2.3,0.4-3.9,1.2
					c-0.4-0.4-0.5-0.8-0.5-1.4s0.1-1.2,0.5-1.9c-0.4-0.4-0.5-0.8-0.5-1.3s0.1-1,0.5-1.5c1.1,0.5,2.3,0.7,3.7,0.7
					c1.3,0,2.5-0.2,3.7-0.7c1.3,0.5,2.5,0.7,3.7,0.7c1.4,0,2.6-0.2,3.7-0.7c0.4,0.4,0.5,1,0.5,1.5s-0.1,1-0.5,1.3
					C318.8,431.9,319.1,432.5,319.1,433.1z"/>
				<path d="M342,448.7c-0.5,0-0.9-0.1-1-0.5c0.4-0.9,0.7-1.8,0.7-2.7c0-1.1-0.3-2-0.9-2.7c-0.6-0.7-1.3-1-2.3-1c-1,0-1.7,0.4-2.3,1
					c-0.6,0.7-0.9,1.6-0.9,2.7c0,0.9,0.2,1.8,0.6,2.7c-0.1,0.4-0.5,0.5-1,0.5c-0.6,0-1.3-0.1-2.1-0.5c-0.4,0.4-0.8,0.5-1.3,0.5
					c-0.7,0-1.4-0.2-2.2-0.7c2.5-2.5,3.7-5.2,3.7-8.2c0-0.5-0.1-1-0.1-1.4c2-2.5,3.1-5,3.1-7.5c0-0.9-0.1-1.6-0.4-2
					c0.4-0.4,1-0.7,1.6-0.7c0.6,0,1.1,0.2,1.6,0.7c0.5-0.5,1-0.7,1.6-0.7c0.6,0,1.1,0.2,1.6,0.7c-0.3,0.4-0.4,1.1-0.4,2
					c0,2.5,1,5,3.1,7.5c-0.1,0.4-0.1,0.8-0.1,1.4c0,3,1.2,5.7,3.7,8.2c-0.7,0.4-1.5,0.7-2.2,0.7c-0.5,0-1-0.1-1.3-0.5
					C343.3,448.6,342.6,448.7,342,448.7z M338.4,435.5c-0.7,1.2-1,2.3-1,3.5c0.4-0.1,0.7-0.3,1-0.3c0.3,0,0.6,0.1,1,0.3
					C339.3,437.8,339,436.6,338.4,435.5z"/>
				<path d="M366.9,432.2c-0.1-1.5-0.4-2.5-1-3.1c0.4-0.4,1-0.7,1.6-0.7s1.1,0.2,1.6,0.7c0.5-0.5,1.1-0.7,1.6-0.7
					c0.6,0,1.1,0.2,1.6,0.7c-0.7,1.5-1,3.2-1,5.1c0,2,0.4,3.4,1,4.4c-0.7,0.9-1,2.4-1,4.4c0,1.9,0.4,3.6,1,5.1
					c-0.5,0.4-1,0.7-1.6,0.7c-0.6,0-1.1-0.2-1.6-0.7c-0.5,0.5-1.1,0.7-1.6,0.7c-0.6,0-1.1-0.2-1.6-0.7c0.5-0.5,0.9-1.6,1-3.1
					c0-0.4,0.1-1.5,0.1-3.2c0-1-0.4-1.6-1-1.9c-0.3-0.1-0.5-0.1-0.7-0.1s-0.4,0-0.7,0.1c-0.7,0.3-1,0.9-1,1.9c0,1.7,0,2.8,0.1,3.2
					c0.1,1.5,0.4,2.5,1,3.1c-0.5,0.4-1,0.7-1.6,0.7c-0.6,0-1.2-0.2-1.7-0.7c-0.5,0.5-1.1,0.7-1.6,0.7c-0.6,0-1.1-0.2-1.6-0.7
					c0.7-1.5,1-3.2,1-5.1c0-2-0.4-3.4-1-4.4c0.7-0.9,1-2.4,1-4.4c0-1.9-0.4-3.6-1-5.1c0.5-0.4,1-0.7,1.6-0.7c0.6,0,1.1,0.2,1.6,0.7
					c0.5-0.5,1.1-0.7,1.7-0.7c0.6,0,1.1,0.2,1.6,0.7c-0.5,0.5-0.9,1.6-1,3.1c0,0.4-0.1,1.5-0.1,3.2c0,1,0.4,1.6,1,1.9
					c0.3,0.1,0.5,0.1,0.7,0.1s0.4,0,0.7-0.1c0.7-0.3,1-0.9,1-1.9C367,433.6,367,432.6,366.9,432.2z"/>
				<path d="M385.3,448.7c-0.5,0-0.9-0.1-1-0.5c0.4-0.9,0.7-1.8,0.7-2.7c0-1.1-0.3-2-0.9-2.7c-0.6-0.7-1.3-1-2.3-1s-1.7,0.4-2.3,1
					c-0.6,0.7-0.9,1.6-0.9,2.7c0,0.9,0.2,1.8,0.6,2.7c-0.1,0.4-0.5,0.5-1,0.5c-0.6,0-1.3-0.1-2.1-0.5c-0.4,0.4-0.8,0.5-1.3,0.5
					c-0.7,0-1.4-0.2-2.2-0.7c2.5-2.5,3.7-5.2,3.7-8.2c0-0.5-0.1-1-0.1-1.4c2-2.5,3.1-5,3.1-7.5c0-0.9-0.1-1.6-0.4-2
					c0.4-0.4,1-0.7,1.6-0.7s1.1,0.2,1.6,0.7c0.5-0.5,1-0.7,1.6-0.7c0.6,0,1.1,0.2,1.6,0.7c-0.3,0.4-0.4,1.1-0.4,2c0,2.5,1,5,3.1,7.5
					c-0.1,0.4-0.1,0.8-0.1,1.4c0,3,1.2,5.7,3.7,8.2c-0.7,0.4-1.5,0.7-2.2,0.7c-0.5,0-1-0.1-1.3-0.5
					C386.7,448.6,385.9,448.7,385.3,448.7z M381.6,435.5c-0.7,1.2-1,2.3-1,3.5c0.4-0.1,0.7-0.3,1-0.3c0.3,0,0.6,0.1,1,0.3
					C382.7,437.8,382.3,436.6,381.6,435.5z"/>
				<path d="M393.7,448c-0.5,0.5-1.1,0.7-1.6,0.7c-0.6,0-1.1-0.2-1.6-0.7c0.7-1.5,1-3.2,1-5.1c0-2-0.4-3.4-1-4.4
					c0.7-0.9,1-2.4,1-4.4c0-1.9-0.4-3.6-1-5.1c0.5-0.4,1-0.7,1.6-0.7c0.6,0,1.1,0.2,1.6,0.7c0.5-0.5,1.1-0.7,1.7-0.7
					s1.1,0.2,1.6,0.7c-0.7,1.5-1,3.2-1,5.1c0,2,0.4,3.4,1,4.4c-0.7,0.9-1,2.4-1,4.4c0,1.9,0.4,3.6,1,5.1c-0.5,0.4-1,0.7-1.6,0.7
					C394.8,448.7,394.2,448.5,393.7,448z"/>
				<path d="M410.4,448.7c-1.4,0-2.8-0.5-4-1.6c0.5-0.7,0.8-1.3,0.8-2c0-0.7-0.4-1.6-1.2-2.7c0.2-0.4,0.4-0.7,0.4-1.1
					c0-0.5-0.2-1-0.7-1.3c-0.4-0.4-0.9-0.6-1.5-0.6c-0.5,0-1,0.2-1.3,0.7c-0.4,0.5-0.6,1.3-0.6,2.4c0,2.6,0.5,4.4,1.5,5.5
					c-0.4,0.4-1,0.7-1.6,0.7s-1.2-0.2-1.8-0.7c-0.6,0.5-1.2,0.7-1.8,0.7c-0.6,0-1.1-0.2-1.6-0.7c0.7-1.5,1-3.1,1-5
					c0-1.9-0.4-3.4-1-4.3c0.7-0.9,1-2.4,1-4.3c0-1.9-0.4-3.6-1-5c0.4-0.4,1-0.7,1.6-0.7s1.3,0.2,1.8,0.7c1.1-0.5,2.5-0.8,3.9-0.8
					c1.6,0,3.1,0.4,4.2,1c1.2,0.7,1.9,1.6,1.9,2.7c0,1,0.4,1.8,1,2.1c-0.4,0.2-0.7,0.6-0.9,1.2c-0.1,0.2-0.1,0.5-0.1,0.8
					c-0.1,1-0.7,1.7-1.8,2.2c0.7,0.3,1.2,0.7,1.5,1.3c0.1,0.2,0.1,0.4,0.2,0.7c0,0.8,0.3,1.3,1,1.6c0,0,0.1,0.4,0.1,1.1
					c0.1,0.9,0.3,1.7,0.4,2.4c0.4,1,0.8,1.9,1.5,2.5C412.3,448.5,411.3,448.7,410.4,448.7z M406,433.4c0-0.4-0.1-0.7-0.5-1
					c-0.4-0.3-0.7-0.4-1.2-0.4c-0.6,0-1,0.2-1.4,0.6c-0.4,0.5-0.7,1.2-0.7,2.1c0,0.9,0.2,1.6,0.7,2.1c0.4,0.4,0.8,0.6,1.4,0.6
					c0.4,0,0.8-0.1,1.2-0.4c0.4-0.3,0.5-0.6,0.5-1c0-0.4-0.2-0.8-0.6-1.3C405.9,434.2,406,433.9,406,433.4z"/>
				<path d="M420.5,440.9c0.8,0,1.4,0.3,1.7,0.9c0.4-0.2,0.7-0.4,1.2-0.4s0.8,0.1,1.1,0.5c-0.4,0.4-0.7,1.1-0.5,2.2
					c-0.1,0.9-0.3,1.7-0.7,2.3c-0.9,1.6-2.5,2.4-4.7,2.4c-0.2,0-0.5,0-0.8,0c-1.1-0.1-2.2-0.3-2.9-0.7c-1.9-0.8-2.8-2.3-2.8-4.5
					c0-0.2,0.1-0.4,0.1-0.7v-2.2c0-1-0.4-1.7-1-2.1c0.4-0.2,0.7-0.6,0.9-1.2c0.1-0.2,0.1-0.5,0.1-0.8v-2.2c0-2.5,0.9-4.2,2.8-5.2
					c0.8-0.4,1.7-0.7,2.9-0.7c0.3,0,0.5,0,0.8,0c2.2,0,3.8,0.8,4.7,2.4c0.4,0.7,0.6,1.4,0.7,2.3c-0.1,1,0.1,1.8,0.5,2.2
					c-0.3,0.4-0.7,0.5-1.1,0.5c-0.4,0-0.7-0.1-1.2-0.4c-0.3,0.6-0.8,0.9-1.7,0.9c-0.6,0-1-0.1-1.3-0.4c0.4-0.7,0.7-1.4,0.7-2.1
					c0-0.5-0.1-0.9-0.5-1.3c-0.3-0.4-0.7-0.4-1.2-0.4h-0.1c-0.8,0-1.6,0.1-1.8,0.6c-0.2,0.4-0.4,0.8-0.4,1.7v2.1
					c0,1,0.4,1.7,1.1,2.1c-0.4,0.2-0.7,0.6-0.9,1.2c-0.1,0.2-0.1,0.5-0.1,0.8v2.1c0,0.8,0.2,1.3,0.4,1.6c0.3,0.4,1,0.5,1.8,0.5h0.1
					c0.5,0,0.9,0,1.2-0.4c0.3-0.4,0.5-0.7,0.5-1.3c0-0.7-0.2-1.3-0.7-2C419.5,441,419.9,440.9,420.5,440.9z"/>
				<path d="M434.1,448c-0.9,0.4-2,0.7-3.2,0.8c-1.2-0.1-2.2-0.3-3.1-0.7c-2.1-1-3.1-2.7-3.1-5.2v-2.3c0-1.1-0.5-1.8-1.1-2.1
					c0.4-0.2,0.8-0.7,1-1.3c0.1-0.2,0.1-0.5,0.1-0.9V434c0-2.1-0.6-3.7-1.4-5c0.6-0.4,1.2-0.7,1.9-0.7c0.6,0,1,0.2,1.6,0.7
					c0.5-0.4,1.1-0.7,1.7-0.7c0.5,0,1.3,0.2,1.7,0.6c-0.7,1.4-1,3.1-1,5.2v2.1c0,1.1,0.2,1.8,0.9,2.1c-0.4,0.2-0.7,0.6-0.8,1.2
					c-0.1,0.2-0.1,0.5-0.1,0.9v2.1c0,0.7,0,1.3,0.4,1.8c0.4,0.4,0.7,0.6,1.3,0.6c0.5,0,1-0.2,1.3-0.6c0.4-0.4,0.6-1,0.6-1.8v-2.1
					c0-1.1-0.4-1.8-1-2.1c0.4-0.2,0.7-0.7,0.9-1.3c0.1-0.2,0.1-0.5,0.1-0.9v-2.1c0-2-0.4-3.7-1.1-5.2c0.4-0.4,1-0.6,1.6-0.6
					s1.1,0.2,1.7,0.7c0.4-0.4,0.8-0.7,1.3-0.7c0.6,0,1.2,0.2,1.8,0.7c-0.4,0.8-0.7,1.9-0.8,3.2c-0.1,0.5,0,1.1,0,1.7v2.2
					c0,1.1,0.2,1.8,0.9,2.1c-0.4,0.2-0.7,0.6-0.8,1.2c-0.1,0.2-0.1,0.5-0.1,0.9v2.3C437.5,445.2,436.2,447,434.1,448z"/>
				<path d="M454.2,433.1c0,0.5-0.1,1-0.5,1.4c-1.6-0.8-2.9-1.2-3.9-1.2c-0.5,0-0.9,0.1-1.2,0.3c-0.1,2.2,0.3,3.9,1,4.9
					c-0.7,0.9-1,2.4-1,4.4c0,1.9,0.4,3.7,1,5.2c-0.5,0.4-1,0.7-1.6,0.7s-1.1-0.2-1.6-0.7c-0.5,0.5-1.1,0.7-1.7,0.7s-1.1-0.2-1.6-0.7
					c0.7-1.5,1-3.2,1-5.2c0-2-0.4-3.5-1-4.4c0.7-1,1.1-2.6,1-4.8c-0.3-0.3-0.7-0.4-1.3-0.4c-1,0-2.3,0.4-3.9,1.2
					c-0.4-0.4-0.5-0.8-0.5-1.4s0.1-1.2,0.5-1.9c-0.4-0.4-0.5-0.8-0.5-1.3s0.1-1,0.5-1.5c1.1,0.5,2.3,0.7,3.7,0.7
					c1.3,0,2.5-0.2,3.7-0.7c1.3,0.5,2.5,0.7,3.7,0.7c1.4,0,2.6-0.2,3.7-0.7c0.4,0.4,0.5,1,0.5,1.5s-0.1,1-0.5,1.3
					C454,431.9,454.2,432.5,454.2,433.1z"/>
				<g>
					<path d="M185,425.9h2.9l-3.2,6.6h-1.6L185,425.9z"/>
				</g>
			</g>
		</g>
	</g>
	<path fill="#333335" d="M204.4,365.1c-1.1-1-2.4-3.3-3.3-5.2c0.3,0.1,0.5,0.1,0.8,0.1c2.4-0.3,3.8-4.7,3.2-9.8
		c-0.6-5.1-3.1-9-5.5-8.7c-2.4,0.3-3.8,4.7-3.2,9.8c0.1,0.4,0.1,0.9,0.2,1.3c0.6,4,2.1,7.9,4,11.1c2,3.4,5.5,5.6,9.3,7.2
		c-8.5,0.8-16.9,3.7-25,6.9c-8.2,3.2-16.2,6.9-24.3,10.6s-16.1,7.6-24.2,11.4c-3.7,1.7-7.5,3.5-11.2,5.2c-3.4,1.5-6.8,2.5-10.4,3.1
		c-2.2,0.3-4.3,0.4-6.5,0.1c-1-0.1-2-0.4-3-1c-0.4-0.2-0.7-0.5-1-1c-0.1-0.2-0.3-0.7,0-0.9c0.1-0.1,0.4,0.1,0.5,0.1
		c0.1,0,0.3-0.1,0.4-0.1c0.4-0.2,0.7-0.7,1-1.2c0.3-0.8,0.4-2.1-0.3-2.8c-1.5-1.3-2.7,1.7-2.8,3.1c-0.4,2.9,2.2,3.9,3.9,4.3
		c2.2,0.4,4.5,0.3,6.7,0c2-0.2,4.1-0.7,6.1-1.3c-2.5,1.1-5.1,2.2-7.6,3.1c-4,1.6-8.2,3.1-12.3,4.3c-4.2,1.2-8.4,2.2-12.7,2.4
		c-2,0.1-4.1,0-6.1-0.7c-1.9-0.6-3.5-1.9-4.9-3.7c-1.4-1.9-2.3-4.3-2.5-6.9c-0.2-2.5,0.2-5.1,1-7.4c1.4-4.7,3.9-8.7,6.6-12.3
		c2.8-3.7,6-7,9.3-9.9c3.4-3,7-5.5,10.8-7.8c3.7-2.2,7.6-4,11.7-4.9c1.9-0.4,4-0.7,6-0.1c0.7,0.2,1.5,0.6,1.9,1.4
		c0.6,1,0.6,2.4,0.5,3.5c-0.1,0.7-0.1,1.3-0.2,1.9c-0.1,0.6-0.1,1.3-0.4,1.7c-0.4,0.8-1.2,1.5-1.9,2c-1.3,0.9-2.8,1.3-4.2,1.6
		c-1.3,0.4-2.7,0.9-3.7,2.2c-1.1,1.5-1.9,3.7-2,5.9c-0.1,1.9,0.5,3.7,1.6,4.9c1.1,1.3,2.8,2.2,4.2,2.2c1.5-0.1,2.6-1.3,3.6-2.7
		c0.7-1,1.3-1.9,1.9-2.9c0.7-1,1.2-1.9,1.8-3c2.2-4.1,3.9-9.1,3.7-14.4c-0.1-2.5-0.7-5.2-2.1-7c-1.4-1.9-3.4-2.8-5.3-3
		c-4-0.4-7.9,1.1-11.4,3c-7.6,4-14.5,10.1-20.8,16.8c-3.1,3.4-6,7-8.5,11.1c-2.3,3.7-4.5,8.1-5.3,13c-0.4,2.6-0.4,5.3,0.4,7.9
		c0.7,2.4,2,4.5,3.5,6.1c3.1,3.4,7.6,3.7,11.4,3.7c4.3-0.1,8.5-1,12.6-2.2c4.1-1.1,8.2-2.5,12.3-4c8.2-3,16.3-6.4,24.4-10
		c8.2-3.6,16.2-7.2,24.3-10.8c8.1-3.7,16.2-7.2,24.5-10.3c8.2-3.1,16.5-6.3,25-7.7c1-0.1,2.1-0.3,3.1-0.4c0.5-0.1,1-0.1,1.6-0.1
		c0.2,0,1,0.1,1-0.1s0-0.5,0-0.7c0-0.3,0-0.7,0-1c0-0.4,0-0.8,0-1.2C213.1,370.2,206.9,367.4,204.4,365.1z"/>
	<path fill="#333335" d="M407.2,365.1c1.1-1,2.4-3.3,3.3-5.2c-0.3,0.1-0.5,0.1-0.8,0.1c-2.4-0.3-3.8-4.7-3.2-9.8s3.1-9,5.5-8.7
		c2.4,0.3,3.8,4.7,3.2,9.8c-0.1,0.4-0.1,0.9-0.2,1.3c-0.6,4-2.1,7.9-4,11.1c-2,3.4-5.5,5.6-9.3,7.2c8.5,0.8,16.9,3.7,25,6.9
		c8.2,3.2,16.2,6.9,24.3,10.6s16.1,7.6,24.2,11.4c3.7,1.7,7.5,3.5,11.2,5.2c3.4,1.5,6.8,2.5,10.4,3.1c2.2,0.3,4.3,0.4,6.5,0.1
		c1-0.1,2-0.4,3-1c0.4-0.2,0.7-0.5,1-1c0.1-0.2,0.3-0.7,0-0.9c-0.1-0.1-0.4,0.1-0.5,0.1c-0.1,0-0.3-0.1-0.4-0.1
		c-0.4-0.2-0.7-0.7-1-1.2c-0.3-0.8-0.4-2.1,0.3-2.8c1.5-1.3,2.7,1.7,2.8,3.1c0.4,2.9-2.2,3.9-3.9,4.3c-2.2,0.4-4.5,0.3-6.7,0
		c-2-0.2-4.1-0.7-6.1-1.3c2.5,1.1,5.1,2.2,7.6,3.1c4,1.6,8.2,3.1,12.3,4.3c4.2,1.2,8.4,2.2,12.7,2.4c2,0.1,4.1,0,6.1-0.7
		c1.9-0.6,3.5-1.9,4.9-3.7c1.4-1.9,2.3-4.3,2.5-6.9c0.2-2.5-0.2-5.1-1-7.4c-1.4-4.7-3.9-8.7-6.6-12.3c-2.8-3.7-6-7-9.3-9.9
		c-3.4-3-7-5.5-10.8-7.8c-3.7-2.2-7.6-4-11.7-4.9c-1.9-0.4-4-0.7-6-0.1c-0.7,0.2-1.5,0.6-1.9,1.4c-0.6,1-0.6,2.4-0.5,3.5
		c0.1,0.7,0.1,1.3,0.2,1.9s0.1,1.3,0.4,1.7c0.4,0.8,1.2,1.5,1.9,2c1.3,0.9,2.8,1.3,4.2,1.6c1.3,0.4,2.7,0.9,3.7,2.2
		c1.1,1.5,1.9,3.7,2,5.9c0.1,1.9-0.5,3.7-1.6,4.9c-1.1,1.3-2.8,2.2-4.2,2.2c-1.5-0.1-2.6-1.3-3.6-2.7c-0.7-1-1.3-1.9-1.9-2.9
		c-0.7-1-1.2-1.9-1.8-3c-2.2-4.1-3.9-9.1-3.7-14.4c0.1-2.5,0.7-5.2,2.1-7c1.4-1.9,3.4-2.8,5.3-3c4-0.4,7.9,1.1,11.4,3
		c7.6,4,14.5,10.1,20.8,16.8c3.1,3.4,6,7,8.5,11.1c2.3,3.7,4.5,8.1,5.3,13c0.4,2.6,0.4,5.3-0.4,7.9c-0.7,2.4-2,4.5-3.5,6.1
		c-3.1,3.4-7.6,3.7-11.4,3.7c-4.3-0.1-8.5-1-12.6-2.2c-4.1-1.1-8.2-2.5-12.3-4c-8.2-3-16.3-6.4-24.4-10c-8.2-3.6-16.2-7.2-24.3-10.8
		c-8.1-3.7-16.2-7.2-24.5-10.3c-8.2-3.1-16.5-6.3-25-7.7c-1-0.1-2.1-0.3-3.1-0.4c-0.5-0.1-1-0.1-1.6-0.1c-0.2,0-1,0.1-1-0.1
		c-0.1-0.1,0-0.5,0-0.7c0-0.3,0-0.7,0-1c0-0.4,0-0.8,0-1.2C398.4,370.2,404.6,367.4,407.2,365.1z"/>
	<path fill="#0D0D0D" d="M146.6,427.6c0.7-1,0.9-2,0.9-3.1c-0.2-0.4-0.4-1-0.8-0.9c-0.1,0.1-0.4,0.2-0.5,0.3c0,0.7,0.5,1.6,0.2,2.2
		c-1,0.8-1.5,0.2-2.3,0.7c-0.2,2.6-3,7.3-3,7.3l-4.3,7.6c-0.4,0.4-1.2,1.9-1.5,2.6c-0.1,0.4,0,0.6,0.1,0.7v0.1l0,0
		c0,0.1-0.1,0.1-0.4,0.3c0.1,0.1,0.1,0.1,0.1,0.2c0.8,0.4,1.4,1.6,2.4,1.3c2.2-4,4.5-7.9,6.1-12c-0.1-0.8-0.7-0.4-1-1.1
		c0.9-1,1-2.1,2.4-3c4.3,6.4,2.6,13.4,5.6,19.1c0.4,0.8,0.8,1.9,1.9,2.2c0.1-0.1,0.1-0.1,0.2-0.1
		C155.9,446.6,150.5,434.4,146.6,427.6z M143,435c0,0.2-0.2,0.4-0.4,0.4c-0.2,0-0.4-0.2-0.4-0.4c0-0.2,0.2-0.4,0.4-0.4
		C142.8,434.6,143,434.8,143,435z"/>
	<path fill="#0D0D0D" d="M457.3,451.9c0.1,0.1,0.1,0.1,0.2,0.1c1.1-0.3,1.5-1.4,1.9-2.2c3-5.7,1.3-12.7,5.6-19.1
		c1.3,0.8,1.5,2,2.4,3c-0.2,0.7-0.7,0.3-1,1.1c1.6,4.1,3.8,8.1,6.1,12c1,0.3,1.6-1,2.4-1.3c0.1-0.1,0.1-0.1,0.1-0.2
		c-0.3-0.1-0.4-0.2-0.4-0.3l0,0V445c0.1-0.1,0.2-0.3,0.1-0.7c-0.3-0.7-1-2.2-1.5-2.6l-4.3-7.6c0,0-2.8-4.6-3-7.3
		c-0.8-0.4-1.3,0.1-2.3-0.7c-0.3-0.6,0.2-1.5,0.2-2.2c-0.1-0.1-0.4-0.2-0.5-0.3c-0.4-0.1-0.6,0.4-0.8,0.9c0.1,1.1,0.2,2.2,0.9,3.1
		C459.6,434.4,454.1,446.6,457.3,451.9z M467.5,434.6c0.2,0,0.4,0.1,0.4,0.4s-0.1,0.4-0.4,0.4s-0.4-0.1-0.4-0.4
		S467.3,434.6,467.5,434.6z"/>
	<path fill="#333335" d="M306.1,207.6c-59.2,0-107.3,48-107.3,107.3c0,59.2,48,107.3,107.3,107.3s107.3-48,107.3-107.3
		C413.4,255.6,365.4,207.6,306.1,207.6z M306.1,410.8c-52.9,0-95.9-43-95.9-95.9c0-52.9,43-95.9,95.9-95.9s95.9,43,95.9,95.9
		C402,367.7,358.9,410.8,306.1,410.8z"/>
	<g id="scis">
		<path fill="#0D0D0D" d="M433.9,401.9c4.8-2.1,16.2-6.7,16.4-7.6c-1.7-0.1-15.4,4.3-20.3,5.8c-4.7-1.8-16.6-7.4-17-8.5
			c-0.3-0.8,0.1-1.7-0.1-2.4c-0.5-1.6-2.2-2.5-3.7-2.5c-1.3,0.1-2.3,1.3-3.6,1.3c-2.5,0-3.1-2.4-4.3-4c0-0.1-0.1-0.1-0.3,0
			c-0.1,3.4,3.7,3.8,4.5,5.8c0.4,0.9,0.2,1.8,0.6,2.5c0.6,1.1,2.3,2.1,4,1.8c0.8-0.1,1.5-1.2,2.7-1.2c0.6,0,4.8,2.6,5.7,3.1
			c2.5,1.5,5.8,3,6.6,5.8c-0.4,0.9-0.9,1.8-1.3,2.7c-1.9,1-8.9,5.8-10.2,5.8c-0.7,0-1.2-0.3-1.6-0.4c-2.9-0.9-6.5,0.4-6.5,3.7
			c0,1.6,1.1,3.5,3,3.9c2.5,0.4,4.6-1,5.2-2.7c0.3-0.8-0.1-1.9,0.4-3.1c0.4-0.8,12.1-6.3,16.4-8.1c4.9,1.7,18.5,5.8,20.3,5.8
			C450.1,408.6,438.7,404.1,433.9,401.9z M406.2,389.8c0.2-1,1-1.9,2.5-2.1c1.9-0.3,3.4,0.7,3.4,2.8
			C412.3,395,405.4,394.1,406.2,389.8z M405.8,413.7c0-2.1,1.6-3.1,3.6-3.3c2-0.2,3.1,0.8,3.4,1.9
			C413.9,417.3,405.8,418.7,405.8,413.7z M429.9,403.3c-0.7,0-1.2-0.5-1.2-1.2c0-0.7,0.5-1.2,1.2-1.2c0.7,0,1.2,0.5,1.2,1.2
			C431.2,402.7,430.6,403.3,429.9,403.3z"/>
		<path fill="#0D0D0D" d="M161.7,409.5c1.8,0.1,15.4-4,20.3-5.8c4.3,1.8,16,7.3,16.4,8.1c0.5,1.2,0.1,2.3,0.4,3.1
			c0.7,1.6,2.7,3.1,5.2,2.7c1.9-0.4,3-2.2,3-3.9c-0.1-3.4-3.6-4.6-6.5-3.7c-0.4,0.1-1,0.4-1.6,0.4c-1.3,0-8.4-4.9-10.2-5.8
			c-0.4-0.9-0.9-1.8-1.3-2.7c0.7-2.8,4-4.3,6.6-5.8c0.8-0.5,5.1-3.1,5.7-3.1c1.2,0,1.8,1,2.7,1.2c1.7,0.3,3.4-0.6,4-1.8
			c0.4-0.7,0.2-1.6,0.6-2.5c0.8-2,4.6-2.4,4.5-5.8c-0.1-0.1-0.3-0.1-0.3,0c-1.3,1.6-1.8,4-4.3,4c-1.3,0-2.3-1.3-3.6-1.3
			c-1.4-0.1-3.2,0.8-3.7,2.5c-0.2,0.6,0.1,1.6-0.1,2.4c-0.4,1-12.3,6.7-17,8.5c-4.9-1.6-18.6-5.9-20.3-5.8
			c0.2,0.9,11.6,5.5,16.4,7.6C173.3,404.1,161.9,408.6,161.7,409.5z M199.8,390.5c0-2,1.6-3.1,3.4-2.8c1.5,0.2,2.3,1.1,2.5,2.1
			C206.6,394.1,199.7,395,199.8,390.5z M199.1,412.4c0.2-1.1,1.4-2.2,3.4-1.9s3.5,1.2,3.6,3.3C206.2,418.7,198.1,417.3,199.1,412.4z
			 M180.9,402c0-0.7,0.5-1.2,1.2-1.2c0.7,0,1.2,0.5,1.2,1.2c0,0.7-0.5,1.2-1.2,1.2C181.4,403.3,180.9,402.7,180.9,402z"/>
	</g>
</g>
<g>
	<path d="M315.1,459.4c-0.2,0.5-0.5,0.9-0.7,1.3c-0.2,0.4-0.5,0.8-0.7,1.1c-0.3,0.3-0.5,0.6-0.9,0.8s-0.7,0.3-1.2,0.4
		c-0.1,0-0.2,0-0.2-0.1c0-0.1,0-0.2,0.1-0.2c0.2-0.1,0.4-0.2,0.6-0.3c0.2-0.2,0.3-0.3,0.3-0.4c0.1-0.1,0.1-0.3,0.2-0.4s0-0.3,0-0.5
		c0-0.2,0-0.4,0-0.5c0-0.1,0-0.2,0-0.3c0-0.1,0.1-0.2,0.2-0.3c0.1-0.1,0.2-0.2,0.4-0.2c0.1,0,0.1,0,0.2,0c0.1,0,0.1,0,0.2,0
		c0.1,0,0.2,0,0.2,0s0.1,0,0.2,0c0.1,0,0.2-0.1,0.3-0.1c0.1-0.1,0.2-0.1,0.3-0.2c0.1-0.1,0.2-0.1,0.2-0.1
		C315.1,459.3,315.1,459.4,315.1,459.4z"/>
</g>
</svg>
