<?xml version="1.0" encoding="utf-8"?>
<!-- Generator: Adobe Illustrator 19.0.0, SVG Export Plug-In . SVG Version: 6.00 Build 0)  -->
<!DOCTYPE svg PUBLIC "-//W3C//DTD SVG 1.1//EN" "http://www.w3.org/Graphics/SVG/1.1/DTD/svg11.dtd">
<svg version="1.1" id="Layer_2" xmlns="http://www.w3.org/2000/svg" xmlns:xlink="http://www.w3.org/1999/xlink" x="0px" y="0px"
	 viewBox="153 -198 612 792" enable-background="new 153 -198 612 792" xml:space="preserve">
<g>
	<path fill="#333335" d="M356.8,168.3c-1.1-1-2.4-3.3-3.3-5.2c0.3,0.1,0.5,0.1,0.8,0.1c2.4-0.3,3.8-4.7,3.2-9.8
		c-0.6-5.1-3.1-9-5.5-8.7s-3.8,4.7-3.2,9.8c0.1,0.4,0.1,0.9,0.2,1.3c0.6,4,2.1,7.9,4,11.1c2,3.4,5.5,5.6,9.3,7.2
		c-8.5,0.8-16.9,3.7-25,6.9c-8.2,3.2-16.2,6.9-24.3,10.6s-16.1,7.6-24.2,11.4c-3.7,1.7-7.5,3.5-11.2,5.2c-3.4,1.5-6.8,2.5-10.4,3.1
		c-2.2,0.3-4.3,0.4-6.5,0.1c-1-0.1-2-0.4-3-1c-0.4-0.2-0.7-0.5-1-1c-0.1-0.2-0.3-0.7,0-0.9c0.1-0.1,0.4,0.1,0.5,0.1
		c0.1,0,0.3-0.1,0.4-0.1c0.4-0.2,0.7-0.7,1-1.2c0.3-0.8,0.4-2.1-0.3-2.8c-1.5-1.3-2.7,1.7-2.8,3.1c-0.4,2.9,2.2,3.9,3.9,4.3
		c2.2,0.4,4.5,0.3,6.7,0c2-0.2,4.1-0.7,6.1-1.3c-2.5,1.1-5.1,2.2-7.6,3.1c-4,1.6-8.2,3.1-12.3,4.3c-4.2,1.2-8.4,2.2-12.7,2.4
		c-2,0.1-4.1,0-6.1-0.7c-1.9-0.6-3.5-1.9-4.9-3.7c-1.4-1.9-2.3-4.3-2.5-6.9c-0.2-2.5,0.2-5.1,1-7.4c1.4-4.7,3.9-8.7,6.6-12.3
		c2.8-3.7,6-7,9.3-9.9c3.4-3,7-5.5,10.8-7.8c3.7-2.2,7.6-4,11.7-4.9c1.9-0.4,4-0.7,6-0.1c0.7,0.2,1.5,0.6,1.9,1.4
		c0.6,1,0.6,2.4,0.5,3.5c-0.1,0.7-0.1,1.3-0.2,1.9c-0.1,0.6-0.1,1.3-0.4,1.7c-0.4,0.8-1.2,1.5-1.9,2c-1.3,0.9-2.8,1.3-4.2,1.6
		c-1.3,0.4-2.7,0.9-3.7,2.2c-1.1,1.5-1.9,3.7-2,5.9c-0.1,1.9,0.5,3.7,1.6,4.9c1.1,1.3,2.8,2.2,4.2,2.2c1.5-0.1,2.6-1.3,3.6-2.7
		c0.7-1,1.3-1.9,1.9-2.9c0.7-1,1.2-1.9,1.8-3c2.2-4.1,3.9-9.1,3.7-14.4c-0.1-2.5-0.7-5.2-2.1-7c-1.4-1.9-3.4-2.8-5.3-3
		c-4-0.4-7.9,1.1-11.4,3c-7.6,4-14.5,10.1-20.8,16.8c-3.1,3.4-6,7-8.5,11.1c-2.3,3.7-4.5,8.1-5.3,13c-0.4,2.6-0.4,5.3,0.4,7.9
		c0.7,2.4,2,4.5,3.5,6.1c3.1,3.4,7.6,3.7,11.4,3.7c4.3-0.1,8.5-1,12.6-2.2c4.1-1.1,8.2-2.5,12.3-4c8.2-3,16.3-6.4,24.4-10
		c8.2-3.6,16.2-7.2,24.3-10.8c8.1-3.7,16.2-7.2,24.5-10.3c8.2-3.1,16.5-6.3,25-7.7c1-0.1,2.1-0.3,3.1-0.4c0.5-0.1,1-0.1,1.6-0.1
		c0.2,0,1,0.1,1-0.1s0-0.5,0-0.7c0-0.3,0-0.7,0-1c0-0.4,0-0.8,0-1.2C365.5,173.4,359.3,170.6,356.8,168.3z"/>
	<path fill="#333335" d="M559.6,168.3c1.1-1,2.4-3.3,3.3-5.2c-0.3,0.1-0.5,0.1-0.8,0.1c-2.4-0.3-3.8-4.7-3.2-9.8s3.1-9,5.5-8.7
		c2.4,0.3,3.8,4.7,3.2,9.8c-0.1,0.4-0.1,0.9-0.2,1.3c-0.6,4-2.1,7.9-4,11.1c-2,3.4-5.5,5.6-9.3,7.2c8.5,0.8,16.9,3.7,25,6.9
		c8.2,3.2,16.2,6.9,24.3,10.6s16.1,7.6,24.2,11.4c3.7,1.7,7.5,3.5,11.2,5.2c3.4,1.5,6.8,2.5,10.4,3.1c2.2,0.3,4.3,0.4,6.5,0.1
		c1-0.1,2-0.4,3-1c0.4-0.2,0.7-0.5,1-1c0.1-0.2,0.3-0.7,0-0.9c-0.1-0.1-0.4,0.1-0.5,0.1c-0.1,0-0.3-0.1-0.4-0.1
		c-0.4-0.2-0.7-0.7-1-1.2c-0.3-0.8-0.4-2.1,0.3-2.8c1.5-1.3,2.7,1.7,2.8,3.1c0.4,2.9-2.2,3.9-3.9,4.3c-2.2,0.4-4.5,0.3-6.7,0
		c-2-0.2-4.1-0.7-6.1-1.3c2.5,1.1,5.1,2.2,7.6,3.1c4,1.6,8.2,3.1,12.3,4.3c4.2,1.2,8.4,2.2,12.7,2.4c2,0.1,4.1,0,6.1-0.7
		c1.9-0.6,3.5-1.9,4.9-3.7c1.4-1.9,2.3-4.3,2.5-6.9c0.2-2.5-0.2-5.1-1-7.4c-1.4-4.7-3.9-8.7-6.6-12.3c-2.8-3.7-6-7-9.3-9.9
		c-3.4-3-7-5.5-10.8-7.8c-3.7-2.2-7.6-4-11.7-4.9c-1.9-0.4-4-0.7-6-0.1c-0.7,0.2-1.5,0.6-1.9,1.4c-0.6,1-0.6,2.4-0.5,3.5
		c0.1,0.7,0.1,1.3,0.2,1.9c0.1,0.6,0.1,1.3,0.4,1.7c0.4,0.8,1.2,1.5,1.9,2c1.3,0.9,2.8,1.3,4.2,1.6c1.3,0.4,2.7,0.9,3.7,2.2
		c1.1,1.5,1.9,3.7,2,5.9c0.1,1.9-0.5,3.7-1.6,4.9c-1.1,1.3-2.8,2.2-4.2,2.2c-1.5-0.1-2.6-1.3-3.6-2.7c-0.7-1-1.3-1.9-1.9-2.9
		c-0.7-1-1.2-1.9-1.8-3c-2.2-4.1-3.9-9.1-3.7-14.4c0.1-2.5,0.7-5.2,2.1-7c1.4-1.9,3.4-2.8,5.3-3c4-0.4,7.9,1.1,11.4,3
		c7.6,4,14.5,10.1,20.8,16.8c3.1,3.4,6,7,8.5,11.1c2.3,3.7,4.5,8.1,5.3,13c0.4,2.6,0.4,5.3-0.4,7.9c-0.7,2.4-2,4.5-3.5,6.1
		c-3.1,3.4-7.6,3.7-11.4,3.7c-4.3-0.1-8.5-1-12.6-2.2c-4.1-1.1-8.2-2.5-12.3-4c-8.2-3-16.3-6.4-24.4-10c-8.2-3.6-16.2-7.2-24.3-10.8
		c-8.1-3.7-16.2-7.2-24.5-10.3c-8.2-3.1-16.5-6.3-25-7.7c-1-0.1-2.1-0.3-3.1-0.4c-0.5-0.1-1-0.1-1.6-0.1c-0.2,0-1,0.1-1-0.1
		c-0.1-0.1,0-0.5,0-0.7c0-0.3,0-0.7,0-1c0-0.4,0-0.8,0-1.2C550.8,173.4,557,170.6,559.6,168.3z"/>
	<path fill="#333335" d="M459.5,9.5c-59.2,0-107.3,48-107.3,107.3c0,59.2,48,107.3,107.3,107.3c59.3,0,107.3-48,107.3-107.3
		C566.8,57.5,518.8,9.5,459.5,9.5z M459.5,212.7c-52.9,0-95.9-43-95.9-95.9s43-95.9,95.9-95.9s95.9,43,95.9,95.9
		C555.4,169.6,512.3,212.7,459.5,212.7z"/>
	<g id="scis_1_">
		<path fill="#0D0D0D" d="M585.2,205.7c4.8-2.1,16.2-6.7,16.4-7.6c-1.7-0.1-15.4,4.3-20.3,5.8c-4.7-1.8-16.6-7.4-17-8.5
			c-0.3-0.8,0.1-1.7-0.1-2.4c-0.5-1.6-2.2-2.5-3.7-2.5c-1.3,0.1-2.3,1.3-3.6,1.3c-2.5,0-3.1-2.4-4.3-4c0-0.1-0.1-0.1-0.3,0
			c-0.1,3.4,3.7,3.8,4.5,5.8c0.4,0.9,0.2,1.8,0.6,2.5c0.6,1.1,2.3,2.1,4,1.8c0.8-0.1,1.5-1.2,2.7-1.2c0.6,0,4.8,2.6,5.7,3.1
			c2.5,1.5,5.8,3,6.6,5.8c-0.4,0.9-0.9,1.8-1.3,2.7c-1.9,1-8.9,5.8-10.2,5.8c-0.7,0-1.2-0.3-1.6-0.4c-2.9-0.9-6.5,0.4-6.5,3.7
			c0,1.6,1.1,3.5,3,3.9c2.5,0.4,4.6-1,5.2-2.7c0.3-0.8-0.1-1.9,0.4-3.1c0.4-0.8,12.1-6.3,16.4-8.1c4.9,1.7,18.5,5.8,20.3,5.8
			C601.4,212.4,590,207.9,585.2,205.7z M557.5,193.6c0.2-1,1-1.9,2.5-2.1c1.9-0.3,3.4,0.7,3.4,2.8
			C563.6,198.8,556.7,197.9,557.5,193.6z M557.1,217.5c0-2.1,1.6-3.1,3.6-3.3c2-0.2,3.1,0.8,3.4,1.9
			C565.2,221.1,557.1,222.5,557.1,217.5z M581.2,207.1c-0.7,0-1.2-0.5-1.2-1.2s0.5-1.2,1.2-1.2s1.2,0.5,1.2,1.2
			C582.5,206.5,581.9,207.1,581.2,207.1z"/>
		<path fill="#0D0D0D" d="M313,213.3c1.8,0.1,15.4-4,20.3-5.8c4.3,1.8,16,7.3,16.4,8.1c0.5,1.2,0.1,2.3,0.4,3.1
			c0.7,1.6,2.7,3.1,5.2,2.7c1.9-0.4,3-2.2,3-3.9c-0.1-3.4-3.6-4.6-6.5-3.7c-0.4,0.1-1,0.4-1.6,0.4c-1.3,0-8.4-4.9-10.2-5.8
			c-0.4-0.9-0.9-1.8-1.3-2.7c0.7-2.8,4-4.3,6.6-5.8c0.8-0.5,5.1-3.1,5.7-3.1c1.2,0,1.8,1,2.7,1.2c1.7,0.3,3.4-0.6,4-1.8
			c0.4-0.7,0.2-1.6,0.6-2.5c0.8-2,4.6-2.4,4.5-5.8c-0.1-0.1-0.3-0.1-0.3,0c-1.3,1.6-1.8,4-4.3,4c-1.3,0-2.3-1.3-3.6-1.3
			c-1.4-0.1-3.2,0.8-3.7,2.5c-0.2,0.6,0.1,1.6-0.1,2.4c-0.4,1-12.3,6.7-17,8.5c-4.9-1.6-18.6-5.9-20.3-5.8
			c0.2,0.9,11.6,5.5,16.4,7.6C324.6,207.9,313.2,212.4,313,213.3z M351.1,194.3c0-2,1.6-3.1,3.4-2.8c1.5,0.2,2.3,1.1,2.5,2.1
			C357.9,197.9,351,198.8,351.1,194.3z M350.4,216.2c0.2-1.1,1.4-2.2,3.4-1.9s3.5,1.2,3.6,3.3C357.5,222.5,349.4,221.1,350.4,216.2z
			 M332.2,205.8c0-0.7,0.5-1.2,1.2-1.2c0.7,0,1.2,0.5,1.2,1.2s-0.5,1.2-1.2,1.2C332.7,207.1,332.2,206.5,332.2,205.8z"/>
	</g>
</g>
<g>
	<circle fill="#333335" cx="726.7" cy="222.8" r="3.8"/>
	<circle fill="#333335" cx="743.2" cy="222.8" r="2.7"/>
	<circle fill="#333335" cx="759.7" cy="222.8" r="1.9"/>
</g>
<g>
	<circle fill="#333335" cx="189.8" cy="222.8" r="3.8"/>
	<circle fill="#333335" cx="173.3" cy="222.8" r="2.7"/>
	<circle fill="#333335" cx="156.8" cy="222.8" r="1.9"/>
</g>
<g>
	<g>
		<rect x="200" y="222" fill="#333335" width="516" height="3"/>
	</g>
	<g>
		<rect x="247" y="262" fill="#333335" width="422" height="3"/>
	</g>
	<g>
		<rect x="293" y="302" fill="#333335" width="330" height="2"/>
	</g>
	<g>
		<rect x="340" y="342" fill="#333335" width="236" height="2"/>
	</g>
	<g>
		<rect x="386" y="382" fill="#333335" width="144" height="3"/>
	</g>
	<g>
		<rect x="431" y="422" fill="#333335" width="54" height="2"/>
	</g>
</g>
<g id="ribbon_2_">
	<polygon fill="#202021" points="352.9,267.6 220.7,267.6 235.4,296.8 220.7,324.1 352.9,324.1 	"/>
	<polygon fill="#202021" points="563.6,267.6 695.8,267.6 681.1,296.8 695.8,324.1 563.6,324.1 	"/>
	<polygon fill="#0D0D0D" points="271.2,238.9 352.7,265.9 352.7,324 271.2,297.2 	"/>
	<polygon fill="#0D0D0D" points="645.3,238.9 563.7,265.9 563.7,324 645.3,297.2 	"/>
	<path fill="#333335" d="M645.4,297.2c0,0-126.3-12.4-187.1-12.4s-187.1,12.4-187.1,12.4v-58.3c0,0,115.2-12.4,187.1-12.4
		s187.1,12.4,187.1,12.4V297.2z"/>
</g>
<g id="must_1_">
	<path fill="#0D0D0D" d="M485.9,359.3c4.4-1.7,8.9,3.3,4.6,6.4c-8,3.5-20-17.3-32.3-6.2c-12.3-11.1-24.2,9.7-32.3,6.2
		c-4.2-3,0.2-8,4.6-6.4c-2.7-4.2-12.2-0.8-9.4,8.2c2.3,7,16.6,13.8,37,0.6c20.4,13.1,34.7,6.4,37-0.6
		C498.1,358.5,488.6,355.1,485.9,359.3z"/>
</g>
<rect x="392.8" y="212.6" fill="#333335" width="130.9" height="18"/>
<g id="text">
	<g id="blvd_63">
		<g>
			<path fill="#871324" d="M362.4,309.7c0-0.2,0.2-0.4,0.4-0.4c4.8,0,9.5,0,14.3,0c7.8,0,11.5,2.6,11.5,7.3c0,3.3-0.9,5-3.8,6.3
				c-0.3,0.1-0.2,0.5,0,0.5c3,1,5.4,3.2,5.4,7c0,6-3.7,8.7-12.7,8.7c-4.9,0-9.7,0-14.6,0c-0.2,0-0.4-0.2-0.4-0.4
				C362.4,329,362.4,319.3,362.4,309.7z"/>
			<path fill="#871324" d="M404.3,309.2c1.4,0,2.5,1,2.5,2.3c0,1.1,0,2.2,0,3.3c0,4.2,0,8.4,0,12.6c0,1.3,1.1,2.3,2.5,2.3
				c0.2,0,0.5,0,0.7,0c1.8,0,3.6,0,5.3,0c1.4,0,2.5,1,2.5,2.3c0,1.5,0,3.1,0,4.6c0,1.3-1.1,2.3-2.5,2.3c-6.2,0-12.4,0-18.6,0
				c-1.4,0-2.5-1-2.5-2.3c0-1.1,0-2.2,0-3.4c0-6.2,0-12.3,0-18.5c0-1.1,0-2.2,0-3.3c0-1.3,1.1-2.3,2.5-2.3
				C399.4,309.2,401.8,309.2,404.3,309.2z"/>
			<path fill="#871324" d="M433.4,319.7c1.6-3.1,3.3-6.2,4.9-9.2c0.4-0.8,1.3-1.3,2.3-1.3c2.3,0,4.5,0,6.8,0c1.8,0,3.1,1.7,2.4,3.2
				c-3.8,8.4-7.7,16.8-11.5,25.2c-0.4,0.9-1.3,1.4-2.4,1.4c-1.8,0-3.5,0-5.3,0c-1,0-1.9-0.5-2.3-1.4c-4.2-8.4-8.4-16.7-12.6-25.1
				c-0.8-1.5,0.5-3.3,2.3-3.3c2.6,0,5.2,0,7.8,0c0.9,0,1.8,0.5,2.3,1.2C429.9,313.5,431.6,316.6,433.4,319.7"/>
			<path fill="#871324" d="M454.4,333.2c0-6.2,0.1-12.3,0.1-18.5c0-1.1,0-2.2,0-3.3c0-1.3,1.2-2.4,2.6-2.4c2.9,0,5.9,0,8.8,0
				c11.4,0,17.9,6.3,17.8,14.4c-0.1,9.7-6.6,15.3-18.2,15.4c-2.9,0-5.8,0-8.6,0c-1.4,0-2.6-1-2.6-2.3
				C454.4,335.5,454.4,334.4,454.4,333.2z"/>
			<path fill="#871324" d="M520.4,318c-1.6-0.8-4-2.2-6.9-2.1c-3.5,0.1-5.7,2.7-6.2,5.8c1.2-1.1,3.7-2.1,6.2-2.2
				c6.1-0.2,11.1,3.7,11,9.5c-0.1,5.7-4.7,10.6-12.4,10.9c-7.7,0.3-13.4-4.8-13.6-13.3c-0.1-5.7,1.5-17,14-17.4
				c3.2-0.1,8.4,1.2,11.2,3.3C522.6,314.3,521.5,316.2,520.4,318z"/>
			<path fill="#871324" d="M527.2,310.1c6.3,0,12.6-0.1,19-0.1c1.7,0,3.3,0,5,0c0,1.9,0,3.8,0,5.7c-2.3,1.7-4.6,3.4-6.9,5.1
				c0,0,7.1,1.1,7,8.7c-0.1,6.3-7.8,9.4-14.2,9.4c-4.5,0-8.6-2.8-10.4-5.3c1.6-1.5,3.2-3,4.9-4.5c1.7,1.6,3,3.3,5.7,3.2
				c2.7,0,4.3-1.2,4.3-3.3c0-2.3-1.5-2.6-3.9-2.6c-1.6,0.2-3.1,0.4-4.7,0.5c0-1.7,0-3.4,0-5.1c2.4-2,4.8-4.1,7.3-6.1
				c-4.3,0-8.6,0.1-12.9,0.1C527.2,313.8,527.2,312,527.2,310.1z"/>
		</g>
		<g>
			<path fill="#B01F2F" d="M364.3,307.8c0-0.2,0.2-0.4,0.4-0.4c4.8,0,9.5,0,14.3,0c7.8,0,11.5,2.6,11.5,7.3c0,3.3-0.9,5-3.8,6.3
				c-0.3,0.1-0.2,0.5,0,0.5c3,1,5.4,3.2,5.4,7c0,6-3.7,8.7-12.7,8.7c-4.9,0-9.7,0-14.6,0c-0.2,0-0.4-0.2-0.4-0.4
				C364.2,327.1,364.2,317.5,364.3,307.8z"/>
			<path fill="#B01F2F" d="M406.2,307.4c1.4,0,2.5,1,2.5,2.3c0,1.1,0,2.2,0,3.3c0,4.2,0,8.4,0,12.6c0,1.3,1.1,2.3,2.5,2.3
				c0.2,0,0.5,0,0.7,0c1.8,0,3.6,0,5.3,0c1.4,0,2.5,1,2.5,2.3c0,1.5,0,3.1,0,4.6c0,1.3-1.1,2.3-2.5,2.3c-6.2,0-12.4,0-18.6,0
				c-1.4,0-2.5-1-2.5-2.3c0-1.1,0-2.2,0-3.4c0-6.2,0-12.3,0-18.5c0-1.1,0-2.2,0-3.3c0-1.3,1.1-2.3,2.5-2.3
				C401.3,307.4,403.7,307.4,406.2,307.4z"/>
			<path fill="#B01F2F" d="M435.3,317.8c1.6-3.1,3.3-6.2,4.9-9.2c0.4-0.8,1.3-1.3,2.3-1.3c2.3,0,4.5,0,6.8,0c1.8,0,3.1,1.7,2.4,3.2
				c-3.8,8.4-7.7,16.8-11.5,25.2c-0.4,0.9-1.3,1.4-2.4,1.4c-1.8,0-3.5,0-5.3,0c-1,0-1.9-0.5-2.3-1.4c-4.2-8.4-8.4-16.7-12.6-25.1
				c-0.8-1.5,0.5-3.3,2.3-3.3c2.6,0,5.2,0,7.8,0c0.9,0,1.8,0.5,2.3,1.2C431.7,311.6,433.5,314.7,435.3,317.8"/>
			<path fill="#B01F2F" d="M456.3,331.4c0-6.2,0.1-12.3,0.1-18.5c0-1.1,0-2.2,0-3.3c0-1.3,1.2-2.4,2.6-2.4c2.9,0,5.9,0,8.8,0
				c11.4,0,17.9,6.3,17.8,14.4c-0.1,9.7-6.6,15.3-18.2,15.4c-2.9,0-5.8,0-8.6,0c-1.4,0-2.6-1-2.6-2.3
				C456.3,333.6,456.3,332.5,456.3,331.4z"/>
			<path fill="#B01F2F" d="M522.3,316.2c-1.6-0.8-4-2.2-6.9-2.1c-3.5,0.1-5.7,2.7-6.2,5.8c1.2-1.1,3.7-2.1,6.2-2.2
				c6.1-0.2,11.1,3.7,11,9.5c-0.1,5.7-4.7,10.6-12.4,10.9c-7.7,0.3-13.4-4.8-13.6-13.3c-0.1-5.7,1.5-17,14-17.4
				c3.2-0.1,8.4,1.2,11.2,3.3C524.5,312.5,523.4,314.3,522.3,316.2z"/>
			<path fill="#B01F2F" d="M529.1,308.2c6.3,0,12.6-0.1,19-0.1c1.7,0,3.3,0,5,0c0,1.9,0,3.8,0,5.7c-2.3,1.7-4.6,3.4-6.9,5.1
				c0,0,7.1,1.1,7,8.7c-0.1,6.3-7.8,9.4-14.2,9.4c-4.5,0-8.6-2.8-10.4-5.3c1.6-1.5,3.2-3,4.9-4.5c1.7,1.6,3,3.3,5.7,3.2
				c2.7,0,4.3-1.2,4.3-3.3c0-2.3-1.5-2.6-3.9-2.6c-1.6,0.2-3.1,0.4-4.7,0.5c0-1.7,0-3.4,0-5.1c2.4-2,4.8-4.1,7.3-6.1
				c-4.3,0-8.6,0.1-12.9,0.1C529.1,312,529.1,310.1,529.1,308.2z"/>
		</g>
	</g>
	<text transform="matrix(1 0 0 1 449.7646 298.5898)" fill="#0D0D0D" font-family="'MyriadPro-Regular'" font-size="18.2011px">to</text>
	<g id="coming_soon">
		<g>
			<path fill="#0D0D0D" d="M325.8,280.3c-1.5,0.9-4.5,2-8.5,2.3c-9.2,0.8-16.6-4.4-17.6-15.1c-0.9-10.2,5.4-17.8,15.5-18.7
				c4.1-0.4,6.7,0.3,7.9,0.8l-0.7,3.5c-1.7-0.6-4-1-6.7-0.8c-7.7,0.7-12.3,6-11.5,14.6c0.7,8,5.8,12.7,13.7,12c2.6-0.2,5.1-1,6.8-2
				L325.8,280.3z"/>
			<path fill="#0D0D0D" d="M356.8,262.4c0.8,11.3-5.6,17.7-14,18.3c-8.6,0.6-15.2-5.7-15.8-15.6c-0.7-10.4,5.3-17.6,14-18.2
				C349.9,246.3,356.2,252.7,356.8,262.4z M331.5,264.7c0.5,7,4.7,13,11.3,12.5c6.7-0.5,10.1-6.9,9.5-14.3
				c-0.4-6.5-4.3-13.1-11.3-12.6C334,250.9,331,257.5,331.5,264.7z"/>
			<path fill="#0D0D0D" d="M390.2,263.2c-0.5-4.6-1-10-1.1-14.1l-0.1,0c-0.9,3.9-2.1,8-3.6,12.6l-5,16.2l-3.2,0.1l-6-15.4
				c-1.8-4.5-3.3-8.7-4.4-12.6l-0.1,0c0.1,4.1,0.1,9.6,0,14.5l-0.2,14.1l-4,0.2l0.8-32.9l5.4-0.2l6.3,15.6c1.5,4,2.8,7.5,3.8,10.9
				l0.1,0c0.7-3.3,1.7-7,2.9-11.2l5.1-16.1l5.4-0.2l3.6,32.7l-4.1,0.2L390.2,263.2z"/>
			<path fill="#0D0D0D" d="M405.4,244.3l1,32.8l-4.2,0.1l-1-32.8L405.4,244.3z"/>
			<path fill="#0D0D0D" d="M413.7,276.8l-0.5-32.8l4.6-0.1l10.8,16.4c2.5,3.8,4.4,7.2,6.1,10.5l0.1,0c-0.5-4.4-0.6-8.4-0.7-13.5
				l-0.2-13.7l4-0.1l0.5,32.8l-4.3,0.1L423.4,260c-2.3-3.6-4.6-7.3-6.3-10.8l-0.1,0.1c0.3,4.1,0.5,8.1,0.6,13.5l0.2,14L413.7,276.8z
				"/>
			<path fill="#0D0D0D" d="M470.5,275c-1.9,0.7-5.6,1.8-10.1,1.8c-5,0-9-1.3-12.2-4.4c-2.8-2.7-4.6-7.1-4.5-12.2
				c0.1-9.8,6.8-16.9,17.8-16.9c3.8,0,6.8,0.8,8.2,1.5l-1,3.5c-1.7-0.8-3.9-1.4-7.2-1.4c-8,0-13.2,4.9-13.2,13.1
				c0,8.3,5,13.2,12.6,13.3c2.8,0,4.7-0.4,5.6-0.9l0-9.8l-6.7,0l0-3.4l10.8,0L470.5,275z"/>
			<path fill="#0D0D0D" d="M486.6,271.6c1.9,1.2,4.6,2.3,7.5,2.3c4.3,0.1,6.9-2.1,7-5.4c0.1-3.1-1.6-4.9-6-6.7
				c-5.3-2-8.5-4.9-8.4-9.5c0.1-5.1,4.5-8.8,10.8-8.6c3.4,0.1,5.8,0.9,7.2,1.8l-1.3,3.4c-1.1-0.6-3.2-1.6-6.2-1.7
				c-4.5-0.1-6.2,2.5-6.3,4.8c-0.1,3.1,1.9,4.6,6.4,6.5c5.5,2.3,8.2,5,8.1,9.8c-0.1,5.1-4,9.3-11.7,9.1c-3.2-0.1-6.6-1.1-8.3-2.3
				L486.6,271.6z"/>
			<path fill="#0D0D0D" d="M539.6,261.8c-0.5,11.3-7.6,17-15.9,16.6c-8.6-0.4-14.4-7.3-14-17.2c0.4-10.4,7.2-16.9,15.9-16.6
				C534.5,245,540,252.1,539.6,261.8z M514.2,261.3c-0.3,7,3.2,13.4,9.9,13.7c6.7,0.3,10.8-5.7,11.1-13.2c0.3-6.5-2.8-13.5-9.9-13.8
				C518.2,247.8,514.5,254.1,514.2,261.3z"/>
			<path fill="#0D0D0D" d="M573.2,263.9c-0.7,11.3-7.9,16.8-16.3,16.3c-8.6-0.5-14.3-7.6-13.7-17.5c0.6-10.4,7.5-16.8,16.3-16.2
				C568.5,247,573.8,254.2,573.2,263.9z M547.8,262.8c-0.4,7,3,13.5,9.6,13.9c6.7,0.4,10.9-5.5,11.3-12.9c0.4-6.5-2.6-13.5-9.6-13.9
				C552.1,249.4,548.2,255.6,547.8,262.8z"/>
			<path fill="#0D0D0D" d="M577.5,281l2.6-32.7l4.6,0.4l9.1,17.4c2.1,4,3.7,7.6,5,11.1l0.1,0c0-4.4,0.2-8.4,0.6-13.5l1.1-13.7l4,0.3
				l-2.6,32.7l-4.3-0.3l-9-17.4c-2-3.8-3.9-7.7-5.2-11.4l-0.1,0c-0.1,4.1-0.3,8.1-0.7,13.5l-1.1,14L577.5,281z"/>
		</g>
		<g>
			<path fill="#FFFFFF" d="M327.1,278.9c-1.5,0.9-4.5,2-8.5,2.3c-9.2,0.8-16.6-4.4-17.6-15.1c-0.9-10.2,5.4-17.8,15.5-18.7
				c4.1-0.4,6.7,0.3,7.9,0.8l-0.7,3.5c-1.7-0.6-4-1-6.7-0.8c-7.7,0.7-12.3,6-11.5,14.6c0.7,8,5.8,12.7,13.7,12c2.6-0.2,5.1-1,6.8-2
				L327.1,278.9z"/>
			<path fill="#FFFFFF" d="M358.1,261c0.8,11.3-5.6,17.7-14,18.3c-8.6,0.6-15.2-5.7-15.8-15.6c-0.7-10.4,5.3-17.6,14-18.2
				C351.2,244.9,357.4,251.3,358.1,261z M332.8,263.3c0.5,7,4.7,13,11.3,12.5c6.7-0.5,10.1-6.9,9.5-14.3
				c-0.4-6.5-4.3-13.1-11.3-12.6C335.3,249.4,332.3,256.1,332.8,263.3z"/>
			<path fill="#FFFFFF" d="M391.5,261.7c-0.5-4.6-1-10-1.1-14.1l-0.1,0c-0.9,3.9-2.1,8-3.6,12.6l-5,16.2l-3.2,0.1l-6-15.4
				c-1.8-4.5-3.3-8.7-4.4-12.6l-0.1,0c0.1,4.1,0.1,9.6,0,14.5l-0.2,14.1l-4,0.2l0.8-32.9l5.4-0.2l6.3,15.6c1.5,4,2.8,7.5,3.8,10.9
				l0.1,0c0.7-3.3,1.7-7,2.9-11.2l5.1-16.1l5.4-0.2l3.6,32.7l-4.1,0.2L391.5,261.7z"/>
			<path fill="#FFFFFF" d="M406.7,242.9l1,32.8l-4.2,0.1l-1-32.8L406.7,242.9z"/>
			<path fill="#FFFFFF" d="M415,275.4l-0.5-32.8l4.6-0.1l10.8,16.4c2.5,3.8,4.4,7.2,6.1,10.5l0.1,0c-0.5-4.4-0.6-8.4-0.7-13.5
				l-0.2-13.7l4-0.1l0.5,32.8l-4.3,0.1l-10.7-16.5c-2.3-3.6-4.6-7.3-6.3-10.8l-0.1,0.1c0.3,4.1,0.5,8.1,0.6,13.5l0.2,14L415,275.4z"
				/>
			<path fill="#FFFFFF" d="M471.7,273.6c-1.9,0.7-5.6,1.8-10.1,1.8c-5,0-9-1.3-12.2-4.4c-2.8-2.7-4.6-7.1-4.5-12.2
				c0.1-9.8,6.8-16.9,17.8-16.9c3.8,0,6.8,0.8,8.2,1.5l-1,3.5c-1.7-0.8-3.9-1.4-7.2-1.4c-8,0-13.2,4.9-13.2,13.1
				c0,8.3,5,13.2,12.6,13.3c2.8,0,4.7-0.4,5.6-0.9l0-9.8l-6.7,0l0-3.4l10.8,0L471.7,273.6z"/>
			<path fill="#FFFFFF" d="M487.9,270.1c1.9,1.2,4.6,2.3,7.5,2.3c4.3,0.1,6.9-2.1,7-5.4c0.1-3.1-1.6-4.9-6-6.7
				c-5.3-2-8.5-4.9-8.4-9.5c0.1-5.1,4.5-8.8,10.8-8.6c3.4,0.1,5.8,0.9,7.2,1.8l-1.3,3.4c-1.1-0.6-3.2-1.6-6.2-1.7
				c-4.5-0.1-6.2,2.5-6.3,4.8c-0.1,3.1,1.9,4.6,6.4,6.5c5.5,2.3,8.2,5,8.1,9.8c-0.1,5.1-4,9.3-11.7,9.1c-3.2-0.1-6.6-1.1-8.3-2.3
				L487.9,270.1z"/>
			<path fill="#FFFFFF" d="M540.8,260.4c-0.5,11.3-7.6,17-15.9,16.6c-8.6-0.4-14.4-7.3-14-17.2c0.4-10.4,7.2-16.9,15.9-16.6
				C535.8,243.6,541.3,250.7,540.8,260.4z M515.4,259.9c-0.3,7,3.2,13.4,9.9,13.7c6.7,0.3,10.8-5.7,11.1-13.2
				c0.3-6.5-2.8-13.5-9.9-13.8C519.5,246.4,515.7,252.7,515.4,259.9z"/>
			<path fill="#FFFFFF" d="M574.5,262.4c-0.7,11.3-7.9,16.8-16.3,16.3c-8.6-0.5-14.3-7.6-13.7-17.5c0.6-10.4,7.5-16.8,16.3-16.2
				C569.7,245.5,575.1,252.7,574.5,262.4z M549.1,261.4c-0.4,7,3,13.5,9.6,13.9c6.7,0.4,10.9-5.5,11.3-12.9
				c0.4-6.5-2.6-13.5-9.6-13.9C553.4,248,549.5,254.2,549.1,261.4z"/>
			<path fill="#FFFFFF" d="M578.8,279.5l2.6-32.7l4.6,0.4l9.1,17.4c2.1,4,3.7,7.6,5,11.1l0.1,0c0-4.4,0.2-8.4,0.6-13.5l1.1-13.7
				l4,0.3l-2.6,32.7l-4.3-0.3l-9-17.4c-2-3.8-3.9-7.7-5.2-11.4l-0.1,0c-0.1,4.1-0.3,8.1-0.7,13.5l-1.1,14L578.8,279.5z"/>
		</g>
	</g>
	<g>
		<path fill="#FFFFFF" d="M401.5,229.8v-12.1h1.7l3.9,6.1c0.9,1.4,1.6,2.7,2.2,3.9l0,0c-0.1-1.6-0.2-3.1-0.2-5v-5.1h1.5v12.1H409
			l-3.9-6.2c-0.8-1.4-1.7-2.7-2.3-4.1l-0.1,0c0.1,1.5,0.1,3,0.1,5v5.2H401.5z"/>
		<path fill="#FFFFFF" d="M419.6,224.2h-4.7v4.4h5.3v1.3h-6.8v-12.1h6.6v1.3h-5v3.8h4.7V224.2z"/>
		<path fill="#FFFFFF" d="M424.3,229.8l-3.1-12.1h1.7l1.4,6.1c0.4,1.5,0.7,3,0.9,4.2h0c0.2-1.2,0.6-2.6,1-4.2l1.6-6.1h1.6l1.5,6.2
			c0.3,1.4,0.7,2.9,0.8,4.2h0c0.3-1.3,0.6-2.7,1-4.2l1.6-6.1h1.6l-3.4,12.1H431l-1.5-6.3c-0.4-1.5-0.6-2.7-0.8-4h0
			c-0.2,1.2-0.5,2.4-0.9,4l-1.7,6.3H424.3z"/>
		<path fill="#FFFFFF" d="M441.4,217.7h1.6v10.8h5.2v1.3h-6.8V217.7z"/>
		<path fill="#FFFFFF" d="M459.5,223.6c0,4.2-2.5,6.4-5.6,6.4c-3.2,0-5.5-2.5-5.5-6.2c0-3.9,2.4-6.4,5.6-6.4
			C457.4,217.5,459.5,220,459.5,223.6z M450.1,223.8c0,2.6,1.4,4.9,3.9,4.9c2.5,0,3.9-2.3,3.9-5c0-2.4-1.3-4.9-3.9-4.9
			C451.4,218.8,450.1,221.2,450.1,223.8z"/>
		<path fill="#FFFFFF" d="M470,229.4c-0.6,0.3-1.7,0.6-3.2,0.6c-3.4,0-6-2.2-6-6.1c0-3.8,2.6-6.4,6.3-6.4c1.5,0,2.5,0.3,2.9,0.5
			l-0.4,1.3c-0.6-0.3-1.4-0.5-2.4-0.5c-2.8,0-4.7,1.8-4.7,5c0,3,1.7,4.9,4.7,4.9c1,0,1.9-0.2,2.6-0.5L470,229.4z"/>
		<path fill="#FFFFFF" d="M474,226l-1.3,3.8h-1.6l4.1-12.1h1.9l4.1,12.1h-1.7l-1.3-3.8H474z M478,224.8l-1.2-3.5
			c-0.3-0.8-0.5-1.5-0.6-2.2h0c-0.2,0.7-0.4,1.5-0.6,2.2l-1.2,3.5H478z"/>
		<path fill="#FFFFFF" d="M484,219h-3.7v-1.3h9v1.3h-3.7v10.8H484V219z"/>
		<path fill="#FFFFFF" d="M492.2,217.7v12.1h-1.6v-12.1H492.2z"/>
		<path fill="#FFFFFF" d="M505.3,223.6c0,4.2-2.5,6.4-5.6,6.4c-3.2,0-5.5-2.5-5.5-6.2c0-3.9,2.4-6.4,5.6-6.4
			C503.2,217.5,505.3,220,505.3,223.6z M495.9,223.8c0,2.6,1.4,4.9,3.9,4.9c2.5,0,3.9-2.3,3.9-5c0-2.4-1.3-4.9-3.9-4.9
			C497.2,218.8,495.9,221.2,495.9,223.8z"/>
		<path fill="#FFFFFF" d="M507.4,229.8v-12.1h1.7l3.9,6.1c0.9,1.4,1.6,2.7,2.2,3.9l0,0c-0.1-1.6-0.2-3.1-0.2-5v-5.1h1.5v12.1h-1.6
			l-3.9-6.2c-0.8-1.4-1.7-2.7-2.3-4.1l-0.1,0c0.1,1.5,0.1,3,0.1,5v5.2H507.4z"/>
	</g>
</g>
</svg>
