<?xml version="1.0" encoding="utf-8"?>
<!-- Generator: Adobe Illustrator 18.1.1, SVG Export Plug-In . SVG Version: 6.00 Build 0)  -->
<!DOCTYPE svg PUBLIC "-//W3C//DTD SVG 1.1//EN" "http://www.w3.org/Graphics/SVG/1.1/DTD/svg11.dtd">
<svg version="1.1" id="Layer_1" xmlns="http://www.w3.org/2000/svg" xmlns:xlink="http://www.w3.org/1999/xlink" x="0px" y="0px"
	 viewBox="0 0 144 144" enable-background="new 0 0 144 144" xml:space="preserve">
<g id="logo_2_">
	<circle fill="#FFFFFF" cx="72" cy="72" r="72"/>
	<circle cx="72" cy="72" r="68.1"/>
	<circle fill="#FFFFFF" cx="72" cy="72" r="48.9"/>
	<circle cx="72" cy="72" r="45.4"/>
	<g>
		<path fill="#FFFFFF" d="M25.5,41.6c0,0.3,0.1,0.6,0.4,0.8c0.1,0.1,0.3,0.2,0.4,0.3l0.2,0.1c0.6,0.4,0.9,1.1,0.9,1.9
			c0,0.8-0.2,1.6-0.6,2.4c-0.4,0.8-1,1.4-1.7,1.9c0.1,0.5,0,0.9-0.1,1.2c-0.2,0.3-0.5,0.6-0.8,0.7c-0.6-0.8-1.4-1.5-2.4-2
			c-1.1-0.6-1.9-0.8-2.6-0.7c-0.3-0.6-1-1.3-2-1.8c-1-0.6-2-0.9-3-1c-0.1-0.4,0-0.7,0.1-1.1c0.2-0.3,0.5-0.6,0.9-0.7
			c0-0.8,0.3-1.6,0.7-2.3c0.5-0.9,1.1-1.5,1.8-2c0.7-0.4,1.4-0.5,2-0.2c0.6,0.3,1.1,0.3,1.4,0.1c0,0.3,0.1,0.6,0.4,0.8
			c0.1,0.1,0.3,0.2,0.4,0.3c0.5,0.3,0.7,0.9,0.6,1.7c0.4-0.3,0.8-0.5,1.2-0.5c0.1,0,0.3,0,0.4,0.1C24.6,41.8,25.1,41.8,25.5,41.6z
			 M19,41.7c-0.2-0.1-0.4-0.1-0.7,0c-0.2,0.1-0.4,0.3-0.6,0.5c-0.2,0.3-0.2,0.6-0.1,0.9c0.1,0.4,0.4,0.7,0.9,1
			c0.5,0.3,0.9,0.4,1.3,0.3c0.3-0.1,0.6-0.3,0.8-0.6c0.1-0.2,0.2-0.5,0.1-0.8c0-0.3-0.2-0.5-0.4-0.6c-0.2-0.1-0.5-0.1-0.9-0.1
			C19.4,42,19.2,41.8,19,41.7z M24.2,46.8c0.4-0.1,0.6-0.3,0.8-0.6c0.1-0.3,0.2-0.5,0.1-0.8c-0.1-0.3-0.2-0.5-0.5-0.6
			c-0.3-0.1-0.6-0.2-1-0.1c-0.1-0.4-0.3-0.6-0.6-0.8c-0.3-0.1-0.5-0.2-0.8-0.1c-0.3,0.1-0.5,0.3-0.6,0.5c-0.2,0.3-0.2,0.7-0.1,1
			c0.2,0.4,0.5,0.8,1.1,1.1C23.3,46.7,23.8,46.8,24.2,46.8z"/>
		<path fill="#FFFFFF" d="M34.4,36.6c-0.2,0.3-0.4,0.3-0.7,0.3c-0.3-0.6-0.6-1-1-1.4c-0.5-0.4-1-0.7-1.6-0.7c-0.6,0-1.1,0.2-1.4,0.6
			c-0.4,0.4-0.5,0.9-0.4,1.5c0.1,0.6,0.4,1.1,0.9,1.5c0.4,0.4,0.9,0.6,1.5,0.8c0.1,0.2,0,0.4-0.2,0.7c-0.2,0.3-0.6,0.5-1.1,0.8
			c0,0.3-0.1,0.6-0.3,0.8c-0.3,0.3-0.7,0.6-1.2,0.7c-0.1-2.1-0.9-3.8-2.3-5c-0.2-0.2-0.5-0.4-0.7-0.5c-0.3-2-1.1-3.4-2.2-4.5
			c-0.4-0.4-0.8-0.6-1.1-0.6c0-0.4,0.1-0.7,0.3-1c0.2-0.3,0.6-0.4,1-0.4c0-0.4,0.1-0.8,0.3-1c0.2-0.3,0.5-0.4,0.9-0.5
			c0.1,0.3,0.3,0.7,0.7,1c1.1,1,2.7,1.5,4.7,1.6c0.1,0.2,0.3,0.4,0.6,0.6c1.4,1.2,3.1,1.7,5.2,1.6c-0.1,0.5-0.3,0.9-0.6,1.2
			c-0.2,0.3-0.5,0.4-0.8,0.4C34.9,35.9,34.6,36.3,34.4,36.6z M26.8,32.9c0.3,0.8,0.7,1.4,1.2,1.9c0.1-0.3,0.2-0.5,0.3-0.6
			c0.1-0.1,0.3-0.2,0.5-0.4C28.3,33.4,27.6,33.1,26.8,32.9z"/>
		<path fill="#FFFFFF" d="M45.1,27.9c-0.7,0.5-1.6,0.7-2.6,0.6c0-0.5-0.1-1-0.3-1.3c-0.3-0.4-0.8-0.7-1.5-1c0-0.3-0.1-0.5-0.2-0.7
			c-0.2-0.3-0.5-0.4-0.8-0.5c-0.4,0-0.7,0-0.9,0.2c-0.3,0.2-0.4,0.5-0.4,0.8c0,0.4,0.1,0.9,0.5,1.4c0.9,1.3,1.8,2.1,2.7,2.2
			c-0.1,0.4-0.3,0.7-0.6,0.9c-0.3,0.2-0.7,0.3-1.2,0.3c-0.1,0.5-0.4,0.8-0.7,1c-0.3,0.2-0.7,0.3-1,0.2c-0.2-1-0.6-1.9-1.2-2.9
			c-0.7-1-1.4-1.6-2-1.8c0-0.7-0.3-1.6-1-2.5c-0.7-1-1.4-1.7-2.3-2.2c0.1-0.4,0.3-0.7,0.6-0.9c0.3-0.2,0.7-0.3,1.2-0.3
			c0.4-0.7,0.9-1.3,1.7-1.8c0.8-0.6,1.7-0.9,2.5-1c0.9-0.1,1.5,0.2,1.9,0.7c0.4,0.5,0.8,0.8,1.2,0.7c-0.1,0.2-0.2,0.6,0,0.9
			c0.1,0.2,0.1,0.3,0.2,0.5c0.3,0.5,0.2,1.1-0.1,1.8c0.5-0.1,0.9-0.1,1.2,0.1c0.1,0.1,0.3,0.2,0.4,0.3c0.3,0.4,0.6,0.6,1,0.5
			c0,0,0.2,0.2,0.5,0.5c0.4,0.4,0.7,0.8,1.1,1c0.5,0.4,1.1,0.6,1.6,0.7C46,27.1,45.5,27.5,45.1,27.9z M37.5,21.6
			c-0.1-0.2-0.3-0.3-0.6-0.3c-0.3,0-0.5,0.1-0.7,0.2c-0.3,0.2-0.5,0.5-0.5,0.8c-0.1,0.4,0.1,0.8,0.4,1.3c0.3,0.5,0.7,0.7,1.1,0.8
			c0.3,0.1,0.6,0,0.9-0.2c0.2-0.2,0.4-0.4,0.5-0.6c0.1-0.3,0-0.5-0.1-0.7c-0.1-0.2-0.4-0.4-0.8-0.4C37.7,22.1,37.7,21.8,37.5,21.6z"
			/>
		<path fill="#FFFFFF" d="M55.3,19c-0.2,0.2-0.3,0.5-0.2,0.9c0,0.2,0.1,0.3,0.1,0.5l0.1,0.2c0.2,0.7,0,1.4-0.5,2
			c-0.5,0.6-1.2,1.1-2,1.5c-0.8,0.3-1.6,0.5-2.5,0.4c-0.2,0.4-0.5,0.7-0.9,0.8c-0.4,0.1-0.7,0.1-1.1,0c0.1-1-0.1-2-0.6-3.1
			c-0.4-1.1-1-1.9-1.6-2.2c0.2-0.7,0-1.6-0.4-2.7c-0.4-1.1-1-2-1.7-2.6c0.2-0.4,0.4-0.6,0.8-0.8c0.3-0.1,0.7-0.1,1.2,0
			c0.5-0.6,1.2-1,2-1.4c0.9-0.4,1.8-0.5,2.7-0.4c0.8,0.1,1.4,0.5,1.7,1.1c0.3,0.6,0.6,0.9,1,1c-0.2,0.2-0.3,0.5-0.2,0.9
			c0,0.2,0.1,0.3,0.1,0.5c0.2,0.6,0,1.1-0.6,1.7c0.5,0,0.9,0.1,1.2,0.3c0.1,0.1,0.2,0.2,0.3,0.3C54.5,18.6,54.9,18.9,55.3,19z
			 M50.3,15c-0.1-0.2-0.3-0.4-0.5-0.5c-0.3-0.1-0.5-0.1-0.8,0c-0.3,0.1-0.5,0.4-0.7,0.7c-0.1,0.4-0.1,0.8,0.1,1.3
			c0.2,0.5,0.5,0.9,0.8,1c0.3,0.1,0.6,0.2,0.9,0c0.3-0.1,0.5-0.3,0.6-0.5c0.1-0.2,0.2-0.5,0.1-0.7c-0.1-0.2-0.3-0.4-0.6-0.6
			C50.3,15.5,50.3,15.2,50.3,15z M51.1,22.2c0.3,0.2,0.7,0.2,1,0.1c0.3-0.1,0.5-0.3,0.6-0.6c0.1-0.3,0.1-0.5,0-0.8
			c-0.1-0.3-0.3-0.5-0.7-0.7c0.1-0.4,0.1-0.7,0-1c-0.1-0.3-0.3-0.5-0.6-0.5c-0.3-0.1-0.5-0.1-0.8,0c-0.3,0.1-0.6,0.4-0.7,0.7
			c-0.1,0.4-0.1,0.9,0.2,1.5C50.4,21.6,50.7,22,51.1,22.2z"/>
		<path fill="#FFFFFF" d="M62.4,15.6c-0.4,0.1-0.7,0.2-0.9,0.5c-0.2,0.3-0.3,0.6-0.2,1.1l0.2,0.9c0.1,0.8,0.6,1.1,1.4,1
			c0.4-0.1,0.8-0.3,1.2-0.5c0.4-0.3,0.6-0.6,0.6-0.9c0.5,0.2,0.8,0.6,0.9,1.2c0,0.3,0,0.5,0,0.8c0.2,0.1,0.4,0.4,0.4,0.9
			c-0.3-0.1-0.6-0.1-1.1,0c-0.3,0-0.5,0.1-0.8,0.2c-0.3,0.1-0.5,0.2-0.8,0.4c-0.3,0.1-0.6,0.2-0.9,0.3c-0.5,0.1-1.1,0-1.7-0.2
			c-0.3,0.4-0.6,0.6-1,0.6c-0.4,0.1-0.7,0-1.1-0.2c0.3-1,0.3-2,0.1-3.2c-0.2-1.2-0.6-2-1.1-2.5c0.3-0.6,0.4-1.6,0.2-2.8
			c-0.2-1.1-0.6-2.1-1.2-2.9c0.2-0.3,0.6-0.5,0.9-0.6c0.4-0.1,0.8,0,1.2,0.2c0.5-0.4,1-0.7,1.5-0.8c0.3,0,0.6-0.1,0.9,0
			C61.5,9,61.8,9,62.1,9c0.3,0,0.6,0,0.8-0.1c0.4-0.1,0.7-0.2,1-0.4c0.1,0.5,0.1,0.9-0.1,1c0.1,0.2,0.2,0.5,0.3,0.8
			c0.1,0.5,0,1-0.4,1.4c-0.2-0.3-0.5-0.5-0.9-0.6c-0.4-0.1-0.9-0.2-1.3-0.1c-0.8,0.1-1.2,0.6-1,1.4l0.2,0.9c0.1,0.4,0.3,0.7,0.5,0.9
			c0.3,0.2,0.6,0.2,1,0.2c0.6-0.1,1.1-0.5,1.5-1c0.1,0.1,0.1,0.3,0.2,0.5c0.1,0.3,0,0.7-0.2,1c0.3,0.2,0.5,0.5,0.5,0.8
			c0,0.2,0,0.3,0,0.5C63.7,15.6,63.1,15.4,62.4,15.6z"/>
		<path fill="#FFFFFF" d="M76.7,20.5c-0.9,0-1.7-0.4-2.4-1.1c0.3-0.4,0.5-0.8,0.5-1.2c0-0.5-0.2-1-0.7-1.7c0.2-0.2,0.2-0.4,0.3-0.7
			c0-0.3-0.1-0.6-0.4-0.9c-0.3-0.2-0.6-0.4-0.9-0.4c-0.3,0-0.6,0.1-0.8,0.4c-0.3,0.3-0.4,0.8-0.4,1.4c-0.1,1.6,0.2,2.7,0.8,3.4
			c-0.3,0.2-0.6,0.4-1,0.4c-0.4,0-0.7-0.2-1.1-0.5c-0.4,0.3-0.8,0.4-1.1,0.4c-0.4,0-0.7-0.2-1-0.4c0.4-0.9,0.7-1.9,0.7-3.1
			c0-1.2-0.1-2.1-0.5-2.7c0.4-0.6,0.7-1.4,0.7-2.6c0-1.2-0.1-2.2-0.5-3.1c0.3-0.3,0.6-0.4,1-0.4c0.4,0,0.8,0.2,1.1,0.5
			c0.7-0.3,1.5-0.5,2.4-0.4c1,0,1.9,0.3,2.6,0.7c0.7,0.5,1.1,1,1.1,1.7c0,0.7,0.2,1.1,0.6,1.3c-0.3,0.1-0.5,0.4-0.6,0.7
			c0,0.2-0.1,0.3-0.1,0.5c-0.1,0.6-0.5,1-1.2,1.3c0.4,0.2,0.7,0.5,0.9,0.8c0.1,0.1,0.1,0.3,0.1,0.5c0,0.5,0.1,0.8,0.6,1
			c0,0,0,0.2,0.1,0.7c0,0.6,0.1,1,0.2,1.5c0.2,0.6,0.5,1.2,0.9,1.6C77.9,20.4,77.3,20.5,76.7,20.5z M74.4,11c0-0.2-0.1-0.4-0.3-0.6
			c-0.2-0.2-0.4-0.3-0.7-0.3c-0.4,0-0.6,0.1-0.9,0.3c-0.3,0.3-0.4,0.7-0.5,1.3c0,0.6,0.1,1,0.4,1.3c0.2,0.3,0.5,0.4,0.9,0.4
			c0.3,0,0.5-0.1,0.7-0.2c0.2-0.2,0.3-0.4,0.3-0.6c0-0.3-0.1-0.5-0.3-0.8C74.3,11.5,74.4,11.3,74.4,11z"/>
		<path fill="#FFFFFF" d="M99.5,18c0-1.2-0.4-2.1-1.2-2.4c-0.4-0.2-0.7-0.2-1.1-0.1c-0.4,0.1-0.6,0.3-0.8,0.7
			c-0.1,0.3-0.2,0.7-0.1,1.1c0.2,0.4,0.5,0.7,0.8,0.9c0.2,0.1,0.4,0.2,0.7,0.2c-0.1,0.3,0,0.7,0.3,1.3c0.1,0.2,0.2,0.4,0.4,0.7
			c0.8,1.1,0.9,2.2,0.4,3.4c-0.4,0.9-1.1,1.5-2,1.8c-1,0.3-2.1,0.2-3.3-0.3c-0.6-0.3-1.2-0.7-1.7-1.1c-0.1-0.1-0.3-0.3-0.5-0.6
			c-0.2-0.2-0.3-0.4-0.5-0.4c-0.3-0.1-0.6-0.1-1-0.1c0-0.1,0.1-0.2,0.1-0.3c0.3-0.6,0.6-0.9,1.1-0.9c0-0.2,0-0.5,0.1-0.7
			c0.2-0.3,0.4-0.7,0.8-1c0.1,0.8,0.3,1.5,0.8,2.1c0.4,0.5,0.9,0.9,1.4,1.2c0.5,0.2,0.9,0.3,1.3,0.2c0.4-0.1,0.7-0.2,0.8-0.6
			c0.2-0.3,0.2-0.8,0-1.3c-0.2-0.4-0.5-0.7-1-1c-0.2-0.1-0.5-0.2-0.7-0.2c0.3-0.7,0.2-1.2-0.2-1.7c-0.7-1.1-0.9-2.1-0.4-3.2
			c0.4-0.8,1.1-1.5,2-1.8c1-0.4,1.9-0.4,2.8,0.1c0.5,0.3,1,0.6,1.4,1.2c0.1,0.1,0.2,0.3,0.3,0.4c0.1,0.1,0.2,0.2,0.4,0.3
			c0.2,0.1,0.4,0.2,0.7,0.3c0,0.1-0.1,0.2-0.1,0.3c-0.2,0.3-0.5,0.6-0.9,0.8C100.4,17.4,100,17.8,99.5,18z"/>
		<path fill="#FFFFFF" d="M109.9,23.2c0.5-0.8,0.7-1.4,0.7-1.9c0.4,0,0.7,0.1,1,0.3c0.3,0.2,0.5,0.5,0.5,1c0.4,0,0.8,0.1,1.1,0.3
			c0.3,0.2,0.5,0.5,0.5,0.9c-0.9,0.5-1.7,1.2-2.4,2.1c-0.7,1-1.1,1.8-1.1,2.5c-0.7,0.2-1.4,0.8-2.1,1.8c-0.7,0.9-1.2,1.9-1.4,2.9
			c-0.4,0-0.8-0.1-1-0.3c-0.3-0.2-0.5-0.5-0.5-1c-0.4,0-0.8,0-1.1-0.3c-0.3-0.2-0.5-0.5-0.5-0.9c0.5-0.1,1-0.4,1.7-1.1
			c0.2-0.2,0.6-0.7,1.2-1.5c0.4-0.5,0.4-0.9,0.2-1.3c-0.1-0.1-0.2-0.2-0.3-0.3c-0.1-0.1-0.2-0.2-0.4-0.2c-0.4-0.1-0.8,0.1-1.2,0.5
			c-0.6,0.8-1,1.4-1.2,1.6c-0.5,0.8-0.7,1.4-0.7,1.9c-0.4,0-0.7-0.1-1-0.3c-0.3-0.2-0.5-0.6-0.6-1c-0.4,0-0.8,0-1.1-0.3
			c-0.3-0.2-0.5-0.5-0.5-0.9c0.9-0.5,1.7-1.2,2.4-2.1c0.7-1,1.1-1.8,1.1-2.5c0.7-0.2,1.4-0.8,2.1-1.8c0.7-0.9,1.2-1.9,1.4-2.9
			c0.4,0,0.7,0.1,1,0.3c0.3,0.2,0.5,0.5,0.5,1c0.4,0,0.8,0.1,1.1,0.3c0.3,0.2,0.5,0.5,0.5,0.9c-0.5,0.1-1,0.4-1.7,1.1
			c-0.2,0.2-0.6,0.7-1.2,1.5c-0.4,0.5-0.4,0.9-0.2,1.3c0.1,0.1,0.2,0.2,0.3,0.3c0.1,0.1,0.2,0.2,0.4,0.2c0.4,0.1,0.9,0,1.2-0.5
			C109.4,24,109.8,23.4,109.9,23.2z"/>
		<path fill="#FFFFFF" d="M112.8,39.5c-0.5-0.2-1.1-0.6-1.6-1.1c-0.4-0.6-0.7-1.2-0.9-1.7c-0.4-1.4,0-2.5,1.2-3.5l1.1-0.9
			c0.5-0.4,0.7-0.9,0.6-1.3c0.3,0.1,0.6,0.1,0.9-0.1c0.1-0.1,0.3-0.2,0.4-0.3l1-0.9c1.1-0.9,2.3-1.1,3.6-0.6
			c0.5,0.2,1.1,0.6,1.6,1.2c0.4,0.6,0.7,1.2,0.9,1.8c0.3,1.4,0,2.5-1.2,3.5l-1,0.9c-0.5,0.4-0.7,0.9-0.6,1.3
			c-0.3-0.1-0.6-0.1-0.9,0.1c-0.1,0.1-0.3,0.2-0.4,0.3l-1.1,0.9C115.2,39.9,114,40.1,112.8,39.5z M115.9,36.2
			c0.5-0.4,0.7-0.9,0.6-1.3c0.3,0.1,0.6,0.1,0.9-0.1c0.1-0.1,0.3-0.2,0.4-0.3l1-0.8c0.3-0.3,0.5-0.6,0.6-1c0-0.4-0.1-0.7-0.3-0.9
			c-0.2-0.3-0.5-0.4-0.9-0.4c-0.4,0-0.7,0.1-1.1,0.4l-1,0.8c-0.5,0.4-0.7,0.9-0.6,1.3c-0.3-0.1-0.6-0.1-0.9,0.1
			c-0.1,0.1-0.3,0.2-0.4,0.3l-1,0.8c-0.4,0.3-0.6,0.6-0.6,1c0,0.4,0.1,0.7,0.3,0.9c0.2,0.3,0.5,0.4,0.9,0.4c0.4,0,0.7-0.1,1.1-0.4
			L115.9,36.2z"/>
		<path fill="#FFFFFF" d="M115.9,44.6c-0.2-0.3-0.2-0.7-0.1-1.1c1,0,2-0.4,3.1-0.9c1.1-0.6,1.8-1.2,2.1-1.8c0.7,0.1,1.6-0.1,2.7-0.7
			c1-0.5,1.8-1.2,2.5-2c0.4,0.1,0.7,0.4,0.8,0.7c0.2,0.3,0.2,0.7,0.1,1.2c0.6,0.5,1.2,1.1,1.6,1.9c0.5,0.9,0.7,1.8,0.7,2.6
			c0,0.9-0.3,1.5-0.9,1.8c-0.6,0.3-0.9,0.7-0.9,1.1c-0.2-0.2-0.6-0.2-0.9-0.1c-0.2,0-0.3,0.1-0.5,0.2c-1,0.5-1.8,0.5-2.3,0
			c-0.5-0.3-1-0.8-1.5-1.7c-0.4-0.7-0.8-1.1-1.3-1.1c-0.2,0-0.5,0.1-1.1,0.4c-1.1,0.6-1.8,1.3-2.1,2.1c-0.4-0.1-0.6-0.4-0.8-0.7
			c-0.2-0.3-0.2-0.7-0.1-1.2C116.4,45.2,116.1,44.9,115.9,44.6z M126.4,44.3c0.2-0.1,0.4-0.3,0.4-0.6c0-0.3,0-0.5-0.1-0.8
			c-0.2-0.3-0.4-0.5-0.7-0.6c-0.4-0.1-0.8,0-1.3,0.2c-0.5,0.3-0.8,0.6-0.9,1c-0.1,0.3-0.1,0.6,0.1,0.9c0.1,0.2,0.3,0.4,0.6,0.5
			c0.2,0.1,0.5,0.1,0.7,0c0.2-0.1,0.4-0.4,0.5-0.7C125.8,44.4,126.1,44.4,126.4,44.3z"/>
	</g>
	<g>
		<path fill="#FFFFFF" d="M25.3,116.8c-0.2-0.2-0.3-0.5-0.2-0.7c0.6-0.2,1.1-0.5,1.5-0.8c0.5-0.5,0.8-1,0.9-1.5
			c0.1-0.6-0.1-1.1-0.5-1.5c-0.4-0.4-0.9-0.6-1.4-0.6c-0.6,0-1.1,0.3-1.6,0.7c-0.4,0.4-0.7,0.8-1,1.4c-0.2,0.1-0.4,0-0.7-0.3
			c-0.2-0.3-0.4-0.7-0.6-1.2c-0.3,0-0.6-0.2-0.8-0.4c-0.3-0.3-0.5-0.7-0.6-1.2c2.1,0.1,3.9-0.5,5.2-1.7c0.2-0.2,0.4-0.4,0.6-0.6
			c2-0.1,3.5-0.7,4.7-1.7c0.4-0.4,0.6-0.7,0.7-1c0.4,0,0.7,0.2,0.9,0.4c0.2,0.3,0.3,0.6,0.3,1c0.4,0,0.8,0.2,1,0.4
			c0.2,0.3,0.4,0.6,0.3,1c-0.3,0-0.7,0.3-1.1,0.6c-1.1,1-1.8,2.5-2.1,4.5c-0.2,0.1-0.4,0.3-0.7,0.5c-1.3,1.2-2.1,2.9-2.2,5
			c-0.5-0.2-0.9-0.4-1.2-0.7c-0.2-0.3-0.3-0.5-0.3-0.8C25.9,117.3,25.5,117,25.3,116.8z M29.8,109.6c-0.8,0.2-1.5,0.5-2,1
			c0.3,0.1,0.4,0.2,0.5,0.3c0.1,0.1,0.2,0.3,0.3,0.6C29.2,111.1,29.6,110.4,29.8,109.6z"/>
		<path fill="#FFFFFF" d="M41,120c0.4-0.3,0.9-0.7,1.4-1.4c0.7-1.1,1-1.9,0.9-2.6c0.4-0.1,0.7,0,1,0.2c0.3,0.2,0.5,0.5,0.6,0.9
			c0.4-0.1,0.8,0,1.1,0.2c0.3,0.2,0.5,0.5,0.5,0.8l-0.5,0.4c-0.7,0.5-1.2,1.1-1.7,1.8c-0.7,1-1,1.9-1,2.7c-0.7,0.2-1.3,0.9-2,1.9
			c-0.7,1-1.1,2-1.2,3c-0.4,0.1-0.7,0-1-0.1c-0.3-0.2-0.5-0.5-0.5-0.9c-0.4,0.1-0.7,0-1-0.1c-0.3-0.2-0.4-0.5-0.5-0.8
			c0.6-0.2,1.1-0.5,1.4-1.1c0.4-0.6,0.6-1.3,0.5-2.1l-0.2-3.1c-0.7,0.4-1.4,1.1-2,2c-0.6,1-1.1,2-1.3,3.2c-0.4,0.1-0.7,0-1-0.2
			c-0.3-0.2-0.5-0.5-0.6-0.9c-0.4,0.1-0.8,0-1.1-0.2c-0.3-0.2-0.5-0.5-0.5-0.8c0.9-0.5,1.6-1.3,2.3-2.3c0.7-1,1-1.9,1-2.6
			c0.7-0.3,1.4-0.9,2.1-1.9c0.5-0.7,0.8-1.5,1-2.3l0.1-0.7c0.4-0.1,0.7,0,1,0.2c0.3,0.2,0.5,0.5,0.6,0.9c0.4-0.1,0.8,0,1.1,0.2
			c0.3,0.2,0.5,0.5,0.5,0.8c-0.3,0.2-0.6,0.4-0.8,0.7c-0.2,0.4-0.3,0.7-0.3,1.2L41,120z"/>
		<path fill="#FFFFFF" d="M55,128c-0.3,0-0.5,0.2-0.8,0.5c-0.1,0.1-0.2,0.3-0.3,0.5l-0.9,2.5c-0.4,0.6-0.9,1-1.7,1.2
			c-0.8,0.1-1.6,0.1-2.5-0.3c-0.8-0.3-1.5-0.8-2.1-1.4c-0.4,0.2-0.8,0.2-1.2,0c-0.4-0.1-0.6-0.4-0.8-0.7c0.7-0.7,1.3-1.6,1.7-2.7
			c0.4-1.1,0.6-2,0.4-2.7c0.6-0.4,1.1-1.1,1.5-2.3c0.4-1.1,0.6-2.1,0.5-3.1c0.4-0.1,0.7-0.2,1.1,0c0.3,0.1,0.6,0.4,0.9,0.8
			c0.8-0.1,1.6,0.1,2.4,0.4c0.9,0.4,1.7,0.9,2.2,1.5c0.5,0.7,0.7,1.3,0.5,1.9l-0.9,2.5C54.7,127.3,54.7,127.7,55,128z M53.1,124.4
			c0.2-0.4,0.2-0.8,0-1.1c-0.1-0.3-0.4-0.5-0.7-0.6c-0.3-0.1-0.6-0.1-0.9-0.1c-0.3,0.1-0.5,0.3-0.6,0.6l-0.6,1.6
			c-0.2,0.6-0.2,1.1,0.1,1.4c-0.3,0-0.5,0.2-0.8,0.5c-0.1,0.1-0.2,0.3-0.3,0.5l-0.7,2c-0.1,0.3-0.1,0.6,0.1,0.9
			c0.2,0.3,0.4,0.5,0.7,0.6c0.3,0.1,0.6,0.1,0.9,0c0.3-0.1,0.5-0.4,0.7-0.8l0.6-1.7c0.2-0.6,0.2-1.1-0.1-1.4c0.3,0,0.5-0.2,0.8-0.5
			c0.1-0.1,0.2-0.3,0.2-0.5L53.1,124.4z"/>
		<path fill="#FFFFFF" d="M75.2,127.7c-0.6-1.1-1.3-1.6-2.1-1.6c-0.4,0-0.7,0.1-1,0.4c-0.3,0.3-0.4,0.6-0.4,0.9c0,0.3,0.1,0.7,0.4,1
			c0.3,0.3,0.7,0.4,1.1,0.4c0.2,0,0.5-0.1,0.7-0.2c0.1,0.3,0.4,0.7,0.8,1c0.2,0.1,0.4,0.3,0.7,0.4c1.2,0.6,1.8,1.6,1.8,2.9
			c0,1-0.3,1.8-1,2.5c-0.8,0.8-1.8,1.2-3.1,1.2c-0.6,0-1.3-0.1-2-0.3c-0.1,0-0.4-0.1-0.7-0.3c-0.3-0.1-0.5-0.2-0.6-0.2
			c-0.3,0-0.6,0.1-0.9,0.4c0-0.1,0-0.2,0-0.3c0-0.6,0.2-1.1,0.6-1.3c-0.1-0.2-0.2-0.4-0.2-0.7c0-0.4,0.1-0.8,0.3-1.2
			c0.4,0.7,0.9,1.2,1.6,1.5c0.6,0.3,1.2,0.5,1.8,0.4c0.5,0,0.9-0.1,1.3-0.4c0.3-0.2,0.5-0.5,0.5-0.9c0-0.4-0.2-0.8-0.6-1.2
			c-0.4-0.3-0.8-0.4-1.3-0.4c-0.3,0-0.5,0-0.7,0.1c-0.1-0.7-0.4-1.2-1-1.4c-1.1-0.6-1.7-1.5-1.7-2.7c0-0.9,0.3-1.8,1-2.5
			c0.7-0.8,1.6-1.2,2.6-1.2c0.6,0,1.2,0.1,1.8,0.4c0.1,0.1,0.3,0.2,0.4,0.2c0.1,0.1,0.3,0.1,0.5,0.1c0.2,0,0.4,0,0.7-0.1
			c0,0.1,0,0.2,0,0.3c0,0.4-0.1,0.8-0.5,1.1C75.7,126.8,75.6,127.3,75.2,127.7z"/>
		<path fill="#FFFFFF" d="M85.3,124.9c-0.3-0.9-0.6-1.5-1-1.7c0.2-0.3,0.5-0.5,0.9-0.6c0.4-0.1,0.7,0,1.1,0.2
			c0.3-0.4,0.6-0.6,0.9-0.7c0.4-0.1,0.7,0,1.1,0.2c-0.2,1-0.2,2.1,0.1,3.2c0.3,1.2,0.7,2,1.3,2.5c-0.3,0.7-0.3,1.6,0,2.8
			c0.3,1.1,0.7,2.1,1.4,2.9c-0.2,0.3-0.5,0.5-0.9,0.6c-0.3,0.1-0.7,0-1.1-0.2c-0.2,0.4-0.5,0.6-0.9,0.7c-0.4,0.1-0.7,0-1-0.2
			c0.2-0.4,0.3-1.1,0.2-2c0-0.2-0.2-0.9-0.4-1.9c-0.1-0.6-0.4-0.9-0.9-1c-0.2,0-0.3,0-0.5,0c-0.1,0-0.3,0.1-0.4,0.2
			c-0.4,0.3-0.5,0.7-0.3,1.3c0.2,1,0.4,1.6,0.5,1.9c0.3,0.9,0.6,1.5,1,1.7c-0.2,0.3-0.5,0.5-0.9,0.6c-0.4,0.1-0.7,0-1.1-0.2
			c-0.2,0.4-0.5,0.6-0.9,0.7c-0.3,0.1-0.7,0-1-0.2c0.2-1,0.2-2.1-0.1-3.2c-0.3-1.2-0.7-2-1.3-2.5c0.3-0.7,0.3-1.6,0-2.8
			c-0.3-1.1-0.7-2.1-1.4-2.9c0.2-0.3,0.5-0.5,0.9-0.6c0.4-0.1,0.7,0,1.1,0.2c0.3-0.4,0.6-0.6,0.9-0.7c0.3-0.1,0.7,0,1,0.2
			c-0.2,0.4-0.3,1.1-0.2,2c0,0.2,0.2,0.9,0.4,1.9c0.1,0.6,0.4,0.9,0.9,1c0.2,0,0.3,0,0.5,0c0.1,0,0.3-0.1,0.4-0.2
			c0.4-0.3,0.5-0.7,0.4-1.3C85.5,125.7,85.4,125.1,85.3,124.9z"/>
		<path fill="#FFFFFF" d="M103.7,128.4c-0.3,0.2-0.5,0.2-0.7,0c0-0.6-0.2-1.2-0.4-1.6c-0.3-0.6-0.7-1-1.3-1.2
			c-0.5-0.2-1.1-0.2-1.6,0.1c-0.5,0.3-0.8,0.7-1,1.2c-0.1,0.6,0,1.1,0.3,1.7c0.3,0.5,0.6,0.9,1.1,1.3c0,0.2-0.1,0.4-0.4,0.6
			c-0.3,0.2-0.7,0.3-1.3,0.3c-0.1,0.3-0.3,0.5-0.6,0.7c-0.4,0.2-0.8,0.3-1.3,0.3c0.6-2,0.5-3.9-0.3-5.5c-0.2-0.3-0.3-0.5-0.5-0.7
			c0.4-1.9,0.2-3.6-0.5-4.9c-0.3-0.5-0.5-0.8-0.8-1c0.1-0.4,0.3-0.6,0.7-0.8c0.3-0.2,0.7-0.2,1.1-0.1c0.1-0.4,0.3-0.7,0.6-0.9
			c0.3-0.2,0.7-0.2,1-0.1c0,0.3,0.1,0.7,0.3,1.2c0.7,1.4,2,2.4,3.8,3.2c0.1,0.2,0.2,0.5,0.3,0.8c0.8,1.6,2.3,2.7,4.3,3.4
			c-0.3,0.4-0.6,0.8-1,1c-0.3,0.2-0.6,0.2-0.9,0.1C104.4,127.9,104,128.2,103.7,128.4z M97.9,122.2c0,0.8,0.1,1.6,0.5,2.2
			c0.2-0.2,0.3-0.4,0.5-0.4c0.1-0.1,0.4-0.1,0.6-0.1C99.1,123.2,98.6,122.7,97.9,122.2z"/>
		<path fill="#FFFFFF" d="M111.7,123.1c-0.3,0.2-0.6,0.4-1,0.4c0-0.4-0.2-0.9-0.6-1.3c-0.6-0.7-1.4-1.3-2.4-1.8
			c-1-0.5-1.7-0.6-2.2-0.5c-0.2-0.3-0.4-0.7-0.7-0.9c-0.5-0.6-1.1-1.1-1.8-1.5c-0.6-0.3-1.4-0.6-2.5-0.8c0.1-0.5,0.3-0.9,0.6-1.1
			c0.3-0.2,0.7-0.3,1.2-0.3c0-0.5,0.2-0.8,0.5-1.1c0.3-0.2,0.6-0.3,0.9-0.3c0.1,0.5,0.3,1,0.7,1.5c0.7,0.8,1.5,1.3,2.5,1.4
			c0.1,0.3,0.2,0.6,0.5,0.9c0.3,0.4,0.6,0.7,1.1,1c0.4,0.3,0.8,0.4,1.1,0.5c0-0.3,0-0.7-0.2-1.2c-0.2-0.5-0.4-0.9-0.7-1.2
			c-0.3-0.3-0.5-0.6-0.8-0.7c0.1-1-0.2-1.9-0.9-2.7c-0.4-0.5-0.8-0.8-1.3-1c0-0.3,0.2-0.5,0.5-0.8c0.3-0.3,0.7-0.4,1.2-0.3
			c0-0.5,0.2-0.8,0.5-1.1c0.3-0.3,0.7-0.4,1.2-0.3c0,1.1,0.1,1.9,0.3,2.6c0.2,0.8,0.6,1.5,1.1,2.1c0.2,0.3,0.5,0.5,0.8,0.8
			c-0.2,0.4-0.2,1.2,0,2.2c0.3,1.1,0.7,2.1,1.2,2.7c0.4,0.4,0.7,0.7,1.2,0.9c-0.1,0.4-0.3,0.7-0.6,0.9c-0.3,0.2-0.6,0.3-0.9,0.3
			C112.1,122.6,112,122.8,111.7,123.1z"/>
		<path fill="#FFFFFF" d="M118.7,108.1c-0.2,0.3-0.3,0.6-0.3,0.9c0,0.4,0.2,0.7,0.6,0.9l0.7,0.5c0.6,0.5,1.2,0.4,1.7-0.2
			c0.3-0.3,0.4-0.7,0.5-1.2c0.1-0.5,0-0.8-0.1-1.1c0.5-0.1,1,0,1.4,0.3c0.2,0.2,0.4,0.4,0.5,0.6c0.2-0.1,0.5,0,0.9,0.4
			c-0.3,0.1-0.6,0.4-0.8,0.7c-0.2,0.2-0.3,0.5-0.4,0.7c-0.1,0.3-0.2,0.5-0.3,0.8c-0.1,0.3-0.3,0.6-0.5,0.8c-0.3,0.4-0.8,0.7-1.4,1
			c0,0.5-0.1,0.9-0.3,1.2c-0.2,0.3-0.5,0.5-0.9,0.5c-0.4-0.9-1.1-1.7-2-2.4c-1-0.8-1.8-1.1-2.5-1.2c-0.2-0.7-0.8-1.4-1.7-2.2
			c-0.9-0.7-1.9-1.2-2.8-1.4c0-0.4,0.1-0.8,0.3-1c0.2-0.3,0.6-0.5,1-0.6c0.1-0.7,0.3-1.2,0.6-1.6c0.2-0.2,0.4-0.4,0.6-0.6
			c0.2-0.2,0.5-0.3,0.7-0.5c0.2-0.2,0.4-0.4,0.6-0.6c0.3-0.3,0.4-0.7,0.5-1c0.5,0.3,0.7,0.6,0.6,0.8c0.3,0.1,0.5,0.2,0.7,0.4
			c0.4,0.3,0.6,0.8,0.6,1.3c-0.3-0.1-0.7-0.1-1.1,0.1c-0.4,0.2-0.8,0.4-1,0.8c-0.5,0.7-0.5,1.2,0.2,1.7l0.7,0.5
			c0.3,0.3,0.7,0.4,1,0.3c0.3-0.1,0.6-0.2,0.9-0.5c0.4-0.5,0.5-1.1,0.5-1.8c0.2,0,0.3,0.1,0.4,0.2c0.3,0.2,0.4,0.5,0.5,0.9
			c0.4,0,0.7,0,1,0.3c0.1,0.1,0.2,0.2,0.3,0.4C119.7,107.3,119.1,107.6,118.7,108.1z"/>
	</g>
	<g>
		<path fill="#FFFFFF" d="M39.5,81.5c-0.5,0-0.9-0.2-1.3-0.6c0.4-1.1,0.5-2.1,0.5-2.9c0-1-0.4-2.2-1.3-3.5c0.2-0.5,0.3-1,0.3-1.4
			c0-0.5-0.2-1.2-0.5-1.9c-0.2-0.4-0.7-1.2-1.4-2.6v7.4c0,2.3,0.4,3.9,1.1,4.9c-0.5,0.4-1,0.6-1.5,0.6c-0.5,0-1-0.2-1.4-0.6
			c-0.4,0.4-0.8,0.6-1.2,0.6c-0.5,0-0.9-0.2-1.4-0.6c0.6-1.4,1-3,1-4.7c0-1.8-0.3-3.2-1-4.1c0.7-0.9,1-2.3,1-4.2
			c0-1.3-0.2-2.6-0.6-3.7l-0.4-0.9c0.7-0.4,1.4-0.6,2.1-0.6c0.6,0,1.2,0.2,1.9,0.5c0.6-0.4,1.3-0.5,2.1-0.5c0.5,0,1,0.1,1.5,0.2
			c0.4,0.1,0.7,0.2,0.8,0.3c-0.4,0.6-0.6,1.5-0.6,2.6c0,1.3,0.2,2.3,0.5,3l1.1,3.3l1.1-3.3c0.3-0.7,0.5-1.7,0.5-3
			c0-1.1-0.2-1.9-0.6-2.6c0.1-0.1,0.3-0.2,0.8-0.3c0.5-0.1,1-0.2,1.5-0.2c0.8,0,1.5,0.2,2.1,0.5c0.7-0.4,1.4-0.5,1.9-0.5
			c0.7,0,1.4,0.2,2.1,0.6l-0.4,0.9c-0.4,1.1-0.6,2.3-0.6,3.7c0,1.9,0.3,3.3,1,4.2c-0.6,0.9-1,2.2-1,4.1c0,1.8,0.3,3.4,1,4.7
			c-0.4,0.4-0.9,0.6-1.4,0.6c-0.4,0-0.8-0.2-1.2-0.6c-0.5,0.4-0.9,0.6-1.4,0.6c-0.5,0-1.1-0.2-1.5-0.6c0.5-0.6,0.8-1.6,1-3
			c0.1-0.6,0.1-1.2,0.1-1.9v-7.4c-0.8,1.3-1.2,2.2-1.4,2.6c-0.3,0.7-0.5,1.4-0.5,1.9c0,0.4,0.1,0.9,0.3,1.4
			c-0.8,1.3-1.3,2.5-1.3,3.5c0,0.8,0.2,1.8,0.6,2.9c-0.4,0.4-0.9,0.6-1.3,0.6c-0.4,0-0.8-0.2-1.2-0.6C40.4,81.4,40,81.5,39.5,81.5z"
			/>
		<path fill="#FFFFFF" d="M59.7,81c-0.7,0.3-1.5,0.5-2.4,0.6c-0.9-0.1-1.7-0.2-2.4-0.5c-1.6-0.7-2.4-2.1-2.4-4v-1.8
			c0-0.8-0.3-1.4-0.8-1.6c0.3-0.2,0.6-0.5,0.7-0.9c0.1-0.2,0.1-0.4,0.1-0.6v-1.7c0-1.8,0.8-3.2,2.4-3.9c0.7-0.3,1.5-0.5,2.4-0.6
			c0.9,0.1,1.7,0.3,2.4,0.6c1.6,0.8,2.4,2.1,2.4,3.9V72c0,0.8,0.3,1.4,0.8,1.6c-0.3,0.2-0.6,0.5-0.7,0.9c-0.1,0.2-0.1,0.4-0.1,0.6
			V77C62.1,78.9,61.3,80.2,59.7,81z M59,75.2c0-0.8-0.3-1.4-0.8-1.6c0.3-0.2,0.6-0.5,0.7-0.9C59,72.5,59,72.3,59,72v-1.6
			c0-0.6-0.2-1-0.5-1.4c-0.3-0.3-0.7-0.5-1.1-0.5c-0.4,0-0.8,0.2-1.1,0.5c-0.3,0.3-0.5,0.8-0.5,1.4V72c0,0.8,0.3,1.4,0.8,1.6
			c-0.3,0.2-0.6,0.5-0.7,0.9c-0.1,0.2-0.1,0.4-0.1,0.6v1.6c0,0.6,0.2,1,0.5,1.4c0.3,0.3,0.7,0.5,1.1,0.5c0.4,0,0.8-0.2,1.1-0.5
			c0.3-0.3,0.5-0.8,0.5-1.4V75.2z"/>
		<path fill="#FFFFFF" d="M72.2,81c-0.7,0.3-1.5,0.5-2.4,0.6c-0.9-0.1-1.7-0.2-2.4-0.5c-1.6-0.7-2.4-2.1-2.4-4v-1.8
			c0-0.8-0.3-1.4-0.8-1.6c0.3-0.2,0.6-0.5,0.7-0.9c0.1-0.2,0.1-0.4,0.1-0.6v-1.7c0-1.8,0.8-3.2,2.4-3.9c0.7-0.3,1.5-0.5,2.4-0.6
			c0.9,0.1,1.7,0.3,2.4,0.6c1.6,0.8,2.4,2.1,2.4,3.9V72c0,0.8,0.3,1.4,0.8,1.6c-0.3,0.2-0.6,0.5-0.7,0.9c-0.1,0.2-0.1,0.4-0.1,0.6
			V77C74.5,78.9,73.7,80.2,72.2,81z M71.4,75.2c0-0.8-0.3-1.4-0.8-1.6c0.3-0.2,0.6-0.5,0.7-0.9c0.1-0.2,0.1-0.4,0.1-0.6v-1.6
			c0-0.6-0.2-1-0.5-1.4c-0.3-0.3-0.7-0.5-1.1-0.5c-0.4,0-0.8,0.2-1.1,0.5c-0.3,0.3-0.5,0.8-0.5,1.4V72c0,0.8,0.3,1.4,0.8,1.6
			c-0.3,0.2-0.6,0.5-0.7,0.9c-0.1,0.2-0.1,0.4-0.1,0.6v1.6c0,0.6,0.2,1,0.5,1.4c0.3,0.3,0.7,0.5,1.1,0.5c0.4,0,0.8-0.2,1.1-0.5
			c0.3-0.3,0.5-0.8,0.5-1.4V75.2z"/>
		<path fill="#FFFFFF" d="M83.9,70.3c-0.7-1.4-1.6-2.1-2.7-2.1c-0.5,0-0.9,0.2-1.3,0.5c-0.3,0.3-0.5,0.7-0.5,1.2
			c0,0.4,0.2,0.8,0.5,1.2c0.4,0.4,0.9,0.6,1.4,0.6c0.3,0,0.6-0.1,0.8-0.2c0.1,0.4,0.4,0.8,1,1.3c0.2,0.2,0.5,0.4,0.8,0.6
			c1.5,0.8,2.2,2.1,2.2,3.7c0,1.2-0.4,2.3-1.3,3.1c-1,0.9-2.3,1.4-3.9,1.4c-0.8,0-1.7-0.1-2.6-0.4c-0.2-0.1-0.5-0.2-0.9-0.4
			c-0.3-0.2-0.6-0.2-0.8-0.2c-0.4,0-0.8,0.2-1.2,0.5c0-0.1,0-0.3,0-0.4c0-0.8,0.3-1.3,0.8-1.7c-0.2-0.2-0.3-0.5-0.3-0.9
			c0-0.5,0.1-1,0.4-1.5c0.5,0.9,1.1,1.5,2,2c0.7,0.4,1.5,0.6,2.3,0.6c0.6,0,1.2-0.1,1.6-0.4c0.4-0.3,0.6-0.6,0.6-1.1
			c0-0.5-0.2-1-0.7-1.5c-0.4-0.4-1-0.6-1.7-0.6c-0.3,0-0.7,0-0.9,0.1c-0.1-0.9-0.5-1.5-1.2-1.8c-1.4-0.8-2.1-2-2.1-3.5
			c0-1.2,0.4-2.2,1.3-3.1c0.9-1,2-1.4,3.3-1.4c0.7,0,1.5,0.2,2.2,0.6c0.2,0.1,0.3,0.2,0.5,0.3c0.2,0.1,0.3,0.1,0.6,0.1
			c0.2,0,0.5,0,0.9-0.1c0,0.1,0,0.2,0,0.4c0,0.5-0.2,1-0.6,1.4C84.6,69.2,84.4,69.8,83.9,70.3z"/>
		<path fill="#FFFFFF" d="M93.3,74.5c-0.5,0-0.9,0.1-1.2,0.4c-0.3,0.3-0.5,0.7-0.5,1.3v1.1c0,1,0.5,1.5,1.6,1.5
			c0.5,0,1.1-0.1,1.6-0.4c0.5-0.3,0.8-0.6,1-1c0.6,0.4,0.8,1,0.8,1.7c0,0.4-0.1,0.7-0.2,1c0.3,0.1,0.4,0.5,0.3,1.2
			c-0.3-0.2-0.8-0.3-1.3-0.3c-0.4,0-0.7,0-1,0.1c-0.3,0.1-0.7,0.2-1,0.3c-0.4,0.1-0.8,0.2-1.1,0.2c-0.7,0-1.4-0.2-2.1-0.6
			c-0.5,0.4-0.9,0.6-1.4,0.6c-0.5,0-0.9-0.2-1.3-0.5c0.5-1.1,0.8-2.4,0.8-3.9c0-1.5-0.3-2.7-0.8-3.4c0.5-0.7,0.8-1.8,0.8-3.4
			c0-1.5-0.3-2.8-0.8-3.9c0.4-0.3,0.8-0.5,1.3-0.5c0.5,0,1,0.2,1.4,0.6c0.7-0.4,1.4-0.6,2.1-0.6c0.3,0,0.7,0.1,1.1,0.2
			c0.3,0.1,0.7,0.2,1,0.3c0.3,0.1,0.7,0.1,1,0.1c0.5,0,1-0.1,1.3-0.3c0.1,0.7,0,1.1-0.3,1.2c0.1,0.3,0.2,0.7,0.2,1
			c0,0.7-0.3,1.2-0.8,1.7c-0.1-0.4-0.5-0.7-1-1c-0.5-0.3-1-0.4-1.6-0.4c-1,0-1.6,0.5-1.6,1.5v1.1c0,0.5,0.2,1,0.5,1.2
			c0.3,0.3,0.7,0.4,1.2,0.4c0.8,0,1.5-0.3,2.1-1c0.1,0.2,0.1,0.4,0.1,0.6c0,0.4-0.2,0.8-0.5,1.1c0.3,0.3,0.5,0.7,0.5,1.1
			c0,0.2,0,0.4-0.1,0.6C94.8,74.8,94.1,74.5,93.3,74.5z"/>
		<path fill="#FFFFFF" d="M110.5,70.3c-0.7-1.4-1.6-2.1-2.7-2.1c-0.5,0-0.9,0.2-1.3,0.5c-0.3,0.3-0.5,0.7-0.5,1.2
			c0,0.4,0.2,0.8,0.5,1.2c0.4,0.4,0.9,0.6,1.4,0.6c0.3,0,0.6-0.1,0.8-0.2c0.1,0.4,0.4,0.8,1,1.3c0.2,0.2,0.5,0.4,0.8,0.6
			c1.5,0.8,2.2,2.1,2.2,3.7c0,1.2-0.4,2.3-1.3,3.1c-1,0.9-2.3,1.4-3.9,1.4c-0.8,0-1.7-0.1-2.6-0.4c-0.2-0.1-0.5-0.2-0.9-0.4
			c-0.3-0.2-0.6-0.2-0.8-0.2c-0.4,0-0.8,0.2-1.2,0.5c0-0.1,0-0.3,0-0.4c0-0.8,0.3-1.3,0.8-1.7c-0.2-0.2-0.3-0.5-0.3-0.9
			c0-0.5,0.1-1,0.4-1.5c0.5,0.9,1.1,1.5,2,2c0.7,0.4,1.5,0.6,2.3,0.6c0.6,0,1.2-0.1,1.6-0.4c0.4-0.3,0.6-0.6,0.6-1.1
			c0-0.5-0.2-1-0.7-1.5c-0.4-0.4-1-0.6-1.7-0.6c-0.3,0-0.7,0-0.9,0.1c-0.1-0.9-0.5-1.5-1.2-1.8c-1.4-0.8-2.1-2-2.1-3.5
			c0-1.2,0.4-2.2,1.3-3.1c0.9-1,2-1.4,3.3-1.4c0.7,0,1.5,0.2,2.2,0.6c0.2,0.1,0.3,0.2,0.5,0.3c0.2,0.1,0.3,0.1,0.6,0.1
			c0.2,0,0.5,0,0.9-0.1c0,0.1,0,0.2,0,0.4c0,0.5-0.2,1-0.6,1.4C111.2,69.2,111,69.8,110.5,70.3z"/>
	</g>
	<g>
		<path fill-rule="evenodd" clip-rule="evenodd" fill="#FFFFFF" d="M59.8,29.5c0.1,0,0.1,0,0.2,0c0.6,0.2-0.2,1.5,0.6,1.5
			c0.5,0.1,0.8,0,1,0c0.7,0,0.6-0.8,0.9-1.1c0.4-0.1,0.2,0.5,0.4,0.6c0.5,0,0.2-0.8,0.7-0.9c0.3,0.2,0.1,0.9,0.4,1.1
			c0.8,0.1,0.7-0.7,1.3-0.9c0.1,0.1,0.1,0.4,0.3,0.4c0.5,0.1,0.6-0.2,0.9-0.2c0,0.4-0.1,0.3,0,0.6c0.4,0.1,0.5-0.4,0.8-0.1
			c-0.2,0.9-0.5,1.4-1.2,1.9c-0.9,0.6-2.3,0.7-2.4,1.5c-0.1,0.7,0.9,1.2,0.8,2.2c0.6,0.4,2,0.4,2.2-0.3c-0.3-1.1-1.2-1.6-1.3-2.9
			c1,0.3,0.8,1.8,2.1,1.7c0.8-0.7-0.5-2.3,0.5-2.7c0.3,0.1,0.1,0.3,0.1,0.5c0.1,1.1,0.8,2.6,1.8,2.4c0.7-0.1,0.5-1,0.9-1.6
			c0.8,0.1,0.2,1,0.3,1.5c1.5-0.3,1.2-2.6,1.7-3.9c0.7,0,0.3,1.2,0.5,1.6c1.5,0.2,0.8-1.9,2.1-2c0.3,0.3-0.3,0.7,0,1
			c0.8,0.1,0.6-0.9,1.2-0.9c0.1,0.1,0,0.2,0.1,0.4c0.2,0.3,0.3-0.3,0.7,0.1c0.1-0.2,0.2-0.4,0.4-0.3c0,0.9-0.5,1.9-0.9,2.5
			c-1.2,1.5-4.2,2.9-6.7,3.2c-0.3,0-0.6,0.4-0.9,0.5c-0.7,0.3-1.5,0.2-2.1,0.3c0.1,0.3,0.5,0.8,1,1.1c0.9,0.5,2.4,0.4,3.6,0.9
			c0.8,0.3,1.5,0.8,2.2,0.9c1.7,0.3,3.7-0.5,5.3-0.3c2,0.3,3.2,2.2,3.7,4c0.1,0.4-0.4,0.2-0.4,0.3c-0.1,1.3-0.7,2-0.3,3.2
			c0.2,0.9,1.1,1.6,1.1,2.4c0,0.4-0.3,0.9-0.3,1.4c-0.2,1.6,0.1,3.3,0,5.3c-0.4,0.3-0.6,0.8-0.8,1.4c-0.6,0.1-1.2,0.2-1.8,0
			c0.2-0.4,0.4-0.7,0.7-0.9c1.3-2.7,0.9-7.6-1.1-9.1c-0.2,1.4,0.8,1.2-0.1,3.7c-0.6,2.3-2,3.8-2.6,6.2c-0.4,0.1-0.3,0.6-0.6,0.9
			c-0.5,0.1-1.1,0.3-1.6,0.1c0-0.5,0.5-0.9,0.8-1.3c0.7-1,1.2-2.1,1.7-3.4c0.5-1.6,1.2-4.4-0.2-5.9c-1.4-1.4-2.8,1.6-5.9,0
			c-0.9,2.3-0.3,6,0.1,8.4c-0.2,0.5-0.8,0.6-0.8,1.3c-0.4,0.1-1.2,0.3-1.5,0c0.1-0.5,0.6-0.7,0.8-1.2c0.6-1.6,0-3.9-0.3-5.5
			c-0.8,1.5-0.6,3.9-0.7,6c-0.4,0.3-0.9,0.6-1,1.2c-0.5,0-1.3,0.3-1.7-0.1c0.3-0.6,0.7-0.6,1-1.1c1.2-1.9,0.4-4.7,0.3-7
			c-0.1-0.6,0.1-1.3,0-1.9c-0.3-1.6-2.1-2.8-2.5-4.3c-0.4,0.3-0.5,0.6-1,0.8c-1.7-0.5-0.7-3.4-1.7-4.7c-0.6,0-0.1,0.1-0.5,0.1
			c-1.3-0.2-1.6-2.4-0.5-3.2c0.7,0.1,1,0.5,1.7,0.3c-0.3-0.6-1.3-0.6-2.2-0.6c-1-1.5-3.4-2.1-3.4-4.3c0.7,0.2,0.5,1.1,1.2,1.3
			c0.3-0.9-0.9-2-0.1-2.9c0.4,0.4,0.3,1.2,0.6,1.7C59.9,32,59.5,30.4,59.8,29.5z"/>
	</g>
	<g>
		<path fill-rule="evenodd" clip-rule="evenodd" fill="#FFFFFF" d="M21.1,70.6c-0.1,0.3-3.6,1.7-5.1,2.4c1.5,0.7,5,2.1,5.1,2.4
			c-0.6,0-4.8-1.3-6.3-1.8c-1.3,0.6-5,2.2-5.1,2.5c-0.2,0.4,0,0.7-0.1,1c-0.2,0.5-0.8,1-1.6,0.8C7.4,77.7,7,77.1,7,76.6
			c0-1,1.1-1.4,2-1.2c0.1,0,0.3,0.1,0.5,0.1c0.4,0,2.6-1.5,3.2-1.8c0.1-0.3,0.3-0.6,0.4-0.8c-0.2-0.9-1.3-1.3-2-1.8
			c-0.3-0.2-1.6-1-1.8-1c-0.4,0-0.6,0.3-0.8,0.4C8,70.6,7.5,70.3,7.3,70c-0.1-0.2-0.1-0.5-0.2-0.8c-0.3-0.6-1.4-0.7-1.4-1.8
			c0,0,0.1-0.1,0.1,0c0.4,0.5,0.6,1.3,1.3,1.2c0.4,0,0.7-0.4,1.1-0.4c0.5,0,1,0.3,1.2,0.8c0.1,0.2,0,0.5,0,0.7
			c0.1,0.3,3.8,2.1,5.3,2.6C16.3,71.9,20.5,70.6,21.1,70.6z M7.4,69.2c-0.3,1.3,1.9,1.6,1.9,0.2c0-0.6-0.5-1-1.1-0.9
			C7.7,68.6,7.5,68.9,7.4,69.2z M14.5,72.8c0-0.2,0.4-0.1,0.3-0.2C14.6,72.5,14.4,72.9,14.5,72.8z M14.7,73.2
			c-0.2-0.1,0.2-0.4,0.4-0.5c0,0-0.1,0,0,0c0,0-0.1,0-0.1,0c-0.1,0.2-0.3,0.3-0.5,0.5C14.5,73.2,14.7,73.4,14.7,73.2z M15.1,73
			C15.1,72.9,15.1,72.8,15.1,73C15,73,15.1,73.1,15.1,73z M14.9,73.3c0-0.1,0.2-0.2,0.1-0.1C15,73.2,14.7,73.3,14.9,73.3z M7.3,76.6
			c0,1.6,2.5,1.1,2.2-0.4c-0.1-0.4-0.4-0.7-1.1-0.6C7.8,75.7,7.3,75.9,7.3,76.6z"/>
	</g>
	<g>
		<path fill-rule="evenodd" clip-rule="evenodd" fill="#FFFFFF" d="M123.6,70.6c0.1,0.3,3.4,1.7,4.8,2.4c-1.4,0.7-4.8,2.1-4.8,2.4
			c0.5,0,4.5-1.3,5.9-1.8c1.3,0.6,4.7,2.2,4.8,2.5c0.2,0.4,0,0.7,0.1,1c0.2,0.5,0.8,1,1.5,0.8c0.5-0.1,0.9-0.7,0.9-1.2
			c0-1-1.1-1.4-1.9-1.2c-0.1,0-0.3,0.1-0.5,0.1c-0.4,0-2.5-1.5-3-1.8c-0.1-0.3-0.3-0.6-0.4-0.8c0.2-0.9,1.2-1.3,1.9-1.8
			c0.2-0.2,1.5-1,1.7-1c0.4,0,0.5,0.3,0.8,0.4c0.5,0.1,1-0.2,1.2-0.6c0.1-0.2,0.1-0.5,0.2-0.8c0.2-0.6,1.4-0.7,1.3-1.8
			c0,0-0.1-0.1-0.1,0c-0.4,0.5-0.5,1.3-1.3,1.2c-0.4,0-0.7-0.4-1.1-0.4c-0.4,0-0.9,0.3-1.1,0.8c-0.1,0.2,0,0.5,0,0.7
			c-0.1,0.3-3.6,2.1-5,2.6C128.1,71.9,124.1,70.6,123.6,70.6z M136.5,69.2c0.3,1.3-1.8,1.6-1.8,0.2c0-0.6,0.5-1,1-0.9
			C136.2,68.6,136.4,68.9,136.5,69.2z M129.8,72.8c0-0.2-0.4-0.1-0.3-0.2C129.7,72.5,129.9,72.9,129.8,72.8z M129.6,73.2
			c0.2-0.1-0.2-0.4-0.4-0.5c0,0,0.1,0,0,0c0,0,0.1,0,0.1,0c0.1,0.2,0.3,0.3,0.4,0.5C129.8,73.2,129.6,73.4,129.6,73.2z M129.2,73
			C129.2,72.9,129.3,72.8,129.2,73C129.3,73,129.3,73.1,129.2,73z M129.4,73.3c0-0.1-0.2-0.2-0.1-0.1
			C129.4,73.2,129.6,73.3,129.4,73.3z M136.6,76.6c0,1.6-2.4,1.1-2.1-0.4c0.1-0.4,0.4-0.7,1-0.6C136.2,75.7,136.6,75.9,136.6,76.6z"
			/>
	</g>
	<rect x="26.5" y="57.3" fill-rule="evenodd" clip-rule="evenodd" fill="#FFFFFF" width="90.7" height="3.6"/>
	<polygon fill-rule="evenodd" clip-rule="evenodd" points="105.3,63 96.6,63 94.4,56.5 107.4,56.5 	"/>
	<rect x="26.5" y="83.4" fill-rule="evenodd" clip-rule="evenodd" fill="#FFFFFF" width="90.7" height="3.6"/>
	<g>
		<path d="M62.4,90.5l-18.3,13.9c0,0,0,0,0,0l18.3-13.9C62.4,90.5,62.4,90.5,62.4,90.5z"/>
		<path d="M88.6,93.3l-12.4,9.4c0,0,0,0,0,0L88.6,93.3C88.6,93.3,88.6,93.3,88.6,93.3z"/>
		<path fill="#FFFFFF" d="M54.7,94.4c-1.3,0.7-2.8,1.6-4.5,2.5c-1.6,0.8-3.8,2-5.4,1.3c-0.4-0.2-0.7-0.6-0.9-1l-3.5,2.7
			c0.7,2,2.2,3.5,3.9,4.5l18.3-13.9C59.8,91.3,57.1,93,54.7,94.4z"/>
		<path fill="#9C0001" d="M45,91.2c-3,0-5,3.1-5.1,5.7c0,1,0.1,2,0.4,2.8c0,0,0,0.1,0,0.1l3.5-2.7c0,0,0-0.1,0-0.1
			c-0.6-1.6,0.1-4.2,1.7-4.7c0.9-0.3,1.5-0.1,2.8,0.3C47.8,91.5,46.1,91.2,45,91.2z"/>
		<path fill="#FFFFFF" d="M78.7,90.2c-2.9,0.1-4.4,1.3-6.7,2.5c-0.4-0.3-0.8-0.6-1.2-0.8l-19.2,14.5c4.1,0.2,8.3-0.5,12-1.7
			l18.7-14.2C81.2,90.2,80,90.1,78.7,90.2z"/>
		<path fill="#0A4569" d="M70.7,91.8c-1.8-1-3.9-1.8-6.4-1.6c-0.6,0-1.2,0.2-1.7,0.3l-18.3,13.9c0.8,0.5,1.7,0.9,2.7,1.1
			c1.5,0.5,3,0.7,4.6,0.8c0.1,0,0.1,0,0.2,0l19.2-14.5C70.7,91.8,70.7,91.8,70.7,91.8z"/>
		<path fill="#9C0001" d="M82.4,90.5c0,0-0.1,0-0.1,0l-18.7,14.2c0.1,0,0.2-0.1,0.3-0.1c1.6-0.5,3-1.2,4.3-1.8
			c1.5-0.8,2.8-1.8,4.1-2.6c1.2,0.9,2.5,1.8,4,2.6l12.4-9.4C86.7,92.1,84.7,91,82.4,90.5z"/>
		<path fill="#FFFFFF" d="M94,96.8c-0.3-0.2-0.6-0.3-0.9-0.5c-1.5-0.9-3-2-4.5-3l-12.4,9.4c2,1.1,4.2,1.9,6.6,2.6L94,96.8z"/>
		<path fill="#FFFFFF" d="M100.5,90.7c-2.4-0.5-4,0.8-4.4,2.2c1.1-1.1,2.5-1.1,3.6-0.4l1.8-1.4C101.2,91,100.8,90.8,100.5,90.7z"/>
		<path fill="#FFFFFF" d="M93.9,106.3c3.1-0.2,6.6-1.5,8.5-3.2c1.5-1.4,2.8-4.2,2.5-6.9l-13.4,10.2
			C92.3,106.4,93.1,106.3,93.9,106.3z"/>
		<path fill="#0A4569" d="M104.9,96.1c0-0.1,0-0.3-0.1-0.4c-0.3-1.7-1.7-3.7-3.3-4.6c0,0,0,0,0,0l-1.8,1.4c0,0,0,0,0,0
			c1.2,0.8,1.9,2.4,1.3,4.2c-1.8,2.3-4.7,1.4-7,0.1c0,0,0,0,0,0l-11.2,8.5c0,0,0,0,0.1,0c2.6,0.7,5.5,1.1,8.6,1c0,0,0,0,0.1,0
			L104.9,96.1C104.9,96.2,104.9,96.2,104.9,96.1z"/>
	</g>
	<g id="lmXyGe_110_">
		<g>
			<path fill-rule="evenodd" clip-rule="evenodd" fill="#FFFFFF" d="M102.8,56.1c-0.1,0.3,0,0.6-0.2,0.8c-0.4,0.2-0.6-0.1-0.9,0
				c-0.4,1-1.4,1.5-1.9,2.4c0.3-0.1-0.1,0.5-0.1,0.1c0.1,0,0.1-0.1,0-0.1c-0.3,0.3,0.1,0.5-0.4,0.3c0,0.3,0,0.6-0.2,0.3
				c-0.3,0.2,0,0.2-0.1,0.5c-0.7,0.5-1.2,1.5-1.8,1.7c0.5-0.6,1.5-1.3,1.7-1.9c-0.5,0.8-1.8,1.6-2.3,2.2c-0.2,0.2,0.2,0.3-0.3,0.4
				c0,0,0,0.1,0,0.1c0.3,0.2,0.3,0.7,0.7,0.7c1.3-1.2,2.5-2.4,3.6-3.8c0-0.3-0.2-0.2-0.2-0.5c0.4-0.3,0.6-0.7,1.2-0.8
				c0.9,2.8-0.5,5.2,0,7.6c0.1,0.3,0.1,0.8,0.5,1c0,0,0.1,0,0.1,0c1.7-1.6,1.1-6.7,0.4-9.7c0.4-0.3,0.5-0.7,0.7-1.1
				c0-0.2,0-0.4-0.2-0.4C103,56,102.9,56,102.8,56.1z M97.1,62.2C96.6,62.8,96.8,62.1,97.1,62.2L97.1,62.2z M96.9,63.3
				c1-1.3,2-2.6,3.4-3.6C99.5,61,98,62.5,96.9,63.3z"/>
		</g>
	</g>
</g>
</svg>
