<?xml version="1.0" encoding="utf-8"?>
<!-- Generator: Adobe Illustrator 18.1.1, SVG Export Plug-In . SVG Version: 6.00 Build 0)  -->
<!DOCTYPE svg PUBLIC "-//W3C//DTD SVG 1.1//EN" "http://www.w3.org/Graphics/SVG/1.1/DTD/svg11.dtd">
<svg version="1.1" xmlns="http://www.w3.org/2000/svg" xmlns:xlink="http://www.w3.org/1999/xlink" x="0px" y="0px"
	 viewBox="0 0 500 1000" enable-background="new 0 0 500 1000" xml:space="preserve">
<g id="Layer_2" display="none">
	<g display="inline">
		<rect x="124.9" y="250" fill="#C9C9C9" width="125" height="250"/>
		<rect x="124.9" y="500" fill="#D6D4D4" width="125" height="250"/>
		<rect x="250.1" y="250" fill="#D6D4D4" width="125" height="250"/>
		<rect x="250.1" y="500" fill="#C9C9C9" width="125" height="250"/>
	</g>
</g>
<g id="Layer_1">
	<g>
		<circle cx="388.7" cy="502.2" r="3.2"/>
		<circle cx="408.2" cy="502.2" r="2.5"/>
		<circle cx="423.6" cy="502.2" r="1.3"/>
	</g>
	<g>
		<circle cx="111.3" cy="502.4" r="3.2"/>
		<circle cx="91.7" cy="502.4" r="2.5"/>
		<circle cx="76.4" cy="502.4" r="1.3"/>
	</g>
	<g>
		<line fill="none" stroke="#000000" stroke-width="4.2463" stroke-miterlimit="10" x1="124.6" y1="502.5" x2="375.4" y2="502.5"/>
		<line fill="none" stroke="#000000" stroke-width="3.6094" stroke-miterlimit="10" x1="147.9" y1="551.8" x2="352.1" y2="551.8"/>
		<line fill="none" stroke="#000000" stroke-width="2.9724" stroke-miterlimit="10" x1="171.1" y1="601.1" x2="328.9" y2="601.1"/>
		<line fill="none" stroke="#000000" stroke-width="2.3355" stroke-miterlimit="10" x1="194.4" y1="650.4" x2="305.6" y2="650.4"/>
		<line fill="none" stroke="#000000" stroke-width="1.6985" stroke-miterlimit="10" x1="217.6" y1="699.7" x2="282.4" y2="699.7"/>
		<line fill="none" stroke="#000000" stroke-width="1.0616" stroke-miterlimit="10" x1="240.9" y1="749" x2="259.1" y2="749"/>
	</g>
	<g id="must">
		<path fill="#0D0D0D" d="M276,630.4c4.1-1.6,8.4,3.1,4.4,6c-7.6,3.3-18.8-16.3-30.4-5.9c-11.5-10.5-22.8,9.1-30.4,5.9
			c-4-2.9,0.2-7.6,4.4-6c-2.6-4-11.5-0.7-8.8,7.7c2.2,6.6,15.6,13,34.8,0.6c19.2,12.3,32.7,6,34.8-0.6
			C287.5,629.7,278.6,626.4,276,630.4z"/>
	</g>
	<g id="ribbon_1_">
		<polygon fill="#202021" points="200.7,612.5 130.3,612.5 137.2,627.7 130.3,641.9 200.7,641.9 		"/>
		<polygon fill="#202021" points="299.3,612.5 369.7,612.5 362.8,627.7 369.7,641.9 299.3,641.9 		"/>
		<polygon fill="#0D0D0D" points="162.5,597.6 200.6,611.6 200.6,641.9 162.5,627.9 		"/>
		<polygon fill="#0D0D0D" points="337.5,597.6 299.4,611.6 299.4,641.9 337.5,627.9 		"/>
		<path fill="#333335" d="M337.6,627.9c0,0-59.1-6.5-87.6-6.5s-87.6,6.5-87.6,6.5v-30.3c0,0,53.9-6.5,87.6-6.5s87.6,6.5,87.6,6.5
			V627.9z"/>
	</g>
	<g id="trad_1_">
		<g>
			<path fill="#0D0D0D" d="M194.5,605.8c0,0.5-0.2,1-0.5,1.4c-1.5-0.8-2.8-1.2-3.8-1.2c-0.5,0-0.9,0.1-1.2,0.3
				c-0.1,2.2,0.3,3.8,1,4.8c-0.7,0.9-1,2.3-1,4.3c0,1.9,0.3,3.5,1,5c-0.5,0.4-1,0.6-1.6,0.6c-0.6,0-1.1-0.2-1.6-0.7
				c-0.5,0.5-1.1,0.7-1.6,0.7c-0.6,0-1.1-0.2-1.6-0.6c0.7-1.5,1-3.1,1-5c0-2-0.3-3.4-1-4.3c0.7-1,1.1-2.5,1-4.7
				c-0.3-0.3-0.7-0.4-1.3-0.4c-1,0-2.3,0.4-3.8,1.2c-0.3-0.4-0.5-0.8-0.5-1.4c0-0.6,0.2-1.2,0.5-1.8c-0.3-0.3-0.5-0.8-0.5-1.3
				c0-0.5,0.2-1,0.5-1.4c1,0.5,2.2,0.7,3.6,0.7c1.2,0,2.4-0.2,3.6-0.7c1.2,0.5,2.4,0.7,3.6,0.7c1.4,0,2.6-0.2,3.6-0.7
				c0.3,0.4,0.5,0.9,0.5,1.4c0,0.5-0.2,1-0.5,1.3C194.4,604.6,194.5,605.3,194.5,605.8z"/>
			<path fill="#0D0D0D" d="M209.9,621c-1.4,0-2.7-0.5-3.9-1.6c0.5-0.7,0.8-1.3,0.8-1.9c0-0.7-0.4-1.6-1.1-2.6
				c0.2-0.3,0.4-0.7,0.4-1.1c0-0.5-0.2-1-0.6-1.3c-0.4-0.4-0.9-0.6-1.4-0.6c-0.5,0-1,0.2-1.3,0.7c-0.4,0.5-0.6,1.3-0.6,2.3
				c0,2.5,0.5,4.3,1.5,5.3c-0.5,0.4-1,0.6-1.6,0.6c-0.6,0-1.2-0.2-1.7-0.7c-0.6,0.5-1.2,0.7-1.8,0.7c-0.6,0-1.1-0.2-1.6-0.6
				c0.7-1.4,1-3.1,1-4.9c0-1.9-0.3-3.3-1-4.2c0.7-0.9,1-2.3,1-4.2c0-1.8-0.3-3.4-1-4.8c0.5-0.4,1-0.6,1.6-0.6c0.6,0,1.2,0.2,1.8,0.7
				c1.1-0.5,2.4-0.8,3.7-0.8c1.6,0,2.9,0.3,4.1,1c1.2,0.7,1.8,1.6,1.8,2.6c0,1,0.3,1.7,0.9,2c-0.4,0.2-0.7,0.6-0.9,1.2
				c-0.1,0.2-0.1,0.5-0.1,0.8c-0.1,0.9-0.7,1.7-1.8,2.2c0.7,0.3,1.2,0.7,1.5,1.2c0.1,0.2,0.2,0.5,0.2,0.7c0,0.8,0.3,1.3,0.9,1.5
				c0,0,0.1,0.4,0.2,1.1c0.1,0.9,0.3,1.6,0.5,2.3c0.3,1,0.8,1.8,1.5,2.4C211.7,620.8,210.8,621,209.9,621z M205.7,606.1
				c0-0.4-0.2-0.7-0.5-1c-0.3-0.3-0.7-0.4-1.2-0.4c-0.6,0-1,0.2-1.4,0.6c-0.4,0.5-0.6,1.1-0.6,2c0,0.9,0.2,1.5,0.6,2
				c0.4,0.4,0.8,0.6,1.4,0.6c0.4,0,0.8-0.1,1.2-0.4c0.3-0.3,0.5-0.6,0.5-1c0-0.4-0.2-0.8-0.6-1.2
				C205.5,606.9,205.7,606.5,205.7,606.1z"/>
			<path fill="#0D0D0D" d="M227.9,621c-0.5,0-0.9-0.2-1-0.5c0.4-0.9,0.6-1.8,0.6-2.6c0-1.1-0.3-1.9-0.9-2.6c-0.6-0.7-1.3-1-2.2-1
				c-0.9,0-1.7,0.3-2.3,1c-0.6,0.7-0.9,1.6-0.9,2.6c0,0.9,0.2,1.7,0.6,2.6c-0.1,0.3-0.5,0.5-1,0.5c-0.6,0-1.2-0.2-2-0.5
				c-0.3,0.3-0.8,0.5-1.3,0.5c-0.7,0-1.3-0.2-2.1-0.6c2.4-2.4,3.5-5,3.5-7.9c0-0.5,0-1-0.1-1.4c2-2.4,3-4.8,3-7.3
				c0-0.9-0.1-1.5-0.4-1.9c0.5-0.4,1-0.6,1.5-0.6c0.6,0,1.1,0.2,1.6,0.7c0.5-0.5,1-0.7,1.5-0.7c0.6,0,1.1,0.2,1.5,0.6
				c-0.3,0.4-0.4,1.1-0.4,1.9c0,2.4,1,4.8,3,7.3c-0.1,0.4-0.1,0.8-0.1,1.4c0,2.9,1.2,5.5,3.5,7.9c-0.7,0.4-1.4,0.6-2.1,0.6
				c-0.5,0-1-0.2-1.3-0.5C229.1,620.8,228.4,621,227.9,621z M224.3,608.1c-0.7,1.1-1,2.3-1,3.4c0.4-0.2,0.7-0.3,1-0.3
				c0.3,0,0.6,0.1,1,0.3C225.3,610.4,225,609.3,224.3,608.1z"/>
			<path fill="#0D0D0D" d="M249.8,611.1c-0.4,0.2-0.7,0.6-0.8,1.2c-0.1,0.2-0.1,0.5-0.1,0.8v4.2c-0.2,1.1-0.8,2-1.9,2.7
				c-1.1,0.7-2.4,1-3.9,1c-1.4,0-2.7-0.3-3.9-0.9c-0.6,0.5-1.2,0.7-1.7,0.7c-0.6,0-1.1-0.2-1.6-0.6c0.7-1.4,1-3.1,1-4.9
				c0-1.9-0.3-3.3-1-4.2c0.7-0.9,1-2.3,1-4.2c0-1.8-0.3-3.4-1-4.9c0.5-0.4,1-0.6,1.6-0.6c0.6,0,1.2,0.2,1.7,0.7
				c1.1-0.5,2.4-0.8,3.8-0.8c1.6,0,2.9,0.3,4.1,1c1.2,0.7,1.8,1.5,1.8,2.6v4.2C248.9,610.1,249.2,610.8,249.8,611.1z M244.9,606.8
				c0-0.7-0.2-1.3-0.6-1.6c-0.4-0.3-0.8-0.5-1.4-0.5c-0.5,0-1,0.1-1.3,0.4c-0.4,0.3-0.6,0.7-0.6,1.2v2.7c0,1,0.4,1.7,1,2
				c-0.4,0.2-0.7,0.6-0.9,1.2c-0.1,0.2-0.1,0.5-0.1,0.8v3.3c0,0.5,0.2,0.9,0.6,1.2c0.4,0.3,0.8,0.5,1.3,0.5c0.5,0,1-0.2,1.4-0.5
				c0.4-0.4,0.6-0.9,0.6-1.6V613c0-1-0.4-1.7-1-2c0.4-0.2,0.7-0.6,0.9-1.2c0.1-0.3,0.1-0.5,0.1-0.8V606.8z"/>
			<path fill="#0D0D0D" d="M255.8,620.3c-0.5,0.5-1.1,0.7-1.6,0.7c-0.6,0-1.1-0.2-1.6-0.6c0.7-1.4,1-3.1,1-4.9c0-1.9-0.3-3.4-1-4.3
				c0.7-0.9,1-2.3,1-4.3c0-1.9-0.3-3.5-1-4.9c0.5-0.4,1-0.6,1.6-0.6c0.6,0,1.1,0.2,1.6,0.7c0.5-0.5,1.1-0.7,1.6-0.7
				c0.6,0,1.1,0.2,1.6,0.6c-0.7,1.4-1,3.1-1,4.9c0,1.9,0.3,3.4,1,4.3c-0.7,0.9-1,2.3-1,4.3c0,1.9,0.3,3.5,1,4.9
				c-0.5,0.4-1,0.6-1.6,0.6C256.9,621,256.3,620.7,255.8,620.3z"/>
			<path fill="#0D0D0D" d="M277.5,605.8c0,0.5-0.2,1-0.5,1.4c-1.5-0.8-2.8-1.2-3.8-1.2c-0.5,0-0.9,0.1-1.2,0.3
				c-0.1,2.2,0.3,3.8,1,4.8c-0.7,0.9-1,2.3-1,4.3c0,1.9,0.3,3.5,1,5c-0.5,0.4-1,0.6-1.6,0.6c-0.6,0-1.1-0.2-1.6-0.7
				c-0.5,0.5-1.1,0.7-1.6,0.7c-0.6,0-1.1-0.2-1.6-0.6c0.7-1.5,1-3.1,1-5c0-2-0.3-3.4-1-4.3c0.7-1,1.1-2.5,1-4.7
				c-0.3-0.3-0.7-0.4-1.3-0.4c-1,0-2.3,0.4-3.8,1.2c-0.3-0.4-0.5-0.8-0.5-1.4c0-0.6,0.2-1.2,0.5-1.8c-0.3-0.3-0.5-0.8-0.5-1.3
				c0-0.5,0.2-1,0.5-1.4c1,0.5,2.2,0.7,3.6,0.7c1.2,0,2.4-0.2,3.6-0.7c1.2,0.5,2.4,0.7,3.6,0.7c1.4,0,2.6-0.2,3.6-0.7
				c0.3,0.4,0.5,0.9,0.5,1.4c0,0.5-0.2,1-0.5,1.3C277.3,604.6,277.5,605.3,277.5,605.8z"/>
			<path fill="#0D0D0D" d="M282.9,620.3c-0.5,0.5-1.1,0.7-1.6,0.7c-0.6,0-1.1-0.2-1.6-0.6c0.7-1.4,1-3.1,1-4.9c0-1.9-0.3-3.4-1-4.3
				c0.7-0.9,1-2.3,1-4.3c0-1.9-0.3-3.5-1-4.9c0.5-0.4,1-0.6,1.6-0.6c0.6,0,1.1,0.2,1.6,0.7c0.5-0.5,1.1-0.7,1.6-0.7
				c0.6,0,1.1,0.2,1.6,0.6c-0.7,1.4-1,3.1-1,4.9c0,1.9,0.3,3.4,1,4.3c-0.7,0.9-1,2.3-1,4.3c0,1.9,0.3,3.5,1,4.9
				c-0.5,0.4-1,0.6-1.6,0.6C284,621,283.5,620.7,282.9,620.3z"/>
			<path fill="#0D0D0D" d="M299.1,620.2c-0.8,0.4-1.8,0.6-3,0.7c-1.2-0.1-2.2-0.3-3-0.7c-2-0.9-3-2.6-3-5v-2.2c0-1-0.4-1.7-1-2
				c0.4-0.2,0.7-0.6,0.9-1.2c0.1-0.2,0.1-0.5,0.1-0.8v-2.1c0-2.3,1-4,3-4.9c0.8-0.4,1.8-0.6,3-0.7c1.2,0.1,2.2,0.3,3,0.7
				c2,1,3,2.6,3,4.9v2.1c0,1,0.4,1.7,1,2c-0.4,0.2-0.7,0.6-0.9,1.2c-0.1,0.2-0.1,0.5-0.1,0.8v2.2
				C302.1,617.6,301.1,619.3,299.1,620.2z M298.2,613.1c0-1-0.4-1.7-1-2c0.4-0.2,0.7-0.6,0.9-1.2c0.1-0.2,0.1-0.5,0.1-0.8v-2
				c0-0.7-0.2-1.3-0.6-1.7c-0.4-0.4-0.9-0.6-1.4-0.6c-0.5,0-1,0.2-1.4,0.6c-0.4,0.4-0.6,1-0.6,1.7v2c0,1,0.4,1.7,1,2
				c-0.4,0.2-0.7,0.6-0.9,1.2c-0.1,0.2-0.1,0.5-0.1,0.8v2c0,0.7,0.2,1.3,0.6,1.7c0.4,0.4,0.9,0.6,1.4,0.6c0.5,0,1-0.2,1.4-0.6
				c0.4-0.4,0.6-1,0.6-1.7V613.1z"/>
			<path fill="#0D0D0D" d="M315.1,609.2c0.4-0.7,0.5-1.8,0.5-3.1c0-2.1-0.4-3.4-1.1-4.2c0.4-0.4,0.9-0.6,1.5-0.6
				c0.5,0,1,0.2,1.5,0.7c0.5-0.5,1-0.7,1.5-0.7c0.5,0,1,0.2,1.5,0.6l-0.4,1c-0.5,1.2-0.7,2.5-0.7,3.9c0,1.9,0.4,3.4,1.1,4.4
				c-0.7,0.9-1,2.3-1,4.3c0,1.9,0.3,3.5,1,4.9c-0.4,0.4-0.9,0.6-1.4,0.6c-0.5,0-1-0.2-1.5-0.7c-0.5,0.5-0.9,0.7-1.5,0.7
				c-0.5,0-1-0.2-1.4-0.6c0.6-0.8,1-1.6,1-2.7c0-1.1-0.4-2.2-1.2-3.2l-3-3.8c-0.6,1.2-0.9,2.6-0.9,4.3c0,1.8,0.4,3.6,1.1,5.3
				c-0.4,0.4-0.9,0.6-1.5,0.6c-0.5,0-1.1-0.2-1.5-0.7c-0.5,0.5-1,0.7-1.6,0.7c-0.5,0-1-0.2-1.5-0.6c0.7-1.4,1-3.1,1-4.9
				c0-1.9-0.3-3.4-1-4.3c0.7-1,1.1-2.4,1.1-4.4c0-1.4-0.2-2.7-0.7-3.9l-0.4-1c0.4-0.4,0.9-0.6,1.5-0.6c0.5,0,1.1,0.2,1.6,0.7
				c0.5-0.5,1-0.7,1.5-0.7c0.5,0,1,0.2,1.5,0.6c-0.2,0.5-0.4,1.1-0.4,1.6c0,0.7,0.2,1.3,0.6,1.8L315.1,609.2z"/>
		</g>
		<g>
			<path fill="#FCFCFC" d="M195.1,602.9c0,0.5-0.2,1-0.5,1.4c-1.5-0.8-2.8-1.2-3.8-1.2c-0.5,0-0.9,0.1-1.2,0.3
				c-0.1,2.2,0.3,3.8,1,4.8c-0.7,0.9-1,2.3-1,4.3c0,1.9,0.3,3.5,1,5c-0.5,0.4-1,0.6-1.6,0.6c-0.6,0-1.1-0.2-1.6-0.7
				c-0.5,0.5-1.1,0.7-1.6,0.7c-0.6,0-1.1-0.2-1.6-0.6c0.7-1.5,1-3.1,1-5c0-2-0.3-3.4-1-4.3c0.7-1,1.1-2.5,1-4.7
				c-0.3-0.3-0.7-0.4-1.3-0.4c-1,0-2.3,0.4-3.8,1.2c-0.3-0.4-0.5-0.8-0.5-1.4c0-0.6,0.2-1.2,0.5-1.8c-0.3-0.3-0.5-0.8-0.5-1.3
				c0-0.5,0.2-1,0.5-1.4c1,0.5,2.2,0.7,3.6,0.7c1.2,0,2.4-0.2,3.6-0.7c1.2,0.5,2.4,0.7,3.6,0.7c1.4,0,2.6-0.2,3.6-0.7
				c0.3,0.4,0.5,0.9,0.5,1.4c0,0.5-0.2,1-0.5,1.3C195,601.7,195.1,602.4,195.1,602.9z"/>
			<path fill="#FCFCFC" d="M210.5,618.1c-1.4,0-2.7-0.5-3.9-1.6c0.5-0.7,0.8-1.3,0.8-1.9c0-0.7-0.4-1.6-1.1-2.6
				c0.2-0.3,0.4-0.7,0.4-1.1c0-0.5-0.2-1-0.6-1.3c-0.4-0.4-0.9-0.6-1.4-0.6c-0.5,0-1,0.2-1.3,0.7c-0.4,0.5-0.6,1.3-0.6,2.3
				c0,2.5,0.5,4.3,1.5,5.3c-0.5,0.4-1,0.6-1.6,0.6c-0.6,0-1.2-0.2-1.7-0.7c-0.6,0.5-1.2,0.7-1.8,0.7c-0.6,0-1.1-0.2-1.6-0.6
				c0.7-1.4,1-3.1,1-4.9c0-1.9-0.3-3.3-1-4.2c0.7-0.9,1-2.3,1-4.2c0-1.8-0.3-3.4-1-4.8c0.5-0.4,1-0.6,1.6-0.6c0.6,0,1.2,0.2,1.8,0.7
				c1.1-0.5,2.4-0.8,3.7-0.8c1.6,0,2.9,0.3,4.1,1c1.2,0.7,1.8,1.6,1.8,2.6c0,1,0.3,1.7,0.9,2c-0.4,0.2-0.7,0.6-0.9,1.2
				c-0.1,0.2-0.1,0.5-0.1,0.8c-0.1,0.9-0.7,1.7-1.8,2.2c0.7,0.3,1.2,0.7,1.5,1.2c0.1,0.2,0.2,0.5,0.2,0.7c0,0.8,0.3,1.3,0.9,1.5
				c0,0,0.1,0.4,0.2,1.1c0.1,0.9,0.3,1.6,0.5,2.3c0.3,1,0.8,1.8,1.5,2.4C212.3,617.8,211.4,618.1,210.5,618.1z M206.3,603.2
				c0-0.4-0.2-0.7-0.5-1c-0.3-0.3-0.7-0.4-1.2-0.4c-0.6,0-1,0.2-1.4,0.6c-0.4,0.5-0.6,1.1-0.6,2c0,0.9,0.2,1.5,0.6,2
				c0.4,0.4,0.8,0.6,1.4,0.6c0.4,0,0.8-0.1,1.2-0.4c0.3-0.3,0.5-0.6,0.5-1c0-0.4-0.2-0.8-0.6-1.2C206.1,604,206.3,603.6,206.3,603.2
				z"/>
			<path fill="#FCFCFC" d="M228.4,618.1c-0.5,0-0.9-0.2-1-0.5c0.4-0.9,0.6-1.8,0.6-2.6c0-1.1-0.3-1.9-0.9-2.6c-0.6-0.7-1.3-1-2.2-1
				c-0.9,0-1.7,0.3-2.3,1c-0.6,0.7-0.9,1.6-0.9,2.6c0,0.9,0.2,1.7,0.6,2.6c-0.1,0.3-0.5,0.5-1,0.5c-0.6,0-1.2-0.2-2-0.5
				c-0.3,0.3-0.8,0.5-1.3,0.5c-0.7,0-1.3-0.2-2.1-0.6c2.4-2.4,3.5-5,3.5-7.9c0-0.5,0-1-0.1-1.4c2-2.4,3-4.8,3-7.3
				c0-0.9-0.1-1.5-0.4-1.9c0.5-0.4,1-0.6,1.5-0.6c0.6,0,1.1,0.2,1.6,0.7c0.5-0.5,1-0.7,1.5-0.7c0.6,0,1.1,0.2,1.5,0.6
				c-0.3,0.4-0.4,1.1-0.4,1.9c0,2.4,1,4.8,3,7.3c-0.1,0.4-0.1,0.8-0.1,1.4c0,2.9,1.2,5.5,3.5,7.9c-0.7,0.4-1.4,0.6-2.1,0.6
				c-0.5,0-1-0.2-1.3-0.5C229.7,617.9,229,618.1,228.4,618.1z M224.9,605.2c-0.7,1.1-1,2.3-1,3.4c0.4-0.2,0.7-0.3,1-0.3
				c0.3,0,0.6,0.1,1,0.3C225.9,607.5,225.6,606.3,224.9,605.2z"/>
			<path fill="#FCFCFC" d="M250.4,608.2c-0.4,0.2-0.7,0.6-0.8,1.2c-0.1,0.2-0.1,0.5-0.1,0.8v4.2c-0.2,1.1-0.8,2-1.9,2.7
				c-1.1,0.7-2.4,1-3.9,1c-1.4,0-2.7-0.3-3.9-0.9c-0.6,0.5-1.2,0.7-1.7,0.7c-0.6,0-1.1-0.2-1.6-0.6c0.7-1.4,1-3.1,1-4.9
				c0-1.9-0.3-3.3-1-4.2c0.7-0.9,1-2.3,1-4.2c0-1.8-0.3-3.4-1-4.9c0.5-0.4,1-0.6,1.6-0.6c0.6,0,1.2,0.2,1.7,0.7
				c1.1-0.5,2.4-0.8,3.8-0.8c1.6,0,2.9,0.3,4.1,1c1.2,0.7,1.8,1.5,1.8,2.6v4.2C249.5,607.2,249.8,607.9,250.4,608.2z M245.5,603.9
				c0-0.7-0.2-1.3-0.6-1.6c-0.4-0.3-0.8-0.5-1.4-0.5c-0.5,0-1,0.1-1.3,0.4c-0.4,0.3-0.6,0.7-0.6,1.2v2.7c0,1,0.4,1.7,1,2
				c-0.4,0.2-0.7,0.6-0.9,1.2c-0.1,0.2-0.1,0.5-0.1,0.8v3.3c0,0.5,0.2,0.9,0.6,1.2c0.4,0.3,0.8,0.5,1.3,0.5c0.5,0,1-0.2,1.4-0.5
				c0.4-0.4,0.6-0.9,0.6-1.6v-2.8c0-1-0.4-1.7-1-2c0.4-0.2,0.7-0.6,0.9-1.2c0.1-0.3,0.1-0.5,0.1-0.8V603.9z"/>
			<path fill="#FCFCFC" d="M256.4,617.3c-0.5,0.5-1.1,0.7-1.6,0.7c-0.6,0-1.1-0.2-1.6-0.6c0.7-1.4,1-3.1,1-4.9c0-1.9-0.3-3.4-1-4.3
				c0.7-0.9,1-2.3,1-4.3c0-1.9-0.3-3.5-1-4.9c0.5-0.4,1-0.6,1.6-0.6c0.6,0,1.1,0.2,1.6,0.7c0.5-0.5,1.1-0.7,1.6-0.7
				c0.6,0,1.1,0.2,1.6,0.6c-0.7,1.4-1,3.1-1,4.9c0,1.9,0.3,3.4,1,4.3c-0.7,0.9-1,2.3-1,4.3c0,1.9,0.3,3.5,1,4.9
				c-0.5,0.4-1,0.6-1.6,0.6C257.5,618.1,256.9,617.8,256.4,617.3z"/>
			<path fill="#FCFCFC" d="M278.1,602.9c0,0.5-0.2,1-0.5,1.4c-1.5-0.8-2.8-1.2-3.8-1.2c-0.5,0-0.9,0.1-1.2,0.3
				c-0.1,2.2,0.3,3.8,1,4.8c-0.7,0.9-1,2.3-1,4.3c0,1.9,0.3,3.5,1,5c-0.5,0.4-1,0.6-1.6,0.6c-0.6,0-1.1-0.2-1.6-0.7
				c-0.5,0.5-1.1,0.7-1.6,0.7c-0.6,0-1.1-0.2-1.6-0.6c0.7-1.5,1-3.1,1-5c0-2-0.3-3.4-1-4.3c0.7-1,1.1-2.5,1-4.7
				c-0.3-0.3-0.7-0.4-1.3-0.4c-1,0-2.3,0.4-3.8,1.2c-0.3-0.4-0.5-0.8-0.5-1.4c0-0.6,0.2-1.2,0.5-1.8c-0.3-0.3-0.5-0.8-0.5-1.3
				c0-0.5,0.2-1,0.5-1.4c1,0.5,2.2,0.7,3.6,0.7c1.2,0,2.4-0.2,3.6-0.7c1.2,0.5,2.4,0.7,3.6,0.7c1.4,0,2.6-0.2,3.6-0.7
				c0.3,0.4,0.5,0.9,0.5,1.4c0,0.5-0.2,1-0.5,1.3C277.9,601.7,278.1,602.4,278.1,602.9z"/>
			<path fill="#FCFCFC" d="M283.5,617.3c-0.5,0.5-1.1,0.7-1.6,0.7c-0.6,0-1.1-0.2-1.6-0.6c0.7-1.4,1-3.1,1-4.9c0-1.9-0.3-3.4-1-4.3
				c0.7-0.9,1-2.3,1-4.3c0-1.9-0.3-3.5-1-4.9c0.5-0.4,1-0.6,1.6-0.6c0.6,0,1.1,0.2,1.6,0.7c0.5-0.5,1.1-0.7,1.6-0.7
				c0.6,0,1.1,0.2,1.6,0.6c-0.7,1.4-1,3.1-1,4.9c0,1.9,0.3,3.4,1,4.3c-0.7,0.9-1,2.3-1,4.3c0,1.9,0.3,3.5,1,4.9
				c-0.5,0.4-1,0.6-1.6,0.6C284.6,618.1,284,617.8,283.5,617.3z"/>
			<path fill="#FCFCFC" d="M299.7,617.3c-0.8,0.4-1.8,0.6-3,0.7c-1.2-0.1-2.2-0.3-3-0.7c-2-0.9-3-2.6-3-5v-2.2c0-1-0.4-1.7-1-2
				c0.4-0.2,0.7-0.6,0.9-1.2c0.1-0.2,0.1-0.5,0.1-0.8V604c0-2.3,1-4,3-4.9c0.8-0.4,1.8-0.6,3-0.7c1.2,0.1,2.2,0.3,3,0.7
				c2,1,3,2.6,3,4.9v2.1c0,1,0.4,1.7,1,2c-0.4,0.2-0.7,0.6-0.9,1.2c-0.1,0.2-0.1,0.5-0.1,0.8v2.2
				C302.7,614.7,301.7,616.4,299.7,617.3z M298.8,610.2c0-1-0.4-1.7-1-2c0.4-0.2,0.7-0.6,0.9-1.2c0.1-0.2,0.1-0.5,0.1-0.8v-2
				c0-0.7-0.2-1.3-0.6-1.7c-0.4-0.4-0.9-0.6-1.4-0.6c-0.5,0-1,0.2-1.4,0.6c-0.4,0.4-0.6,1-0.6,1.7v2c0,1,0.4,1.7,1,2
				c-0.4,0.2-0.7,0.6-0.9,1.2c-0.1,0.2-0.1,0.5-0.1,0.8v2c0,0.7,0.2,1.3,0.6,1.7c0.4,0.4,0.9,0.6,1.4,0.6c0.5,0,1-0.2,1.4-0.6
				c0.4-0.4,0.6-1,0.6-1.7V610.2z"/>
			<path fill="#FCFCFC" d="M315.7,606.2c0.4-0.7,0.5-1.8,0.5-3.1c0-2.1-0.4-3.4-1.1-4.2c0.4-0.4,0.9-0.6,1.5-0.6
				c0.5,0,1,0.2,1.5,0.7c0.5-0.5,1-0.7,1.5-0.7c0.5,0,1,0.2,1.5,0.6l-0.4,1c-0.5,1.2-0.7,2.5-0.7,3.9c0,1.9,0.4,3.4,1.1,4.4
				c-0.7,0.9-1,2.3-1,4.3c0,1.9,0.3,3.5,1,4.9c-0.4,0.4-0.9,0.6-1.4,0.6c-0.5,0-1-0.2-1.5-0.7c-0.5,0.5-0.9,0.7-1.5,0.7
				c-0.5,0-1-0.2-1.4-0.6c0.6-0.8,1-1.6,1-2.7c0-1.1-0.4-2.2-1.2-3.2l-3-3.8c-0.6,1.2-0.9,2.6-0.9,4.3c0,1.8,0.4,3.6,1.1,5.3
				c-0.4,0.4-0.9,0.6-1.5,0.6c-0.5,0-1.1-0.2-1.5-0.7c-0.5,0.5-1,0.7-1.6,0.7c-0.5,0-1-0.2-1.5-0.6c0.7-1.4,1-3.1,1-4.9
				c0-1.9-0.3-3.4-1-4.3c0.7-1,1.1-2.4,1.1-4.4c0-1.4-0.2-2.7-0.7-3.9l-0.4-1c0.4-0.4,0.9-0.6,1.5-0.6c0.5,0,1.1,0.2,1.6,0.7
				c0.5-0.5,1-0.7,1.5-0.7c0.5,0,1,0.2,1.5,0.6c-0.2,0.5-0.4,1.1-0.4,1.6c0,0.7,0.2,1.3,0.6,1.8L315.7,606.2z"/>
		</g>
	</g>
	<g id="its_decor">
		<path fill="#333335" d="M275.6,574.8c0.4-0.5,0.7-1.1,1-1.7c-0.1,0-0.2,0.1-0.3,0.1c-1,0.1-1.8-1.1-1.9-2.6
			c-0.1-1.5,0.6-2.7,1.6-2.8c1-0.1,1.8,1.1,1.9,2.6c0,0.1,0,0.3,0,0.4c0,1.2-0.2,2.3-0.8,3.4c-0.6,1.1-1.4,2-2.5,2.7
			c3.5-0.3,7,0,10.5,0.4c3.5,0.4,7,1,10.4,1.5c3.5,0.6,6.9,1.2,10.4,1.8c1.6,0.3,3.2,0.5,4.8,0.8c1.4,0.2,2.9,0.3,4.4,0.2
			c0.9,0,1.8-0.1,2.6-0.4c0.4-0.1,0.8-0.2,1.1-0.5c0.1-0.1,0.3-0.2,0.3-0.3c0-0.1,0.1-0.2-0.1-0.3c0,0-0.2,0-0.2,0.1
			c-0.1,0-0.1,0-0.2,0c-0.2,0-0.3-0.1-0.5-0.3c-0.2-0.2-0.3-0.6-0.1-0.8c0.5-0.5,1.2,0.3,1.4,0.7c0.3,0.8-0.6,1.2-1.3,1.4
			c-0.9,0.3-1.8,0.3-2.7,0.4c-0.8,0.1-1.7,0-2.5,0c1.1,0.2,2.2,0.3,3.3,0.4c1.7,0.2,3.5,0.4,5.2,0.5c1.7,0.1,3.5,0.1,5.2-0.1
			c0.8-0.1,1.6-0.3,2.4-0.6c0.7-0.3,1.3-0.7,1.7-1.4c0.4-0.6,0.6-1.4,0.5-2.1c-0.1-0.7-0.4-1.4-0.9-2c-0.9-1.2-2.2-2.2-3.5-3.1
			c-1.4-0.9-2.9-1.6-4.4-2.3c-1.6-0.6-3.2-1.2-4.8-1.5c-1.6-0.4-3.3-0.7-5-0.7c-0.8,0-1.7,0-2.4,0.3c-0.3,0.1-0.6,0.3-0.7,0.5
			c-0.2,0.3-0.1,0.7,0,1c0.1,0.2,0.1,0.4,0.2,0.5c0.1,0.2,0.1,0.4,0.3,0.5c0.2,0.2,0.6,0.4,0.9,0.5c0.6,0.2,1.2,0.2,1.8,0.2
			c0.6,0,1.1,0.1,1.6,0.4c0.5,0.4,1,0.9,1.2,1.5c0.2,0.5,0,1.1-0.3,1.5c-0.4,0.4-1,0.8-1.5,0.9c-0.6,0.1-1.1-0.2-1.6-0.5
			c-0.3-0.2-0.6-0.5-1-0.7c-0.3-0.2-0.6-0.5-0.9-0.8c-1.1-1-2.2-2.4-2.5-3.8c-0.1-0.7-0.1-1.5,0.4-2.1c0.4-0.6,1.2-1,1.9-1.2
			c1.5-0.4,3.2-0.2,4.7,0.2c3.3,0.7,6.5,2,9.4,3.5c1.5,0.8,2.9,1.6,4.1,2.6c1.2,0.9,2.3,2,3,3.4c0.3,0.7,0.5,1.5,0.4,2.3
			c-0.1,0.7-0.5,1.4-1,2c-1,1.2-2.8,1.5-4.3,1.7c-1.7,0.2-3.5,0.2-5.2,0.1c-1.7-0.1-3.5-0.2-5.2-0.4c-3.5-0.4-7-0.9-10.4-1.4
			c-3.5-0.5-7-1.1-10.4-1.6c-3.5-0.5-7-1.1-10.5-1.5c-3.5-0.4-7-0.8-10.5-0.7c-0.4,0-0.8,0-1.3,0.1c-0.2,0-0.4,0-0.6,0.1
			c-0.1,0-0.4,0.1-0.4,0c0,0,0-0.1,0-0.2c0-0.1-0.1-0.2-0.1-0.3c0-0.1-0.1-0.2-0.1-0.3C273.3,576.8,274.7,575.9,275.6,574.8z"/>
		<path fill="#333335" d="M224.4,574.8c-0.4-0.5-0.7-1.1-1-1.7c0.1,0,0.2,0.1,0.3,0.1c1,0.1,1.8-1.1,1.9-2.6
			c0.1-1.5-0.6-2.7-1.6-2.8c-1-0.1-1.8,1.1-1.9,2.6c0,0.1,0,0.3,0,0.4c0,1.2,0.2,2.3,0.8,3.4c0.6,1.1,1.4,2,2.5,2.7
			c-3.5-0.3-7,0-10.5,0.4c-3.5,0.4-7,1-10.4,1.5c-3.5,0.6-6.9,1.2-10.4,1.8c-1.6,0.3-3.2,0.5-4.8,0.8c-1.4,0.2-2.9,0.3-4.4,0.2
			c-0.9,0-1.8-0.1-2.6-0.4c-0.4-0.1-0.8-0.2-1.1-0.5c-0.1-0.1-0.3-0.2-0.3-0.3c0-0.1-0.1-0.2,0.1-0.3c0,0,0.2,0,0.2,0.1
			c0.1,0,0.1,0,0.2,0c0.2,0,0.3-0.1,0.5-0.3c0.2-0.2,0.3-0.6,0.1-0.8c-0.5-0.5-1.2,0.3-1.4,0.7c-0.3,0.8,0.6,1.2,1.3,1.4
			c0.9,0.3,1.8,0.3,2.7,0.4c0.8,0.1,1.7,0,2.5,0c-1.1,0.2-2.2,0.3-3.3,0.4c-1.7,0.2-3.5,0.4-5.2,0.5c-1.7,0.1-3.5,0.1-5.2-0.1
			c-0.8-0.1-1.6-0.3-2.4-0.6c-0.7-0.3-1.3-0.7-1.7-1.4c-0.4-0.6-0.6-1.4-0.5-2.1c0.1-0.7,0.4-1.4,0.9-2c0.9-1.2,2.2-2.2,3.5-3.1
			c1.4-0.9,2.9-1.6,4.4-2.3c1.6-0.6,3.2-1.2,4.8-1.5c1.6-0.4,3.3-0.7,5-0.7c0.8,0,1.7,0,2.4,0.3c0.3,0.1,0.6,0.3,0.7,0.5
			c0.2,0.3,0.1,0.7,0,1c-0.1,0.2-0.1,0.4-0.2,0.5c-0.1,0.2-0.1,0.4-0.3,0.5c-0.2,0.2-0.6,0.4-0.9,0.5c-0.6,0.2-1.2,0.2-1.8,0.2
			c-0.6,0-1.1,0.1-1.6,0.4c-0.5,0.4-1,0.9-1.2,1.5c-0.2,0.5,0,1.1,0.3,1.5c0.4,0.4,1,0.8,1.5,0.9c0.6,0.1,1.1-0.2,1.6-0.5
			c0.3-0.2,0.6-0.5,1-0.7c0.3-0.2,0.6-0.5,0.9-0.8c1.1-1,2.2-2.4,2.5-3.8c0.1-0.7,0.1-1.5-0.4-2.1c-0.4-0.6-1.2-1-1.9-1.2
			c-1.5-0.4-3.2-0.2-4.7,0.2c-3.3,0.7-6.5,2-9.4,3.5c-1.5,0.8-2.9,1.6-4.1,2.6c-1.2,0.9-2.3,2-3,3.4c-0.3,0.7-0.5,1.5-0.4,2.3
			c0.1,0.7,0.5,1.4,1,2c1,1.2,2.8,1.5,4.3,1.7c1.7,0.2,3.5,0.2,5.2,0.1c1.7-0.1,3.5-0.2,5.2-0.4c3.5-0.4,7-0.9,10.4-1.4
			c3.5-0.5,7-1.1,10.4-1.6c3.5-0.5,7-1.1,10.5-1.5c3.5-0.4,7-0.8,10.5-0.7c0.4,0,0.8,0,1.3,0.1c0.2,0,0.4,0,0.6,0.1
			c0.1,0,0.4,0.1,0.4,0c0,0,0-0.1,0-0.2c0-0.1,0.1-0.2,0.1-0.3c0-0.1,0.1-0.2,0.1-0.3C226.7,576.8,225.3,575.9,224.4,574.8z"/>
	</g>
	<g id="its">
		<path d="M241.1,576.2c-0.1,0.2-0.2,0.4-0.3,0.7c-0.1,0.3-0.2,0.6-0.3,0.9c-0.1,0.3-0.2,0.6-0.2,0.9c0,0.3,0,0.5,0.1,0.7
			c0.1,0.2,0.2,0.3,0.4,0.4c0.2,0.1,0.4,0.1,0.6,0c0.3-0.1,0.6-0.3,1-0.6c0.4-0.4,0.8-0.7,1.3-1.2c0.4-0.4,0.8-0.8,1.2-1.2
			c0.4-0.4,0.6-0.7,0.7-0.9v1.5c-0.1,0.2-0.3,0.4-0.5,0.7c-0.3,0.3-0.6,0.6-0.9,1c-0.3,0.4-0.7,0.7-1,1c-0.3,0.3-0.6,0.6-0.8,0.8
			c-0.6,0.5-1.1,0.9-1.7,1.1c-0.5,0.2-1.1,0.3-1.7,0.2c-0.3,0-0.6-0.2-0.9-0.4c-0.3-0.2-0.4-0.4-0.5-0.7c-0.2-0.4-0.2-0.8-0.3-1.2
			c0-0.5,0-0.9,0.1-1.4c0.1-0.5,0.2-1,0.4-1.5c0.2-0.5,0.4-1,0.6-1.4c0.4-0.9,0.8-1.6,1.1-2.4c0.3-0.6,0.5-1.1,0.7-1.6
			c0.2-0.5,0.3-0.7,0.3-0.8c0.1-0.2,0.2-0.3,0.2-0.4c0-0.1,0.1-0.2,0.1-0.2c0.1,0,0.1-0.1,0.2-0.1c0.1,0,0.3,0,0.4,0h2
			c0.3,0,0.4,0.1,0.4,0.2c0,0.1-0.1,0.3-0.2,0.5L241.1,576.2z M243.7,564.8c0.3-0.1,0.6,0,0.9,0c0.3,0.1,0.5,0.3,0.6,0.6
			c0.1,0.3,0.1,0.7,0.1,1.1c-0.1,0.4-0.2,0.8-0.4,1.2c-0.2,0.4-0.5,0.7-0.8,1c-0.3,0.3-0.7,0.4-1,0.4c-0.6,0-1-0.1-1.2-0.5
			c-0.1-0.2-0.2-0.4-0.2-0.8c0-0.4,0.1-0.7,0.3-1.1c0.2-0.4,0.4-0.8,0.8-1.2C243.1,565.2,243.4,564.9,243.7,564.8z"/>
		<path d="M251.3,570.2c0.1,0,0.3,0,0.5,0.1c0.2,0,0.4,0,0.5,0.1c0.3,0.1,0.5,0.2,0.6,0.3c0.1,0.1,0.1,0.3,0.1,0.5
			c0,0.2,0,0.4-0.1,0.6c0,0.2-0.2,0.3-0.3,0.4c-0.4,0.1-0.8,0.2-1.3,0.2c-0.5,0-1,0-1.4,0l-0.8,1.6c-0.2,0.5-0.5,1-0.7,1.5
			c-0.2,0.5-0.5,1-0.6,1.5c-0.2,0.5-0.3,0.9-0.4,1.3c-0.1,0.4-0.1,0.7,0,0.8c0.1,0.3,0.3,0.5,0.6,0.5c0.3,0.1,0.6,0,0.9-0.1
			c0.3-0.1,0.6-0.3,0.9-0.6c0.4-0.3,0.7-0.7,1.1-1c0.4-0.4,0.7-0.8,1-1.1c0.3-0.4,0.6-0.7,0.8-0.9v1.5c-0.2,0.3-0.6,0.7-1,1.2
			c-0.4,0.5-0.9,1-1.5,1.5c-0.7,0.7-1.5,1.2-2.2,1.5c-0.7,0.3-1.4,0.5-2.1,0.4c-0.3,0-0.6-0.1-0.9-0.3c-0.3-0.2-0.6-0.5-0.8-0.9
			c-0.2-0.4-0.2-0.8-0.2-1.3c0-0.5,0.1-1,0.3-1.5c0.2-0.5,0.3-1,0.5-1.6c0.2-0.5,0.4-1,0.5-1.4l1.1-2.8c-0.2,0-0.4,0-0.7-0.1
			c-0.2,0-0.4-0.2-0.6-0.4c-0.1-0.1-0.1-0.3-0.1-0.4c0-0.2,0.1-0.4,0.1-0.5c0.1-0.2,0.2-0.3,0.3-0.5c0.1-0.1,0.3-0.2,0.4-0.2
			c0.4,0,0.7-0.1,1-0.1c0.3,0,0.5,0,0.8-0.1c0-0.1,0.1-0.2,0.2-0.4c0.1-0.2,0.3-0.4,0.4-0.7c0.2-0.3,0.3-0.5,0.5-0.8
			c0.2-0.3,0.4-0.6,0.5-0.8c0.2-0.2,0.3-0.5,0.4-0.6c0.1-0.2,0.2-0.4,0.3-0.5c0.1-0.2,0.2-0.4,0.4-0.6c0.1-0.2,0.3-0.4,0.5-0.7
			c0.2-0.4,0.4-0.6,0.6-0.8c0.2-0.2,0.3-0.3,0.5-0.3c0.2-0.1,0.3-0.1,0.5-0.1c0.2,0,0.5,0,0.9,0c0.3,0,0.6,0,0.8,0
			c0.2,0,0.3,0.2,0.4,0.5c0,0.2-0.1,0.5-0.4,1c-0.3,0.5-0.8,1.2-1.3,2.1c-0.2,0.4-0.5,0.8-0.7,1.2c-0.2,0.3-0.4,0.7-0.6,1
			C251.6,569.6,251.4,569.9,251.3,570.2z"/>
		<path d="M260.2,568.3c0,0.1,0,0.3,0,0.6c0,0.3-0.1,0.5-0.3,0.6c-0.1,0.1-0.2,0.2-0.2,0.2c0,0-0.2,0.2-0.3,0.4
			c-0.1,0.1-0.2,0.2-0.2,0.3c0,0.1-0.1,0.2-0.1,0.3c-0.1,0.3-0.1,0.7-0.1,1.1c0.1,0.4,0.1,0.8,0.2,1.3c0.1,0.4,0.1,0.8,0.2,1.2
			c0.1,0.4,0.1,0.8,0.1,1.2c0,1.5-0.1,2.7-0.4,3.8c0.2-0.1,0.5-0.3,0.8-0.6c0.3-0.3,0.7-0.6,1-1c0.4-0.4,0.7-0.7,1-1.1
			c0.3-0.4,0.6-0.7,0.8-0.9v1.5c-1.5,1.9-2.9,3.2-4.1,4s-2.4,1-3.5,0.7c-0.5-0.1-0.9-0.3-1.4-0.6c-0.4-0.3-0.8-0.7-1-1.2
			c-0.1-0.3-0.2-0.7-0.3-1.1c-0.1-0.4-0.1-0.9-0.1-1.4c0-0.5,0-1,0.1-1.4c0-0.5,0.1-0.9,0.2-1.2c0.1,0,0.3-0.1,0.4-0.2
			c0.1-0.1,0.2-0.2,0.3-0.3c0.4-0.4,0.8-0.9,1.2-1.3c0.3-0.4,0.7-0.8,1-1.2c0.4-0.4,0.7-0.8,1-1.1c0.2-0.2,0.3-0.4,0.5-0.6
			c0.2-0.2,0.3-0.5,0.5-0.7c0.2-0.2,0.4-0.5,0.6-0.7c0.2-0.2,0.4-0.4,0.5-0.6c0.2-0.2,0.4-0.3,0.5-0.3c0.2-0.1,0.4-0.1,0.6-0.1
			C259.9,568,260.1,568.1,260.2,568.3z M254.3,575.1c0.2,0.6,0.2,1.1,0,1.7c-0.2,0.6-0.5,0.9-0.9,1.1c0,0.2,0.1,0.5,0.2,0.9
			c0.1,0.3,0.4,0.6,0.8,0.7c0.3,0.1,0.7,0.2,1,0.1c0.3-0.1,0.6-0.3,0.9-0.5c0.4-0.4,0.7-0.9,0.9-1.5c0.2-0.6,0.2-1.3,0.2-1.9
			c0-0.7,0-1.3-0.1-2c-0.1-0.6-0.2-1.1-0.3-1.5c-0.6,0.5-1.1,1-1.6,1.5C255.1,574.1,254.7,574.6,254.3,575.1z"/>
	</g>
	<path fill-rule="evenodd" clip-rule="evenodd" fill="#0D0D0D" d="M359.9,485.8c4.4-2,14.9-6.2,15.1-7.1c-1.6-0.1-14.3,3.9-18.9,5.4
		c-4.4-1.7-15.4-6.8-15.7-7.8c-0.3-0.8,0-1.6-0.1-2.2c-0.5-1.5-2.1-2.4-3.5-2.3c-1.2,0-2.1,1.2-3.3,1.3c-2.3,0-2.8-2.2-4-3.7
		c0-0.2-0.2-0.1-0.3,0c-0.1,3.2,3.4,3.5,4.2,5.4c0.3,0.8,0.2,1.7,0.6,2.3c0.6,1.1,2.1,1.9,3.7,1.6c0.8-0.1,1.4-1.1,2.5-1.1
		c0.5,0,4.5,2.4,5.2,2.9c2.3,1.4,5.4,2.8,6.1,5.4c-0.4,0.8-0.8,1.7-1.2,2.5c-1.7,0.9-8.3,5.4-9.5,5.4c-0.6,0-1.1-0.3-1.5-0.4
		c-2.7-0.8-6,0.4-6.1,3.5c0,1.5,1.1,3.3,2.8,3.6c2.3,0.4,4.2-0.9,4.8-2.5c0.3-0.7-0.1-1.8,0.4-2.9c0.3-0.7,11.2-5.8,15.1-7.5
		c4.5,1.6,17.1,5.4,18.8,5.3C374.9,492,364.3,487.8,359.9,485.8z M334.3,474.6c0.2-0.9,1-1.7,2.3-1.9c1.7-0.3,3.2,0.7,3.2,2.6
		C339.8,479.4,333.5,478.6,334.3,474.6z M333.9,496.8c0-2,1.5-2.8,3.3-3c1.9-0.2,2.9,0.7,3.2,1.8
		C341.4,500.1,333.9,501.4,333.9,496.8z M356.2,487c-0.6,0-1.1-0.5-1.1-1.1s0.5-1.1,1.1-1.1c0.6,0,1.1,0.5,1.1,1.1
		S356.8,487,356.2,487z"/>
	<path fill-rule="evenodd" clip-rule="evenodd" fill="#0D0D0D" d="M125.1,492.8c1.7,0.1,14.3-3.8,18.8-5.3
		c3.9,1.7,14.8,6.7,15.1,7.5c0.5,1.1,0.1,2.2,0.4,2.9c0.6,1.5,2.5,2.9,4.8,2.5c1.7-0.3,2.8-2,2.8-3.6c0-3.1-3.4-4.3-6.1-3.5
		c-0.4,0.1-0.9,0.4-1.5,0.4c-1.2,0-7.8-4.5-9.5-5.4c-0.4-0.8-0.8-1.7-1.2-2.5c0.7-2.6,3.8-4,6.1-5.4c0.8-0.5,4.7-2.9,5.2-2.9
		c1.1,0,1.7,1,2.5,1.1c1.6,0.3,3.1-0.6,3.7-1.6c0.4-0.7,0.2-1.5,0.6-2.3c0.8-1.9,4.3-2.2,4.2-5.4c-0.1-0.1-0.2-0.2-0.3,0
		c-1.2,1.5-1.7,3.7-4,3.7c-1.2,0-2.1-1.2-3.3-1.3c-1.3,0-3,0.8-3.5,2.3c-0.2,0.6,0.1,1.4-0.1,2.2c-0.3,1-11.4,6.1-15.7,7.8
		c-4.6-1.5-17.2-5.5-18.9-5.4c0.2,0.8,10.7,5.1,15.1,7.1C135.9,487.8,125.3,492,125.1,492.8z M160.4,475.2c0-1.9,1.4-2.9,3.2-2.6
		c1.4,0.2,2.2,1,2.3,1.9C166.7,478.6,160.4,479.4,160.4,475.2z M159.8,495.5c0.2-1,1.3-2,3.2-1.8c1.8,0.2,3.3,1.1,3.3,3
		C166.3,501.4,158.8,500.1,159.8,495.5z M142.8,485.9c0-0.6,0.5-1.1,1.1-1.1c0.6,0,1.1,0.5,1.1,1.1s-0.5,1.1-1.1,1.1
		C143.4,487,142.8,486.5,142.8,485.9z"/>
	<g>
		<path fill="#333335" d="M250,250.7c-68.9,0-124.7,55.8-124.7,124.7c0,68.9,55.8,124.7,124.7,124.7s124.7-55.8,124.7-124.7
			C374.7,306.5,318.9,250.7,250,250.7z M250,486.9c-61.5,0-111.5-50-111.5-111.5c0-61.5,50-111.5,111.5-111.5s111.5,50,111.5,111.5
			C361.5,436.9,311.5,486.9,250,486.9z"/>
		<circle fill="#FFFFFF" cx="250" cy="375.4" r="114.3"/>
		<circle cx="250" cy="375.4" r="108"/>
		<circle fill="#FFFFFF" cx="250" cy="375.4" r="77.7"/>
		<circle cx="250" cy="375.4" r="72"/>
		<g>
			<path fill="#FFFFFF" d="M176.1,327.1c0,0.4,0.2,0.9,0.6,1.3c0.2,0.2,0.4,0.3,0.7,0.5l0.3,0.2c0.9,0.7,1.4,1.7,1.4,3
				c0.1,1.3-0.3,2.6-1,3.9c-0.7,1.2-1.6,2.2-2.7,3c0.1,0.7,0.1,1.4-0.2,1.9c-0.3,0.5-0.7,0.9-1.3,1.1c-0.9-1.3-2.2-2.4-3.8-3.2
				c-1.7-0.9-3.1-1.3-4.2-1.2c-0.5-1-1.5-2-3.2-2.9c-1.6-0.9-3.2-1.4-4.8-1.5c-0.2-0.6-0.1-1.2,0.2-1.7c0.3-0.5,0.8-0.9,1.5-1.2
				c0.1-1.3,0.5-2.5,1.1-3.7c0.8-1.4,1.7-2.4,2.9-3.1c1.2-0.7,2.2-0.8,3.2-0.3c0.9,0.5,1.7,0.5,2.2,0.2c0,0.4,0.2,0.9,0.7,1.3
				c0.2,0.2,0.4,0.3,0.7,0.5c0.8,0.5,1.1,1.4,1,2.6c0.6-0.5,1.3-0.8,1.8-0.8c0.2,0,0.4,0,0.6,0.1
				C174.8,327.5,175.6,327.5,176.1,327.1z M165.9,327.3c-0.3-0.2-0.7-0.2-1.1,0c-0.4,0.2-0.7,0.5-0.9,0.8c-0.3,0.5-0.3,1-0.2,1.5
				c0.2,0.6,0.7,1.1,1.4,1.5c0.8,0.4,1.5,0.6,2.1,0.4c0.5-0.1,0.9-0.4,1.2-0.9c0.2-0.4,0.3-0.8,0.2-1.2c-0.1-0.4-0.3-0.7-0.6-0.9
				c-0.4-0.2-0.8-0.2-1.4-0.1C166.5,327.9,166.3,327.5,165.9,327.3z M174.2,335.4c0.6-0.1,1-0.4,1.3-0.9c0.2-0.4,0.3-0.8,0.2-1.3
				c-0.1-0.5-0.3-0.8-0.7-1c-0.4-0.2-0.9-0.3-1.6-0.2c-0.2-0.6-0.6-1-1-1.2c-0.4-0.2-0.8-0.3-1.2-0.1c-0.4,0.2-0.8,0.4-1,0.8
				c-0.3,0.5-0.3,1-0.1,1.6c0.3,0.7,0.8,1.2,1.7,1.7C172.7,335.3,173.5,335.5,174.2,335.4z"/>
			<path fill="#FFFFFF" d="M190.3,319.2c-0.3,0.4-0.7,0.5-1.1,0.5c-0.4-0.9-0.9-1.6-1.6-2.2c-0.8-0.7-1.7-1.1-2.6-1.1
				c-0.9,0-1.7,0.3-2.3,1c-0.6,0.7-0.8,1.5-0.7,2.4c0.1,0.9,0.6,1.7,1.4,2.4c0.6,0.6,1.4,1,2.4,1.3c0.1,0.3,0,0.7-0.3,1.1
				c-0.4,0.4-0.9,0.8-1.7,1.2c0,0.5-0.2,0.9-0.5,1.3c-0.4,0.5-1,0.9-1.8,1.2c-0.2-3.4-1.4-6-3.6-7.9c-0.4-0.3-0.8-0.6-1.1-0.8
				c-0.5-3.1-1.7-5.5-3.5-7.1c-0.6-0.6-1.2-0.9-1.8-1c0-0.6,0.2-1.2,0.5-1.6c0.4-0.4,0.9-0.7,1.6-0.7c0-0.7,0.1-1.2,0.5-1.6
				c0.4-0.4,0.9-0.7,1.5-0.7c0.1,0.5,0.5,1.1,1.2,1.6c1.8,1.6,4.3,2.5,7.5,2.6c0.2,0.3,0.5,0.6,0.9,1c2.2,1.9,4.9,2.8,8.3,2.5
				c-0.2,0.8-0.5,1.5-0.9,2c-0.4,0.4-0.8,0.6-1.3,0.7C191,318.1,190.7,318.7,190.3,319.2z M178.3,313.3c0.4,1.2,1.1,2.3,1.9,3
				c0.1-0.4,0.3-0.7,0.4-0.9c0.2-0.2,0.5-0.4,0.9-0.6C180.6,314.1,179.5,313.6,178.3,313.3z"/>
			<path fill="#FFFFFF" d="M207.3,305.3c-1.2,0.8-2.5,1.1-4.1,0.9c0-0.9-0.1-1.5-0.5-2c-0.4-0.6-1.2-1.1-2.4-1.5
				c0-0.4-0.1-0.8-0.3-1.1c-0.3-0.4-0.7-0.7-1.3-0.7c-0.6-0.1-1.1,0-1.5,0.3c-0.4,0.3-0.7,0.7-0.7,1.3c0,0.6,0.2,1.4,0.8,2.2
				c1.4,2.1,2.9,3.3,4.2,3.5c-0.1,0.6-0.5,1.1-1,1.4c-0.5,0.3-1.1,0.5-1.9,0.4c-0.2,0.7-0.6,1.3-1.1,1.6c-0.5,0.3-1,0.5-1.7,0.4
				c-0.3-1.6-0.9-3.1-2-4.6c-1.1-1.6-2.2-2.5-3.2-2.9c0-1.1-0.5-2.5-1.6-4c-1-1.5-2.2-2.7-3.6-3.5c0.1-0.6,0.4-1.1,0.9-1.4
				c0.5-0.3,1.1-0.5,1.9-0.4c0.6-1.1,1.5-2,2.6-2.8c1.3-0.9,2.6-1.4,3.9-1.5c1.4-0.1,2.4,0.3,3,1.1c0.6,0.8,1.3,1.2,1.9,1.1
				c-0.2,0.4-0.2,0.9,0,1.5c0.1,0.2,0.2,0.5,0.4,0.7c0.5,0.8,0.4,1.8-0.2,2.8c0.7-0.1,1.4-0.1,1.9,0.2c0.2,0.1,0.4,0.3,0.6,0.5
				c0.4,0.7,1,0.9,1.6,0.7c0,0,0.3,0.3,0.7,0.8c0.6,0.7,1.2,1.2,1.7,1.6c0.8,0.6,1.7,1,2.6,1.2C208.7,304.1,208,304.8,207.3,305.3z
				 M195.3,295.4c-0.2-0.3-0.5-0.5-1-0.5c-0.4,0-0.8,0.1-1.2,0.3c-0.5,0.3-0.7,0.7-0.8,1.3c-0.1,0.6,0.1,1.3,0.6,2
				c0.5,0.7,1.1,1.1,1.7,1.3c0.5,0.1,1,0,1.5-0.3c0.4-0.3,0.6-0.6,0.7-1c0.1-0.4,0.1-0.8-0.1-1.1c-0.2-0.3-0.6-0.6-1.2-0.7
				C195.6,296.2,195.5,295.8,195.3,295.4z"/>
			<path fill="#FFFFFF" d="M223.5,291.2c-0.3,0.3-0.4,0.8-0.3,1.4c0,0.3,0.1,0.5,0.2,0.8l0.1,0.3c0.3,1.1,0,2.2-0.8,3.2
				c-0.8,1-1.8,1.8-3.2,2.4c-1.3,0.5-2.6,0.7-4,0.6c-0.4,0.7-0.8,1.1-1.4,1.3c-0.6,0.2-1.1,0.2-1.7,0c0.1-1.6-0.2-3.2-0.9-4.9
				c-0.7-1.8-1.5-3-2.5-3.6c0.3-1.1,0.1-2.5-0.6-4.3c-0.7-1.7-1.6-3.1-2.7-4.2c0.3-0.6,0.7-1,1.3-1.2c0.6-0.2,1.2-0.2,1.9,0
				c0.9-0.9,1.9-1.6,3.2-2.2c1.5-0.6,2.9-0.8,4.2-0.6c1.3,0.2,2.2,0.8,2.6,1.8c0.4,1,1,1.5,1.6,1.5c-0.3,0.3-0.4,0.8-0.3,1.4
				c0,0.3,0.1,0.5,0.2,0.8c0.3,0.9,0,1.8-0.9,2.7c0.8,0,1.5,0.2,1.9,0.5c0.2,0.1,0.3,0.3,0.4,0.5
				C222.3,290.7,222.8,291.2,223.5,291.2z M215.5,284.9c-0.1-0.4-0.4-0.6-0.8-0.7c-0.4-0.1-0.8-0.1-1.2,0.1
				c-0.5,0.2-0.9,0.6-1.1,1.1c-0.2,0.6-0.2,1.3,0.1,2.1c0.3,0.8,0.8,1.4,1.3,1.6c0.5,0.2,1,0.2,1.5,0c0.4-0.2,0.7-0.4,1-0.8
				c0.2-0.4,0.3-0.7,0.1-1.1c-0.2-0.4-0.5-0.7-1-1C215.6,285.7,215.6,285.3,215.5,284.9z M216.8,296.3c0.5,0.3,1.1,0.3,1.6,0.1
				c0.4-0.2,0.7-0.5,1-0.9c0.2-0.4,0.2-0.8,0.1-1.2c-0.2-0.4-0.5-0.8-1.1-1.1c0.2-0.6,0.2-1.1,0-1.6c-0.2-0.4-0.5-0.7-0.9-0.9
				c-0.4-0.1-0.9-0.1-1.3,0c-0.5,0.2-0.9,0.6-1.1,1.2c-0.2,0.7-0.1,1.5,0.2,2.4C215.6,295.4,216.1,296,216.8,296.3z"/>
			<path fill="#FFFFFF" d="M234.8,285.8c-0.6,0.1-1.1,0.4-1.4,0.8c-0.3,0.5-0.4,1-0.3,1.7l0.2,1.4c0.2,1.3,1,1.8,2.3,1.6
				c0.7-0.1,1.3-0.4,1.9-0.9c0.6-0.5,0.9-0.9,1-1.4c0.8,0.4,1.2,1,1.4,1.9c0.1,0.4,0.1,0.9,0,1.3c0.4,0.1,0.6,0.6,0.6,1.4
				c-0.5-0.2-1-0.2-1.7-0.1c-0.4,0.1-0.9,0.2-1.3,0.4c-0.4,0.2-0.8,0.4-1.2,0.6c-0.5,0.2-0.9,0.4-1.4,0.4c-0.8,0.1-1.7,0-2.7-0.3
				c-0.5,0.6-1,0.9-1.6,1c-0.6,0.1-1.2,0-1.7-0.4c0.4-1.5,0.5-3.2,0.1-5c-0.3-1.9-0.9-3.2-1.7-4c0.5-1,0.6-2.5,0.3-4.4
				c-0.3-1.8-0.9-3.4-1.9-4.7c0.4-0.5,0.9-0.8,1.5-0.9c0.6-0.1,1.2,0,1.9,0.4c0.8-0.7,1.6-1.1,2.4-1.2c0.4-0.1,0.9-0.1,1.4-0.1
				c0.4,0.1,0.9,0.1,1.3,0.1c0.4,0,0.9,0,1.3-0.1c0.7-0.1,1.2-0.3,1.6-0.6c0.2,0.8,0.2,1.4-0.1,1.6c0.2,0.4,0.4,0.8,0.5,1.2
				c0.2,0.9-0.1,1.6-0.7,2.2c-0.2-0.4-0.7-0.8-1.4-1c-0.7-0.2-1.4-0.3-2.1-0.2c-1.3,0.2-1.8,1-1.6,2.2l0.2,1.4
				c0.1,0.7,0.4,1.1,0.9,1.4c0.5,0.3,1,0.4,1.6,0.3c1-0.2,1.8-0.7,2.4-1.7c0.1,0.2,0.2,0.5,0.3,0.7c0.1,0.5,0,1-0.4,1.5
				c0.5,0.3,0.8,0.8,0.9,1.3c0,0.3,0,0.5,0,0.8C236.8,285.9,235.8,285.6,234.8,285.8z"/>
			<path fill="#FFFFFF" d="M257.5,293.7c-1.4-0.1-2.7-0.6-3.9-1.7c0.5-0.7,0.8-1.3,0.8-1.9c0-0.7-0.3-1.6-1-2.7
				c0.3-0.3,0.4-0.7,0.4-1c0-0.5-0.2-1-0.6-1.4c-0.4-0.4-0.9-0.6-1.4-0.6c-0.5,0-1,0.2-1.3,0.6c-0.4,0.5-0.6,1.3-0.7,2.3
				c-0.1,2.5,0.3,4.3,1.3,5.4c-0.5,0.4-1,0.6-1.6,0.6c-0.6,0-1.2-0.3-1.7-0.8c-0.6,0.5-1.2,0.7-1.8,0.7c-0.6,0-1.1-0.2-1.6-0.7
				c0.7-1.4,1.1-3,1.2-4.9c0.1-1.9-0.2-3.3-0.8-4.2c0.7-0.9,1.1-2.3,1.1-4.2c0.1-1.8-0.2-3.5-0.8-4.9c0.5-0.4,1-0.6,1.6-0.6
				c0.6,0,1.2,0.3,1.8,0.8c1.1-0.5,2.4-0.7,3.8-0.7c1.6,0.1,2.9,0.4,4.1,1.1c1.2,0.8,1.7,1.7,1.7,2.7c0,1,0.3,1.7,0.9,2.1
				c-0.4,0.2-0.7,0.6-0.9,1.2c-0.1,0.2-0.1,0.5-0.2,0.8c-0.1,0.9-0.7,1.6-1.9,2.1c0.7,0.3,1.2,0.8,1.4,1.3c0.1,0.2,0.2,0.5,0.2,0.7
				c-0.1,0.8,0.2,1.3,0.9,1.6c0,0,0.1,0.4,0.1,1.1c0.1,0.9,0.2,1.7,0.4,2.3c0.3,1,0.8,1.8,1.4,2.5
				C259.4,293.5,258.4,293.7,257.5,293.7z M253.8,278.6c0-0.4-0.1-0.7-0.5-1c-0.3-0.3-0.7-0.4-1.1-0.4c-0.6,0-1,0.2-1.4,0.5
				c-0.4,0.5-0.7,1.1-0.7,2c0,0.9,0.2,1.6,0.6,2c0.3,0.4,0.8,0.6,1.4,0.6c0.4,0,0.8-0.1,1.2-0.3c0.3-0.2,0.5-0.6,0.5-1
				c0-0.4-0.2-0.8-0.5-1.3C253.6,279.4,253.8,279,253.8,278.6z"/>
			<path fill="#FFFFFF" d="M293.6,289.7c-0.1-2-0.7-3.3-1.9-3.8c-0.6-0.3-1.1-0.3-1.7-0.1c-0.6,0.2-1,0.5-1.2,1.1
				c-0.2,0.5-0.3,1.1-0.1,1.7c0.3,0.6,0.7,1.1,1.3,1.4c0.3,0.2,0.7,0.2,1,0.2c-0.1,0.5,0.1,1.2,0.5,2c0.2,0.3,0.4,0.7,0.6,1.1
				c1.3,1.7,1.5,3.5,0.6,5.4c-0.6,1.4-1.7,2.3-3.2,2.9c-1.6,0.6-3.4,0.4-5.2-0.5c-0.9-0.4-1.8-1-2.7-1.8c-0.2-0.2-0.4-0.5-0.8-0.9
				c-0.3-0.3-0.5-0.6-0.8-0.7c-0.4-0.2-0.9-0.2-1.6-0.1c0-0.2,0.1-0.3,0.2-0.5c0.4-0.9,1-1.4,1.8-1.4c-0.1-0.3,0-0.7,0.2-1.1
				c0.3-0.5,0.7-1.1,1.3-1.5c0.1,1.2,0.5,2.4,1.2,3.3c0.6,0.8,1.4,1.5,2.3,1.9c0.7,0.3,1.4,0.5,2,0.4c0.6-0.1,1.1-0.4,1.3-0.9
				c0.3-0.5,0.3-1.2,0-2.1c-0.3-0.7-0.8-1.2-1.6-1.5c-0.4-0.2-0.8-0.3-1.1-0.3c0.4-1.1,0.3-2-0.4-2.6c-1.2-1.7-1.4-3.4-0.6-5.1
				c0.6-1.3,1.7-2.3,3.1-2.9c1.5-0.6,3-0.6,4.5,0.1c0.9,0.4,1.6,1,2.3,1.8c0.1,0.2,0.3,0.4,0.4,0.6c0.1,0.2,0.3,0.3,0.6,0.5
				c0.2,0.1,0.6,0.2,1.1,0.4c0,0.1-0.1,0.3-0.1,0.4c-0.3,0.6-0.7,1-1.4,1.3C295,288.8,294.4,289.3,293.6,289.7z"/>
			<path fill="#FFFFFF" d="M310.2,298c0.8-1.3,1.1-2.3,1-3c0.6-0.1,1.2,0.1,1.6,0.4c0.5,0.4,0.7,0.9,0.9,1.6
				c0.7-0.1,1.3,0.1,1.7,0.4c0.5,0.4,0.7,0.8,0.9,1.5c-1.4,0.7-2.7,1.9-3.8,3.3c-1.2,1.5-1.8,2.9-1.8,4c-1.1,0.3-2.2,1.2-3.4,2.8
				c-1.1,1.5-1.9,3-2.2,4.6c-0.6,0-1.2-0.1-1.6-0.5c-0.4-0.3-0.7-0.9-0.9-1.6c-0.7,0.1-1.3-0.1-1.7-0.4c-0.5-0.4-0.7-0.8-0.8-1.5
				c0.7-0.1,1.6-0.7,2.6-1.8c0.3-0.3,0.9-1.1,1.9-2.4c0.6-0.8,0.7-1.5,0.3-2.1c-0.2-0.2-0.3-0.4-0.5-0.5c-0.2-0.1-0.4-0.2-0.6-0.4
				c-0.7-0.2-1.3,0.1-1.9,0.9c-1,1.3-1.6,2.2-1.8,2.5c-0.8,1.3-1.1,2.3-1,3c-0.6,0.1-1.2-0.1-1.6-0.4c-0.5-0.4-0.8-0.9-0.9-1.6
				c-0.7,0.1-1.3-0.1-1.7-0.4c-0.4-0.3-0.7-0.8-0.8-1.5c1.4-0.7,2.7-1.9,3.8-3.3c1.2-1.5,1.8-2.9,1.8-4c1.1-0.3,2.2-1.2,3.4-2.8
				c1.1-1.5,1.9-3,2.2-4.6c0.6,0,1.2,0.1,1.6,0.4c0.5,0.4,0.7,0.9,0.9,1.6c0.7-0.1,1.3,0.1,1.8,0.4c0.4,0.3,0.7,0.8,0.8,1.5
				c-0.7,0.1-1.6,0.7-2.6,1.8c-0.3,0.3-0.9,1.1-1.9,2.4c-0.6,0.8-0.7,1.5-0.3,2.1c0.2,0.2,0.4,0.4,0.5,0.5c0.2,0.1,0.4,0.3,0.6,0.4
				c0.7,0.2,1.4-0.1,2-0.8C309.4,299.1,310,298.3,310.2,298z"/>
			<path fill="#FFFFFF" d="M314.7,323.9c-0.8-0.4-1.7-1-2.5-1.8c-0.7-0.9-1.2-1.9-1.4-2.7c-0.6-2.1,0.1-4,1.9-5.5l1.7-1.5
				c0.8-0.7,1.1-1.4,0.9-2.1c0.4,0.2,0.9,0.2,1.5-0.1c0.2-0.1,0.5-0.3,0.7-0.4l1.6-1.4c1.8-1.5,3.7-1.8,5.7-0.9
				c0.8,0.4,1.7,1,2.5,1.8c0.7,1,1.1,1.9,1.4,2.8c0.6,2.2-0.1,4-1.8,5.5l-1.6,1.4c-0.8,0.7-1.1,1.4-0.9,2.1
				c-0.4-0.2-0.9-0.2-1.5,0.1c-0.2,0.1-0.5,0.3-0.7,0.4l-1.7,1.5C318.7,324.5,316.7,324.8,314.7,323.9z M319.6,318.5
				c0.8-0.7,1.1-1.4,0.9-2.1c0.4,0.2,0.9,0.2,1.5-0.1c0.2-0.1,0.5-0.3,0.7-0.4l1.6-1.3c0.6-0.5,0.9-1,0.9-1.6
				c0.1-0.6-0.1-1.1-0.4-1.5c-0.3-0.4-0.8-0.6-1.4-0.7c-0.6,0-1.1,0.2-1.7,0.6l-1.6,1.3c-0.8,0.7-1.1,1.4-0.9,2.1
				c-0.4-0.2-0.9-0.2-1.5,0.1c-0.2,0.1-0.5,0.3-0.7,0.4l-1.6,1.3c-0.6,0.5-0.9,1-0.9,1.6c-0.1,0.6,0.1,1,0.4,1.5
				c0.3,0.4,0.8,0.6,1.4,0.7c0.6,0,1.1-0.2,1.7-0.7L319.6,318.5z"/>
			<path fill="#FFFFFF" d="M319.7,331.9c-0.3-0.5-0.3-1.1-0.2-1.7c1.6-0.1,3.2-0.6,4.8-1.4c1.7-0.9,2.8-1.9,3.3-2.9
				c1.1,0.2,2.5-0.2,4.2-1.1c1.6-0.9,2.9-1.9,3.9-3.2c0.6,0.2,1,0.6,1.3,1.1c0.3,0.5,0.4,1.2,0.2,1.9c1,0.7,1.9,1.7,2.5,3
				c0.8,1.4,1.1,2.8,1,4.2c-0.1,1.4-0.5,2.3-1.5,2.8c-0.9,0.5-1.4,1.1-1.4,1.8c-0.4-0.3-0.9-0.3-1.5-0.2c-0.2,0.1-0.5,0.2-0.8,0.3
				c-1.6,0.8-2.8,0.7-3.7-0.1c-0.8-0.4-1.6-1.3-2.3-2.6c-0.6-1.2-1.3-1.8-2.1-1.8c-0.3,0-0.9,0.2-1.7,0.6c-1.7,0.9-2.9,2-3.4,3.4
				c-0.6-0.2-1-0.6-1.3-1.1c-0.3-0.5-0.3-1.1-0.2-1.8C320.5,332.8,320,332.4,319.7,331.9z M336.3,331.5c0.4-0.2,0.6-0.5,0.6-0.9
				c0.1-0.4,0-0.8-0.2-1.2c-0.3-0.5-0.7-0.8-1.2-0.9c-0.6-0.2-1.3,0-2.1,0.4c-0.8,0.4-1.3,0.9-1.5,1.5c-0.2,0.5-0.1,1,0.1,1.5
				c0.2,0.4,0.5,0.7,0.9,0.9c0.4,0.2,0.8,0.2,1.1,0c0.4-0.2,0.6-0.6,0.8-1.1C335.5,331.7,335.9,331.7,336.3,331.5z"/>
		</g>
		<g>
			<path fill="#FFFFFF" d="M175.9,446.5c-0.4-0.4-0.5-0.8-0.3-1.1c0.9-0.3,1.7-0.7,2.4-1.3c0.8-0.7,1.3-1.5,1.4-2.4
				c0.1-0.9-0.1-1.7-0.7-2.4c-0.6-0.7-1.4-1-2.3-1c-0.9,0-1.8,0.4-2.6,1.1c-0.6,0.6-1.2,1.3-1.5,2.2c-0.3,0.1-0.7,0-1.1-0.4
				c-0.4-0.4-0.7-1-1-1.9c-0.5,0-0.9-0.3-1.3-0.7c-0.4-0.5-0.8-1.1-0.9-2c3.4,0.2,6.1-0.7,8.3-2.7c0.4-0.4,0.7-0.7,0.9-1
				c3.2-0.2,5.6-1.1,7.4-2.7c0.6-0.6,1-1.1,1.2-1.6c0.6,0.1,1.1,0.3,1.5,0.7c0.4,0.4,0.5,1,0.5,1.6c0.7,0,1.2,0.3,1.6,0.7
				c0.4,0.4,0.6,0.9,0.6,1.6c-0.5,0.1-1.1,0.4-1.7,1c-1.8,1.6-2.9,4-3.4,7.1c-0.3,0.2-0.7,0.5-1.1,0.8c-2.1,1.9-3.3,4.6-3.5,8
				c-0.8-0.3-1.4-0.6-1.9-1.1c-0.4-0.4-0.5-0.8-0.5-1.3C176.8,447.3,176.2,446.9,175.9,446.5z M183,435.2c-1.3,0.3-2.4,0.8-3.2,1.6
				c0.4,0.2,0.7,0.4,0.9,0.5c0.2,0.2,0.3,0.5,0.5,0.9C182,437.4,182.6,436.4,183,435.2z"/>
			<path fill="#FFFFFF" d="M200.7,451.7c0.7-0.4,1.4-1.2,2.2-2.3c1.1-1.7,1.6-3.1,1.4-4.1c0.6-0.1,1.1,0,1.6,0.3
				c0.4,0.3,0.7,0.8,0.9,1.4c0.7-0.1,1.2-0.1,1.7,0.2c0.4,0.3,0.7,0.7,0.9,1.3l-0.9,0.6c-1,0.7-1.9,1.7-2.7,2.9
				c-1.1,1.6-1.6,3-1.5,4.2c-1.1,0.4-2.1,1.4-3.2,3c-1,1.6-1.7,3.1-1.9,4.7c-0.6,0.1-1.1,0.1-1.5-0.2c-0.4-0.3-0.7-0.8-0.8-1.4
				c-0.6,0.1-1.2,0.1-1.6-0.2c-0.4-0.3-0.7-0.7-0.8-1.3c1-0.3,1.7-0.8,2.3-1.7c0.6-0.9,0.9-2,0.8-3.3L197,451
				c-1.1,0.7-2.2,1.7-3.1,3.2c-1,1.5-1.7,3.2-2,5.1c-0.6,0.1-1.1,0-1.6-0.3c-0.5-0.3-0.7-0.8-0.9-1.4c-0.7,0.1-1.2,0-1.7-0.3
				c-0.4-0.3-0.7-0.7-0.9-1.3c1.4-0.8,2.6-2,3.6-3.6c1.1-1.6,1.6-3,1.5-4.1c1.1-0.4,2.2-1.4,3.3-3.1c0.8-1.2,1.3-2.4,1.6-3.6l0.2-1
				c0.6-0.1,1.1,0,1.6,0.3c0.5,0.3,0.8,0.8,0.9,1.5c0.7-0.1,1.2,0,1.7,0.3c0.4,0.3,0.7,0.7,0.9,1.3c-0.5,0.3-0.9,0.7-1.2,1.1
				c-0.4,0.6-0.5,1.2-0.5,1.8L200.7,451.7z"/>
			<path fill="#FFFFFF" d="M223,464.4c-0.4,0-0.8,0.3-1.2,0.8c-0.1,0.2-0.3,0.5-0.4,0.7l-1.5,3.9c-0.6,1-1.5,1.6-2.8,1.9
				c-1.3,0.2-2.6,0.1-4-0.4c-1.3-0.5-2.4-1.2-3.3-2.2c-0.7,0.2-1.3,0.3-1.9,0c-0.6-0.2-1-0.6-1.3-1.1c1.1-1.1,2-2.5,2.7-4.2
				c0.7-1.8,0.9-3.2,0.6-4.3c0.9-0.6,1.7-1.8,2.4-3.6c0.6-1.7,0.9-3.4,0.8-4.9c0.6-0.2,1.2-0.2,1.7,0c0.6,0.2,1,0.6,1.4,1.3
				c1.3-0.1,2.5,0.1,3.8,0.6c1.5,0.6,2.7,1.4,3.5,2.4c0.9,1.1,1.1,2.1,0.7,3.1l-1.5,3.9C222.5,463.1,222.6,463.9,223,464.4z
				 M219.9,458.6c0.3-0.7,0.3-1.3,0-1.8c-0.2-0.4-0.6-0.8-1.1-0.9c-0.5-0.2-0.9-0.2-1.4-0.1c-0.5,0.2-0.8,0.5-1,0.9l-0.9,2.5
				c-0.3,1-0.3,1.8,0.2,2.2c-0.5,0-0.9,0.3-1.2,0.8c-0.1,0.2-0.3,0.5-0.4,0.7l-1.2,3.1c-0.2,0.5-0.1,0.9,0.1,1.4
				c0.3,0.4,0.6,0.7,1.1,0.9c0.5,0.2,1,0.2,1.5,0c0.5-0.2,0.9-0.6,1.1-1.3l1-2.7c0.3-1,0.3-1.7-0.2-2.2c0.5,0,0.9-0.3,1.2-0.8
				c0.2-0.2,0.3-0.5,0.4-0.8L219.9,458.6z"/>
			<path fill="#FFFFFF" d="M255.1,463.8c-0.9-1.7-2.1-2.6-3.4-2.6c-0.6,0-1.2,0.2-1.6,0.7c-0.4,0.4-0.6,0.9-0.6,1.5
				c0,0.5,0.2,1.1,0.7,1.5c0.6,0.5,1.2,0.7,1.8,0.7c0.4,0,0.7-0.1,1-0.2c0.1,0.5,0.6,1,1.3,1.6c0.3,0.2,0.7,0.4,1.1,0.7
				c1.9,1,2.9,2.5,2.9,4.6c0,1.5-0.5,2.9-1.6,4c-1.2,1.2-2.8,1.8-4.9,1.9c-1,0-2.1-0.1-3.3-0.4c-0.2-0.1-0.6-0.2-1.1-0.5
				c-0.4-0.2-0.7-0.3-1-0.3c-0.4,0-0.9,0.2-1.5,0.6c0-0.2-0.1-0.4-0.1-0.5c0-1,0.3-1.7,1-2.1c-0.2-0.3-0.3-0.6-0.3-1.1
				c0-0.6,0.1-1.2,0.5-1.9c0.6,1.1,1.5,1.9,2.6,2.4c0.9,0.5,1.9,0.7,2.9,0.7c0.8,0,1.5-0.2,2-0.6c0.5-0.4,0.8-0.8,0.8-1.4
				c0-0.6-0.3-1.2-0.9-1.9c-0.6-0.5-1.3-0.7-2.1-0.7c-0.4,0-0.8,0.1-1.2,0.2c-0.1-1.2-0.6-1.9-1.5-2.2c-1.8-1-2.7-2.4-2.8-4.3
				c0-1.5,0.5-2.8,1.5-4c1.1-1.2,2.5-1.9,4.1-1.9c0.9,0,1.9,0.2,2.8,0.6c0.2,0.1,0.4,0.2,0.6,0.4c0.2,0.1,0.4,0.2,0.7,0.2
				c0.3,0,0.7,0,1.2-0.1c0,0.1,0.1,0.3,0.1,0.4c0,0.6-0.2,1.2-0.7,1.8C255.9,462.4,255.6,463.1,255.1,463.8z"/>
			<path fill="#FFFFFF" d="M271.1,459.4c-0.5-1.4-1-2.3-1.7-2.7c0.3-0.5,0.8-0.9,1.4-1c0.6-0.1,1.1,0,1.8,0.3
				c0.4-0.6,0.9-0.9,1.4-1.1c0.6-0.1,1.1,0,1.7,0.3c-0.3,1.6-0.3,3.3,0.2,5.1c0.5,1.9,1.1,3.2,2,3.9c-0.4,1-0.4,2.5,0,4.4
				c0.4,1.8,1.2,3.3,2.1,4.6c-0.4,0.5-0.8,0.9-1.4,1c-0.5,0.1-1.1,0-1.8-0.3c-0.4,0.6-0.9,0.9-1.4,1.1c-0.6,0.1-1.1,0-1.7-0.3
				c0.4-0.6,0.5-1.7,0.3-3.2c-0.1-0.4-0.3-1.4-0.7-3c-0.2-0.9-0.7-1.5-1.4-1.6c-0.3,0-0.5,0-0.7,0.1c-0.2,0-0.4,0.1-0.7,0.3
				c-0.6,0.4-0.8,1.1-0.6,2c0.4,1.6,0.6,2.6,0.8,3c0.5,1.4,1,2.3,1.7,2.7c-0.4,0.5-0.8,0.9-1.4,1c-0.6,0.1-1.2,0-1.8-0.3
				c-0.4,0.6-0.9,0.9-1.4,1.1c-0.5,0.1-1.1,0-1.7-0.3c0.3-1.6,0.3-3.3-0.2-5.1c-0.5-1.9-1.1-3.2-2-3.9c0.4-1,0.4-2.5,0-4.4
				c-0.4-1.8-1.2-3.3-2.1-4.6c0.4-0.5,0.8-0.9,1.4-1c0.6-0.1,1.1,0,1.8,0.3c0.4-0.6,0.9-0.9,1.4-1.1c0.5-0.1,1.1,0,1.7,0.3
				c-0.4,0.6-0.5,1.7-0.3,3.2c0.1,0.4,0.3,1.4,0.7,3c0.2,0.9,0.7,1.5,1.4,1.6c0.3,0,0.5,0,0.7-0.1c0.2-0.1,0.4-0.1,0.7-0.3
				c0.6-0.4,0.8-1.1,0.6-2C271.5,460.7,271.2,459.7,271.1,459.4z"/>
			<path fill="#FFFFFF" d="M300.3,465c-0.5,0.2-0.9,0.3-1.1,0c-0.1-1-0.3-1.8-0.7-2.6c-0.5-1-1.2-1.6-2-1.9
				c-0.8-0.3-1.7-0.3-2.5,0.1c-0.8,0.4-1.3,1.1-1.5,2c-0.2,0.9,0,1.8,0.5,2.8c0.4,0.8,1,1.4,1.7,2c0,0.4-0.2,0.7-0.7,0.9
				c-0.5,0.3-1.2,0.4-2,0.5c-0.2,0.5-0.5,0.8-1,1.1c-0.6,0.3-1.3,0.4-2.1,0.4c1-3.2,0.8-6.1-0.5-8.7c-0.2-0.5-0.5-0.8-0.7-1.1
				c0.6-3.1,0.4-5.7-0.7-7.9c-0.4-0.8-0.8-1.3-1.3-1.5c0.2-0.6,0.6-1,1-1.3c0.5-0.3,1.1-0.3,1.7-0.1c0.2-0.6,0.5-1.1,1-1.4
				c0.5-0.3,1-0.3,1.7-0.1c-0.1,0.5,0.1,1.2,0.5,1.9c1.1,2.1,3.1,3.8,6,5.1c0.1,0.4,0.3,0.8,0.5,1.3c1.3,2.6,3.6,4.3,6.8,5.4
				c-0.5,0.7-1,1.2-1.6,1.5c-0.5,0.3-1,0.3-1.4,0.2C301.4,464.2,300.8,464.7,300.3,465z M291.2,455.2c-0.1,1.3,0.2,2.5,0.7,3.5
				c0.3-0.3,0.5-0.6,0.7-0.7c0.2-0.1,0.6-0.2,1-0.2C293.1,456.7,292.3,455.9,291.2,455.2z"/>
			<path fill="#FFFFFF" d="M313,456.5c-0.4,0.3-0.9,0.6-1.6,0.6c-0.1-0.7-0.4-1.4-0.9-2.1c-0.9-1.1-2.2-2-3.9-2.8
				c-1.6-0.7-2.7-1-3.4-0.8c-0.3-0.6-0.7-1-1-1.5c-0.8-1-1.8-1.8-2.9-2.3c-1-0.5-2.3-0.9-3.9-1.3c0.1-0.8,0.4-1.4,0.9-1.8
				c0.5-0.4,1.1-0.5,1.8-0.4c0.1-0.8,0.4-1.3,0.9-1.8c0.4-0.4,0.9-0.5,1.4-0.5c0.2,0.8,0.5,1.6,1.1,2.3c1.1,1.3,2.4,2.1,3.9,2.2
				c0.1,0.5,0.4,0.9,0.8,1.5c0.5,0.6,1,1.1,1.7,1.5c0.7,0.4,1.3,0.7,1.8,0.7c0.1-0.5-0.1-1.2-0.4-1.9c-0.3-0.7-0.7-1.4-1.1-2
				c-0.4-0.5-0.8-0.9-1.2-1.1c0.2-1.5-0.3-3-1.4-4.3c-0.6-0.7-1.3-1.2-2.1-1.6c0.1-0.5,0.3-0.9,0.7-1.2c0.5-0.4,1.2-0.6,1.9-0.5
				c0.1-0.8,0.3-1.3,0.8-1.7c0.5-0.4,1.2-0.6,2-0.6c0,1.7,0.2,3.1,0.5,4.1c0.3,1.2,0.9,2.3,1.7,3.3c0.4,0.4,0.8,0.9,1.3,1.3
				c-0.4,0.7-0.4,1.8,0,3.5c0.4,1.8,1.1,3.3,2,4.4c0.6,0.7,1.2,1.1,1.8,1.4c-0.2,0.6-0.6,1.1-1,1.4c-0.4,0.4-0.9,0.5-1.5,0.4
				C313.7,455.7,313.5,456.1,313,456.5z"/>
			<path fill="#FFFFFF" d="M324.2,432.8c-0.4,0.5-0.6,1-0.5,1.5c0.1,0.6,0.3,1.1,0.9,1.5l1.1,0.9c1,0.8,1.9,0.7,2.7-0.4
				c0.4-0.5,0.7-1.2,0.8-1.9c0.1-0.7,0.1-1.3-0.2-1.7c0.8-0.2,1.6-0.1,2.3,0.5c0.4,0.3,0.6,0.6,0.8,1c0.3-0.2,0.8,0.1,1.4,0.7
				c-0.4,0.2-0.9,0.6-1.3,1.1c-0.3,0.4-0.5,0.7-0.7,1.1c-0.2,0.4-0.4,0.8-0.5,1.2c-0.2,0.5-0.5,0.9-0.7,1.2
				c-0.5,0.7-1.3,1.2-2.2,1.6c0,0.7-0.2,1.4-0.5,1.8c-0.4,0.5-0.9,0.8-1.5,0.9c-0.7-1.4-1.8-2.7-3.2-3.8c-1.5-1.2-2.8-1.8-4-1.8
				c-0.3-1.1-1.2-2.2-2.7-3.4c-1.5-1.1-3-1.9-4.5-2.2c0-0.6,0.1-1.2,0.5-1.7c0.4-0.5,0.9-0.8,1.7-1c0.1-1,0.5-1.9,1-2.6
				c0.3-0.3,0.6-0.7,1-1c0.4-0.3,0.7-0.5,1.1-0.8c0.3-0.3,0.7-0.6,0.9-0.9c0.4-0.5,0.7-1,0.8-1.5c0.7,0.5,1.1,0.9,1,1.2
				c0.4,0.1,0.8,0.3,1.1,0.6c0.7,0.5,1,1.2,1,2.1c-0.5-0.2-1.1-0.1-1.7,0.2c-0.7,0.3-1.2,0.7-1.6,1.2c-0.8,1-0.7,2,0.3,2.7l1.1,0.9
				c0.5,0.4,1.1,0.6,1.6,0.5c0.5-0.1,1-0.4,1.4-0.9c0.6-0.8,0.9-1.7,0.7-2.9c0.2,0.1,0.5,0.2,0.7,0.4c0.4,0.3,0.7,0.8,0.7,1.4
				c0.6-0.1,1.1,0.1,1.5,0.4c0.2,0.2,0.4,0.4,0.5,0.6C325.7,431.5,324.8,432,324.2,432.8z"/>
		</g>
		<g>
			<path fill="#FFFFFF" d="M198.4,390.6c-0.7,0-1.4-0.3-2.1-0.9c0.6-1.8,0.9-3.3,0.9-4.6c0-1.6-0.7-3.5-2-5.6
				c0.3-0.8,0.5-1.5,0.5-2.2c0-0.9-0.3-1.9-0.8-3c-0.3-0.6-1.1-1.9-2.3-4.1v11.8c0.1,3.6,0.7,6.2,1.7,7.7c-0.7,0.6-1.6,0.9-2.4,0.9
				c-0.8,0-1.5-0.3-2.2-0.9c-0.6,0.6-1.2,0.9-1.9,0.9c-0.8,0-1.5-0.3-2.2-1c1-2.2,1.5-4.7,1.5-7.5c0-2.9-0.5-5.1-1.5-6.5
				c1.1-1.4,1.6-3.6,1.6-6.6c0-2.1-0.3-4.1-1-5.8l-0.6-1.5c1.2-0.6,2.3-0.9,3.3-0.9c0.9,0,1.9,0.3,3.1,0.9c0.9-0.6,2-0.9,3.3-0.9
				c0.8,0,1.6,0.1,2.3,0.3c0.6,0.2,1.1,0.3,1.2,0.5c-0.6,1-0.9,2.4-0.9,4.1c0,2.1,0.3,3.6,0.8,4.8l1.7,5.2l1.7-5.2
				c0.5-1.1,0.7-2.7,0.7-4.8c0-1.7-0.3-3-0.9-4.1c0.1-0.2,0.5-0.3,1.2-0.5c0.8-0.2,1.6-0.3,2.3-0.3c1.3,0,2.4,0.3,3.3,0.9
				c1.1-0.6,2.2-0.9,3.1-0.9c1,0,2.1,0.3,3.3,0.9l-0.6,1.5c-0.7,1.8-1,3.7-1,5.8c0,3,0.5,5.2,1.6,6.6c-1,1.4-1.5,3.5-1.5,6.5
				c0,2.8,0.5,5.3,1.5,7.5c-0.7,0.6-1.4,1-2.2,1c-0.7,0-1.3-0.3-1.9-0.9c-0.7,0.6-1.5,0.9-2.3,0.9c-0.9,0-1.7-0.3-2.4-0.9
				c0.7-1,1.3-2.6,1.5-4.8c0.1-0.9,0.2-1.9,0.2-2.9v-11.8c-1.2,2.1-2,3.5-2.3,4.1c-0.5,1.1-0.8,2.1-0.8,3c0,0.7,0.2,1.4,0.5,2.2
				c-1.3,2.1-2,4-2,5.6c0,1.3,0.3,2.8,0.9,4.6c-0.7,0.6-1.4,0.9-2.1,0.9c-0.7,0-1.3-0.3-1.9-0.9
				C199.8,390.3,199.1,390.6,198.4,390.6z"/>
			<path fill="#FFFFFF" d="M230.5,389.6c-1.1,0.5-2.3,0.8-3.8,0.9c-1.5-0.1-2.7-0.4-3.8-0.8c-2.5-1.2-3.8-3.3-3.8-6.3v-2.8
				c-0.1-1.3-0.5-2.2-1.3-2.5c0.5-0.2,0.9-0.7,1.1-1.5c0.1-0.3,0.1-0.7,0.2-1v-2.7c0-2.9,1.3-5,3.8-6.2c1.1-0.5,2.3-0.8,3.8-0.9
				c1.5,0.1,2.7,0.4,3.8,0.9c2.5,1.2,3.8,3.3,3.8,6.2v2.7c0.1,1.3,0.5,2.2,1.3,2.5c-0.5,0.3-0.9,0.8-1.1,1.5c-0.1,0.3-0.1,0.7-0.2,1
				v2.8C234.3,386.3,233,388.4,230.5,389.6z M229.4,380.6c-0.1-1.3-0.5-2.2-1.3-2.5c0.5-0.2,0.9-0.7,1.1-1.5c0.1-0.3,0.1-0.7,0.2-1
				v-2.6c0-0.9-0.2-1.6-0.7-2.2c-0.5-0.5-1.1-0.8-1.8-0.8c-0.7,0-1.2,0.3-1.7,0.8c-0.5,0.5-0.7,1.2-0.7,2.2v2.6
				c0.1,1.3,0.5,2.2,1.3,2.5c-0.5,0.3-0.9,0.8-1.1,1.5c-0.1,0.3-0.1,0.7-0.2,1v2.6c0,0.9,0.2,1.7,0.7,2.2c0.5,0.5,1.1,0.8,1.7,0.8
				c0.7,0,1.3-0.3,1.8-0.8c0.5-0.5,0.7-1.2,0.7-2.2V380.6z"/>
			<path fill="#FFFFFF" d="M250.2,389.6c-1.1,0.5-2.3,0.8-3.8,0.9c-1.5-0.1-2.7-0.4-3.8-0.8c-2.5-1.2-3.8-3.3-3.8-6.3v-2.8
				c-0.1-1.3-0.5-2.2-1.3-2.5c0.5-0.2,0.9-0.7,1.1-1.5c0.1-0.3,0.1-0.7,0.2-1v-2.7c0-2.9,1.3-5,3.8-6.2c1.1-0.5,2.3-0.8,3.8-0.9
				c1.5,0.1,2.7,0.4,3.8,0.9c2.5,1.2,3.8,3.3,3.8,6.2v2.7c0.1,1.3,0.5,2.2,1.3,2.5c-0.5,0.3-0.9,0.8-1.1,1.5c-0.1,0.3-0.1,0.7-0.2,1
				v2.8C254,386.3,252.8,388.4,250.2,389.6z M249.1,380.6c-0.1-1.3-0.5-2.2-1.3-2.5c0.5-0.2,0.9-0.7,1.1-1.5c0.1-0.3,0.1-0.7,0.2-1
				v-2.6c0-0.9-0.2-1.6-0.7-2.2c-0.5-0.5-1.1-0.8-1.8-0.8c-0.7,0-1.2,0.3-1.7,0.8c-0.5,0.5-0.7,1.2-0.7,2.2v2.6
				c0.1,1.3,0.5,2.2,1.3,2.5c-0.5,0.3-0.9,0.8-1.1,1.5c-0.1,0.3-0.1,0.7-0.2,1v2.6c0,0.9,0.2,1.7,0.7,2.2c0.5,0.5,1.1,0.8,1.7,0.8
				c0.7,0,1.3-0.3,1.8-0.8c0.5-0.5,0.7-1.2,0.7-2.2V380.6z"/>
			<path fill="#FFFFFF" d="M268.9,372.7c-1.1-2.2-2.6-3.3-4.2-3.3c-0.8,0-1.5,0.3-2,0.8c-0.5,0.5-0.8,1.1-0.8,1.9
				c0,0.7,0.3,1.3,0.8,2c0.7,0.6,1.4,0.9,2.3,0.9c0.5,0,0.9-0.1,1.3-0.3c0.2,0.6,0.7,1.3,1.6,2c0.4,0.3,0.8,0.6,1.3,0.9
				c2.4,1.3,3.6,3.3,3.6,5.9c0,1.9-0.7,3.6-2.1,5c-1.6,1.5-3.6,2.2-6.2,2.2c-1.3,0-2.7-0.2-4.1-0.6c-0.3-0.1-0.8-0.3-1.4-0.6
				c-0.5-0.3-0.9-0.4-1.3-0.4c-0.6,0-1.2,0.2-1.9,0.7c0-0.2-0.1-0.5-0.1-0.7c0-1.2,0.4-2.1,1.3-2.6c-0.3-0.4-0.4-0.8-0.4-1.4
				c0-0.8,0.2-1.6,0.6-2.4c0.8,1.4,1.8,2.4,3.2,3.2c1.1,0.6,2.3,1,3.6,1c1,0,1.9-0.2,2.5-0.7c0.7-0.4,1-1,1-1.7
				c0-0.7-0.4-1.5-1.1-2.4c-0.7-0.6-1.6-0.9-2.7-0.9c-0.5,0-1,0.1-1.5,0.2c-0.1-1.5-0.7-2.4-1.8-2.8c-2.2-1.3-3.4-3.1-3.4-5.5
				c0-1.9,0.7-3.5,2-5c1.4-1.5,3.2-2.3,5.2-2.3c1.2,0,2.4,0.3,3.6,0.9c0.3,0.2,0.5,0.3,0.8,0.5c0.2,0.1,0.6,0.2,0.9,0.2
				c0.3,0,0.8,0,1.5-0.1c0,0.2,0.1,0.4,0.1,0.6c0,0.8-0.3,1.5-1,2.2C270.1,370.9,269.7,371.9,268.9,372.7z"/>
			<path fill="#FFFFFF" d="M283.8,379.3c-0.8,0-1.4,0.2-1.9,0.7c-0.5,0.5-0.8,1.2-0.8,2v1.8c0,1.6,0.8,2.4,2.5,2.4
				c0.9,0,1.7-0.2,2.5-0.7c0.8-0.4,1.3-1,1.5-1.6c0.9,0.6,1.3,1.5,1.3,2.6c0,0.6-0.1,1.1-0.3,1.6c0.4,0.2,0.6,0.8,0.5,1.9
				c-0.5-0.3-1.2-0.4-2.1-0.4c-0.6,0-1.1,0.1-1.7,0.2c-0.5,0.1-1.1,0.3-1.6,0.4c-0.7,0.2-1.3,0.3-1.8,0.3c-1.1,0-2.2-0.3-3.3-1
				c-0.7,0.6-1.5,0.9-2.2,0.9c-0.7,0-1.4-0.3-2-0.8c0.9-1.8,1.3-3.9,1.3-6.2c0-2.4-0.4-4.2-1.3-5.4c0.9-1.1,1.3-2.9,1.3-5.4
				c0-2.3-0.4-4.4-1.3-6.2c0.6-0.5,1.3-0.8,2-0.8c0.8,0,1.5,0.3,2.2,0.9c1.1-0.7,2.2-1,3.3-1c0.5,0,1.1,0.1,1.8,0.2
				c0.5,0.2,1.1,0.3,1.6,0.4c0.5,0.1,1.1,0.2,1.7,0.2c0.9,0,1.6-0.1,2.1-0.4c0.1,1.1-0.1,1.7-0.5,1.9c0.2,0.5,0.3,1,0.3,1.6
				c0,1.1-0.4,2-1.3,2.6c-0.2-0.6-0.7-1.1-1.5-1.6c-0.8-0.4-1.7-0.7-2.5-0.7c-1.7,0-2.5,0.8-2.5,2.4v1.8c0,0.9,0.3,1.5,0.8,2
				c0.5,0.5,1.1,0.7,1.9,0.7c1.2,0,2.4-0.5,3.4-1.5c0.1,0.3,0.2,0.6,0.2,1c0,0.7-0.3,1.3-0.8,1.8c0.5,0.5,0.8,1.1,0.8,1.8
				c0,0.4-0.1,0.7-0.2,1C286.2,379.8,285.1,379.3,283.8,379.3z"/>
			<path fill="#FFFFFF" d="M311.1,372.7c-1.1-2.2-2.5-3.3-4.2-3.3c-0.8,0-1.5,0.3-2,0.8c-0.5,0.5-0.8,1.1-0.8,1.9
				c0,0.7,0.3,1.3,0.8,2c0.7,0.6,1.4,0.9,2.3,0.9c0.5,0,0.9-0.1,1.3-0.3c0.2,0.6,0.7,1.3,1.6,2c0.4,0.3,0.8,0.6,1.3,0.9
				c2.4,1.3,3.6,3.3,3.6,5.9c0,1.9-0.7,3.6-2.1,5c-1.6,1.5-3.6,2.2-6.2,2.2c-1.3,0-2.7-0.2-4.1-0.6c-0.3-0.1-0.8-0.3-1.4-0.6
				c-0.5-0.3-0.9-0.4-1.3-0.4c-0.6,0-1.2,0.2-1.9,0.7c0-0.2-0.1-0.5-0.1-0.7c0-1.2,0.4-2.1,1.3-2.6c-0.3-0.4-0.4-0.8-0.4-1.4
				c0-0.8,0.2-1.6,0.6-2.4c0.8,1.4,1.8,2.4,3.2,3.2c1.1,0.6,2.3,1,3.6,1c1,0,1.9-0.2,2.5-0.7c0.7-0.4,1-1,1-1.7
				c0-0.7-0.4-1.5-1.1-2.4c-0.7-0.6-1.6-0.9-2.7-0.9c-0.5,0-1,0.1-1.5,0.2c-0.1-1.5-0.7-2.4-1.8-2.8c-2.2-1.3-3.4-3.1-3.4-5.5
				c0-1.9,0.7-3.5,2-5c1.4-1.5,3.2-2.3,5.2-2.3c1.2,0,2.4,0.3,3.6,0.9c0.3,0.2,0.5,0.3,0.8,0.5c0.2,0.1,0.6,0.2,0.9,0.2
				c0.3,0,0.8,0,1.5-0.1c0,0.2,0.1,0.4,0.1,0.6c0,0.8-0.3,1.5-1,2.2C312.2,370.9,311.8,371.9,311.1,372.7z"/>
		</g>
		<g>
			<path fill-rule="evenodd" clip-rule="evenodd" fill="#FFFFFF" d="M230.6,307.9c0.1,0,0.2,0,0.3,0c1,0.4-0.4,2.3,1,2.4
				c0.7,0.1,1.3,0,1.6,0c1.1,0,0.9-1.2,1.5-1.8c0.6-0.1,0.2,0.8,0.7,0.9c0.8,0,0.3-1.3,1.1-1.4c0.5,0.4,0.1,1.5,0.7,1.8
				c1.3,0.1,1.1-1.1,2-1.4c0.2,0.2,0.2,0.6,0.4,0.7c0.7,0.1,0.9-0.3,1.5-0.3c0,0.6-0.2,0.5,0,0.9c0.6,0.2,0.8-0.6,1.2-0.1
				c-0.3,1.4-0.8,2.3-1.9,3c-1.4,0.9-3.6,1.1-3.8,2.3c-0.2,1,1.5,1.9,1.2,3.5c0.9,0.6,3.1,0.6,3.5-0.4c-0.5-1.7-2-2.5-2-4.6
				c1.5,0.5,1.2,2.8,3.4,2.7c1.2-1.1-0.9-3.7,0.9-4.2c0.5,0.2,0.2,0.5,0.1,0.8c0.2,1.8,1.2,4.2,2.8,3.8c1.1-0.2,0.8-1.6,1.4-2.6
				c1.2,0.2,0.4,1.6,0.4,2.4c2.4-0.5,1.9-4.1,2.7-6.2c1.1,0,0.4,1.9,0.8,2.6c2.4,0.3,1.2-3,3.3-3.1c0.4,0.5-0.5,1.1,0,1.6
				c1.3,0.2,0.9-1.4,1.9-1.5c0.2,0.1,0,0.4,0.2,0.7c0.3,0.4,0.4-0.5,1,0.1c0.2-0.3,0.3-0.6,0.7-0.5c0,1.5-0.7,3-1.5,3.9
				c-1.9,2.4-6.7,4.7-10.6,5.2c-0.5,0.1-1,0.6-1.5,0.8c-1.1,0.4-2.3,0.2-3.4,0.5c0.2,0.5,0.8,1.3,1.6,1.8c1.4,0.8,3.8,0.6,5.7,1.4
				c1.2,0.5,2.4,1.2,3.5,1.4c2.8,0.4,5.8-0.8,8.4-0.4c3.2,0.4,5,3.5,5.8,6.4c0.2,0.6-0.6,0.2-0.7,0.5c-0.2,2.1-1.1,3.2-0.5,5.2
				c0.4,1.4,1.7,2.5,1.8,3.8c0,0.6-0.4,1.4-0.5,2.2c-0.4,2.6,0.2,5.2,0,8.4c-0.6,0.5-1,1.3-1.2,2.2c-1,0.2-2,0.3-2.8,0
				c0.2-0.6,0.6-1.1,1.1-1.5c2-4.2,1.5-12-1.8-14.5c-0.4,2.2,1.3,1.9-0.1,5.8c-1,3.6-3.2,6.1-4.1,9.8c-0.6,0.1-0.5,1-0.9,1.4
				c-0.8,0.2-1.7,0.4-2.6,0.1c-0.1-0.8,0.7-1.4,1.2-2c1.1-1.5,2-3.3,2.7-5.4c0.9-2.5,1.9-7-0.3-9.4c-2.1-2.3-4.5,2.6-9.4,0
				c-1.4,3.6-0.5,9.6,0.1,13.3c-0.4,0.7-1.2,1-1.2,2c-0.7,0.2-1.9,0.5-2.4,0c0.1-0.8,0.9-1.2,1.2-1.9c1-2.5,0-6.2-0.5-8.7
				c-1.2,2.3-0.9,6.1-1.1,9.5c-0.6,0.5-1.4,1-1.6,1.9c-0.9,0-2.1,0.4-2.7-0.1c0.4-0.9,1.1-1,1.6-1.8c2-3,0.7-7.4,0.4-11.1
				c-0.1-1,0.2-2.1,0-3c-0.4-2.5-3.3-4.4-3.9-6.8c-0.6,0.4-0.8,1-1.5,1.3c-2.8-0.9-1.2-5.4-2.7-7.5c-0.9,0-0.1,0.2-0.8,0.1
				c-2.1-0.3-2.6-3.9-0.8-5c1.1,0.2,1.5,0.8,2.7,0.5c-0.5-1-2-0.9-3.5-1c-1.6-2.4-5.4-3.3-5.4-6.8c1,0.3,0.8,1.8,1.9,2
				c0.5-1.5-1.4-3.2-0.1-4.6c0.7,0.6,0.5,2,0.9,2.7C230.7,311.9,230.2,309.4,230.6,307.9z"/>
		</g>
		<g>
			<path fill-rule="evenodd" clip-rule="evenodd" fill="#FFFFFF" d="M169.2,373.2c-0.1,0.4-5.7,2.7-8.1,3.7c2.3,1.1,8,3.3,8.1,3.7
				c-0.9,0.1-7.6-2-10-2.9c-2.1,0.9-7.9,3.6-8.1,4c-0.3,0.6-0.1,1.2-0.2,1.5c-0.3,0.8-1.3,1.6-2.6,1.3c-0.9-0.2-1.5-1.1-1.5-1.9
				c0-1.7,1.8-2.3,3.2-1.8c0.2,0.1,0.5,0.2,0.8,0.2c0.7,0,4.1-2.4,5.1-2.9c0.2-0.4,0.4-0.9,0.7-1.3c-0.4-1.4-2-2.1-3.2-2.9
				c-0.4-0.3-2.5-1.5-2.8-1.5c-0.6,0-0.9,0.5-1.3,0.6c-0.9,0.1-1.7-0.3-2-0.9c-0.2-0.4-0.1-0.8-0.3-1.3c-0.4-1-2.3-1.2-2.2-2.9
				c0.1,0,0.1-0.1,0.1,0c0.6,0.8,0.9,2,2.1,2c0.6,0,1.1-0.6,1.8-0.7c0.7,0,1.6,0.4,1.8,1.2c0.1,0.3-0.1,0.8,0.1,1.2
				c0.2,0.5,6,3.3,8.4,4.2C161.6,375.3,168.3,373.2,169.2,373.2z M147.4,370.9c-0.4,2.1,3,2.6,2.9,0.4c0-1-0.8-1.5-1.7-1.4
				C148,370,147.5,370.4,147.4,370.9z M158.7,376.7c0-0.3,0.7-0.2,0.5-0.3C158.9,376.3,158.5,376.8,158.7,376.7z M159,377.4
				c-0.3-0.2,0.4-0.6,0.6-0.7c0,0-0.1,0-0.1-0.1c-0.1,0-0.1-0.1-0.1-0.1c-0.1,0.4-0.4,0.5-0.7,0.7
				C158.7,377.3,159.1,377.6,159,377.4z M159.6,377c0-0.1,0-0.3-0.1-0.1C159.5,377,159.6,377.1,159.6,377z M159.3,377.4
				c0-0.1,0.3-0.4,0.1-0.2C159.4,377.3,159,377.4,159.3,377.4z M147.2,382.7c0,2.5,4,1.8,3.5-0.7c-0.1-0.6-0.7-1.1-1.7-1
				C148,381.2,147.2,381.7,147.2,382.7z"/>
		</g>
		<g>
			<path fill-rule="evenodd" clip-rule="evenodd" fill="#FFFFFF" d="M331.8,373.2c0.1,0.4,5.4,2.7,7.6,3.7c-2.2,1.1-7.5,3.3-7.6,3.7
				c0.8,0.1,7.2-2,9.4-2.9c2,0.9,7.5,3.6,7.6,4c0.2,0.6,0.1,1.2,0.2,1.5c0.3,0.8,1.3,1.6,2.4,1.3c0.9-0.2,1.4-1.1,1.4-1.9
				c0-1.7-1.7-2.3-3.1-1.8c-0.2,0.1-0.5,0.2-0.8,0.2c-0.6,0-3.9-2.4-4.8-2.9c-0.2-0.4-0.4-0.9-0.6-1.3c0.3-1.4,1.9-2.1,3.1-2.9
				c0.4-0.3,2.4-1.5,2.6-1.5c0.6,0,0.9,0.5,1.3,0.6c0.8,0.1,1.6-0.3,1.9-0.9c0.2-0.4,0.1-0.8,0.3-1.3c0.4-1,2.1-1.2,2.1-2.9
				c-0.1,0-0.1-0.1-0.1,0c-0.6,0.8-0.8,2-2,2c-0.6,0-1.1-0.6-1.7-0.7c-0.7,0-1.5,0.4-1.7,1.2c-0.1,0.3,0.1,0.8-0.1,1.2
				c-0.2,0.5-5.7,3.3-7.9,4.2C339,375.3,332.7,373.2,331.8,373.2z M352.4,370.9c0.4,2.1-2.8,2.6-2.8,0.4c0-1,0.7-1.5,1.6-1.4
				C351.9,370,352.3,370.4,352.4,370.9z M341.8,376.7c0-0.3-0.6-0.2-0.5-0.3C341.6,376.3,342,376.8,341.8,376.7z M341.5,377.4
				c0.3-0.2-0.3-0.6-0.6-0.7c0,0,0.1,0,0.1-0.1c0.1,0,0.1-0.1,0.1-0.1c0.1,0.4,0.4,0.5,0.7,0.7C341.8,377.3,341.4,377.6,341.5,377.4
				z M340.9,377c0-0.1,0-0.3,0.1-0.1C341,377,340.9,377.1,340.9,377z M341.1,377.4c0-0.1-0.3-0.4-0.1-0.2
				C341.1,377.3,341.5,377.4,341.1,377.4z M352.6,382.7c0,2.5-3.8,1.8-3.3-0.7c0.1-0.6,0.6-1.1,1.6-1
				C351.9,381.2,352.6,381.7,352.6,382.7z"/>
		</g>
		<rect x="177.8" y="352" fill-rule="evenodd" clip-rule="evenodd" fill="#FFFFFF" width="144" height="5.7"/>
		<polygon fill-rule="evenodd" clip-rule="evenodd" points="302.8,361.1 289,361.1 285.6,350.8 306.1,350.8 		"/>
		<rect x="177.8" y="393.4" fill-rule="evenodd" clip-rule="evenodd" fill="#FFFFFF" width="144" height="5.7"/>
		<g>
			<path d="M234.7,404.8l-29,22c0,0,0,0,0.1,0l29.1-22.1C234.8,404.8,234.8,404.8,234.7,404.8z"/>
			<path d="M276.4,409.3l-19.7,14.9c0,0,0,0,0.1,0L276.4,409.3C276.4,409.3,276.4,409.3,276.4,409.3z"/>
			<path fill="#FFFFFF" d="M222.5,411c-2,1.2-4.4,2.6-7.2,4c-2.5,1.3-6,3.2-8.6,2.1c-0.7-0.3-1.1-0.9-1.4-1.6l-5.6,4.2
				c1.1,3.2,3.4,5.6,6.2,7.2l29-22C230.6,406,226.4,408.7,222.5,411z"/>
			<path fill="#9C0001" d="M207.1,405.9c-4.8,0-8,5-8.1,9.1c-0.1,1.7,0.2,3.2,0.6,4.5c0,0.1,0,0.1,0.1,0.2l5.6-4.2
				c0-0.1,0-0.1-0.1-0.2c-0.9-2.5,0.1-6.7,2.7-7.5c1.5-0.5,2.3-0.2,4.4,0.5C211.7,406.4,208.9,405.9,207.1,405.9z"/>
			<path fill="#FFFFFF" d="M260.7,404.3c-4.5,0.2-7,2.1-10.7,4c-0.6-0.4-1.2-0.9-1.9-1.3L217.6,430c6.5,0.4,13.2-0.8,19-2.7
				l29.7-22.6C264.6,404.4,262.7,404.2,260.7,404.3z"/>
			<path fill="#0A4569" d="M247.9,406.9c-2.8-1.7-6.3-2.9-10.2-2.6c-0.9,0.1-1.8,0.3-2.8,0.5l-29.1,22.1c1.3,0.8,2.8,1.4,4.2,1.8
				c2.4,0.7,4.8,1.1,7.4,1.3c0.1,0,0.2,0,0.3,0L248,407C248,406.9,247.9,406.9,247.9,406.9z"/>
			<path fill="#9C0001" d="M266.6,404.8c-0.1,0-0.2,0-0.2-0.1l-29.7,22.6c0.2-0.1,0.4-0.1,0.5-0.2c2.5-0.9,4.8-1.8,6.8-2.9
				c2.4-1.3,4.5-2.8,6.5-4.2c1.9,1.5,4,2.9,6.3,4.1l19.7-14.9C273.4,407.4,270.2,405.7,266.6,404.8z"/>
			<path fill="#FFFFFF" d="M285,414.8c-0.5-0.3-0.9-0.5-1.4-0.8c-2.4-1.5-4.7-3.2-7.2-4.7l-19.7,14.9c3.1,1.7,6.6,3.1,10.5,4.1
				L285,414.8z"/>
			<path fill="#FFFFFF" d="M295.2,405.2c-3.8-0.8-6.3,1.2-7,3.5c1.7-1.8,4-1.8,5.7-0.7l2.9-2.2C296.3,405.5,295.8,405.3,295.2,405.2
				z"/>
			<path fill="#FFFFFF" d="M284.8,429.8c4.9-0.4,10.5-2.3,13.5-5.1c2.5-2.3,4.4-6.7,4-10.9L281,430
				C282.2,430,283.5,429.9,284.8,429.8z"/>
			<path fill="#0A4569" d="M302.3,413.7c0-0.2,0-0.4-0.1-0.7c-0.4-2.7-2.7-5.9-5.3-7.3c0,0,0,0-0.1,0L294,408c0,0,0,0,0.1,0
				c1.8,1.2,3,3.8,2.1,6.7c-2.9,3.7-7.4,2.2-11.1,0.1c0,0,0,0-0.1,0l-17.8,13.5c0,0,0.1,0,0.1,0c4.2,1.1,8.7,1.7,13.6,1.7
				c0,0,0.1,0,0.1,0L302.3,413.7C302.3,413.8,302.3,413.8,302.3,413.7z"/>
		</g>
		<g id="lmXyGe_1_">
			<g>
				<path fill-rule="evenodd" clip-rule="evenodd" fill="#FFFFFF" d="M298.9,350.1c-0.1,0.4,0,1-0.3,1.3c-0.7,0.3-0.9-0.1-1.5,0
					c-0.6,1.5-2.3,2.4-3,3.8c0.5-0.2-0.1,0.7-0.1,0.2c0.1,0,0.2-0.2,0-0.2c-0.5,0.5,0.1,0.9-0.6,0.5c0,0.5,0,0.9-0.3,0.4
					c-0.6,0.3,0.1,0.4-0.2,0.8c-1.1,0.7-1.9,2.3-2.9,2.6c0.9-0.9,2.5-2.1,2.7-2.9c-0.8,1.2-2.9,2.5-3.6,3.5
					c-0.3,0.4,0.3,0.6-0.4,0.6c0,0.1,0,0.1,0,0.2c0.4,0.4,0.5,1.2,1.2,1.2c2-1.9,4-3.8,5.7-6c0-0.5-0.3-0.4-0.4-0.8
					c0.7-0.4,1-1.1,1.9-1.3c1.4,4.5-0.8,8.3,0,12.1c0.1,0.5,0.1,1.3,0.7,1.6c0.1,0,0.1,0,0.2,0c2.7-2.6,1.7-10.7,0.6-15.3
					c0.6-0.4,0.9-1,1.1-1.7c-0.1-0.3-0.1-0.7-0.3-0.7C299.2,350.1,299.1,350.1,298.9,350.1z M289.9,359.9
					C289.1,360.9,289.3,359.7,289.9,359.9L289.9,359.9z M289.5,361.6c1.6-2,3.2-4.1,5.3-5.7C293.6,358,291.3,360.3,289.5,361.6z"/>
			</g>
		</g>
	</g>
	<path display="none" fill-rule="evenodd" clip-rule="evenodd" fill="#0D0D0D" d="M149,573.6c0.6-0.8,0.7-1.6,0.7-2.5
		c-0.2-0.3-0.3-0.8-0.7-0.7c-0.1,0.1-0.3,0.2-0.4,0.2c0,0.6,0.4,1.3,0.2,1.8c-0.8,0.7-1.2,0.2-1.9,0.5c-0.2,2.1-2.4,5.9-2.4,5.9
		l-3.5,6.1c-0.3,0.3-1,1.5-1.2,2.1c-0.1,0.3,0,0.5,0.1,0.6l0,0.1h0c0,0.1-0.1,0.1-0.4,0.3c0,0.1,0.1,0.1,0.1,0.2
		c0.7,0.3,1.1,1.3,1.9,1c1.8-3.2,3.6-6.4,4.9-9.7c-0.2-0.7-0.6-0.4-0.8-0.9c0.7-0.8,0.9-1.7,1.9-2.4c3.5,5.1,2.1,10.8,4.5,15.3
		c0.3,0.6,0.7,1.6,1.5,1.8c0.1,0,0.1-0.1,0.2-0.1C156.5,588.9,152.2,579,149,573.6z M146.1,579.6c0,0.2-0.2,0.3-0.4,0.3
		c-0.2,0-0.3-0.2-0.3-0.4c0-0.2,0.2-0.3,0.4-0.3C145.9,579.2,146.1,579.4,146.1,579.6z"/>
	<path display="none" fill-rule="evenodd" clip-rule="evenodd" fill="#0D0D0D" d="M344.2,593.2c0.1,0,0.1,0.1,0.2,0.1
		c0.9-0.2,1.2-1.2,1.5-1.8c2.4-4.6,1-10.2,4.5-15.3c1,0.7,1.2,1.6,1.9,2.4c-0.2,0.5-0.6,0.2-0.8,0.9c1.3,3.3,3.1,6.5,4.9,9.7
		c0.8,0.3,1.3-0.8,1.9-1c0-0.1,0.1-0.1,0.1-0.2c-0.3-0.1-0.4-0.2-0.4-0.3h0l0-0.1c0.1-0.1,0.2-0.3,0.1-0.6c-0.2-0.6-0.9-1.8-1.2-2.1
		l-3.5-6.1c0,0-2.2-3.8-2.4-5.9c-0.7-0.4-1.1,0.1-1.9-0.5c-0.2-0.5,0.2-1.2,0.2-1.8c-0.1-0.1-0.3-0.2-0.4-0.2
		c-0.3-0.1-0.5,0.4-0.7,0.7c0.1,0.9,0.2,1.8,0.7,2.5C346,579,341.7,588.9,344.2,593.2z M352.5,579.2c0.2,0,0.4,0.1,0.4,0.3
		c0,0.2-0.1,0.4-0.3,0.4c-0.2,0-0.4-0.1-0.4-0.3C352.1,579.4,352.3,579.2,352.5,579.2z"/>
	<g>
		<g id="its_not">
			<g id="_its_not_1_">
				<path fill="#FFFFFF" d="M127.8,535.8c-0.5,0.4-0.9,0.6-1.4,0.6c-0.5,0-1-0.2-1.4-0.6c0.6-1.3,0.9-2.8,0.9-4.4
					c0-1.7-0.3-3-0.9-3.8c0.6-0.8,0.9-2.1,0.9-3.8c0-1.6-0.3-3.1-0.9-4.4c0.4-0.4,0.9-0.6,1.4-0.6c0.5,0,1,0.2,1.4,0.6
					c0.5-0.4,1-0.6,1.5-0.6c0.5,0,1,0.2,1.4,0.6c-0.6,1.3-0.9,2.8-0.9,4.4c0,1.7,0.3,3,0.9,3.8c-0.6,0.8-0.9,2.1-0.9,3.8
					c0,1.7,0.3,3.1,0.9,4.4c-0.4,0.4-0.9,0.6-1.4,0.6C128.7,536.5,128.3,536.3,127.8,535.8z"/>
				<path fill="#FFFFFF" d="M144.3,523c0,0.5-0.2,0.9-0.5,1.2c-1.4-0.7-2.5-1.1-3.4-1.1c-0.4,0-0.8,0.1-1.1,0.2
					c-0.1,1.9,0.2,3.3,0.9,4.2c-0.6,0.8-0.9,2.1-0.9,3.8c0,1.7,0.3,3.1,0.9,4.4c-0.4,0.4-0.9,0.6-1.4,0.6c-0.5,0-1-0.2-1.4-0.7
					c-0.5,0.4-1,0.7-1.5,0.7c-0.5,0-1-0.2-1.4-0.6c0.6-1.3,0.9-2.8,0.9-4.4c0-1.7-0.3-3-0.9-3.8c0.6-0.9,0.9-2.3,0.9-4.1
					c-0.2-0.2-0.6-0.4-1.2-0.4c-0.9,0-2,0.4-3.4,1.1c-0.3-0.3-0.5-0.7-0.5-1.2c0-0.5,0.2-1.1,0.5-1.6c-0.3-0.3-0.4-0.7-0.4-1.2
					c0-0.5,0.1-0.9,0.4-1.3c0.9,0.4,2,0.7,3.2,0.7c1.1,0,2.2-0.2,3.2-0.7c1.1,0.4,2.1,0.7,3.2,0.7c1.2,0,2.3-0.2,3.2-0.7
					c0.3,0.4,0.4,0.8,0.4,1.3c0,0.5-0.1,0.9-0.4,1.2C144.2,521.9,144.3,522.5,144.3,523z"/>
				<path fill="#FFFFFF" d="M152.4,523.9c-0.8-1.6-1.8-2.3-3-2.3c-0.6,0-1,0.2-1.4,0.5c-0.4,0.4-0.6,0.8-0.6,1.3
					c0,0.5,0.2,0.9,0.5,1.4c0.5,0.4,1,0.6,1.6,0.6c0.3,0,0.6-0.1,0.9-0.2c0.1,0.5,0.5,0.9,1.1,1.4c0.3,0.2,0.6,0.4,0.9,0.6
					c1.7,0.9,2.5,2.3,2.5,4.1c0,1.4-0.5,2.5-1.5,3.5c-1.1,1.1-2.5,1.6-4.4,1.6c-0.9,0-1.9-0.1-2.9-0.4c-0.2-0.1-0.5-0.2-1-0.4
					c-0.4-0.2-0.7-0.3-0.9-0.3c-0.4,0-0.8,0.2-1.3,0.5c0-0.2,0-0.3,0-0.5c0-0.9,0.3-1.5,0.9-1.8c-0.2-0.2-0.3-0.6-0.3-1
					c0-0.5,0.1-1.1,0.4-1.7c0.5,1,1.3,1.7,2.2,2.2c0.8,0.5,1.6,0.7,2.5,0.7c0.7,0,1.3-0.2,1.8-0.5c0.5-0.3,0.7-0.7,0.7-1.2
					c0-0.5-0.3-1.1-0.8-1.7c-0.5-0.4-1.1-0.6-1.9-0.6c-0.4,0-0.7,0.1-1.1,0.2c-0.1-1-0.5-1.7-1.3-2c-1.6-0.9-2.4-2.2-2.4-3.9
					c0-1.3,0.5-2.5,1.4-3.5c1-1.1,2.2-1.6,3.6-1.6c0.8,0,1.7,0.2,2.5,0.6c0.2,0.1,0.4,0.2,0.5,0.3c0.2,0.1,0.4,0.2,0.6,0.2
					c0.2,0,0.6,0,1-0.1c0,0.1,0,0.3,0,0.4c0,0.5-0.2,1.1-0.7,1.6C153.1,522.7,152.9,523.3,152.4,523.9z"/>
				<path fill="#FFFFFF" d="M172.1,526c0.3-0.7,0.5-1.6,0.5-2.7c0-1.8-0.3-3.1-1-3.7c0.4-0.4,0.8-0.6,1.3-0.6c0.5,0,0.9,0.2,1.4,0.6
					c0.4-0.4,0.9-0.6,1.4-0.6c0.5,0,0.9,0.2,1.3,0.6l-0.3,0.9c-0.4,1-0.6,2.2-0.6,3.4c0,1.7,0.3,3,0.9,3.9c-0.6,0.8-0.9,2.1-0.9,3.8
					c0,1.7,0.3,3.1,0.9,4.4c-0.4,0.4-0.8,0.6-1.2,0.6c-0.5,0-0.9-0.2-1.3-0.6c-0.4,0.4-0.8,0.6-1.3,0.6c-0.5,0-0.9-0.2-1.2-0.6
					c0.6-0.7,0.9-1.5,0.9-2.4c0-1-0.3-1.9-1-2.8l-2.7-3.4c-0.5,1.1-0.8,2.3-0.8,3.9c0,1.6,0.3,3.2,1,4.8c-0.4,0.4-0.8,0.6-1.3,0.6
					c-0.5,0-0.9-0.2-1.4-0.6c-0.4,0.4-0.9,0.6-1.4,0.6c-0.5,0-0.9-0.2-1.3-0.6c0.6-1.3,0.9-2.8,0.9-4.4c0-1.7-0.3-3-0.9-3.8
					c0.6-0.9,0.9-2.2,0.9-3.9c0-1.3-0.2-2.4-0.6-3.4l-0.4-0.9c0.4-0.4,0.8-0.6,1.3-0.6c0.5,0,0.9,0.2,1.4,0.6
					c0.4-0.4,0.9-0.6,1.4-0.6c0.5,0,0.9,0.2,1.3,0.6c-0.2,0.5-0.3,1-0.3,1.4c0,0.6,0.2,1.1,0.5,1.6L172.1,526z"/>
				<path fill="#FFFFFF" d="M185.7,535.8c-0.7,0.4-1.6,0.6-2.6,0.7c-1-0.1-1.9-0.3-2.7-0.6c-1.8-0.8-2.7-2.3-2.7-4.4v-2
					c0-0.9-0.3-1.5-0.9-1.8c0.4-0.2,0.6-0.5,0.8-1.1c0.1-0.2,0.1-0.5,0.1-0.7V524c0-2.1,0.9-3.5,2.7-4.4c0.7-0.4,1.6-0.6,2.7-0.7
					c1,0.1,1.9,0.3,2.7,0.7c1.8,0.9,2.7,2.3,2.7,4.4v1.9c0,0.9,0.3,1.5,0.9,1.8c-0.4,0.2-0.6,0.5-0.8,1.1c-0.1,0.2-0.1,0.5-0.1,0.7
					v2C188.3,533.5,187.4,534.9,185.7,535.8z M184.9,529.4c0-0.9-0.3-1.5-0.9-1.8c0.4-0.2,0.6-0.5,0.8-1.1c0.1-0.2,0.1-0.5,0.1-0.7
					v-1.8c0-0.6-0.2-1.1-0.5-1.5c-0.4-0.4-0.8-0.5-1.2-0.5c-0.5,0-0.9,0.2-1.2,0.5c-0.4,0.4-0.5,0.9-0.5,1.5v1.8
					c0,0.9,0.3,1.5,0.9,1.8c-0.4,0.2-0.6,0.5-0.8,1.1c-0.1,0.2-0.1,0.5-0.1,0.7v1.8c0,0.7,0.2,1.2,0.5,1.5c0.4,0.4,0.8,0.5,1.2,0.5
					c0.5,0,0.9-0.2,1.2-0.5s0.5-0.9,0.5-1.5V529.4z"/>
				<path fill="#FFFFFF" d="M202,523c0,0.5-0.2,0.9-0.5,1.2c-1.4-0.7-2.5-1.1-3.4-1.1c-0.4,0-0.8,0.1-1.1,0.2
					c-0.1,1.9,0.2,3.3,0.9,4.2c-0.6,0.8-0.9,2.1-0.9,3.8c0,1.7,0.3,3.1,0.9,4.4c-0.4,0.4-0.9,0.6-1.4,0.6c-0.5,0-1-0.2-1.4-0.7
					c-0.5,0.4-1,0.7-1.5,0.7c-0.5,0-1-0.2-1.4-0.6c0.6-1.3,0.9-2.8,0.9-4.4c0-1.7-0.3-3-0.9-3.8c0.6-0.9,0.9-2.3,0.9-4.1
					c-0.2-0.2-0.6-0.4-1.2-0.4c-0.9,0-2,0.4-3.4,1.1c-0.3-0.3-0.5-0.7-0.5-1.2c0-0.5,0.2-1.1,0.5-1.6c-0.3-0.3-0.4-0.7-0.4-1.2
					c0-0.5,0.1-0.9,0.4-1.3c0.9,0.4,2,0.7,3.2,0.7c1.1,0,2.2-0.2,3.2-0.7c1.1,0.4,2.1,0.7,3.2,0.7c1.2,0,2.3-0.2,3.2-0.7
					c0.3,0.4,0.4,0.8,0.4,1.3c0,0.5-0.1,0.9-0.4,1.2C201.8,521.9,202,522.5,202,523z"/>
				<path fill="#FFFFFF" d="M221.5,525.8c0,0.9,0.3,1.5,0.9,1.8c-0.4,0.2-0.6,0.5-0.8,1.1c-0.1,0.2-0.1,0.5-0.1,0.7v1.9
					c0,0.2,0,0.4,0,0.6c0,1.9-0.9,3.2-2.6,3.9c-0.7,0.3-1.6,0.5-2.6,0.6c-0.2,0-0.5,0-0.7,0c-1.9,0-3.3-0.7-4.1-2.1
					c-0.3-0.6-0.5-1.2-0.6-2c0.1-0.9-0.1-1.5-0.5-1.9c0.3-0.3,0.6-0.5,1-0.5c0.4,0,0.7,0.1,1,0.4c0.2-0.5,0.7-0.8,1.5-0.8
					c0.5,0,0.9,0.1,1.1,0.3c-0.4,0.6-0.6,1.2-0.6,1.8c0,0.5,0.1,0.9,0.4,1.2c0.3,0.3,0.7,0.4,1.1,0.4h0.1c0.7,0,1.2-0.2,1.5-0.6
					c0.2-0.3,0.3-0.8,0.3-1.5v-1.8c0-0.9-0.3-1.5-0.9-1.8c0.4-0.2,0.6-0.5,0.8-1.1c0.1-0.2,0.1-0.5,0.1-0.7V524
					c0-1.3-0.2-2.3-0.5-2.9c-0.1-0.3-0.6-0.8-1.3-1.5c0.6-0.4,1.2-0.6,1.7-0.6c0.5,0,1,0.2,1.5,0.5c0.5-0.4,1-0.6,1.6-0.6
					c0.5,0,1,0.2,1.4,0.6c-0.6,0.6-0.8,2-0.8,4.4V525.8z"/>
				<path fill="#FFFFFF" d="M231.4,535.8c-0.7,0.4-1.6,0.6-2.7,0.7c-1.1-0.1-1.9-0.3-2.7-0.6c-1.8-0.8-2.7-2.3-2.7-4.5v-2
					c0-0.9-0.3-1.5-0.9-1.8c0.4-0.2,0.6-0.5,0.8-1.1c0.1-0.2,0.1-0.5,0.1-0.7v-1.9c0-1.8-0.4-3.2-1.1-4.3c0.5-0.4,1.1-0.6,1.6-0.6
					c0.5,0,0.9,0.2,1.4,0.6c0.5-0.4,1-0.6,1.5-0.6c0.5,0,0.9,0.2,1.4,0.5c-0.6,1.2-1,2.7-1,4.5v1.8c0,0.9,0.3,1.5,0.9,1.8
					c-0.4,0.2-0.6,0.5-0.8,1.1c-0.1,0.2-0.1,0.5-0.1,0.7v1.8c0,0.6,0.2,1.2,0.5,1.6c0.3,0.3,0.7,0.5,1.2,0.5c0.5,0,0.9-0.2,1.2-0.5
					c0.4-0.4,0.5-0.9,0.5-1.6v-1.8c0-0.9-0.3-1.5-0.9-1.8c0.4-0.2,0.6-0.5,0.8-1.1c0.1-0.2,0.1-0.5,0.1-0.7v-1.8
					c0-1.7-0.3-3.2-1-4.5c0.4-0.4,0.9-0.5,1.4-0.5c0.5,0,1,0.2,1.4,0.6c0.3-0.4,0.7-0.6,1.2-0.6c0.5,0,1,0.2,1.5,0.6
					c-0.4,0.7-0.7,1.6-0.9,2.8c-0.1,0.5-0.1,1-0.1,1.5v1.9c0,0.9,0.4,1.5,0.9,1.8c-0.4,0.2-0.6,0.5-0.8,1.1
					c-0.1,0.2-0.1,0.5-0.1,0.7v2C234.1,533.5,233.2,534.9,231.4,535.8z"/>
				<path fill="#FFFFFF" d="M243,523.9c-0.8-1.6-1.8-2.3-3-2.3c-0.6,0-1,0.2-1.4,0.5c-0.4,0.4-0.6,0.8-0.6,1.3
					c0,0.5,0.2,0.9,0.5,1.4c0.5,0.4,1,0.6,1.6,0.6c0.3,0,0.6-0.1,0.9-0.2c0.1,0.5,0.5,0.9,1.1,1.4c0.3,0.2,0.6,0.4,0.9,0.6
					c1.7,0.9,2.5,2.3,2.5,4.1c0,1.4-0.5,2.5-1.5,3.5c-1.1,1.1-2.5,1.6-4.4,1.6c-0.9,0-1.9-0.1-2.9-0.4c-0.2-0.1-0.5-0.2-1-0.4
					c-0.4-0.2-0.7-0.3-0.9-0.3c-0.4,0-0.8,0.2-1.3,0.5c0-0.2,0-0.3,0-0.5c0-0.9,0.3-1.5,0.9-1.8c-0.2-0.2-0.3-0.6-0.3-1
					c0-0.5,0.1-1.1,0.4-1.7c0.5,1,1.3,1.7,2.2,2.2c0.8,0.5,1.6,0.7,2.5,0.7c0.7,0,1.3-0.2,1.8-0.5c0.5-0.3,0.7-0.7,0.7-1.2
					c0-0.5-0.3-1.1-0.8-1.7c-0.5-0.4-1.1-0.6-1.9-0.6c-0.4,0-0.7,0.1-1.1,0.2c-0.1-1-0.5-1.7-1.3-2c-1.6-0.9-2.4-2.2-2.4-3.9
					c0-1.3,0.5-2.5,1.4-3.5c1-1.1,2.2-1.6,3.6-1.6c0.8,0,1.7,0.2,2.5,0.6c0.2,0.1,0.4,0.2,0.5,0.3c0.2,0.1,0.4,0.2,0.6,0.2
					c0.2,0,0.6,0,1-0.1c0,0.1,0,0.3,0,0.4c0,0.5-0.2,1.1-0.7,1.6C243.8,522.7,243.6,523.3,243,523.9z"/>
				<path fill="#FFFFFF" d="M258,523c0,0.5-0.2,0.9-0.5,1.2c-1.4-0.7-2.5-1.1-3.4-1.1c-0.4,0-0.8,0.1-1.1,0.2
					c-0.1,1.9,0.2,3.3,0.9,4.2c-0.6,0.8-0.9,2.1-0.9,3.8c0,1.7,0.3,3.1,0.9,4.4c-0.4,0.4-0.9,0.6-1.4,0.6c-0.5,0-1-0.2-1.4-0.7
					c-0.5,0.4-1,0.7-1.5,0.7c-0.5,0-1-0.2-1.4-0.6c0.6-1.3,0.9-2.8,0.9-4.4c0-1.7-0.3-3-0.9-3.8c0.6-0.9,0.9-2.3,0.9-4.1
					c-0.2-0.2-0.6-0.4-1.2-0.4c-0.9,0-2,0.4-3.4,1.1c-0.3-0.3-0.5-0.7-0.5-1.2c0-0.5,0.2-1.1,0.5-1.6c-0.3-0.3-0.4-0.7-0.4-1.2
					c0-0.5,0.1-0.9,0.4-1.3c0.9,0.4,2,0.7,3.2,0.7c1.1,0,2.2-0.2,3.2-0.7c1.1,0.4,2.1,0.7,3.2,0.7c1.2,0,2.3-0.2,3.2-0.7
					c0.3,0.4,0.4,0.8,0.4,1.3c0,0.5-0.1,0.9-0.4,1.2C257.9,521.9,258,522.5,258,523z"/>
				<path fill="#FFFFFF" d="M277.8,536.5c-0.5,0-0.8-0.1-0.9-0.4c0.4-0.8,0.5-1.6,0.5-2.3c0-0.9-0.3-1.7-0.8-2.3
					c-0.5-0.6-1.2-0.9-2-0.9c-0.8,0-1.5,0.3-2,0.9c-0.5,0.6-0.8,1.4-0.8,2.3c0,0.8,0.2,1.5,0.5,2.3c-0.1,0.3-0.4,0.4-0.9,0.4
					c-0.5,0-1.1-0.1-1.8-0.4c-0.3,0.3-0.7,0.4-1.2,0.4c-0.6,0-1.2-0.2-1.8-0.5c2.1-2.1,3.2-4.5,3.2-7c0-0.5,0-0.9-0.1-1.2
					c1.8-2.2,2.6-4.3,2.6-6.5c0-0.8-0.1-1.3-0.4-1.7c0.4-0.4,0.9-0.6,1.3-0.6c0.5,0,1,0.2,1.4,0.6c0.4-0.4,0.9-0.6,1.4-0.6
					c0.5,0,0.9,0.2,1.4,0.6c-0.3,0.4-0.4,1-0.4,1.7c0,2.1,0.9,4.3,2.6,6.5c-0.1,0.3-0.1,0.7-0.1,1.2c0,2.6,1.1,4.9,3.2,7
					c-0.7,0.4-1.3,0.5-1.8,0.5c-0.5,0-0.9-0.1-1.2-0.4C278.9,536.3,278.3,536.5,277.8,536.5z M274.7,525c-0.6,1-0.9,2-0.9,3
					c0.4-0.2,0.6-0.2,0.9-0.2s0.5,0.1,0.9,0.2C275.5,527.1,275.2,526,274.7,525z"/>
				<path fill="#FFFFFF" d="M299.3,522.2c-0.1-1.3-0.4-2.2-0.9-2.7c0.4-0.4,0.9-0.6,1.4-0.6c0.5,0,1,0.2,1.4,0.6
					c0.5-0.4,0.9-0.6,1.4-0.6c0.5,0,1,0.2,1.4,0.6c-0.6,1.3-0.9,2.8-0.9,4.4c0,1.7,0.3,3,0.9,3.8c-0.6,0.8-0.9,2.1-0.9,3.8
					c0,1.7,0.3,3.1,0.9,4.4c-0.4,0.4-0.9,0.6-1.4,0.6c-0.5,0-1-0.2-1.4-0.6c-0.5,0.4-0.9,0.6-1.4,0.6c-0.5,0-1-0.2-1.4-0.6
					c0.5-0.5,0.8-1.4,0.9-2.7c0-0.4,0-1.3,0-2.7c0-0.9-0.3-1.4-0.9-1.6c-0.2-0.1-0.4-0.1-0.6-0.1c-0.2,0-0.4,0-0.6,0.1
					c-0.6,0.2-0.9,0.8-0.9,1.6c0,1.5,0,2.4,0,2.7c0.1,1.3,0.4,2.2,0.9,2.7c-0.4,0.4-0.9,0.6-1.4,0.6c-0.5,0-1-0.2-1.5-0.6
					c-0.5,0.4-0.9,0.6-1.4,0.6c-0.5,0-1-0.2-1.4-0.6c0.6-1.3,0.9-2.8,0.9-4.4c0-1.7-0.3-3-0.9-3.8c0.6-0.8,0.9-2.1,0.9-3.8
					c0-1.6-0.3-3.1-0.9-4.4c0.4-0.4,0.9-0.6,1.4-0.6c0.5,0,1,0.2,1.4,0.6c0.5-0.4,1-0.6,1.5-0.6c0.5,0,1,0.2,1.4,0.6
					c-0.5,0.5-0.8,1.4-0.9,2.7c0,0.4,0,1.3,0,2.7c0,0.9,0.3,1.4,0.9,1.6c0.2,0.1,0.5,0.1,0.6,0.1c0.2,0,0.4,0,0.6-0.1
					c0.6-0.2,0.9-0.8,0.9-1.6C299.3,523.5,299.3,522.5,299.3,522.2z"/>
				<path fill="#FFFFFF" d="M315.1,536.5c-0.5,0-0.8-0.1-0.9-0.4c0.4-0.8,0.5-1.6,0.5-2.3c0-0.9-0.3-1.7-0.8-2.3
					c-0.5-0.6-1.2-0.9-2-0.9c-0.8,0-1.5,0.3-2,0.9c-0.5,0.6-0.8,1.4-0.8,2.3c0,0.8,0.2,1.5,0.5,2.3c-0.1,0.3-0.4,0.4-0.9,0.4
					c-0.5,0-1.1-0.1-1.8-0.4c-0.3,0.3-0.7,0.4-1.2,0.4c-0.6,0-1.2-0.2-1.8-0.5c2.1-2.1,3.2-4.5,3.2-7c0-0.5,0-0.9-0.1-1.2
					c1.8-2.2,2.6-4.3,2.6-6.5c0-0.8-0.1-1.3-0.4-1.7c0.4-0.4,0.9-0.6,1.3-0.6c0.5,0,1,0.2,1.4,0.6c0.4-0.4,0.9-0.6,1.4-0.6
					c0.5,0,0.9,0.2,1.4,0.6c-0.3,0.4-0.4,1-0.4,1.7c0,2.1,0.9,4.3,2.6,6.5c-0.1,0.3-0.1,0.7-0.1,1.2c0,2.6,1.1,4.9,3.2,7
					c-0.7,0.4-1.3,0.5-1.8,0.5c-0.5,0-0.9-0.1-1.2-0.4C316.2,536.3,315.6,536.5,315.1,536.5z M312,525c-0.6,1-0.9,2-0.9,3
					c0.4-0.2,0.6-0.2,0.9-0.2c0.2,0,0.5,0.1,0.9,0.2C312.8,527.1,312.6,526,312,525z"/>
				<path fill="#FFFFFF" d="M322.3,535.8c-0.5,0.4-0.9,0.6-1.4,0.6c-0.5,0-1-0.2-1.4-0.6c0.6-1.3,0.9-2.8,0.9-4.4
					c0-1.7-0.3-3-0.9-3.8c0.6-0.8,0.9-2.1,0.9-3.8c0-1.6-0.3-3.1-0.9-4.4c0.4-0.4,0.9-0.6,1.4-0.6c0.5,0,1,0.2,1.4,0.6
					c0.5-0.4,1-0.6,1.5-0.6c0.5,0,1,0.2,1.4,0.6c-0.6,1.3-0.9,2.8-0.9,4.4c0,1.7,0.3,3,0.9,3.8c-0.6,0.8-0.9,2.1-0.9,3.8
					c0,1.7,0.3,3.1,0.9,4.4c-0.4,0.4-0.9,0.6-1.4,0.6C323.3,536.5,322.8,536.3,322.3,535.8z"/>
				<path fill="#FFFFFF" d="M336.7,536.5c-1.2,0-2.4-0.5-3.5-1.4c0.5-0.6,0.7-1.2,0.7-1.7c0-0.6-0.3-1.4-1-2.3
					c0.2-0.3,0.3-0.6,0.3-0.9c0-0.5-0.2-0.8-0.6-1.2c-0.4-0.3-0.8-0.5-1.3-0.5c-0.5,0-0.9,0.2-1.2,0.6c-0.4,0.5-0.5,1.1-0.5,2
					c0,2.2,0.4,3.8,1.3,4.7c-0.4,0.4-0.9,0.5-1.4,0.5c-0.5,0-1.1-0.2-1.6-0.6c-0.5,0.4-1,0.6-1.6,0.6c-0.5,0-1-0.2-1.4-0.5
					c0.6-1.3,0.9-2.7,0.9-4.3c0-1.7-0.3-2.9-0.9-3.7c0.6-0.8,0.9-2.1,0.9-3.7c0-1.6-0.3-3.1-0.9-4.3c0.4-0.4,0.9-0.6,1.4-0.6
					c0.5,0,1.1,0.2,1.6,0.6c1-0.5,2.1-0.7,3.3-0.7c1.4,0,2.6,0.3,3.6,0.9c1.1,0.6,1.6,1.4,1.6,2.3c0,0.9,0.3,1.5,0.8,1.8
					c-0.4,0.2-0.6,0.5-0.8,1.1c-0.1,0.2-0.1,0.5-0.1,0.7c-0.1,0.8-0.6,1.5-1.6,1.9c0.6,0.3,1,0.6,1.3,1.1c0.1,0.2,0.2,0.4,0.2,0.6
					c0,0.7,0.2,1.1,0.8,1.4c0,0,0.1,0.3,0.2,0.9c0.1,0.8,0.2,1.5,0.4,2c0.3,0.9,0.7,1.6,1.3,2.2
					C338.3,536.3,337.5,536.5,336.7,536.5z M332.9,523.2c0-0.3-0.1-0.6-0.4-0.9c-0.3-0.2-0.6-0.4-1-0.4c-0.5,0-0.9,0.2-1.2,0.5
					c-0.4,0.4-0.6,1-0.6,1.8s0.2,1.4,0.6,1.8c0.3,0.4,0.7,0.5,1.2,0.5c0.4,0,0.7-0.1,1-0.3c0.3-0.2,0.4-0.5,0.4-0.9
					c0-0.4-0.2-0.7-0.5-1.1C332.8,524,332.9,523.6,332.9,523.2z"/>
				<path fill="#FFFFFF" d="M345.4,529.7c0.7,0,1.2,0.2,1.5,0.7c0.3-0.2,0.7-0.3,1-0.3c0.4,0,0.7,0.1,1,0.4c-0.4,0.4-0.6,1-0.5,1.9
					c-0.1,0.8-0.3,1.5-0.6,2c-0.8,1.4-2.1,2-4.1,2c-0.2,0-0.5,0-0.7,0c-1-0.1-1.8-0.3-2.5-0.6c-1.7-0.7-2.5-2-2.5-3.9
					c0-0.2,0-0.4,0-0.6v-1.9c0-0.9-0.3-1.5-0.9-1.8c0.4-0.2,0.6-0.5,0.8-1.1c0.1-0.2,0.1-0.5,0.1-0.7V524c0-2.1,0.8-3.6,2.5-4.4
					c0.7-0.4,1.5-0.6,2.5-0.6c0.2,0,0.5,0,0.7,0c1.9,0,3.3,0.7,4.1,2c0.3,0.6,0.5,1.2,0.6,2c-0.1,0.9,0.1,1.5,0.5,1.9
					c-0.3,0.3-0.6,0.4-1,0.4c-0.3,0-0.7-0.1-1-0.3c-0.2,0.5-0.7,0.7-1.5,0.7c-0.5,0-0.9-0.1-1.1-0.3c0.4-0.6,0.6-1.2,0.6-1.8
					c0-0.5-0.1-0.9-0.4-1.2c-0.3-0.3-0.6-0.4-1.1-0.4h-0.1c-0.7,0-1.2,0.2-1.5,0.6c-0.2,0.3-0.3,0.8-0.3,1.5v1.8
					c0,0.9,0.3,1.5,0.9,1.8c-0.4,0.2-0.6,0.5-0.7,1.1c-0.1,0.2-0.1,0.5-0.1,0.7v1.8c0,0.7,0.1,1.2,0.3,1.5c0.2,0.4,0.7,0.6,1.5,0.6
					h0.1c0.4,0,0.8-0.1,1.1-0.4c0.3-0.3,0.4-0.7,0.4-1.2c0-0.6-0.2-1.2-0.6-1.8C344.5,529.8,344.9,529.7,345.4,529.7z"/>
				<path fill="#FFFFFF" d="M357,535.8c-0.7,0.4-1.6,0.6-2.7,0.7c-1.1-0.1-1.9-0.3-2.7-0.6c-1.8-0.8-2.7-2.3-2.7-4.5v-2
					c0-0.9-0.3-1.5-0.9-1.8c0.4-0.2,0.6-0.5,0.8-1.1c0.1-0.2,0.1-0.5,0.1-0.7v-1.9c0-1.8-0.4-3.2-1.1-4.3c0.5-0.4,1.1-0.6,1.6-0.6
					c0.5,0,0.9,0.2,1.4,0.6c0.5-0.4,1-0.6,1.5-0.6c0.5,0,0.9,0.2,1.4,0.5c-0.6,1.2-1,2.7-1,4.5v1.8c0,0.9,0.3,1.5,0.9,1.8
					c-0.4,0.2-0.6,0.5-0.8,1.1c-0.1,0.2-0.1,0.5-0.1,0.7v1.8c0,0.6,0.2,1.2,0.5,1.6c0.3,0.3,0.7,0.5,1.2,0.5s0.9-0.2,1.2-0.5
					c0.4-0.4,0.5-0.9,0.5-1.6v-1.8c0-0.9-0.3-1.5-0.9-1.8c0.4-0.2,0.6-0.5,0.8-1.1c0.1-0.2,0.1-0.5,0.1-0.7v-1.8
					c0-1.7-0.3-3.2-1-4.5c0.4-0.4,0.9-0.5,1.4-0.5c0.5,0,1,0.2,1.4,0.6c0.3-0.4,0.7-0.6,1.2-0.6c0.5,0,1,0.2,1.5,0.6
					c-0.4,0.7-0.7,1.6-0.9,2.8c-0.1,0.5-0.1,1-0.1,1.5v1.9c0,0.9,0.4,1.5,0.9,1.8c-0.4,0.2-0.6,0.5-0.8,1.1
					c-0.1,0.2-0.1,0.5-0.1,0.7v2C359.7,533.5,358.8,534.9,357,535.8z"/>
				<path fill="#FFFFFF" d="M374.4,523c0,0.5-0.2,0.9-0.5,1.2c-1.4-0.7-2.5-1.1-3.4-1.1c-0.4,0-0.8,0.1-1.1,0.2
					c-0.1,1.9,0.2,3.3,0.9,4.2c-0.6,0.8-0.9,2.1-0.9,3.8c0,1.7,0.3,3.1,0.9,4.4c-0.4,0.4-0.9,0.6-1.4,0.6c-0.5,0-1-0.2-1.4-0.7
					c-0.5,0.4-1,0.7-1.5,0.7c-0.5,0-1-0.2-1.4-0.6c0.6-1.3,0.9-2.8,0.9-4.4c0-1.7-0.3-3-0.9-3.8c0.6-0.9,0.9-2.3,0.9-4.1
					c-0.2-0.2-0.6-0.4-1.2-0.4c-0.9,0-2,0.4-3.4,1.1c-0.3-0.3-0.5-0.7-0.5-1.2c0-0.5,0.2-1.1,0.5-1.6c-0.3-0.3-0.4-0.7-0.4-1.2
					c0-0.5,0.1-0.9,0.4-1.3c0.9,0.4,2,0.7,3.2,0.7c1.1,0,2.2-0.2,3.2-0.7c1.1,0.4,2.1,0.7,3.2,0.7c1.2,0,2.3-0.2,3.2-0.7
					c0.3,0.4,0.4,0.8,0.4,1.3c0,0.5-0.1,0.9-0.4,1.2C374.2,521.9,374.4,522.5,374.4,523z"/>
			</g>
			<g id="its_not_1_">
				<path d="M128.5,534.9c-0.5,0.4-0.9,0.6-1.4,0.6c-0.5,0-1-0.2-1.4-0.6c0.6-1.3,0.9-2.8,0.9-4.4c0-1.7-0.3-3-0.9-3.8
					c0.6-0.8,0.9-2.1,0.9-3.8c0-1.6-0.3-3.1-0.9-4.4c0.4-0.4,0.9-0.6,1.4-0.6c0.5,0,1,0.2,1.4,0.6c0.5-0.4,1-0.6,1.5-0.6
					c0.5,0,1,0.2,1.4,0.6c-0.6,1.3-0.9,2.8-0.9,4.4c0,1.7,0.3,3,0.9,3.8c-0.6,0.8-0.9,2.1-0.9,3.8c0,1.7,0.3,3.1,0.9,4.4
					c-0.4,0.4-0.9,0.6-1.4,0.6C129.4,535.5,128.9,535.3,128.5,534.9z"/>
				<path d="M145,522.1c0,0.5-0.2,0.9-0.5,1.2c-1.4-0.7-2.5-1.1-3.4-1.1c-0.4,0-0.8,0.1-1.1,0.2c-0.1,1.9,0.2,3.3,0.9,4.2
					c-0.6,0.8-0.9,2.1-0.9,3.8c0,1.7,0.3,3.1,0.9,4.4c-0.4,0.4-0.9,0.6-1.4,0.6c-0.5,0-1-0.2-1.4-0.7c-0.5,0.4-1,0.7-1.5,0.7
					c-0.5,0-1-0.2-1.4-0.6c0.6-1.3,0.9-2.8,0.9-4.4c0-1.7-0.3-3-0.9-3.8c0.6-0.9,0.9-2.3,0.9-4.1c-0.2-0.2-0.6-0.4-1.2-0.4
					c-0.9,0-2,0.4-3.4,1.1c-0.3-0.3-0.5-0.7-0.5-1.2c0-0.5,0.2-1.1,0.5-1.6c-0.3-0.3-0.4-0.7-0.4-1.2c0-0.5,0.1-0.9,0.4-1.3
					c0.9,0.4,2,0.7,3.2,0.7c1.1,0,2.2-0.2,3.2-0.7c1.1,0.4,2.1,0.7,3.2,0.7c1.2,0,2.3-0.2,3.2-0.7c0.3,0.4,0.4,0.8,0.4,1.3
					c0,0.5-0.1,0.9-0.4,1.2C144.9,521,145,521.6,145,522.1z"/>
				<path d="M153,523c-0.8-1.6-1.8-2.3-3-2.3c-0.6,0-1,0.2-1.4,0.5c-0.4,0.4-0.6,0.8-0.6,1.3c0,0.5,0.2,0.9,0.5,1.4
					c0.5,0.4,1,0.6,1.6,0.6c0.3,0,0.6-0.1,0.9-0.2c0.1,0.5,0.5,0.9,1.1,1.4c0.3,0.2,0.6,0.4,0.9,0.6c1.7,0.9,2.5,2.3,2.5,4.1
					c0,1.4-0.5,2.5-1.5,3.5c-1.1,1.1-2.5,1.6-4.4,1.6c-0.9,0-1.9-0.1-2.9-0.4c-0.2-0.1-0.5-0.2-1-0.4c-0.4-0.2-0.7-0.3-0.9-0.3
					c-0.4,0-0.8,0.2-1.3,0.5c0-0.2,0-0.3,0-0.5c0-0.9,0.3-1.5,0.9-1.8c-0.2-0.2-0.3-0.6-0.3-1c0-0.5,0.1-1.1,0.4-1.7
					c0.5,1,1.3,1.7,2.2,2.2c0.8,0.5,1.6,0.7,2.5,0.7c0.7,0,1.3-0.2,1.8-0.5c0.5-0.3,0.7-0.7,0.7-1.2c0-0.5-0.3-1.1-0.8-1.7
					c-0.5-0.4-1.1-0.6-1.9-0.6c-0.4,0-0.7,0.1-1.1,0.2c-0.1-1-0.5-1.7-1.3-2c-1.6-0.9-2.4-2.2-2.4-3.9c0-1.3,0.5-2.5,1.4-3.5
					c1-1.1,2.2-1.6,3.6-1.6c0.8,0,1.7,0.2,2.5,0.6c0.2,0.1,0.4,0.2,0.5,0.3c0.2,0.1,0.4,0.2,0.6,0.2c0.2,0,0.6,0,1-0.1
					c0,0.1,0,0.3,0,0.4c0,0.5-0.2,1.1-0.7,1.6C153.8,521.7,153.6,522.4,153,523z"/>
				<path d="M172.7,525c0.3-0.7,0.5-1.6,0.5-2.7c0-1.8-0.3-3.1-1-3.7c0.4-0.4,0.8-0.6,1.3-0.6c0.5,0,0.9,0.2,1.4,0.6
					c0.4-0.4,0.9-0.6,1.4-0.6c0.5,0,0.9,0.2,1.3,0.6l-0.3,0.9c-0.4,1-0.6,2.2-0.6,3.4c0,1.7,0.3,3,0.9,3.9c-0.6,0.8-0.9,2.1-0.9,3.8
					c0,1.7,0.3,3.1,0.9,4.4c-0.4,0.4-0.8,0.6-1.2,0.6c-0.5,0-0.9-0.2-1.3-0.6c-0.4,0.4-0.8,0.6-1.3,0.6c-0.5,0-0.9-0.2-1.2-0.6
					c0.6-0.7,0.9-1.5,0.9-2.4c0-1-0.3-1.9-1-2.8l-2.7-3.4c-0.5,1.1-0.8,2.3-0.8,3.9c0,1.6,0.3,3.2,1,4.8c-0.4,0.4-0.8,0.6-1.3,0.6
					c-0.5,0-0.9-0.2-1.4-0.6c-0.4,0.4-0.9,0.6-1.4,0.6c-0.5,0-0.9-0.2-1.3-0.6c0.6-1.3,0.9-2.8,0.9-4.4c0-1.7-0.3-3-0.9-3.8
					c0.6-0.9,0.9-2.2,0.9-3.9c0-1.3-0.2-2.4-0.6-3.4l-0.4-0.9c0.4-0.4,0.8-0.6,1.3-0.6c0.5,0,0.9,0.2,1.4,0.6
					c0.4-0.4,0.9-0.6,1.4-0.6c0.5,0,0.9,0.2,1.3,0.6c-0.2,0.5-0.3,1-0.3,1.4c0,0.6,0.2,1.1,0.5,1.6L172.7,525z"/>
				<path d="M186.4,534.9c-0.7,0.4-1.6,0.6-2.6,0.7c-1-0.1-1.9-0.3-2.7-0.6c-1.8-0.8-2.7-2.3-2.7-4.4v-2c0-0.9-0.3-1.5-0.9-1.8
					c0.4-0.2,0.6-0.5,0.8-1.1c0.1-0.2,0.1-0.5,0.1-0.7v-1.9c0-2.1,0.9-3.5,2.7-4.4c0.7-0.4,1.6-0.6,2.7-0.7c1,0.1,1.9,0.3,2.7,0.7
					c1.8,0.9,2.7,2.3,2.7,4.4v1.9c0,0.9,0.3,1.5,0.9,1.8c-0.4,0.2-0.6,0.5-0.8,1.1c-0.1,0.2-0.1,0.5-0.1,0.7v2
					C189,532.6,188.1,534,186.4,534.9z M185.6,528.5c0-0.9-0.3-1.5-0.9-1.8c0.4-0.2,0.6-0.5,0.8-1.1c0.1-0.2,0.1-0.5,0.1-0.7v-1.8
					c0-0.6-0.2-1.1-0.5-1.5c-0.4-0.4-0.8-0.5-1.2-0.5c-0.5,0-0.9,0.2-1.2,0.5c-0.4,0.4-0.5,0.9-0.5,1.5v1.8c0,0.9,0.3,1.5,0.9,1.8
					c-0.4,0.2-0.6,0.5-0.8,1.1c-0.1,0.2-0.1,0.5-0.1,0.7v1.8c0,0.7,0.2,1.2,0.5,1.5c0.4,0.4,0.8,0.5,1.2,0.5c0.5,0,0.9-0.2,1.2-0.5
					c0.4-0.4,0.5-0.9,0.5-1.5V528.5z"/>
				<path d="M202.6,522.1c0,0.5-0.2,0.9-0.5,1.2c-1.4-0.7-2.5-1.1-3.4-1.1c-0.4,0-0.8,0.1-1.1,0.2c-0.1,1.9,0.2,3.3,0.9,4.2
					c-0.6,0.8-0.9,2.1-0.9,3.8c0,1.7,0.3,3.1,0.9,4.4c-0.4,0.4-0.9,0.6-1.4,0.6c-0.5,0-1-0.2-1.4-0.7c-0.5,0.4-1,0.7-1.5,0.7
					c-0.5,0-1-0.2-1.4-0.6c0.6-1.3,0.9-2.8,0.9-4.4c0-1.7-0.3-3-0.9-3.8c0.6-0.9,0.9-2.3,0.9-4.1c-0.2-0.2-0.6-0.4-1.2-0.4
					c-0.9,0-2,0.4-3.4,1.1c-0.3-0.3-0.5-0.7-0.5-1.2c0-0.5,0.2-1.1,0.5-1.6c-0.3-0.3-0.4-0.7-0.4-1.2c0-0.5,0.1-0.9,0.4-1.3
					c0.9,0.4,2,0.7,3.2,0.7c1.1,0,2.2-0.2,3.2-0.7c1.1,0.4,2.1,0.7,3.2,0.7c1.2,0,2.3-0.2,3.2-0.7c0.3,0.4,0.4,0.8,0.4,1.3
					c0,0.5-0.1,0.9-0.4,1.2C202.5,521,202.6,521.6,202.6,522.1z"/>
				<path d="M222.2,524.9c0,0.9,0.3,1.5,0.9,1.8c-0.4,0.2-0.6,0.5-0.8,1.1c-0.1,0.2-0.1,0.5-0.1,0.7v1.9c0,0.2,0,0.4,0,0.6
					c0,1.9-0.9,3.2-2.6,3.9c-0.7,0.3-1.6,0.5-2.6,0.6c-0.2,0-0.5,0-0.7,0c-1.9,0-3.3-0.7-4.1-2.1c-0.3-0.6-0.5-1.2-0.6-2
					c0.1-0.9-0.1-1.5-0.5-1.9c0.3-0.3,0.6-0.5,1-0.5c0.4,0,0.7,0.1,1,0.4c0.2-0.5,0.7-0.8,1.5-0.8c0.5,0,0.9,0.1,1.1,0.3
					c-0.4,0.6-0.6,1.2-0.6,1.8c0,0.5,0.1,0.9,0.4,1.2c0.3,0.3,0.7,0.4,1.1,0.4h0.1c0.7,0,1.2-0.2,1.5-0.6c0.2-0.3,0.3-0.8,0.3-1.5
					v-1.8c0-0.9-0.3-1.5-0.9-1.8c0.4-0.2,0.6-0.5,0.8-1.1c0.1-0.2,0.1-0.5,0.1-0.7v-1.8c0-1.3-0.2-2.3-0.5-2.9
					c-0.1-0.3-0.6-0.8-1.3-1.5c0.6-0.4,1.2-0.6,1.7-0.6c0.5,0,1,0.2,1.5,0.5c0.5-0.4,1-0.6,1.6-0.6c0.5,0,1,0.2,1.4,0.6
					c-0.6,0.6-0.8,2-0.8,4.4V524.9z"/>
				<path d="M232.1,534.9c-0.7,0.4-1.6,0.6-2.7,0.7c-1.1-0.1-1.9-0.3-2.7-0.6c-1.8-0.8-2.7-2.3-2.7-4.5v-2c0-0.9-0.3-1.5-0.9-1.8
					c0.4-0.2,0.6-0.5,0.8-1.1c0.1-0.2,0.1-0.5,0.1-0.7v-1.9c0-1.8-0.4-3.2-1.1-4.3c0.5-0.4,1.1-0.6,1.6-0.6c0.5,0,0.9,0.2,1.4,0.6
					c0.5-0.4,1-0.6,1.5-0.6c0.5,0,0.9,0.2,1.4,0.5c-0.6,1.2-1,2.7-1,4.5v1.8c0,0.9,0.3,1.5,0.9,1.8c-0.4,0.2-0.6,0.5-0.8,1.1
					c-0.1,0.2-0.1,0.5-0.1,0.7v1.8c0,0.6,0.2,1.2,0.5,1.6c0.3,0.3,0.7,0.5,1.2,0.5c0.5,0,0.9-0.2,1.2-0.5c0.4-0.4,0.5-0.9,0.5-1.6
					v-1.8c0-0.9-0.3-1.5-0.9-1.8c0.4-0.2,0.6-0.5,0.8-1.1c0.1-0.2,0.1-0.5,0.1-0.7V523c0-1.7-0.3-3.2-1-4.5c0.4-0.4,0.9-0.5,1.4-0.5
					c0.5,0,1,0.2,1.4,0.6c0.3-0.4,0.7-0.6,1.2-0.6c0.5,0,1,0.2,1.5,0.6c-0.4,0.7-0.7,1.6-0.9,2.8c-0.1,0.5-0.1,1-0.1,1.5v1.9
					c0,0.9,0.4,1.5,0.9,1.8c-0.4,0.2-0.6,0.5-0.8,1.1c-0.1,0.2-0.1,0.5-0.1,0.7v2C234.8,532.5,233.9,534,232.1,534.9z"/>
				<path d="M243.7,523c-0.8-1.6-1.8-2.3-3-2.3c-0.6,0-1,0.2-1.4,0.5c-0.4,0.4-0.6,0.8-0.6,1.3c0,0.5,0.2,0.9,0.5,1.4
					c0.5,0.4,1,0.6,1.6,0.6c0.3,0,0.6-0.1,0.9-0.2c0.1,0.5,0.5,0.9,1.1,1.4c0.3,0.2,0.6,0.4,0.9,0.6c1.7,0.9,2.5,2.3,2.5,4.1
					c0,1.4-0.5,2.5-1.5,3.5c-1.1,1.1-2.5,1.6-4.4,1.6c-0.9,0-1.9-0.1-2.9-0.4c-0.2-0.1-0.5-0.2-1-0.4c-0.4-0.2-0.7-0.3-0.9-0.3
					c-0.4,0-0.8,0.2-1.3,0.5c0-0.2,0-0.3,0-0.5c0-0.9,0.3-1.5,0.9-1.8c-0.2-0.2-0.3-0.6-0.3-1c0-0.5,0.1-1.1,0.4-1.7
					c0.5,1,1.3,1.7,2.2,2.2c0.8,0.5,1.6,0.7,2.5,0.7c0.7,0,1.3-0.2,1.8-0.5c0.5-0.3,0.7-0.7,0.7-1.2c0-0.5-0.3-1.1-0.8-1.7
					c-0.5-0.4-1.1-0.6-1.9-0.6c-0.4,0-0.7,0.1-1.1,0.2c-0.1-1-0.5-1.7-1.3-2c-1.6-0.9-2.4-2.2-2.4-3.9c0-1.3,0.5-2.5,1.4-3.5
					c1-1.1,2.2-1.6,3.6-1.6c0.8,0,1.7,0.2,2.5,0.6c0.2,0.1,0.4,0.2,0.5,0.3c0.2,0.1,0.4,0.2,0.6,0.2c0.2,0,0.6,0,1-0.1
					c0,0.1,0,0.3,0,0.4c0,0.5-0.2,1.1-0.7,1.6C244.5,521.7,244.2,522.4,243.7,523z"/>
				<path d="M258.7,522.1c0,0.5-0.2,0.9-0.5,1.2c-1.4-0.7-2.5-1.1-3.4-1.1c-0.4,0-0.8,0.1-1.1,0.2c-0.1,1.9,0.2,3.3,0.9,4.2
					c-0.6,0.8-0.9,2.1-0.9,3.8c0,1.7,0.3,3.1,0.9,4.4c-0.4,0.4-0.9,0.6-1.4,0.6c-0.5,0-1-0.2-1.4-0.7c-0.5,0.4-1,0.7-1.5,0.7
					c-0.5,0-1-0.2-1.4-0.6c0.6-1.3,0.9-2.8,0.9-4.4c0-1.7-0.3-3-0.9-3.8c0.6-0.9,0.9-2.3,0.9-4.1c-0.2-0.2-0.6-0.4-1.2-0.4
					c-0.9,0-2,0.4-3.4,1.1c-0.3-0.3-0.5-0.7-0.5-1.2c0-0.5,0.2-1.1,0.5-1.6c-0.3-0.3-0.4-0.7-0.4-1.2c0-0.5,0.1-0.9,0.4-1.3
					c0.9,0.4,2,0.7,3.2,0.7c1.1,0,2.2-0.2,3.2-0.7c1.1,0.4,2.1,0.7,3.2,0.7c1.2,0,2.3-0.2,3.2-0.7c0.3,0.4,0.4,0.8,0.4,1.3
					c0,0.5-0.1,0.9-0.4,1.2C258.6,521,258.7,521.6,258.7,522.1z"/>
				<path d="M278.5,535.5c-0.5,0-0.8-0.1-0.9-0.4c0.4-0.8,0.5-1.6,0.5-2.3c0-0.9-0.3-1.7-0.8-2.3c-0.5-0.6-1.2-0.9-2-0.9
					c-0.8,0-1.5,0.3-2,0.9c-0.5,0.6-0.8,1.4-0.8,2.3c0,0.8,0.2,1.5,0.5,2.3c-0.1,0.3-0.4,0.4-0.9,0.4c-0.5,0-1.1-0.1-1.8-0.4
					c-0.3,0.3-0.7,0.4-1.2,0.4c-0.6,0-1.2-0.2-1.8-0.5c2.1-2.1,3.2-4.5,3.2-7c0-0.5,0-0.9-0.1-1.2c1.8-2.2,2.6-4.3,2.6-6.5
					c0-0.8-0.1-1.3-0.4-1.7c0.4-0.4,0.9-0.6,1.3-0.6c0.5,0,1,0.2,1.4,0.6c0.4-0.4,0.9-0.6,1.4-0.6c0.5,0,0.9,0.2,1.4,0.6
					c-0.3,0.4-0.4,1-0.4,1.7c0,2.1,0.9,4.3,2.6,6.5c-0.1,0.3-0.1,0.7-0.1,1.2c0,2.6,1.1,4.9,3.2,7c-0.7,0.4-1.3,0.5-1.8,0.5
					c-0.5,0-0.9-0.1-1.2-0.4C279.6,535.4,279,535.5,278.5,535.5z M275.3,524.1c-0.6,1-0.9,2-0.9,3c0.4-0.2,0.6-0.2,0.9-0.2
					s0.5,0.1,0.9,0.2C276.2,526.1,275.9,525.1,275.3,524.1z"/>
				<path d="M300,521.3c-0.1-1.3-0.4-2.2-0.9-2.7c0.4-0.4,0.9-0.6,1.4-0.6c0.5,0,1,0.2,1.4,0.6c0.5-0.4,0.9-0.6,1.4-0.6
					c0.5,0,1,0.2,1.4,0.6c-0.6,1.3-0.9,2.8-0.9,4.4c0,1.7,0.3,3,0.9,3.8c-0.6,0.8-0.9,2.1-0.9,3.8c0,1.7,0.3,3.1,0.9,4.4
					c-0.4,0.4-0.9,0.6-1.4,0.6c-0.5,0-1-0.2-1.4-0.6c-0.5,0.4-0.9,0.6-1.4,0.6c-0.5,0-1-0.2-1.4-0.6c0.5-0.5,0.8-1.4,0.9-2.7
					c0-0.4,0-1.3,0-2.7c0-0.9-0.3-1.4-0.9-1.6c-0.2-0.1-0.4-0.1-0.6-0.1c-0.2,0-0.4,0-0.6,0.1c-0.6,0.2-0.9,0.8-0.9,1.6
					c0,1.5,0,2.4,0,2.7c0.1,1.3,0.4,2.2,0.9,2.7c-0.4,0.4-0.9,0.6-1.4,0.6c-0.5,0-1-0.2-1.5-0.6c-0.5,0.4-0.9,0.6-1.4,0.6
					c-0.5,0-1-0.2-1.4-0.6c0.6-1.3,0.9-2.8,0.9-4.4c0-1.7-0.3-3-0.9-3.8c0.6-0.8,0.9-2.1,0.9-3.8c0-1.6-0.3-3.1-0.9-4.4
					c0.4-0.4,0.9-0.6,1.4-0.6c0.5,0,1,0.2,1.4,0.6c0.5-0.4,1-0.6,1.5-0.6c0.5,0,1,0.2,1.4,0.6c-0.5,0.5-0.8,1.4-0.9,2.7
					c0,0.4,0,1.3,0,2.7c0,0.9,0.3,1.4,0.9,1.6c0.2,0.1,0.5,0.1,0.6,0.1c0.2,0,0.4,0,0.6-0.1c0.6-0.2,0.9-0.8,0.9-1.6
					C300,522.5,300,521.6,300,521.3z"/>
				<path d="M315.8,535.5c-0.5,0-0.8-0.1-0.9-0.4c0.4-0.8,0.5-1.6,0.5-2.3c0-0.9-0.3-1.7-0.8-2.3c-0.5-0.6-1.2-0.9-2-0.9
					c-0.8,0-1.5,0.3-2,0.9c-0.5,0.6-0.8,1.4-0.8,2.3c0,0.8,0.2,1.5,0.5,2.3c-0.1,0.3-0.4,0.4-0.9,0.4c-0.5,0-1.1-0.1-1.8-0.4
					c-0.3,0.3-0.7,0.4-1.2,0.4c-0.6,0-1.2-0.2-1.8-0.5c2.1-2.1,3.2-4.5,3.2-7c0-0.5,0-0.9-0.1-1.2c1.8-2.2,2.6-4.3,2.6-6.5
					c0-0.8-0.1-1.3-0.4-1.7c0.4-0.4,0.9-0.6,1.3-0.6c0.5,0,1,0.2,1.4,0.6c0.4-0.4,0.9-0.6,1.4-0.6c0.5,0,0.9,0.2,1.4,0.6
					c-0.3,0.4-0.4,1-0.4,1.7c0,2.1,0.9,4.3,2.6,6.5c-0.1,0.3-0.1,0.7-0.1,1.2c0,2.6,1.1,4.9,3.2,7c-0.7,0.4-1.3,0.5-1.8,0.5
					c-0.5,0-0.9-0.1-1.2-0.4C316.9,535.4,316.3,535.5,315.8,535.5z M312.7,524.1c-0.6,1-0.9,2-0.9,3c0.4-0.2,0.6-0.2,0.9-0.2
					c0.2,0,0.5,0.1,0.9,0.2C313.5,526.1,313.2,525.1,312.7,524.1z"/>
				<path d="M323,534.9c-0.5,0.4-0.9,0.6-1.4,0.6c-0.5,0-1-0.2-1.4-0.6c0.6-1.3,0.9-2.8,0.9-4.4c0-1.7-0.3-3-0.9-3.8
					c0.6-0.8,0.9-2.1,0.9-3.8c0-1.6-0.3-3.1-0.9-4.4c0.4-0.4,0.9-0.6,1.4-0.6c0.5,0,1,0.2,1.4,0.6c0.5-0.4,1-0.6,1.5-0.6
					c0.5,0,1,0.2,1.4,0.6c-0.6,1.3-0.9,2.8-0.9,4.4c0,1.7,0.3,3,0.9,3.8c-0.6,0.8-0.9,2.1-0.9,3.8c0,1.7,0.3,3.1,0.9,4.4
					c-0.4,0.4-0.9,0.6-1.4,0.6C323.9,535.5,323.5,535.3,323,534.9z"/>
				<path d="M337.4,535.5c-1.2,0-2.4-0.5-3.5-1.4c0.5-0.6,0.7-1.2,0.7-1.7c0-0.6-0.3-1.4-1-2.3c0.2-0.3,0.3-0.6,0.3-0.9
					c0-0.5-0.2-0.8-0.6-1.2c-0.4-0.3-0.8-0.5-1.3-0.5c-0.5,0-0.9,0.2-1.2,0.6c-0.4,0.5-0.5,1.1-0.5,2c0,2.2,0.4,3.8,1.3,4.7
					c-0.4,0.4-0.9,0.5-1.4,0.5c-0.5,0-1.1-0.2-1.6-0.6c-0.5,0.4-1,0.6-1.6,0.6c-0.5,0-1-0.2-1.4-0.5c0.6-1.3,0.9-2.7,0.9-4.3
					c0-1.7-0.3-2.9-0.9-3.7c0.6-0.8,0.9-2.1,0.9-3.7c0-1.6-0.3-3.1-0.9-4.3c0.4-0.4,0.9-0.6,1.4-0.6c0.5,0,1.1,0.2,1.6,0.6
					c1-0.5,2.1-0.7,3.3-0.7c1.4,0,2.6,0.3,3.6,0.9c1.1,0.6,1.6,1.4,1.6,2.3c0,0.9,0.3,1.5,0.8,1.8c-0.4,0.2-0.6,0.5-0.8,1.1
					c-0.1,0.2-0.1,0.5-0.1,0.7c-0.1,0.8-0.6,1.5-1.6,1.9c0.6,0.3,1,0.6,1.3,1.1c0.1,0.2,0.2,0.4,0.2,0.6c0,0.7,0.2,1.1,0.8,1.4
					c0,0,0.1,0.3,0.2,0.9c0.1,0.8,0.2,1.5,0.4,2c0.3,0.9,0.7,1.6,1.3,2.2C339,535.4,338.2,535.5,337.4,535.5z M333.6,522.3
					c0-0.3-0.1-0.6-0.4-0.9c-0.3-0.2-0.6-0.4-1-0.4c-0.5,0-0.9,0.2-1.2,0.5c-0.4,0.4-0.6,1-0.6,1.8c0,0.8,0.2,1.4,0.6,1.8
					c0.3,0.4,0.7,0.5,1.2,0.5c0.4,0,0.7-0.1,1-0.3c0.3-0.2,0.4-0.5,0.4-0.9c0-0.4-0.2-0.7-0.5-1.1
					C333.5,523.1,333.6,522.7,333.6,522.3z"/>
				<path d="M346.1,528.8c0.7,0,1.2,0.2,1.5,0.7c0.3-0.2,0.7-0.3,1-0.3c0.4,0,0.7,0.1,1,0.4c-0.4,0.4-0.6,1-0.5,1.9
					c-0.1,0.8-0.3,1.5-0.6,2c-0.8,1.4-2.1,2-4.1,2c-0.2,0-0.5,0-0.7,0c-1-0.1-1.8-0.3-2.5-0.6c-1.7-0.7-2.5-2-2.5-3.9
					c0-0.2,0-0.4,0-0.6v-1.9c0-0.9-0.3-1.5-0.9-1.8c0.4-0.2,0.6-0.5,0.8-1.1c0.1-0.2,0.1-0.5,0.1-0.7v-1.9c0-2.1,0.8-3.6,2.5-4.4
					c0.7-0.4,1.5-0.6,2.5-0.6c0.2,0,0.5,0,0.7,0c1.9,0,3.3,0.7,4.1,2c0.3,0.6,0.5,1.2,0.6,2c-0.1,0.9,0.1,1.5,0.5,1.9
					c-0.3,0.3-0.6,0.4-1,0.4c-0.3,0-0.7-0.1-1-0.3c-0.2,0.5-0.7,0.7-1.5,0.7c-0.5,0-0.9-0.1-1.1-0.3c0.4-0.6,0.6-1.2,0.6-1.8
					c0-0.5-0.1-0.9-0.4-1.2c-0.3-0.3-0.6-0.4-1.1-0.4H344c-0.7,0-1.2,0.2-1.5,0.6c-0.2,0.3-0.3,0.8-0.3,1.5v1.8
					c0,0.9,0.3,1.5,0.9,1.8c-0.4,0.2-0.6,0.5-0.7,1.1c-0.1,0.2-0.1,0.5-0.1,0.7v1.8c0,0.7,0.1,1.2,0.3,1.5c0.2,0.4,0.7,0.6,1.5,0.6
					h0.1c0.4,0,0.8-0.1,1.1-0.4c0.3-0.3,0.4-0.7,0.4-1.2c0-0.6-0.2-1.2-0.6-1.8C345.2,528.9,345.6,528.8,346.1,528.8z"/>
				<path d="M357.7,534.9c-0.7,0.4-1.6,0.6-2.7,0.7c-1.1-0.1-1.9-0.3-2.7-0.6c-1.8-0.8-2.7-2.3-2.7-4.5v-2c0-0.9-0.3-1.5-0.9-1.8
					c0.4-0.2,0.6-0.5,0.8-1.1c0.1-0.2,0.1-0.5,0.1-0.7v-1.9c0-1.8-0.4-3.2-1.1-4.3c0.5-0.4,1.1-0.6,1.6-0.6c0.5,0,0.9,0.2,1.4,0.6
					c0.5-0.4,1-0.6,1.5-0.6c0.5,0,0.9,0.2,1.4,0.5c-0.6,1.2-1,2.7-1,4.5v1.8c0,0.9,0.3,1.5,0.9,1.8c-0.4,0.2-0.6,0.5-0.8,1.1
					c-0.1,0.2-0.1,0.5-0.1,0.7v1.8c0,0.6,0.2,1.2,0.5,1.6c0.3,0.3,0.7,0.5,1.2,0.5s0.9-0.2,1.2-0.5c0.4-0.4,0.5-0.9,0.5-1.6v-1.8
					c0-0.9-0.3-1.5-0.9-1.8c0.4-0.2,0.6-0.5,0.8-1.1c0.1-0.2,0.1-0.5,0.1-0.7V523c0-1.7-0.3-3.2-1-4.5c0.4-0.4,0.9-0.5,1.4-0.5
					c0.5,0,1,0.2,1.4,0.6c0.3-0.4,0.7-0.6,1.2-0.6c0.5,0,1,0.2,1.5,0.6c-0.4,0.7-0.7,1.6-0.9,2.8c-0.1,0.5-0.1,1-0.1,1.5v1.9
					c0,0.9,0.4,1.5,0.9,1.8c-0.4,0.2-0.6,0.5-0.8,1.1c-0.1,0.2-0.1,0.5-0.1,0.7v2C360.4,532.5,359.5,534,357.7,534.9z"/>
				<path d="M375,522.1c0,0.5-0.2,0.9-0.5,1.2c-1.4-0.7-2.5-1.1-3.4-1.1c-0.4,0-0.8,0.1-1.1,0.2c-0.1,1.9,0.2,3.3,0.9,4.2
					c-0.6,0.8-0.9,2.1-0.9,3.8c0,1.7,0.3,3.1,0.9,4.4c-0.4,0.4-0.9,0.6-1.4,0.6c-0.5,0-1-0.2-1.4-0.7c-0.5,0.4-1,0.7-1.5,0.7
					c-0.5,0-1-0.2-1.4-0.6c0.6-1.3,0.9-2.8,0.9-4.4c0-1.7-0.3-3-0.9-3.8c0.6-0.9,0.9-2.3,0.9-4.1c-0.2-0.2-0.6-0.4-1.2-0.4
					c-0.9,0-2,0.4-3.4,1.1c-0.3-0.3-0.5-0.7-0.5-1.2c0-0.5,0.2-1.1,0.5-1.6c-0.3-0.3-0.4-0.7-0.4-1.2c0-0.5,0.1-0.9,0.4-1.3
					c0.9,0.4,2,0.7,3.2,0.7c1.1,0,2.2-0.2,3.2-0.7c1.1,0.4,2.1,0.7,3.2,0.7c1.2,0,2.3-0.2,3.2-0.7c0.3,0.4,0.4,0.8,0.4,1.3
					c0,0.5-0.1,0.9-0.4,1.2C374.9,521,375,521.6,375,522.1z"/>
			</g>
		</g>
		<polygon points="145.3,520.1 146,520.7 146.9,520.4 147.6,517.4 146.6,517.9 		"/>
	</g>
</g>
</svg>
