<?xml version="1.0" encoding="utf-8"?>
<!-- Generator: Adobe Illustrator 18.1.1, SVG Export Plug-In . SVG Version: 6.00 Build 0)  -->
<!DOCTYPE svg PUBLIC "-//W3C//DTD SVG 1.1//EN" "http://www.w3.org/Graphics/SVG/1.1/DTD/svg11.dtd">
<svg version="1.1" xmlns="http://www.w3.org/2000/svg" xmlns:xlink="http://www.w3.org/1999/xlink" x="0px" y="0px"
	 viewBox="0 0 1440 780.1" enable-background="new 0 0 1440 780.1" xml:space="preserve">
<g id="Layer_1" display="none">
	
		<image overflow="visible" width="1920" height="1080" id="ref" xlink:href="../../../Pictures/Screenshots/Screenshot (11).png"  transform="matrix(1.453 0 0 1.453 -889.3823 -539.8277)">
	</image>
	
		<image overflow="visible" opacity="0.75" width="7848" height="3128" id="pic" xlink:href="location photos/Photo Jan 25, 4 25 18 PM.jpg"  transform="matrix(0.3828 0 0 0.3828 -691.8026 57.0948)">
	</image>
	<rect id="bg" y="-1" fill="#AFD1DD" width="1440" height="780"/>
</g>
<g id="bg_1_" display="none">
	<g id="clouds" display="inline">
		<path id="c3_2_" fill="#FFFFFF" d="M821.1,96.3h130.3c1.3,0,1.8-1.8,0.6-2.4l-4-2.2c-0.7-0.4-0.9-1.2-0.5-1.8
			c16.4-25.2-20.7-36.1-32.2-19.9c-0.5,0.8-1,0.7-0.9-0.2c5.5-40.2-45.2-44-50.1-3.3c-0.1,0.6-0.7,1-1.3,1
			c-3.6-0.2-15.3-0.2-20.5,7.4c-4.5,6.6-3.5,12.3-2.6,14.9c0.3,0.8-0.3,1.6-1.1,1.7l-17.9,2.2C819.3,93.9,819.5,96.3,821.1,96.3z"/>
		<path id="c2_2_" fill="#FFFFFF" d="M188.4,103.9h135c1.4,0,1.9-1.8,0.7-2.5l-4.1-2.3c-0.7-0.4-0.9-1.3-0.5-1.9
			c17-26.1-21.4-37.4-33.3-20.6c-0.5,0.8-1.1,0.7-0.9-0.2c5.7-41.6-46.8-45.6-52-3.4c-0.1,0.6-0.7,1.1-1.4,1
			c-3.7-0.2-15.9-0.2-21.3,7.7c-4.6,6.8-3.6,12.7-2.7,15.4c0.3,0.8-0.3,1.7-1.1,1.8l-18.6,2.3C186.6,101.4,186.7,103.9,188.4,103.9z
			"/>
		<path id="c1_2_" fill="#FFFFFF" d="M75,252.8h238.9c2.5,0,3.3-3.3,1.2-4.5l-7.3-4.1c-1.2-0.7-1.6-2.2-0.8-3.4
			c30.2-46.3-38-66.1-59-36.5c-0.9,1.5-1.9,1.3-1.7-0.3c10.1-73.7-82.8-80.7-92-6c-0.1,1.1-1.3,1.9-2.4,1.8
			c-6.6-0.4-28.1-0.4-37.6,13.6c-8.2,12.1-6.3,22.5-4.7,27.3c0.5,1.4-0.5,3-2,3.1L74.7,248C71.7,248.4,72,252.8,75,252.8z"/>
	</g>
</g>
<g id="base" display="none">
	<g id="barber_pat_1_" display="inline">
		<g id="barber_pat">
			<polygon fill="#9C0001" points="413.2,314 402,314 402,322.4 			"/>
			<polygon fill="#0A4569" points="422,326.8 422,318 402,332.9 402,341.6 			"/>
			<g>
				<polygon fill="#9C0001" points="422,345.9 422,337.2 402,352 402,360.8 				"/>
				<polygon fill="#0A4569" points="408.4,366 422,366 422,356.4 				"/>
			</g>
		</g>
		<path fill="#A1A1A1" d="M401.9,313h20.3c0-2-4.7-3.7-10.1-3.7S401.9,311,401.9,313z"/>
		<path fill="#A1A1A1" d="M401.9,368h20.3c0,1-4.7,3.7-10.1,3.7S401.9,369,401.9,368z"/>
		<circle fill="#A1A1A1" cx="412" cy="297" r="10.2"/>
	</g>
	<g id="sw" display="inline">
		<g id="side_walk">
			<polygon fill="#6CA2BA" points="237,506 163,541 301.9,541 346.9,506 			"/>
			<polygon fill="#6CA2BA" points="324.2,465 248,500 353.7,500 400.1,465 			"/>
			<polygon fill="#6CA2BA" points="444.5,430 473.5,408 444.7,408 397.1,430 			"/>
			<polygon fill="#6CA2BA" points="390.8,433 332.1,461 404.9,461 440.7,433 			"/>
		</g>
		<g>
			<polygon fill="#6CA2BA" points="318.6,574.6 350,546 216.3,546 163.6,546 157.3,546 65.2,586 65.4,586 60.2,588 86.7,588 
				126.7,588 303.9,588 316.5,576.5 			"/>
			<polygon fill="#6CA2BA" points="356.7,546 323.5,576.2 321.4,578.1 310.6,588 530.1,588 534.1,577.1 534.8,575.1 545.4,546 			
				"/>
			<polygon fill="#6CA2BA" points="750.9,575.7 740.1,546 550.5,546 539.7,575.7 539,577.6 535.2,588 755.4,588 751.6,577.6 			"/>
			<polygon fill="#6CA2BA" points="950.6,576.2 917.5,546 745.2,546 755.9,575.1 756.6,577.1 760.6,588 963.6,588 952.7,578.1 			
				"/>
			<polygon fill="#6CA2BA" points="1142.1,576.7 1085.9,546 924.2,546 955.6,574.6 957.6,576.5 970.2,588 1162.6,588 			"/>
			<polygon fill="#6CA2BA" points="1095.5,546 1307.4,546 1406.8,588 1172.9,588 			"/>
		</g>
		<g>
			<polygon fill="#6CA2BA" points="1225.4,506 1299.4,541 1141.1,541 1087,506 			"/>
			<polygon fill="#6CA2BA" points="1138.3,465 1214.4,500 1078.8,500 1022.6,465 			"/>
			<g>
				<polygon fill="#6CA2BA" points="1004,430 1065.3,430 1017.7,408 1004,408 				"/>
			</g>
			<g>
				<polygon fill="#6CA2BA" points="1071.7,433 1004,433 1004,452.5 1017.1,461 1130.3,461 				"/>
			</g>
		</g>
	</g>
	<path display="inline" fill="#6CA2BA" d="M1015.3,541l-11.3-16.1V390H646v143h1v8H1015.3z M839,408h143v75H839V408z M669,408h143
		v75H669V408z"/>
	<polygon display="inline" fill="#4D97B2" points="976.2,349 809.1,349 802.8,342 630.8,342 637,378.4 637,387 835.7,387 1004,387 
		1004,378.4 	"/>
	<path id="main_tower" display="inline" fill="#6CA2BA" d="M538.4,121c0.4-0.9,0.3-2.1-0.8-3.3c0,0,0,0,0,0
		c-2.3-1.5-4.7,0.1-4.7,2.3l0,1c0,0.1,0,0.1-0.1,0.1L392,177.6h38.1v363.2h55.4V435.9c0-26.7,25.5-41.9,53.2-41.9
		c27.7,0,53.2,14.2,53.2,41.9v104.9h55.4V177.6h37.6L538.4,121L538.4,121z"/>
	<g id="balcony" display="inline">
		<rect x="497.5" y="278.4" fill="#4D97B2" width="82.3" height="30.9"/>
		<polygon fill="#4D97B2" points="557.3,321.2 520,321.2 497.5,311.4 579.8,311.4 		"/>
		<polygon fill="#4D97B2" points="557.3,212.8 520,212.8 497.5,222.6 579.8,222.6 		"/>
		<path fill="#4D97B2" d="M497,251v17.9v5.6v2.4h10v-3h62v3h10v-2.6V251H497z M513,269.8c0,1.2-1,2.2-2.2,2.2h-2.7
			c-1.2,0-2.2-1-2.2-2.2v-14.7c0-1.2,1-2.2,2.2-2.2h2.7c1.2,0,2.2,1,2.2,2.2V269.8z M527,269.8c0,1.2-1,2.2-2.2,2.2h-2.7
			c-1.2,0-2.2-1-2.2-2.2v-14.7c0-1.2,1-2.2,2.2-2.2h2.7c1.2,0,2.2,1,2.2,2.2V269.8z M542,269.8c0,1.2-1,2.2-2.2,2.2h-2.7
			c-1.2,0-2.2-1-2.2-2.2v-14.7c0-1.2,1-2.2,2.2-2.2h2.7c1.2,0,2.2,1,2.2,2.2V269.8z M556,269.8c0,1.2-1,2.2-2.2,2.2h-2.7
			c-1.2,0-2.2-1-2.2-2.2v-14.7c0-1.2,1-2.2,2.2-2.2h2.7c1.2,0,2.2,1,2.2,2.2V269.8z M570,269.8c0,1.2-1,2.2-2.2,2.2h-2.7
			c-1.2,0-2.2-1-2.2-2.2v-14.7c0-1.2,1-2.2,2.2-2.2h2.7c1.2,0,2.2,1,2.2,2.2V269.8z"/>
	</g>
	<g id="Moose" display="inline">
		<g>
			<path fill="#FFFFFF" d="M489.4,362.6c-0.6,0-1.1-0.2-1.6-0.7c0.5-1.4,0.7-2.6,0.7-3.7c0-1.3-0.5-2.7-1.6-4.4
				c0.3-0.6,0.4-1.2,0.4-1.8c0-0.7-0.2-1.5-0.6-2.4c-0.2-0.5-0.8-1.5-1.8-3.2v9.3c0.1,2.9,0.5,4.9,1.4,6.1c-0.6,0.5-1.2,0.7-1.9,0.7
				c-0.6,0-1.2-0.2-1.8-0.7c-0.5,0.5-1,0.7-1.5,0.7c-0.6,0-1.2-0.3-1.7-0.8c0.8-1.7,1.2-3.7,1.2-5.9c0-2.3-0.4-4-1.2-5.1
				c0.8-1.1,1.3-2.9,1.3-5.2c0-1.7-0.3-3.2-0.8-4.6l-0.5-1.2c0.9-0.5,1.8-0.7,2.6-0.7c0.7,0,1.5,0.2,2.4,0.7
				c0.7-0.5,1.6-0.7,2.6-0.7c0.6,0,1.2,0.1,1.9,0.3c0.5,0.1,0.8,0.3,1,0.4c-0.5,0.8-0.7,1.9-0.7,3.2c0,1.6,0.2,2.9,0.6,3.8l1.4,4.2
				l1.4-4.2c0.4-0.9,0.6-2.1,0.6-3.8c0-1.3-0.2-2.4-0.7-3.2c0.1-0.1,0.4-0.3,0.9-0.4c0.6-0.2,1.2-0.3,1.9-0.3c1,0,1.9,0.2,2.6,0.7
				c0.9-0.5,1.7-0.7,2.4-0.7c0.8,0,1.7,0.2,2.6,0.7l-0.5,1.2c-0.5,1.4-0.8,2.9-0.8,4.6c0,2.3,0.4,4.1,1.3,5.2
				c-0.8,1.1-1.2,2.8-1.2,5.1c0,2.2,0.4,4.2,1.2,5.9c-0.6,0.5-1.1,0.8-1.7,0.8c-0.5,0-1.1-0.2-1.5-0.7c-0.6,0.5-1.2,0.7-1.8,0.7
				c-0.7,0-1.3-0.2-1.9-0.7c0.6-0.8,1-2.1,1.2-3.8c0.1-0.7,0.2-1.5,0.2-2.3v-9.3c-1,1.7-1.6,2.7-1.8,3.2c-0.4,0.9-0.6,1.7-0.6,2.4
				c0,0.5,0.1,1.1,0.4,1.8c-1.1,1.7-1.6,3.1-1.6,4.4c0,1,0.2,2.2,0.7,3.7c-0.5,0.5-1.1,0.7-1.7,0.7c-0.5,0-1.1-0.2-1.5-0.7
				C490.5,362.4,490,362.6,489.4,362.6z"/>
			<path fill="#FFFFFF" d="M516.8,361.8c-1,0.5-2.2,0.8-3.6,0.9c-1.4-0.1-2.6-0.3-3.6-0.8c-2.4-1.1-3.6-3.1-3.6-6v-2.7
				c-0.1-1.2-0.5-2-1.2-2.4c0.5-0.2,0.8-0.7,1.1-1.4c0.1-0.3,0.1-0.6,0.1-1v-2.6c0-2.8,1.2-4.7,3.6-5.9c1-0.5,2.2-0.8,3.6-0.9
				c1.4,0.1,2.6,0.4,3.6,0.9c2.4,1.2,3.6,3.1,3.6,5.9v2.6c0.1,1.2,0.5,2,1.2,2.4c-0.5,0.2-0.8,0.7-1.1,1.4c-0.1,0.3-0.1,0.6-0.1,1
				v2.7C520.3,358.6,519.1,360.6,516.8,361.8z M515.7,353.2c-0.1-1.2-0.5-2-1.2-2.4c0.5-0.2,0.9-0.7,1.1-1.4c0.1-0.3,0.1-0.6,0.1-1
				V346c0-0.9-0.2-1.5-0.7-2c-0.5-0.5-1-0.7-1.7-0.7c-0.6,0-1.2,0.2-1.7,0.7c-0.5,0.5-0.7,1.2-0.7,2v2.4c0.1,1.2,0.5,2,1.2,2.4
				c-0.5,0.2-0.9,0.7-1.1,1.4c-0.1,0.3-0.1,0.6-0.1,1v2.4c0,0.9,0.2,1.6,0.7,2c0.5,0.5,1,0.7,1.7,0.7c0.6,0,1.2-0.2,1.7-0.7
				c0.5-0.5,0.7-1.2,0.7-2V353.2z"/>
			<path fill="#FFFFFF" d="M535.4,361.8c-1,0.5-2.2,0.8-3.6,0.9c-1.4-0.1-2.6-0.3-3.6-0.8c-2.4-1.1-3.6-3.1-3.6-6v-2.7
				c-0.1-1.2-0.5-2-1.2-2.4c0.5-0.2,0.8-0.7,1.1-1.4c0.1-0.3,0.1-0.6,0.1-1v-2.6c0-2.8,1.2-4.7,3.6-5.9c1-0.5,2.2-0.8,3.6-0.9
				c1.4,0.1,2.6,0.4,3.6,0.9c2.4,1.2,3.6,3.1,3.6,5.9v2.6c0.1,1.2,0.5,2,1.2,2.4c-0.5,0.2-0.8,0.7-1.1,1.4c-0.1,0.3-0.1,0.6-0.1,1
				v2.7C539,358.6,537.8,360.6,535.4,361.8z M534.3,353.2c-0.1-1.2-0.5-2-1.2-2.4c0.5-0.2,0.9-0.7,1.1-1.4c0.1-0.3,0.1-0.6,0.1-1
				V346c0-0.9-0.2-1.5-0.7-2c-0.5-0.5-1-0.7-1.7-0.7c-0.6,0-1.2,0.2-1.6,0.7c-0.5,0.5-0.7,1.2-0.7,2v2.4c0.1,1.2,0.5,2,1.2,2.4
				c-0.5,0.2-0.9,0.7-1.1,1.4c-0.1,0.3-0.1,0.6-0.1,1v2.4c0,0.9,0.2,1.6,0.7,2c0.5,0.5,1,0.7,1.6,0.7c0.6,0,1.2-0.2,1.7-0.7
				c0.5-0.5,0.7-1.2,0.7-2V353.2z"/>
			<path fill="#FFFFFF" d="M553,345.8c-1.1-2.1-2.4-3.2-4-3.2c-0.7,0-1.4,0.2-1.9,0.7c-0.5,0.5-0.8,1.1-0.8,1.8
				c0,0.6,0.2,1.3,0.7,1.9c0.6,0.5,1.4,0.8,2.2,0.8c0.5,0,0.9-0.1,1.2-0.3c0.2,0.6,0.7,1.2,1.5,1.9c0.4,0.3,0.8,0.5,1.2,0.8
				c2.2,1.2,3.4,3.1,3.4,5.6c0,1.8-0.7,3.4-2,4.7c-1.5,1.4-3.4,2.1-5.9,2.1c-1.2,0-2.5-0.2-3.9-0.6c-0.3-0.1-0.7-0.3-1.3-0.6
				c-0.5-0.2-0.9-0.4-1.2-0.4c-0.5,0-1.1,0.2-1.8,0.7c0-0.2-0.1-0.4-0.1-0.6c0-1.2,0.4-2,1.2-2.5c-0.3-0.3-0.4-0.8-0.4-1.3
				c0-0.7,0.2-1.5,0.6-2.3c0.7,1.3,1.7,2.3,3,3c1.1,0.6,2.2,0.9,3.4,0.9c1,0,1.8-0.2,2.4-0.6c0.6-0.4,1-1,1-1.7
				c0-0.7-0.4-1.5-1.1-2.3c-0.7-0.6-1.5-0.9-2.5-0.9c-0.5,0-1,0.1-1.4,0.2c-0.1-1.4-0.7-2.3-1.7-2.7c-2.1-1.2-3.2-3-3.2-5.2
				c0-1.8,0.6-3.3,1.9-4.7c1.4-1.4,3-2.2,4.9-2.2c1.1,0,2.2,0.3,3.4,0.8c0.3,0.2,0.5,0.3,0.7,0.4c0.2,0.1,0.5,0.2,0.9,0.2
				c0.3,0,0.8,0,1.4-0.1c0,0.2,0.1,0.4,0.1,0.5c0,0.7-0.3,1.4-0.9,2.1C554.1,344.1,553.7,345,553,345.8z"/>
			<path fill="#FFFFFF" d="M567.1,352c-0.7,0-1.3,0.2-1.8,0.6c-0.5,0.5-0.7,1.1-0.7,1.9v1.7c0,1.5,0.8,2.3,2.4,2.3
				c0.8,0,1.6-0.2,2.4-0.6c0.8-0.4,1.3-0.9,1.5-1.5c0.8,0.6,1.2,1.4,1.2,2.5c0,0.5-0.1,1-0.3,1.5c0.4,0.2,0.5,0.8,0.4,1.8
				c-0.5-0.3-1.2-0.4-2-0.4c-0.5,0-1,0.1-1.6,0.2c-0.5,0.1-1,0.3-1.5,0.4c-0.6,0.2-1.2,0.2-1.7,0.2c-1,0-2-0.3-3.1-0.9
				c-0.7,0.6-1.4,0.9-2.1,0.9c-0.7,0-1.3-0.3-1.9-0.8c0.8-1.7,1.2-3.7,1.2-5.9c0-2.3-0.4-4-1.2-5.1c0.8-1.1,1.2-2.8,1.2-5.1
				c0-2.2-0.4-4.2-1.2-5.9c0.6-0.5,1.2-0.8,1.9-0.8c0.7,0,1.4,0.3,2.1,0.9c1.1-0.6,2.1-0.9,3.1-0.9c0.5,0,1.1,0.1,1.7,0.2
				c0.5,0.2,1,0.3,1.5,0.4c0.5,0.1,1,0.2,1.6,0.2c0.8,0,1.5-0.1,2-0.4c0.1,1,0,1.6-0.4,1.8c0.2,0.5,0.3,1,0.3,1.5
				c0,1-0.4,1.9-1.2,2.5c-0.2-0.6-0.7-1.1-1.5-1.5c-0.8-0.4-1.6-0.6-2.4-0.6c-1.6,0-2.4,0.8-2.4,2.3v1.7c0,0.8,0.2,1.4,0.7,1.9
				c0.5,0.4,1.1,0.7,1.8,0.7c1.2,0,2.2-0.5,3.2-1.4c0.1,0.3,0.2,0.6,0.2,0.9c0,0.6-0.2,1.2-0.7,1.7c0.5,0.5,0.7,1.1,0.7,1.7
				c0,0.3-0.1,0.6-0.2,0.9C569.3,352.5,568.2,352,567.1,352z"/>
			<path fill="#FFFFFF" d="M593.6,345.8c-1.1-2.1-2.4-3.2-4-3.2c-0.7,0-1.4,0.2-1.9,0.7c-0.5,0.5-0.8,1.1-0.8,1.8
				c0,0.6,0.2,1.3,0.7,1.9c0.6,0.5,1.4,0.8,2.1,0.8c0.5,0,0.9-0.1,1.2-0.3c0.2,0.6,0.7,1.2,1.5,1.9c0.4,0.3,0.8,0.5,1.2,0.8
				c2.2,1.2,3.4,3.1,3.4,5.6c0,1.8-0.7,3.4-2,4.7c-1.5,1.4-3.4,2.1-5.9,2.1c-1.2,0-2.5-0.2-3.9-0.6c-0.3-0.1-0.7-0.3-1.3-0.6
				c-0.5-0.2-0.9-0.4-1.2-0.4c-0.5,0-1.1,0.2-1.8,0.7c0-0.2-0.1-0.4-0.1-0.6c0-1.2,0.4-2,1.2-2.5c-0.3-0.3-0.4-0.8-0.4-1.3
				c0-0.7,0.2-1.5,0.6-2.3c0.7,1.3,1.7,2.3,3,3c1.1,0.6,2.2,0.9,3.4,0.9c1,0,1.8-0.2,2.4-0.6c0.6-0.4,1-1,1-1.7
				c0-0.7-0.4-1.5-1.1-2.3c-0.7-0.6-1.5-0.9-2.5-0.9c-0.5,0-1,0.1-1.4,0.2c-0.1-1.4-0.7-2.3-1.7-2.7c-2.1-1.2-3.2-3-3.2-5.2
				c0-1.8,0.6-3.3,1.9-4.7c1.4-1.4,3-2.2,4.9-2.2c1.1,0,2.2,0.3,3.4,0.8c0.3,0.2,0.5,0.3,0.7,0.4c0.2,0.1,0.5,0.2,0.9,0.2
				c0.3,0,0.8,0,1.4-0.1c0,0.2,0.1,0.4,0.1,0.5c0,0.7-0.3,1.4-0.9,2.1C594.7,344.1,594.3,345,593.6,345.8z"/>
			<path fill="#FFFFFF" d="M485.6,373.3c-0.2,0.1-0.3,0.3-0.4,0.5c0,0.1,0,0.2-0.1,0.4v0.1c-0.1,0.5-0.4,0.9-0.9,1.2
				c-0.5,0.3-1.1,0.5-1.8,0.5c-0.6,0-1.2-0.1-1.8-0.4c-0.3,0.2-0.5,0.3-0.8,0.3c-0.3,0-0.5-0.1-0.7-0.3c0.3-0.7,0.4-1.4,0.4-2.2
				c0-0.9-0.1-1.5-0.4-1.9c0.3-0.4,0.4-1,0.4-1.9c0-0.8-0.1-1.6-0.4-2.2c0.2-0.2,0.5-0.3,0.7-0.3c0.3,0,0.5,0.1,0.8,0.3
				c0.5-0.2,1.1-0.4,1.7-0.4c0.7,0,1.3,0.2,1.9,0.5c0.5,0.3,0.8,0.7,0.8,1.2c0,0.5,0.2,0.8,0.4,0.9c-0.2,0.1-0.3,0.3-0.4,0.5
				c0,0.1,0,0.2-0.1,0.4c0,0.4-0.3,0.8-0.8,1c0.3,0.1,0.6,0.3,0.7,0.5c0.1,0.1,0.1,0.2,0.1,0.3C485.2,372.9,485.3,373.2,485.6,373.3
				z M483.3,369.3c0-0.2-0.1-0.3-0.2-0.4c-0.2-0.1-0.3-0.2-0.5-0.2c-0.2,0-0.5,0.1-0.6,0.3c-0.2,0.2-0.3,0.5-0.3,0.9
				c0,0.4,0.1,0.7,0.3,0.9c0.2,0.2,0.4,0.3,0.6,0.3c0.2,0,0.4-0.1,0.5-0.2c0.2-0.1,0.2-0.3,0.2-0.4c0-0.2-0.1-0.4-0.3-0.6
				C483.2,369.7,483.3,369.5,483.3,369.3z M481.9,374.4c0.2,0.2,0.4,0.3,0.7,0.3c0.2,0,0.4-0.1,0.5-0.2c0.2-0.1,0.2-0.3,0.2-0.5
				c0-0.2-0.1-0.4-0.3-0.7c0.2-0.2,0.3-0.4,0.3-0.7c0-0.2-0.1-0.4-0.2-0.5c-0.2-0.1-0.3-0.2-0.5-0.2c-0.3,0-0.5,0.1-0.7,0.3
				c-0.2,0.2-0.3,0.6-0.3,1.1C481.6,373.8,481.7,374.1,481.9,374.4z"/>
			<path fill="#FFFFFF" d="M491,376.1c-0.2,0-0.4-0.1-0.5-0.2c0.2-0.4,0.3-0.8,0.3-1.2c0-0.5-0.1-0.9-0.4-1.2
				c-0.3-0.3-0.6-0.5-1-0.5c-0.4,0-0.8,0.2-1,0.5c-0.3,0.3-0.4,0.7-0.4,1.2c0,0.4,0.1,0.8,0.3,1.2c-0.1,0.1-0.2,0.2-0.5,0.2
				c-0.3,0-0.6-0.1-0.9-0.2c-0.2,0.1-0.4,0.2-0.6,0.2c-0.3,0-0.6-0.1-0.9-0.3c1.1-1.1,1.6-2.3,1.6-3.6c0-0.2,0-0.4-0.1-0.6
				c0.9-1.1,1.4-2.2,1.4-3.3c0-0.4-0.1-0.7-0.2-0.9c0.2-0.2,0.4-0.3,0.7-0.3c0.3,0,0.5,0.1,0.7,0.3c0.2-0.2,0.4-0.3,0.7-0.3
				c0.3,0,0.5,0.1,0.7,0.3c-0.1,0.2-0.2,0.5-0.2,0.9c0,1.1,0.5,2.2,1.4,3.3c0,0.2-0.1,0.4-0.1,0.6c0,1.3,0.5,2.5,1.6,3.6
				c-0.3,0.2-0.6,0.3-0.9,0.3c-0.2,0-0.4-0.1-0.6-0.2C491.6,376,491.2,376.1,491,376.1z M489.4,370.2c-0.3,0.5-0.4,1-0.4,1.6
				c0.2-0.1,0.3-0.1,0.4-0.1c0.1,0,0.3,0,0.4,0.1C489.8,371.3,489.7,370.8,489.4,370.2z"/>
			<path fill="#FFFFFF" d="M500,376.1c-0.6,0-1.2-0.2-1.8-0.7c0.2-0.3,0.3-0.6,0.3-0.9c0-0.3-0.2-0.7-0.5-1.2
				c0.1-0.2,0.2-0.3,0.2-0.5c0-0.2-0.1-0.4-0.3-0.6c-0.2-0.2-0.4-0.3-0.6-0.3c-0.2,0-0.4,0.1-0.6,0.3c-0.2,0.2-0.3,0.6-0.3,1
				c0,1.2,0.2,2,0.7,2.4c-0.2,0.2-0.4,0.3-0.7,0.3c-0.3,0-0.5-0.1-0.8-0.3c-0.3,0.2-0.5,0.3-0.8,0.3c-0.3,0-0.5-0.1-0.7-0.3
				c0.3-0.7,0.4-1.4,0.4-2.2c0-0.9-0.1-1.5-0.4-1.9c0.3-0.4,0.4-1,0.4-1.9c0-0.8-0.1-1.6-0.4-2.2c0.2-0.2,0.4-0.3,0.7-0.3
				c0.3,0,0.5,0.1,0.8,0.3c0.5-0.2,1.1-0.4,1.7-0.4c0.7,0,1.3,0.1,1.9,0.4c0.5,0.3,0.8,0.7,0.8,1.2c0,0.5,0.2,0.8,0.4,0.9
				c-0.2,0.1-0.3,0.3-0.4,0.5c0,0.1,0,0.2-0.1,0.4c0,0.4-0.3,0.8-0.8,1c0.3,0.1,0.5,0.3,0.7,0.6c0.1,0.1,0.1,0.2,0.1,0.3
				c0,0.4,0.1,0.6,0.4,0.7c0,0,0,0.2,0.1,0.5c0,0.4,0.1,0.8,0.2,1c0.2,0.4,0.4,0.8,0.7,1.1C500.8,376,500.4,376.1,500,376.1z
				 M498.1,369.3c0-0.2-0.1-0.3-0.2-0.4c-0.1-0.1-0.3-0.2-0.5-0.2c-0.3,0-0.5,0.1-0.6,0.3c-0.2,0.2-0.3,0.5-0.3,0.9
				c0,0.4,0.1,0.7,0.3,0.9c0.2,0.2,0.4,0.3,0.6,0.3c0.2,0,0.4-0.1,0.5-0.2c0.1-0.1,0.2-0.3,0.2-0.4c0-0.2-0.1-0.4-0.3-0.6
				C498,369.7,498.1,369.5,498.1,369.3z"/>
			<path fill="#FFFFFF" d="M508.3,373.3c-0.2,0.1-0.3,0.3-0.4,0.5c0,0.1,0,0.2-0.1,0.4v0.1c-0.1,0.5-0.4,0.9-0.9,1.2
				c-0.5,0.3-1.1,0.5-1.8,0.5c-0.6,0-1.2-0.1-1.8-0.4c-0.3,0.2-0.5,0.3-0.8,0.3c-0.3,0-0.5-0.1-0.7-0.3c0.3-0.7,0.4-1.4,0.4-2.2
				c0-0.9-0.1-1.5-0.4-1.9c0.3-0.4,0.4-1,0.4-1.9c0-0.8-0.1-1.6-0.4-2.2c0.2-0.2,0.5-0.3,0.7-0.3c0.3,0,0.5,0.1,0.8,0.3
				c0.5-0.2,1.1-0.4,1.7-0.4c0.7,0,1.3,0.2,1.9,0.5c0.5,0.3,0.8,0.7,0.8,1.2c0,0.5,0.2,0.8,0.4,0.9c-0.2,0.1-0.3,0.3-0.4,0.5
				c0,0.1,0,0.2-0.1,0.4c0,0.4-0.3,0.8-0.8,1c0.3,0.1,0.6,0.3,0.7,0.5c0.1,0.1,0.1,0.2,0.1,0.3C507.8,372.9,508,373.2,508.3,373.3z
				 M506,369.3c0-0.2-0.1-0.3-0.2-0.4c-0.2-0.1-0.3-0.2-0.5-0.2c-0.2,0-0.5,0.1-0.6,0.3c-0.2,0.2-0.3,0.5-0.3,0.9
				c0,0.4,0.1,0.7,0.3,0.9c0.2,0.2,0.4,0.3,0.6,0.3c0.2,0,0.4-0.1,0.5-0.2c0.2-0.1,0.2-0.3,0.2-0.4c0-0.2-0.1-0.4-0.3-0.6
				C505.9,369.7,506,369.5,506,369.3z M504.6,374.4c0.2,0.2,0.4,0.3,0.6,0.3c0.2,0,0.4-0.1,0.5-0.2c0.2-0.1,0.2-0.3,0.2-0.5
				c0-0.2-0.1-0.4-0.3-0.7c0.2-0.2,0.3-0.4,0.3-0.7c0-0.2-0.1-0.4-0.2-0.5c-0.2-0.1-0.3-0.2-0.5-0.2c-0.3,0-0.5,0.1-0.6,0.3
				c-0.2,0.2-0.3,0.6-0.3,1.1C504.3,373.8,504.4,374.1,504.6,374.4z"/>
			<path fill="#FFFFFF" d="M512.2,372c-0.3,0-0.5,0.1-0.7,0.2c-0.2,0.2-0.3,0.4-0.3,0.7v0.6c0,0.6,0.3,0.9,0.9,0.9
				c0.3,0,0.6-0.1,0.9-0.2c0.3-0.2,0.5-0.3,0.6-0.6c0.3,0.2,0.5,0.5,0.5,0.9c0,0.2,0,0.4-0.1,0.6c0.1,0.1,0.2,0.3,0.2,0.7
				c-0.2-0.1-0.4-0.2-0.8-0.2c-0.2,0-0.4,0-0.6,0.1c-0.2,0-0.4,0.1-0.6,0.2c-0.2,0.1-0.5,0.1-0.6,0.1c-0.4,0-0.8-0.1-1.2-0.4
				c-0.3,0.2-0.5,0.3-0.8,0.3c-0.3,0-0.5-0.1-0.7-0.3c0.3-0.6,0.5-1.4,0.5-2.2c0-0.9-0.2-1.5-0.5-1.9c0.3-0.4,0.5-1.1,0.5-1.9
				c0-0.8-0.2-1.6-0.5-2.2c0.2-0.2,0.5-0.3,0.7-0.3c0.3,0,0.5,0.1,0.8,0.3c0.4-0.2,0.8-0.4,1.2-0.4c0.2,0,0.4,0,0.6,0.1
				c0.2,0.1,0.4,0.1,0.6,0.2c0.2,0,0.4,0.1,0.6,0.1c0.3,0,0.6-0.1,0.8-0.2c0,0.4,0,0.6-0.2,0.7c0.1,0.2,0.1,0.4,0.1,0.6
				c0,0.4-0.2,0.7-0.5,0.9c-0.1-0.2-0.3-0.4-0.6-0.6c-0.3-0.2-0.6-0.2-0.9-0.2c-0.6,0-0.9,0.3-0.9,0.9v0.6c0,0.3,0.1,0.5,0.3,0.7
				c0.2,0.2,0.4,0.3,0.7,0.3c0.4,0,0.9-0.2,1.2-0.5c0,0.1,0.1,0.2,0.1,0.3c0,0.2-0.1,0.5-0.3,0.6c0.2,0.2,0.3,0.4,0.3,0.6
				c0,0.1,0,0.2-0.1,0.3C513,372.2,512.6,372,512.2,372z"/>
			<path fill="#FFFFFF" d="M520.8,376.1c-0.6,0-1.2-0.2-1.8-0.7c0.2-0.3,0.3-0.6,0.3-0.9c0-0.3-0.2-0.7-0.5-1.2
				c0.1-0.2,0.2-0.3,0.2-0.5c0-0.2-0.1-0.4-0.3-0.6c-0.2-0.2-0.4-0.3-0.7-0.3c-0.2,0-0.4,0.1-0.6,0.3c-0.2,0.2-0.3,0.6-0.3,1
				c0,1.2,0.2,2,0.7,2.4c-0.2,0.2-0.4,0.3-0.7,0.3c-0.3,0-0.5-0.1-0.8-0.3c-0.3,0.2-0.5,0.3-0.8,0.3c-0.3,0-0.5-0.1-0.7-0.3
				c0.3-0.7,0.4-1.4,0.4-2.2c0-0.9-0.1-1.5-0.4-1.9c0.3-0.4,0.4-1,0.4-1.9c0-0.8-0.1-1.6-0.4-2.2c0.2-0.2,0.4-0.3,0.7-0.3
				c0.3,0,0.5,0.1,0.8,0.3c0.5-0.2,1.1-0.4,1.7-0.4c0.7,0,1.3,0.1,1.9,0.4c0.5,0.3,0.8,0.7,0.8,1.2c0,0.5,0.2,0.8,0.4,0.9
				c-0.2,0.1-0.3,0.3-0.4,0.5c0,0.1,0,0.2-0.1,0.4c0,0.4-0.3,0.8-0.8,1c0.3,0.1,0.5,0.3,0.7,0.6c0.1,0.1,0.1,0.2,0.1,0.3
				c0,0.4,0.1,0.6,0.4,0.7c0,0,0,0.2,0.1,0.5c0,0.4,0.1,0.8,0.2,1c0.2,0.4,0.4,0.8,0.7,1.1C521.6,376,521.2,376.1,520.8,376.1z
				 M518.9,369.3c0-0.2-0.1-0.3-0.2-0.4c-0.1-0.1-0.3-0.2-0.5-0.2c-0.3,0-0.5,0.1-0.6,0.3c-0.2,0.2-0.3,0.5-0.3,0.9
				c0,0.4,0.1,0.7,0.3,0.9c0.2,0.2,0.4,0.3,0.6,0.3c0.2,0,0.4-0.1,0.5-0.2c0.1-0.1,0.2-0.3,0.2-0.4c0-0.2-0.1-0.4-0.3-0.6
				C518.8,369.7,518.9,369.5,518.9,369.3z"/>
			<path fill="#FFFFFF" d="M529.6,369.7c-0.4-0.8-0.9-1.2-1.5-1.2c-0.3,0-0.5,0.1-0.7,0.3c-0.2,0.2-0.3,0.4-0.3,0.7
				c0,0.2,0.1,0.5,0.3,0.7c0.2,0.2,0.5,0.3,0.8,0.3c0.2,0,0.3,0,0.5-0.1c0.1,0.2,0.3,0.5,0.6,0.7c0.1,0.1,0.3,0.2,0.5,0.3
				c0.9,0.5,1.3,1.2,1.3,2.1c0,0.7-0.3,1.3-0.8,1.8c-0.6,0.5-1.3,0.8-2.2,0.8c-0.5,0-1-0.1-1.5-0.2c-0.1,0-0.3-0.1-0.5-0.2
				c-0.2-0.1-0.3-0.1-0.5-0.1c-0.2,0-0.4,0.1-0.7,0.3c0-0.1,0-0.2,0-0.2c0-0.4,0.2-0.8,0.5-0.9c-0.1-0.1-0.1-0.3-0.1-0.5
				c0-0.3,0.1-0.6,0.2-0.9c0.3,0.5,0.7,0.9,1.1,1.1c0.4,0.2,0.8,0.3,1.3,0.3c0.4,0,0.7-0.1,0.9-0.2c0.2-0.2,0.4-0.4,0.4-0.6
				c0-0.3-0.1-0.6-0.4-0.9c-0.3-0.2-0.6-0.3-1-0.3c-0.2,0-0.4,0-0.5,0.1c0-0.5-0.3-0.9-0.7-1c-0.8-0.5-1.2-1.1-1.2-2
				c0-0.7,0.2-1.3,0.7-1.8c0.5-0.5,1.1-0.8,1.9-0.8c0.4,0,0.9,0.1,1.3,0.3c0.1,0.1,0.2,0.1,0.3,0.2c0.1,0.1,0.2,0.1,0.3,0.1
				c0.1,0,0.3,0,0.5,0c0,0.1,0,0.1,0,0.2c0,0.3-0.1,0.5-0.3,0.8C530,369,529.9,369.4,529.6,369.7z"/>
			<path fill="#FFFFFF" d="M535.5,368.8c-0.1-0.7-0.2-1.1-0.4-1.4c0.2-0.2,0.4-0.3,0.7-0.3s0.5,0.1,0.7,0.3c0.2-0.2,0.5-0.3,0.7-0.3
				c0.3,0,0.5,0.1,0.7,0.3c-0.3,0.7-0.5,1.4-0.5,2.3c0,0.9,0.2,1.5,0.5,1.9c-0.3,0.4-0.5,1.1-0.5,1.9c0,0.8,0.2,1.6,0.5,2.3
				c-0.2,0.2-0.5,0.3-0.7,0.3c-0.3,0-0.5-0.1-0.7-0.3c-0.2,0.2-0.5,0.3-0.7,0.3s-0.5-0.1-0.7-0.3c0.2-0.2,0.4-0.7,0.4-1.4
				c0-0.2,0-0.6,0-1.4c0-0.4-0.2-0.7-0.5-0.8c-0.1,0-0.2,0-0.3,0c-0.1,0-0.2,0-0.3,0c-0.3,0.1-0.5,0.4-0.5,0.8c0,0.8,0,1.2,0,1.4
				c0.1,0.7,0.2,1.1,0.4,1.4c-0.2,0.2-0.5,0.3-0.7,0.3c-0.3,0-0.5-0.1-0.8-0.3c-0.2,0.2-0.5,0.3-0.7,0.3c-0.3,0-0.5-0.1-0.7-0.3
				c0.3-0.7,0.5-1.4,0.5-2.3c0-0.9-0.2-1.5-0.5-1.9c0.3-0.4,0.5-1.1,0.5-1.9c0-0.8-0.2-1.6-0.5-2.3c0.2-0.2,0.5-0.3,0.7-0.3
				c0.3,0,0.5,0.1,0.7,0.3c0.2-0.2,0.5-0.3,0.8-0.3c0.3,0,0.5,0.1,0.7,0.3c-0.2,0.2-0.4,0.7-0.4,1.4c0,0.2,0,0.6,0,1.4
				c0,0.4,0.2,0.7,0.5,0.8c0.1,0,0.2,0,0.3,0c0.1,0,0.2,0,0.3,0c0.3-0.1,0.5-0.4,0.5-0.8C535.6,369.4,535.5,369,535.5,368.8z"/>
			<path fill="#FFFFFF" d="M543.3,375.7c-0.4,0.2-0.8,0.3-1.4,0.3c-0.5,0-1-0.1-1.4-0.3c-0.9-0.4-1.4-1.2-1.4-2.3v-1
				c0-0.5-0.2-0.8-0.5-0.9c0.2-0.1,0.3-0.3,0.4-0.5c0-0.1,0-0.2,0.1-0.4v-1c0-1.1,0.5-1.8,1.4-2.2c0.4-0.2,0.8-0.3,1.4-0.3
				c0.5,0,1,0.2,1.4,0.3c0.9,0.4,1.4,1.2,1.4,2.2v1c0,0.5,0.2,0.8,0.5,0.9c-0.2,0.1-0.3,0.3-0.4,0.5c0,0.1,0,0.2-0.1,0.4v1
				C544.7,374.6,544.2,375.3,543.3,375.7z M542.9,372.5c0-0.5-0.2-0.8-0.5-0.9c0.2-0.1,0.3-0.3,0.4-0.5c0-0.1,0-0.2,0.1-0.4v-0.9
				c0-0.3-0.1-0.6-0.3-0.8c-0.2-0.2-0.4-0.3-0.6-0.3c-0.2,0-0.4,0.1-0.6,0.3c-0.2,0.2-0.3,0.4-0.3,0.8v0.9c0,0.5,0.2,0.8,0.5,0.9
				c-0.2,0.1-0.3,0.3-0.4,0.5c0,0.1,0,0.2-0.1,0.4v0.9c0,0.3,0.1,0.6,0.3,0.8c0.2,0.2,0.4,0.3,0.6,0.3c0.2,0,0.5-0.1,0.6-0.3
				c0.2-0.2,0.3-0.4,0.3-0.8V372.5z"/>
			<path fill="#FFFFFF" d="M546.6,376.1c-0.3,0-0.5-0.1-0.7-0.3c0.3-0.7,0.5-1.4,0.5-2.2c0-0.9-0.2-1.5-0.5-1.9
				c0.3-0.4,0.5-1.1,0.5-1.9c0-0.8-0.2-1.6-0.5-2.2c0.2-0.2,0.5-0.3,0.7-0.3c0.3,0,0.5,0.1,0.8,0.3c0.5-0.2,1.1-0.4,1.7-0.4
				c0.7,0,1.4,0.2,1.9,0.5c0.5,0.3,0.8,0.7,0.8,1.2c0,0.5,0.2,0.8,0.4,0.9c-0.2,0.1-0.3,0.3-0.4,0.5c0,0.1,0,0.2-0.1,0.4
				c0,0.8-0.3,1.3-0.8,1.5c-0.3,0.2-0.9,0.4-1.5,0.4c-0.6,0-1,0.1-1.2,0.4c-0.1,0.1-0.1,0.4-0.1,0.8c0,0.9,0.2,1.6,0.6,2.1
				c-0.2,0.2-0.4,0.3-0.7,0.3c-0.3,0-0.5-0.1-0.8-0.3C547.1,376,546.8,376.1,546.6,376.1z M549.9,369.3c0-0.2-0.1-0.3-0.2-0.5
				c-0.2-0.1-0.3-0.2-0.5-0.2c-0.3,0-0.5,0.1-0.6,0.3c-0.2,0.2-0.3,0.5-0.3,0.9c0,0.4,0.1,0.7,0.3,0.9c0.2,0.2,0.4,0.3,0.6,0.3
				c0.2,0,0.4-0.1,0.5-0.2c0.2-0.1,0.2-0.3,0.2-0.4c0-0.2-0.1-0.4-0.3-0.6C549.8,369.7,549.9,369.5,549.9,369.3z"/>
			<path fill="#FFFFFF" d="M556.2,373.9c-0.1,0-0.2,0-0.2,0c0-0.2,0-0.3-0.1-0.5c-0.1-0.2-0.2-0.3-0.3-0.4c-0.1-0.1-0.3-0.1-0.4,0
				c-0.2,0.1-0.3,0.2-0.3,0.3c-0.1,0.2,0,0.3,0,0.5c0.1,0.1,0.1,0.3,0.3,0.4c0,0.1,0,0.1-0.1,0.2c-0.1,0-0.2,0.1-0.4,0.1
				c0,0.1-0.1,0.1-0.2,0.2c-0.1,0-0.2,0.1-0.4,0c0.2-0.6,0.3-1.1,0.1-1.6c0-0.1-0.1-0.2-0.1-0.2c0.2-0.5,0.2-1,0-1.4
				c-0.1-0.1-0.1-0.2-0.2-0.3c0-0.1,0.1-0.2,0.2-0.2c0.1,0,0.2,0,0.3,0c0-0.1,0.1-0.2,0.2-0.2c0.1,0,0.2,0,0.3,0
				c0,0.1,0,0.2,0.1,0.4c0.2,0.4,0.5,0.7,1,1c0,0.1,0,0.1,0.1,0.2c0.2,0.5,0.6,0.8,1.1,1.1c-0.1,0.1-0.2,0.2-0.3,0.2
				c-0.1,0-0.2,0-0.3,0C556.4,373.8,556.3,373.8,556.2,373.9z M554.7,372c0,0.2,0,0.4,0.1,0.6c0.1-0.1,0.1-0.1,0.1-0.1
				c0,0,0.1,0,0.2,0C555.1,372.3,554.9,372.1,554.7,372z"/>
			<path fill="#FFFFFF" d="M558.1,370.8c0-0.1,0-0.3-0.1-0.6c-0.1-0.3-0.3-0.6-0.5-0.6c0-0.1,0.1-0.2,0.2-0.2c0.1,0,0.2,0,0.3,0
				c0-0.1,0.1-0.2,0.2-0.2c0.1,0,0.2,0,0.3,0l0,0.2c0,0.2,0.1,0.5,0.1,0.7c0.1,0.3,0.3,0.5,0.5,0.7c-0.1,0.2,0,0.5,0.1,0.8
				c0.1,0.3,0.3,0.6,0.5,0.8c0,0.1-0.1,0.2-0.2,0.2c-0.1,0-0.2,0-0.3,0c0,0.1-0.1,0.2-0.2,0.2c-0.1,0-0.2,0-0.3,0
				c0.1-0.2,0-0.3,0-0.5c-0.1-0.2-0.2-0.3-0.4-0.4l-0.8-0.4c0,0.2,0,0.5,0.2,0.8c0.1,0.3,0.3,0.6,0.6,0.8c0,0.1-0.1,0.2-0.2,0.2
				c-0.1,0-0.2,0-0.3,0c-0.1,0.1-0.1,0.2-0.2,0.2c-0.1,0-0.2,0-0.3,0c0-0.3,0-0.6-0.2-0.9c-0.1-0.3-0.3-0.5-0.5-0.6
				c0.1-0.2,0-0.5-0.1-0.8c-0.1-0.2-0.2-0.4-0.4-0.6l-0.1-0.1c0-0.1,0.1-0.2,0.2-0.2c0.1,0,0.2,0,0.3,0c0-0.1,0.1-0.2,0.2-0.2
				c0.1,0,0.2,0,0.3,0c0,0.1,0,0.2,0,0.3c0,0.1,0.1,0.2,0.2,0.3L558.1,370.8z"/>
			<path fill="#FFFFFF" d="M561.7,369.7c-0.1,0.1-0.1,0.1-0.1,0.3c0,0,0,0.1,0,0.1l0.3,0.7c0,0.2,0,0.4-0.1,0.6
				c-0.1,0.2-0.3,0.3-0.6,0.4c-0.2,0.1-0.5,0.1-0.7,0.1c-0.1,0.1-0.1,0.2-0.2,0.2c-0.1,0-0.2,0-0.3,0c0-0.3,0-0.6-0.2-0.9
				c-0.1-0.3-0.3-0.5-0.5-0.6c0-0.2,0-0.5-0.1-0.8c-0.1-0.3-0.3-0.6-0.5-0.7c0-0.1,0.1-0.2,0.2-0.2c0.1,0,0.2,0,0.3,0
				c0.2-0.2,0.3-0.3,0.6-0.4c0.3-0.1,0.5-0.1,0.8-0.1c0.2,0,0.4,0.1,0.5,0.3l0.3,0.7C561.5,369.6,561.6,369.7,561.7,369.7z
				 M560.6,369.3c0-0.1-0.1-0.2-0.2-0.2c-0.1,0-0.2,0-0.3,0c-0.1,0-0.2,0.1-0.2,0.2c0,0.1,0,0.2,0,0.2l0.2,0.4
				c0.1,0.2,0.2,0.3,0.3,0.3c-0.1,0.1-0.1,0.1-0.1,0.3c0,0,0,0.1,0,0.1l0.2,0.6c0,0.1,0.1,0.1,0.2,0.2c0.1,0,0.2,0,0.3,0
				c0.1,0,0.2-0.1,0.2-0.2c0-0.1,0-0.2,0-0.3l-0.2-0.5c-0.1-0.2-0.2-0.3-0.3-0.3c0.1-0.1,0.1-0.1,0.1-0.3c0,0,0-0.1,0-0.1
				L560.6,369.3z"/>
			<path fill="#FFFFFF" d="M568.5,369.7c-0.4-0.8-0.9-1.2-1.5-1.2c-0.3,0-0.5,0.1-0.7,0.3c-0.2,0.2-0.3,0.4-0.3,0.7
				c0,0.2,0.1,0.5,0.3,0.7c0.2,0.2,0.5,0.3,0.8,0.3c0.2,0,0.3,0,0.5-0.1c0.1,0.2,0.3,0.5,0.6,0.7c0.1,0.1,0.3,0.2,0.5,0.3
				c0.9,0.5,1.3,1.2,1.3,2.1c0,0.7-0.3,1.3-0.8,1.8c-0.6,0.5-1.3,0.8-2.2,0.8c-0.5,0-1-0.1-1.5-0.2c-0.1,0-0.3-0.1-0.5-0.2
				c-0.2-0.1-0.3-0.1-0.5-0.1c-0.2,0-0.4,0.1-0.7,0.3c0-0.1,0-0.2,0-0.2c0-0.4,0.2-0.8,0.5-0.9c-0.1-0.1-0.1-0.3-0.1-0.5
				c0-0.3,0.1-0.6,0.2-0.9c0.3,0.5,0.7,0.9,1.1,1.1c0.4,0.2,0.8,0.3,1.3,0.3c0.4,0,0.7-0.1,0.9-0.2c0.2-0.2,0.4-0.4,0.4-0.6
				c0-0.3-0.1-0.6-0.4-0.9c-0.3-0.2-0.6-0.3-1-0.3c-0.2,0-0.4,0-0.5,0.1c0-0.5-0.3-0.9-0.7-1c-0.8-0.5-1.2-1.1-1.2-2
				c0-0.7,0.2-1.3,0.7-1.8c0.5-0.5,1.1-0.8,1.9-0.8c0.4,0,0.9,0.1,1.3,0.3c0.1,0.1,0.2,0.1,0.3,0.2c0.1,0.1,0.2,0.1,0.3,0.1
				c0.1,0,0.3,0,0.5,0c0,0.1,0,0.1,0,0.2c0,0.3-0.1,0.5-0.3,0.8C568.9,369,568.7,369.4,568.5,369.7z"/>
			<path fill="#FFFFFF" d="M574.4,368.8c-0.1-0.7-0.2-1.1-0.4-1.4c0.2-0.2,0.4-0.3,0.7-0.3c0.3,0,0.5,0.1,0.7,0.3
				c0.2-0.2,0.5-0.3,0.7-0.3c0.3,0,0.5,0.1,0.7,0.3c-0.3,0.7-0.5,1.4-0.5,2.3c0,0.9,0.2,1.5,0.5,1.9c-0.3,0.4-0.5,1.1-0.5,1.9
				c0,0.8,0.2,1.6,0.5,2.3c-0.2,0.2-0.5,0.3-0.7,0.3c-0.3,0-0.5-0.1-0.7-0.3c-0.2,0.2-0.5,0.3-0.7,0.3c-0.3,0-0.5-0.1-0.7-0.3
				c0.2-0.2,0.4-0.7,0.4-1.4c0-0.2,0-0.6,0-1.4c0-0.4-0.2-0.7-0.5-0.8c-0.1,0-0.2,0-0.3,0c-0.1,0-0.2,0-0.3,0
				c-0.3,0.1-0.5,0.4-0.5,0.8c0,0.8,0,1.2,0,1.4c0.1,0.7,0.2,1.1,0.4,1.4c-0.2,0.2-0.5,0.3-0.7,0.3c-0.3,0-0.5-0.1-0.8-0.3
				c-0.2,0.2-0.5,0.3-0.7,0.3c-0.3,0-0.5-0.1-0.7-0.3c0.3-0.7,0.5-1.4,0.5-2.3c0-0.9-0.2-1.5-0.5-1.9c0.3-0.4,0.5-1.1,0.5-1.9
				c0-0.8-0.2-1.6-0.5-2.3c0.2-0.2,0.5-0.3,0.7-0.3c0.3,0,0.5,0.1,0.7,0.3c0.2-0.2,0.5-0.3,0.8-0.3c0.3,0,0.5,0.1,0.7,0.3
				c-0.2,0.2-0.4,0.7-0.4,1.4c0,0.2,0,0.6,0,1.4c0,0.4,0.2,0.7,0.5,0.8c0.1,0,0.2,0,0.3,0c0.1,0,0.2,0,0.3,0
				c0.3-0.1,0.5-0.4,0.5-0.8C574.4,369.4,574.4,369,574.4,368.8z"/>
			<path fill="#FFFFFF" d="M583.4,376.1c-0.2,0-0.4-0.1-0.5-0.2c0.2-0.4,0.3-0.8,0.3-1.2c0-0.5-0.1-0.9-0.4-1.2
				c-0.3-0.3-0.6-0.5-1-0.5c-0.4,0-0.8,0.2-1,0.5c-0.3,0.3-0.4,0.7-0.4,1.2c0,0.4,0.1,0.8,0.3,1.2c-0.1,0.1-0.2,0.2-0.5,0.2
				c-0.3,0-0.6-0.1-0.9-0.2c-0.2,0.1-0.4,0.2-0.6,0.2c-0.3,0-0.6-0.1-0.9-0.3c1.1-1.1,1.6-2.3,1.6-3.6c0-0.2,0-0.4-0.1-0.6
				c0.9-1.1,1.4-2.2,1.4-3.3c0-0.4-0.1-0.7-0.2-0.9c0.2-0.2,0.4-0.3,0.7-0.3c0.3,0,0.5,0.1,0.7,0.3c0.2-0.2,0.4-0.3,0.7-0.3
				c0.3,0,0.5,0.1,0.7,0.3c-0.1,0.2-0.2,0.5-0.2,0.9c0,1.1,0.5,2.2,1.4,3.3c0,0.2-0.1,0.4-0.1,0.6c0,1.3,0.5,2.5,1.6,3.6
				c-0.3,0.2-0.7,0.3-0.9,0.3c-0.2,0-0.4-0.1-0.6-0.2C584,376,583.6,376.1,583.4,376.1z M581.8,370.2c-0.3,0.5-0.4,1-0.4,1.6
				c0.2-0.1,0.3-0.1,0.4-0.1s0.3,0,0.4,0.1C582.2,371.3,582.1,370.8,581.8,370.2z"/>
			<path fill="#FFFFFF" d="M587.6,376.1c-0.2,0-0.5-0.1-0.7-0.2c0.2-0.3,0.3-0.6,0.3-1c0-0.6-0.2-1.3-0.6-2.1
				c-0.3-0.7-0.7-1.1-1-1.2c0-0.3,0.1-0.6,0.1-0.8c0-0.6-0.1-1.1-0.3-1.6c-0.2-0.4-0.5-1-1-1.6c0.3-0.2,0.6-0.4,0.9-0.4
				c0.3,0,0.5,0.1,0.8,0.4c0.2-0.2,0.5-0.4,0.8-0.4c0.3,0,0.5,0.1,0.6,0.2c-0.2,0.3-0.3,0.7-0.3,1.1c0,0.8,0.2,1.4,0.7,1.9
				c-0.1,0.2-0.1,0.4-0.1,0.7c0,0.3,0.1,0.7,0.2,1c0.1,0.3,0.3,0.6,0.4,0.8c0.2-0.2,0.3-0.4,0.4-0.8c0.1-0.3,0.2-0.7,0.2-1
				c0-0.3,0-0.5-0.1-0.7c0.5-0.5,0.7-1.1,0.7-1.9c0-0.4-0.1-0.8-0.3-1.1c0.1-0.1,0.4-0.2,0.6-0.2c0.3,0,0.6,0.1,0.8,0.4
				c0.2-0.2,0.5-0.4,0.8-0.4c0.3,0,0.6,0.1,0.9,0.4c-0.5,0.6-0.8,1.1-1,1.6c-0.2,0.5-0.3,1.1-0.3,1.6c0,0.3,0,0.5,0.1,0.8
				c-0.3,0.1-0.6,0.5-1,1.2c-0.4,0.8-0.5,1.5-0.5,2.1c0,0.4,0.1,0.7,0.3,1c-0.3,0.1-0.5,0.2-0.8,0.2c-0.3,0-0.5-0.1-0.7-0.3
				C588,376,587.8,376.1,587.6,376.1z"/>
			<path fill="#FFFFFF" d="M596.1,372c-0.3,0-0.5,0.1-0.7,0.2c-0.2,0.2-0.3,0.4-0.3,0.7v0.6c0,0.6,0.3,0.9,0.9,0.9
				c0.3,0,0.6-0.1,0.9-0.2c0.3-0.2,0.5-0.3,0.6-0.6c0.3,0.2,0.5,0.5,0.5,0.9c0,0.2,0,0.4-0.1,0.6c0.1,0.1,0.2,0.3,0.2,0.7
				c-0.2-0.1-0.4-0.2-0.8-0.2c-0.2,0-0.4,0-0.6,0.1c-0.2,0-0.4,0.1-0.6,0.2c-0.2,0.1-0.5,0.1-0.6,0.1c-0.4,0-0.8-0.1-1.2-0.4
				c-0.3,0.2-0.5,0.3-0.8,0.3c-0.3,0-0.5-0.1-0.7-0.3c0.3-0.6,0.5-1.4,0.5-2.2c0-0.9-0.2-1.5-0.5-1.9c0.3-0.4,0.5-1.1,0.5-1.9
				c0-0.8-0.2-1.6-0.5-2.2c0.2-0.2,0.5-0.3,0.7-0.3c0.3,0,0.5,0.1,0.8,0.3c0.4-0.2,0.8-0.4,1.2-0.4c0.2,0,0.4,0,0.6,0.1
				c0.2,0.1,0.4,0.1,0.6,0.2c0.2,0,0.4,0.1,0.6,0.1c0.3,0,0.6-0.1,0.8-0.2c0,0.4,0,0.6-0.2,0.7c0.1,0.2,0.1,0.4,0.1,0.6
				c0,0.4-0.2,0.7-0.5,0.9c-0.1-0.2-0.3-0.4-0.6-0.6c-0.3-0.2-0.6-0.2-0.9-0.2c-0.6,0-0.9,0.3-0.9,0.9v0.6c0,0.3,0.1,0.5,0.3,0.7
				c0.2,0.2,0.4,0.3,0.7,0.3c0.4,0,0.9-0.2,1.2-0.5c0,0.1,0.1,0.2,0.1,0.3c0,0.2-0.1,0.5-0.3,0.6c0.2,0.2,0.3,0.4,0.3,0.6
				c0,0.1,0,0.2-0.1,0.3C597,372.2,596.6,372,596.1,372z"/>
		</g>
		<g id="lmXyGe_1_">
			<g>
				<path fill="#FFFFFF" d="M579.2,327c-0.1,0.4,0,0.9-0.2,1.2c-0.6,0.3-0.8-0.1-1.3,0c-0.5,1.4-2,2.1-2.7,3.4
					c0.4-0.2-0.1,0.7-0.1,0.2c0.1,0,0.2-0.2,0-0.2c-0.5,0.5,0.1,0.8-0.6,0.5c0,0.5,0,0.8-0.2,0.4c-0.5,0.3,0.1,0.3-0.2,0.7
					c-0.9,0.7-1.7,2.1-2.6,2.4c0.8-0.8,2.2-1.9,2.4-2.6c-0.8,1.1-2.6,2.3-3.3,3.2c-0.3,0.4,0.2,0.5-0.4,0.6c0,0.1,0,0.1,0,0.2
					c0.4,0.3,0.5,1.1,1.1,1.1c1.8-1.7,3.6-3.4,5.1-5.4c0-0.5-0.3-0.4-0.3-0.7c0.6-0.4,0.9-1,1.7-1.2c1.3,4-0.7,7.4,0,10.9
					c0.1,0.5,0.1,1.2,0.7,1.5c0.1,0,0.1,0,0.2,0c2.5-2.3,1.5-9.6,0.6-13.7c0.5-0.4,0.8-0.9,1-1.5c-0.1-0.2-0.1-0.6-0.3-0.6
					C579.4,327,579.3,327,579.2,327z M571.1,335.8C570.3,336.7,570.6,335.7,571.1,335.8L571.1,335.8z M570.8,337.3
					c1.4-1.8,2.8-3.6,4.8-5.1C574.4,334.1,572.3,336.1,570.8,337.3z"/>
			</g>
		</g>
	</g>
</g>
<g id="foreground">
	<g id="lamp">
		<path fill="#4D97B2" d="M1297.1,362.5l-20.6,3.3c-1,0.2-1.5-1.1-0.8-1.7l9.6-7.6c0.1-0.1,0.2-0.1,0.4-0.2l11.3-2.8
			c0.2,0,0.3,0,0.5,0l10.3,2.8c0.1,0,0.2,0.1,0.3,0.2l10.2,7.6c0.8,0.6,0.3,1.9-0.7,1.7l-20.2-3.3
			C1297.3,362.5,1297.2,362.5,1297.1,362.5z"/>
		<path fill="#4D97B2" d="M1307.7,402.2c0.9-0.2,1.6-0.9,1.9-1.7l10.8-29.5c0.6-1.6-0.4-3.4-2.2-3.7l-20.4-3.3c-0.3,0-0.6,0-0.9,0
			l-20.6,3.3c-1.7,0.3-2.8,2.1-2.2,3.7l11.1,29.5c0.3,0.8,1,1.5,1.9,1.7l4.7,1.3c0.4,17.2,2,135.2-2.2,157.7c-5.1,2.2-8.5,5.9-8.5,7
			c0,1.6,7.3,2.9,16.3,2.9c9,0,16.3-1.3,16.3-2.9c0-1.1-3.5-4.9-8.7-7.1c-4.6-22.5-2.7-140.2-2.2-157.5L1307.7,402.2z M1300,372.7
			c0-1.7,1.9-3,3.5-2.8l6.9,1c1.7,0.3,2.8,2,2.3,3.6l-6.7,21.1c-0.3,0.9-1.3,1.6-2.3,1.9c-1.8,0.5-3.8-0.9-3.8-2.7V372.7z
			 M1290.2,397.6l0.3,0c-0.9-0.2-1.5-0.9-1.8-1.9l-6.7-21.1c-0.5-1.6,0.6-3.4,2.3-3.6l6.1-1c1.7-0.3,2.5,1.1,2.5,2.8v22.2
			C1293,396.7,1292,398.1,1290.2,397.6z"/>
	</g>
	<g id="cicyle">
		<g>
			<g>
				<g>
					<path fill="#4D97B2" d="M966,511h-3v-23h3V511z M965,511h1v-23h-1V511z"/>
				</g>
				<g>
					<path fill="#4D97B2" d="M968,512.1l-3-1l7.1-22.4l3,1L968,512.1z M965.8,510.7l1.8,0.6l6.7-21.2l-1.8-0.6L965.8,510.7z"/>
				</g>
				<g>
					<path fill="#4D97B2" d="M968.9,513l-2.6-1.8l13.3-19.4l2.6,1.8L968.9,513z M967.2,511l1.5,1.1l12.6-18.3l-1.5-1.1L967.2,511z"
						/>
				</g>
				<g>
					<path fill="#4D97B2" d="M969.4,514.1l-2-2.5l18.3-14.7l2,2.5L969.4,514.1z M968.3,511.8l1.2,1.5l17.3-13.9l-1.2-1.5
						L968.3,511.8z"/>
				</g>
				<g>
					<path fill="#4D97B2" d="M969.6,515.3l-1.2-2.9l21.8-8.8l1.2,2.9L969.6,515.3z M969.2,512.8l0.7,1.7l20.6-8.3l-0.7-1.7
						L969.2,512.8z"/>
				</g>
				<g>
					<path fill="#4D97B2" d="M969.4,516.6l-0.2-3.2l23.5-1.8l0.2,3.2L969.4,516.6z M969.8,514l0.1,1.9l22.2-1.7l-0.1-1.9L969.8,514z
						"/>
				</g>
				<g>
					<path fill="#4D97B2" d="M991.7,523.1l-22.9-5.4l0.7-3.1l22.9,5.4L991.7,523.1z M969.6,517.3l21.6,5.1l0.4-1.8l-21.6-5.1
						L969.6,517.3z"/>
				</g>
				<g>
					<path fill="#4D97B2" d="M988.2,530.5l-20.3-11.9l1.6-2.7l20.3,11.9L988.2,530.5z M968.8,518.4l19.2,11.2l0.9-1.6l-19.2-11.2
						L968.8,518.4z"/>
				</g>
				<g>
					<path fill="#4D97B2" d="M982.9,536.5l-16-17.2l2.3-2.2l16,17.2L982.9,536.5z M967.8,519.3l15.1,16.3l1.4-1.3L969.1,518
						L967.8,519.3z"/>
				</g>
				<g>
					<path fill="#4D97B2" d="M976,540.6l-10.4-21.1l2.8-1.4l10.4,21.1L976,540.6z M966.5,519.8l9.8,20l1.7-0.8l-9.8-20L966.5,519.8z
						"/>
				</g>
				<g>
					<path fill="#4D97B2" d="M968,542.7l-3.6-23.2l3.1-0.5l3.6,23.2L968,542.7z M965.2,520l3.4,22l1.8-0.3l-3.4-22L965.2,520z"/>
				</g>
				<g>
					<path fill="#4D97B2" d="M962.7,542.7l-3.1-0.5l3.6-23.2l3.1,0.5L962.7,542.7z M960.3,541.6l1.8,0.3l3.4-22l-1.8-0.3
						L960.3,541.6z"/>
				</g>
				<g>
					<path fill="#4D97B2" d="M954.7,540.6l-2.8-1.4l10.4-21.1l2.8,1.4L954.7,540.6z M952.7,539l1.7,0.8l9.8-20l-1.7-0.8L952.7,539z"
						/>
				</g>
				<g>
					<path fill="#4D97B2" d="M947.8,536.5l-2.3-2.2l16-17.2l2.3,2.2L947.8,536.5z M946.4,534.3l1.4,1.3l15.1-16.3l-1.4-1.3
						L946.4,534.3z"/>
				</g>
				<g>
					<path fill="#4D97B2" d="M942.5,530.5l-1.6-2.7l20.3-11.9l1.6,2.7L942.5,530.5z M941.8,528l0.9,1.6l19.2-11.2l-0.9-1.6
						L941.8,528z"/>
				</g>
				<g>
					<path fill="#4D97B2" d="M939,523.1l-0.7-3.1l22.9-5.4l0.7,3.1L939,523.1z M939.1,520.5l0.4,1.8l21.6-5.1l-0.4-1.8L939.1,520.5z
						"/>
				</g>
				<g>
					<path fill="#4D97B2" d="M961.3,516.6l-23.5-1.8l0.2-3.2l23.5,1.8L961.3,516.6z M938.6,514.2l22.2,1.7l0.1-1.9l-22.2-1.7
						L938.6,514.2z"/>
				</g>
				<g>
					<path fill="#4D97B2" d="M961.1,515.3l-21.8-8.8l1.2-2.9l21.8,8.8L961.1,515.3z M940.2,506.2l20.6,8.3l0.7-1.7l-20.6-8.3
						L940.2,506.2z"/>
				</g>
				<g>
					<path fill="#4D97B2" d="M961.3,514.1L943,499.4l2-2.5l18.3,14.7L961.3,514.1z M943.9,499.3l17.3,13.9l1.2-1.5l-17.3-13.9
						L943.9,499.3z"/>
				</g>
				<g>
					<path fill="#4D97B2" d="M961.9,513l-13.3-19.4l2.6-1.8l13.3,19.4L961.9,513z M949.4,493.8l12.6,18.3l1.5-1.1l-12.6-18.3
						L949.4,493.8z"/>
				</g>
				<g>
					<path fill="#4D97B2" d="M962.7,512.1l-7.1-22.4l3-1l7.1,22.4L962.7,512.1z M956.4,490.1l6.7,21.2l1.8-0.6l-6.7-21.2
						L956.4,490.1z"/>
				</g>
				<g>
					<path fill="#4D97B2" d="M966,511h-3v-23h3V511z M965,511h1v-23h-1V511z"/>
				</g>
			</g>
			<g>
				<path fill="#4D97B2" d="M965.4,489.1c3.5,0,7,0.7,10.2,2.1c3.1,1.3,5.9,3.2,8.3,5.6s4.3,5.2,5.6,8.3c1.4,3.2,2.1,6.7,2.1,10.2
					c0,3.5-0.7,7-2.1,10.2c-1.3,3.1-3.2,5.9-5.6,8.3s-5.2,4.3-8.3,5.6c-3.2,1.4-6.7,2.1-10.2,2.1s-7-0.7-10.2-2.1
					c-3.1-1.3-5.9-3.2-8.3-5.6c-2.4-2.4-4.3-5.2-5.6-8.3c-1.4-3.2-2.1-6.7-2.1-10.2c0-3.5,0.7-7,2.1-10.2c1.3-3.1,3.2-5.9,5.6-8.3
					c2.4-2.4,5.2-4.3,8.3-5.6C958.4,489.8,961.8,489.1,965.4,489.1 M965.4,488.2c-15,0-27.1,12.1-27.1,27.1
					c0,15,12.1,27.1,27.1,27.1s27.1-12.1,27.1-27.1C992.4,500.4,980.3,488.2,965.4,488.2L965.4,488.2z"/>
				<path fill="#4D97B2" d="M965.4,488.9c3.6,0,7,0.7,10.3,2.1c3.1,1.3,6,3.2,8.4,5.7c2.4,2.4,4.3,5.3,5.7,8.4
					c1.4,3.3,2.1,6.7,2.1,10.3c0,3.6-0.7,7-2.1,10.3c-1.3,3.1-3.2,6-5.7,8.4c-2.4,2.4-5.3,4.3-8.4,5.7c-3.3,1.4-6.7,2.1-10.3,2.1
					s-7-0.7-10.3-2.1c-3.1-1.3-6-3.2-8.4-5.7c-2.4-2.4-4.3-5.3-5.7-8.4c-1.4-3.3-2.1-6.7-2.1-10.3c0-3.6,0.7-7,2.1-10.3
					c1.3-3.1,3.2-6,5.7-8.4c2.4-2.4,5.3-4.3,8.4-5.7C958.3,489.6,961.8,488.9,965.4,488.9 M965.4,488.2c-15,0-27.1,12.1-27.1,27.1
					c0,15,12.1,27.1,27.1,27.1s27.1-12.1,27.1-27.1C992.4,500.4,980.3,488.2,965.4,488.2L965.4,488.2z"/>
				<path fill="#4D97B2" d="M965.4,488.2c15,0,27.1,12.1,27.1,27.1c0,15-12.1,27.1-27.1,27.1s-27.1-12.1-27.1-27.1
					C938.3,500.4,950.4,488.2,965.4,488.2 M965.4,486.9c-3.8,0-7.5,0.8-11,2.2c-3.4,1.4-6.4,3.5-9,6.1c-2.6,2.6-4.7,5.6-6.1,9
					c-1.5,3.5-2.2,7.2-2.2,11c0,3.8,0.8,7.5,2.2,11c1.4,3.4,3.5,6.4,6.1,9c2.6,2.6,5.6,4.7,9,6.1c3.5,1.5,7.2,2.2,11,2.2
					c3.8,0,7.5-0.8,11-2.2c3.4-1.4,6.4-3.5,9-6.1c2.6-2.6,4.7-5.6,6.1-9c1.5-3.5,2.2-7.2,2.2-11c0-3.8-0.8-7.5-2.2-11
					c-1.4-3.4-3.5-6.4-6.1-9c-2.6-2.6-5.6-4.7-9-6.1C972.9,487.7,969.2,486.9,965.4,486.9L965.4,486.9z"/>
			</g>
		</g>
		<g id="wheel_1_">
			<g>
				<g>
					<path fill="#4D97B2" d="M1011,530h-1v-10h1V530z M1010,530h1v-8h-1V530z"/>
				</g>
				<g>
					<path fill="#4D97B2" d="M1012.2,530.6l-1.3-0.4l2.8-8.8l1.3,0.4L1012.2,530.6z M1011.4,529.9l0.6,0.2l2.6-8.1l-0.6-0.2
						L1011.4,529.9z"/>
				</g>
				<g>
					<path fill="#4D97B2" d="M1012.5,530.9l-1.1-0.8l5.3-7.6l1.1,0.8L1012.5,530.9z M1011.9,530l0.5,0.3l4.8-7l-0.5-0.3L1011.9,530z
						"/>
				</g>
				<g>
					<path fill="#4D97B2" d="M1012.7,531.4l-0.9-1.1l7.2-5.8l0.9,1.1L1012.7,531.4z M1012.4,530.4l0.4,0.5l6.6-5.3l-0.4-0.5
						L1012.4,530.4z"/>
				</g>
				<g>
					<path fill="#4D97B2" d="M1012.7,531.8l-0.5-1.3l8.6-3.4l0.5,1.3L1012.7,531.8z M1012.7,530.8l0.2,0.5l7.9-3.2l-0.2-0.5
						L1012.7,530.8z"/>
				</g>
				<g>
					<path fill="#4D97B2" d="M1012.6,532.3l-0.1-1.4l9.2-0.7l0.1,1.4L1012.6,532.3z M1012.9,531.3l0,0.6l8.4-0.7l0-0.6L1012.9,531.3
						z"/>
				</g>
				<g>
					<path fill="#4D97B2" d="M1021.4,534.8l-9-2.1l0.3-1.3l9,2.1L1021.4,534.8z M1012.8,532.4l8.3,1.9l0.1-0.6l-8.3-1.9
						L1012.8,532.4z"/>
				</g>
				<g>
					<path fill="#4D97B2" d="M1020,537.7l-8-4.7l0.7-1.2l8,4.7L1020,537.7z M1012.5,532.9l7.3,4.3l0.3-0.5l-7.3-4.3L1012.5,532.9z"
						/>
				</g>
				<g>
					<path fill="#4D97B2" d="M1017.9,540l-6.3-6.8l1-0.9l6.3,6.8L1017.9,540z M1012.1,533.3l5.8,6.2l0.4-0.4l-5.8-6.2L1012.1,533.3z
						"/>
				</g>
				<g>
					<path fill="#4D97B2" d="M1015.2,541.6l-4.1-8.3l1.2-0.6l4.1,8.3L1015.2,541.6z M1011.6,533.5l3.7,7.6l0.5-0.3l-3.7-7.6
						L1011.6,533.5z"/>
				</g>
				<g>
					<path fill="#4D97B2" d="M1012.1,542.4l-1.4-9.2l1.4-0.2l1.4,9.2L1012.1,542.4z M1011.1,533.6l1.3,8.4l0.6-0.1l-1.3-8.4
						L1011.1,533.6z"/>
				</g>
				<g>
					<path fill="#4D97B2" d="M1010.1,542.4l-1.4-0.2l1.4-9.2l1.4,0.2L1010.1,542.4z M1009.2,541.9l0.6,0.1l1.3-8.4l-0.6-0.1
						L1009.2,541.9z"/>
				</g>
				<g>
					<path fill="#4D97B2" d="M1007,541.6l-1.2-0.6l4.1-8.3l1.2,0.6L1007,541.6z M1006.3,540.9l0.5,0.3l3.7-7.6l-0.5-0.3
						L1006.3,540.9z"/>
				</g>
				<g>
					<path fill="#4D97B2" d="M1004.3,540l-1-0.9l6.3-6.8l1,0.9L1004.3,540z M1003.9,539.1l0.4,0.4l5.8-6.2l-0.4-0.4L1003.9,539.1z"
						/>
				</g>
				<g>
					<path fill="#4D97B2" d="M1002.2,537.7l-0.7-1.2l8-4.7l0.7,1.2L1002.2,537.7z M1002.1,536.7l0.3,0.5l7.3-4.3l-0.3-0.5
						L1002.1,536.7z"/>
				</g>
				<g>
					<path fill="#4D97B2" d="M1000.8,534.8l-0.3-1.3l9-2.1l0.3,1.3L1000.8,534.8z M1001,533.8l0.1,0.6l8.3-1.9l-0.1-0.6L1001,533.8z
						"/>
				</g>
				<g>
					<path fill="#4D97B2" d="M1009.6,532.3l-9.2-0.7l0.1-1.4l9.2,0.7L1009.6,532.3z M1000.8,531.2l8.4,0.7l0-0.6l-8.4-0.7
						L1000.8,531.2z"/>
				</g>
				<g>
					<path fill="#4D97B2" d="M1009.5,531.8l-8.6-3.4l0.5-1.3l8.6,3.4L1009.5,531.8z M1001.4,528.2l7.9,3.2l0.2-0.5l-7.9-3.2
						L1001.4,528.2z"/>
				</g>
				<g>
					<path fill="#4D97B2" d="M1009.5,531.4l-7.2-5.8l0.9-1.1l7.2,5.8L1009.5,531.4z M1002.9,525.5l6.6,5.3l0.4-0.5l-6.6-5.3
						L1002.9,525.5z"/>
				</g>
				<g>
					<path fill="#4D97B2" d="M1009.7,530.9l-5.3-7.6l1.1-0.8l5.3,7.6L1009.7,530.9z M1005,523.4l4.8,7l0.5-0.3l-4.8-7L1005,523.4z"
						/>
				</g>
				<g>
					<path fill="#4D97B2" d="M1010,530.6l-2.8-8.8l1.3-0.4l2.8,8.8L1010,530.6z M1007.7,522l2.6,8.1l0.6-0.2l-2.6-8.1L1007.7,522z"
						/>
				</g>
				<g>
					<path fill="#4D97B2" d="M1011,530h-1v-10h1V530z M1010,530h1v-8h-1V530z"/>
				</g>
			</g>
			<g>
				<path fill="#4D97B2" d="M1011.1,522.1c5.3,0,9.6,4.3,9.6,9.6s-4.3,9.6-9.6,9.6c-5.3,0-9.6-4.3-9.6-9.6
					S1005.8,522.1,1011.1,522.1 M1011.1,521.2c-5.8,0-10.5,4.7-10.5,10.5s4.7,10.5,10.5,10.5c5.8,0,10.5-4.7,10.5-10.5
					S1016.9,521.2,1011.1,521.2L1011.1,521.2z"/>
				<path fill="#4D97B2" d="M1011.1,521.9c5.4,0,9.9,4.4,9.9,9.9s-4.4,9.9-9.9,9.9s-9.9-4.4-9.9-9.9S1005.7,521.9,1011.1,521.9
					 M1011.1,521.2c-5.8,0-10.5,4.7-10.5,10.5s4.7,10.5,10.5,10.5c5.8,0,10.5-4.7,10.5-10.5S1016.9,521.2,1011.1,521.2L1011.1,521.2
					z"/>
				<path fill="#4D97B2" d="M1011.1,521.2c5.8,0,10.5,4.7,10.5,10.5s-4.7,10.5-10.5,10.5c-5.8,0-10.5-4.7-10.5-10.5
					S1005.3,521.2,1011.1,521.2 M1011.1,519.9c-6.5,0-11.8,5.3-11.8,11.8c0,6.5,5.3,11.8,11.8,11.8c6.5,0,11.8-5.3,11.8-11.8
					C1022.9,525.2,1017.6,519.9,1011.1,519.9L1011.1,519.9z"/>
			</g>
		</g>
		<path fill="#4D97B2" d="M1013,532h-0.9c0-8,0-14.6-0.7-21.7c-0.8-8.1-1.9-14.7-4.4-20c-2.9-6-7-10.7-12-14.1v-2.9l3.3,1.9
			c1.8,0.9,3.7-0.1,3.7-1.7v-6c0-1.1-1.4-1.6-2.9-1.6h-11.7c-2.6,0-3.7,2.4-1.5,3.5l5.1,2.4v2.8c-7-3.1-14.1-4.7-23.5-4.9
			c-0.1-1.1-1.1-2-2.2-2c-1.2,0-2.3,1-2.3,2.2v7.2c0,0.4,0.1,0.7,0.3,1.7H963v34.8c0,0.4-0.3,0.9-0.3,1.5c0,1.4,1.2,2.5,2.6,2.5
			s1.9-1.1,1.9-2.5c0-0.6-0.1-1.1-1.1-1.5V479h1.3c0.2-1-0.3-1.3-0.3-1.7v-5.5c19,0.3,31.2,6.6,37.3,19.3
			c5.5,11.5,5.7,26.2,5.7,40.4c0,0.1,0,0.2,0,0.2c0,0.5,0.9,1,1.5,1c0.5,0,1.5-0.4,1.5-1C1013,531.7,1013,532,1013,532z"/>
	</g>
	<g id="mr">
		<path id="right_hand" fill="#6CA2BA" d="M391.5,502c-0.7,0.2-2.1,0.6-2.1,0.6s-1.3,2.1-1.3,2.8c0,0.6-0.1,2.1,0,2.7
			c0.1,0.5,0.9,1.9,1.3,2.2c0.3,0.2,0.9,0.7,1,0.8c0.2,0.1,0.6-0.2,0.6-0.2s0.3,0.1,0.4-0.1s0.3-0.4,0.3-0.4s0.3,0,0.4-0.2
			c0.1-0.1,0.7-0.7-0.4-2.1c0,0-0.1-0.1-0.1-0.4c0-0.3,0.5-0.8,0.5-1c0.1-0.1,0.5-1.3,0.7-1.4s0.4-0.5,0.4-0.9s0.5-0.6,0.6-0.8
			s0-0.4,0.1-0.5s-0.3-0.4-0.3-0.5C393.1,502.1,392.2,501.8,391.5,502z"/>
		<path id="left_hand" fill="#6CA2BA" d="M429.1,504.5c2,1,4.8,1.2,5.2,0.8c0,0,0.7,1.1,0.7,1.8c0,0.3-0.2,0.7-0.3,1
			c-0.1,0.2-0.5,1.9-0.8,2.1c-0.3,0.3-2.1,2.1-2.5,2.1c-0.4,0-0.6-0.7-0.5-0.8c0.1-0.1-0.6,0.3-0.5-0.5c0.1-0.5,0.3-0.7,0.3-0.7
			s-0.2-0.2-0.4-0.5s-0.2-1.1-0.3-1.4s-0.2-0.5-0.3-1.1C429.6,507.2,429,505.8,429.1,504.5z"/>
		<path id="lower_body" fill="#4D97B2" d="M423,524.5c-0.5-3.9,3.4-13.5,1.6-13.4c-1.8,0.2-23-1.3-23-1.3c-3,11.8,5.7,31.2,8,34.2
			c1,1.3,1.8,4.2,2.4,7.1c-0.1,0.5-0.3,1.2-0.5,1.7c-0.4,0.9-1,2.3-0.8,3.1c0.2,0.9,0.6,1.3,1,1.5c0.2,0.1,0.9,0,1.4,0
			c0.1,1,0.2,1.6,0.2,1.6s0.2,0.1,0.6,0.2c-1.6,2.1-2.6,4.7-2.2,5.8c0.4,1.2,1.5,1.6,2.6,1.7c1.4,0.2,4.2,0.3,5.1-1
			c0.9-1.3,1-2.4,1.2-4.1c0.1-0.5,0.2-0.9,0.3-1.2c0.4-0.2,0.6-0.5,0.7-0.9c0.5-3.5,0.5-4.8,0.5-4.8
			C421.9,553.2,423.5,528.5,423,524.5z"/>
		<g id="upper_body_1_">
			<path id="upper_body" fill="#4D97B2" d="M401.5,500.3c0.1,1.7-1.6,6.6-0.7,8c0.8,1.5,4,8.5,3.8,8.5c-3.3,0.1,17.2-5.3,17.8-4.5
				c0,0,1.2,5.7,3.9,6.8l-0.8-9.2c-0.4-6.1,0.5-15.7,0.5-15.7s1.2,2.6,1.5,4.3c0.3,1.7,0.5,3,0.7,4.5c0.2,0.9,0.8,1.4,1.3,1.7
				c1.5,0.7,3.6,0.8,4.5,0.2c0.9-0.5,0.5-3.5,0.5-4.9c0-0.7-0.3-1.8-0.5-2.9c-0.2-1-4.1-17.4-4.6-19.3c-0.5-1.7-2.6-7.7-3.4-9.7
				c-0.7-2-8.8-5.3-9.9-6c-1.4-1-3.3-2.4-2.5-4.1c0.4-0.8,0.5-1.9,0.5-3l0,0c0.8-1.4-0.3-3.6-0.5-4.6c-0.1-1-1.9-2.8-2.4-3.3
				s-1.2-1.1-3.7-1.4s-4.9,0.9-5.9,1s-0.9,0.5-1.5,0.6c-0.3,0.1-0.5,0-0.7-0.1c-0.1-0.1-0.3-0.1-0.5,0l0,0c-0.1,0.1-0.2,0.1-0.2,0.1
				c-0.2,0-0.6,0-0.9,0c-0.5,0,0.2,0.5,0.2,0.5l0,0c0,0-0.3,0.3-0.8,0.3c-0.5,0.1,0.2,0.8,0.2,0.8s-0.7,0,0,0.8
				c0.7,0.8,0,3.1,1.6,4.8l0,0c0.1,0.2,0.3,0.5,0.5,0.6c0.5,0.4-1,2.3-1.1,2.5c-0.1,0.5,0.5,1.1,0.8,1.1s-0.4,0.8,0.9,1.3
				c0,0,0.1,0.7,0.1,1s0,2.7,0.9,2.9c0.6,0.2,2.1,0.2,2.1,0.2s-0.4,0.5-0.5,0.6c-0.8,0.6-3.6,2.8-3.8,3.3c-0.2,0.6-2,5.8-2,6.8
				c0,1-4.9,19-5.7,20.7c-0.4,0.8-2.3,6.4-1.8,6.7c0.5,0.3,2.9-1.6,4.4,0s1.5-0.7,2.4-2c1.2-1.6,4.2-8.1,4.4-8.4
				c0.2-0.3,1.2,0,1.1,2C401.4,495.9,401.4,498.6,401.5,500.3z"/>
			<path id="shirt" fill="#FFFFFF" d="M403,464.1c0,0,1.4,2.1,4.7,2.1c3.3-0.1,5.7-6.9,5.7-6.9s-2.8,18.9-5,24.5L403,464.1z"/>
		</g>
		<path id="tie" fill="#6CA2BA" d="M404.6,467.2c-0.1,0.4-0.1,0.8-0.2,1c0,0.1,0,0.3,0,0.4l0.3,0.8c0.2,0.4,0.6,0.6,1,0.5
			c0.6-0.2,1.3-0.5,1.6-0.9c0.1-0.2,0.4-0.3,0.6-0.3l0.4,0c0.2,0,0.5,0.1,0.6,0.2c0.3,0.3,1,0.6,1.5,0.8c0.4,0.2,0.9-0.1,1.1-0.5
			l0.3-0.9c0-0.1,0-0.3,0-0.4l-0.2-1c-0.1-0.4-0.6-0.7-1-0.6c-0.6,0.2-1.4,0.4-1.6,0.7c-0.1,0.2-0.4,0.2-0.6,0.3l-0.6,0
			c-0.2,0-0.4,0-0.6-0.2c-0.3-0.3-1.1-0.5-1.7-0.6C405.1,466.5,404.7,466.8,404.6,467.2z"/>
		<path id="cane" fill="#4D97B2" d="M390.9,505.4c-1.4,0-2.4,1.1-2.4,2.5c0,0.5,0.5,0.9,0.5,1.2v51.7v0.2v0.9h2v-0.9l-1-0.2v-50.5
			c1,0,0.5,0.1,0.8,0.1c1.4,0,2.6-1.1,2.6-2.5S392.3,505.4,390.9,505.4z"/>
		<path id="hat" fill="#4D97B2" d="M441.4,513.9c-5.1-3.8-10.1-5.7-11.2-4.2c-0.7,0.9,0.3,2.9,2.4,5.2l-2.3,3
			c-1.5,2-1.1,4.9,0.9,6.4l3.1,2.3c2,1.5,4.9,1.1,6.4-0.9l2.3-3c2.8,1.3,5,1.7,5.7,0.8C449.8,521.9,446.5,517.7,441.4,513.9z"/>
	</g>
</g>
<g id="Layer_6" display="none">
	<g display="inline">
		<rect y="641.3" fill="#4D97B2" width="1440" height="138.8"/>
		<circle fill="#AFD1DD" cx="690.8" cy="650.8" r="43.7"/>
		<path fill="#4D97B2" d="M723.9,659.6C723.9,659.6,723.9,659.6,723.9,659.6c0-0.2,0-0.3-0.1-0.5c-0.3-1.7-1.7-3.8-3.4-4.7
			c0,0,0,0,0,0c-0.3-0.2-0.7-0.3-1.1-0.4c-2.5-0.5-4.1,0.8-4.5,2.2c1.1-1.2,2.6-1.2,3.7-0.4c0,0,0,0,0,0c1.2,0.8,1.9,2.4,1.3,4.3
			c-1.9,2.4-4.8,1.4-7.1,0.1c0,0,0,0,0,0c-0.3-0.2-0.6-0.3-0.9-0.5c-1.5-0.9-3-2-4.6-3l0,0c0,0,0,0,0,0c0,0,0,0.2,0,0.2l0,0.2
			c0,0,0,0,0,0c-1.9-2-3.9-2.5-6.3-3.1c-0.1,0-0.1-0.1-0.1-0.1c-1.1-0.3-2.3-0.4-3.6-0.4c-2.9,0.1-4.5,1.3-6.9,2.5
			c-0.4-0.3-0.8-0.6-1.2-0.8c0,0-0.1-0.1-0.1-0.1c-1.8-1.1-4-1.9-6.6-1.7c-0.6,0-1.2,0.2-1.8,0.3c0,0-0.1,0-0.1,0l0,0
			c-2.7,0.8-5.4,2.5-7.9,3.9c-1.3,0.7-2.8,1.6-4.6,2.5c-1.6,0.8-3.9,2.1-5.5,1.3c-0.4-0.2-0.7-0.6-0.9-1.1c0,0,0-0.1,0-0.1
			c-0.6-1.6,0.1-4.3,1.7-4.8c1-0.3,1.5-0.1,2.8,0.3c-0.4-1.2-2.1-1.5-3.3-1.5c-3.1,0-5.1,3.2-5.2,5.8c0,1.1,0.1,2,0.4,2.9
			c0,0,0,0.1,0,0.1c0.7,2.1,2.2,3.6,3.9,4.6l-0.1,0c0,0,0,0,0,0c0.9,0.5,1.8,0.9,2.7,1.2c1.5,0.5,3.1,0.7,4.7,0.9c0.1,0,0.1,0,0.2,0
			c4.2,0.3,8.5-0.5,12.2-1.7c0.1,0,0.2-0.1,0.3-0.1c1.6-0.5,3.1-1.2,4.4-1.8c1.6-0.8,2.9-1.8,4.2-2.7c1.2,1,2.5,1.8,4,2.7
			c0,0,0,0,0,0l0,0c2,1.1,4.2,2,6.7,2.6c0,0,0,0,0.1,0c2.7,0.7,5.6,1.1,8.7,1.1c0,0,0,0,0.1,0c0.8,0,1.6,0,2.4-0.1
			c3.2-0.2,6.7-1.5,8.7-3.3C722.9,665.1,724.2,662.3,723.9,659.6z"/>
	</g>
	<text transform="matrix(1 0 0 1 110.087 682.999)" display="inline"><tspan x="0" y="0" fill="#FFFFFF" font-family="'Roboto-Light'" font-size="28">Contact</tspan><tspan x="0" y="28" fill="#FFFFFF" font-family="'Roboto-Light'" font-size="28">2566 atlantis dr</tspan><tspan x="0" y="56" fill="#FFFFFF" font-family="'Roboto-Light'" font-size="28">(619)555-1234</tspan><tspan x="0" y="84" fill="#FFFFFF" font-family="'Roboto-Light'" font-size="28">email@moose.com</tspan></text>
	<text transform="matrix(1 0 0 1 1035.4775 688.5995)" display="inline"><tspan x="0" y="0" fill="#FFFFFF" font-family="'Roboto-Light'" font-size="28">Hours</tspan><tspan x="0" y="28" fill="#FFFFFF" font-family="'Roboto-Light'" font-size="28">Mon-Fri: 10am - 8pm</tspan><tspan x="0" y="56" fill="#FFFFFF" font-family="'Roboto-Light'" font-size="28">Sat-Sun: 10am - 6pm</tspan></text>
	<polygon display="inline" fill="#4D97B2" points="1034.2,199 1440,199 1440,92.5 1034.2,92.5 1076.2,144.5 	"/>
	
		<text transform="matrix(1 0 0 1 1105.0022 174.4771)" display="inline" fill="#FFFFFF" font-family="'Lobster1.4'" font-size="90.313">Eastlake</text>
</g>
</svg>
